<?xml version="1.0" encoding="iso-8859-1"?>
<!-- Generator: Adobe Illustrator 19.0.0, SVG Export Plug-In . SVG Version: 6.00 Build 0)  -->
<svg fill='#eeeeee' version="1.1" id="Layer_1" xmlns="http://www.w3.org/2000/svg" xmlns:xlink="http://www.w3.org/1999/xlink" x="0px" y="0px"
	 viewBox="0 0 512 512" style="enable-background:new 0 0 512 512;" xml:space="preserve">
<g>
	<g>
		<g>
			<path d="M415.999,192.011H298.666V10.684c0-4.729-3.125-8.896-7.667-10.239c-4.458-1.365-9.417,0.49-11.979,4.469l-192,298.656
				c-2.104,3.281-2.25,7.458-0.375,10.885c1.854,3.417,5.458,5.534,9.354,5.534h117.333v181.345c0,4.729,3.125,8.896,7.667,10.239
				c0.979,0.292,2,0.427,3,0.427c3.563,0,6.979-1.792,8.979-4.896l192-298.656c2.104-3.281,2.25-7.458,0.375-10.885
				C423.499,194.146,419.895,192.011,415.999,192.011z"/>
			<path d="M383.999,21.333c-23.521,0-42.667,19.135-42.667,42.667v96c0,5.896,4.771,10.667,10.667,10.667
				s10.667-4.771,10.667-10.667v-32h42.667v32c0,5.896,4.771,10.667,10.667,10.667s10.667-4.771,10.667-10.667V64
				C426.666,40.469,407.52,21.333,383.999,21.333z M405.333,106.667h-42.667V64c0-11.76,9.563-21.333,21.333-21.333
				S405.333,52.24,405.333,64V106.667z"/>
		</g>
	</g>
</g>
<g>
</g>
<g>
</g>
<g>
</g>
<g>
</g>
<g>
</g>
<g>
</g>
<g>
</g>
<g>
</g>
<g>
</g>
<g>
</g>
<g>
</g>
<g>
</g>
<g>
</g>
<g>
</g>
<g>
</g>
</svg>
