<?xml version="1.0" encoding="iso-8859-1"?>
<!-- Generator: Adobe Illustrator 19.0.0, SVG Export Plug-In . SVG Version: 6.00 Build 0)  -->
<svg fill='#eeeeee' version="1.1" id="Layer_1" xmlns="http://www.w3.org/2000/svg" xmlns:xlink="http://www.w3.org/1999/xlink" x="0px" y="0px"
	 viewBox="0 0 512 512" style="enable-background:new 0 0 512 512;" xml:space="preserve">
<g>
	<g>
		<path d="M508.875,248.458L448,187.583V74.667C448,68.771,443.229,64,437.333,64H324.417L263.542,3.125
			c-4.167-4.167-10.917-4.167-15.083,0L187.583,64H74.667C68.771,64,64,68.771,64,74.667v112.917L3.125,248.458
			c-4.167,4.167-4.167,10.917,0,15.083L64,324.417v112.917C64,443.229,68.771,448,74.667,448h112.917l60.875,60.875
			c2.083,2.083,4.813,3.125,7.542,3.125s5.458-1.042,7.542-3.125L324.417,448h112.917c5.896,0,10.667-4.771,10.667-10.667V324.417
			l60.875-60.875C513.042,259.375,513.042,252.625,508.875,248.458z M256,405.333c-19.854,0-39.188-3.865-57.438-11.49
			C194.583,392.188,192,388.302,192,384c0-4.302,2.583-8.188,6.563-9.844c47.854-19.958,78.771-66.333,78.771-118.156
			s-30.917-98.198-78.771-118.156C194.583,136.188,192,132.302,192,128c0-4.302,2.583-8.187,6.563-9.844
			c18.25-7.625,37.583-11.49,57.438-11.49c82.333,0,149.333,66.99,149.333,149.333S338.333,405.333,256,405.333z"/>
	</g>
</g>
<g>
</g>
<g>
</g>
<g>
</g>
<g>
</g>
<g>
</g>
<g>
</g>
<g>
</g>
<g>
</g>
<g>
</g>
<g>
</g>
<g>
</g>
<g>
</g>
<g>
</g>
<g>
</g>
<g>
</g>
</svg>
