<?xml version="1.0" encoding="iso-8859-1"?>
<!-- Generator: Adobe Illustrator 19.0.0, SVG Export Plug-In . SVG Version: 6.00 Build 0)  -->
<svg fill='#eeeeee' version="1.1" id="Layer_1" xmlns="http://www.w3.org/2000/svg" xmlns:xlink="http://www.w3.org/1999/xlink" x="0px" y="0px"
	 viewBox="0 0 512 512" style="enable-background:new 0 0 512 512;" xml:space="preserve">
<g>
	<g>
		<g>
			<circle cx="256" cy="170.667" r="64"/>
			<path d="M405.333,42.667h-44.5c-2.802,0-5.552-1.135-7.542-3.125L323.125,9.375C317.083,3.333,309.042,0,300.5,0h-89
				c-8.542,0-16.583,3.333-22.625,9.375l-30.167,30.167c-1.99,1.99-4.74,3.125-7.542,3.125h-44.5C83.135,42.667,64,61.802,64,85.333
				v192C64,300.865,83.135,320,106.667,320h75.745c2.158,14.883,8.628,28.271,18.23,38.97l-71.444,137.447
				c-2.708,5.229-0.677,11.667,4.552,14.385c1.573,0.813,3.25,1.198,4.906,1.198c3.854,0,7.573-2.094,9.479-5.75l69.294-133.311
				c8.383,5.103,17.794,8.517,27.904,9.983v118.411c0,5.896,4.771,10.667,10.667,10.667s10.667-4.771,10.667-10.667V382.922
				c10.109-1.466,19.521-4.88,27.904-9.983l69.294,133.311c1.906,3.656,5.625,5.75,9.479,5.75c1.656,0,3.333-0.385,4.906-1.198
				c5.229-2.719,7.26-9.156,4.552-14.385L311.358,358.97c9.603-10.699,16.073-24.087,18.23-38.97h75.745
				C428.865,320,448,300.865,448,277.333v-192C448,61.802,428.865,42.667,405.333,42.667z M256,256
				c-47.052,0-85.333-38.281-85.333-85.333c0-47.052,38.281-85.333,85.333-85.333s85.333,38.281,85.333,85.333
				C341.333,217.719,303.052,256,256,256z M384,128c-11.76,0-21.333-9.573-21.333-21.333c0-11.76,9.573-21.333,21.333-21.333
				c11.76,0,21.333,9.573,21.333,21.333C405.333,118.427,395.76,128,384,128z"/>
		</g>
	</g>
</g>
<g>
</g>
<g>
</g>
<g>
</g>
<g>
</g>
<g>
</g>
<g>
</g>
<g>
</g>
<g>
</g>
<g>
</g>
<g>
</g>
<g>
</g>
<g>
</g>
<g>
</g>
<g>
</g>
<g>
</g>
</svg>
