<?xml version="1.0" encoding="iso-8859-1"?>
<!-- Generator: Adobe Illustrator 19.0.0, SVG Export Plug-In . SVG Version: 6.00 Build 0)  -->
<svg fill='#eeeeee' version="1.1" id="Layer_1" xmlns="http://www.w3.org/2000/svg" xmlns:xlink="http://www.w3.org/1999/xlink" x="0px" y="0px"
	 viewBox="0 0 512 512" style="enable-background:new 0 0 512 512;" xml:space="preserve">
<g>
	<g>
		<g>
			<circle cx="170.667" cy="234.667" r="21.333"/>
			<path d="M469.333,106.667H448V96c0-5.896-4.771-10.667-10.667-10.667h-42.667C388.771,85.333,384,90.104,384,96v10.667h-35.667
				c-8.417,0-16.667-3.417-22.625-9.375l-17.667-17.667C297.958,69.552,284.583,64,270.333,64H199
				c-14.25,0-27.625,5.552-37.708,15.625l-17.667,17.667c-5.958,5.958-14.208,9.375-22.625,9.375H42.667
				C19.146,106.667,0,125.802,0,149.333v256C0,428.865,19.146,448,42.667,448h426.667C492.854,448,512,428.865,512,405.333v-256
				C512,125.802,492.854,106.667,469.333,106.667z M192,117.333c0-5.896,4.771-10.667,10.667-10.667h64
				c5.896,0,10.667,4.771,10.667,10.667v21.333c0,5.896-4.771,10.667-10.667,10.667h-64c-5.896,0-10.667-4.771-10.667-10.667
				V117.333z M320,326.259l-77.792-77.801c-4-4-11.083-4-15.083,0l-33.833,33.833c-4.167,4.167-4.167,10.917,0,15.083l10.667,10.667
				c4.167,4.156,4.167,10.927,0,15.083c-4.042,4.021-11.042,4.021-15.083,0l-42.667-42.667c-4.167-4.167-10.917-4.167-15.083,0
				L64,347.574V181.333c0-5.885,4.792-10.667,10.667-10.667h234.667c5.875,0,10.667,4.781,10.667,10.667V326.259z M384,192
				c11.771,0,21.333,9.573,21.333,21.333c0,11.76-9.563,21.333-21.333,21.333c-11.771,0-21.333-9.573-21.333-21.333
				C362.667,201.573,372.229,192,384,192z M416,384c-29.417,0-53.333-23.927-53.333-53.333s23.917-53.333,53.333-53.333
				c29.417,0,53.333,23.927,53.333,53.333S445.417,384,416,384z M448,234.667c-11.771,0-21.333-9.573-21.333-21.333
				c0-11.76,9.563-21.333,21.333-21.333c11.771,0,21.333,9.573,21.333,21.333C469.333,225.094,459.771,234.667,448,234.667z"/>
		</g>
	</g>
</g>
<g>
</g>
<g>
</g>
<g>
</g>
<g>
</g>
<g>
</g>
<g>
</g>
<g>
</g>
<g>
</g>
<g>
</g>
<g>
</g>
<g>
</g>
<g>
</g>
<g>
</g>
<g>
</g>
<g>
</g>
</svg>
