<?xml version="1.0" encoding="iso-8859-1"?>
<!-- Generator: Adobe Illustrator 19.0.0, SVG Export Plug-In . SVG Version: 6.00 Build 0)  -->
<svg fill='#eeeeee' version="1.1" id="Layer_1" xmlns="http://www.w3.org/2000/svg" xmlns:xlink="http://www.w3.org/1999/xlink" x="0px" y="0px"
	 viewBox="0 0 469.333 469.333" style="enable-background:new 0 0 469.333 469.333;" xml:space="preserve">
<g>
	<g>
		<g>
			<path d="M244.958,245.875C240.583,232.792,228.375,224,214.583,224H190.75c-13.813,0-26,8.792-30.354,21.875l-22.833,68.5
				C131.229,333.427,128,353.26,128,373.333c0,11.76,9.563,21.333,21.333,21.333H256c11.771,0,21.333-9.573,21.333-21.344
				c0-20.083-3.229-39.927-9.583-58.958L244.958,245.875z"/>
			<path d="M96,138.667h213.333c5.896,0,10.667-4.771,10.667-10.667V85.333c0-5.896-4.771-10.667-10.667-10.667H96
				c-5.896,0-10.667,4.771-10.667,10.667V128C85.333,133.896,90.104,138.667,96,138.667z"/>
			<path d="M103.167,53.333h199c3.813,0,7.333-2.042,9.25-5.344c1.896-3.313,1.896-7.385-0.021-10.677
				c-9.563-16.437-27.188-26.646-46.042-26.646H139.979c-18.854,0-36.479,10.208-46.042,26.646
				c-1.917,3.292-1.917,7.365-0.021,10.677C95.833,51.292,99.354,53.333,103.167,53.333z"/>
			<path d="M405.333,202.667c-34,0-49.417,34.604-60.688,59.875c-4.229,9.521-10.646,23.927-12.396,25.865
				c-5.042-3.677-10.875-29.573-12.271-54.333C319.667,228.417,315,224,309.333,224h-6.527l16.652-49.958
				c1.083-3.25,0.542-6.833-1.479-9.615c-2-2.781-5.208-4.427-8.646-4.427H96c-3.438,0-6.646,1.646-8.646,4.427
				c-2.021,2.781-2.563,6.365-1.479,9.615L102.527,224H96c-3.25,0-6.313,1.469-8.333,4l-66.625,83.292
				C7.479,328.271,0,349.563,0,371.271v34.063c0,32.896,28.604,53.333,74.667,53.333h320c49.542,0,74.667-25.125,74.667-74.667
				v-85.333C469.333,274.927,469.333,202.667,405.333,202.667z M256,416H149.333c-23.521,0-42.667-19.135-42.667-42.667
				c0-22.417,3.583-44.521,10.688-65.74l23.083-69.062c0.021-0.053,0.001-0.112,0.021-0.165c0.021-0.056,0.085-0.081,0.104-0.137
				c7.542-21.271,27.708-35.563,50.188-35.563h23.833c22.479,0,42.646,14.292,50.187,35.563c0.068,0.191,0.272,0.277,0.35,0.462
				c0.04,0.141,0,0.306,0.046,0.444L288,307.625c7.083,21.198,10.667,43.302,10.667,65.698C298.667,396.854,279.521,416,256,416z
				 M384,416c-23.521,0-42.667-19.135-42.667-42.667s19.146-42.667,42.667-42.667c23.521,0,42.667,19.135,42.667,42.667
				S407.521,416,384,416z M405.333,288C393.563,288,384,278.427,384,266.667c0-11.76,9.563-21.333,21.333-21.333
				s21.333,9.573,21.333,21.333C426.667,278.427,417.104,288,405.333,288z"/>
		</g>
	</g>
</g>
<g>
</g>
<g>
</g>
<g>
</g>
<g>
</g>
<g>
</g>
<g>
</g>
<g>
</g>
<g>
</g>
<g>
</g>
<g>
</g>
<g>
</g>
<g>
</g>
<g>
</g>
<g>
</g>
<g>
</g>
</svg>
