<?xml version="1.0" encoding="iso-8859-1"?>
<!-- Generator: Adobe Illustrator 19.0.0, SVG Export Plug-In . SVG Version: 6.00 Build 0)  -->
<svg fill='#eeeeee' version="1.1" id="Layer_1" xmlns="http://www.w3.org/2000/svg" xmlns:xlink="http://www.w3.org/1999/xlink" x="0px" y="0px"
	 viewBox="0 0 512 512" style="enable-background:new 0 0 512 512;" xml:space="preserve">
<g>
	<g>
		<g>
			<path d="M10.667,362.667h32c11.76,0,21.333-9.573,21.333-21.333v-128C64,201.573,54.427,192,42.667,192h-32
				C4.771,192,0,196.771,0,202.667V352C0,357.896,4.771,362.667,10.667,362.667z"/>
			<path d="M469.333,106.667h-99.656c-8.552,0-16.583-3.333-22.635-9.375l-17.667-17.667C319.302,69.552,305.906,64,291.656,64
				h-71.313c-14.25,0-27.646,5.552-37.719,15.625l-17.667,17.667c-6.052,6.042-14.083,9.375-22.635,9.375H42.667
				C19.135,106.667,0,125.802,0,149.333V160c0,5.896,4.771,10.667,10.667,10.667h32c23.531,0,42.667,19.135,42.667,42.667v128
				c0,23.531-19.135,42.667-42.667,42.667h-32C4.771,384,0,388.771,0,394.667v10.667C0,428.865,19.135,448,42.667,448h426.667
				C492.865,448,512,428.865,512,405.333v-256C512,125.802,492.865,106.667,469.333,106.667z M256,384
				c-58.813,0-106.667-47.854-106.667-106.667S197.188,170.667,256,170.667s106.667,47.854,106.667,106.667S314.813,384,256,384z
				 M426.667,213.333c-11.76,0-21.333-9.573-21.333-21.333s9.573-21.333,21.333-21.333S448,180.24,448,192
				S438.427,213.333,426.667,213.333z"/>
			<path d="M256,192c-47.052,0-85.333,38.281-85.333,85.333c0,47.052,38.281,85.333,85.333,85.333s85.333-38.281,85.333-85.333
				C341.333,230.281,303.052,192,256,192z M256,234.667c-23.531,0-42.667,19.135-42.667,42.667c0,5.896-4.771,10.667-10.667,10.667
				c-5.896,0-10.667-4.771-10.667-10.667c0-35.292,28.708-64,64-64c5.896,0,10.667,4.771,10.667,10.667S261.896,234.667,256,234.667
				z"/>
		</g>
	</g>
</g>
<g>
</g>
<g>
</g>
<g>
</g>
<g>
</g>
<g>
</g>
<g>
</g>
<g>
</g>
<g>
</g>
<g>
</g>
<g>
</g>
<g>
</g>
<g>
</g>
<g>
</g>
<g>
</g>
<g>
</g>
</svg>
