<?xml version="1.0" encoding="iso-8859-1"?>
<!-- Generator: Adobe Illustrator 19.0.0, SVG Export Plug-In . SVG Version: 6.00 Build 0)  -->
<svg fill='#eeeeee' version="1.1" id="Layer_1" xmlns="http://www.w3.org/2000/svg" xmlns:xlink="http://www.w3.org/1999/xlink" x="0px" y="0px"
	 viewBox="0 0 512 512" style="enable-background:new 0 0 512 512;" xml:space="preserve">
<g>
	<g>
		<g>
			<path d="M501.333,256H10.667C4.771,256,0,260.771,0,266.667V352c0,5.896,4.771,10.667,10.667,10.667h490.667
				c5.896,0,10.667-4.771,10.667-10.667v-85.333C512,260.771,507.229,256,501.333,256z"/>
			<path d="M501.333,384H10.667C4.771,384,0,388.771,0,394.667v10.667C0,428.865,19.146,448,42.667,448h426.667
				C492.854,448,512,428.865,512,405.333v-10.667C512,388.771,507.229,384,501.333,384z"/>
			<path d="M469.333,106.667H448v-32C448,68.771,443.229,64,437.333,64h-64c-5.896,0-10.667,4.771-10.667,10.667v32h-320
				C19.146,106.667,0,125.802,0,149.333V224c0,5.896,4.771,10.667,10.667,10.667h490.667c5.896,0,10.667-4.771,10.667-10.667
				v-74.667C512,125.802,492.854,106.667,469.333,106.667z M128,181.333c0,5.896-4.771,10.667-10.667,10.667H74.667
				C68.771,192,64,187.229,64,181.333V160c0-5.896,4.771-10.667,10.667-10.667h42.667c5.896,0,10.667,4.771,10.667,10.667V181.333z
				 M426.667,192c-11.771,0-21.333-9.573-21.333-21.333c0-11.76,9.563-21.333,21.333-21.333S448,158.906,448,170.667
				C448,182.427,438.438,192,426.667,192z"/>
		</g>
	</g>
</g>
<g>
</g>
<g>
</g>
<g>
</g>
<g>
</g>
<g>
</g>
<g>
</g>
<g>
</g>
<g>
</g>
<g>
</g>
<g>
</g>
<g>
</g>
<g>
</g>
<g>
</g>
<g>
</g>
<g>
</g>
</svg>
