<?xml version="1.0" encoding="iso-8859-1"?>
<!-- Generator: Adobe Illustrator 19.0.0, SVG Export Plug-In . SVG Version: 6.00 Build 0)  -->
<svg fill='#eeeeee' version="1.1" id="Layer_1" xmlns="http://www.w3.org/2000/svg" xmlns:xlink="http://www.w3.org/1999/xlink" x="0px" y="0px"
	 viewBox="0 0 512 512" style="enable-background:new 0 0 512 512;" xml:space="preserve">
<g>
	<g>
		<g>
			<path d="M197.49,314.667c1.906-3.302,1.906-7.365,0-10.667l-55.292-95.781c-1.948-3.375-5.448-5.521-9.479-5.333
				c-3.896,0.094-7.427,2.292-9.229,5.75c-11.167,21.49-16.823,44.604-16.823,68.698c0,11.208,1.396,22.802,4.135,34.448
				c1.135,4.813,5.438,8.219,10.385,8.219h67.063C192.063,320,195.583,317.969,197.49,314.667z"/>
			<path d="M314.5,240c-1.906,3.302-1.906,7.365,0,10.667l55.302,95.781c1.906,3.302,5.438,5.333,9.24,5.333c0.083,0,0.156,0,0.24,0
				c3.896-0.094,7.427-2.292,9.229-5.75c11.167-21.49,16.823-44.604,16.823-68.698c0-11.208-1.396-22.802-4.135-34.448
				c-1.135-4.813-5.438-8.219-10.385-8.219H323.74C319.927,234.667,316.406,236.698,314.5,240z"/>
			<path d="M298.792,134.302c-4.76-1.417-9.813,0.625-12.292,4.885l-33.573,58.146c-1.906,3.302-1.906,7.365,0,10.667
				s5.427,5.333,9.24,5.333h110.563c3.896,0,7.49-2.125,9.354-5.552c1.875-3.417,1.729-7.583-0.375-10.875
				C362.365,166.729,332.917,144.49,298.792,134.302z"/>
			<path d="M259.073,346.667c-1.906-3.302-5.427-5.333-9.24-5.333H139.271c-3.896,0-7.49,2.125-9.354,5.552
				c-1.875,3.417-1.729,7.583,0.375,10.875c19.344,30.177,48.802,52.417,82.927,62.604c1.01,0.302,2.042,0.448,3.052,0.448
				c3.74,0,7.292-1.969,9.24-5.333l33.563-58.146C260.979,354.031,260.979,349.969,259.073,346.667z"/>
			<path d="M185.177,240c1.906,3.302,5.427,5.333,9.24,5.333s7.333-2.031,9.24-5.333l55.24-95.677
				c1.948-3.375,1.896-7.542-0.125-10.875c-2.01-3.313-5.677-5.198-9.594-5.115c-35.698,1.615-69.646,16-95.604,40.521
				c-3.594,3.385-4.385,8.802-1.917,13.083L185.177,240z"/>
			<path d="M469.333,106.667h-67.656c-8.552,0-16.583-3.333-22.635-9.375l-39-39c-10.073-10.073-23.469-15.625-37.719-15.625
				h-92.646c-14.25,0-27.646,5.552-37.719,15.625l-39,39c-6.052,6.042-14.083,9.375-22.635,9.375H42.667
				C19.135,106.667,0,125.802,0,149.333v277.333c0,23.531,19.135,42.667,42.667,42.667h426.667
				c23.531,0,42.667-19.135,42.667-42.667V149.333C512,125.802,492.865,106.667,469.333,106.667z M256,448
				c-94.104,0-170.667-76.563-170.667-170.667S161.896,106.667,256,106.667s170.667,76.563,170.667,170.667S350.104,448,256,448z
				 M448,192c-11.76,0-21.333-9.573-21.333-21.333c0-11.76,9.573-21.333,21.333-21.333c11.76,0,21.333,9.573,21.333,21.333
				C469.333,182.427,459.76,192,448,192z"/>
			<path d="M326.823,314.677c-3.813-6.604-14.667-6.604-18.479,0l-55.229,95.667c-1.948,3.375-1.896,7.542,0.125,10.875
				c1.938,3.188,5.396,5.125,9.115,5.125c0.156,0,0.323,0,0.479-0.01c35.688-1.615,69.635-16,95.594-40.521
				c3.594-3.385,4.385-8.802,1.917-13.083L326.823,314.677z"/>
		</g>
	</g>
</g>
<g>
</g>
<g>
</g>
<g>
</g>
<g>
</g>
<g>
</g>
<g>
</g>
<g>
</g>
<g>
</g>
<g>
</g>
<g>
</g>
<g>
</g>
<g>
</g>
<g>
</g>
<g>
</g>
<g>
</g>
</svg>
