<?xml version="1.0" encoding="iso-8859-1"?>
<!-- Generator: Adobe Illustrator 19.0.0, SVG Export Plug-In . SVG Version: 6.00 Build 0)  -->
<svg fill='#eeeeee' version="1.1" id="Layer_1" xmlns="http://www.w3.org/2000/svg" xmlns:xlink="http://www.w3.org/1999/xlink" x="0px" y="0px"
	 viewBox="0 0 512 512" style="enable-background:new 0 0 512 512;" xml:space="preserve">
<g>
	<g>
		<g>
			<circle cx="256" cy="117.333" r="42.667"/>
			<path d="M352,21.333h-33.833c-2.802,0-5.552-1.135-7.542-3.125l-8.833-8.833C295.75,3.333,287.708,0,279.167,0h-46.333
				c-8.542,0-16.583,3.333-22.625,9.375l-8.833,8.833c-1.99,1.99-4.74,3.125-7.542,3.125H160c-17.646,0-32,14.354-32,32v128
				c0,17.646,14.354,32,32,32h192c17.646,0,32-14.354,32-32v-128C384,35.688,369.646,21.333,352,21.333z M256,181.333
				c-35.292,0-64-28.708-64-64c0-35.292,28.708-64,64-64s64,28.708,64,64C320,152.625,291.292,181.333,256,181.333z"/>
			<path d="M270.482,363.268l25.061-25.063c2-1.999,3.124-4.711,3.124-7.539v-85.333c0-5.892-4.776-10.667-10.667-10.667h-64
				c-5.891,0-10.667,4.775-10.667,10.667v85.333c0,2.828,1.124,5.54,3.124,7.539l25.061,25.063l-110.997,131.18
				c-3.802,4.49-3.24,11.219,1.26,15.031c4.51,3.792,11.229,3.25,15.031-1.26l98.521-116.435v109.549
				c0,5.896,4.771,10.667,10.667,10.667s10.667-4.771,10.667-10.667V391.784l98.521,116.435c2.115,2.5,5.125,3.781,8.156,3.781
				c2.427,0,4.875-0.833,6.875-2.521c4.5-3.813,5.063-10.542,1.26-15.031L270.482,363.268z"/>
		</g>
	</g>
</g>
<g>
</g>
<g>
</g>
<g>
</g>
<g>
</g>
<g>
</g>
<g>
</g>
<g>
</g>
<g>
</g>
<g>
</g>
<g>
</g>
<g>
</g>
<g>
</g>
<g>
</g>
<g>
</g>
<g>
</g>
</svg>
