<?xml version="1.0" encoding="iso-8859-1"?>
<!-- Generator: Adobe Illustrator 19.0.0, SVG Export Plug-In . SVG Version: 6.00 Build 0)  -->
<svg fill='#eeeeee' version="1.1" id="Layer_1" xmlns="http://www.w3.org/2000/svg" xmlns:xlink="http://www.w3.org/1999/xlink" x="0px" y="0px"
	 viewBox="0 0 512 512" style="enable-background:new 0 0 512 512;" xml:space="preserve">
<g>
	<g>
		<g>
			<path d="M469.333,106.667h-67.656c-8.552,0-16.583-3.333-22.635-9.375l-39-39c-10.073-10.073-23.469-15.625-37.719-15.625
				h-92.646c-14.25,0-27.646,5.552-37.719,15.625l-39,39c-6.052,6.042-14.083,9.375-22.635,9.375H42.667
				C19.135,106.667,0,125.802,0,149.333v277.333c0,23.531,19.135,42.667,42.667,42.667h426.667
				c23.531,0,42.667-19.135,42.667-42.667V149.333C512,125.802,492.865,106.667,469.333,106.667z M405.333,362.667
				c0,23.531-19.135,42.667-42.667,42.667H149.333c-23.531,0-42.667-19.135-42.667-42.667V213.333
				c0-23.531,19.135-42.667,42.667-42.667h213.333c23.531,0,42.667,19.135,42.667,42.667V362.667z"/>
			<path d="M303.958,278.74l-74.667-42.667c-3.313-1.896-7.365-1.865-10.646,0.031c-3.292,1.917-5.313,5.427-5.313,9.229v85.333
				c0,3.802,2.021,7.313,5.313,9.229c1.656,0.958,3.5,1.438,5.354,1.438c1.823,0,3.656-0.469,5.292-1.406l74.667-42.667
				c3.323-1.896,5.375-5.438,5.375-9.26S307.281,280.635,303.958,278.74z"/>
		</g>
	</g>
</g>
<g>
</g>
<g>
</g>
<g>
</g>
<g>
</g>
<g>
</g>
<g>
</g>
<g>
</g>
<g>
</g>
<g>
</g>
<g>
</g>
<g>
</g>
<g>
</g>
<g>
</g>
<g>
</g>
<g>
</g>
</svg>
