<?xml version="1.0" encoding="iso-8859-1"?>
<!-- Generator: Adobe Illustrator 19.0.0, SVG Export Plug-In . SVG Version: 6.00 Build 0)  -->
<svg fill='#eeeeee' version="1.1" id="Layer_1" xmlns="http://www.w3.org/2000/svg" xmlns:xlink="http://www.w3.org/1999/xlink" x="0px" y="0px"
	 viewBox="0 0 512 512" style="enable-background:new 0 0 512 512;" xml:space="preserve">
<g>
	<g>
		<path d="M469.333,106.667h-99.667c-8.417,0-16.667-3.417-22.625-9.375l-17.667-17.667C319.292,69.552,305.917,64,291.667,64
			h-71.333c-14.25,0-27.625,5.552-37.708,15.625l-17.667,17.667c-5.958,5.958-14.208,9.375-22.625,9.375H42.667
			C19.146,106.667,0,125.802,0,149.333v256C0,428.865,19.146,448,42.667,448h426.667C492.854,448,512,428.865,512,405.333v-256
			C512,125.802,492.854,106.667,469.333,106.667z M320,341.333C320,364.865,300.854,384,277.333,384H106.667
			C83.146,384,64,364.865,64,341.333v-128c0-23.531,19.146-42.667,42.667-42.667h170.667c23.521,0,42.667,19.135,42.667,42.667
			V341.333z M405.333,384c-35.292,0-64-28.708-64-64s28.708-64,64-64c35.292,0,64,28.708,64,64S440.625,384,405.333,384z"/>
	</g>
</g>
<g>
</g>
<g>
</g>
<g>
</g>
<g>
</g>
<g>
</g>
<g>
</g>
<g>
</g>
<g>
</g>
<g>
</g>
<g>
</g>
<g>
</g>
<g>
</g>
<g>
</g>
<g>
</g>
<g>
</g>
</svg>
