<?xml version="1.0" encoding="iso-8859-1"?>
<!-- Generator: Adobe Illustrator 19.0.0, SVG Export Plug-In . SVG Version: 6.00 Build 0)  -->
<svg fill='#eeeeee' version="1.1" id="Layer_1" xmlns="http://www.w3.org/2000/svg" xmlns:xlink="http://www.w3.org/1999/xlink" x="0px" y="0px"
	 viewBox="0 0 512 512" style="enable-background:new 0 0 512 512;" xml:space="preserve">
<g>
	<g>
		<g>
			<circle cx="256" cy="277.333" r="64"/>
			<path d="M256,170.667c-58.813,0-106.667,47.854-106.667,106.667S197.188,384,256,384s106.667-47.854,106.667-106.667
				S314.813,170.667,256,170.667z M256,362.667c-47.052,0-85.333-38.281-85.333-85.333C170.667,230.281,208.948,192,256,192
				s85.333,38.281,85.333,85.333C341.333,324.385,303.052,362.667,256,362.667z"/>
			<path d="M469.333,106.667h-320v-32c0-5.896-4.771-10.667-10.667-10.667h-64C68.771,64,64,68.771,64,74.667v32H42.667
				C19.135,106.667,0,125.802,0,149.333v256C0,428.865,19.135,448,42.667,448h426.667C492.865,448,512,428.865,512,405.333v-256
				C512,125.802,492.865,106.667,469.333,106.667z M85.333,213.333C73.573,213.333,64,203.76,64,192s9.573-21.333,21.333-21.333
				c11.76,0,21.333,9.573,21.333,21.333S97.094,213.333,85.333,213.333z M256,405.333c-70.583,0-128-57.417-128-128
				s57.417-128,128-128s128,57.417,128,128S326.583,405.333,256,405.333z M448,202.667c0,5.896-4.771,10.667-10.667,10.667h-42.667
				c-5.896,0-10.667-4.771-10.667-10.667v-21.333c0-5.896,4.771-10.667,10.667-10.667h42.667c5.896,0,10.667,4.771,10.667,10.667
				V202.667z"/>
		</g>
	</g>
</g>
<g>
</g>
<g>
</g>
<g>
</g>
<g>
</g>
<g>
</g>
<g>
</g>
<g>
</g>
<g>
</g>
<g>
</g>
<g>
</g>
<g>
</g>
<g>
</g>
<g>
</g>
<g>
</g>
<g>
</g>
</svg>
