<?xml version="1.0" encoding="iso-8859-1"?>
<!-- Generator: Adobe Illustrator 19.0.0, SVG Export Plug-In . SVG Version: 6.00 Build 0)  -->
<svg fill='#eeeeee' version="1.1" id="Layer_1" xmlns="http://www.w3.org/2000/svg" xmlns:xlink="http://www.w3.org/1999/xlink" x="0px" y="0px"
	 viewBox="0 0 469.333 469.333" style="enable-background:new 0 0 469.333 469.333;" xml:space="preserve">
<g>
	<g>
		<g>
			<path d="M213.333,42.667H192v-32C192,4.771,187.229,0,181.333,0H74.667C68.771,0,64,4.771,64,10.667v32H42.667
				C19.146,42.667,0,61.812,0,85.333v341.333c0,23.521,19.146,42.667,42.667,42.667h170.667c23.521,0,42.667-19.146,42.667-42.667
				V85.333C256,61.812,236.854,42.667,213.333,42.667z"/>
			<path d="M426.667,85.333H288c-5.896,0-10.667,4.771-10.667,10.667v320c0,5.896,4.771,10.667,10.667,10.667h53.333
				C364.854,426.667,384,407.521,384,384v-85.333C384,275.146,403.146,256,426.667,256c23.521,0,42.667-19.146,42.667-42.667V128
				C469.333,104.479,450.188,85.333,426.667,85.333z M298.667,138.667c0-5.896,4.771-10.667,10.667-10.667h27.729
				c5.896,0,10.667,4.771,10.667,10.667s-4.771,10.667-10.667,10.667h-27.729C303.437,149.333,298.667,144.562,298.667,138.667z
				 M352,384h-21.333c-5.896,0-10.667-4.771-10.667-10.667s4.771-10.667,10.667-10.667H352c5.896,0,10.667,4.771,10.667,10.667
				S357.896,384,352,384z M437.333,149.333H416c-5.896,0-10.667-4.771-10.667-10.667S410.104,128,416,128h21.333
				c5.896,0,10.667,4.771,10.667,10.667S443.229,149.333,437.333,149.333z"/>
		</g>
	</g>
</g>
<g>
</g>
<g>
</g>
<g>
</g>
<g>
</g>
<g>
</g>
<g>
</g>
<g>
</g>
<g>
</g>
<g>
</g>
<g>
</g>
<g>
</g>
<g>
</g>
<g>
</g>
<g>
</g>
<g>
</g>
</svg>
