<?xml version="1.0" encoding="iso-8859-1"?>
<!-- Generator: Adobe Illustrator 19.0.0, SVG Export Plug-In . SVG Version: 6.00 Build 0)  -->
<svg fill='#eeeeee' version="1.1" id="Layer_1" xmlns="http://www.w3.org/2000/svg" xmlns:xlink="http://www.w3.org/1999/xlink" x="0px" y="0px"
	 viewBox="0 0 512 512" style="enable-background:new 0 0 512 512;" xml:space="preserve">
<g>
	<g>
		<path d="M384,0H128c-23.531,0-42.667,19.135-42.667,42.667v128c0,23.531,19.135,42.667,42.667,42.667h5.934
			c-3.674,6.301-5.934,13.527-5.934,21.333v138.667c0,37.514,27.911,68.357,64,73.589V480c0,5.896,4.771,10.667,10.667,10.667
			h10.667v10.667c0,5.896,4.771,10.667,10.667,10.667h64c5.896,0,10.667-4.771,10.667-10.667v-10.667h10.667
			c5.896,0,10.667-4.771,10.667-10.667v-33.078c36.089-5.232,64-36.074,64-73.589V234.667c0-7.806-2.259-15.033-5.934-21.333H384
			c23.531,0,42.667-19.135,42.667-42.667v-128C426.667,19.135,407.531,0,384,0z M320,330.667c0,5.896-4.771,10.667-10.667,10.667
			H202.667c-5.896,0-10.667-4.771-10.667-10.667v-85.333c0-5.896,4.771-10.667,10.667-10.667h106.667
			c5.896,0,10.667,4.771,10.667,10.667V330.667z M384,160c0,5.896-4.771,10.667-10.667,10.667H138.667
			c-5.896,0-10.667-4.771-10.667-10.667V53.333c0-5.896,4.771-10.667,10.667-10.667h234.667c5.896,0,10.667,4.771,10.667,10.667V160
			z"/>
	</g>
</g>
<g>
</g>
<g>
</g>
<g>
</g>
<g>
</g>
<g>
</g>
<g>
</g>
<g>
</g>
<g>
</g>
<g>
</g>
<g>
</g>
<g>
</g>
<g>
</g>
<g>
</g>
<g>
</g>
<g>
</g>
</svg>
