<?xml version="1.0" encoding="iso-8859-1"?>
<!-- Generator: Adobe Illustrator 19.0.0, SVG Export Plug-In . SVG Version: 6.00 Build 0)  -->
<svg fill='#eeeeee' version="1.1" id="Layer_1" xmlns="http://www.w3.org/2000/svg" xmlns:xlink="http://www.w3.org/1999/xlink" x="0px" y="0px"
	 viewBox="0 0 469.333 469.333" style="enable-background:new 0 0 469.333 469.333;" xml:space="preserve">
<g>
	<g>
		<g>
			<path d="M426.667,96c0-52.938-43.063-96-96-96h-288C19.135,0,0,19.135,0,42.667v106.667C0,172.865,19.135,192,42.667,192h288
				C383.604,192,426.667,148.937,426.667,96z M277.333,96c0-29.406,23.927-53.333,53.333-53.333S384,66.594,384,96
				s-23.927,53.333-53.333,53.333S277.333,125.406,277.333,96z"/>
			<circle cx="330.667" cy="96" r="32"/>
			<path d="M467.854,341.083c-3.479-23.99-12.531-80.125-26.875-166.854c-0.688-4.156-3.75-7.51-7.813-8.583
				c-4.083-1.063-8.396,0.365-11.021,3.646c-22.479,27.99-55.823,44.042-91.479,44.042h-46.135h-9.333h-52.719
				c-3.219,0-6.271,1.458-8.292,3.958c-2.031,2.51-2.813,5.792-2.135,8.948l17.438,81.365c4.177,19.542,21.729,33.729,41.719,33.729
				h16.581l5.94,29.698c2.898,14.516,13.102,26.052,26.271,31.258v35.044c0,5.896,4.771,10.667,10.667,10.667h10.667v10.667
				c0,5.896,4.771,10.667,10.667,10.667h64c5.896,0,10.667-4.771,10.667-10.667V448h10.667c5.896,0,10.667-4.771,10.667-10.667
				v-38.348c12.717-7.642,21.333-21.436,21.333-37.319C469.333,354.615,468.854,347.885,467.854,341.083z"/>
		</g>
	</g>
</g>
<g>
</g>
<g>
</g>
<g>
</g>
<g>
</g>
<g>
</g>
<g>
</g>
<g>
</g>
<g>
</g>
<g>
</g>
<g>
</g>
<g>
</g>
<g>
</g>
<g>
</g>
<g>
</g>
<g>
</g>
</svg>
