<?xml version="1.0" encoding="iso-8859-1"?>
<!-- Generator: Adobe Illustrator 19.0.0, SVG Export Plug-In . SVG Version: 6.00 Build 0)  -->
<svg fill='#eeeeee' version="1.1" id="Layer_1" xmlns="http://www.w3.org/2000/svg" xmlns:xlink="http://www.w3.org/1999/xlink" x="0px" y="0px"
	 viewBox="0 0 512 512" style="enable-background:new 0 0 512 512;" xml:space="preserve">
<g>
	<g>
		<g>
			<path d="M341.333,234.667H170.667c-23.531,0-42.667,19.135-42.667,42.667v96c0,37.514,27.911,68.357,64,73.589V480
				c0,5.896,4.771,10.667,10.667,10.667h10.667v10.667c0,5.896,4.771,10.667,10.667,10.667h64c5.896,0,10.667-4.771,10.667-10.667
				v-10.667h10.667c5.896,0,10.667-4.771,10.667-10.667v-33.078c36.089-5.232,64-36.074,64-73.589v-96
				C384,253.802,364.865,234.667,341.333,234.667z M256,426.667c-11.76,0-21.333-9.573-21.333-21.333
				c0-11.76,9.573-21.333,21.333-21.333s21.333,9.573,21.333,21.333C277.333,417.094,267.76,426.667,256,426.667z M320,352
				c0,5.896-4.771,10.667-10.667,10.667H202.667c-5.896,0-10.667-4.771-10.667-10.667v-64c0-5.896,4.771-10.667,10.667-10.667
				h106.667c5.896,0,10.667,4.771,10.667,10.667V352z"/>
			<path d="M309.333,213.333c5.896,0,10.667-4.771,10.667-10.667v-21.333c0-17.646-14.354-32-32-32h-64c-17.646,0-32,14.354-32,32
				v21.333c0,5.896,4.771,10.667,10.667,10.667H309.333z"/>
			<path d="M341.333,0H170.667C147.135,0,128,19.135,128,42.667v128c0,17.938,11.427,34.052,28.427,40.094
				c3.302,1.177,6.885,0.656,9.719-1.333c2.833-2,4.521-5.25,4.521-8.719v-19.375C170.667,151.927,194.594,128,224,128h64
				c29.406,0,53.333,23.927,53.333,53.333v19.375c0,3.469,1.688,6.719,4.521,8.719c1.823,1.281,3.969,1.948,6.146,1.948
				c1.198,0,2.406-0.198,3.573-0.615c17-6.042,28.427-22.156,28.427-40.094v-128C384,19.135,364.865,0,341.333,0z"/>
		</g>
	</g>
</g>
<g>
</g>
<g>
</g>
<g>
</g>
<g>
</g>
<g>
</g>
<g>
</g>
<g>
</g>
<g>
</g>
<g>
</g>
<g>
</g>
<g>
</g>
<g>
</g>
<g>
</g>
<g>
</g>
<g>
</g>
</svg>
