<?xml version="1.0" encoding="iso-8859-1"?>
<!-- Generator: Adobe Illustrator 19.0.0, SVG Export Plug-In . SVG Version: 6.00 Build 0)  -->
<svg fill='#eeeeee' version="1.1" id="Layer_1" xmlns="http://www.w3.org/2000/svg" xmlns:xlink="http://www.w3.org/1999/xlink" x="0px" y="0px"
	 viewBox="0 0 469.333 469.333" style="enable-background:new 0 0 469.333 469.333;" xml:space="preserve">
<g>
	<g>
		<g>
			<path d="M298.667,202.667H288V224h10.667c5.885,0,10.667-4.781,10.667-10.667C309.333,207.448,304.552,202.667,298.667,202.667z"
				/>
			<path d="M298.667,245.333H288v21.333h10.667c5.885,0,10.667-4.781,10.667-10.667
				C309.333,250.115,304.552,245.333,298.667,245.333z"/>
			<path d="M426.667,128h-384C19.135,128,0,147.135,0,170.667v128c0,23.531,19.135,42.667,42.667,42.667h384
				c23.531,0,42.667-19.135,42.667-42.667v-128C469.333,147.135,450.198,128,426.667,128z M245.333,256
				c0,2.833-1.125,5.542-3.125,7.542l-21.333,21.333c-2.083,2.083-4.813,3.125-7.542,3.125c-2.729,0-5.458-1.042-7.542-3.125
				L192,271.083l-13.792,13.792c-2.083,2.083-4.813,3.125-7.542,3.125s-5.458-1.042-7.542-3.125l-21.333-21.333
				c-2-2-3.125-4.708-3.125-7.542v-64c0-5.896,4.771-10.667,10.667-10.667c5.896,0,10.667,4.771,10.667,10.667v59.583l10.667,10.667
				l10.667-10.667V192c0-5.896,4.771-10.667,10.667-10.667c5.896,0,10.667,4.771,10.667,10.667v59.583l10.667,10.667L224,251.583
				V192c0-5.896,4.771-10.667,10.667-10.667s10.667,4.771,10.667,10.667V256z M330.667,256c0,17.646-14.354,32-32,32h-21.333
				c-5.896,0-10.667-4.771-10.667-10.667V192c0-5.896,4.771-10.667,10.667-10.667h21.333c17.646,0,32,14.354,32,32
				c0,8.188-3.094,15.667-8.167,21.333C327.573,240.333,330.667,247.812,330.667,256z"/>
			<path d="M234.667,426.667c-5.896,0-10.667,4.771-10.667,10.667v21.333c0,5.896,4.771,10.667,10.667,10.667
				s10.667-4.771,10.667-10.667v-21.333C245.333,431.438,240.562,426.667,234.667,426.667z"/>
			<path d="M98.906,376.677L83.823,391.76c-4.167,4.167-4.167,10.917,0,15.083c2.083,2.083,4.813,3.125,7.542,3.125
				c2.729,0,5.458-1.042,7.542-3.125l15.083-15.083c4.167-4.167,4.167-10.917,0-15.083
				C109.823,372.51,103.073,372.51,98.906,376.677z"/>
			<path d="M370.427,376.677c-4.167-4.167-10.917-4.167-15.083,0c-4.167,4.167-4.167,10.917,0,15.083l15.083,15.083
				c2.083,2.083,4.813,3.125,7.542,3.125c2.729,0,5.458-1.042,7.542-3.125c4.167-4.167,4.167-10.917,0-15.083L370.427,376.677z"/>
			<path d="M234.667,42.667c5.896,0,10.667-4.771,10.667-10.667V10.667C245.333,4.771,240.562,0,234.667,0S224,4.771,224,10.667V32
				C224,37.896,228.771,42.667,234.667,42.667z"/>
			<path d="M362.885,95.781c2.729,0,5.458-1.042,7.542-3.125l15.083-15.083c4.167-4.167,4.167-10.917,0-15.083
				c-4.167-4.167-10.917-4.167-15.083,0l-15.083,15.083c-4.167,4.167-4.167,10.917,0,15.083
				C357.427,94.74,360.156,95.781,362.885,95.781z"/>
			<path d="M98.906,92.656c2.083,2.083,4.813,3.125,7.542,3.125s5.458-1.042,7.542-3.125c4.167-4.167,4.167-10.917,0-15.083
				L98.906,62.49c-4.167-4.167-10.917-4.167-15.083,0c-4.167,4.167-4.167,10.917,0,15.083L98.906,92.656z"/>
		</g>
	</g>
</g>
<g>
</g>
<g>
</g>
<g>
</g>
<g>
</g>
<g>
</g>
<g>
</g>
<g>
</g>
<g>
</g>
<g>
</g>
<g>
</g>
<g>
</g>
<g>
</g>
<g>
</g>
<g>
</g>
<g>
</g>
</svg>
