<?xml version="1.0" encoding="iso-8859-1"?>
<!-- Generator: Adobe Illustrator 19.0.0, SVG Export Plug-In . SVG Version: 6.00 Build 0)  -->
<svg fill='#eeeeee' version="1.1" id="Layer_1" xmlns="http://www.w3.org/2000/svg" xmlns:xlink="http://www.w3.org/1999/xlink" x="0px" y="0px"
	 viewBox="0 0 512 512" style="enable-background:new 0 0 512 512;" xml:space="preserve">
<g>
	<g>
		<g>
			<path d="M214.625,276.042l32,32c2.01,2.021,3.125,4.698,3.125,7.542s-1.115,5.521-3.125,7.542
				c-4.042,4.021-11.042,4.021-15.083,0l-64-64c-4.167-4.167-10.917-4.167-15.083,0l-85.333,85.333c-2,2-3.125,4.708-3.125,7.542
				v21.333C64,379.229,68.771,384,74.667,384h362.667c5.896,0,10.667-4.771,10.667-10.667V352c0-2.833-1.125-5.542-3.125-7.542
				L295.542,195.125c-4.167-4.167-10.917-4.167-15.083,0l-65.833,65.833C210.458,265.125,210.458,271.875,214.625,276.042z"/>
			<circle cx="181.333" cy="181.333" r="53.333"/>
			<path d="M10.667,149.333H32c5.891,0,10.667-4.776,10.667-10.667v-32h32c5.891,0,10.667-4.776,10.667-10.667V74.667
				C85.333,68.775,80.557,64,74.667,64h-32C19.103,64,0,83.102,0,106.667v32C0,144.557,4.776,149.333,10.667,149.333z"/>
			<path d="M469.333,64h-32c-5.891,0-10.667,4.775-10.667,10.667V96c0,5.891,4.776,10.667,10.667,10.667h32v32
				c0,5.891,4.776,10.667,10.667,10.667h21.333c5.891,0,10.667-4.776,10.667-10.667v-32C512,83.102,492.897,64,469.333,64z"/>
			<path d="M501.333,362.667H480c-5.891,0-10.667,4.775-10.667,10.667v32h-32c-5.891,0-10.667,4.775-10.667,10.667v21.333
				c0,5.891,4.776,10.667,10.667,10.667h32C492.897,448,512,428.897,512,405.333v-32C512,367.441,507.224,362.667,501.333,362.667z"
				/>
			<path d="M74.667,405.333h-32v-32c0-5.892-4.776-10.667-10.667-10.667H10.667C4.776,362.667,0,367.441,0,373.333v32
				C0,428.897,19.103,448,42.667,448h32c5.891,0,10.667-4.776,10.667-10.667V416C85.333,410.108,80.557,405.333,74.667,405.333z"/>
		</g>
	</g>
</g>
<g>
</g>
<g>
</g>
<g>
</g>
<g>
</g>
<g>
</g>
<g>
</g>
<g>
</g>
<g>
</g>
<g>
</g>
<g>
</g>
<g>
</g>
<g>
</g>
<g>
</g>
<g>
</g>
<g>
</g>
</svg>
