<?xml version="1.0" encoding="iso-8859-1"?>
<!-- Generator: Adobe Illustrator 19.0.0, SVG Export Plug-In . SVG Version: 6.00 Build 0)  -->
<svg fill='#eeeeee' version="1.1" id="Layer_1" xmlns="http://www.w3.org/2000/svg" xmlns:xlink="http://www.w3.org/1999/xlink" x="0px" y="0px"
	 viewBox="0 0 512 512" style="enable-background:new 0 0 512 512;" xml:space="preserve">
<g>
	<g>
		<g>
			<circle cx="256" cy="256" r="85.333"/>
			<path d="M74.667,64h-32C19.103,64,0,83.102,0,106.667v32c0,5.891,4.776,10.667,10.667,10.667H32
				c5.891,0,10.667-4.776,10.667-10.667v-32h32c5.891,0,10.667-4.776,10.667-10.667V74.667C85.333,68.775,80.557,64,74.667,64z"/>
			<path d="M469.333,64h-32c-5.891,0-10.667,4.775-10.667,10.667V96c0,5.891,4.776,10.667,10.667,10.667h32v32
				c0,5.891,4.776,10.667,10.667,10.667h21.333c5.891,0,10.667-4.776,10.667-10.667v-32C512,83.102,492.897,64,469.333,64z"/>
			<path d="M501.333,362.667H480c-5.891,0-10.667,4.775-10.667,10.667v32h-32c-5.891,0-10.667,4.775-10.667,10.667v21.333
				c0,5.891,4.776,10.667,10.667,10.667h32C492.897,448,512,428.897,512,405.333v-32C512,367.441,507.224,362.667,501.333,362.667z"
				/>
			<path d="M74.667,405.333h-32v-32c0-5.892-4.776-10.667-10.667-10.667H10.667C4.776,362.667,0,367.441,0,373.333v32
				C0,428.897,19.103,448,42.667,448h32c5.891,0,10.667-4.776,10.667-10.667V416C85.333,410.108,80.557,405.333,74.667,405.333z"/>
		</g>
	</g>
</g>
<g>
</g>
<g>
</g>
<g>
</g>
<g>
</g>
<g>
</g>
<g>
</g>
<g>
</g>
<g>
</g>
<g>
</g>
<g>
</g>
<g>
</g>
<g>
</g>
<g>
</g>
<g>
</g>
<g>
</g>
</svg>
