<?xml version="1.0" encoding="iso-8859-1"?>
<!-- Generator: Adobe Illustrator 19.0.0, SVG Export Plug-In . SVG Version: 6.00 Build 0)  -->
<svg fill='#eeeeee' version="1.1" id="Layer_1" xmlns="http://www.w3.org/2000/svg" xmlns:xlink="http://www.w3.org/1999/xlink" x="0px" y="0px"
	 viewBox="0 0 512 512" style="enable-background:new 0 0 512 512;" xml:space="preserve">
<g>
	<g>
		<g>
			<path d="M384,0H128c-23.521,0-42.667,19.135-42.667,42.667v426.667C85.333,492.865,104.479,512,128,512h256
				c23.521,0,42.667-19.135,42.667-42.667V42.667C426.667,19.135,407.521,0,384,0z M288,469.333h-64
				c-5.896,0-10.667-4.771-10.667-10.667S218.104,448,224,448h64c5.896,0,10.667,4.771,10.667,10.667S293.896,469.333,288,469.333z
				 M384,384c-6.18-5.98-13.034-9.152-20.667-11.688l-20.729-6.917c-8.854-2.958-16.563-8.854-21.771-16.635l-3.167-4.729
				c-1.979-2.958-5.292-4.729-8.854-4.729h-4.854L300.75,326.5c9.583-11.49,15.729-25.875,17.875-35.802
				c13.104-11.74,14.063-45.958,14.063-46.375c0-7.156-2-14.365-5.896-19.552c2.896-6.052,5.125-13.646,5.729-22.094l3.646-3.625
				c2-2,3.125-4.719,3.125-7.552c0-30.542-29.313-63.5-76.688-63.5c-25.438,0-38.979,8.75-44.771,13.917
				c-14.229,3.719-31.938,21.552-31.938,42.979l-0.042,6.281c-0.104,14.229,0.021,24.281,1.146,31.469
				c-5.083,5.219-7.708,13.479-7.708,21.677c0,0.417,0.958,34.635,14.063,46.375c2.146,9.927,8.292,24.323,17.896,35.802
				l-3.208,12.802h-4.875c-3.563,0-6.896,1.781-8.875,4.76l-3.146,4.719c-5.188,7.76-12.896,13.656-21.75,16.615l-20.729,6.906
				c-7.639,2.542-14.482,7.768-20.667,13.756V42.667h256V384z"/>
			<circle cx="256" cy="74.667" r="21.333"/>
		</g>
	</g>
</g>
<g>
</g>
<g>
</g>
<g>
</g>
<g>
</g>
<g>
</g>
<g>
</g>
<g>
</g>
<g>
</g>
<g>
</g>
<g>
</g>
<g>
</g>
<g>
</g>
<g>
</g>
<g>
</g>
<g>
</g>
</svg>
