<?xml version="1.0" encoding="iso-8859-1"?>
<!-- Generator: Adobe Illustrator 19.0.0, SVG Export Plug-In . SVG Version: 6.00 Build 0)  -->
<svg fill='#eeeeee' version="1.1" id="Layer_1" xmlns="http://www.w3.org/2000/svg" xmlns:xlink="http://www.w3.org/1999/xlink" x="0px" y="0px"
	 viewBox="0 0 512 512" style="enable-background:new 0 0 512 512;" xml:space="preserve">
<g>
	<g>
		<g>
			<path d="M469.333,64.001h-32c-5.891,0-10.667,4.775-10.667,10.667v21.333c0,5.891,4.776,10.667,10.667,10.667h32v32
				c0,5.891,4.776,10.667,10.667,10.667h21.333c5.891,0,10.667-4.776,10.667-10.667v-32C512,83.102,492.897,64.001,469.333,64.001z"
				/>
			<path d="M501.333,362.667H480c-5.891,0-10.667,4.775-10.667,10.667v32h-32c-0.54,0-1.005,0.23-1.525,0.309L371.5,341.334H480
				c5.896,0,10.667-4.771,10.667-10.667c0-5.896-4.771-10.667-10.667-10.667H352v-128h128c5.896,0,10.667-4.771,10.667-10.667
				s-4.771-10.667-10.667-10.667H352V96.001c0-5.896-4.771-10.667-10.667-10.667c-5.896,0-10.667,4.771-10.667,10.667v74.667
				H200.835l-19.501-19.501V96.001c0-5.896-4.771-10.667-10.667-10.667c-5.896,0-10.667,4.771-10.667,10.667v33.832L54.626,24.459
				c-4.167-4.165-10.919-4.165-15.086,0L24.46,39.541c-4.167,4.165-4.167,10.919,0,15.085l10.184,10.184
				C14.923,68.57,0,85.851,0,106.667v32c0,5.891,4.776,10.667,10.667,10.667H32c5.891,0,10.667-4.776,10.667-10.667v-32h32
				c0.542,0,1.006-0.23,1.526-0.309l64.309,64.309H32c-5.896,0-10.667,4.771-10.667,10.667S26.104,192.001,32,192.001h128v128H32
				c-5.896,0-10.667,4.771-10.667,10.667c0,5.896,4.771,10.667,10.667,10.667h128v74.667c0,5.896,4.771,10.667,10.667,10.667
				c5.896,0,10.667-4.771,10.667-10.667v-74.667h129.833l19.5,19.5v55.167c0,5.896,4.771,10.667,10.667,10.667
				c5.896,0,10.667-4.771,10.667-10.667v-33.833l105.374,105.374c4.167,4.165,10.919,4.165,15.086,0l15.081-15.082
				c4.167-4.165,4.167-10.919,0-15.085l-10.182-10.182c19.72-3.76,34.642-21.043,34.642-41.858v-32
				C512,367.442,507.224,362.667,501.333,362.667z M181.333,320.001V211.499l108.5,108.501H181.333z M330.667,300.501
				l-108.499-108.5h108.499V300.501z"/>
			<path d="M74.667,405.334h-32v-32c0-5.892-4.776-10.667-10.667-10.667H10.667C4.776,362.667,0,367.442,0,373.334v32
				c0,23.564,19.103,42.667,42.667,42.667h32c5.891,0,10.667-4.776,10.667-10.667v-21.333
				C85.333,410.109,80.557,405.334,74.667,405.334z"/>
		</g>
	</g>
</g>
<g>
</g>
<g>
</g>
<g>
</g>
<g>
</g>
<g>
</g>
<g>
</g>
<g>
</g>
<g>
</g>
<g>
</g>
<g>
</g>
<g>
</g>
<g>
</g>
<g>
</g>
<g>
</g>
<g>
</g>
</svg>
