<?xml version="1.0" encoding="iso-8859-1"?>
<!-- Generator: Adobe Illustrator 19.0.0, SVG Export Plug-In . SVG Version: 6.00 Build 0)  -->
<svg fill='#eeeeee' version="1.1" id="Layer_1" xmlns="http://www.w3.org/2000/svg" xmlns:xlink="http://www.w3.org/1999/xlink" x="0px" y="0px"
	 viewBox="0 0 511.995 511.995" style="enable-background:new 0 0 511.995 511.995;" xml:space="preserve">
<g>
	<g>
		<g>
			<path d="M508.875,429.789L306.208,227.123c-4.167-4.167-10.917-4.167-15.083,0l-87.167,87.167
				c-4.167,4.167-4.167,10.917,0,15.083l21.333,21.333c2.021,2.021,3.125,4.698,3.125,7.542s-1.104,5.521-3.125,7.542
				c-4.042,4.021-11.042,4.021-15.083,0l-64-64c-4.167-4.167-10.917-4.167-15.083,0l-128,128c-3.042,3.052-3.958,7.635-2.313,11.625
				c1.646,3.99,5.542,6.583,9.854,6.583h490.667c4.313,0,8.208-2.594,9.854-6.583C512.833,437.425,511.917,432.841,508.875,429.789z
				"/>
			<path d="M64,234.664h138.667c29.417,0,53.333-23.927,53.333-53.333c0-22.789-14.431-42.137-34.587-49.756
				c-8.316-38.909-42.523-67.577-82.746-67.577c-30.289,0-58.197,16.547-73.379,42.574c-0.362,0.01-0.956,0.092-1.288,0.092
				c-35.292,0-64,28.708-64,64C0,205.956,28.708,234.664,64,234.664z"/>
		</g>
	</g>
</g>
<g>
</g>
<g>
</g>
<g>
</g>
<g>
</g>
<g>
</g>
<g>
</g>
<g>
</g>
<g>
</g>
<g>
</g>
<g>
</g>
<g>
</g>
<g>
</g>
<g>
</g>
<g>
</g>
<g>
</g>
</svg>
