<?xml version="1.0" encoding="iso-8859-1"?>
<!-- Generator: Adobe Illustrator 19.0.0, SVG Export Plug-In . SVG Version: 6.00 Build 0)  -->
<svg fill='#eeeeee' version="1.1" id="Layer_1" xmlns="http://www.w3.org/2000/svg" xmlns:xlink="http://www.w3.org/1999/xlink" x="0px" y="0px"
	 viewBox="0 0 469.333 469.333" style="enable-background:new 0 0 469.333 469.333;" xml:space="preserve">
<g>
	<g>
		<path d="M437.333,128c-9.042,0-14.146,8.198-19.542,16.885c-1.917,3.073-7.042,11.333-10.5,14.156
			c-7.229-10.031-20.583-46.083-28.813-68.354c-13.771-37.146-21.917-58.542-29.604-66.229C331.5,7.083,298.417,0,234.667,0
			s-96.833,7.083-114.208,24.458c-7.688,7.687-15.833,29.083-29.604,66.229c-8.229,22.271-21.583,58.323-28.813,68.354
			c-3.458-2.823-8.583-11.083-10.5-14.156C46.146,136.198,41.042,128,32,128c-14.604,0-32,7.406-32,42.667
			c0,3.354,0.125,6.75,0.396,10.156c1.417,35.573,6.354,152.875,10.354,183.24c8.313,62.969,98.292,105.271,223.917,105.271
			s215.604-42.302,223.917-105.271c4-30.365,8.938-147.667,10.354-183.24c0.271-3.406,0.396-6.802,0.396-10.156
			C469.333,135.406,451.938,128,437.333,128z M447.646,179.583c-3,38.031-22.479,71.552-30.604,75.99
			c-5.063-4.948-13.958-23.594-20-36.229c-15.354-32.115-26.521-53.552-41.542-58.76c-14.479-4.979-37.917,1.24-63.25,8.719
			c-20.063,5.917-40.792,12.031-57.583,12.031s-37.521-6.115-57.583-12.031c-25.333-7.49-48.75-13.74-63.25-8.719
			c-15.021,5.208-26.188,26.646-41.542,58.76c-6,12.563-14.854,31.073-19.917,36.146c-8.521-4.875-27.708-38.167-30.687-75.906
			l-0.348-9.139c0.039-16.643,4.012-20.177,7.785-20.913c1.292,1.76,3.021,4.563,4.292,6.604
			c6.604,10.635,15.646,25.198,30.583,25.198c14.813,0,23.583-20.333,46.875-83.24c8.375-22.635,19.854-53.625,24.667-58.552
			c12.604-12.594,43.167-18.208,99.125-18.208s86.521,5.615,99.125,18.208c4.813,4.927,16.292,35.917,24.667,58.552
			c23.292,62.906,32.063,83.24,46.875,83.24c14.938,0,23.979-14.563,30.583-25.198c1.271-2.042,3-4.844,4.292-6.604
			c3.773,0.736,7.746,4.27,7.785,20.913L447.646,179.583z"/>
	</g>
</g>
<g>
</g>
<g>
</g>
<g>
</g>
<g>
</g>
<g>
</g>
<g>
</g>
<g>
</g>
<g>
</g>
<g>
</g>
<g>
</g>
<g>
</g>
<g>
</g>
<g>
</g>
<g>
</g>
<g>
</g>
</svg>
