<?xml version="1.0" encoding="iso-8859-1"?>
<!-- Generator: Adobe Illustrator 19.0.0, SVG Export Plug-In . SVG Version: 6.00 Build 0)  -->
<svg fill='#eeeeee' version="1.1" id="Layer_1" xmlns="http://www.w3.org/2000/svg" xmlns:xlink="http://www.w3.org/1999/xlink" x="0px" y="0px"
	 viewBox="0 0 512 512" style="enable-background:new 0 0 512 512;" xml:space="preserve">
<g>
	<g>
		<g>
			<path d="M371.771,52.187c-3.063-1.75-6.813-1.865-9.958-0.302c-3.188,1.552-5.375,4.573-5.875,8.063l-11.021,77.115
				C340.458,168.375,313.229,192,281.583,192h-51.167c-31.646,0-58.875-23.625-63.333-54.958l-11.021-77.094
				c-0.5-3.49-2.708-6.51-5.875-8.063c-3.125-1.542-6.875-1.427-9.958,0.302C66.896,93.896,21.333,171.99,21.333,256
				c0,84.021,45.563,162.115,118.896,203.813c3.063,1.74,6.813,1.833,9.958,0.302c3.188-1.552,5.375-4.573,5.875-8.063
				l11.021-77.115C171.542,343.625,198.771,320,230.417,320h51.167c31.646,0,58.875,23.625,63.333,54.969l11.021,77.083
				c0.5,3.49,2.688,6.51,5.875,8.063c1.479,0.729,3.083,1.094,4.688,1.094c1.813,0,3.646-0.469,5.271-1.396
				C445.104,418.115,490.667,340.021,490.667,256C490.667,171.99,445.104,93.896,371.771,52.187z"/>
			<path d="M188.188,133.993c2.979,20.888,21.146,36.639,42.229,36.639h51.167c21.083,0,39.25-15.752,42.229-36.639L339.646,23.2
				c0.729-5.188-2.396-10.136-7.396-11.699C283-3.834,229-3.834,179.75,11.501c-5,1.563-8.125,6.511-7.396,11.699L188.188,133.993z
				 M224,106.625h64c5.896,0,10.667,4.771,10.667,10.668c0,5.896-4.771,10.668-10.667,10.668h-64
				c-5.896,0-10.667-4.771-10.667-10.668C213.333,111.397,218.104,106.625,224,106.625z"/>
			<path d="M323.813,377.955c-2.979-20.888-21.146-36.639-42.229-36.639h-51.167c-21.084,0-39.25,15.752-42.229,36.639
				l-15.833,110.793c-0.729,5.188,2.396,10.136,7.396,11.699C204.375,508.114,230.021,512,256,512s51.625-3.886,76.25-11.553
				c5-1.563,8.125-6.511,7.396-11.699L323.813,377.955z M288,405.323h-64c-5.896,0-10.667-4.771-10.667-10.668
				c0-5.896,4.771-10.668,10.667-10.668h64c5.896,0,10.667,4.771,10.667,10.668C298.667,400.551,293.896,405.323,288,405.323z"/>
		</g>
	</g>
</g>
<g>
</g>
<g>
</g>
<g>
</g>
<g>
</g>
<g>
</g>
<g>
</g>
<g>
</g>
<g>
</g>
<g>
</g>
<g>
</g>
<g>
</g>
<g>
</g>
<g>
</g>
<g>
</g>
<g>
</g>
</svg>
