<?xml version="1.0" encoding="iso-8859-1"?>
<!-- Generator: Adobe Illustrator 19.0.0, SVG Export Plug-In . SVG Version: 6.00 Build 0)  -->
<svg fill='#eeeeee' version="1.1" id="Layer_1" xmlns="http://www.w3.org/2000/svg" xmlns:xlink="http://www.w3.org/1999/xlink" x="0px" y="0px"
	 viewBox="0 0 512 512" style="enable-background:new 0 0 512 512;" xml:space="preserve">
<g>
	<g>
		<path d="M479.997,192c-9.042,0-14.147,8.198-19.543,16.885c-1.917,3.073-7.042,11.333-10.501,14.156
			c-7.23-10.031-20.585-46.083-28.815-68.354c-13.772-37.146-21.918-58.542-29.607-66.229C371.322,68.24,306.65,64,255.979,64
			s-115.343,4.24-135.553,24.458c-7.688,7.688-15.835,29.083-29.607,66.229c-8.23,22.271-21.585,58.323-28.815,68.354
			c-3.459-2.823-8.584-11.083-10.501-14.156C46.108,200.198,41.003,192,31.961,192C17.356,192-0.042,199.406,0,235.563l1.771,20.313
			l0.001,0.004c2.417,27.07,5.937,64.115,8.937,86.85C18.647,402.74,124.073,448,255.979,448s237.332-45.26,245.27-105.271
			c3-22.736,6.52-59.779,8.937-86.849l0.001-0.005L512,234.667C512,199.406,494.603,192,479.997,192z M488.975,253.518
			c-5.538,35.602-22.472,62.105-29.291,66.044c-5.063-4.979-13.959-23.594-19.981-36.219c-15.355-32.115-26.523-53.552-41.545-58.76
			c-14.876-5.115-44.379,1.458-76.86,9.156c-24.002,5.698-48.837,11.594-65.318,11.594c-16.48,0-41.316-5.896-65.318-11.594
			c-32.482-7.698-61.943-14.271-76.86-9.156c-15.022,5.208-26.19,26.646-41.545,58.76c-6,12.552-14.814,31.021-19.897,36.125
			c-7.214-4.314-23.902-30.665-29.376-65.957l-1.689-18.845c0-16.854,4-20.396,7.792-21.135c1.292,1.76,3.021,4.563,4.292,6.604
			c6.605,10.635,15.647,25.198,30.586,25.198c14.814,0,23.585-20.333,46.879-83.24c8.376-22.635,19.856-53.625,24.669-58.552
			c8.396-8.396,44.983-18.208,120.468-18.208s112.072,9.813,120.468,18.208c4.813,4.927,16.293,35.917,24.669,58.552
			c23.294,62.906,32.065,83.24,46.879,83.24c14.939,0,23.981-14.563,30.586-25.198c1.271-2.042,3.021-4.844,4.313-6.615
			c3.771,0.719,7.771,4.115,7.813,20.25L488.975,253.518z"/>
	</g>
</g>
<g>
</g>
<g>
</g>
<g>
</g>
<g>
</g>
<g>
</g>
<g>
</g>
<g>
</g>
<g>
</g>
<g>
</g>
<g>
</g>
<g>
</g>
<g>
</g>
<g>
</g>
<g>
</g>
<g>
</g>
</svg>
