<?xml version="1.0" encoding="iso-8859-1"?>
<!-- Generator: Adobe Illustrator 19.0.0, SVG Export Plug-In . SVG Version: 6.00 Build 0)  -->
<svg fill='#eeeeee' version="1.1" id="Layer_1" xmlns="http://www.w3.org/2000/svg" xmlns:xlink="http://www.w3.org/1999/xlink" x="0px" y="0px"
	 viewBox="0 0 469.333 469.333" style="enable-background:new 0 0 469.333 469.333;" xml:space="preserve">
<g>
	<g>
		<g>
			<path d="M234.667,85.333C270.292,85.333,448,83.281,448,42.667S270.292,0,234.667,0S21.333,2.052,21.333,42.667
				S199.042,85.333,234.667,85.333z"/>
			<path d="M401.146,392.417c-2.615-2-6.021-2.688-9.271-1.823c-36.125,9.781-89.021,14.74-157.208,14.74
				s-121.083-4.958-157.208-14.74c-3.24-0.865-6.646-0.177-9.271,1.823c-2.635,2.021-4.188,5.146-4.188,8.469V416
				c0,44.083,92.813,53.333,170.667,53.333s170.667-9.25,170.667-53.333v-15.115C405.333,397.563,403.781,394.438,401.146,392.417z"
				/>
			<path d="M425.198,299.521c-2.792-2.281-6.552-3-9.979-1.906C351.521,317.823,267.729,320,234.667,320
				s-116.854-2.177-180.552-22.385c-3.417-1.063-7.177-0.365-9.979,1.906c-2.792,2.281-4.24,5.823-3.854,9.406
				c1.073,9.958,1.813,20.885,2.396,32.917C44.625,381.969,202.948,384,234.667,384s190.042-2.031,191.99-42.156
				c0.583-12.031,1.323-22.958,2.396-32.917C429.438,305.344,427.99,301.802,425.198,299.521z"/>
			<path d="M463.677,74.187c-3.479-1.844-7.698-1.635-10.969,0.573c-31.406,21.167-104.771,31.906-218.042,31.906
				S48.031,95.927,16.625,74.76c-3.271-2.208-7.49-2.417-10.969-0.573C2.177,76.042,0,79.656,0,83.604v145.729
				c0,45.521,118.052,69.333,234.667,69.333s234.667-23.813,234.667-69.333V83.604C469.333,79.656,467.156,76.042,463.677,74.187z"
				/>
		</g>
	</g>
</g>
<g>
</g>
<g>
</g>
<g>
</g>
<g>
</g>
<g>
</g>
<g>
</g>
<g>
</g>
<g>
</g>
<g>
</g>
<g>
</g>
<g>
</g>
<g>
</g>
<g>
</g>
<g>
</g>
<g>
</g>
</svg>
