<?xml version="1.0" encoding="iso-8859-1"?>
<!-- Generator: Adobe Illustrator 19.0.0, SVG Export Plug-In . SVG Version: 6.00 Build 0)  -->
<svg fill='#eeeeee' version="1.1" id="Layer_1" xmlns="http://www.w3.org/2000/svg" xmlns:xlink="http://www.w3.org/1999/xlink" x="0px" y="0px"
	 viewBox="0 0 512 512" style="enable-background:new 0 0 512 512;" xml:space="preserve">
<g>
	<g>
		<g>
			<path d="M256,64c38.479,0,128-3.115,128-32S294.479,0,256,0S128,3.115,128,32S217.521,64,256,64z"/>
			<path d="M379.771,277.594c-2.688-2.031-6.146-2.656-9.354-1.75C342.063,283.906,303.563,288,256,288
				s-86.063-4.094-114.417-12.156c-3.208-0.906-6.688-0.281-9.354,1.75c-2.667,2.01-4.229,5.167-4.229,8.51V320
				c0,28.885,89.521,32,128,32s128-3.115,128-32v-33.896C384,282.76,382.438,279.604,379.771,277.594z"/>
			<path d="M337.188,463.104c-2.625-2.01-6-2.698-9.229-1.875c-20.5,5.375-44.708,8.104-71.958,8.104s-51.458-2.729-71.958-8.104
				c-3.25-0.823-6.625-0.135-9.229,1.875c-2.604,2.021-4.146,5.146-4.146,8.448l0.021,9.115C171.146,488.021,178.667,512,256,512
				s84.854-23.979,85.333-32v-8.448C341.333,468.25,339.792,465.125,337.188,463.104z"/>
			<path d="M358.729,367.948c-2.479-2.031-5.771-2.823-8.917-2.156c-23.792,5-55.354,7.542-93.813,7.542s-70.021-2.542-93.813-7.542
				c-3.188-0.719-6.438,0.115-8.917,2.156c-2.479,2.021-3.938,5.063-3.938,8.281V416c0,2.885,1.167,5.646,3.25,7.656
				C155.146,426.146,179.875,448,256,448s100.854-21.854,103.417-24.344c2.083-2.01,3.25-4.771,3.25-7.656v-39.771
				C362.667,373.01,361.208,369.969,358.729,367.948z"/>
			<path d="M400.188,62.75c-3.188-1.927-7.146-2.063-10.458-0.333C362.625,76.552,311.375,85.333,256,85.333
				s-106.625-8.781-133.729-22.917c-3.333-1.719-7.271-1.594-10.458,0.333c-3.208,1.938-5.146,5.396-5.146,9.125V224
				c0,41.469,134.042,42.667,149.333,42.667S405.333,265.469,405.333,224V71.875C405.333,68.146,403.396,64.688,400.188,62.75z"/>
		</g>
	</g>
</g>
<g>
</g>
<g>
</g>
<g>
</g>
<g>
</g>
<g>
</g>
<g>
</g>
<g>
</g>
<g>
</g>
<g>
</g>
<g>
</g>
<g>
</g>
<g>
</g>
<g>
</g>
<g>
</g>
<g>
</g>
</svg>
