<?xml version="1.0" encoding="iso-8859-1"?>
<!-- Generator: Adobe Illustrator 19.0.0, SVG Export Plug-In . SVG Version: 6.00 Build 0)  -->
<svg fill='#eeeeee' version="1.1" id="Layer_1" xmlns="http://www.w3.org/2000/svg" xmlns:xlink="http://www.w3.org/1999/xlink" x="0px" y="0px"
	 viewBox="0 0 469.333 469.333" style="enable-background:new 0 0 469.333 469.333;" xml:space="preserve">
<g>
	<g>
		<path d="M426.667,64h-50.75c-5.615,0-11.115-2.271-15.083-6.25l-45.25-45.25C307.646,4.562,296.646,0,285.417,0h-101.5
			c-11.229,0-22.229,4.563-30.167,12.5L108.5,57.75C104.531,61.729,99.031,64,93.417,64h-50.75C19.135,64,0,83.146,0,106.667
			v234.667C0,364.854,19.135,384,42.667,384h102.25l82.208,82.208c2.083,2.083,4.813,3.125,7.542,3.125s5.458-1.042,7.542-3.125
			L324.417,384h102.25c23.531,0,42.667-19.146,42.667-42.667V106.667C469.333,83.146,450.198,64,426.667,64z"/>
	</g>
</g>
<g>
</g>
<g>
</g>
<g>
</g>
<g>
</g>
<g>
</g>
<g>
</g>
<g>
</g>
<g>
</g>
<g>
</g>
<g>
</g>
<g>
</g>
<g>
</g>
<g>
</g>
<g>
</g>
<g>
</g>
</svg>
