<?xml version="1.0" encoding="iso-8859-1"?>
<!-- Generator: Adobe Illustrator 19.0.0, SVG Export Plug-In . SVG Version: 6.00 Build 0)  -->
<svg fill='#eeeeee' version="1.1" id="Layer_1" xmlns="http://www.w3.org/2000/svg" xmlns:xlink="http://www.w3.org/1999/xlink" x="0px" y="0px"
	 viewBox="0 0 469.341 469.341" style="enable-background:new 0 0 469.341 469.341;" xml:space="preserve">
<g>
	<g>
		<g>
			<path d="M18.212,216.466c-3.042-3.042-7.646-3.969-11.625-2.313c-3.979,1.646-6.583,5.542-6.583,9.854v85.333
				c0,88.229,71.771,160,160,160c5.896,0,10.667-4.771,10.667-10.667v-85.333c0-2.833-1.125-5.542-3.125-7.542L18.212,216.466z"/>
			<path d="M463.045,214.278c-3.875-1.74-8.333-1.031-11.458,1.76l-174.25,154.885v-115.51
				c47.938-5.323,85.333-46.073,85.333-95.406V10.674c0-4.135-2.396-7.906-6.146-9.656c-3.729-1.771-8.167-1.198-11.354,1.458
				L288.65,49.58L242.212,3.133c-4.167-4.167-10.917-4.167-15.083,0L180.691,49.58L124.17,2.476
				c-3.167-2.635-7.604-3.208-11.354-1.458s-6.146,5.521-6.146,9.656v149.333c0,49.333,37.396,90.083,85.333,95.406v203.26
				c0,5.896,4.771,10.667,10.667,10.667h106.667c88.229,0,160-71.771,160-160v-85.333
				C469.337,219.81,466.879,215.997,463.045,214.278z"/>
		</g>
	</g>
</g>
<g>
</g>
<g>
</g>
<g>
</g>
<g>
</g>
<g>
</g>
<g>
</g>
<g>
</g>
<g>
</g>
<g>
</g>
<g>
</g>
<g>
</g>
<g>
</g>
<g>
</g>
<g>
</g>
<g>
</g>
</svg>
