<?xml version="1.0" encoding="iso-8859-1"?>
<!-- Generator: Adobe Illustrator 19.0.0, SVG Export Plug-In . SVG Version: 6.00 Build 0)  -->
<svg fill='#eeeeee' version="1.1" id="Layer_1" xmlns="http://www.w3.org/2000/svg" xmlns:xlink="http://www.w3.org/1999/xlink" x="0px" y="0px"
	 viewBox="0 0 512.004 512.004" style="enable-background:new 0 0 512.004 512.004;" xml:space="preserve">
<g>
	<g>
		<g>
			<path d="M331.338,383.31l-27.125-9.052c-12.25-4.073-22.958-12.24-30.125-23l-4.125-6.188c-1.979-2.969-5.313-4.75-8.875-4.75
				h-8.938l-5.229-20.854c13.479-15.573,21.5-35.51,23.979-47.802c16.292-13.271,18.125-58.302,18.125-58.833
				c0-7.969-2.396-18.333-8.292-25.125c4.208-8.083,7.5-18.75,8.167-30.781l5.625-5.625c2-2,3.125-4.708,3.125-7.542
				c0-38.354-37.083-79.75-97.021-79.75c-33.292,0-50.229,11.615-56.917,17.865c-17.521,3.885-40.083,26.26-40.083,53.25
				l-0.042,8.406c-0.146,19.365,0.021,32.865,1.729,42.094c-7.396,6.583-10.333,18.365-10.333,27.208
				c0,0.531,1.833,45.563,18.125,58.833c2.479,12.292,10.5,32.229,23.979,47.802l-5.229,20.854h-8.938
				c-3.563,0-6.896,1.781-8.875,4.75l-4.125,6.188c-7.167,10.75-17.854,18.917-30.125,23.01l-27.125,9.042
				c-16.5,5.5-32.667,20.781-50.875,48.104c-2.188,3.271-2.396,7.479-0.521,10.948c1.854,3.469,5.458,5.635,9.396,5.635h362.667
				c3.938,0,7.542-2.167,9.396-5.635c1.875-3.469,1.667-7.677-0.521-10.948C364.004,404.091,347.838,388.81,331.338,383.31z"/>
			<path d="M373.338,64.007c-15.583,0-31.146,2.708-46.229,8.052c-4.25,1.51-7.104,5.531-7.104,10.052s2.854,8.542,7.104,10.052
				c46.792,16.573,78.229,60.979,78.229,110.51s-31.438,93.938-78.229,110.51c-4.25,1.51-7.104,5.531-7.104,10.052
				s2.854,8.542,7.104,10.052c15.083,5.344,30.646,8.052,46.229,8.052c76.458,0,138.667-62.208,138.667-138.667
				S449.796,64.007,373.338,64.007z"/>
		</g>
	</g>
</g>
<g>
</g>
<g>
</g>
<g>
</g>
<g>
</g>
<g>
</g>
<g>
</g>
<g>
</g>
<g>
</g>
<g>
</g>
<g>
</g>
<g>
</g>
<g>
</g>
<g>
</g>
<g>
</g>
<g>
</g>
</svg>
