<?xml version="1.0" encoding="iso-8859-1"?>
<!-- Generator: Adobe Illustrator 19.0.0, SVG Export Plug-In . SVG Version: 6.00 Build 0)  -->
<svg fill='#eeeeee' version="1.1" id="Layer_1" xmlns="http://www.w3.org/2000/svg" xmlns:xlink="http://www.w3.org/1999/xlink" x="0px" y="0px"
	 viewBox="0 0 469.333 469.333" style="enable-background:new 0 0 469.333 469.333;" xml:space="preserve">
<g>
	<g>
		<g>
			<path d="M245.333,320h53.333v53.333c0,5.896,4.771,10.667,10.667,10.667c5.896,0,10.667-4.771,10.667-10.667V320h53.333
				c5.896,0,10.667-4.771,10.667-10.667c0-5.896-4.771-10.667-10.667-10.667H320v-53.333c0-5.896-4.771-10.667-10.667-10.667
				c-5.896,0-10.667,4.771-10.667,10.667v53.333h-53.333c-5.896,0-10.667,4.771-10.667,10.667
				C234.667,315.229,239.437,320,245.333,320z"/>
			<path d="M426.667,0h-384C19.135,0,0,19.135,0,42.667v384c0,23.531,19.135,42.667,42.667,42.667h384
				c23.531,0,42.667-19.135,42.667-42.667v-384C469.333,19.135,450.198,0,426.667,0z M74.667,128h128
				c5.896,0,10.667,4.771,10.667,10.667s-4.771,10.667-10.667,10.667h-128c-5.896,0-10.667-4.771-10.667-10.667
				S68.771,128,74.667,128z M426.667,426.667h-384l384-384V426.667z"/>
		</g>
	</g>
</g>
<g>
</g>
<g>
</g>
<g>
</g>
<g>
</g>
<g>
</g>
<g>
</g>
<g>
</g>
<g>
</g>
<g>
</g>
<g>
</g>
<g>
</g>
<g>
</g>
<g>
</g>
<g>
</g>
<g>
</g>
</svg>
