<?xml version="1.0" encoding="iso-8859-1"?>
<!-- Generator: Adobe Illustrator 19.0.0, SVG Export Plug-In . SVG Version: 6.00 Build 0)  -->
<svg fill='#eeeeee' version="1.1" id="Layer_1" xmlns="http://www.w3.org/2000/svg" xmlns:xlink="http://www.w3.org/1999/xlink" x="0px" y="0px"
	 viewBox="0 0 512 512" style="enable-background:new 0 0 512 512;" xml:space="preserve">
<g>
	<g>
		<g>
			<path d="M405.333,0H106.667C83.146,0,64,19.135,64,42.667V192c0,23.531,19.146,42.667,42.667,42.667h64
				c0,23.531,19.146,42.667,42.667,42.667h20.155L221.25,393.552l-6.729,64.052c-0.792,7.438-1.188,14.917-1.188,22.396
				c0,17.646,14.354,32,32,32h21.333c17.646,0,32-14.354,32-32c0-7.479-0.396-14.958-1.188-22.385l-6.729-64.063l-12.238-116.219
				h20.155c23.521,0,42.667-19.135,42.667-42.667h64C428.854,234.667,448,215.531,448,192V42.667C448,19.135,428.854,0,405.333,0z
				 M243.708,384l11.229-106.667h2.125L268.292,384H243.708z M384,192H106.667V42.667H384V192z"/>
			<path d="M128,138.667c5.896,0,10.667-4.771,10.667-10.667v-21.333C138.667,100.771,133.896,96,128,96
				s-10.667,4.771-10.667,10.667V128C117.333,133.896,122.104,138.667,128,138.667z"/>
			<circle cx="128" cy="64" r="10.667"/>
		</g>
	</g>
</g>
<g>
</g>
<g>
</g>
<g>
</g>
<g>
</g>
<g>
</g>
<g>
</g>
<g>
</g>
<g>
</g>
<g>
</g>
<g>
</g>
<g>
</g>
<g>
</g>
<g>
</g>
<g>
</g>
<g>
</g>
</svg>
