<?xml version="1.0" encoding="iso-8859-1"?>
<!-- Generator: Adobe Illustrator 19.0.0, SVG Export Plug-In . SVG Version: 6.00 Build 0)  -->
<svg fill='#eeeeee' version="1.1" id="Layer_1" xmlns="http://www.w3.org/2000/svg" xmlns:xlink="http://www.w3.org/1999/xlink" x="0px" y="0px"
	 viewBox="0 0 512 512" style="enable-background:new 0 0 512 512;" xml:space="preserve">
<g>
	<g>
		<g>
			<path d="M249.156,363.222l25.056-25.063c2-2.001,3.125-4.71,3.125-7.544V220.25c0-2.834-1.125-5.543-3.125-7.544l-17.667-17.672
				c-2-2.001-4.708-3.126-7.542-3.126h-46.333c-5.896,0-10.667,4.772-10.667,10.67v128.036c0,2.834,1.125,5.543,3.125,7.544
				l25.056,25.063L109.192,494.432c-3.813,4.501-3.25,11.232,1.25,15.046c4.5,3.793,11.25,3.23,15.042-1.25l98.521-116.468v109.57
				c0,5.898,4.771,10.67,10.667,10.67s10.667-4.772,10.667-10.67V391.76l98.521,116.468c2.104,2.48,5.125,3.772,8.146,3.772
				c2.438,0,4.896-0.834,6.896-2.522c4.5-3.814,5.063-10.545,1.25-15.046L249.156,363.222z"/>
			<path d="M362.671,0h-10.667c-5.896,0-10.667,4.772-10.667,10.67v213.248c0,5.897,4.771,10.67,10.667,10.67h10.667
				c23.521,0,42.667-19.151,42.667-42.679V42.679C405.338,19.151,386.192,0,362.671,0z"/>
			<path d="M149.338,170.569h112.917l39.542,39.553c2.042,2.042,4.771,3.126,7.542,3.126c1.375,0,2.771-0.271,4.083-0.813
				c3.979-1.646,6.583-5.543,6.583-9.857V32.009c0-4.314-2.604-8.211-6.583-9.857c-3.938-1.646-8.583-0.75-11.625,2.313
				l-39.458,39.49h-113c-23.521,0-42.667,19.151-42.667,42.679v21.256C106.671,151.418,125.817,170.569,149.338,170.569z"/>
		</g>
	</g>
</g>
<g>
</g>
<g>
</g>
<g>
</g>
<g>
</g>
<g>
</g>
<g>
</g>
<g>
</g>
<g>
</g>
<g>
</g>
<g>
</g>
<g>
</g>
<g>
</g>
<g>
</g>
<g>
</g>
<g>
</g>
</svg>
