<?xml version="1.0" encoding="iso-8859-1"?>
<!-- Generator: Adobe Illustrator 19.0.0, SVG Export Plug-In . SVG Version: 6.00 Build 0)  -->
<svg fill='#eeeeee' version="1.1" id="Layer_1" xmlns="http://www.w3.org/2000/svg" xmlns:xlink="http://www.w3.org/1999/xlink" x="0px" y="0px"
	 viewBox="0 0 512.008 512.008" style="enable-background:new 0 0 512.008 512.008;" xml:space="preserve">
<g>
	<g>
		<g>
			<circle cx="256.004" cy="170.671" r="64"/>
			<path d="M187.65,96.625c0.719,3.604,3.25,6.604,6.688,7.896c3.406,1.271,7.292,0.729,10.24-1.5
				c30.375-23.125,72.479-23.125,102.854,0c1.896,1.438,4.167,2.188,6.469,2.188c1.271,0,2.552-0.229,3.771-0.688
				c3.438-1.292,5.969-4.292,6.688-7.896l16.771-83.875c0.625-3.125-0.188-6.375-2.208-8.854C336.89,1.437,333.869,0,330.671,0
				H181.337c-3.198,0-6.219,1.438-8.25,3.896c-2.021,2.479-2.833,5.729-2.208,8.854L187.65,96.625z"/>
			<path d="M422.765,87.75c-2.458-2.021-5.688-2.833-8.854-2.208l-83.875,16.771c-3.604,0.729-6.583,3.25-7.885,6.688
				c-1.302,3.438-0.74,7.313,1.49,10.229c11.583,15.208,17.698,33,17.698,51.438s-6.115,36.229-17.698,51.438
				c-2.229,2.917-2.792,6.792-1.49,10.229c1.302,3.438,4.281,5.958,7.885,6.688l83.875,16.771c0.698,0.146,1.396,0.208,2.094,0.208
				c2.448,0,4.844-0.833,6.76-2.417c2.469-2.021,3.906-5.063,3.906-8.25V96C426.671,92.812,425.233,89.771,422.765,87.75z"/>
			<path d="M189.858,232.333c1.302-3.438,0.74-7.313-1.49-10.229c-11.583-15.208-17.698-33-17.698-51.438
				s6.115-36.229,17.698-51.438c2.229-2.917,2.792-6.792,1.49-10.229c-1.302-3.438-4.281-5.958-7.885-6.688L98.098,85.542
				c-3.135-0.646-6.385,0.188-8.854,2.208c-2.469,2.021-3.906,5.063-3.906,8.25v149.333c0,3.188,1.438,6.229,3.906,8.25
				c1.917,1.583,4.313,2.417,6.76,2.417c0.698,0,1.396-0.063,2.094-0.208l83.875-16.771
				C185.577,238.292,188.556,235.771,189.858,232.333z"/>
			<path d="M269.847,372.647l23.486-31.314h37.339c0.156-0.021,0.281-0.021,0.427,0c5.885,0,10.667-4.771,10.667-10.667
				c0-1.771-0.438-3.438-1.198-4.917l-16.208-81.042c-0.719-3.604-3.25-6.604-6.688-7.896c-3.427-1.313-7.302-0.729-10.24,1.5
				c-30.375,23.125-72.479,23.125-102.854,0c-2.948-2.229-6.833-2.813-10.24-1.5c-3.438,1.292-5.969,4.292-6.688,7.896
				l-16.771,83.875c-0.625,3.125,0.188,6.375,2.208,8.854c2.031,2.458,5.052,3.896,8.25,3.896h37.339l23.486,31.314L130.806,494.125
				c-3.979,4.333-3.688,11.083,0.656,15.063c4.354,4.021,11.094,3.688,15.073-0.646l98.802-107.781v100.573
				c0,5.896,4.771,10.667,10.667,10.667c5.896,0,10.667-4.771,10.667-10.667V400.76l98.802,107.781
				c2.104,2.292,4.979,3.458,7.865,3.458c2.573,0,5.156-0.917,7.208-2.813c4.344-3.979,4.635-10.729,0.656-15.063L269.847,372.647z"
				/>
		</g>
	</g>
</g>
<g>
</g>
<g>
</g>
<g>
</g>
<g>
</g>
<g>
</g>
<g>
</g>
<g>
</g>
<g>
</g>
<g>
</g>
<g>
</g>
<g>
</g>
<g>
</g>
<g>
</g>
<g>
</g>
<g>
</g>
</svg>
