<?xml version="1.0" encoding="iso-8859-1"?>
<!-- Generator: Adobe Illustrator 19.0.0, SVG Export Plug-In . SVG Version: 6.00 Build 0)  -->
<svg fill='#eeeeee' version="1.1" id="Layer_1" xmlns="http://www.w3.org/2000/svg" xmlns:xlink="http://www.w3.org/1999/xlink" x="0px" y="0px"
	 viewBox="0 0 512 512" style="enable-background:new 0 0 512 512;" xml:space="preserve">
<g>
	<g>
		<g>
			<path d="M320,266.667h-10.667V288H320c5.885,0,10.667-4.781,10.667-10.667C330.667,271.448,325.885,266.667,320,266.667z"/>
			<path d="M360.375,192.021c-12.104-11.833-19.042-29.406-19.042-48.229c0-20.469-16.656-37.125-37.125-37.125h-96.417
				c-20.469,0-37.125,16.656-37.125,37.125c0,18.823-6.938,36.396-19.042,48.229c-28.99,28.323-44.958,66.198-44.958,106.646
				C106.667,381.01,173.656,448,256,448s149.333-66.99,149.333-149.333C405.333,258.219,389.365,220.344,360.375,192.021z
				 M266.667,320c0,2.833-1.125,5.542-3.125,7.542l-21.333,21.333c-2.083,2.083-4.813,3.125-7.542,3.125
				c-2.729,0-5.458-1.042-7.542-3.125l-13.792-13.792l-13.792,13.792C197.458,350.958,194.729,352,192,352s-5.458-1.042-7.542-3.125
				l-21.333-21.333c-2-2-3.125-4.708-3.125-7.542v-64c0-5.896,4.771-10.667,10.667-10.667c5.896,0,10.667,4.771,10.667,10.667
				v59.583L192,326.25l10.667-10.667V256c0-5.896,4.771-10.667,10.667-10.667c5.896,0,10.667,4.771,10.667,10.667v59.583
				l10.667,10.667l10.667-10.667V256c0-5.896,4.771-10.667,10.667-10.667s10.667,4.771,10.667,10.667V320z M352,320
				c0,17.646-14.354,32-32,32h-21.333c-5.896,0-10.667-4.771-10.667-10.667V256c0-5.896,4.771-10.667,10.667-10.667H320
				c17.646,0,32,14.354,32,32c0,8.188-3.094,15.667-8.167,21.333C348.906,304.333,352,311.813,352,320z"/>
			<path d="M320,309.333h-10.667v21.333H320c5.885,0,10.667-4.781,10.667-10.667S325.885,309.333,320,309.333z"/>
			<path d="M262.031,469.333c-5.896,0-10.667,4.771-10.667,10.667v21.333c0,5.896,4.771,10.667,10.667,10.667
				s10.667-4.771,10.667-10.667V480C272.698,474.104,267.927,469.333,262.031,469.333z"/>
			<path d="M124.875,419.125l-15.083,15.083c-4.167,4.167-4.167,10.917,0,15.083c2.083,2.083,4.813,3.125,7.542,3.125
				c2.729,0,5.458-1.042,7.542-3.125l15.083-15.083c4.167-4.167,4.167-10.917,0-15.083
				C135.792,414.958,129.042,414.958,124.875,419.125z"/>
			<path d="M387.125,419.125c-4.167-4.167-10.917-4.167-15.083,0c-4.167,4.167-4.167,10.917,0,15.083l15.083,15.083
				c2.083,2.083,4.813,3.125,7.542,3.125s5.458-1.042,7.542-3.125c4.167-4.167,4.167-10.917,0-15.083L387.125,419.125z"/>
			<path d="M202.667,85.333h106.667c5.891,0,10.667-4.776,10.667-10.667V60.344c0-14.147-5.62-27.714-15.622-37.716L291.125,9.375
				C285.122,3.372,276.98,0,268.492,0H243.5c-8.484,0-16.62,3.37-22.62,9.368l-13.258,13.259C197.62,32.63,192,46.197,192,60.344
				v14.323C192,80.557,196.776,85.333,202.667,85.333z"/>
		</g>
	</g>
</g>
<g>
</g>
<g>
</g>
<g>
</g>
<g>
</g>
<g>
</g>
<g>
</g>
<g>
</g>
<g>
</g>
<g>
</g>
<g>
</g>
<g>
</g>
<g>
</g>
<g>
</g>
<g>
</g>
<g>
</g>
</svg>
