<?xml version="1.0" encoding="iso-8859-1"?>
<!-- Generator: Adobe Illustrator 19.0.0, SVG Export Plug-In . SVG Version: 6.00 Build 0)  -->
<svg fill='#eeeeee' version="1.1" id="Layer_1" xmlns="http://www.w3.org/2000/svg" xmlns:xlink="http://www.w3.org/1999/xlink" x="0px" y="0px"
	 viewBox="0 0 512 512" style="enable-background:new 0 0 512 512;" xml:space="preserve">
<g>
	<g>
		<g>
			<path d="M320,266.667h-10.667V288H320c5.885,0,10.667-4.781,10.667-10.667C330.667,271.448,325.885,266.667,320,266.667z"/>
			<path d="M320,224h-10.667v21.333H320c5.885,0,10.667-4.781,10.667-10.667C330.667,228.781,325.885,224,320,224z"/>
			<path d="M256,85.333c-94.104,0-170.667,76.563-170.667,170.667S161.896,426.667,256,426.667S426.667,350.104,426.667,256
				S350.104,85.333,256,85.333z M266.667,277.333c0,2.833-1.125,5.542-3.125,7.542l-21.333,21.333
				c-2.083,2.083-4.813,3.125-7.542,3.125c-2.729,0-5.458-1.042-7.542-3.125l-13.792-13.792l-13.792,13.792
				c-2.083,2.083-4.813,3.125-7.542,3.125s-5.458-1.042-7.542-3.125l-21.333-21.333c-2-2-3.125-4.708-3.125-7.542v-64
				c0-5.896,4.771-10.667,10.667-10.667c5.896,0,10.667,4.771,10.667,10.667v59.583L192,283.583l10.667-10.667v-59.583
				c0-5.896,4.771-10.667,10.667-10.667c5.896,0,10.667,4.771,10.667,10.667v59.583l10.667,10.667l10.667-10.667v-59.583
				c0-5.896,4.771-10.667,10.667-10.667s10.667,4.771,10.667,10.667V277.333z M352,277.333c0,17.646-14.354,32-32,32h-21.333
				c-5.896,0-10.667-4.771-10.667-10.667v-85.333c0-5.896,4.771-10.667,10.667-10.667H320c17.646,0,32,14.354,32,32
				c0,8.188-3.094,15.667-8.167,21.333C348.906,261.667,352,269.146,352,277.333z"/>
			<path d="M256,469.333c-5.896,0-10.667,4.771-10.667,10.667v21.333c0,5.896,4.771,10.667,10.667,10.667
				s10.667-4.771,10.667-10.667V480C266.667,474.104,261.896,469.333,256,469.333z"/>
			<path d="M256,42.667c5.896,0,10.667-4.771,10.667-10.667V10.667C266.667,4.771,261.896,0,256,0s-10.667,4.771-10.667,10.667V32
				C245.333,37.896,250.104,42.667,256,42.667z"/>
			<path d="M32,245.333H10.667C4.771,245.333,0,250.104,0,256s4.771,10.667,10.667,10.667H32c5.896,0,10.667-4.771,10.667-10.667
				S37.896,245.333,32,245.333z"/>
			<path d="M501.333,245.333H480c-5.896,0-10.667,4.771-10.667,10.667s4.771,10.667,10.667,10.667h21.333
				c5.896,0,10.667-4.771,10.667-10.667S507.229,245.333,501.333,245.333z"/>
			<path d="M90.063,406.854l-15.083,15.083c-4.167,4.167-4.167,10.917,0,15.083c2.083,2.083,4.813,3.125,7.542,3.125
				c2.729,0,5.458-1.042,7.542-3.125l15.083-15.083c4.167-4.167,4.167-10.917,0-15.083
				C100.979,402.688,94.229,402.688,90.063,406.854z"/>
			<path d="M421.938,74.979l-15.083,15.083c-4.167,4.167-4.167,10.917,0,15.083c2.083,2.083,4.813,3.125,7.542,3.125
				c2.729,0,5.458-1.042,7.542-3.125l15.083-15.083c4.167-4.167,4.167-10.917,0-15.083
				C432.854,70.813,426.104,70.813,421.938,74.979z"/>
			<path d="M421.938,406.854c-4.167-4.167-10.917-4.167-15.083,0s-4.167,10.917,0,15.083l15.083,15.083
				c2.083,2.083,4.813,3.125,7.542,3.125s5.458-1.042,7.542-3.125c4.167-4.167,4.167-10.917,0-15.083L421.938,406.854z"/>
			<path d="M90.063,105.146c2.083,2.083,4.813,3.125,7.542,3.125c2.729,0,5.458-1.042,7.542-3.125
				c4.167-4.167,4.167-10.917,0-15.083L90.063,74.979c-4.167-4.167-10.917-4.167-15.083,0c-4.167,4.167-4.167,10.917,0,15.083
				L90.063,105.146z"/>
		</g>
	</g>
</g>
<g>
</g>
<g>
</g>
<g>
</g>
<g>
</g>
<g>
</g>
<g>
</g>
<g>
</g>
<g>
</g>
<g>
</g>
<g>
</g>
<g>
</g>
<g>
</g>
<g>
</g>
<g>
</g>
<g>
</g>
</svg>
