<?xml version="1.0" encoding="iso-8859-1"?>
<!-- Generator: Adobe Illustrator 19.0.0, SVG Export Plug-In . SVG Version: 6.00 Build 0)  -->
<svg fill='#eeeeee' version="1.1" id="Layer_1" xmlns="http://www.w3.org/2000/svg" xmlns:xlink="http://www.w3.org/1999/xlink" x="0px" y="0px"
	 viewBox="0 0 512 512" style="enable-background:new 0 0 512 512;" xml:space="preserve">
<g>
	<g>
		<g>
			<path d="M352,256h-10.667v21.333H352c5.885,0,10.667-4.781,10.667-10.667C362.667,260.781,357.885,256,352,256z"/>
			<path d="M447.063,240.115c-8.052-87.385-81.188-154.781-169.729-154.781c-69.646,0-132.146,42.542-158.094,106.708
				c-0.635-0.021-1.271-0.042-1.906-0.042C52.635,192,0,244.635,0,309.333s52.635,117.333,117.333,117.333H416
				c52.938,0,96-43.063,96-96C512,289.479,485.667,253.292,447.063,240.115z M298.667,309.333c0,2.833-1.125,5.542-3.125,7.542
				l-21.333,21.333c-2.083,2.083-4.813,3.125-7.542,3.125c-2.729,0-5.458-1.042-7.542-3.125l-13.792-13.792l-13.792,13.792
				c-2.083,2.083-4.813,3.125-7.542,3.125s-5.458-1.042-7.542-3.125l-21.333-21.333c-2-2-3.125-4.708-3.125-7.542v-64
				c0-5.896,4.771-10.667,10.667-10.667c5.896,0,10.667,4.771,10.667,10.667v59.583L224,315.583l10.667-10.667v-59.583
				c0-5.896,4.771-10.667,10.667-10.667c5.896,0,10.667,4.771,10.667,10.667v59.583l10.667,10.667l10.667-10.667v-59.583
				c0-5.896,4.771-10.667,10.667-10.667s10.667,4.771,10.667,10.667V309.333z M384,309.333c0,17.646-14.354,32-32,32h-21.333
				c-5.896,0-10.667-4.771-10.667-10.667v-85.333c0-5.896,4.771-10.667,10.667-10.667H352c17.646,0,32,14.354,32,32
				c0,8.188-3.094,15.667-8.167,21.333C380.906,293.667,384,301.146,384,309.333z"/>
			<path d="M352,298.667h-10.667V320H352c5.885,0,10.667-4.781,10.667-10.667C362.667,303.448,357.885,298.667,352,298.667z"/>
		</g>
	</g>
</g>
<g>
</g>
<g>
</g>
<g>
</g>
<g>
</g>
<g>
</g>
<g>
</g>
<g>
</g>
<g>
</g>
<g>
</g>
<g>
</g>
<g>
</g>
<g>
</g>
<g>
</g>
<g>
</g>
<g>
</g>
</svg>
