<svg width="16" height="16" viewBox="0 0 16 16" fill="none" xmlns="http://www.w3.org/2000/svg">
<path fill-rule="evenodd" clip-rule="evenodd" d="M4 0H2V1.17071C0.834808 1.58254 0 2.69378 0 4C0 5.30622 0.834808 6.41746 2 6.82929V9.17071C0.834808 9.58254 0 10.6938 0 12C0 13.3062 0.834808 14.4175 2 14.8293V16H4V14.8293C5.16519 14.4175 6 13.3062 6 12C6 10.6938 5.16519 9.58254 4 9.17071V6.82929C5.16519 6.41746 6 5.30622 6 4C6 2.69378 5.16519 1.58254 4 1.17071V0ZM3 13.5C3.82843 13.5 4.5 12.8284 4.5 12C4.5 11.1716 3.82843 10.5 3 10.5C2.17157 10.5 1.5 11.1716 1.5 12C1.5 12.8284 2.17157 13.5 3 13.5ZM4.5 4C4.5 4.82843 3.82843 5.5 3 5.5C2.17157 5.5 1.5 4.82843 1.5 4C1.5 3.17157 2.17157 2.5 3 2.5C3.82843 2.5 4.5 3.17157 4.5 4Z" fill="#EEEEEE"/>
<path d="M11.1809 8.24448C10.2031 9.16151 9.22954 10.0742 8.25181 10.9912C8.11095 11.1216 7.97423 11.252 7.83337 11.3824C7.51436 11.6822 7.51436 12.3124 7.83337 12.6123C8.8111 13.5293 9.78469 14.442 10.7624 15.359C10.9033 15.4894 11.04 15.6198 11.1809 15.7502C11.504 16.0544 12.0384 16.1109 12.3533 15.7502C12.6433 15.4199 12.6972 14.8462 12.3533 14.5202C11.3756 13.6032 10.402 12.6905 9.42425 11.7735C9.28339 11.6431 9.14668 11.5127 9.00582 11.3824C9.00582 11.7909 9.00582 12.2038 9.00582 12.6123C9.98355 11.6953 10.9571 10.7826 11.9349 9.86557C12.0757 9.73519 12.2124 9.60481 12.3533 9.47443C12.6765 9.1702 12.6723 8.54871 12.3533 8.24448C12.0094 7.91418 11.5289 7.92287 11.1809 8.24448Z" fill="#EEEEEE"/>
<path d="M9.32874 13C10.6278 13 11.0049 13 12.304 13C14.3736 13 11.7829 13 13.8526 13C14.3223 13 14.7957 13 15.2654 13C15.6507 13 16.0177 12.54 15.9994 12C15.981 11.46 15.6764 11 15.2654 11C13.9664 11 14.5478 11 13.2487 11C11.179 11 12.8113 11 10.7416 11C10.2718 11 9.79846 11 9.32874 11C8.94343 11 8.57646 11.46 8.59481 12C8.61316 12.54 8.91774 13 9.32874 13Z" fill="#EEEEEE"/>
</svg>
