<svg width="282" height="282" viewBox="0 0 282 282" fill="none" xmlns="http://www.w3.org/2000/svg">
<path d="M276.683 128.44L153.552 5.31854C146.467 -1.77285 134.967 -1.77285 127.874 5.31854L102.307 30.8889L134.737 63.3209C142.277 60.7753 150.918 62.4821 156.925 68.4904C162.963 74.5362 164.658 83.2519 162.049 90.8169L193.306 122.076C200.868 119.47 209.593 121.153 215.632 127.203C224.074 135.642 224.074 149.319 215.632 157.761C207.188 166.206 193.513 166.206 185.065 157.761C178.717 151.408 177.147 142.081 180.362 134.259L151.211 105.107L151.209 181.821C153.267 182.84 155.209 184.199 156.924 185.907C165.364 194.346 165.364 208.02 156.924 216.473C148.482 224.912 134.8 224.912 126.367 216.473C117.926 208.02 117.926 194.347 126.367 185.907C128.453 183.825 130.867 182.249 133.442 181.192V103.766C130.866 102.714 128.455 101.149 126.366 99.0501C119.972 92.6612 118.432 83.2772 121.711 75.4256L89.7409 43.4491L5.31999 127.871C-1.77333 134.968 -1.77333 146.468 5.31999 153.56L128.444 276.681C135.533 283.773 147.029 283.773 154.127 276.681L276.682 154.142C283.773 147.047 283.773 135.543 276.682 128.45" fill="#EEEEEE"/>
</svg>
