<svg width="16" height="16" viewBox="0 0 16 16" fill="none" xmlns="http://www.w3.org/2000/svg">
<path d="M7.94232 0C3.88053 2.91317e-07 4.13417 1.77066 4.13417 1.77066L4.1387 3.60504H8.01477V4.15581H2.59914C2.59914 4.15581 0 3.85951 0 7.97935C-2.898e-07 12.0992 2.26859 11.9531 2.26859 11.9531H3.6225V10.0413C3.6225 10.0413 3.54952 7.76086 5.85486 7.76086C8.1602 7.76086 9.69923 7.76086 9.69923 7.76086C9.69923 7.76086 11.8591 7.79596 11.8591 5.66247C11.8591 3.52898 11.8591 2.13481 11.8591 2.13481C11.8591 2.1348 12.1871 0 7.94232 0ZM5.80505 1.23354C6.19069 1.23354 6.50238 1.54687 6.50238 1.93452C6.50238 2.32218 6.19069 2.63551 5.80505 2.63551C5.41941 2.63551 5.10772 2.32218 5.10772 1.93452C5.10772 1.54687 5.41941 1.23354 5.80505 1.23354Z" fill="#EEEEEE"/>
<path d="M8.05768 16C12.1195 16 11.8658 14.2294 11.8658 14.2294L11.8613 12.395H7.98523V11.8442H13.4009C13.4009 11.8442 16 12.1405 16 8.02068C16 3.90084 13.7314 4.04694 13.7314 4.04694H12.3775V5.9587C12.3775 5.9587 12.4505 8.23917 10.1451 8.23917C7.8398 8.23917 6.30077 8.23917 6.30077 8.23917C6.30077 8.23917 4.14085 8.20407 4.14085 10.3376C4.14085 12.471 4.14085 13.8652 4.14085 13.8652C4.14085 13.8652 3.81292 16 8.05768 16ZM10.195 14.7665C9.80931 14.7665 9.49762 14.4532 9.49762 14.0655C9.49762 13.6778 9.80931 13.3645 10.195 13.3645C10.5806 13.3645 10.8923 13.6778 10.8923 14.0655C10.8923 14.4532 10.5806 14.7665 10.195 14.7665Z" fill="#EEEEEE"/>
</svg>
