<svg width="16" height="16" viewBox="0 0 16 16" fill="none" xmlns="http://www.w3.org/2000/svg">
<path fill-rule="evenodd" clip-rule="evenodd" d="M9 3.19549V2.11823V2.08296V1C9 0.447715 8.55228 0 8 0C7.44772 0 7 0.447715 7 1V2.08296V2.11823V4.12602L6.95741 4.13723C6.85894 4.16374 6.76197 4.19392 6.66667 4.22761C6.018 4.45688 5.44612 4.84872 5 5.35418C4.37764 6.05931 4 6.98555 4 8C4 8.06403 4.0015 8.12772 4.00448 8.19101L9 3.19549ZM7 12.9454V13.8818V13.917V15C7 15.5523 7.44772 16 8 16C8.55228 16 9 15.5523 9 15V13.917V13.8818V11.874L9.04259 11.8628C9.14106 11.8363 9.23803 11.8061 9.33333 11.7724C9.982 11.5431 10.5539 11.1513 11 10.6458C11.6224 9.94069 12 9.01445 12 8C12 7.98188 11.9999 7.96379 11.9996 7.94573L7 12.9454Z" fill="#EEEEEE"/>
<rect x="12.7748" y="1.39044" width="2.59474" height="16.0999" rx="1.29737" transform="rotate(45 12.7748 1.39044)" fill="#EEEEEE"/>
</svg>
