<?xml version="1.0" encoding="iso-8859-1"?>
<!-- Generator: Adobe Illustrator 19.0.0, SVG Export Plug-In . SVG Version: 6.00 Build 0)  -->
<svg fill='#eeeeee' version="1.1" id="Capa_1" xmlns="http://www.w3.org/2000/svg" xmlns:xlink="http://www.w3.org/1999/xlink" x="0px" y="0px"
	 viewBox="0 0 512 512" style="enable-background:new 0 0 512 512;" xml:space="preserve">
<g>
	<g>
		<path d="M256,0C114.833,0,0,114.844,0,256s114.833,256,256,256s256-114.844,256-256S397.167,0,256,0z M320,394.667
			c0,17.646-14.354,32-32,32H181.333c-17.646,0-32-14.354-32-32V352c0-17.646,14.354-32,32-32H288c17.646,0,32,14.354,32,32V394.667
			z M405.333,192.708c0,2.781-1.083,5.448-3.021,7.438l-73.792,75.906c-13.958,14.375-33.458,22.615-53.521,22.615h-51
			c-41.167,0-74.667-33.5-74.667-74.667v-67.469c0-11.865,5.896-22.875,15.75-29.438l55.667-34.677
			c6.833-4.573,14.75-7.083,22.625-7.083c7.042,0,15.271,0.677,22.875,5.74L274.208,96h3.125C300.854,96,320,115.135,320,138.656
			l0.021,40.146l2.458,1.51l38.417-19.677c4.292-2.167,9.042-3.292,13.792-3.292c16.896,0,30.646,13.75,30.646,30.646V192.708z"/>
	</g>
</g>
<g>
</g>
<g>
</g>
<g>
</g>
<g>
</g>
<g>
</g>
<g>
</g>
<g>
</g>
<g>
</g>
<g>
</g>
<g>
</g>
<g>
</g>
<g>
</g>
<g>
</g>
<g>
</g>
<g>
</g>
</svg>
