<?xml version="1.0" encoding="iso-8859-1"?>
<!-- Generator: Adobe Illustrator 19.0.0, SVG Export Plug-In . SVG Version: 6.00 Build 0)  -->
<svg fill='#eeeeee' version="1.1" id="Capa_1" xmlns="http://www.w3.org/2000/svg" xmlns:xlink="http://www.w3.org/1999/xlink" x="0px" y="0px"
	 viewBox="0 0 469.333 469.333" style="enable-background:new 0 0 469.333 469.333;" xml:space="preserve">
<g>
	<g>
		<path d="M465.198,172.941c-0.01-0.01-26.078-20.21-59.865-46.735V85.379c0-23.528-19.135-42.662-42.667-42.662h-62.125
			c-15.199-12.411-28.389-23.384-37.198-31.194c-9.086-8.041-20.05-12.051-30.873-11.467c-9.364,0.505-18.623,4.52-26.471,11.467
			c-8.809,7.81-21.997,18.783-37.207,31.194h-62.126C83.135,42.717,64,61.85,64,85.379v40.826
			c-33.794,26.524-59.854,46.726-59.865,46.737C1.585,174.937,0,178.05,0,181.368v245.304c0,23.528,19.135,42.662,42.667,42.662h384
			c23.531,0,42.667-19.133,42.667-42.662V181.368C469.333,178.05,467.749,174.937,465.198,172.941z M277.333,160
			c0,5.891-4.776,10.667-10.667,10.667S256,165.891,256,160c0-5.892,4.776-10.667,10.667-10.667S277.333,154.108,277.333,160z
			 M220.146,27.437c9.146-8.104,19.885-8.115,29.052,0.01c4.801,4.246,10.855,9.406,17.81,15.219h-64.674
			C209.29,36.853,215.345,31.689,220.146,27.437z M202.667,149.333c5.891,0,10.667,4.775,10.667,10.667
			c0,5.891-4.776,10.667-10.667,10.667S192,165.891,192,160C192,154.108,196.776,149.333,202.667,149.333z M182.458,219.229
			C183.01,218.115,196.51,192,234.667,192s51.656,26.115,52.208,27.229c2.635,5.271,0.5,11.677-4.771,14.313
			c-1.531,0.76-3.156,1.125-4.76,1.125c-3.875,0-7.604-2.115-9.49-5.771c-0.458-0.844-8.854-15.563-33.187-15.563
			c-24.521,0-32.854,14.938-33.198,15.573c-2.771,5.146-9.167,7.188-14.344,4.479C181.948,230.708,179.854,224.437,182.458,219.229z
			 M249.198,335.219c-2.573,2.281-7.938,6.115-14.865,6.115c-5.063,0-9.948-2.052-14.531-6.115
			C178.487,298.633,63.581,208.947,28.056,181.329c8.335-6.482,21.04-16.384,35.944-28.053v23.818c0,3.281,1.51,6.385,4.094,8.406
			c43.417,33.948,121.854,95.74,159.438,128.156c2,1.729,4.49,2.594,6.969,2.594c2.479,0,4.958-0.865,6.958-2.583
			c37.448-32.271,116.177-94.177,159.771-128.208c2.594-2.021,4.104-5.125,4.104-8.406v-23.773
			c14.897,11.667,27.598,21.563,35.934,28.044C405.629,208.979,290.195,298.926,249.198,335.219z"/>
	</g>
</g>
<g>
</g>
<g>
</g>
<g>
</g>
<g>
</g>
<g>
</g>
<g>
</g>
<g>
</g>
<g>
</g>
<g>
</g>
<g>
</g>
<g>
</g>
<g>
</g>
<g>
</g>
<g>
</g>
<g>
</g>
</svg>
