<?xml version="1.0" encoding="iso-8859-1"?>
<!-- Generator: Adobe Illustrator 19.0.0, SVG Export Plug-In . SVG Version: 6.00 Build 0)  -->
<svg fill='#eeeeee' version="1.1" id="Capa_1" xmlns="http://www.w3.org/2000/svg" xmlns:xlink="http://www.w3.org/1999/xlink" x="0px" y="0px"
	 viewBox="0 0 512 512" style="enable-background:new 0 0 512 512;" xml:space="preserve">
<g>
	<g>
		<g>
			<path d="M160,256H92.521c-11.854,0-22.833,5.885-29.604,16.021l-34.354,55.146c-4.729,7.146-7.229,15.052-7.229,22.865
				c0,7.052,0.688,15.292,5.563,22.604L32,380.865v3.146c0,23.51,19.146,42.656,42.667,42.667l40.146,0.01l1.479,2.458
				l-19.688,38.469c-2.146,4.24-3.271,8.99-3.271,13.74C93.333,498.25,107.083,512,124,512h4.708c2.771,0,5.438-1.083,7.438-3.021
				l75.896-73.781c14.375-13.979,22.625-33.5,22.625-53.542v-50.99C234.667,289.5,201.167,256,160,256z"/>
			<path d="M330.667,256H288c-17.646,0-32,14.354-32,32v106.667c0,17.646,14.354,32,32,32h42.667c17.646,0,32-14.354,32-32V288
				C362.667,270.354,348.313,256,330.667,256z"/>
			<path d="M341.333,0C259,0,192,52.635,192,117.333c0,25.958,10.875,50.938,30.875,71.375l-27.75,27.75
				c-3.042,3.052-3.958,7.635-2.313,11.625c1.646,3.99,5.542,6.583,9.854,6.583h138.667c82.333,0,149.333-52.635,149.333-117.333
				S423.667,0,341.333,0z M352,170.667h-64c-5.896,0-10.667-4.771-10.667-10.667s4.771-10.667,10.667-10.667h64
				c5.896,0,10.667,4.771,10.667,10.667S357.896,170.667,352,170.667z M394.667,106.667H288c-5.896,0-10.667-4.771-10.667-10.667
				S282.104,85.333,288,85.333h106.667c5.896,0,10.667,4.771,10.667,10.667S400.563,106.667,394.667,106.667z"/>
		</g>
	</g>
</g>
<g>
</g>
<g>
</g>
<g>
</g>
<g>
</g>
<g>
</g>
<g>
</g>
<g>
</g>
<g>
</g>
<g>
</g>
<g>
</g>
<g>
</g>
<g>
</g>
<g>
</g>
<g>
</g>
<g>
</g>
</svg>
