<?xml version="1.0" encoding="iso-8859-1"?>
<!-- Generator: Adobe Illustrator 19.0.0, SVG Export Plug-In . SVG Version: 6.00 Build 0)  -->
<svg fill='#eeeeee' version="1.1" id="Capa_1" xmlns="http://www.w3.org/2000/svg" xmlns:xlink="http://www.w3.org/1999/xlink" x="0px" y="0px"
	 viewBox="0 0 512 512" style="enable-background:new 0 0 512 512;" xml:space="preserve">
<g>
	<g>
		<path d="M469.333,42.667h-34.229C407.691,16.624,366.272,0,320,0s-87.691,16.624-115.104,42.667H42.667
			C19.146,42.667,0,61.802,0,85.333V384c0,23.531,19.146,42.667,42.667,42.667h149.381c-0.448,17.018-3.698,44.24-15.902,57.094
			c-4.479,4.708-9.604,6.906-16.146,6.906c-5.896,0-10.667,4.771-10.667,10.667c0,5.896,4.771,10.667,10.667,10.667h192
			c5.896,0,10.667-4.771,10.667-10.667c0-5.896-4.771-10.667-10.667-10.667c-6.542,0-11.667-2.188-16.125-6.896
			c-12.174-12.79-15.445-40.051-15.91-57.104h149.369C492.854,426.667,512,407.531,512,384V85.333
			C512,61.802,492.854,42.667,469.333,42.667z M266.667,85.333h106.667C379.229,85.333,384,90.104,384,96
			s-4.771,10.667-10.667,10.667H266.667C260.771,106.667,256,101.896,256,96S260.771,85.333,266.667,85.333z M266.667,149.333h64
			c5.896,0,10.667,4.771,10.667,10.667s-4.771,10.667-10.667,10.667h-64c-5.896,0-10.667-4.771-10.667-10.667
			S260.771,149.333,266.667,149.333z M256,405.396c-11.792,0-21.396-9.604-21.396-21.396c0-11.792,9.604-21.396,21.396-21.396
			s21.396,9.604,21.396,21.396C277.396,395.792,267.792,405.396,256,405.396z M42.667,341.333v-256h133.789
			c-3.686,10.189-5.789,20.896-5.789,32c0,25.969,10.885,50.948,30.875,71.375l-27.75,27.75c-3.052,3.052-3.969,7.635-2.313,11.625
			c1.646,3.99,5.542,6.583,9.854,6.583H320c82.344,0,149.333-52.635,149.333-117.333c0-11.104-2.103-21.811-5.789-32h5.789
			l0.018,256H42.667z"/>
	</g>
</g>
<g>
</g>
<g>
</g>
<g>
</g>
<g>
</g>
<g>
</g>
<g>
</g>
<g>
</g>
<g>
</g>
<g>
</g>
<g>
</g>
<g>
</g>
<g>
</g>
<g>
</g>
<g>
</g>
<g>
</g>
</svg>
