<?xml version="1.0" encoding="iso-8859-1"?>
<!-- Generator: Adobe Illustrator 19.0.0, SVG Export Plug-In . SVG Version: 6.00 Build 0)  -->
<svg fill='#eeeeee' version="1.1" id="Capa_1" xmlns="http://www.w3.org/2000/svg" xmlns:xlink="http://www.w3.org/1999/xlink" x="0px" y="0px"
	 viewBox="0 0 469.333 469.333" style="enable-background:new 0 0 469.333 469.333;" xml:space="preserve">
<g>
	<g>
		<path d="M465.198,172.906c-0.01-0.01-26.078-20.212-59.865-46.741V85.333c0-23.531-19.135-42.667-42.667-42.667h-62.125
			c-15.199-12.413-28.389-23.387-37.198-31.198C254.869,3.972,244.768,0.001,234.671,0C224.565-0.001,214.462,3.976,206,11.469
			c-8.809,7.811-21.997,18.785-37.207,31.198h-62.126C83.135,42.667,64,61.802,64,85.333v40.831
			c-33.794,26.527-59.854,46.732-59.865,46.742C1.585,174.902,0,178.016,0,181.333v245.333c0,23.531,19.135,42.667,42.667,42.667
			h384c23.531,0,42.667-19.135,42.667-42.667V181.333C469.333,178.016,467.749,174.902,465.198,172.906z M277.333,160
			c0,5.891-4.776,10.667-10.667,10.667S256,165.891,256,160c0-5.892,4.776-10.667,10.667-10.667S277.333,154.108,277.333,160z
			 M220.146,27.437c9.146-8.104,19.885-8.115,29.052,0.01c4.801,4.246,10.855,9.406,17.81,15.219h-64.674
			C209.29,36.853,215.345,31.689,220.146,27.437z M202.667,149.333c5.891,0,10.667,4.775,10.667,10.667
			c0,5.891-4.776,10.667-10.667,10.667S192,165.891,192,160C192,154.108,196.776,149.333,202.667,149.333z M187.229,193.125
			c5.26-2.583,11.583-0.531,14.25,4.646c0.458,0.844,8.854,15.563,33.188,15.563c24.521,0,32.854-14.938,33.198-15.573
			c2.771-5.125,9.177-7.198,14.344-4.479c5.177,2.677,7.271,8.948,4.667,14.156c-0.552,1.115-14.052,27.229-52.208,27.229
			s-51.656-26.115-52.208-27.229C179.823,202.167,181.958,195.76,187.229,193.125z M249.198,335.219
			c-2.573,2.281-7.938,6.115-14.865,6.115c-5.063,0-9.948-2.052-14.531-6.115C178.487,298.633,63.581,208.947,28.056,181.329
			c8.346-6.49,21.016-16.362,35.944-28.052v23.816c0,3.281,1.51,6.385,4.094,8.406c43.417,33.948,121.854,95.74,159.438,128.156
			c2,1.729,4.49,2.594,6.969,2.594c2.479,0,4.958-0.865,6.958-2.583c37.448-32.271,116.177-94.177,159.771-128.208
			c2.594-2.021,4.104-5.125,4.104-8.406V153.28c14.919,11.684,27.587,21.553,35.934,28.043
			C405.629,208.979,290.195,298.926,249.198,335.219z"/>
	</g>
</g>
<g>
</g>
<g>
</g>
<g>
</g>
<g>
</g>
<g>
</g>
<g>
</g>
<g>
</g>
<g>
</g>
<g>
</g>
<g>
</g>
<g>
</g>
<g>
</g>
<g>
</g>
<g>
</g>
<g>
</g>
</svg>
