<?xml version="1.0" encoding="iso-8859-1"?>
<!-- Generator: Adobe Illustrator 19.0.0, SVG Export Plug-In . SVG Version: 6.00 Build 0)  -->
<svg fill='#eeeeee' version="1.1" id="Capa_1" xmlns="http://www.w3.org/2000/svg" xmlns:xlink="http://www.w3.org/1999/xlink" x="0px" y="0px"
	 viewBox="0 0 512 512" style="enable-background:new 0 0 512 512;" xml:space="preserve">
<g>
	<g>
		<g>
			<path d="M202.667,85.333H224c5.896,0,10.667-4.771,10.667-10.667C234.667,68.771,229.896,64,224,64h-21.333
				C196.771,64,192,68.771,192,74.667C192,80.563,196.771,85.333,202.667,85.333z"/>
			<circle cx="309.333" cy="74.667" r="10.667"/>
			<path d="M384,118.15V42.667C384,19.135,364.865,0,341.333,0h-256C61.802,0,42.667,19.135,42.667,42.667v426.667
				c0,23.531,19.135,42.667,42.667,42.667h256C364.865,512,384,492.865,384,469.333V329.85
				c50.363-18.879,85.333-59.164,85.333-105.85S434.363,137.029,384,118.15z M245.333,469.333h-64
				c-5.896,0-10.667-4.771-10.667-10.667S175.438,448,181.333,448h64c5.896,0,10.667,4.771,10.667,10.667
				S251.229,469.333,245.333,469.333z M341.333,405.333h-256V42.667h256v65.339c-6.987-0.79-14.072-1.339-21.333-1.339
				c-82.344,0-149.333,52.635-149.333,117.333c0,25.969,10.885,50.948,30.875,71.375l-27.75,27.75
				c-3.052,3.052-3.969,7.635-2.313,11.625c1.646,3.99,5.542,6.583,9.854,6.583H320c7.262,0,14.346-0.548,21.333-1.339V405.333z
				 M330.667,277.333h-64c-5.896,0-10.667-4.771-10.667-10.667c0-5.896,4.771-10.667,10.667-10.667h64
				c5.896,0,10.667,4.771,10.667,10.667C341.333,272.563,336.563,277.333,330.667,277.333z M373.333,213.333H266.667
				c-5.896,0-10.667-4.771-10.667-10.667c0-5.896,4.771-10.667,10.667-10.667h106.667c5.896,0,10.667,4.771,10.667,10.667
				C384,208.563,379.229,213.333,373.333,213.333z"/>
		</g>
	</g>
</g>
<g>
</g>
<g>
</g>
<g>
</g>
<g>
</g>
<g>
</g>
<g>
</g>
<g>
</g>
<g>
</g>
<g>
</g>
<g>
</g>
<g>
</g>
<g>
</g>
<g>
</g>
<g>
</g>
<g>
</g>
</svg>
