<?xml version="1.0" encoding="iso-8859-1"?>
<!-- Generator: Adobe Illustrator 19.0.0, SVG Export Plug-In . SVG Version: 6.00 Build 0)  -->
<svg fill='#eeeeee' version="1.1" id="Capa_1" xmlns="http://www.w3.org/2000/svg" xmlns:xlink="http://www.w3.org/1999/xlink" x="0px" y="0px"
	 viewBox="0 0 469.333 469.333" style="enable-background:new 0 0 469.333 469.333;" xml:space="preserve">
<g>
	<g>
		<g>
			<path d="M426.667,0h-384C19.146,0,0,19.135,0,42.667v416c0,4.313,2.604,8.208,6.583,9.854c1.313,0.552,2.708,0.813,4.083,0.813
				c2.771,0,5.5-1.083,7.542-3.125L121.75,362.667h304.917c23.521,0,42.667-19.135,42.667-42.667V42.667
				C469.333,19.135,450.188,0,426.667,0z M234.667,298.667c-64.688,0-117.333-52.635-117.333-117.333
				C117.333,116.635,169.979,64,234.667,64S352,116.635,352,181.333C352,246.031,299.354,298.667,234.667,298.667z"/>
			<circle cx="192" cy="149.333" r="21.333"/>
			<circle cx="277.333" cy="149.333" r="21.333"/>
			<path d="M234.667,192c-36,0-59.875,23.458-60.875,24.458c-4.167,4.167-4.167,10.917,0,15.083s10.917,4.167,15.083,0
				c0.188-0.177,18.521-18.208,45.792-18.208c26.937,0,45.646,18.063,45.833,18.24c2.063,2.063,4.792,3.094,7.5,3.094
				c2.729,0,5.458-1.042,7.542-3.125c4.167-4.167,4.167-10.917,0-15.083C294.542,215.458,270.666,192,234.667,192z"/>
		</g>
	</g>
</g>
<g>
</g>
<g>
</g>
<g>
</g>
<g>
</g>
<g>
</g>
<g>
</g>
<g>
</g>
<g>
</g>
<g>
</g>
<g>
</g>
<g>
</g>
<g>
</g>
<g>
</g>
<g>
</g>
<g>
</g>
</svg>
