<?xml version="1.0" encoding="iso-8859-1"?>
<!-- Generator: Adobe Illustrator 19.0.0, SVG Export Plug-In . SVG Version: 6.00 Build 0)  -->
<svg fill='#eeeeee' version="1.1" id="Capa_1" xmlns="http://www.w3.org/2000/svg" xmlns:xlink="http://www.w3.org/1999/xlink" x="0px" y="0px"
	 viewBox="0 0 512 512" style="enable-background:new 0 0 512 512;" xml:space="preserve">
<g>
	<g>
		<path d="M405.333,42.667h-42.667c-0.656,0-1.225,0.259-1.849,0.372c-4.313-12.579-16.126-21.706-30.151-21.706h-32.219
			C288.427,8.042,272.677,0,256,0s-32.427,8.042-42.448,21.333h-32.219c-14.025,0-25.839,9.126-30.151,21.706
			c-0.624-0.113-1.193-0.372-1.849-0.372h-42.667C83.135,42.667,64,61.802,64,85.333v384C64,492.865,83.135,512,106.667,512h298.667
			C428.865,512,448,492.865,448,469.333v-384C448,61.802,428.865,42.667,405.333,42.667z M352,181.333
			c0,5.891-4.776,10.667-10.667,10.667c-5.891,0-10.667-4.776-10.667-10.667c0-5.892,4.776-10.667,10.667-10.667
			C347.224,170.667,352,175.441,352,181.333z M170.667,53.333c0-5.885,4.781-10.667,10.667-10.667h37.917
			c3.792,0,7.302-2.021,9.219-5.302c5.844-10.042,16.135-16.031,27.531-16.031s21.688,5.99,27.531,16.031
			c1.917,3.281,5.427,5.302,9.219,5.302h37.917c5.885,0,10.667,4.781,10.667,10.667V64c0,11.76-9.573,21.333-21.333,21.333H192
			c-11.76,0-21.333-9.573-21.333-21.333V53.333z M288,181.333c0,5.891-4.776,10.667-10.667,10.667s-10.667-4.776-10.667-10.667
			c0-5.892,4.776-10.667,10.667-10.667S288,175.441,288,181.333z M213.333,416c0,5.896-4.771,10.667-10.667,10.667h-64
			c-5.896,0-10.667-4.771-10.667-10.667v-64c0-5.896,4.771-10.667,10.667-10.667h64c5.896,0,10.667,4.771,10.667,10.667V416z
			 M213.333,245.333c0,5.896-4.771,10.667-10.667,10.667h-64c-5.896,0-10.667-4.771-10.667-10.667v-64
			c0-5.896,4.771-10.667,10.667-10.667h64c5.896,0,10.667,4.771,10.667,10.667V245.333z M261.896,214.458
			c5.26-2.583,11.583-0.531,14.25,4.646c0.458,0.844,8.854,15.563,33.188,15.563c24.521,0,32.854-14.938,33.198-15.573
			c2.76-5.125,9.167-7.198,14.344-4.479c5.177,2.677,7.271,8.948,4.667,14.156C360.99,229.885,347.49,256,309.333,256
			c-38.156,0-51.656-26.115-52.208-27.229C254.49,223.5,256.625,217.094,261.896,214.458z M352,352
			c0,5.891-4.776,10.667-10.667,10.667c-5.891,0-10.667-4.776-10.667-10.667c0-5.892,4.776-10.667,10.667-10.667
			C347.224,341.333,352,346.108,352,352z M288,352c0,5.891-4.776,10.667-10.667,10.667s-10.667-4.776-10.667-10.667
			c0-5.892,4.776-10.667,10.667-10.667S288,346.108,288,352z M356.771,425.542c-1.531,0.76-3.156,1.125-4.76,1.125
			c-3.875,0-7.604-2.115-9.49-5.771c-0.458-0.844-8.854-15.563-33.188-15.563c-24.521,0-32.854,14.938-33.198,15.573
			c-2.771,5.135-9.188,7.177-14.344,4.479c-5.177-2.677-7.271-8.948-4.667-14.156c0.552-1.115,14.052-27.229,52.208-27.229
			c38.156,0,51.656,26.115,52.208,27.229C364.177,416.5,362.042,422.906,356.771,425.542z"/>
	</g>
</g>
<g>
</g>
<g>
</g>
<g>
</g>
<g>
</g>
<g>
</g>
<g>
</g>
<g>
</g>
<g>
</g>
<g>
</g>
<g>
</g>
<g>
</g>
<g>
</g>
<g>
</g>
<g>
</g>
<g>
</g>
</svg>
