<?xml version="1.0" encoding="iso-8859-1"?>
<!-- Generator: Adobe Illustrator 19.0.0, SVG Export Plug-In . SVG Version: 6.00 Build 0)  -->
<svg fill='#eeeeee' version="1.1" id="Capa_1" xmlns="http://www.w3.org/2000/svg" xmlns:xlink="http://www.w3.org/1999/xlink" x="0px" y="0px"
	 viewBox="0 0 512 512" style="enable-background:new 0 0 512 512;" xml:space="preserve">
<g>
	<g>
		<g>
			<path d="M362.667,0c-82.333,0-149.333,52.635-149.333,117.333c0,25.958,10.875,50.938,30.875,71.375l-27.75,27.75
				c-3.042,3.052-3.958,7.635-2.313,11.625c1.646,3.99,5.542,6.583,9.854,6.583h138.667C445,234.667,512,182.031,512,117.333
				S445,0,362.667,0z M394.667,85.333c5.891,0,10.667,4.775,10.667,10.667c0,5.891-4.776,10.667-10.667,10.667S384,101.891,384,96
				C384,90.108,388.776,85.333,394.667,85.333z M330.667,85.333c5.891,0,10.667,4.775,10.667,10.667
				c0,5.891-4.776,10.667-10.667,10.667S320,101.891,320,96C320,90.108,324.776,85.333,330.667,85.333z M410.104,169.542
				c-1.542,0.76-3.167,1.125-4.771,1.125c-3.854,0-7.583-2.115-9.479-5.771c-0.458-0.844-8.854-15.563-33.188-15.563
				c-24.521,0-32.854,14.938-33.188,15.573c-2.771,5.125-9.229,7.198-14.354,4.479c-5.167-2.677-7.271-8.948-4.667-14.156
				c0.563-1.115,14.063-27.229,52.208-27.229c38.146,0,51.646,26.115,52.208,27.229C417.5,160.5,415.375,166.906,410.104,169.542z"
				/>
			<circle cx="149.333" cy="288" r="74.667"/>
			<path d="M264,414.531C237.146,400.604,195.458,384,149.333,384s-87.813,16.604-114.667,30.531
				C13.292,425.615,0,447.469,0,471.573v9.76C0,498.24,13.667,512,30.479,512h237.708c16.813,0,30.479-13.76,30.479-30.667v-9.76
				C298.667,447.469,285.375,425.615,264,414.531z"/>
		</g>
	</g>
</g>
<g>
</g>
<g>
</g>
<g>
</g>
<g>
</g>
<g>
</g>
<g>
</g>
<g>
</g>
<g>
</g>
<g>
</g>
<g>
</g>
<g>
</g>
<g>
</g>
<g>
</g>
<g>
</g>
<g>
</g>
</svg>
