<?xml version="1.0" encoding="iso-8859-1"?>
<!-- Generator: Adobe Illustrator 19.0.0, SVG Export Plug-In . SVG Version: 6.00 Build 0)  -->
<svg fill='#eeeeee' version="1.1" id="Capa_1" xmlns="http://www.w3.org/2000/svg" xmlns:xlink="http://www.w3.org/1999/xlink" x="0px" y="0px"
	 viewBox="0 0 512 512" style="enable-background:new 0 0 512 512;" xml:space="preserve">
<g>
	<g>
		<path d="M376.413,110.203c-3.048-3.676-7.329-6.154-12.111-6.693l-89.875-9.969L244.73,14.354C241.5,5.771,233.167,0,224,0
			c-9.167,0-17.5,5.771-20.74,14.365l-29.688,79.177l-89.885,9.969c-8.76,0.99-16.104,7.063-18.708,15.5
			c-2.594,8.458,0.063,17.625,6.76,23.333l70.323,60.292l-20.115,90.406c-1.969,8.875,1.802,18.229,9.417,23.292
			c3.646,2.396,7.865,3.667,12.219,3.667c4.646,0,9.094-1.427,12.885-4.135L224,267.625l32,22.859v210.849
			c0,5.896,4.771,10.667,10.667,10.667h170.667c5.896,0,10.667-4.771,10.667-10.667V202.667
			C448,158.216,417.489,121.081,376.413,110.203z M405.334,266.667c0,5.896-4.771,10.667-10.667,10.667h-85.333
			c-5.896,0-10.667-4.771-10.667-10.667v-64c0-29.406,23.927-53.333,53.333-53.333s53.333,23.927,53.333,53.333V266.667z"/>
	</g>
</g>
<g>
</g>
<g>
</g>
<g>
</g>
<g>
</g>
<g>
</g>
<g>
</g>
<g>
</g>
<g>
</g>
<g>
</g>
<g>
</g>
<g>
</g>
<g>
</g>
<g>
</g>
<g>
</g>
<g>
</g>
</svg>
