<?xml version="1.0" encoding="iso-8859-1"?>
<!-- Generator: Adobe Illustrator 19.0.0, SVG Export Plug-In . SVG Version: 6.00 Build 0)  -->
<svg fill='#eeeeee' version="1.1" id="Capa_1" xmlns="http://www.w3.org/2000/svg" xmlns:xlink="http://www.w3.org/1999/xlink" x="0px" y="0px"
	 viewBox="0 0 512 512" style="enable-background:new 0 0 512 512;" xml:space="preserve">
<g>
	<g>
		<path d="M383.59,112.436c0.244-2.902,0.41-5.829,0.41-8.436c0-57.344-42-104-93.625-104C263.313,0,240.417,20.729,224,42.073
			C207.583,20.729,184.688,0,157.625,0C106,0,64,46.656,64,104c0,27.531,9.583,53.479,27.021,73.125l125.042,139.333
			c2.021,2.25,4.917,3.542,7.938,3.542s5.917-1.292,7.938-3.542L256,289.641v211.693c0,5.896,4.771,10.667,10.667,10.667h170.667
			c5.896,0,10.667-4.771,10.667-10.667V202.667C448,160.853,420.967,125.573,383.59,112.436z M405.333,266.667
			c0,5.896-4.771,10.667-10.667,10.667h-85.333c-5.896,0-10.667-4.771-10.667-10.667v-64c0-29.406,23.917-53.333,53.333-53.333
			s53.333,23.927,53.333,53.333V266.667z"/>
	</g>
</g>
<g>
</g>
<g>
</g>
<g>
</g>
<g>
</g>
<g>
</g>
<g>
</g>
<g>
</g>
<g>
</g>
<g>
</g>
<g>
</g>
<g>
</g>
<g>
</g>
<g>
</g>
<g>
</g>
<g>
</g>
</svg>
