<?xml version="1.0" encoding="iso-8859-1"?>
<!-- Generator: Adobe Illustrator 19.0.0, SVG Export Plug-In . SVG Version: 6.00 Build 0)  -->
<svg fill='#eeeeee' version="1.1" id="Capa_1" xmlns="http://www.w3.org/2000/svg" xmlns:xlink="http://www.w3.org/1999/xlink" x="0px" y="0px"
	 viewBox="0 0 512 512" style="enable-background:new 0 0 512 512;" xml:space="preserve">
<g>
	<g>
		<g>
			<path d="M98.729,252.458c2.021,2.25,4.906,3.542,7.938,3.542s5.917-1.292,7.938-3.542l44.688-49.792
				c7.333-8.25,11.375-19.135,11.375-30.667c0-24.26-18.073-44-40.292-44c-8.188,0-16.24,3.917-23.708,11.448
				C99.198,131.917,91.146,128,82.958,128c-22.219,0-40.292,19.74-40.292,44c0,11.531,4.042,22.417,11.406,30.698L98.729,252.458z"
				/>
			<path d="M279.708,128c-8.188,0-16.24,3.917-23.708,11.448C248.531,131.917,240.479,128,232.292,128
				C210.073,128,192,147.74,192,172c0,11.531,4.042,22.417,11.406,30.698l44.656,49.76c2.021,2.25,4.906,3.542,7.938,3.542
				s5.917-1.292,7.938-3.542l44.688-49.792C315.958,194.417,320,183.531,320,172C320,147.74,301.927,128,279.708,128z"/>
			<path d="M429.042,128c-8.188,0-16.24,3.917-23.708,11.448C397.865,131.917,389.813,128,381.625,128
				c-22.219,0-40.292,19.74-40.292,44c0,11.531,4.042,22.417,11.406,30.698l44.656,49.76c2.021,2.25,4.906,3.542,7.938,3.542
				s5.917-1.292,7.938-3.542l44.688-49.792c7.333-8.25,11.375-19.135,11.375-30.667C469.333,147.74,451.26,128,429.042,128z"/>
			<path d="M469.333,21.333H42.667C19.146,21.333,0,40.469,0,64v298.667c0,23.531,19.146,42.667,42.667,42.667h149.381
				c-0.448,17.018-3.698,44.24-15.902,57.094c-4.479,4.708-9.604,6.906-16.146,6.906c-5.896,0-10.667,4.771-10.667,10.667
				c0,5.896,4.771,10.667,10.667,10.667h192c5.896,0,10.667-4.771,10.667-10.667c0-5.896-4.771-10.667-10.667-10.667
				c-6.542,0-11.667-2.188-16.125-6.896c-12.174-12.79-15.445-40.051-15.91-57.104h149.369c23.521,0,42.667-19.135,42.667-42.667V64
				C512,40.469,492.854,21.333,469.333,21.333z M256,384.063c-11.792,0-21.396-9.604-21.396-21.396s9.604-21.396,21.396-21.396
				s21.396,9.604,21.396,21.396S267.792,384.063,256,384.063z M42.667,320V172V64h426.667l0.018,256H42.667z"/>
		</g>
	</g>
</g>
<g>
</g>
<g>
</g>
<g>
</g>
<g>
</g>
<g>
</g>
<g>
</g>
<g>
</g>
<g>
</g>
<g>
</g>
<g>
</g>
<g>
</g>
<g>
</g>
<g>
</g>
<g>
</g>
<g>
</g>
</svg>
