<?xml version="1.0" encoding="iso-8859-1"?>
<!-- Generator: Adobe Illustrator 19.0.0, SVG Export Plug-In . SVG Version: 6.00 Build 0)  -->
<svg fill='#eeeeee' version="1.1" id="Capa_1" xmlns="http://www.w3.org/2000/svg" xmlns:xlink="http://www.w3.org/1999/xlink" x="0px" y="0px"
	 viewBox="0 0 512.001 512.001" style="enable-background:new 0 0 512.001 512.001;" xml:space="preserve">
<g>
	<g>
		<path d="M508.625,418.886l-39.292-36.836V42.667C469.333,19.136,450.188,0,426.667,0h-384C19.146,0,0,19.136,0,42.667v384
			c0,23.531,19.146,42.667,42.667,42.667H320v32c0,4.313,2.594,8.208,6.583,9.854c1.323,0.552,2.708,0.813,4.083,0.813
			c2.771,0,5.5-1.083,7.542-3.125l39.542-39.542h4.984l13.057,26.104c2.635,5.271,9.042,7.396,14.313,4.771l42.667-21.333
			c5.271-2.635,7.406-9.042,4.771-14.313l-2.949-5.9c6.365-5.563,11.038-12.908,13.227-21.329h33.514
			c4.375,0,8.313-2.677,9.917-6.74C512.865,426.521,511.823,421.875,508.625,418.886z M138.667,42.667
			c5.891,0,10.667,4.775,10.667,10.667c0,5.891-4.776,10.667-10.667,10.667S128,59.224,128,53.334
			C128,47.442,132.776,42.667,138.667,42.667z M96,42.667c5.891,0,10.667,4.775,10.667,10.667C106.667,59.224,101.891,64,96,64
			s-10.667-4.776-10.667-10.667C85.333,47.442,90.109,42.667,96,42.667z M53.333,42.667C59.224,42.667,64,47.442,64,53.334
			C64,59.224,59.224,64,53.333,64s-10.667-4.776-10.667-10.667C42.667,47.442,47.443,42.667,53.333,42.667z M426.667,342.05
			l-86.422-81.021c1.224-3.549,1.436-7.436,0.276-11.206c-2.125-6.833-8.104-11.771-15.24-12.594l-55.448-6.146l-18.271-48.708
			c-2.635-7-9.417-11.708-16.896-11.708c-7.479,0-14.26,4.708-16.896,11.708L199.5,231.084l-55.479,6.156
			c-7.104,0.813-13.083,5.75-15.229,12.625c-2.115,6.896,0.063,14.365,5.521,19.021l43.469,37.26l-12.427,55.875
			c-1.615,7.229,1.448,14.844,7.667,18.99c6.167,4.063,14.5,3.896,20.448-0.375l41.198-29.427l41.188,29.427
			c3.083,2.198,6.719,3.365,10.51,3.365c3.542,0,6.979-1.031,10-3.021c6.167-4.115,9.229-11.729,7.625-18.948l-12.438-55.885
			L320,281.763v144.904H42.667v-320h384V342.05z"/>
	</g>
</g>
<g>
</g>
<g>
</g>
<g>
</g>
<g>
</g>
<g>
</g>
<g>
</g>
<g>
</g>
<g>
</g>
<g>
</g>
<g>
</g>
<g>
</g>
<g>
</g>
<g>
</g>
<g>
</g>
<g>
</g>
</svg>
