<?xml version="1.0" encoding="iso-8859-1"?>
<!-- Generator: Adobe Illustrator 19.0.0, SVG Export Plug-In . SVG Version: 6.00 Build 0)  -->
<svg fill='#eeeeee' version="1.1" id="Capa_1" xmlns="http://www.w3.org/2000/svg" xmlns:xlink="http://www.w3.org/1999/xlink" x="0px" y="0px"
	 viewBox="0 0 512 512" style="enable-background:new 0 0 512 512;" xml:space="preserve">
<g>
	<g>
		<g>
			<path d="M471.708,21.333c-8.188,0-16.24,3.917-23.708,11.448c-7.469-7.531-15.521-11.448-23.708-11.448
				c-22.219,0-40.292,19.74-40.292,44c0,11.531,4.042,22.417,11.406,30.698l44.656,49.76c2.021,2.25,4.906,3.542,7.938,3.542
				s5.917-1.292,7.938-3.542L500.625,96C507.958,87.75,512,76.865,512,65.333C512,41.073,493.927,21.333,471.708,21.333z"/>
			<path d="M449,273.208l-78.052-51.031c-14.354-9.385-32.104-12.51-50.948-5.854v-70.815c25.141-8.924,42.667-32.88,42.667-60.174
				c0-35.292-28.708-64-64-64H64c-35.292,0-64,28.708-64,64c0,35.292,28.708,64,64,64h170.667V349.75l-61.219-30.01
				c-5.344-2.625-11.323-4.01-17.292-4.01c-21.406,0-38.823,17.177-38.823,38.281v6.521c0,2.99,1.26,5.844,3.469,7.865
				l100.438,91.927c21.365,19.573,49.229,30.344,78.448,30.344h80.667c49.063,0,88.979-39.24,88.979-87.469v-92.667
				C469.333,295.469,461.729,281.521,449,273.208z M277.333,85.333V42.667h21.333c23.531,0,42.667,19.135,42.667,42.667
				c0,15.714-8.736,29.747-21.892,37.145C316.701,101.574,298.974,85.333,277.333,85.333z"/>
		</g>
	</g>
</g>
<g>
</g>
<g>
</g>
<g>
</g>
<g>
</g>
<g>
</g>
<g>
</g>
<g>
</g>
<g>
</g>
<g>
</g>
<g>
</g>
<g>
</g>
<g>
</g>
<g>
</g>
<g>
</g>
<g>
</g>
</svg>
