<?xml version="1.0" encoding="iso-8859-1"?>
<!-- Generator: Adobe Illustrator 19.0.0, SVG Export Plug-In . SVG Version: 6.00 Build 0)  -->
<svg fill='#eeeeee' version="1.1" id="Capa_1" xmlns="http://www.w3.org/2000/svg" xmlns:xlink="http://www.w3.org/1999/xlink" x="0px" y="0px"
	 viewBox="0 0 512 512" style="enable-background:new 0 0 512 512;" xml:space="preserve">
<g>
	<g>
		<path d="M427.667,294.542l-78.063-51.031c-14.333-9.375-32.146-12.5-50.938-5.854v-88.323c0-11.454-4.591-21.816-11.96-29.488
			c7.651-12.645,11.96-27.326,11.96-42.512C298.667,34.688,267.313,0,228.75,0c-20.896,0-37.208,13.5-47.417,25.135
			C171.125,13.5,154.813,0,133.917,0C95.354,0,64,34.688,64,77.333c0,20.427,7.125,39.688,20.083,54.271l89.313,99.521
			c2.021,2.25,4.917,3.542,7.938,3.542c3.021,0,5.917-1.292,7.938-3.542l24.063-26.943v166.901l-61.229-30.021
			c-5.354-2.615-11.313-4-17.271-4C113.417,337.063,96,354.24,96,375.344v6.521c0,2.99,1.25,5.844,3.458,7.865l100.438,91.927
			C221.271,501.229,249.146,512,278.354,512h80.667C408.083,512,448,472.76,448,424.531v-92.667
			C448,316.802,440.396,302.854,427.667,294.542z M247.708,101.688l-7.107,7.966c-12.583,4.902-22.174,15.583-25.685,28.793
			l-33.583,37.647l-65.458-72.948c-5.938-6.677-9.208-15.844-9.208-25.813c0-19.115,12.229-34.667,27.25-34.667
			c3.75,0,12.667,5.479,20.729,17.677c11.917,17.938,41.458,17.948,53.375-0.01C216.083,48.146,225,42.667,228.75,42.667
			c15.021,0,27.25,15.552,27.25,34.667C256,86.375,253.063,95.01,247.708,101.688z"/>
	</g>
</g>
<g>
</g>
<g>
</g>
<g>
</g>
<g>
</g>
<g>
</g>
<g>
</g>
<g>
</g>
<g>
</g>
<g>
</g>
<g>
</g>
<g>
</g>
<g>
</g>
<g>
</g>
<g>
</g>
<g>
</g>
</svg>
