<?xml version="1.0" encoding="iso-8859-1"?>
<!-- Generator: Adobe Illustrator 19.0.0, SVG Export Plug-In . SVG Version: 6.00 Build 0)  -->
<svg fill='#eeeeee' version="1.1" id="Capa_1" xmlns="http://www.w3.org/2000/svg" xmlns:xlink="http://www.w3.org/1999/xlink" x="0px" y="0px"
	 viewBox="0 0 512.001 512.001" style="enable-background:new 0 0 512.001 512.001;" xml:space="preserve">
<g>
	<g>
		<path d="M508.625,418.886l-39.292-36.836V42.667C469.333,19.136,450.188,0,426.667,0h-384C19.146,0,0,19.136,0,42.667v384
			c0,23.531,19.146,42.667,42.667,42.667H320v32c0,4.313,2.594,8.208,6.583,9.854c1.323,0.552,2.708,0.813,4.083,0.813
			c2.771,0,5.5-1.083,7.542-3.125l39.542-39.542h4.984l13.057,26.104c2.635,5.271,9.052,7.396,14.313,4.771l42.667-21.333
			c5.271-2.635,7.406-9.042,4.771-14.313l-2.949-5.9c6.365-5.563,11.038-12.908,13.227-21.329h33.514
			c4.375,0,8.313-2.677,9.917-6.74C512.865,426.521,511.823,421.875,508.625,418.886z M138.667,42.667
			c5.891,0,10.667,4.775,10.667,10.667c0,5.891-4.776,10.667-10.667,10.667S128,59.224,128,53.334
			C128,47.442,132.776,42.667,138.667,42.667z M96,42.667c5.891,0,10.667,4.775,10.667,10.667C106.667,59.224,101.891,64,96,64
			s-10.667-4.776-10.667-10.667C85.333,47.442,90.109,42.667,96,42.667z M53.333,42.667C59.224,42.667,64,47.442,64,53.334
			C64,59.224,59.224,64,53.333,64s-10.667-4.776-10.667-10.667C42.667,47.442,47.443,42.667,53.333,42.667z M426.667,342.05
			l-87.799-82.311c1.453-5.961,2.466-12.074,2.466-18.405c0-38.969-28.708-70.667-64-70.667c-17.229,0-31.802,11.729-42.667,24.76
			c-10.865-13.031-25.438-24.76-42.667-24.76c-35.292,0-64,31.698-64,70.667c0,18.646,6.51,36.24,18.354,49.552l80.375,89.573
			c2.021,2.25,4.906,3.542,7.938,3.542s5.917-1.292,7.938-3.542L320,294.209v132.458H42.667v-320h384V342.05z"/>
	</g>
</g>
<g>
</g>
<g>
</g>
<g>
</g>
<g>
</g>
<g>
</g>
<g>
</g>
<g>
</g>
<g>
</g>
<g>
</g>
<g>
</g>
<g>
</g>
<g>
</g>
<g>
</g>
<g>
</g>
<g>
</g>
</svg>
