<?xml version="1.0" encoding="iso-8859-1"?>
<!-- Generator: Adobe Illustrator 19.0.0, SVG Export Plug-In . SVG Version: 6.00 Build 0)  -->
<svg fill='#eeeeee' version="1.1" id="Capa_1" xmlns="http://www.w3.org/2000/svg" xmlns:xlink="http://www.w3.org/1999/xlink" x="0px" y="0px"
	 viewBox="0 0 512 512" style="enable-background:new 0 0 512 512;" xml:space="preserve">
<g>
	<g>
		<path d="M427.672,294.542l-78.063-51.031c-14.938-9.792-34.688-11.448-50.938-4.573v-89.604c0-6.324-1.471-12.279-3.951-17.682
			l18.409-15.776c5.958-5.104,8.333-13.25,6-20.76v-0.01c-2.313-7.49-8.854-12.896-16.646-13.76l-69.208-7.677l-22.833-60.875
			C207.588,5.146,200.172,0,192.005,0c-8.167,0-15.583,5.146-18.417,12.771l-22.854,60.896l-69.229,7.677
			c-7.771,0.865-14.313,6.271-16.625,13.771c-2.333,7.51,0.042,15.656,6,20.76l54.208,46.469l-15.5,69.688
			c-1.75,7.896,1.604,16.208,8.396,20.719c3.229,2.125,6.979,3.25,10.833,3.25c4.146,0,8.125-1.281,11.458-3.677l51.729-36.948
			l21.333,15.242v140.466l-61.229-30.021c-5.354-2.615-11.313-4-17.271-4c-21.417,0-38.833,17.177-38.833,38.281v6.521
			c0,2.99,1.25,5.844,3.458,7.865l100.438,91.927C221.276,501.229,249.151,512,278.359,512h80.667
			c49.063,0,88.979-39.24,88.979-87.469v-92.667C448.005,316.802,440.401,302.854,427.672,294.542z M213.338,149.333v28.84
			l-2.75-1.954c-10.917-7.771-26.229-7.781-37.188,0.01l-9.125,6.521l3.875-17.396c2.563-11.583-1.438-23.563-10.438-31.24
			l-18.875-16.198l23.125-2.563c12.042-1.354,22.167-9.229,26.417-20.573l3.625-9.646l3.625,9.656
			c4.25,11.333,14.375,19.208,26.438,20.563l7.419,0.822C219.725,124.001,213.338,135.875,213.338,149.333z"/>
	</g>
</g>
<g>
</g>
<g>
</g>
<g>
</g>
<g>
</g>
<g>
</g>
<g>
</g>
<g>
</g>
<g>
</g>
<g>
</g>
<g>
</g>
<g>
</g>
<g>
</g>
<g>
</g>
<g>
</g>
<g>
</g>
</svg>
