<?xml version="1.0" encoding="iso-8859-1"?>
<!-- Generator: Adobe Illustrator 19.0.0, SVG Export Plug-In . SVG Version: 6.00 Build 0)  -->
<svg fill='#eeeeee' version="1.1" id="Capa_1" xmlns="http://www.w3.org/2000/svg" xmlns:xlink="http://www.w3.org/1999/xlink" x="0px" y="0px"
	 viewBox="0 0 512 512" style="enable-background:new 0 0 512 512;" xml:space="preserve">
<g>
	<g>
		<g>
			<path d="M157.531,165.01l-27.906-3.094l-9.135-24.375c-4.354-11.458-23.396-11.385-27.646,0.031l-9.125,24.344l-27.906,3.094
				c-5.844,0.646-10.75,4.698-12.49,10.344c-1.729,5.615,0.042,11.719,4.51,15.542l21.99,18.865l-6.281,28.229
				c-1.344,5.938,1.167,12.198,6.323,15.604c4.969,3.229,11.594,3.208,16.677-0.344l20.125-14.375l20.177,14.417
				c2.521,1.771,5.469,2.708,8.542,2.708c2.875,0,5.677-0.833,8.188-2.469c5.031-3.354,7.542-9.573,6.24-15.5l-6.292-28.271
				l21.99-18.865c4.469-3.823,6.24-9.927,4.49-15.625C168.229,169.677,163.333,165.646,157.531,165.01z"/>
			<path d="M456.198,165.01l-27.906-3.094l-9.135-24.375c-4.354-11.458-23.396-11.385-27.646,0.031l-9.125,24.344l-27.906,3.094
				c-5.844,0.646-10.75,4.698-12.49,10.344c-1.729,5.615,0.042,11.719,4.51,15.542l21.99,18.865l-6.281,28.229
				c-1.344,5.938,1.167,12.198,6.323,15.604c4.979,3.229,11.604,3.208,16.677-0.344l20.125-14.375l20.177,14.417
				c2.521,1.771,5.469,2.708,8.542,2.708c2.875,0,5.677-0.833,8.188-2.469c5.031-3.354,7.542-9.573,6.24-15.5l-6.292-28.271
				l21.99-18.865c4.469-3.823,6.24-9.927,4.49-15.625C466.896,169.677,462,165.646,456.198,165.01z"/>
			<path d="M306.865,165.01l-27.917-3.094l-9.115-24.313c-4.281-11.469-23.302-11.542-27.667-0.031l-9.125,24.344l-27.885,3.094
				c-5.823,0.635-10.719,4.667-12.51,10.344c-1.729,5.615,0.042,11.719,4.51,15.542l21.99,18.865l-6.292,28.292
				c-1.302,5.906,1.208,12.125,6.333,15.542c5.021,3.26,11.729,3.167,16.677-0.344L256,238.875l20.229,14.458
				c2.51,1.74,5.448,2.667,8.49,2.667c2.875,0,5.667-0.833,8.146-2.448c5.094-3.365,7.604-9.625,6.271-15.521l-6.292-28.271
				l21.99-18.865c4.469-3.823,6.24-9.927,4.5-15.563C317.604,169.708,312.698,165.656,306.865,165.01z"/>
			<path d="M469.333,21.333H42.667C19.146,21.333,0,40.469,0,64v298.667c0,23.531,19.146,42.667,42.667,42.667h149.381
				c-0.448,17.018-3.698,44.24-15.902,57.094c-4.479,4.708-9.604,6.906-16.146,6.906c-5.896,0-10.667,4.771-10.667,10.667
				c0,5.896,4.771,10.667,10.667,10.667h192c5.896,0,10.667-4.771,10.667-10.667c0-5.896-4.771-10.667-10.667-10.667
				c-6.542,0-11.667-2.188-16.125-6.896c-12.174-12.79-15.445-40.051-15.91-57.104h149.369c23.521,0,42.667-19.135,42.667-42.667V64
				C512,40.469,492.854,21.333,469.333,21.333z M256,384.063c-11.792,0-21.396-9.604-21.396-21.396s9.604-21.396,21.396-21.396
				s21.396,9.604,21.396,21.396S267.792,384.063,256,384.063z M42.667,320V64h426.667l0.018,256H42.667z"/>
		</g>
	</g>
</g>
<g>
</g>
<g>
</g>
<g>
</g>
<g>
</g>
<g>
</g>
<g>
</g>
<g>
</g>
<g>
</g>
<g>
</g>
<g>
</g>
<g>
</g>
<g>
</g>
<g>
</g>
<g>
</g>
<g>
</g>
</svg>
