<?xml version="1.0" encoding="iso-8859-1"?>
<!-- Generator: Adobe Illustrator 19.0.0, SVG Export Plug-In . SVG Version: 6.00 Build 0)  -->
<svg fill='#eeeeee' version="1.1" id="Capa_1" xmlns="http://www.w3.org/2000/svg" xmlns:xlink="http://www.w3.org/1999/xlink" x="0px" y="0px"
	 viewBox="0 0 511.999 511.999" style="enable-background:new 0 0 511.999 511.999;" xml:space="preserve">
<g>
	<g>
		<g>
			<path d="M293.281,151.895l-55.448-6.146L219.563,97.04c-2.635-7-9.417-11.708-16.896-11.708c-7.479,0-14.26,4.708-16.896,11.708
				L167.5,145.749l-55.479,6.156c-7.104,0.813-13.083,5.75-15.229,12.625c-2.115,6.896,0.063,14.365,5.521,19.021l43.469,37.26
				l-12.427,55.875c-1.615,7.229,1.448,14.844,7.667,18.99c6.167,4.073,14.5,3.896,20.448-0.375l41.198-29.427l41.188,29.427
				c3.083,2.198,6.719,3.365,10.51,3.365c3.542,0,6.979-1.031,10-3.021c6.167-4.115,9.229-11.729,7.625-18.948l-12.438-55.885
				L303,183.572c5.479-4.677,7.656-12.146,5.521-19.083C306.396,157.655,300.417,152.717,293.281,151.895z"/>
			<path d="M508.874,478.707L360.142,329.975c28.21-34.826,45.191-79.102,45.191-127.309C405.333,90.917,314.417,0,202.667,0
				S0,90.917,0,202.667s90.917,202.667,202.667,202.667c48.206,0,92.482-16.98,127.309-45.191l148.732,148.732
				c4.167,4.167,10.919,4.167,15.086,0l15.081-15.082C513.04,489.626,513.04,482.874,508.874,478.707z M202.667,362.667
				c-88.229,0-160-71.771-160-160s71.771-160,160-160s160,71.771,160,160S290.896,362.667,202.667,362.667z"/>
		</g>
	</g>
</g>
<g>
</g>
<g>
</g>
<g>
</g>
<g>
</g>
<g>
</g>
<g>
</g>
<g>
</g>
<g>
</g>
<g>
</g>
<g>
</g>
<g>
</g>
<g>
</g>
<g>
</g>
<g>
</g>
<g>
</g>
</svg>
