<?xml version="1.0" encoding="iso-8859-1"?>
<!-- Generator: Adobe Illustrator 19.0.0, SVG Export Plug-In . SVG Version: 6.00 Build 0)  -->
<svg fill='#eeeeee' version="1.1" id="Capa_1" xmlns="http://www.w3.org/2000/svg" xmlns:xlink="http://www.w3.org/1999/xlink" x="0px" y="0px"
	 viewBox="0 0 469.333 469.333" style="enable-background:new 0 0 469.333 469.333;" xml:space="preserve">
<g>
	<g>
		<g>
			<path d="M320,0c-82.344,0-149.333,52.635-149.333,117.333c0,25.969,10.885,50.948,30.875,71.375l-27.75,27.75
				c-3.052,3.052-3.969,7.635-2.313,11.625c1.646,3.99,5.542,6.583,9.854,6.583H320c82.344,0,149.333-52.635,149.333-117.333
				S402.344,0,320,0z M330.667,170.667h-64c-5.896,0-10.667-4.771-10.667-10.667c0-5.896,4.771-10.667,10.667-10.667h64
				c5.896,0,10.667,4.771,10.667,10.667C341.333,165.896,336.563,170.667,330.667,170.667z M373.333,106.667H266.667
				C260.771,106.667,256,101.896,256,96c0-5.896,4.771-10.667,10.667-10.667h106.667C379.229,85.333,384,90.104,384,96
				C384,101.896,379.229,106.667,373.333,106.667z"/>
			<path d="M114.812,216.354c-1.99-1.938-4.656-3.021-7.438-3.021h-4.719c-16.896,0-30.646,13.75-30.646,30.646
				c0,4.76,1.125,9.51,3.292,13.802l19.677,38.406l-1.5,2.458l-40.167,0.01c-23.51,0.01-42.646,19.156-42.646,42.667v3.146
				l-4.938,7.948C0.677,360.021,0,368.25,0,375.302c0,7.844,2.51,15.76,7.083,22.604l34.677,55.667
				c6.563,9.865,17.573,15.76,29.438,15.76h67.469c41.167,0,74.667-33.5,74.667-74.667v-50.99c0-20.052-8.24-39.573-22.615-53.542
				L114.812,216.354z"/>
			<path d="M309.333,298.667h-42.667c-17.646,0-32,14.354-32,32v106.667c0,17.646,14.354,32,32,32h42.667c17.646,0,32-14.354,32-32
				V330.667C341.333,313.021,326.979,298.667,309.333,298.667z"/>
		</g>
	</g>
</g>
<g>
</g>
<g>
</g>
<g>
</g>
<g>
</g>
<g>
</g>
<g>
</g>
<g>
</g>
<g>
</g>
<g>
</g>
<g>
</g>
<g>
</g>
<g>
</g>
<g>
</g>
<g>
</g>
<g>
</g>
</svg>
