<?xml version="1.0" encoding="utf-8"?>
<!-- Generator: Adobe Illustrator 27.3.1, SVG Export Plug-In . SVG Version: 6.00 Build 0)  -->
<svg version="1.1" id="Ebene_1" xmlns="http://www.w3.org/2000/svg" xmlns:xlink="http://www.w3.org/1999/xlink" x="0px" y="0px"
	 viewBox="0 0 99.2 99.2" style="enable-background:new 0 0 99.2 99.2;" xml:space="preserve">
<style type="text/css">
	.st0{display:none;}
	.st1{display:inline;fill:#2B2B2B;}
	.st2{fill:#BDBDBD;}
</style>
<g id="Ebene_1_00000158728507983781736310000006799230677477387443_" class="st0">
	<rect class="st1" width="99.2" height="99.2"/>
</g>
<g id="Ebene_2_00000102527023171336743690000008956548960717415329_">
	<g>
		<path class="st2" d="M68.3,64.2L39,18.2h0L35,12c-1.3-1.7-2.8-2-3.5-2h-0.4c0,0-0.1,0-0.1,0l0,0h-7.3H9.3c-4.4,0-7.1,4.8-4.7,8.6
			l42.7,68.1c1.4,2.2,3.8,3,6,2.4c0.1,0,0.2-0.1,0.3-0.1c0.1,0,0.2-0.1,0.4-0.1c0.7-0.3,1.5-0.8,2.1-1.7l12.2-18.4l0,0
			C69.5,66.6,68.6,64.7,68.3,64.2z M56.8,71.3l-5,7.1L14.1,18.2H29l30.9,48.4L56.8,71.3z"/>
		<path class="st2" d="M94.7,23l-6.4-10c-1.1-1.6-3.5-3-5.5-3h-0.6H80h-2.1h-1.6h-0.8h-1.9H62.1c-4.4,0-7,4.9-4.7,8.6l4.3,6.9h0
			L76,47.8c1.3,1.7,5.3,1.3,6.9-1.1l7.2-10.9l3.4-5.1c0,0,0,0,0,0l0.4-0.6l0,0l0,0l0.7-1C95.7,27.4,95.8,24.7,94.7,23z M86.5,27.1
			l-7,10.6l-3.2-5l-5.5-8.6L67,18.2h8.4h6.3l5.2,8.2l-0.1,0.1C86.7,27.1,86.8,26.5,86.5,27.1z"/>
		<polygon class="st2" points="14.1,18.2 18.5,25.2 8.7,25.2 7.6,21.7 11.9,17.2 		"/>
		<polygon class="st2" points="51.8,78.4 47.5,71.6 37.8,71.6 44.2,81.8 49.6,81.8 		"/>
		<path class="st2" d="M68.3,64.2l-6.6-10.3l0,0c2.2,6.1-1.8,12.7-1.8,12.7l-3.1,4.7l-5,7.1c-3.4,4.8-9.8,0-9.8,0l0,0l5.2,8.3
			c1.4,2.2,3.8,3,6,2.4c0.1,0,0.2-0.1,0.3-0.1c0.1,0,0.2-0.1,0.4-0.1c0.7-0.3,1.5-0.8,2.1-1.7l12.2-18.4l0,0
			C69.5,66.6,68.6,64.7,68.3,64.2z"/>
		<polygon class="st2" points="59.9,66.6 55.5,73.2 60.9,79.9 65.3,73.3 		"/>
		<path class="st2" d="M29,18.2l30.9,48.4c0,0,3.9,6.5,2.4,11.1l5.9-8.9c0,0,1.9-2.7-0.7-5.9L37.6,16L29,18.2z"/>
		<polygon class="st2" points="29,18.2 33.6,25.4 43.6,25.4 38.6,17.6 		"/>
		<path class="st2" d="M14.1,18.2H29c0,0,8.5-0.4,12.6,4.3l0,0L39,18.2h0L35,12c-1.3-1.7-2.8-2-3.5-2h-0.4c0,0-0.1,0-0.1,0l0,0h-7.3
			H9.3c-4.4,0-7.1,4.8-4.7,8.6l4.2,6.7C8.7,25.2,7.8,18.2,14.1,18.2z"/>
		<polygon class="st2" points="81.3,40.5 76.8,33.5 67,33.6 73.5,43.8 78.8,43.8 		"/>
		<path class="st2" d="M94.7,23l-2.2-3.5l0,0l-5.6,6.9l-0.1,0.1c-0.2,0.5,0,0-0.3,0.5l-7,10.6c0,0-4.6,5.4-9,1.6l5.4,8.5
			c1.3,1.7,5.3,1.3,6.9-1.1l7.2-10.9l3.4-5.1c0,0,0,0,0,0l0.4-0.6l0,0l0.7-1C95.7,27.4,95.8,24.7,94.7,23z"/>
		<polygon class="st2" points="87.8,25.1 83.2,32 88.4,38.3 92.8,31.7 		"/>
		<path class="st2" d="M81.7,18.2l5.2,8.2c0,0,3.9,6.2,1.6,11.7l6.5-9.6c0,0,1.6-3-1-6.4l-4.5-7.1L81.7,18.2z"/>
		<polygon class="st2" points="79.6,14.9 84.1,22.1 94.1,22.1 89.1,14.3 		"/>
		<polygon class="st2" points="66.3,17 70.7,24 61,24 59.8,20.5 64.1,16 		"/>
		<g>
			<path class="st2" d="M61.7,25.4C61.7,25.4,61.7,25.4,61.7,25.4L61.7,25.4L61.7,25.4z"/>
			<path class="st2" d="M67,18.2h8.4h6.3c8.1,0,11.5,2.5,11.5,2.5l0,0L88.3,13c-1.1-1.6-3.5-3-5.5-3h-0.6H80h-2.1h-1.6h-0.8h-1.9
				H62.1c-4.4,0-7,4.8-4.7,8.6l4.3,6.9C59,17.7,67,18.2,67,18.2z"/>
		</g>
	</g>
	<g id="Ebene_3">
	</g>
</g>
</svg>
