<svg fill='#eeeeee' id="Layer_1" enable-background="new 0 0 512 512" height="512" viewBox="0 0 512 512" width="512" xmlns="http://www.w3.org/2000/svg"><path clip-rule="evenodd" d="m117.114 253.202h277.771l-24.773-164.467h-39.401c-17.625 0-32-14.375-32-32v-23.496h79.606c23.617 0 37.529 15.33 42.942 32.993l57.344 187.13c18.66 1.732 33.396 17.547 33.396 36.64v151.96c0 20.24-16.56 36.8-36.8 36.8h-142.945c-8.976 0-16.63-5.236-19.883-13.602l-36.488-93.842c-3.253-8.366-10.907-13.602-19.883-13.602s-16.63 5.237-19.883 13.602l-36.488 93.842c-3.253 8.366-10.908 13.602-19.883 13.602h-142.946c-20.24 0-36.8-16.56-36.8-36.8v-151.96c0-19.092 14.736-34.908 33.396-36.64l57.344-187.13c5.412-17.662 19.325-32.993 42.942-32.993h79.606v23.496c0 17.625-14.375 32-32 32h-39.401zm-73.543 54.237v117.085c0 5.875 4.791 10.666 10.667 10.666h102.998c4.488 0 8.315-2.618 9.941-6.801l28.331-72.862c9.764-25.111 33.55-41.383 60.492-41.383 26.943 0 50.728 16.272 60.492 41.383l28.331 72.862c1.626 4.183 5.453 6.801 9.941 6.801h102.999c5.875 0 10.667-4.791 10.667-10.666v-117.085c0-5.875-4.791-10.667-10.667-10.667h-403.525c-5.876.001-10.667 4.792-10.667 10.667z" fill-rule="evenodd"/></svg>