<svg fill='#eeeeee' id="Layer_1" enable-background="new 0 0 512 512" height="512" viewBox="0 0 512 512" width="512" xmlns="http://www.w3.org/2000/svg"><path clip-rule="evenodd" d="m120.605 97.761c-26.95 0-48.869-21.931-48.869-48.881 0-26.96 21.919-48.88 48.869-48.88h319.66v30.594h-311.385c-10.092 0-18.286 8.184-18.286 18.286 0 10.092 8.194 18.286 18.286 18.286h311.384v30.594h-319.659zm152.377 113.415 83.911 210.427c3.736 9.38-.836 20.022-10.216 23.758-2.221.89-4.518 1.305-6.766 1.305-7.273 0-14.141-4.356-16.998-11.51l-23.769-59.635h-86.288l-23.769 59.635c-3.752 9.37-14.378 13.941-23.758 10.205-9.386-3.736-13.957-14.378-10.221-23.758l83.911-210.427c2.766-6.96 9.493-11.521 16.982-11.521 7.487.001 14.215 4.562 16.981 11.521zm150.323 300.824c9.359 0 16.96-7.607 16.96-16.971v-360.696h-319.66c-18.162 0-35.015-5.704-48.869-15.408v348.49c0 24.589 19.99 44.584 44.573 44.584h306.996zm-167.305-244.687-28.562 71.635h57.123z" fill-rule="evenodd"/></svg>