<svg fill='#eeeeee' id="Layer_1" enable-background="new 0 0 512 512" height="512" viewBox="0 0 512 512" width="512" xmlns="http://www.w3.org/2000/svg"><path clip-rule="evenodd" d="m62.908 453.89c6.221-10.401 37.193-19.846 46.101-56.68h293.981c8.908 36.834 39.88 46.279 46.101 56.68h-144.584v9.602c0 26.679-21.828 48.508-48.507 48.508-26.68 0-48.507-21.827-48.507-48.507v-9.602h-144.585zm248.112-374.526c0 .531-.025 1.055-.073 1.574 49.955 20.973 89.638 71.88 89.638 152.789v129.351h-289.171v-129.351c0-80.908 39.683-131.821 89.638-152.789-.048-.518-.073-1.043-.073-1.574v-24.343c0-15.149 6.185-28.908 16.149-38.872s23.723-16.149 38.872-16.149 28.908 6.185 38.872 16.149 16.149 23.723 16.149 38.872v24.343zm-34.133-7.925v-16.418c0-5.726-2.355-10.944-6.149-14.739-3.794-3.794-9.012-6.149-14.738-6.149s-10.945 2.355-14.739 6.149-6.149 9.013-6.149 14.739v16.418c13.84-2.039 27.936-2.041 41.775 0z" fill-rule="evenodd"/></svg>