<svg fill='#eeeeee' id="Layer_1" enable-background="new 0 0 512 512" height="512" viewBox="0 0 512 512" width="512" xmlns="http://www.w3.org/2000/svg"><path clip-rule="evenodd" d="m37.647 122.622h62.545l9.913-40.2c3.57-14.478 16.157-24.338 31.069-24.338h84.935c14.912 0 27.499 9.86 31.069 24.338l9.913 40.2h99.043v-8.505c0-8.182 6.694-14.875 14.875-14.875h38.251c8.181 0 14.875 6.695 14.875 14.875v8.505h40.217c20.706 0 37.647 16.941 37.647 37.647v256c0 20.706-16.941 37.647-37.647 37.647h-436.705c-20.706 0-37.647-16.941-37.647-37.647v-256c0-20.706 16.941-37.647 37.647-37.647zm216.796 165.647c0-39.103-31.699-70.802-70.802-70.802s-70.802 31.699-70.802 70.802 31.699 70.802 70.802 70.802 70.802-31.699 70.802-70.802zm-70.802-103.799c-57.326 0-103.799 46.472-103.799 103.798s46.472 103.799 103.799 103.799c57.326 0 103.798-46.472 103.798-103.799s-46.472-103.798-103.798-103.798zm188.527 17.067h55.933c9.425 0 17.066-7.641 17.066-17.066 0-9.426-7.641-17.067-17.066-17.067h-55.933c-9.426 0-17.066 7.641-17.066 17.067s7.641 17.066 17.066 17.066z" fill-rule="evenodd"/></svg>