<svg fill='#eeeeee' id="Layer_1" enable-background="new 0 0 512 512" height="512" viewBox="0 0 512 512" width="512" xmlns="http://www.w3.org/2000/svg"><path clip-rule="evenodd" d="m389.868 375.713c67.173 0 122.132-54.959 122.132-122.132 0-69.221-55.988-122.132-124.55-122.132 0-72.296-59.153-131.449-131.45-131.449-72.298 0-131.45 59.153-131.45 131.45-68.515 0-124.55 52.866-124.55 122.132 0 67.172 54.959 122.131 122.132 122.131h116.802v69.039h-16.557v16.557h-205.31c-9.426 0-17.067 7.641-17.067 17.067s7.641 17.067 17.066 17.067h205.309v16.557h67.248v-16.557h205.309c9.425 0 17.067-7.641 17.067-17.067s-7.641-17.066-17.067-17.066h-205.308v-16.557h-16.558v-69.039h116.802z" fill-rule="evenodd"/></svg>