<svg fill='#eeeeee' id="Layer_1" enable-background="new 0 0 512 512" height="512" viewBox="0 0 512 512" width="512" xmlns="http://www.w3.org/2000/svg"><path clip-rule="evenodd" d="m442.079 150.5v34.767h-122.08v-28.766c0-28.934-19.316-53.441-45.716-61.323v-95.178h17.294c82.995 0 150.502 67.506 150.502 150.5zm-150.501 361.5h-71.156c-82.995 0-150.501-67.517-150.501-150.511v-139.649h122.079v28.777c0 35.289 28.707 64.002 63.996 64.002 35.295 0 64.002-28.713 64.002-64.002v-28.777h122.079v139.649c.002 82.994-67.505 150.511-150.499 150.511zm-71.156-512h17.289v95.178c-26.4 7.882-45.71 32.389-45.71 61.323v28.766h-122.08v-34.767c0-82.994 67.507-150.5 150.501-150.5zm35.575 129.072c-15.116 0-27.424 12.302-27.424 27.429v94.116c0 15.122 12.307 27.429 27.424 27.429 15.122 0 27.429-12.307 27.429-27.429v-94.116c.001-15.127-12.307-27.429-27.429-27.429z" fill-rule="evenodd"/></svg>