<svg fill='#eeeeee' id="Layer_1" enable-background="new 0 0 512 512" height="512" viewBox="0 0 512 512" width="512" xmlns="http://www.w3.org/2000/svg"><path clip-rule="evenodd" d="m403.82 263.069c.442-9.389 8.411-16.642 17.8-16.2s16.642 8.411 16.2 17.8c-2.148 45.383-20.938 87.954-53.068 120.083s-74.701 50.92-120.084 53.068c-9.389.442-17.358-6.811-17.8-16.2s6.811-17.358 16.2-17.8c36.898-1.746 71.441-17.092 97.55-43.201 26.11-26.109 41.456-60.653 43.202-97.55zm-295.64-14.138c1.747-36.898 17.092-71.44 43.202-97.55s60.652-41.454 97.55-43.201c9.389-.442 16.642-8.411 16.2-17.8s-8.412-16.642-17.8-16.2c-45.383 2.149-87.953 20.939-120.084 53.068-32.13 32.13-50.919 74.7-53.068 120.083-.442 9.389 6.811 17.358 16.2 17.8 9.388.442 17.358-6.811 17.8-16.2zm147.82 81.106c40.889 0 74.036-33.147 74.036-74.036s-33.147-74.036-74.036-74.036-74.036 33.147-74.036 74.036c0 40.888 33.147 74.036 74.036 74.036zm256-74.037c0-141.385-114.615-256-256-256s-256 114.615-256 256 114.615 256 256 256 256-114.615 256-256z" fill-rule="evenodd"/></svg>