<svg fill='#eeeeee' id="Layer_1" enable-background="new 0 0 512 512" height="512" viewBox="0 0 512 512" width="512" xmlns="http://www.w3.org/2000/svg"><path clip-rule="evenodd" d="m75.415 485.544h436.585v-459.088h-436.585zm-75.415-459.088h38.866v459.088h-38.866zm293.73 388.983c-42.414-.006-82.787-16.642-112.801-46.645-62.226-62.203-62.207-163.375-.003-225.587 30.098-30.102 70.239-46.712 112.806-46.712 42.542 0 82.676 16.627 112.756 46.712 62.204 62.212 62.223 163.384-.003 225.587-29.992 29.982-70.36 46.65-112.755 46.645zm-32.651-126.824c-8.673-8.682-13.505-20.338-13.505-32.613 0-12.28 4.826-23.928 13.499-32.617 8.691-8.707 20.363-13.512 32.659-13.512 12.287 0 23.882 4.809 32.581 13.484 8.717 8.694 13.527 20.338 13.527 32.645 0 12.302-4.815 23.954-13.533 32.64-8.7 8.669-20.29 13.492-32.576 13.492-12.293 0-23.96-4.818-32.652-13.519z" fill-rule="evenodd"/></svg>