<svg fill='#eeeeee' id="Layer_1" enable-background="new 0 0 512 512" height="512" viewBox="0 0 512 512" width="512" xmlns="http://www.w3.org/2000/svg"><path clip-rule="evenodd" d="m389.868 375.713c67.173 0 122.132-54.959 122.132-122.132 0-69.221-55.988-122.131-124.55-122.131 0-72.297-59.153-131.45-131.45-131.45s-131.45 59.153-131.45 131.45c-68.515 0-124.55 52.865-124.55 122.132 0 67.172 54.959 122.132 122.132 122.132h116.802 34.133 116.801zm-150.935 0v-178.289c0-9.426 7.641-17.067 17.066-17.067 9.426 0 17.067 7.641 17.067 17.067v178.289 78.022l45.343-45.342c6.664-6.664 17.469-6.664 24.133 0s6.664 17.469 0 24.133l-74.476 74.476c-6.664 6.664-17.469 6.664-24.133 0l-74.476-74.476c-6.664-6.664-6.664-17.469 0-24.133s17.469-6.664 24.133 0l45.343 45.343z" fill-rule="evenodd"/></svg>