<svg fill='#eeeeee' id="Layer_1" enable-background="new 0 0 512 512" height="512" viewBox="0 0 512 512" width="512" xmlns="http://www.w3.org/2000/svg"><path clip-rule="evenodd" d="m83.376 0c53.901 0 127.071 89.07 127.071 231.847v180.128c0 17.94-13.361 32.855-30.641 35.312v47.647c0 9.426-7.641 17.066-17.067 17.066s-17.066-7.641-17.066-17.066v-47.647c-17.279-2.456-30.641-17.372-30.641-35.312v-111.559c0-19.083-15.001-34.771-34.064-35.629-44.933-2.024-80.968-60.512-80.968-132.367 0-73.133 29.476-132.42 83.376-132.42zm282.951 447.287v47.647c0 9.426-7.641 17.066-17.067 17.066s-17.066-7.641-17.066-17.066v-47.647c-17.279-2.456-30.64-17.372-30.64-35.312v-180.128c0-142.777 73.17-231.847 127.07-231.847s83.376 59.287 83.376 132.42c0 71.855-36.035 130.343-80.968 132.366-19.063.858-34.064 16.546-34.064 35.629v111.559c0 17.94-13.362 32.857-30.641 35.313zm16.127-250.709c1.767-15.82 4.817-31.676 9.394-46.928 4.163-13.873 9.547-27.135 16.326-39.264 4.943-8.847 13.023-19.954 20.234-27.117 6.664-6.627 6.694-17.403.067-24.067-6.628-6.664-17.403-6.694-24.067-.066-9.754 9.688-19.271 22.735-25.966 34.717-8.111 14.515-14.454 30.051-19.259 46.064-5.162 17.2-8.601 35.083-10.594 52.928-1.031 9.352 5.715 17.77 15.067 18.8 9.35 1.03 17.767-5.715 18.798-15.067zm-219.041-3.734c-1.993-17.845-5.433-35.729-10.594-52.928-4.805-16.013-11.148-31.549-19.259-46.064-6.695-11.982-16.213-25.029-25.966-34.717-6.664-6.628-17.439-6.598-24.067.066s-6.598 17.44.066 24.067c7.211 7.163 15.291 18.27 20.234 27.117 6.779 12.13 12.162 25.391 16.326 39.264 4.577 15.252 7.627 31.108 9.394 46.928 1.031 9.352 9.448 16.097 18.8 15.067s16.097-9.448 15.066-18.8z" fill-rule="evenodd"/></svg>