<svg fill='#eeeeee' id="Layer_1" enable-background="new 0 0 512 512" height="512" viewBox="0 0 512 512" width="512" xmlns="http://www.w3.org/2000/svg"><path clip-rule="evenodd" d="m46.919 130.334v-90.428c0-9.425 7.641-17.067 17.067-17.067s17.067 7.641 17.067 17.067v90.428c27.052 7.469 46.919 32.253 46.919 61.68s-19.867 54.212-46.919 61.68v218.4c0 9.425-7.641 17.066-17.067 17.066s-17.067-7.641-17.067-17.066v-218.4c-27.052-7.468-46.919-32.252-46.919-61.68s19.867-54.211 46.919-61.68zm226.147 251.332c27.052-7.469 46.919-32.253 46.919-61.68 0-29.428-19.867-54.212-46.919-61.681v-218.399c0-9.425-7.641-17.067-17.067-17.067-9.425 0-17.066 7.641-17.066 17.067v218.399c-27.052 7.469-46.919 32.253-46.919 61.681 0 29.427 19.867 54.211 46.919 61.68v90.428c0 9.425 7.641 17.066 17.066 17.066 9.426 0 17.067-7.641 17.067-17.066zm157.882-251.332c-27.052 7.469-46.919 32.253-46.919 61.68s19.867 54.212 46.919 61.68v218.4c0 9.425 7.641 17.066 17.067 17.066 9.425 0 17.066-7.641 17.066-17.066v-218.4c27.052-7.469 46.919-32.253 46.919-61.68s-19.867-54.211-46.919-61.68v-90.428c0-9.425-7.641-17.067-17.066-17.067-9.426 0-17.067 7.641-17.067 17.067z" fill-rule="evenodd"/></svg>