<svg fill='#eeeeee' id="Layer_1" enable-background="new 0 0 512 512" height="512" viewBox="0 0 512 512" width="512" xmlns="http://www.w3.org/2000/svg"><path clip-rule="evenodd" d="m256 0c141.385 0 256 114.615 256 256 0 94.841-51.577 177.633-128.209 221.867h111.142c9.426 0 17.067 7.641 17.067 17.067s-7.641 17.067-17.067 17.067h-238.933c-.149 0-.298-.002-.446-.006-141.179-.242-255.554-114.759-255.554-255.995 0-141.385 114.615-256 256-256zm-191.053 256c0 34.349 27.845 62.194 62.194 62.194s62.194-27.846 62.194-62.194-27.845-62.194-62.194-62.194-62.194 27.845-62.194 62.194zm191.053 191.054c34.349 0 62.194-27.845 62.194-62.194s-27.845-62.194-62.194-62.194c-34.348 0-62.194 27.845-62.194 62.194 0 34.348 27.845 62.194 62.194 62.194zm191.054-191.054c0-34.349-27.846-62.194-62.194-62.194-34.349 0-62.194 27.845-62.194 62.194s27.845 62.194 62.194 62.194c34.348 0 62.194-27.845 62.194-62.194zm-191.054-191.054c-34.349 0-62.194 27.846-62.194 62.194 0 34.349 27.846 62.194 62.194 62.194s62.194-27.846 62.194-62.194-27.845-62.194-62.194-62.194z" fill-rule="evenodd"/></svg>