<svg fill='#eeeeee' id="Layer_1" enable-background="new 0 0 512 512" height="512" viewBox="0 0 512 512" width="512" xmlns="http://www.w3.org/2000/svg"><path clip-rule="evenodd" d="m439.412 198.096 72.588-72.589-28.522-28.521-31.089 31.089c-6.664 6.664-17.469 6.664-24.133 0s-6.664-17.469 0-24.133l31.089-31.089-20.197-20.197-31.089 31.089c-6.664 6.664-17.469 6.664-24.133 0s-6.664-17.469 0-24.133l31.089-31.089-28.522-28.523-72.588 72.588zm-180.154-131.888 186.534 186.534-249.662 249.662c-12.795 12.794-33.665 12.794-46.46 0l-140.074-140.074c-12.795-12.795-12.795-33.665 0-46.46zm-132.905 239.876c-21.97 21.97-21.97 57.591 0 79.562 21.971 21.97 57.592 21.97 79.562 0 21.971-21.971 21.971-57.592 0-79.562-21.97-21.971-57.591-21.971-79.562 0z" fill-rule="evenodd"/></svg>