<svg fill='#eeeeee' id="Layer_1" enable-background="new 0 0 512 512" height="512" viewBox="0 0 512 512" width="512" xmlns="http://www.w3.org/2000/svg"><path clip-rule="evenodd" d="m404.419 465.952c0 7.75-6.298 14.052-14.048 14.052h-15.471c-7.75 0-14.047-6.302-14.047-14.052v-159.019c0-7.75 6.297-14.052 14.047-14.052h15.472c7.75 0 14.048 6.302 14.048 14.052v159.019zm-296.838-159.019c0-7.75 6.302-14.052 14.052-14.052h15.468c7.75 0 14.047 6.302 14.047 14.052v159.018c0 7.75-6.297 14.052-14.047 14.052h-15.468c-7.75 0-14.052-6.302-14.052-14.052zm404.421-50.931c0-68.115-26.703-132.329-75.19-180.811-48.483-48.487-112.701-75.191-180.812-75.191-68.12 0-132.329 26.704-180.812 75.186-48.487 48.487-75.19 112.701-75.19 180.816v147.278c0 44.27 35.52 80.374 79.563 81.365 7.18 16.105 23.326 27.355 42.072 27.355h15.468c25.401 0 46.049-20.656 46.049-46.049v-159.018c0-25.397-20.647-46.053-46.049-46.053h-15.468c-18.746 0-34.892 11.255-42.072 27.354-17.864.401-34.312 6.571-47.563 16.727v-48.959c.001-123.513 100.489-224.001 224.002-224.001s224.002 100.488 224.002 224.001v48.959c-13.25-10.156-29.699-16.326-47.563-16.727-7.18-16.1-23.326-27.354-42.067-27.354h-15.472c-25.397 0-46.048 20.656-46.048 46.053v159.018c0 25.392 20.651 46.049 46.048 46.049h15.472c18.741 0 34.888-11.25 42.067-27.355 44.044-.991 79.563-37.095 79.563-81.365z" fill-rule="evenodd"/></svg>