<svg fill='#eeeeee' id="Layer_1" enable-background="new 0 0 512 512" height="512" viewBox="0 0 512 512" width="512" xmlns="http://www.w3.org/2000/svg"><path clip-rule="evenodd" d="m392.391 157.818c-6.664-6.664-6.664-17.469 0-24.133s17.469-6.664 24.133 0c23.395 23.395 35.092 54.056 35.092 84.716s-11.697 61.32-35.092 84.715c-6.664 6.664-17.469 6.664-24.133 0s-6.664-17.469 0-24.133c16.728-16.728 25.092-38.655 25.092-60.582 0-21.928-8.364-43.855-25.092-60.583zm-108.391-38.219c0 15.022-12.178 27.2-27.2 27.2s-27.2-12.178-27.2-27.2 12.178-27.2 27.2-27.2c15.023 0 27.2 12.178 27.2 27.2zm42.803-119.599h-140.005c-18.699 0-33.998 15.3-33.998 33.999v402.801h27.034v41.067h-28.634c-9.425 0-17.066 7.641-17.066 17.067 0 9.425 7.641 17.066 17.066 17.066h209.6c9.425 0 17.066-7.641 17.066-17.066 0-9.426-7.641-17.067-17.066-17.067h-27.033v-41.067h27.034v-402.801c0-18.699-15.299-33.999-33.998-33.999zm-112.836 436.8h85.667v41.067h-85.667zm94.033-155.601c0 28.277-22.923 51.2-51.2 51.2-28.276 0-51.199-22.923-51.199-51.2s22.923-51.2 51.199-51.2c28.277 0 51.2 22.923 51.2 51.2zm127.089-166.079c28.519 28.519 42.778 65.899 42.778 103.279s-14.259 74.761-42.778 103.279c-6.664 6.664-6.664 17.469 0 24.134 6.664 6.664 17.469 6.664 24.134-.001 35.184-35.183 52.777-81.298 52.777-127.411s-17.593-92.228-52.778-127.413c-6.664-6.664-17.469-6.664-24.133 0s-6.664 17.469 0 24.133zm-382.311-24.133c6.665-6.664 17.47-6.664 24.134 0s6.664 17.469 0 24.133c-28.519 28.519-42.779 65.9-42.779 103.28s14.259 74.761 42.778 103.279c6.665 6.665 6.665 17.47.001 24.134s-17.469 6.664-24.133 0c-35.186-35.185-52.779-81.3-52.779-127.413s17.593-92.228 52.778-127.413zm42.697 42.698c-23.395 23.395-35.092 54.056-35.092 84.716s11.697 61.32 35.092 84.715c6.664 6.664 17.469 6.664 24.134 0 6.664-6.664 6.664-17.469 0-24.133-16.728-16.728-25.092-38.655-25.092-60.582s8.364-43.855 25.092-60.582c6.664-6.664 6.664-17.469 0-24.133-6.664-6.665-17.469-6.665-24.134-.001z" fill-rule="evenodd"/></svg>