<svg fill='#eeeeee' id="Layer_1" enable-background="new 0 0 512 512" height="512" viewBox="0 0 512 512" width="512" xmlns="http://www.w3.org/2000/svg"><path clip-rule="evenodd" d="m29.554 257.126c-6.811 6.48-17.587 6.211-24.067-.6s-6.211-17.587.6-24.066l238.18-227.771c3.295-3.134 7.518-4.689 11.733-4.688 4.236.001 8.464 1.572 11.735 4.692l238.176 227.767c6.811 6.48 7.08 17.255.6 24.066s-17.255 7.08-24.066.6l-36.052-34.476-.821 264.407c-.043 13.718-11.225 24.943-24.943 24.943h-76.876c-13.719 0-24.943-11.224-24.943-24.943v-130.204c0-13.719-11.225-24.943-24.943-24.943h-76.876c-13.718 0-24.943 11.225-24.943 24.943v130.204c0 13.719-11.224 24.943-24.943 24.943h-76.876c-13.717 0-24.985-11.224-24.943-24.943l.823-264.888z" fill-rule="evenodd"/></svg>