<svg width="16" height="16" viewBox="0 0 16 16" fill="none" xmlns="http://www.w3.org/2000/svg">
<path fill-rule="evenodd" clip-rule="evenodd" d="M1 0C0.447715 0 0 0.447715 0 1V11C0 11.5523 0.447715 12 1 12H11C11.5523 12 12 11.5523 12 11V1C12 0.447715 11.5523 0 11 0H1ZM6.96005 2.0392L9.9923 8.88511C10.0027 8.90902 10.0026 8.93816 9.9917 8.96176C9.98079 8.98535 9.96091 9 9.93933 9H2.06053C2.03896 9 2.01896 8.98535 2.00817 8.9616C1.99738 8.93801 1.99726 8.90855 2.00792 8.8848L4.21253 3.95219C4.2232 3.92845 4.24284 3.91349 4.26441 3.91318C4.28623 3.9141 4.30599 3.92706 4.31714 3.9505L5.10611 5.61351L6.85569 2.03642C6.86708 2.01314 6.8866 1.99926 6.90854 2.00003C6.92999 2.00065 6.94951 2.01545 6.96005 2.0392Z" fill="#EEEEEE"/>
<path d="M13.5 2.5V12.5C13.5 13.0523 13.0523 13.5 12.5 13.5H2.5" stroke="#EEEEEE" stroke-linecap="round"/>
<path d="M15.5 4.5V14.5C15.5 15.0523 15.0523 15.5 14.5 15.5H4.5" stroke="#EEEEEE" stroke-linecap="round"/>
</svg>
