<svg fill='#eeeeee' id="Layer_1" enable-background="new 0 0 512 512" height="512" viewBox="0 0 512 512" width="512" xmlns="http://www.w3.org/2000/svg"><path clip-rule="evenodd" d="m361.727 232.53 150.273-104.341v260.857zm-322.837 195.622h434.219c7.413 0 14.362-2.086 20.259-5.714l-162.067-168.786-64.869 45.042c-3.137 2.183-6.787 3.267-10.431 3.267s-7.289-1.083-10.42-3.267l-64.88-45.042-162.07 168.786c5.898 3.628 12.841 5.714 20.259 5.714zm-38.89-39.117v-260.846l150.273 104.341zm473.109-305.187h-434.219c-9.612 0-18.421 3.52-25.208 9.315l242.318 168.247 242.318-168.246c-6.787-5.796-15.602-9.316-25.209-9.316z" fill-rule="evenodd"/></svg>