<svg fill='#eeeeee' id="Layer_1" enable-background="new 0 0 512 512" height="512" viewBox="0 0 512 512" width="512" xmlns="http://www.w3.org/2000/svg"><path clip-rule="evenodd" d="m394.771 302.196c2.319-9.094 11.573-14.586 20.667-12.266 9.094 2.319 14.586 11.572 12.266 20.667-9.948 38.739-32.645 72.419-63.264 96.209-25.794 20.04-57.207 33.145-91.374 36.447v34.615h77.132c9.426 0 17.067 7.641 17.067 17.066s-7.641 17.067-17.067 17.067h-188.396c-9.425 0-17.066-7.641-17.066-17.067 0-9.425 7.641-17.066 17.066-17.066h77.132v-34.615c-34.167-3.302-65.58-16.406-91.374-36.447-30.619-23.789-53.317-57.47-63.265-96.209-2.319-9.094 3.173-18.348 12.267-20.667 9.094-2.32 18.347 3.172 20.667 12.266 8.001 31.157 26.395 58.354 51.265 77.676 24.232 18.828 54.618 30.068 87.506 30.068s63.274-11.24 87.507-30.068c24.87-19.321 43.264-46.519 51.264-77.676zm-144.526-302.196c-51.211 0-93.268 41.182-94.696 92.064h42.18c9.426 0 17.067 7.641 17.067 17.066s-7.641 17.067-17.067 17.067h-42.221v40.37h42.221c9.426 0 17.067 7.641 17.067 17.066 0 9.426-7.641 17.067-17.067 17.067h-42.221v40.37h42.221c9.426 0 17.067 7.641 17.067 17.067s-7.641 17.066-17.067 17.066h-42.18c1.428 50.881 43.485 92.063 94.696 92.063h11.509c51.211 0 93.268-41.181 94.696-92.063h-42.18c-9.426 0-17.067-7.641-17.067-17.066s7.641-17.067 17.067-17.067h42.221v-40.37h-42.221c-9.426 0-17.067-7.641-17.067-17.067 0-9.425 7.641-17.066 17.067-17.066h42.221v-40.37h-42.221c-9.426 0-17.067-7.641-17.067-17.067s7.641-17.066 17.067-17.066h42.181c-1.429-50.882-43.486-92.064-94.697-92.064z" fill-rule="evenodd"/></svg>