<svg fill='#eeeeee' id="Layer_1" enable-background="new 0 0 512 512" height="512" viewBox="0 0 512 512" width="512" xmlns="http://www.w3.org/2000/svg"><path clip-rule="evenodd" d="m426.249 221.973c-6.664 6.664-17.469 6.664-24.133 0s-6.664-17.469 0-24.133c10.818-10.818 16.227-24.996 16.227-39.175s-5.409-28.358-16.227-39.176c-6.664-6.664-6.664-17.469 0-24.133s17.469-6.664 24.133 0c17.484 17.485 26.227 40.397 26.227 63.309-.001 22.911-8.743 45.824-26.227 63.308zm-31.477 80.223c2.319-9.094 11.573-14.586 20.667-12.266 9.094 2.319 14.586 11.572 12.266 20.667-9.948 38.739-32.645 72.419-63.265 96.209-25.793 20.04-57.207 33.145-91.374 36.447v34.615h77.132c9.426 0 17.067 7.641 17.067 17.066 0 9.426-7.641 17.067-17.067 17.067h-188.396c-9.425 0-17.066-7.641-17.066-17.067 0-9.425 7.641-17.066 17.066-17.066h77.132v-34.615c-34.166-3.302-65.58-16.406-91.374-36.447-30.62-23.789-53.317-57.47-63.264-96.209-2.319-9.094 3.172-18.348 12.267-20.667 9.094-2.32 18.347 3.172 20.667 12.266 8.001 31.157 26.395 58.354 51.264 77.676 24.232 18.828 54.618 30.068 87.506 30.068s63.274-11.24 87.507-30.068c24.87-19.322 43.264-46.519 51.265-77.676zm-144.527-302.196c-51.211 0-93.268 41.182-94.696 92.064h42.18c9.426 0 17.067 7.641 17.067 17.066s-7.641 17.067-17.067 17.067h-42.221v40.37h42.221c9.426 0 17.067 7.641 17.067 17.066 0 9.426-7.641 17.067-17.067 17.067h-42.221v40.37h42.221c9.426 0 17.067 7.641 17.067 17.067s-7.641 17.066-17.067 17.066h-42.18c1.428 50.881 43.485 92.063 94.696 92.063h11.51c51.211 0 93.267-41.181 94.696-92.063h-42.18c-9.426 0-17.066-7.641-17.066-17.066s7.641-17.067 17.066-17.067h42.221v-40.37h-42.222c-9.426 0-17.066-7.641-17.066-17.067 0-9.425 7.641-17.066 17.066-17.066h42.221v-40.37h-42.221c-9.426 0-17.066-7.641-17.066-17.067s7.641-17.066 17.066-17.066h42.18c-1.428-50.882-43.485-92.064-94.695-92.064zm-140.361 197.84c6.664 6.664 6.664 17.469 0 24.133s-17.469 6.664-24.133 0c-17.484-17.484-26.226-40.397-26.226-63.308 0-22.912 8.742-45.824 26.226-63.309 6.664-6.664 17.469-6.664 24.133 0s6.664 17.469 0 24.133c-10.818 10.818-16.227 24.996-16.227 39.176.001 14.178 5.41 28.357 16.227 39.175zm-66.224-144.575c-29.107 29.106-43.66 67.254-43.66 105.399 0 38.146 14.553 76.293 43.66 105.4 6.664 6.664 17.469 6.664 24.133 0s6.664-17.469-.001-24.134c-22.439-22.439-33.66-51.852-33.66-81.266s11.22-58.826 33.66-81.266c6.664-6.664 6.664-17.469 0-24.134-6.663-6.664-17.468-6.664-24.132.001zm400.547 24.134c22.44 22.44 33.66 51.853 33.66 81.266s-11.22 58.826-33.66 81.267c-6.664 6.664-6.664 17.469 0 24.133s17.469 6.664 24.134-.001c29.106-29.106 43.659-67.254 43.659-105.4s-14.553-76.293-43.66-105.4c-6.664-6.664-17.469-6.664-24.133 0-6.664 6.665-6.664 17.47 0 24.135z" fill-rule="evenodd"/></svg>