<svg fill='#eeeeee' id="Layer_1" enable-background="new 0 0 512 512" height="512" viewBox="0 0 512 512" width="512" xmlns="http://www.w3.org/2000/svg"><path clip-rule="evenodd" d="m338.059 275.631-259.38 227.69-17.761-17.761-19.329 19.329c-9.481 9.481-24.997 9.481-34.478 0-9.481-9.481-9.481-24.997 0-34.478l19.33-19.329-17.762-17.762 227.69-259.379zm134.81-236.5c-48.086-48.086-123.707-51.853-176.109-11.303l187.412 187.412c40.551-52.402 36.783-128.023-11.303-176.109zm-12.831 200.242-187.41-187.41c-18.66 24.116-27.93 53.148-27.817 82.153l133.074 133.074c29.004.113 58.037-9.157 82.153-27.817z" fill-rule="evenodd"/></svg>