<svg fill='#eeeeee' id="Layer_1" enable-background="new 0 0 512 512" height="512" viewBox="0 0 512 512" width="512" xmlns="http://www.w3.org/2000/svg"><path clip-rule="evenodd" d="m363.657 0c19.011 0 34.565 15.555 34.565 34.565v105.861l43.566 39.966v104.414h-43.566v44.788l43.566 39.246v64.087h-371.576v-398.362c0-19.011 15.554-34.565 34.564-34.565h10.374v85.995c0 9.425 7.641 17.067 17.067 17.067 9.425 0 17.067-7.641 17.067-17.067v-85.995h33.867v85.995c0 9.425 7.641 17.067 17.067 17.067s17.066-7.641 17.066-17.067v-85.995h33.867v85.995c0 9.425 7.641 17.067 17.067 17.067 9.425 0 17.067-7.641 17.067-17.067v-85.995h33.867v85.995c0 9.425 7.641 17.067 17.067 17.067s17.067-7.641 17.067-17.067v-85.995zm78.132 467.061v10.374c0 19.01-15.555 34.565-34.565 34.565h-302.448c-19.011 0-34.565-15.554-34.565-34.565v-10.374z" fill-rule="evenodd"/></svg>