<svg fill='#eeeeee' id="Layer_1" enable-background="new 0 0 512 512" height="512" viewBox="0 0 512 512" width="512" xmlns="http://www.w3.org/2000/svg"><path clip-rule="evenodd" d="m0 15.688h512v362.21h-238.933v45.818c20.874 1.375 40.64 5.234 57.856 11.07 23.146 7.845 42.06 19.496 53.602 33.838 5.891 7.327 4.727 18.042-2.6 23.933s-18.042 4.727-23.933-2.6c-7.384-9.174-20.827-17.083-38.003-22.905-18.343-6.217-40.496-9.763-63.99-9.763-23.796 0-45.783 3.592-63.879 9.725-17.426 5.906-30.834 13.898-38.114 22.943-5.891 7.327-16.606 8.491-23.933 2.6s-8.491-16.607-2.6-23.933c11.379-14.138 30.256-25.925 53.713-33.876 17.038-5.775 36.7-9.659 57.746-11.036v-45.813h-238.932zm349.781 181.105-161.961-93.508v187.017z" fill-rule="evenodd"/></svg>