<svg fill='#eeeeee' id="Layer_1" enable-background="new 0 0 512 512" height="512" viewBox="0 0 512 512" width="512" xmlns="http://www.w3.org/2000/svg"><path clip-rule="evenodd" d="m75.186 207.236-75.204 51.737v-111.637l75.204-51.748zm0-156.037v-51.199h-75.205v102.947zm-75.205 408.196 75.204-51.749v104.354h-75.204zm436.834-200.422 75.204-51.737v-111.648l-75.204 51.748zm75.204-7.348v111.631l-75.204 51.749v-111.642zm-75.204-148.689v-102.936h75.204v51.199zm75.204 409.064v-104.343l-75.204 51.738v52.605zm-111.809-512h-288.419v512h288.419zm-207.079 178.638 133.997 77.359-133.997 77.368zm-117.945 184.618v-111.631l-75.204 51.737v111.642z" fill-rule="evenodd"/></svg>