<svg fill='#eeeeee' id="Layer_1" enable-background="new 0 0 512 512" height="512" viewBox="0 0 512 512" width="512" xmlns="http://www.w3.org/2000/svg"><path clip-rule="evenodd" d="m161.559 438.729c0 .145-.002.289-.006.432-.233 40.267-32.943 72.839-73.265 72.839-40.466 0-73.271-32.804-73.271-73.271 0-40.466 32.804-73.27 73.271-73.27 14.862 0 28.688 4.429 40.238 12.034v-282.545c0-8.135 5.882-14.896 13.624-16.264l334.573-78.248c10.377-2.417 20.233 5.534 20.24 16.065l.018 359.62c0 .145-.002.289-.006.432-.233 40.267-32.943 72.839-73.264 72.839-40.466 0-73.27-32.804-73.27-73.271 0-40.466 32.804-73.27 73.27-73.27 14.862 0 28.688 4.429 40.237 12.033v-147.686l-302.39 70.279v201.252zm302.39-305.37v-96.055l-302.39 70.722v95.613z" fill-rule="evenodd"/></svg>