<svg fill='#eeeeee' id="Layer_1" enable-background="new 0 0 512 512" height="512" viewBox="0 0 512 512" width="512" xmlns="http://www.w3.org/2000/svg"><path clip-rule="evenodd" d="m124.9 398.997h-99.196c-14.136 0-25.704-11.567-25.704-25.703v-234.587c0-14.136 11.567-25.703 25.704-25.703h99.194l126.645-106.213c10.493-8.8 24.99-8.535 37.105-2.149 12.116 6.385 19.202 18.131 19.202 31.825v219.533 219.534c0 13.695-7.085 25.438-19.201 31.824-12.116 6.385-26.614 6.651-37.107-2.149zm248.769-64.263c-6.664 6.664-17.469 6.664-24.133 0s-6.664-17.469 0-24.133l54.6-54.6-54.6-54.599c-6.664-6.664-6.664-17.469 0-24.133s17.469-6.664 24.133 0l54.6 54.599 54.6-54.599c6.664-6.664 17.469-6.664 24.133 0s6.664 17.469 0 24.133l-54.6 54.598 54.6 54.6c6.664 6.664 6.664 17.469 0 24.133s-17.469 6.664-24.133 0l-54.6-54.6z" fill-rule="evenodd"/></svg>