<svg fill='#eeeeee' id="Layer_1" enable-background="new 0 0 512 512" height="512" viewBox="0 0 512 512" width="512" xmlns="http://www.w3.org/2000/svg"><path clip-rule="evenodd" d="m0 172.201h62.517c-17.076-8.891-28.74-26.749-28.74-47.333 0-29.455 23.878-53.333 53.333-53.333 29.456 0 53.333 23.878 53.333 53.333 0 20.585-11.663 38.442-28.739 47.333h111.937c-32.594-12.76-55.68-44.483-55.68-81.6 0-48.38 39.22-87.6 87.6-87.6s87.6 39.22 87.6 87.6c0 37.117-23.085 68.84-55.68 81.6h82.794v336.799h-370.275zm406.844 95.533 105.156-27.455v200.642l-105.156-27.389zm-211.374-20.864v61.096h100.138v-61.096z" fill-rule="evenodd"/></svg>