<svg fill='#eeeeee' id="Layer_1" enable-background="new 0 0 512 512" height="512" viewBox="0 0 512 512" width="512" xmlns="http://www.w3.org/2000/svg"><path clip-rule="evenodd" d="m108.591 67.994h69.943v160.954h-69.943zm403.409 351.833c0 13.337-10.847 24.179-24.184 24.179h-101.098v-178.486h34.972c10.108 0 18.286-8.2 18.286-18.292v-179.234h47.84c13.338 0 24.184 10.847 24.184 24.184zm-512 0c0 13.337 10.847 24.179 24.178 24.179h101.098v-178.486h-34.971c-10.098 0-18.286-8.2-18.286-18.292v-179.234h-47.84c-13.332 0-24.179 10.847-24.179 24.184zm333.461-190.879h69.948v-160.954h-69.948zm-136.641 36.572h-34.972v178.485h188.302v-178.485h-34.972c-10.108 0-18.286-8.2-18.286-18.292v-179.234h-81.787v179.235c.002 10.092-8.182 18.291-18.285 18.291z" fill-rule="evenodd"/></svg>