<svg fill='#eeeeee' id="Layer_1" enable-background="new 0 0 512 512" height="512" viewBox="0 0 512 512" width="512" xmlns="http://www.w3.org/2000/svg"><path clip-rule="evenodd" d="m0 482.312 144.285-207.182 165.051 236.87h-309.336zm189.348-321.202c-26.745 0-48.481-21.736-48.481-48.481 0-26.74 21.74-48.481 48.481-48.481s48.481 21.741 48.481 48.481c0 26.745-21.735 48.481-48.481 48.481zm34.125 163.704 138.263-198.529c3.429-4.911 9.03-7.838 15.009-7.838 5.984 0 11.586 2.927 15.003 7.838l120.252 172.651v-298.936h-512v418.32l129.277-185.623c3.418-4.916 9.019-7.838 14.998-7.838 5.989 0 11.585 2.922 15.003 7.828zm130.436 187.186h158.091v-149.062l-135.255-194.205-130.985 188.065z" fill-rule="evenodd"/></svg>