<svg fill='#eeeeee' id="Layer_1" enable-background="new 0 0 512 512" height="512" viewBox="0 0 512 512" width="512" xmlns="http://www.w3.org/2000/svg"><path clip-rule="evenodd" d="m289.509 495.995v-238.424l206.491 119.211zm-289.509-463.989c0-8.84 7.156-16.001 15.996-16.001h479.999c8.845 0 16.006 7.161 16.006 16.001 0 8.831-7.161 16-16.006 16h-479.999c-8.84.001-15.996-7.169-15.996-16zm512 149.329c0 8.83-7.161 16-16.006 16h-479.998c-8.84 0-15.996-7.169-15.996-16 0-8.841 7.156-15.999 15.996-15.999h479.999c8.845 0 16.005 7.159 16.005 15.999zm-299.494 149.328c0 8.841-7.16 16.001-15.996 16.001h-180.514c-8.84.001-15.996-7.16-15.996-16.001 0-8.83 7.156-16 15.996-16h180.514c8.836.001 15.996 7.17 15.996 16zm0 149.33c0 8.841-7.16 16.001-15.996 16.001h-180.514c-8.84 0-15.996-7.16-15.996-16.001 0-8.83 7.156-16 15.996-16h180.514c8.836.001 15.996 7.17 15.996 16z" fill-rule="evenodd"/></svg>