<svg fill='#eeeeee' id="Layer_1" enable-background="new 0 0 512 512" height="512" viewBox="0 0 512 512" width="512" xmlns="http://www.w3.org/2000/svg"><path clip-rule="evenodd" d="m129.743 19.85c0-10.949 8.895-19.85 19.839-19.85h182l50.675 50.697v42.454h-252.514zm313.81 315.444c0 10.103-8.195 18.281-18.329 18.281h-6.362v28.702h48.034c24.852 0 45.123-20.238 45.123-45.112v-162.34c0-24.869-20.27-45.101-45.123-45.101h-421.792c-24.853 0-45.123 20.232-45.123 45.101v162.339c0 24.874 20.27 45.112 45.123 45.112h48.034v-28.702h-6.361c-10.135 0-18.329-8.178-18.329-18.281 0-10.092 8.194-18.286 18.329-18.286h338.447c10.135 0 18.329 8.195 18.329 18.287zm17.305-136.813c0 10.103-8.194 18.286-18.276 18.286h-44.745c-10.135 0-18.329-8.184-18.329-18.286 0-10.092 8.194-18.286 18.329-18.286h44.745c10.082-.001 18.276 8.194 18.276 18.286zm-124.154 285.61h-161.407c-10.081 0-18.276-8.178-18.276-18.286 0-10.087 8.194-18.281 18.276-18.281h161.407c10.081 0 18.275 8.194 18.275 18.281 0 10.107-8.195 18.286-18.275 18.286zm18.275-83.539c0 10.103-8.194 18.286-18.275 18.286h-161.407c-10.081 0-18.276-8.184-18.276-18.286 0-10.092 8.194-18.286 18.276-18.286h161.407c10.08-.001 18.275 8.194 18.275 18.286zm27.278-46.978v138.566c0 10.949-8.895 19.86-19.839 19.86h-212.836c-10.944 0-19.839-8.911-19.839-19.86v-138.566z" fill-rule="evenodd"/></svg>