<svg fill='#eeeeee' id="Layer_1" enable-background="new 0 0 512 512" height="512" viewBox="0 0 512 512" width="512" xmlns="http://www.w3.org/2000/svg"><path clip-rule="evenodd" d="m282.091 120.685c-17.607-17.607-46.418-17.607-64.025 0l-204.86 204.86c-17.607 17.607-17.607 46.418 0 64.026l109.223 109.223c17.607 17.607 46.419 17.607 64.026 0l204.86-204.86c17.607-17.607 17.607-46.419 0-64.026zm50.904-86.883c-9.278-1.436-15.636-10.121-14.2-19.4 1.436-9.278 10.122-15.636 19.4-14.2 44.692 6.987 84.624 28.066 115.08 58.523s51.535 70.388 58.522 115.08c1.436 9.278-4.922 17.964-14.2 19.4s-17.964-4.922-19.4-14.2c-5.818-37.211-23.489-70.58-49.056-96.147s-58.935-43.238-96.146-49.056zm-7.091 70.786c-9.241-1.804-15.271-10.759-13.466-20 1.804-9.242 10.759-15.271 20-13.466 27.36 5.377 51.792 18.818 70.708 37.733 18.916 18.916 32.356 43.348 37.733 70.708 1.804 9.241-4.225 18.196-13.467 20-9.241 1.804-18.196-4.225-20-13.467-4.029-20.501-14.146-38.854-28.4-53.108-14.254-14.253-32.607-24.37-53.108-28.4zm-36.787 136.386c8.816-8.817 23.11-8.817 31.926 0 8.816 8.816 8.816 23.109 0 31.926-8.816 8.816-23.11 8.816-31.926 0s-8.815-23.109 0-31.926zm-50.017-18.091c-8.817-8.817-8.816-23.11 0-31.926s23.11-8.816 31.926 0 8.817 23.11 0 31.926c-8.816 8.816-23.11 8.816-31.926 0zm-18.092 18.091c8.816 8.816 8.817 23.11 0 31.926-8.816 8.816-23.11 8.816-31.926 0-8.816-8.817-8.816-23.11 0-31.926s23.109-8.816 31.926 0zm18.092 50.018c8.816-8.817 23.11-8.817 31.926 0 8.816 8.816 8.816 23.109 0 31.926-8.816 8.816-23.11 8.816-31.926 0-8.817-8.816-8.817-23.11 0-31.926zm-57.836 39.744c19.983 19.983 19.983 52.383 0 72.366s-52.383 19.983-72.367 0c-19.983-19.983-19.983-52.383 0-72.366 19.984-19.983 52.383-19.983 72.367 0z" fill-rule="evenodd"/></svg>