<svg fill='#eeeeee' id="Layer_1" enable-background="new 0 0 512 512" height="512" viewBox="0 0 512 512" width="512" xmlns="http://www.w3.org/2000/svg"><path clip-rule="evenodd" d="m162.374 0h187.252c30.185 0 54.882 24.697 54.882 54.882v402.236c0 30.185-24.697 54.882-54.882 54.882h-187.252c-30.186 0-54.882-24.697-54.882-54.882v-402.236c0-30.185 24.697-54.882 54.882-54.882zm93.626 324.202c-29.189 0-52.85 23.662-52.85 52.85 0 29.189 23.662 52.85 52.85 52.85s52.85-23.662 52.85-52.85c0-29.189-23.662-52.85-52.85-52.85zm-73.058-186.531c-12.877 0-23.316 10.439-23.316 23.316s10.439 23.316 23.316 23.316c12.878 0 23.316-10.439 23.316-23.316s-10.438-23.316-23.316-23.316zm146.116 0c-12.877 0-23.316 10.439-23.316 23.316s10.439 23.316 23.316 23.316 23.316-10.439 23.316-23.316-10.439-23.316-23.316-23.316zm-73.058 0c-12.877 0-23.316 10.439-23.316 23.316s10.439 23.316 23.316 23.316 23.316-10.439 23.316-23.316-10.439-23.316-23.316-23.316zm-73.058 73.058c-12.877 0-23.316 10.439-23.316 23.316s10.439 23.316 23.316 23.316c12.878 0 23.316-10.439 23.316-23.316s-10.438-23.316-23.316-23.316zm146.116 0c-12.877 0-23.316 10.439-23.316 23.316s10.439 23.316 23.316 23.316 23.316-10.439 23.316-23.316-10.439-23.316-23.316-23.316zm-73.058 0c-12.877 0-23.316 10.439-23.316 23.316s10.439 23.316 23.316 23.316 23.316-10.439 23.316-23.316-10.439-23.316-23.316-23.316zm-73.058-146.115c-12.877 0-23.316 10.439-23.316 23.316s10.439 23.316 23.316 23.316c12.878 0 23.316-10.439 23.316-23.316 0-12.878-10.438-23.316-23.316-23.316zm146.116 0c-12.877 0-23.316 10.439-23.316 23.316s10.439 23.316 23.316 23.316 23.316-10.439 23.316-23.316c0-12.878-10.439-23.316-23.316-23.316zm-73.058 0c-12.877 0-23.316 10.439-23.316 23.316s10.439 23.316 23.316 23.316 23.316-10.439 23.316-23.316c0-12.878-10.439-23.316-23.316-23.316z" fill-rule="evenodd"/></svg>