<svg fill='#eeeeee' id="Layer_1" enable-background="new 0 0 512 512" height="512" viewBox="0 0 512 512" width="512" xmlns="http://www.w3.org/2000/svg"><path clip-rule="evenodd" d="m359.778 324.076 144.858 144.858c9.818 9.818 9.818 25.884 0 35.702-9.818 9.818-25.884 9.818-35.702 0l-144.858-144.858c-34.01 26.407-76.727 42.134-123.12 42.134-110.985 0-200.956-89.971-200.956-200.956s89.971-200.956 200.956-200.956 200.956 89.971 200.956 200.956c0 46.393-15.729 89.107-42.134 123.12zm-300.919-123.12c0 78.478 63.619 142.097 142.097 142.097s142.097-63.62 142.097-142.097c0-78.478-63.619-142.098-142.097-142.098-78.478.001-142.097 63.62-142.097 142.098z" fill-rule="evenodd"/></svg>