<svg fill='#eeeeee' id="Layer_1" enable-background="new 0 0 512 512" height="512" viewBox="0 0 512 512" width="512" xmlns="http://www.w3.org/2000/svg"><path clip-rule="evenodd" d="m283.21 344.786c0-9.821 7.96-17.77 17.777-17.77h100.039c9.818 0 17.777 7.95 17.777 17.77 0 9.81-7.959 17.776-17.777 17.776h-100.039c-9.818 0-17.777-7.966-17.777-17.776zm-44.985 131.662h-214.533c-9.816 0-17.775 7.966-17.775 17.776 0 9.821 7.959 17.776 17.775 17.776h464.617c9.818 0 17.773-7.955 17.773-17.776 0-9.81-7.955-17.776-17.773-17.776h-214.532v-76.925h196.758v-109.475h-429.068v109.475h196.758zm62.762-258.913c-9.817 0-17.777-7.965-17.777-17.776 0-9.816 7.96-17.771 17.777-17.771h100.039c9.818 0 17.777 7.955 17.777 17.771 0 9.81-7.959 17.776-17.777 17.776zm-259.52 36.962h429.067v-109.47h-429.067zm259.52-181.984c-9.817 0-17.777-7.966-17.777-17.776 0-9.821 7.96-17.776 17.777-17.776h100.039c9.818 0 17.777 7.955 17.777 17.776 0 9.81-7.959 17.776-17.777 17.776zm-259.52 36.962h429.067v-109.475h-429.067z" fill-rule="evenodd"/></svg>