<svg fill='#eeeeee' id="Layer_1" enable-background="new 0 0 512 512" height="512" viewBox="0 0 512 512" width="512" xmlns="http://www.w3.org/2000/svg"><path clip-rule="evenodd" d="m256 151.553c57.685 0 104.447 46.763 104.447 104.447s-46.762 104.447-104.447 104.447c-57.684 0-104.447-46.763-104.447-104.447s46.763-104.447 104.447-104.447zm44.967-87.408v-64.145h-89.936v64.145c-21.138 4.938-40.967 13.28-58.878 24.415l-45.376-45.376-63.594 63.594 45.376 45.376c-11.133 17.913-19.479 37.739-24.415 58.879h-64.144v89.935h64.145c4.938 21.138 13.28 40.967 24.415 58.879l-45.376 45.376 63.594 63.594 45.376-45.376c17.914 11.133 37.739 19.479 58.879 24.415v64.144h89.936v-64.145c21.137-4.939 40.965-13.281 58.879-24.415l45.376 45.376 63.594-63.594-45.376-45.376c11.134-17.912 19.478-37.74 24.414-58.879h64.144v-89.935h-64.145c-4.938-21.138-13.28-40.967-24.415-58.879l45.376-45.376-63.594-63.594-45.376 45.376c-17.914-11.133-37.739-19.479-58.879-24.414z" fill-rule="evenodd"/></svg>