<svg fill='#eeeeee' id="Layer_1" enable-background="new 0 0 512 512" height="512" viewBox="0 0 512 512" width="512" xmlns="http://www.w3.org/2000/svg"><path clip-rule="evenodd" d="m488.49 80.524c0 44.471-36.052 80.523-80.523 80.523-23.648 0-44.916-10.194-59.646-26.427l-167.604 96.766c2.489 7.759 3.837 16.029 3.837 24.615 0 8.598-1.353 16.878-3.848 24.646l167.594 96.759c14.732-16.247 36.008-26.452 59.668-26.452 44.472 0 80.523 36.051 80.523 80.523 0 44.471-36.051 80.523-80.523 80.523s-80.523-36.051-80.523-80.523c0-8.598 1.353-16.879 3.848-24.647l-167.593-96.759c-14.731 16.248-36.008 26.452-59.668 26.452-44.471 0-80.523-36.051-80.523-80.523s36.051-80.523 80.523-80.523c23.647 0 44.913 10.194 59.645 26.427l167.604-96.766c-2.488-7.759-3.837-16.029-3.837-24.614 0-44.472 36.052-80.524 80.523-80.524 44.472 0 80.523 36.052 80.523 80.524z" fill-rule="evenodd"/></svg>