<svg fill='#eeeeee' id="Layer_1" enable-background="new 0 0 512 512" height="512" viewBox="0 0 512 512" width="512" xmlns="http://www.w3.org/2000/svg"><path clip-rule="evenodd" d="m174.082 398.997h-99.196c-14.136 0-25.704-11.567-25.704-25.703v-234.587c0-14.136 11.567-25.703 25.704-25.703h11.212l270.935 270.935v91.596c0 13.694-7.085 25.439-19.201 31.824-12.115 6.385-26.614 6.651-37.106-2.149zm-122.855-369.13 385.413 385.413c6.664 6.664 17.469 6.664 24.133 0s6.664-17.469 0-24.133l-103.741-103.742v-250.938c0-13.694-7.087-25.44-19.202-31.825-12.116-6.386-26.612-6.651-37.105 2.149l-121.994 102.313-103.371-103.371c-6.664-6.664-17.469-6.664-24.133 0s-6.664 17.47 0 24.134z" fill-rule="evenodd"/></svg>