<svg fill='#eeeeee' id="Layer_1" enable-background="new 0 0 512 512" height="512" viewBox="0 0 512 512" width="512" xmlns="http://www.w3.org/2000/svg"><path clip-rule="evenodd" d="m256 422.168c14.58 0 26.4 11.82 26.4 26.4s-11.82 26.4-26.4 26.4-26.4-11.82-26.4-26.4 11.82-26.4 26.4-26.4zm-126.389-422.168c-7.794 0-14.171 6.377-14.171 14.171v483.658c0 7.794 6.377 14.171 14.171 14.171h252.778c7.794 0 14.17-6.377 14.17-14.171v-483.658c.001-7.794-6.376-14.171-14.17-14.171h-57.55l-7.984 24.569c-69.103 0-52.607 0-121.71 0l-7.984-24.569z" fill-rule="evenodd"/></svg>