<svg fill='#eeeeee' id="Layer_1" enable-background="new 0 0 512 512" height="512" viewBox="0 0 512 512" width="512" xmlns="http://www.w3.org/2000/svg"><path clip-rule="evenodd" d="m124.9 398.998h-99.196c-14.136 0-25.704-11.568-25.704-25.704v-234.587c0-14.136 11.567-25.703 25.704-25.703h99.194l126.645-106.213c10.493-8.8 24.99-8.535 37.105-2.149 12.116 6.385 19.202 18.131 19.202 31.825v219.533 219.534c0 13.694-7.085 25.438-19.201 31.824-12.116 6.385-26.614 6.651-37.107-2.149zm224.634-237.993c-6.664-6.664-6.664-17.469 0-24.133s17.469-6.664 24.133 0c32.897 32.898 49.346 76.014 49.346 119.129s-16.449 86.231-49.346 119.129c-6.664 6.664-17.469 6.664-24.133 0s-6.664-17.469 0-24.133c26.231-26.231 39.347-60.613 39.347-94.995-.001-34.383-13.117-68.766-39.347-94.997zm62.923-62.922c43.606 43.606 65.41 100.762 65.41 157.918s-21.804 114.312-65.41 157.918c-6.664 6.664-6.664 17.469 0 24.133s17.469 6.664 24.134-.001c50.272-50.272 75.409-116.162 75.409-182.051 0-65.888-25.137-131.778-75.41-182.052-6.664-6.664-17.469-6.664-24.133 0-6.664 6.665-6.664 17.47 0 24.135z" fill-rule="evenodd"/></svg>