<svg fill='#eeeeee' id="Layer_1" enable-background="new 0 0 512 512" height="512" viewBox="0 0 512 512" width="512" xmlns="http://www.w3.org/2000/svg"><path clip-rule="evenodd" d="m305.121 78.383c-15.989-4.402-32.506-6.59-49.121-6.59-49.024 0-95.596 19.291-130.256 53.952-34.66 34.66-53.951 81.231-53.951 130.255 0 19.476 3.008 38.816 9.064 57.332 6.044 18.474 15.019 35.884 26.515 51.555 6.208 8.463 4.372 20.359-4.091 26.563-8.465 6.204-20.355 4.369-26.562-4.091-13.885-18.926-24.72-39.953-32.018-62.264-7.301-22.316-10.994-45.617-10.994-69.095 0-59.155 23.287-115.361 65.109-157.184 41.823-41.822 98.029-65.109 157.184-65.109 23.341 0 46.506 3.65 68.704 10.863l20.085-34.975c2.437-4.263 6.5-7.595 11.585-8.954 10.104-2.699 20.579 3.366 23.285 13.465l19.994 74.618c2.707 10.104-3.366 20.581-13.464 23.287l-74.618 19.993c-10.103 2.707-20.589-3.363-23.287-13.465-1.433-5.363-.397-10.831 2.401-15.186zm-98.224 355.28 14.867-25.751v-.001c2.457-4.226 3.306-9.385 1.953-14.451-2.699-10.102-13.184-16.173-23.287-13.465l-74.618 19.993c-10.098 2.706-16.171 13.184-13.464 23.288l19.994 74.618c2.706 10.099 13.182 16.164 23.286 13.464 5.057-1.351 9.103-4.653 11.545-8.882l20.237-35.053c.347.113.695.224 1.042.335 21.849 6.971 44.615 10.534 67.55 10.534 59.155 0 115.361-23.287 157.184-65.109 41.822-41.823 65.109-98.028 65.109-157.184 0-23.478-3.693-46.779-10.993-69.095-7.298-22.311-18.133-43.338-32.018-62.264-6.207-8.461-18.097-10.296-26.562-4.092-8.464 6.204-10.3 18.1-4.092 26.563 11.496 15.671 20.471 33.081 26.515 51.555 6.056 18.516 9.064 37.856 9.064 57.332 0 49.024-19.292 95.596-53.952 130.256s-81.231 53.952-130.255 53.952c-16.602.002-33.119-2.152-49.105-6.543z" fill-rule="evenodd"/></svg>