<svg fill='#eeeeee' id="Layer_1" enable-background="new 0 0 512 512" height="512" viewBox="0 0 512 512" width="512" xmlns="http://www.w3.org/2000/svg"><path clip-rule="evenodd" d="m155.079 387.237v-188.107c0-9.426 7.641-17.067 17.067-17.067 9.425 0 17.066 7.641 17.066 17.067v188.107c0 9.426-7.641 17.067-17.066 17.067-9.426 0-17.067-7.642-17.067-17.067zm-101.523-289h34.734v373.969c0 21.886 18.403 39.794 40.894 39.794h253.633c22.491 0 40.894-17.908 40.894-39.794v-373.969h34.733c9.426 0 17.067-7.641 17.067-17.066s-7.641-17.067-17.067-17.067h-116.876v-22.824c0-11.369-4.639-21.694-12.112-29.167-7.474-7.474-17.798-12.113-29.168-12.113h-88.577c-11.37 0-21.694 4.639-29.167 12.112s-12.112 17.797-12.112 29.167v22.825h-116.876c-9.426 0-17.067 7.641-17.067 17.067.001 9.426 7.642 17.066 17.067 17.066zm151.009-34.133v-22.824c0-1.947.81-3.731 2.113-5.034s3.087-2.113 5.034-2.113h88.577c1.947 0 3.73.81 5.034 2.113 1.303 1.303 2.113 3.087 2.113 5.033v22.825zm34.369 376.128v-294.098c0-9.425 7.641-17.066 17.066-17.066 9.426 0 17.067 7.641 17.067 17.066v294.097c0 9.426-7.641 17.066-17.067 17.066-9.425.001-17.066-7.639-17.066-17.065zm83.855-52.995v-188.107c0-9.426 7.641-17.067 17.067-17.067s17.066 7.641 17.066 17.067v188.107c0 9.426-7.641 17.067-17.066 17.067s-17.067-7.642-17.067-17.067z" fill-rule="evenodd"/></svg>