<svg fill='#eeeeee' id="Layer_1" enable-background="new 0 0 512 512" height="512" viewBox="0 0 512 512" width="512" xmlns="http://www.w3.org/2000/svg"><path clip-rule="evenodd" d="m344.038 133.198h-37.805v127.189h37.805c10.378 0 19.826-4.258 26.686-11.119 6.86-6.86 11.119-16.308 11.119-26.686v-51.579c0-10.378-4.259-19.826-11.119-26.686s-16.308-11.119-26.686-11.119zm0 161.322h-54.872c-9.426 0-17.066-7.641-17.066-17.067v-161.321c0-9.425 7.641-17.066 17.066-17.066h54.872c19.801 0 37.789 8.088 50.819 21.118s21.118 31.019 21.118 50.819v51.579c0 19.801-8.088 37.79-21.118 50.82-13.029 13.03-31.018 21.118-50.819 21.118zm-104.138-178.388v161.322c0 9.426-7.641 17.067-17.067 17.067-9.425 0-17.066-7.641-17.066-17.067v-63.594h-75.61v63.594c0 9.426-7.641 17.067-17.067 17.067s-17.066-7.641-17.066-17.067v-161.322c0-9.425 7.641-17.066 17.066-17.066s17.067 7.641 17.067 17.066v63.595h75.61v-63.595c0-9.425 7.641-17.066 17.066-17.066 9.426-.001 17.067 7.64 17.067 17.066zm272.1-100.444v362.21h-238.933v45.818c20.874 1.375 40.64 5.234 57.856 11.07 23.145 7.845 42.06 19.496 53.602 33.837 5.891 7.327 4.727 18.042-2.6 23.933s-18.043 4.727-23.933-2.6c-7.384-9.174-20.827-17.083-38.003-22.904-18.343-6.218-40.496-9.764-63.99-9.764-23.796 0-45.783 3.592-63.879 9.726-17.426 5.906-30.834 13.898-38.114 22.943-5.891 7.327-16.606 8.491-23.933 2.6s-8.491-16.606-2.6-23.933c11.378-14.138 30.256-25.925 53.713-33.875 17.038-5.775 36.7-9.659 57.746-11.036v-45.813h-238.932v-362.212z" fill-rule="evenodd"/></svg>