<svg fill='#eeeeee' id="Layer_1" enable-background="new 0 0 512 512" height="512" viewBox="0 0 512 512" width="512" xmlns="http://www.w3.org/2000/svg"><path clip-rule="evenodd" d="m389.868 375.713c67.173 0 122.132-54.959 122.132-122.132 0-69.221-55.988-122.131-124.55-122.131 0-72.297-59.153-131.45-131.45-131.45-72.298 0-131.45 59.153-131.45 131.45-68.515 0-124.55 52.865-124.55 122.132 0 67.172 54.959 122.132 122.132 122.132h116.802v119.22c0 9.425 7.641 17.066 17.067 17.066s17.067-7.641 17.067-17.066v-119.22h116.8zm-150.935 0v-137.091l-45.343 45.343c-6.664 6.664-17.469 6.664-24.133 0s-6.664-17.469 0-24.133l74.476-74.476c6.664-6.664 17.469-6.664 24.133 0l74.476 74.476c6.664 6.664 6.664 17.469 0 24.133s-17.469 6.664-24.133 0l-45.343-45.342v137.091h-34.133z" fill-rule="evenodd"/></svg>