<svg fill='#eeeeee' id="Layer_1" enable-background="new 0 0 512 512" height="512" viewBox="0 0 512 512" width="512" xmlns="http://www.w3.org/2000/svg"><path clip-rule="evenodd" d="m510.051 31.99c1.261 4.14 1.946 8.528 1.946 13.073v81.797h-56.707zm-330.923 390.984v-177.517l153.738 88.754zm-134.062 89.026h421.869c24.847 0 45.063-20.216 45.063-45.058v-303.51h-511.995v303.51c0 24.842 20.216 45.058 45.063 45.058zm0-512h22.626l-67.689 117.242v-72.179c0-24.847 20.216-45.063 45.063-45.063zm204.381 0h97.318l-73.247 126.86h-97.301zm-212.775 126.86h97.318l73.23-126.86h-97.301zm447.611-123.378c-5.337-2.242-11.198-3.482-17.348-3.482h-77.943l-73.247 126.86h97.317z" fill-rule="evenodd"/></svg>