<svg fill='#eeeeee' id="Layer_1" enable-background="new 0 0 512 512" height="512" viewBox="0 0 512 512" width="512" xmlns="http://www.w3.org/2000/svg"><path clip-rule="evenodd" d="m0 0h512v340.703h-512zm17.067 484.419c-9.426 0-17.067-7.642-17.067-17.067 0-9.426 7.641-17.067 17.066-17.067h108.895c6.703-16.19 22.654-27.582 41.267-27.582s34.564 11.392 41.267 27.582h286.438c9.425 0 17.066 7.641 17.066 17.067 0 9.425-7.641 17.066-17.066 17.066h-286.438c-6.703 16.19-22.654 27.582-41.267 27.582s-34.564-11.392-41.267-27.581zm332.714-314.068-80.98-46.754-80.981-46.754v93.508 93.508l80.981-46.754z" fill-rule="evenodd"/></svg>