<svg fill='#eeeeee' id="Layer_1" enable-background="new 0 0 512 512" height="512" viewBox="0 0 512 512" width="512" xmlns="http://www.w3.org/2000/svg"><path clip-rule="evenodd" d="m124.9 398.997h-99.196c-14.136 0-25.704-11.567-25.704-25.703v-234.587c0-14.136 11.567-25.703 25.704-25.703h99.194l126.645-106.213c10.493-8.8 24.99-8.535 37.105-2.149 12.116 6.385 19.202 18.131 19.202 31.825v219.533 219.534c0 13.695-7.085 25.438-19.201 31.824-12.116 6.385-26.614 6.651-37.107-2.149zm236.767-125.997c-9.389 0-17-7.612-17-17 0-9.389 7.611-17 17-17h133.333c9.389 0 17 7.611 17 17s-7.611 17-17 17z" fill-rule="evenodd"/></svg>