<?xml version="1.0" encoding="iso-8859-1"?>
<!-- Generator: Adobe Illustrator 19.0.0, SVG Export Plug-In . SVG Version: 6.00 Build 0)  -->
<svg fill='#eeeeee' version="1.1" id="Capa_1" xmlns="http://www.w3.org/2000/svg" xmlns:xlink="http://www.w3.org/1999/xlink" x="0px" y="0px"
	 viewBox="0 0 520.241 520.241" style="enable-background:new 0 0 520.241 520.241;" xml:space="preserve">
<g>
	<g>
		<g>
			<path d="M260.121,149.333c103.417,0,213.333-26.167,213.333-74.667S363.537,0,260.121,0S46.787,26.167,46.787,74.667
				S156.704,149.333,260.121,149.333z M260.121,21.333c118.958,0,192,31.063,192,53.333c0,9.09-12.35,19.622-34.844,28.932
				c-43.296-39.224-98.753-60.932-157.156-60.932S146.26,64.375,102.964,103.599c-22.493-9.31-34.844-19.842-34.844-28.932
				C68.121,52.396,141.162,21.333,260.121,21.333z"/>
			<path d="M452.902,151.951l-0.003-0.004c-2.947-4.242-8.509-5.764-13.204-3.612l-0.001,0.001
				c-42.354,19.427-107.813,30.573-179.573,30.573s-137.219-11.146-179.573-30.573l-0.001-0.001
				c-4.695-2.152-10.258-0.63-13.204,3.612l-0.003,0.004C36.744,196,22.259,248.462,26.045,302.38
				c8.421,119.943,108.497,215.1,228.704,217.801c131.841,2.961,240.038-103.424,240.038-234.605
				C494.787,237.617,480.308,191.409,452.902,151.951z M345.454,213.333c23.531,0,42.667,19.135,42.667,42.667
				c0,5.896-4.771,10.667-10.667,10.667c-5.896,0-10.667-4.771-10.667-10.667c0-11.76-9.573-21.333-21.333-21.333
				c-11.76,0-21.333,9.573-21.333,21.333c0,5.896-4.771,10.667-10.667,10.667c-5.896,0-10.667-4.771-10.667-10.667
				C302.787,232.469,321.923,213.333,345.454,213.333z M174.787,213.333c23.531,0,42.667,19.135,42.667,42.667
				c0,5.896-4.771,10.667-10.667,10.667c-5.896,0-10.667-4.771-10.667-10.667c0-11.76-9.573-21.333-21.333-21.333
				c-11.76,0-21.333,9.573-21.333,21.333c0,5.896-4.771,10.667-10.667,10.667s-10.667-4.771-10.667-10.667
				C132.121,232.469,151.256,213.333,174.787,213.333z M409.162,333.135c-6.681,28.155-22.087,52.699-42.6,72.048
				c-29.741-22.943-71.128-28.082-106.129-10.236c-35.087-17.91-76.68-12.669-106.462,10.547
				c-20.684-19.397-36.211-44.061-42.902-72.38c-0.75-3.167,0-6.51,2.021-9.063c2.021-2.563,5.104-4.052,8.365-4.052h277.333
				c3.26,0,6.344,1.49,8.365,4.052C409.183,326.615,409.923,329.958,409.162,333.135z"/>
		</g>
	</g>
</g>
<g>
</g>
<g>
</g>
<g>
</g>
<g>
</g>
<g>
</g>
<g>
</g>
<g>
</g>
<g>
</g>
<g>
</g>
<g>
</g>
<g>
</g>
<g>
</g>
<g>
</g>
<g>
</g>
<g>
</g>
</svg>
