<?xml version="1.0" encoding="iso-8859-1"?>
<!-- Generator: Adobe Illustrator 19.0.0, SVG Export Plug-In . SVG Version: 6.00 Build 0)  -->
<svg fill='#eeeeee' version="1.1" id="Capa_1" xmlns="http://www.w3.org/2000/svg" xmlns:xlink="http://www.w3.org/1999/xlink" x="0px" y="0px"
	 viewBox="0 0 512 512" style="enable-background:new 0 0 512 512;" xml:space="preserve">
<g>
	<g>
		<path d="M256,0C114.833,0,0,114.844,0,256s114.833,256,256,256s256-114.844,256-256S397.167,0,256,0z M117.333,256
			c-3.896,0-7.667-2.156-9.542-5.896c-2.625-5.271-0.5-11.677,4.771-14.313l66.271-33.125l-66.271-33.125
			c-5.271-2.635-7.396-9.042-4.771-14.313c2.646-5.26,9.063-7.375,14.313-4.771l85.354,42.667c3.604,1.802,5.896,5.5,5.896,9.542
			c0,4.042-2.292,7.74-5.896,9.542l-85.354,42.667C120.563,255.635,118.938,256,117.333,256z M319.979,298.667
			c20.875,0,40.5,10.271,52.479,27.49c1.729,2.469,2.313,5.542,1.646,8.479c-0.667,2.927-2.542,5.438-5.167,6.917l-29.729,16.708
			c-3.208,1.771-7.125,1.813-10.333,0.063l-28.813-15.698c-3.208-1.729-7-1.74-10.208,0.01l-28.896,15.76
			c-1.583,0.865-3.354,1.302-5.104,1.302s-3.521-0.438-5.104-1.302l-28.833-15.75c-3.25-1.771-7.042-1.781-10.25-0.01L183,358.313
			c-3.25,1.771-7.146,1.74-10.354-0.073L143,341.563c-2.625-1.469-4.5-3.979-5.167-6.917c-0.667-2.927-0.083-6.01,1.646-8.469
			c12-17.229,31.625-27.51,52.5-27.51H319.979z M381.396,379.917c-7.75,27.531-33,46.75-61.417,46.75h-128
			c-28.396,0-53.625-19.198-61.375-46.688c-1.167-4.156,0.292-8.615,3.688-11.281c3.375-2.677,8.063-3.052,11.813-0.906
			l26.375,14.844c3.25,1.823,7.146,1.854,10.333,0.073l28.875-15.76c3.167-1.729,7.042-1.729,10.208,0l28.813,15.74
			c3.188,1.719,7.083,1.729,10.229,0.01l28.917-15.771c3.167-1.729,7.042-1.729,10.208,0l28.979,15.781
			c3.229,1.74,7.104,1.74,10.333-0.083l26.521-14.896c3.792-2.104,8.417-1.74,11.833,0.917
			C381.104,371.313,382.563,375.771,381.396,379.917z M399.438,235.792c5.271,2.635,7.396,9.042,4.771,14.313
			c-1.875,3.74-5.646,5.896-9.542,5.896c-1.604,0-3.229-0.365-4.771-1.125l-85.354-42.667c-3.604-1.802-5.896-5.5-5.896-9.542
			c0-4.042,2.292-7.74,5.896-9.542l85.354-42.667c5.292-2.625,11.667-0.51,14.313,4.771c2.625,5.271,0.5,11.677-4.771,14.313
			l-66.271,33.125L399.438,235.792z"/>
	</g>
</g>
<g>
</g>
<g>
</g>
<g>
</g>
<g>
</g>
<g>
</g>
<g>
</g>
<g>
</g>
<g>
</g>
<g>
</g>
<g>
</g>
<g>
</g>
<g>
</g>
<g>
</g>
<g>
</g>
<g>
</g>
</svg>
