<?xml version="1.0" encoding="iso-8859-1"?>
<!-- Generator: Adobe Illustrator 19.0.0, SVG Export Plug-In . SVG Version: 6.00 Build 0)  -->
<svg fill='#eeeeee' version="1.1" id="Capa_1" xmlns="http://www.w3.org/2000/svg" xmlns:xlink="http://www.w3.org/1999/xlink" x="0px" y="0px"
	 viewBox="0 0 512 512" style="enable-background:new 0 0 512 512;" xml:space="preserve">
<g>
	<g>
		<path d="M256,0C114.844,0,0,114.833,0,256s114.844,256,256,256s256-114.833,256-256S397.156,0,256,0z M312.458,45.792
			c4.167-4.167,10.917-4.167,15.083,0l13.792,13.792l13.792-13.792c4.167-4.167,10.917-4.167,15.083,0
			c4.167,4.167,4.167,10.917,0,15.083l-21.333,21.333c-2.083,2.083-4.813,3.125-7.542,3.125c-2.729,0-5.458-1.042-7.542-3.125
			l-21.333-21.333C308.292,56.708,308.292,49.958,312.458,45.792z M370.208,152.458c4.167,4.167,4.167,10.917,0,15.083
			c-2.083,2.083-4.813,3.125-7.542,3.125s-5.458-1.042-7.542-3.125l-13.792-13.792l-13.792,13.792
			c-4.167,4.167-10.917,4.167-15.083,0c-4.167-4.167-4.167-10.917,0-15.083l21.333-21.333c4.167-4.167,10.917-4.167,15.083,0
			L370.208,152.458z M280.458,92.875c-4.167-4.167-4.167-10.917,0-15.083c4.167-4.167,10.917-4.167,15.083,0l21.333,21.333
			c4.167,4.167,4.167,10.917,0,15.083l-21.333,21.333c-2.083,2.083-4.813,3.125-7.542,3.125s-5.458-1.042-7.542-3.125
			c-4.167-4.167-4.167-10.917,0-15.083l13.792-13.792L280.458,92.875z M133.896,192.458c-5.271-2.646-7.406-9.042-4.771-14.313
			c2.635-5.25,9.052-7.417,14.313-4.771l85.333,42.667c5.271,2.646,7.406,9.042,4.771,14.313c-1.875,3.729-5.635,5.896-9.552,5.896
			c-1.604,0-3.229-0.354-4.76-1.125l-6.161-3.081c0.055,0.884,0.266,1.724,0.266,2.622c0,23.521-19.135,42.667-42.667,42.667
			S128,258.188,128,234.667c0-14.846,7.645-27.918,19.185-35.564L133.896,192.458z M379.74,381.875
			c-1.927,1.438-4.167,2.125-6.396,2.125c-3.24,0-6.448-1.479-8.542-4.271c-1.167-1.5-30.573-38.375-108.802-38.396
			c-0.021,0-0.042,0-0.063,0c-78.188,0-107.573,36.896-108.781,38.458c-3.573,4.646-10.25,5.542-14.927,2
			c-4.667-3.542-5.615-10.167-2.094-14.854C131.573,365.021,166.344,320,255.938,320c0.021,0,0.042,0,0.063,0
			c89.635,0.021,124.427,45.021,125.865,46.938C385.396,371.646,384.448,378.333,379.74,381.875z M341.333,277.333
			c-23.531,0-42.667-19.146-42.667-42.667c0-0.898,0.211-1.738,0.266-2.622l-6.161,3.081c-1.531,0.771-3.156,1.125-4.76,1.125
			c-3.917,0-7.677-2.167-9.552-5.896c-2.635-5.271-0.5-11.667,4.771-14.313l85.333-42.667c5.25-2.646,11.667-0.479,14.313,4.771
			c2.635,5.271,0.5,11.667-4.771,14.313l-13.289,6.645C376.355,206.749,384,219.82,384,234.667
			C384,258.188,364.865,277.333,341.333,277.333z M402.208,120.458c4.167,4.167,4.167,10.917,0,15.083
			c-2.083,2.083-4.813,3.125-7.542,3.125s-5.458-1.042-7.542-3.125l-21.333-21.333c-4.167-4.167-4.167-10.917,0-15.083
			l21.333-21.333c4.167-4.167,10.917-4.167,15.083,0c4.167,4.167,4.167,10.917,0,15.083l-13.792,13.792L402.208,120.458z"/>
	</g>
</g>
<g>
</g>
<g>
</g>
<g>
</g>
<g>
</g>
<g>
</g>
<g>
</g>
<g>
</g>
<g>
</g>
<g>
</g>
<g>
</g>
<g>
</g>
<g>
</g>
<g>
</g>
<g>
</g>
<g>
</g>
</svg>
