<?xml version="1.0" encoding="iso-8859-1"?>
<!-- Generator: Adobe Illustrator 19.0.0, SVG Export Plug-In . SVG Version: 6.00 Build 0)  -->
<svg fill='#eeeeee' version="1.1" id="Capa_1" xmlns="http://www.w3.org/2000/svg" xmlns:xlink="http://www.w3.org/1999/xlink" x="0px" y="0px"
	 viewBox="0 0 512 512" style="enable-background:new 0 0 512 512;" xml:space="preserve">
<g>
	<g>
		<path d="M256,0C114.833,0,0,114.833,0,256s114.833,256,256,256s256-114.833,256-256S397.167,0,256,0z M107.792,155.229
			c2.646-5.271,9.063-7.375,14.313-4.771L160,169.417l37.896-18.958c5.292-2.625,11.667-0.5,14.313,4.771
			c2.625,5.271,0.5,11.667-4.771,14.313l-42.667,21.333c-1.5,0.75-3.146,1.125-4.771,1.125s-3.271-0.375-4.771-1.125l-42.667-21.333
			C107.292,166.896,105.167,160.5,107.792,155.229z M379.729,381.875c-1.917,1.438-4.167,2.125-6.396,2.125
			c-3.229,0-6.438-1.479-8.542-4.271c-1.167-1.5-30.563-38.375-108.792-38.396c-0.021,0-0.042,0-0.063,0
			c-78.188,0-107.563,36.896-108.771,38.458c-3.625,4.646-10.292,5.542-14.938,2c-4.667-3.542-5.604-10.167-2.104-14.854
			C131.563,365.021,166.354,320,255.938,320c0.021,0,0.042,0,0.063,0c89.625,0.021,124.438,45.021,125.875,46.938
			C385.396,371.646,384.438,378.333,379.729,381.875z M399.438,169.542l-42.667,21.333c-1.5,0.75-3.146,1.125-4.771,1.125
			s-3.271-0.375-4.771-1.125l-42.667-21.333c-5.271-2.646-7.396-9.042-4.771-14.313c2.646-5.271,9.063-7.375,14.313-4.771
			L352,169.417l37.896-18.958c5.292-2.625,11.667-0.5,14.313,4.771C406.833,160.5,404.708,166.896,399.438,169.542z"/>
	</g>
</g>
<g>
</g>
<g>
</g>
<g>
</g>
<g>
</g>
<g>
</g>
<g>
</g>
<g>
</g>
<g>
</g>
<g>
</g>
<g>
</g>
<g>
</g>
<g>
</g>
<g>
</g>
<g>
</g>
<g>
</g>
</svg>
