<?xml version="1.0" encoding="iso-8859-1"?>
<!-- Generator: Adobe Illustrator 19.0.0, SVG Export Plug-In . SVG Version: 6.00 Build 0)  -->
<svg fill='#eeeeee' version="1.1" id="Capa_1" xmlns="http://www.w3.org/2000/svg" xmlns:xlink="http://www.w3.org/1999/xlink" x="0px" y="0px"
	 viewBox="0 0 512 512" style="enable-background:new 0 0 512 512;" xml:space="preserve">
<g>
	<g>
		<path d="M256,0C114.833,0,0,114.844,0,256s114.833,256,256,256s256-114.844,256-256S397.167,0,256,0z M106.646,117.333
			c0-5.896,4.771-10.667,10.667-10.667s10.667,4.771,10.667,10.667c0,21.448,48.958,53.333,74.667,53.333
			c5.896,0,10.667,4.771,10.667,10.667c0,5.896-4.771,10.667-10.667,10.667C168.229,192,106.646,154.365,106.646,117.333z
			 M191.979,213.333c0,11.76-9.563,21.333-21.333,21.333c-11.771,0-21.333-9.573-21.333-21.333c0-11.76,9.563-21.333,21.333-21.333
			C182.417,192,191.979,201.573,191.979,213.333z M379.729,381.865c-1.917,1.438-4.167,2.135-6.396,2.135
			c-3.229,0-6.438-1.469-8.542-4.26c-1.167-1.51-30.563-38.396-108.792-38.406c-0.021,0-0.021,0-0.042,0
			c-78.208,0-107.583,36.885-108.813,38.458c-3.583,4.635-10.271,5.542-14.917,2c-4.667-3.552-5.604-10.167-2.104-14.854
			C131.563,365.021,166.354,320,255.979,320H256c89.646,0.01,124.438,45.021,125.875,46.927
			C385.396,371.646,384.438,378.333,379.729,381.865z M319.979,213.333c0-11.76,9.563-21.333,21.333-21.333
			c11.771,0,21.333,9.573,21.333,21.333c0,11.76-9.563,21.333-21.333,21.333C329.542,234.667,319.979,225.094,319.979,213.333z
			 M309.313,192c-5.896,0-10.667-4.771-10.667-10.667c0-5.896,4.771-10.667,10.667-10.667c25.708,0,74.667-31.885,74.667-53.333
			c0-5.896,4.771-10.667,10.667-10.667c5.896,0,10.667,4.771,10.667,10.667C405.313,154.365,343.729,192,309.313,192z"/>
	</g>
</g>
<g>
</g>
<g>
</g>
<g>
</g>
<g>
</g>
<g>
</g>
<g>
</g>
<g>
</g>
<g>
</g>
<g>
</g>
<g>
</g>
<g>
</g>
<g>
</g>
<g>
</g>
<g>
</g>
<g>
</g>
</svg>
