<?xml version="1.0" encoding="iso-8859-1"?>
<!-- Generator: Adobe Illustrator 19.0.0, SVG Export Plug-In . SVG Version: 6.00 Build 0)  -->
<svg fill='#eeeeee' version="1.1" id="Capa_1" xmlns="http://www.w3.org/2000/svg" xmlns:xlink="http://www.w3.org/1999/xlink" x="0px" y="0px"
	 viewBox="0 0 512 512" style="enable-background:new 0 0 512 512;" xml:space="preserve">
<g>
	<g>
		<path d="M512,63c0-34.74-28.542-63-63.625-63c-10.188,0-20.104,2.385-29.063,6.958C412.042,2.385,403.917,0,395.417,0
			c-25.354,0-45.979,20.438-45.979,45.552c0,18.531,11.458,34.604,28.146,41.49c-0.522,0.954-1.23,2.108-1.901,3.221
			c-40.612-30.655-90.16-47.596-141.016-47.596C105.271,42.667,0,147.938,0,277.333S105.271,512,234.667,512
			s234.667-105.271,234.667-234.667c0-50.385-16.5-99.424-46.737-140.107c0.995-0.418,2.098-0.957,3.07-1.352
			c7.563,15.177,22.833,25.021,40.354,25.021c25.354,0,45.979-20.438,45.979-45.563c0-8.26-2.438-16.427-7-23.604
			C509.604,82.885,512,73.094,512,63z M149.333,277.333C137.563,277.333,128,267.76,128,256s9.563-21.333,21.333-21.333
			c11.771,0,21.333,9.573,21.333,21.333S161.104,277.333,149.333,277.333z M181.333,234.667c-23.396,0-74.667-8.063-74.667-32
			c0-5.896,4.771-10.667,10.667-10.667c5.208,0,9.563,3.74,10.479,8.688c4.833,4.719,28.604,12.646,53.521,12.646
			c5.896,0,10.667,4.771,10.667,10.667S187.229,234.667,181.333,234.667z M266.667,405.333h-64c-5.896,0-10.667-4.771-10.667-10.667
			S196.771,384,202.667,384h64c5.896,0,10.667,4.771,10.667,10.667S272.563,405.333,266.667,405.333z M320,277.333
			c-11.771,0-21.333-9.573-21.333-21.333s9.563-21.333,21.333-21.333s21.333,9.573,21.333,21.333S331.771,277.333,320,277.333z
			 M288,234.667c-5.896,0-10.667-4.771-10.667-10.667s4.771-10.667,10.667-10.667c24.917,0,48.688-7.927,53.521-12.646
			C342.438,195.74,346.792,192,352,192c5.896,0,10.667,4.771,10.667,10.667C362.667,226.604,311.396,234.667,288,234.667z
			 M484.229,99.531c2.938,3.26,6.438,8.646,6.438,15.802c0,13.365-11.063,24.229-24.646,24.229
			c-11.438,0-21.104-8.073-23.458-19.635c-0.625-3-2.5-5.583-5.146-7.104c-2.688-1.542-5.854-1.833-8.75-0.854
			c-8.27,2.814-17.682,6.895-27.395,11.415c-0.1,0.047-0.198,0.085-0.297,0.135c-13.247,6.177-27.128,13.286-40.204,20.22
			c38.021-42,40.604-56.625,41.583-62.146c0.521-2.906-0.208-5.906-1.979-8.271c-1.792-2.365-4.458-3.885-7.417-4.188
			c-12.646-1.323-22.188-11.458-22.188-23.583c0-13.354,11.063-24.219,24.646-24.219c7.333,0,12.854,3.479,16.167,6.406
			c3.646,3.188,8.979,3.542,13,0.823c7.021-4.729,15.25-7.229,23.792-7.229c23.313,0,42.292,18.688,42.292,41.667
			c0,8.385-2.521,16.448-7.271,23.333C480.583,90.396,480.938,95.854,484.229,99.531z"/>
	</g>
</g>
<g>
</g>
<g>
</g>
<g>
</g>
<g>
</g>
<g>
</g>
<g>
</g>
<g>
</g>
<g>
</g>
<g>
</g>
<g>
</g>
<g>
</g>
<g>
</g>
<g>
</g>
<g>
</g>
<g>
</g>
</svg>
