<?xml version="1.0" encoding="iso-8859-1"?>
<!-- Generator: Adobe Illustrator 19.0.0, SVG Export Plug-In . SVG Version: 6.00 Build 0)  -->
<svg fill='#eeeeee' version="1.1" id="Capa_1" xmlns="http://www.w3.org/2000/svg" xmlns:xlink="http://www.w3.org/1999/xlink" x="0px" y="0px"
	 viewBox="0 0 512 512" style="enable-background:new 0 0 512 512;" xml:space="preserve">
<g>
	<g>
		<path d="M256,0C114.844,0,0,114.844,0,256s114.844,256,256,256s256-114.844,256-256S397.156,0,256,0z M149.333,213.333h-10.667
			c-5.896,0-10.667-4.771-10.667-10.667c0-5.896,4.771-10.667,10.667-10.667h64c5.896,0,10.667,4.771,10.667,10.667
			c0,5.896-4.771,10.667-10.667,10.667H192c0,11.76-9.573,21.333-21.333,21.333C158.906,234.667,149.333,225.094,149.333,213.333z
			 M330.667,384H181.333c-5.896,0-10.667-4.771-10.667-10.667c0-5.896,4.771-10.667,10.667-10.667h149.333
			c5.896,0,10.667,4.771,10.667,10.667C341.333,379.229,336.563,384,330.667,384z M373.333,213.333h-10.667
			c0,11.76-9.573,21.333-21.333,21.333c-11.76,0-21.333-9.573-21.333-21.333h-10.667c-5.896,0-10.667-4.771-10.667-10.667
			c0-5.896,4.771-10.667,10.667-10.667h64c5.896,0,10.667,4.771,10.667,10.667C384,208.563,379.229,213.333,373.333,213.333z"/>
	</g>
</g>
<g>
</g>
<g>
</g>
<g>
</g>
<g>
</g>
<g>
</g>
<g>
</g>
<g>
</g>
<g>
</g>
<g>
</g>
<g>
</g>
<g>
</g>
<g>
</g>
<g>
</g>
<g>
</g>
<g>
</g>
</svg>
