<?xml version="1.0" encoding="iso-8859-1"?>
<!-- Generator: Adobe Illustrator 19.0.0, SVG Export Plug-In . SVG Version: 6.00 Build 0)  -->
<svg fill='#eeeeee' version="1.1" id="Capa_1" xmlns="http://www.w3.org/2000/svg" xmlns:xlink="http://www.w3.org/1999/xlink" x="0px" y="0px"
	 viewBox="0 0 512 512" style="enable-background:new 0 0 512 512;" xml:space="preserve">
<g>
	<g>
		<g>
			<path d="M117.813,64h276.375c4.688,0,8.813-3.052,10.188-7.521s-0.313-9.313-4.167-11.948C357.583,15.396,307.708,0,256,0
				S154.417,15.396,111.792,44.531c-3.854,2.635-5.542,7.479-4.167,11.948S113.125,64,117.813,64z"/>
			<path d="M505.125,255c-4.063-1.76-8.729-0.813-11.813,2.302c-26.333,26.677-61.354,41.365-98.646,41.365
				c-57.021,0-107.563-34.354-128.75-87.51c-1.625-4.063-5.542-6.719-9.917-6.719c-4.354,0-8.292,2.656-9.917,6.708
				c-21.208,53.167-71.75,87.521-128.75,87.521c-37.292,0-72.313-14.688-98.646-41.365c-3.083-3.115-7.708-4.063-11.813-2.302
				c-4.042,1.74-6.583,5.781-6.438,10.167C5.354,403.583,117.604,512,256,512c138.375,0,250.625-108.417,255.563-246.823
				C511.708,260.781,509.167,256.74,505.125,255z M405.021,333.354c-16.458,67.5-77.729,114.646-149,114.646
				c-71.333,0-132.625-47.219-149.063-114.813c-1.375-5.729,2.125-11.5,7.854-12.885c5.833-1.375,11.5,2.125,12.896,7.844
				c14.083,58.01,66.854,98.521,128.313,98.521c61.417,0,114.167-40.448,128.292-98.375c1.396-5.719,7.271-9.229,12.875-7.833
				C402.917,321.854,406.417,327.625,405.021,333.354z"/>
			<path d="M458.667,85.333H53.333C23.917,85.333,0,109.26,0,138.667V160c0,64.698,52.646,117.333,117.333,117.333
				c63.615,0,115.465-50.936,117.172-114.155c2.495-3.922,9.921-13.845,21.495-13.845c11.609,0,19.046,9.986,21.495,13.848
				c1.708,63.22,53.559,114.152,117.172,114.152C459.354,277.333,512,224.698,512,160v-21.333
				C512,109.26,488.083,85.333,458.667,85.333z M117.333,234.667c-41.167,0-74.667-33.5-74.667-74.667
				c0-5.896,4.771-10.667,10.667-10.667C59.229,149.333,64,154.104,64,160c0,29.406,23.917,53.333,53.333,53.333
				c5.896,0,10.667,4.771,10.667,10.667S123.229,234.667,117.333,234.667z M394.667,234.667C353.5,234.667,320,201.167,320,160
				c0-5.896,4.771-10.667,10.667-10.667c5.896,0,10.667,4.771,10.667,10.667c0,29.406,23.917,53.333,53.333,53.333
				c5.896,0,10.667,4.771,10.667,10.667S400.563,234.667,394.667,234.667z"/>
		</g>
	</g>
</g>
<g>
</g>
<g>
</g>
<g>
</g>
<g>
</g>
<g>
</g>
<g>
</g>
<g>
</g>
<g>
</g>
<g>
</g>
<g>
</g>
<g>
</g>
<g>
</g>
<g>
</g>
<g>
</g>
<g>
</g>
</svg>
