<?xml version="1.0" encoding="iso-8859-1"?>
<!-- Generator: Adobe Illustrator 19.0.0, SVG Export Plug-In . SVG Version: 6.00 Build 0)  -->
<svg fill='#eeeeee' version="1.1" id="Capa_1" xmlns="http://www.w3.org/2000/svg" xmlns:xlink="http://www.w3.org/1999/xlink" x="0px" y="0px"
	 viewBox="0 0 512 512" style="enable-background:new 0 0 512 512;" xml:space="preserve">
<g>
	<g>
		<path d="M256,0C114.844,0,0,114.833,0,256s114.844,256,256,256s256-114.833,256-256S397.156,0,256,0z M299.792,155.229
			c2.646-5.25,9.063-7.417,14.313-4.771L352,169.417l37.896-18.958c5.281-2.646,11.667-0.479,14.313,4.771
			c2.635,5.271,0.5,11.667-4.771,14.313l-42.667,21.333c-1.5,0.75-3.135,1.125-4.771,1.125c-1.635,0-3.271-0.375-4.771-1.125
			l-42.667-21.333C299.292,166.896,297.156,160.5,299.792,155.229z M416,224c0,11.771-9.573,21.333-21.333,21.333
			s-21.333-9.563-21.333-21.333c0-7.625,6.833-19.104,12.563-27.396c3.979-5.75,13.563-5.75,17.542,0
			C409.167,204.896,416,216.375,416,224z M107.792,155.229c2.656-5.25,9.052-7.417,14.313-4.771L160,169.417l37.896-18.958
			c5.271-2.646,11.656-0.479,14.313,4.771c2.635,5.271,0.5,11.667-4.771,14.313l-42.667,21.333c-1.5,0.75-3.135,1.125-4.771,1.125
			s-3.271-0.375-4.771-1.125l-42.667-21.333C107.292,166.896,105.156,160.5,107.792,155.229z M108.563,196.604
			c3.979-5.75,13.563-5.75,17.542,0c5.729,8.292,12.563,19.771,12.563,27.396c0,11.771-9.573,21.333-21.333,21.333
			C105.573,245.333,96,235.771,96,224C96,216.375,102.833,204.896,108.563,196.604z M106.667,320
			c-11.76,0-21.333-9.563-21.333-21.333c0-7.625,6.833-19.104,12.563-27.396c3.979-5.75,13.563-5.75,17.542,0
			c5.729,8.292,12.563,19.771,12.563,27.396C128,310.438,118.427,320,106.667,320z M379.74,381.875
			c-1.927,1.438-4.167,2.125-6.396,2.125c-3.24,0-6.448-1.479-8.542-4.271c-1.167-1.5-30.573-38.375-108.802-38.396
			c-0.021,0-0.042,0-0.063,0c-78.188,0-107.573,36.896-108.781,38.458c-3.573,4.646-10.24,5.542-14.927,2
			c-4.667-3.542-5.615-10.167-2.094-14.854C131.573,365.021,166.344,320,255.938,320c0.021,0,0.042,0,0.063,0
			c89.635,0.021,124.427,45.021,125.865,46.938C385.396,371.646,384.448,378.333,379.74,381.875z M405.333,320
			c-11.76,0-21.333-9.563-21.333-21.333c0-7.625,6.833-19.104,12.563-27.396c3.979-5.75,13.563-5.75,17.542,0
			c5.729,8.292,12.563,19.771,12.563,27.396C426.667,310.438,417.094,320,405.333,320z"/>
	</g>
</g>
<g>
</g>
<g>
</g>
<g>
</g>
<g>
</g>
<g>
</g>
<g>
</g>
<g>
</g>
<g>
</g>
<g>
</g>
<g>
</g>
<g>
</g>
<g>
</g>
<g>
</g>
<g>
</g>
<g>
</g>
</svg>
