<?xml version="1.0" encoding="iso-8859-1"?>
<!-- Generator: Adobe Illustrator 19.0.0, SVG Export Plug-In . SVG Version: 6.00 Build 0)  -->
<svg fill='#eeeeee' version="1.1" id="Capa_1" xmlns="http://www.w3.org/2000/svg" xmlns:xlink="http://www.w3.org/1999/xlink" x="0px" y="0px"
	 viewBox="0 0 512 512" style="enable-background:new 0 0 512 512;" xml:space="preserve">
<g>
	<g>
		<path d="M256,0C114.833,0,0,114.844,0,256s114.833,256,256,256s256-114.844,256-256S397.167,0,256,0z M341.333,170.667
			c11.771,0,21.333,9.573,21.333,21.333s-9.563,21.333-21.333,21.333C329.563,213.333,320,203.76,320,192
			S329.563,170.667,341.333,170.667z M170.667,170.667C182.438,170.667,192,180.24,192,192s-9.563,21.333-21.333,21.333
			c-11.771,0-21.333-9.573-21.333-21.333S158.896,170.667,170.667,170.667z M388.125,404.51c-1.333,0.563-2.729,0.823-4.104,0.823
			c-4.167,0-8.146-2.469-9.854-6.563c-19.938-47.875-66.354-78.802-118.208-78.802c-51.854,0-98.25,30.927-118.188,78.781
			c-2.271,5.438-8.604,8.021-13.958,5.74c-5.438-2.271-8-8.51-5.75-13.948c23.292-55.833,77.417-91.906,137.896-91.906
			c60.5,0,114.625,36.083,137.917,91.927C396.125,396,393.563,402.25,388.125,404.51z M373.292,298.667c-17.646,0-32-14.354-32-32
			c0-13.635,16.25-38.615,23.229-48.729c3.958-5.771,13.583-5.771,17.542,0c6.979,10.115,23.229,35.094,23.229,48.729
			C405.292,284.313,390.938,298.667,373.292,298.667z"/>
	</g>
</g>
<g>
</g>
<g>
</g>
<g>
</g>
<g>
</g>
<g>
</g>
<g>
</g>
<g>
</g>
<g>
</g>
<g>
</g>
<g>
</g>
<g>
</g>
<g>
</g>
<g>
</g>
<g>
</g>
<g>
</g>
</svg>
