<?xml version="1.0" encoding="iso-8859-1"?>
<!-- Generator: Adobe Illustrator 19.0.0, SVG Export Plug-In . SVG Version: 6.00 Build 0)  -->
<svg fill='#eeeeee' version="1.1" id="Capa_1" xmlns="http://www.w3.org/2000/svg" xmlns:xlink="http://www.w3.org/1999/xlink" x="0px" y="0px"
	 viewBox="0 0 512 512" style="enable-background:new 0 0 512 512;" xml:space="preserve">
<g>
	<g>
		<path d="M428.771,444.411C481.616,395.932,512,328.064,512,256C512,114.844,397.167,0,256,0S0,114.844,0,256
			c0,72.06,30.376,139.926,83.224,188.402C71.569,450.652,64,462.423,64,475.896C64,495.802,80.188,512,100.104,512h98.458
			c5.523,0,10.701-1.346,15.384-3.57C227.733,510.714,241.849,512,256,512c14.109,0,28.211-1.286,42.057-3.569
			c4.684,2.224,9.858,3.569,15.38,3.569h98.458C431.813,512,448,495.802,448,475.896C448,462.44,440.447,450.681,428.771,444.411z
			 M437.333,256c5.896,0,10.667,4.771,10.667,10.667c0,45.326-19.004,88.535-53.333,122.365V256H437.333z M64,266.667
			C64,260.771,68.771,256,74.667,256h42.667v132.773C82.591,354.174,64,311.458,64,266.667z M198.563,490.667h-98.458
			c-8.146,0-14.771-6.625-14.771-14.771c0-6.073,3.646-11.469,9.354-13.74c26.729-10.698,43.979-36.208,43.979-64.979v-226.51H96
			c-5.896,0-10.667-4.771-10.667-10.667S90.104,149.333,96,149.333h106.667c5.896,0,10.667,4.771,10.667,10.667
			s-4.771,10.667-10.667,10.667H160v226.51c0,28.771,17.25,54.281,44.042,65c5.646,2.25,9.292,7.646,9.292,13.719
			C213.333,484.042,206.708,490.667,198.563,490.667z M256,448c-15.634,0-31.16-2.628-46.78-7.224
			c-16.902-8.057-27.887-24.66-27.887-43.599V256h149.333v141.177c0,18.965-11.01,35.596-28.007,43.656
			C287.082,445.398,271.595,448,256,448z M411.896,490.667h-98.458c-8.146,0-14.771-6.625-14.771-14.771
			c0-6.073,3.646-11.469,9.354-13.74C334.75,451.458,352,425.948,352,397.177v-226.51h-42.667c-5.896,0-10.667-4.771-10.667-10.667
			s4.771-10.667,10.667-10.667H416c5.896,0,10.667,4.771,10.667,10.667s-4.771,10.667-10.667,10.667h-42.667v226.51
			c0,28.771,17.25,54.281,44.042,65c5.646,2.25,9.292,7.646,9.292,13.719C426.667,484.042,420.042,490.667,411.896,490.667z"/>
	</g>
</g>
<g>
</g>
<g>
</g>
<g>
</g>
<g>
</g>
<g>
</g>
<g>
</g>
<g>
</g>
<g>
</g>
<g>
</g>
<g>
</g>
<g>
</g>
<g>
</g>
<g>
</g>
<g>
</g>
<g>
</g>
</svg>
