<?xml version="1.0" encoding="iso-8859-1"?>
<!-- Generator: Adobe Illustrator 19.0.0, SVG Export Plug-In . SVG Version: 6.00 Build 0)  -->
<svg fill='#eeeeee' version="1.1" id="Capa_1" xmlns="http://www.w3.org/2000/svg" xmlns:xlink="http://www.w3.org/1999/xlink" x="0px" y="0px"
	 viewBox="0 0 512 512" style="enable-background:new 0 0 512 512;" xml:space="preserve">
<g>
	<g>
		<path d="M428.674,444.355C481.626,395.861,512,328.22,512,256C512,114.844,397.167,0,256,0S0,114.844,0,256
			c0,72.216,30.37,139.855,83.316,188.349C71.605,450.582,64,462.387,64,475.896C64,495.802,80.188,512,100.104,512h98.458
			c5.656,0,10.943-1.422,15.711-3.749C228.698,510.656,242.465,512,256,512s27.305-1.342,41.728-3.749
			c4.768,2.327,10.053,3.749,15.71,3.749h98.458C431.813,512,448,495.802,448,475.896C448,462.402,440.406,450.612,428.674,444.355z
			 M198.563,490.667h-98.458c-8.146,0-14.771-6.625-14.771-14.771c0-6.073,3.646-11.469,9.354-13.74
			c26.729-10.698,43.979-36.208,43.979-64.979V212.646c-38.992-3.374-50.926-23.977-52.208-26.542
			c-2.625-5.271-0.5-11.677,4.771-14.313c5.229-2.594,11.5-0.573,14.208,4.552c0.583,1.01,9.813,15.656,43.896,15.656
			c34.563,0,43.563-15.042,43.917-15.688c2.875-5,9.292-6.958,14.375-4.25c5.083,2.729,7.167,8.875,4.583,14.042
			c-1.283,2.565-13.216,23.168-52.208,26.542v184.531c0,28.771,17.25,54.281,44.042,65c5.646,2.25,9.292,7.646,9.292,13.719
			C213.333,484.042,206.708,490.667,198.563,490.667z M192,362.667c-5.896,0-10.667-4.771-10.667-10.667
			c0-5.896,4.771-10.667,10.667-10.667h128c5.896,0,10.667,4.771,10.667,10.667c0,5.896-4.771,10.667-10.667,10.667H192z
			 M411.896,490.667h-98.458c-8.146,0-14.771-6.625-14.771-14.771c0-6.073,3.646-11.469,9.354-13.74
			C334.75,451.458,352,425.948,352,397.177V212.646c-38.992-3.374-50.926-23.977-52.208-26.542
			c-2.625-5.271-0.5-11.677,4.771-14.313c5.229-2.594,11.5-0.573,14.208,4.552c0.583,1.01,9.813,15.656,43.896,15.656
			c34.563,0,43.563-15.042,43.917-15.688c2.896-5,9.271-6.958,14.375-4.25c5.083,2.729,7.167,8.875,4.583,14.042
			c-1.283,2.565-13.216,23.168-52.208,26.542v184.531c0,28.771,17.25,54.281,44.042,65c5.646,2.25,9.292,7.646,9.292,13.719
			C426.667,484.042,420.042,490.667,411.896,490.667z"/>
	</g>
</g>
<g>
</g>
<g>
</g>
<g>
</g>
<g>
</g>
<g>
</g>
<g>
</g>
<g>
</g>
<g>
</g>
<g>
</g>
<g>
</g>
<g>
</g>
<g>
</g>
<g>
</g>
<g>
</g>
<g>
</g>
</svg>
