<?xml version="1.0" encoding="iso-8859-1"?>
<!-- Generator: Adobe Illustrator 19.0.0, SVG Export Plug-In . SVG Version: 6.00 Build 0)  -->
<svg fill='#eeeeee' version="1.1" id="Capa_1" xmlns="http://www.w3.org/2000/svg" xmlns:xlink="http://www.w3.org/1999/xlink" x="0px" y="0px"
	 viewBox="0 0 512 512" style="enable-background:new 0 0 512 512;" xml:space="preserve">
<g>
	<g>
		<path d="M444.151,137.383c24.173-43.473,25.182-115.41,25.182-126.716c0-0.063,0-0.135,0-0.198c0-0.042,0-0.073,0-0.115
			c-0.01-0.052-0.01-0.104-0.01-0.156c0-0.031,0-0.063,0-0.083c0,0,0-0.01,0-0.021c0,0,0-0.01-0.01-0.01
			C469.01,4.469,464.365,0,458.667,0C452.781,0,448.01,4.771,448,10.656v0.01v0.01c-0.01,5.615-5.49,26.333-75.458,57.906
			c-1.703,0.768-3.116,1.751-4.667,2.635c-67.758-36.799-152.294-38.079-223.43,0.181c-1.646-0.952-3.167-1.995-4.987-2.816
			C69.49,37.01,64.01,16.292,64,10.677v-0.01v-0.01C63.99,4.771,59.219,0,53.333,0C47.635,0,42.99,4.469,42.687,10.083
			c-0.01,0-0.01,0.01-0.01,0.01c0,0.01,0,0.021,0,0.021c-0.01,0.021-0.01,0.052,0,0.083c0,0.052,0,0.104-0.01,0.156
			c0,0.042,0,0.073,0,0.115c0,0.063,0,0.135,0,0.198c0,11.305,1.009,83.23,25.174,126.704
			c-30.34,40.681-46.508,88.868-46.508,139.962C21.333,406.729,126.604,512,256,512s234.667-105.271,234.667-234.667
			C490.667,226.229,474.5,178.056,444.151,137.383z M309.333,213.333c26.01,0,58.083-19.552,58.406-19.75
			c4.979-3.063,11.573-1.542,14.667,3.49c3.094,5.01,1.542,11.573-3.469,14.667c-0.701,0.435-8.974,5.409-20.668,10.604
			c2.573,3.525,4.397,7.637,4.397,12.323c0,11.76-9.573,21.333-21.333,21.333c-11.76,0-21.333-9.573-21.333-21.333
			c0-0.299,0.159-0.547,0.171-0.844c-3.624,0.487-7.257,0.844-10.837,0.844c-5.896,0-10.667-4.771-10.667-10.667
			S303.437,213.333,309.333,213.333z M213.333,224c0,5.896-4.771,10.667-10.667,10.667c-3.581,0-7.214-0.357-10.837-0.844
			c0.012,0.297,0.171,0.544,0.171,0.844c0,11.76-9.573,21.333-21.333,21.333c-11.76,0-21.333-9.573-21.333-21.333
			c0-4.686,1.824-8.798,4.397-12.323c-11.694-5.195-19.967-10.169-20.668-10.604c-5.01-3.094-6.563-9.656-3.469-14.667
			c3.083-5.031,9.698-6.552,14.667-3.49c0.323,0.198,32.396,19.75,58.406,19.75C208.562,213.333,213.333,218.104,213.333,224z
			 M66.531,50.594c14.573,12.26,35.906,24.688,64.156,37.427c16.875,7.625,20.25,23.969,18.01,35.656
			c-2.26,11.833-11.031,24.76-28.854,25.573l-3.531,0.083C85.073,149.333,71.542,94.219,66.531,50.594z M405.042,333.135
			c-7.996,33.699-28.076,62.643-55.053,83.085c-27.53-13.768-60.935-14.716-89.895,0.061c-30.539-15.585-65.941-13.553-94.271,2.449
			c-28.853-20.548-50.55-50.378-58.875-85.616c-0.75-3.167,0-6.51,2.021-9.063c2.021-2.563,5.104-4.052,8.365-4.052h36.073
			l18.385,36.771c1.813,3.615,5.5,5.896,9.542,5.896c4.042,0,7.729-2.281,9.542-5.896L209.26,320h93.078l17.984,35.969
			c1.813,3.615,5.5,5.896,9.542,5.896c4.042,0,7.729-2.281,9.542-5.896L357.391,320h37.276c3.26,0,6.344,1.49,8.365,4.052
			C405.062,326.615,405.802,329.958,405.042,333.135z M395.687,149.333l-3.552-0.083c-17.802-0.813-26.573-13.74-28.833-25.573
			c-2.24-11.688,1.135-28.031,18.01-35.656c28.25-12.74,49.583-25.167,64.156-37.427
			C440.458,94.219,426.927,149.333,395.687,149.333z"/>
	</g>
</g>
<g>
</g>
<g>
</g>
<g>
</g>
<g>
</g>
<g>
</g>
<g>
</g>
<g>
</g>
<g>
</g>
<g>
</g>
<g>
</g>
<g>
</g>
<g>
</g>
<g>
</g>
<g>
</g>
<g>
</g>
</svg>
