<?xml version="1.0" encoding="iso-8859-1"?>
<!-- Generator: Adobe Illustrator 19.0.0, SVG Export Plug-In . SVG Version: 6.00 Build 0)  -->
<svg fill='#eeeeee' version="1.1" id="Capa_1" xmlns="http://www.w3.org/2000/svg" xmlns:xlink="http://www.w3.org/1999/xlink" x="0px" y="0px"
	 viewBox="0 0 512 512" style="enable-background:new 0 0 512 512;" xml:space="preserve">
<g>
	<g>
		<path d="M256,0C114.844,0,0,114.844,0,256s114.844,256,256,256s256-114.844,256-256S397.156,0,256,0z M321.125,112.563
			c2.635-5.271,9.052-7.385,14.313-4.771l42.667,21.333c5.271,2.635,7.406,9.042,4.771,14.313c-1.875,3.74-5.635,5.896-9.552,5.896
			c-1.604,0-3.229-0.365-4.76-1.125l-42.667-21.333C320.625,124.24,318.49,117.833,321.125,112.563z M341.333,170.667
			c11.76,0,21.333,9.573,21.333,21.333s-9.573,21.333-21.333,21.333C329.573,213.333,320,203.76,320,192
			S329.573,170.667,341.333,170.667z M133.896,129.125l42.667-21.333c5.271-2.615,11.677-0.5,14.313,4.771s0.5,11.677-4.771,14.313
			l-42.667,21.333c-1.531,0.76-3.156,1.125-4.76,1.125c-3.917,0-7.677-2.156-9.552-5.896
			C126.49,138.167,128.625,131.76,133.896,129.125z M192,192c0,11.76-9.573,21.333-21.333,21.333
			c-11.76,0-21.333-9.573-21.333-21.333s9.573-21.333,21.333-21.333C182.427,170.667,192,180.24,192,192z M383.677,377.854
			c-1.208,8.469-5.635,15.948-12.479,21.083c-5.573,4.177-12.208,6.396-19.177,6.396c-10.031,0-19.604-4.781-25.615-12.802
			c-0.823-1.031-23.99-29.865-70.406-29.865c-46.458,0-69.677,28.948-70.646,30.188c-10.781,13.813-30.854,16.438-44.708,5.844
			c-13.917-10.615-16.708-30.604-6.24-44.563c1.677-2.25,42.302-55.469,121.594-55.469s119.917,53.219,121.615,55.49
			C382.729,360.969,384.885,369.396,383.677,377.854z"/>
	</g>
</g>
<g>
</g>
<g>
</g>
<g>
</g>
<g>
</g>
<g>
</g>
<g>
</g>
<g>
</g>
<g>
</g>
<g>
</g>
<g>
</g>
<g>
</g>
<g>
</g>
<g>
</g>
<g>
</g>
<g>
</g>
</svg>
