<?xml version="1.0" encoding="iso-8859-1"?>
<!-- Generator: Adobe Illustrator 19.0.0, SVG Export Plug-In . SVG Version: 6.00 Build 0)  -->
<svg fill='#eeeeee' version="1.1" id="Capa_1" xmlns="http://www.w3.org/2000/svg" xmlns:xlink="http://www.w3.org/1999/xlink" x="0px" y="0px"
	 viewBox="0 0 512 512" style="enable-background:new 0 0 512 512;" xml:space="preserve">
<g>
	<g>
		<path d="M256,0C114.844,0,0,114.833,0,256s114.844,256,256,256s256-114.833,256-256S397.156,0,256,0z M299.792,133.896
			c2.635-5.271,9.042-7.438,14.313-4.771l85.333,42.667c5.271,2.646,7.406,9.042,4.771,14.313c-1.875,3.729-5.635,5.896-9.552,5.896
			c-1.604,0-3.229-0.354-4.76-1.125l-85.333-42.667C299.292,145.563,297.156,139.167,299.792,133.896z M112.563,171.792
			l85.333-42.667c5.25-2.667,11.677-0.5,14.313,4.771c2.635,5.271,0.5,11.667-4.771,14.313l-85.333,42.667
			c-1.531,0.771-3.156,1.125-4.76,1.125c-3.917,0-7.677-2.167-9.552-5.896C105.156,180.833,107.292,174.438,112.563,171.792z
			 M318.969,384.5c-6.042,31.083-36.49,42.167-62.969,42.167c-26.458,0-56.885-11.063-62.958-42.104
			c-0.802-4.104,0.604-8.333,3.573-10.75c9.302-7.604,18-11.146,27.385-11.146c7.336,0,14.435,2.029,21.333,5.159V384
			c0,5.896,4.771,10.667,10.667,10.667s10.667-4.771,10.667-10.667v-16.618c15.73-7.319,32.505-7.031,48.76,6.389h0.01
			C318.375,376.208,319.76,380.417,318.969,384.5z M403.031,401.292c-2.021,2.542-5.104,4.042-8.365,4.042h-60.585
			c2.533-5.249,4.658-10.747,5.824-16.75c2.302-11.854-1.875-23.833-10.927-31.271c-22.958-18.917-49.375-20-72.979-8.521
			c-23.458-11.396-49.635-10.521-72.896,8.5c-9.094,7.458-13.313,19.458-11,31.354c1.169,5.98,3.289,11.458,5.814,16.688h-60.585
			c-3.26,0-6.344-1.5-8.365-4.063c-2.031-2.542-2.771-5.896-2.01-9.063C122.75,325.646,185.438,277.333,256,277.333
			c70.646,0,133.323,48.313,149.052,114.875C405.802,395.396,405.052,398.729,403.031,401.292z"/>
	</g>
</g>
<g>
</g>
<g>
</g>
<g>
</g>
<g>
</g>
<g>
</g>
<g>
</g>
<g>
</g>
<g>
</g>
<g>
</g>
<g>
</g>
<g>
</g>
<g>
</g>
<g>
</g>
<g>
</g>
<g>
</g>
</svg>
