<?xml version="1.0" encoding="iso-8859-1"?>
<!-- Generator: Adobe Illustrator 19.0.0, SVG Export Plug-In . SVG Version: 6.00 Build 0)  -->
<svg fill='#eeeeee' version="1.1" id="Capa_1" xmlns="http://www.w3.org/2000/svg" xmlns:xlink="http://www.w3.org/1999/xlink" x="0px" y="0px"
	 viewBox="0 0 512 512" style="enable-background:new 0 0 512 512;" xml:space="preserve">
<g>
	<g>
		<path d="M501.333,320c0-12.729-5.604-24.167-14.479-32c8.875-7.833,14.479-19.271,14.479-32c0-11.417-4.448-22.125-12.521-30.188
			c-2.857-2.853-6.134-5.074-9.569-6.983C471.049,95.621,369.69,0,245.333,0C115.937,0,10.667,105.271,10.667,234.667
			s105.271,234.667,234.667,234.667c29.632,0,58.197-5.711,85.333-16.358v16.358c0,23.521,19.135,42.667,42.667,42.667
			S416,492.854,416,469.333v-42.667h42.667c23.531,0,42.667-19.146,42.667-42.667c0-12.729-5.604-24.167-14.479-32
			C495.729,344.167,501.333,332.729,501.333,320z M160,192c-11.76,0-21.333-9.563-21.333-21.333
			c0-11.771,9.573-21.333,21.333-21.333s21.333,9.563,21.333,21.333C181.333,182.438,171.76,192,160,192z M298.667,341.333H192
			c-5.896,0-10.667-4.771-10.667-10.667c0-5.896,4.771-10.667,10.667-10.667h106.667c5.896,0,10.667,4.771,10.667,10.667
			C309.333,336.563,304.563,341.333,298.667,341.333z M330.667,192c-11.76,0-21.333-9.563-21.333-21.333
			c0-11.771,9.573-21.333,21.333-21.333S352,158.896,352,170.667C352,182.438,342.427,192,330.667,192z M394.667,469.333
			c0,11.771-9.573,21.333-21.333,21.333c-11.76,0-21.333-9.563-21.333-21.333V288.042c0-27.667,21.255-50.214,48.246-52.819
			c-3.548,6.314-5.607,13.382-5.6,20.819c0.005,12.79,5.794,24.151,14.753,31.97c-8.952,7.827-14.732,19.194-14.732,31.988
			c0,8.842,2.71,17.063,7.336,23.884c-16.635,5.828-28.669,21.522-28.669,40.116c0,15.717,8.642,29.328,21.333,36.732V469.333z
			 M458.667,405.333H416c-11.76,0-21.333-9.563-21.333-21.333c0-11.771,9.573-21.333,21.333-21.333h42.667
			c11.76,0,21.333,9.563,21.333,21.333C480,395.771,470.427,405.333,458.667,405.333z M458.667,341.333h-21.333
			c-11.76,0-21.333-9.563-21.333-21.333s9.573-21.333,21.333-21.333h21.333c11.76,0,21.333,9.563,21.333,21.333
			S470.427,341.333,458.667,341.333z M458.667,277.333h-21.333h-0.031c-11.75,0-21.313-9.563-21.323-21.313
			c-0.01-5.688,2.208-11.063,6.229-15.083c4.021-4.042,9.375-6.25,15.083-6.25l21.365-0.021c0,0,0.021,0,0.031,0
			c5.677,0,11.031,2.208,15.052,6.229c4.042,4.042,6.26,9.396,6.26,15.104C480,267.771,470.427,277.333,458.667,277.333z"/>
	</g>
</g>
<g>
</g>
<g>
</g>
<g>
</g>
<g>
</g>
<g>
</g>
<g>
</g>
<g>
</g>
<g>
</g>
<g>
</g>
<g>
</g>
<g>
</g>
<g>
</g>
<g>
</g>
<g>
</g>
<g>
</g>
</svg>
