<?xml version="1.0" encoding="iso-8859-1"?>
<!-- Generator: Adobe Illustrator 19.0.0, SVG Export Plug-In . SVG Version: 6.00 Build 0)  -->
<svg fill='#eeeeee' version="1.1" id="Capa_1" xmlns="http://www.w3.org/2000/svg" xmlns:xlink="http://www.w3.org/1999/xlink" x="0px" y="0px"
	 viewBox="0 0 512 512" style="enable-background:new 0 0 512 512;" xml:space="preserve">
<g>
	<g>
		<path d="M256,0C114.844,0,0,114.833,0,256s114.844,256,256,256s256-114.833,256-256S397.156,0,256,0z M85.333,202.667
			C85.333,196.771,90.104,192,96,192h64.612c-5.587,6.201-9.154,13.577-10.525,21.333H96
			C90.104,213.333,85.333,208.563,85.333,202.667z M255.948,362.667c-69.427,0-109.344,39.146-109.74,39.542
			c-2.083,2.083-4.813,3.125-7.542,3.125c-2.729,0-5.458-1.042-7.542-3.125c-4.167-4.167-4.167-10.917,0-15.083
			c1.828-1.837,45.12-43.818,120.426-45.492L267.833,358c2.043,2.065,4.358,3.807,6.589,5.65
			C268.646,363.038,262.966,362.63,255.948,362.667z M380.885,402.188c-2.083,2.083-4.823,3.125-7.563,3.125
			c-2.708,0-5.427-1.021-7.51-3.083c-0.1-0.1-9.895-9.48-27.431-18.982c9.746-0.911,19.258-3.294,28.234-7.402
			c8.844,6.224,13.953,10.974,14.259,11.28C385.031,391.292,385.031,398.021,380.885,402.188z M426.667,270.854
			c0,14.604-5.667,28.333-15.969,38.688l-33.323,33.521c-20.323,20.438-51.302,25.417-77.031,12.521
			c-6.469-3.271-12.313-7.5-17.375-12.604L177.073,236.521c-8.531-8.583-8.531-22.542,0-31.125
			c4.104-4.125,9.573-6.396,15.396-6.396c5.625,0,10.917,2.125,14.979,6l38.667,38.875c4.156,4.188,10.885,4.167,15.083,0.042
			c4.177-4.146,4.198-10.896,0.042-15.083l-38.26-38.479c-0.188-0.188-0.385-0.375-0.573-0.563l-14.729-14.813
			c-8.531-8.583-8.531-22.542,0-31.125c8.208-8.25,22.583-8.25,30.792,0l14.75,14.833c0.177,0.188,0.365,0.375,0.552,0.563
			l38.26,38.458c4.146,4.167,10.896,4.167,15.083,0.042c4.177-4.146,4.198-10.917,0.042-15.083L268.5,143.792
			c-8.135-8.604-8-22.271,0.396-30.708c8.208-8.25,22.74-8.104,30.635-0.146l66.083,69.229c3.01,3.146,7.615,4.146,11.688,2.521
			c4.042-1.625,6.698-5.542,6.698-9.896v-36.125c0-11.771,9.573-21.333,21.333-21.333c11.76,0,21.333,9.563,21.333,21.333V270.854z"
			/>
	</g>
</g>
<g>
</g>
<g>
</g>
<g>
</g>
<g>
</g>
<g>
</g>
<g>
</g>
<g>
</g>
<g>
</g>
<g>
</g>
<g>
</g>
<g>
</g>
<g>
</g>
<g>
</g>
<g>
</g>
<g>
</g>
</svg>
