<?xml version="1.0" encoding="iso-8859-1"?>
<!-- Generator: Adobe Illustrator 19.0.0, SVG Export Plug-In . SVG Version: 6.00 Build 0)  -->
<svg fill='#eeeeee' version="1.1" id="Capa_1" xmlns="http://www.w3.org/2000/svg" xmlns:xlink="http://www.w3.org/1999/xlink" x="0px" y="0px"
	 viewBox="0 0 512 512" style="enable-background:new 0 0 512 512;" xml:space="preserve">
<g>
	<g>
		<g>
			<path d="M149.333,138.667c-11.76,0-21.333,9.563-21.333,21.333s9.573,21.333,21.333,21.333c11.76,0,21.333-9.563,21.333-21.333
				S161.094,138.667,149.333,138.667z"/>
			<path d="M320,138.667c-11.76,0-21.333,9.563-21.333,21.333s9.573,21.333,21.333,21.333s21.333-9.563,21.333-21.333
				S331.76,138.667,320,138.667z"/>
			<path d="M256,0C114.844,0,0,114.833,0,256s114.844,256,256,256s256-114.833,256-256S397.156,0,256,0z M95.99,149.333
				c-1.604,0-3.229-0.354-4.76-1.125c-5.271-2.646-7.406-9.042-4.771-14.313c24.01-48,91.99-48.563,94.875-48.563
				c5.885,0,10.646,4.771,10.656,10.646c0.01,5.896-4.75,10.667-10.635,10.688c-0.583,0-57.729,0.604-75.813,36.771
				C103.667,147.167,99.906,149.333,95.99,149.333z M106.667,202.667c0-41.167,28.708-74.667,64-74.667c35.292,0,64,33.5,64,74.667
				c0,41.167-28.708,74.667-64,74.667C135.375,277.333,106.667,243.833,106.667,202.667z M309.333,384H202.667
				c-5.896,0-10.667-4.771-10.667-10.667c0-5.896,4.771-10.667,10.667-10.667h106.667c5.896,0,10.667,4.771,10.667,10.667
				C320,379.229,315.229,384,309.333,384z M341.333,277.333c-35.292,0-64-33.5-64-74.667c0-41.167,28.708-74.667,64-74.667
				c35.292,0,64,33.5,64,74.667C405.333,243.833,376.625,277.333,341.333,277.333z M420.771,148.208
				c-1.531,0.771-3.156,1.125-4.76,1.125c-3.917,0-7.677-2.167-9.552-5.896c-18.177-36.354-75.219-36.771-75.792-36.771
				C324.771,106.667,320,101.896,320,96s4.771-10.667,10.667-10.667c2.885,0,70.865,0.563,94.875,48.563
				C428.177,139.167,426.042,145.563,420.771,148.208z"/>
		</g>
	</g>
</g>
<g>
</g>
<g>
</g>
<g>
</g>
<g>
</g>
<g>
</g>
<g>
</g>
<g>
</g>
<g>
</g>
<g>
</g>
<g>
</g>
<g>
</g>
<g>
</g>
<g>
</g>
<g>
</g>
<g>
</g>
</svg>
