<?xml version="1.0" encoding="iso-8859-1"?>
<!-- Generator: Adobe Illustrator 19.0.0, SVG Export Plug-In . SVG Version: 6.00 Build 0)  -->
<svg fill='#eeeeee' version="1.1" id="Capa_1" xmlns="http://www.w3.org/2000/svg" xmlns:xlink="http://www.w3.org/1999/xlink" x="0px" y="0px"
	 viewBox="0 0 512 512" style="enable-background:new 0 0 512 512;" xml:space="preserve">
<g>
	<g>
		<path d="M256,0C114.833,0,0,114.833,0,256s114.833,256,256,256s256-114.833,256-256S397.167,0,256,0z M304.542,193.125
			l85.354-42.667c5.292-2.625,11.667-0.5,14.313,4.771c2.625,5.271,0.5,11.688-4.771,14.313l-66.271,33.125l66.271,33.125
			c5.271,2.625,7.396,9.042,4.771,14.313c-1.875,3.729-5.646,5.896-9.542,5.896c-1.604,0-3.229-0.354-4.771-1.125l-85.354-42.667
			c-3.604-1.813-5.896-5.5-5.896-9.542C298.646,198.625,300.938,194.938,304.542,193.125z M112.563,169.542
			c-5.271-2.625-7.396-9.042-4.771-14.313c2.646-5.271,9.063-7.375,14.313-4.771l85.354,42.667c3.604,1.813,5.896,5.5,5.896,9.542
			c0,4.042-2.292,7.729-5.896,9.542l-85.354,42.667c-1.542,0.771-3.167,1.125-4.771,1.125c-3.896,0-7.667-2.167-9.542-5.896
			c-2.625-5.271-0.5-11.688,4.771-14.313l66.271-33.125L112.563,169.542z M416,362.667h-21.333c-4.042,0-7.729-2.292-9.542-5.896
			l-13.104-26.229l-32.479,48.708c-2.063,3.083-5.438,4.75-8.875,4.75c-2.042,0-4.104-0.583-5.917-1.792l-58.854-39.229
			l-37.125,18.563c-1.479,0.729-3.125,1.125-4.771,1.125h-42.667c-2.833,0-5.542-1.125-7.542-3.125l-35.125-35.125l-35.125,35.125
			c-4.167,4.167-10.917,4.167-15.083,0c-4.167-4.167-4.167-10.917,0-15.083l42.667-42.667c4.167-4.167,10.917-4.167,15.083,0
			l39.542,39.542h35.729l40.417-20.208c3.396-1.708,7.479-1.458,10.688,0.667l55.125,36.75l36.75-55.125
			c2.104-3.167,5.75-4.938,9.542-4.729c3.792,0.229,7.167,2.479,8.875,5.875l18.375,36.771H416c5.896,0,10.667,4.771,10.667,10.667
			C426.667,357.896,421.896,362.667,416,362.667z"/>
	</g>
</g>
<g>
</g>
<g>
</g>
<g>
</g>
<g>
</g>
<g>
</g>
<g>
</g>
<g>
</g>
<g>
</g>
<g>
</g>
<g>
</g>
<g>
</g>
<g>
</g>
<g>
</g>
<g>
</g>
<g>
</g>
</svg>
