<?xml version="1.0" encoding="iso-8859-1"?>
<!-- Generator: Adobe Illustrator 19.0.0, SVG Export Plug-In . SVG Version: 6.00 Build 0)  -->
<svg fill='#eeeeee' version="1.1" id="Capa_1" xmlns="http://www.w3.org/2000/svg" xmlns:xlink="http://www.w3.org/1999/xlink" x="0px" y="0px"
	 viewBox="0 0 512 512" style="enable-background:new 0 0 512 512;" xml:space="preserve">
<g>
	<g>
		<path d="M256,0C114.844,0,0,114.844,0,256s114.844,256,256,256s256-114.844,256-256S397.156,0,256,0z M170.667,170.667
			c11.76,0,21.333,9.573,21.333,21.333s-9.573,21.333-21.333,21.333c-11.76,0-21.333-9.573-21.333-21.333
			S158.906,170.667,170.667,170.667z M340.521,377.417c-1.646,3.99-5.542,6.583-9.854,6.583H200.788
			c6.37,10.888,12.546,23.594,12.546,32c0,17.646-14.354,32-32,32c-17.646,0-32-14.354-32-32c0-13.635,16.24-38.615,23.219-48.729
			c0.21-0.303,0.573-0.411,0.813-0.682c0.199-0.238,0.204-0.574,0.427-0.797l20.042-20.042C210.438,329.146,232.51,320,256,320
			s45.563,9.146,62.167,25.75l20.042,20.042C341.26,368.844,342.177,373.427,340.521,377.417z M341.333,213.333
			C329.573,213.333,320,203.76,320,192s9.573-21.333,21.333-21.333c11.76,0,21.333,9.573,21.333,21.333
			S353.094,213.333,341.333,213.333z"/>
	</g>
</g>
<g>
</g>
<g>
</g>
<g>
</g>
<g>
</g>
<g>
</g>
<g>
</g>
<g>
</g>
<g>
</g>
<g>
</g>
<g>
</g>
<g>
</g>
<g>
</g>
<g>
</g>
<g>
</g>
<g>
</g>
</svg>
