<?xml version="1.0" encoding="iso-8859-1"?>
<!-- Generator: Adobe Illustrator 19.0.0, SVG Export Plug-In . SVG Version: 6.00 Build 0)  -->
<svg fill='#eeeeee' version="1.1" id="Capa_1" xmlns="http://www.w3.org/2000/svg" xmlns:xlink="http://www.w3.org/1999/xlink" x="0px" y="0px"
	 viewBox="0 0 512 512" style="enable-background:new 0 0 512 512;" xml:space="preserve">
<g>
	<g>
		<path d="M256,0C114.844,0,0,114.833,0,256s114.844,256,256,256s256-114.833,256-256S397.156,0,256,0z M300.802,132.271
			l12.802-17.063c14.01-18.708,36.344-29.875,59.729-29.875C379.229,85.333,384,90.104,384,96s-4.771,10.667-10.667,10.667
			c-16.708,0-32.656,7.979-42.667,21.333l-12.802,17.063c-2.094,2.792-5.302,4.271-8.542,4.271c-2.229,0-4.469-0.688-6.396-2.125
			C298.219,143.667,297.271,136.979,300.802,132.271z M138.667,85.333c23.385,0,45.719,11.167,59.729,29.875l12.802,17.063
			c3.531,4.708,2.583,11.396-2.125,14.938c-1.927,1.438-4.167,2.125-6.396,2.125c-3.24,0-6.448-1.479-8.542-4.271L181.333,128
			c-10.01-13.354-25.958-21.333-42.667-21.333C132.771,106.667,128,101.896,128,96S132.771,85.333,138.667,85.333z M106.667,160
			c0-5.896,4.771-10.667,10.667-10.667h33.24c23,0,43.344,14.667,50.604,36.479l11.583,34.771c1.854,5.583-1.167,11.625-6.75,13.5
			c-1.125,0.375-2.26,0.542-3.375,0.542c-4.469,0-8.635-2.833-10.125-7.292l-11.583-34.771
			c-4.354-13.104-16.552-21.896-30.354-21.896h-33.24C111.438,170.667,106.667,165.896,106.667,160z M391.542,370.208
			l-21.333,21.333c-2.083,2.083-4.813,3.125-7.542,3.125s-5.458-1.042-7.542-3.125c-4.167-4.167-4.167-10.917,0-15.083l3.273-3.273
			c-12.352-10.978-43.544-31.836-102.398-31.852c-0.021,0-0.042,0-0.063,0c-58.775,0-89.952,20.836-102.335,31.853l3.272,3.272
			c4.167,4.167,4.167,10.917,0,15.083c-2.083,2.083-4.813,3.125-7.542,3.125c-2.729,0-5.458-1.042-7.542-3.125l-21.333-21.333
			c-4.167-4.167-4.167-10.917,0-15.083c4.167-4.167,10.917-4.167,15.083,0l3.01,3.01C153.572,344.522,189.77,320,255.938,320
			c0.021,0,0.042,0,0.063,0c66.199,0.016,102.417,24.533,117.444,38.139l3.014-3.014c4.167-4.167,10.917-4.167,15.083,0
			C395.708,359.292,395.708,366.042,391.542,370.208z M394.667,170.667h-33.25c-13.792,0-25.99,8.792-30.365,21.875l-11.625,34.854
			c-1.49,4.458-5.646,7.292-10.115,7.292c-1.115,0-2.25-0.167-3.375-0.542c-5.583-1.875-8.604-7.917-6.74-13.5l11.625-34.854
			c7.271-21.813,27.604-36.458,50.594-36.458h33.25c5.896,0,10.667,4.771,10.667,10.667S400.563,170.667,394.667,170.667z"/>
	</g>
</g>
<g>
</g>
<g>
</g>
<g>
</g>
<g>
</g>
<g>
</g>
<g>
</g>
<g>
</g>
<g>
</g>
<g>
</g>
<g>
</g>
<g>
</g>
<g>
</g>
<g>
</g>
<g>
</g>
<g>
</g>
</svg>
