<?xml version="1.0" encoding="iso-8859-1"?>
<!-- Generator: Adobe Illustrator 19.0.0, SVG Export Plug-In . SVG Version: 6.00 Build 0)  -->
<svg fill='#eeeeee' version="1.1" id="Capa_1" xmlns="http://www.w3.org/2000/svg" xmlns:xlink="http://www.w3.org/1999/xlink" x="0px" y="0px"
	 viewBox="0 0 512 512" style="enable-background:new 0 0 512 512;" xml:space="preserve">
<g>
	<g>
		<path d="M256,0C114.844,0,0,114.844,0,256s114.844,256,256,256s256-114.844,256-256S397.156,0,256,0z M220.875,88.458
			c4.167,4.167,4.167,10.917,0,15.083l-13.792,13.792l13.792,13.792c4.167,4.167,4.167,10.917,0,15.083
			c-2.083,2.083-4.813,3.125-7.542,3.125c-2.729,0-5.458-1.042-7.542-3.125l-21.333-21.333c-4.167-4.167-4.167-10.917,0-15.083
			l21.333-21.333C209.958,84.292,216.708,84.292,220.875,88.458z M131.125,56.458c4.167-4.167,10.917-4.167,15.083,0L160,70.25
			l13.792-13.792c4.167-4.167,10.917-4.167,15.083,0c4.167,4.167,4.167,10.917,0,15.083l-21.333,21.333
			C165.458,94.958,162.729,96,160,96s-5.458-1.042-7.542-3.125l-21.333-21.333C126.958,67.375,126.958,60.625,131.125,56.458z
			 M106.667,149.333c-2.729,0-5.458-1.042-7.542-3.125c-4.167-4.167-4.167-10.917,0-15.083l13.792-13.792l-13.792-13.792
			c-4.167-4.167-4.167-10.917,0-15.083c4.167-4.167,10.917-4.167,15.083,0l21.333,21.333c4.167,4.167,4.167,10.917,0,15.083
			l-21.333,21.333C112.125,148.292,109.396,149.333,106.667,149.333z M131.125,178.208c-4.167-4.167-4.167-10.917,0-15.083
			l21.333-21.333c4.167-4.167,10.917-4.167,15.083,0l21.333,21.333c4.167,4.167,4.167,10.917,0,15.083
			c-2.083,2.083-4.813,3.125-7.542,3.125c-2.729,0-5.458-1.042-7.542-3.125L160,164.417l-13.792,13.792
			C142.042,182.375,135.292,182.375,131.125,178.208z M192,256c0,11.76-9.573,21.333-21.333,21.333
			c-11.76,0-21.333-9.573-21.333-21.333s9.573-21.333,21.333-21.333C182.427,234.667,192,244.24,192,256z M352,384
			c-2.26,0-3.458,1.021-7.5,6.406c-4.469,5.948-11.219,14.927-24.563,14.927s-20.094-8.979-24.563-14.927
			c-4.042-5.385-5.24-6.406-7.5-6.406c-2.25,0-3.438,1.021-7.479,6.406c-4.458,5.948-11.198,14.927-24.531,14.927
			c-13.323,0-20.052-8.99-24.51-14.938c-4.021-5.385-5.198-6.396-7.427-6.396c-2.24,0-3.417,1.021-7.458,6.396
			c-4.458,5.948-11.188,14.938-24.521,14.938c-13.333,0-20.063-8.99-24.521-14.948C163.406,385.01,162.229,384,160,384
			c-5.896,0-10.667-4.771-10.667-10.667c0-5.896,4.771-10.667,10.667-10.667c13.323,0,20.052,8.99,24.51,14.938
			c4.021,5.375,5.208,6.396,7.438,6.396c2.24,0,3.417-1.021,7.458-6.396c4.458-5.948,11.188-14.938,24.521-14.938
			c13.323,0,20.052,8.99,24.51,14.938c4.021,5.385,5.198,6.396,7.427,6.396c2.24,0,3.427-1.021,7.469-6.396
			c4.458-5.948,11.198-14.938,24.542-14.938s20.094,8.979,24.563,14.927c4.042,5.385,5.24,6.406,7.5,6.406s3.458-1.021,7.5-6.406
			c4.469-5.948,11.219-14.927,24.563-14.927c5.896,0,10.667,4.771,10.667,10.667C362.667,379.229,357.896,384,352,384z
			 M341.333,277.333C329.573,277.333,320,267.76,320,256s9.573-21.333,21.333-21.333c11.76,0,21.333,9.573,21.333,21.333
			S353.094,277.333,341.333,277.333z"/>
	</g>
</g>
<g>
</g>
<g>
</g>
<g>
</g>
<g>
</g>
<g>
</g>
<g>
</g>
<g>
</g>
<g>
</g>
<g>
</g>
<g>
</g>
<g>
</g>
<g>
</g>
<g>
</g>
<g>
</g>
<g>
</g>
</svg>
