<?xml version="1.0" encoding="iso-8859-1"?>
<!-- Generator: Adobe Illustrator 19.0.0, SVG Export Plug-In . SVG Version: 6.00 Build 0)  -->
<svg fill='#eeeeee' version="1.1" id="Capa_1" xmlns="http://www.w3.org/2000/svg" xmlns:xlink="http://www.w3.org/1999/xlink" x="0px" y="0px"
	 viewBox="0 0 512 512" style="enable-background:new 0 0 512 512;" xml:space="preserve">
<g>
	<g>
		<path d="M256,0C114.833,0,0,114.844,0,256s114.833,256,256,256s256-114.844,256-256S397.167,0,256,0z M64,224
			c0-52.938,43.063-96,96-96c5.896,0,10.667,4.771,10.667,10.667c0,5.896-4.771,10.667-10.667,10.667
			c-41.167,0-74.667,33.5-74.667,74.667s33.5,74.667,74.667,74.667c29.417,0,53.333-23.927,53.333-53.333S189.417,192,160,192
			c-17.646,0-32,14.354-32,32s14.354,32,32,32c5.875,0,10.667-4.781,10.667-10.667c0-5.885-4.792-10.667-10.667-10.667
			c-5.896,0-10.667-4.771-10.667-10.667s4.771-10.667,10.667-10.667c17.646,0,32,14.354,32,32c0,17.646-14.354,32-32,32
			c-29.417,0-53.333-23.927-53.333-53.333s23.917-53.333,53.333-53.333c41.167,0,74.667,33.5,74.667,74.667
			C234.667,286.5,201.167,320,160,320C107.063,320,64,276.938,64,224z M309.333,405.333H202.667
			c-5.896,0-10.667-4.771-10.667-10.667S196.771,384,202.667,384h106.667c5.896,0,10.667,4.771,10.667,10.667
			S315.229,405.333,309.333,405.333z M373.333,320c-52.938,0-96-43.063-96-96s43.063-96,96-96c5.896,0,10.667,4.771,10.667,10.667
			c0,5.896-4.771,10.667-10.667,10.667c-41.167,0-74.667,33.5-74.667,74.667s33.5,74.667,74.667,74.667
			c29.417,0,53.333-23.927,53.333-53.333S402.75,192,373.333,192c-17.646,0-32,14.354-32,32s14.354,32,32,32
			c5.875,0,10.667-4.781,10.667-10.667c0-5.885-4.792-10.667-10.667-10.667c-5.896,0-10.667-4.771-10.667-10.667
			s4.771-10.667,10.667-10.667c17.646,0,32,14.354,32,32c0,17.646-14.354,32-32,32C343.917,277.333,320,253.406,320,224
			s23.917-53.333,53.333-53.333c41.167,0,74.667,33.5,74.667,74.667C448,286.5,414.5,320,373.333,320z"/>
	</g>
</g>
<g>
</g>
<g>
</g>
<g>
</g>
<g>
</g>
<g>
</g>
<g>
</g>
<g>
</g>
<g>
</g>
<g>
</g>
<g>
</g>
<g>
</g>
<g>
</g>
<g>
</g>
<g>
</g>
<g>
</g>
</svg>
