<?xml version="1.0" encoding="iso-8859-1"?>
<!-- Generator: Adobe Illustrator 19.0.0, SVG Export Plug-In . SVG Version: 6.00 Build 0)  -->
<svg fill='#eeeeee' version="1.1" id="Capa_1" xmlns="http://www.w3.org/2000/svg" xmlns:xlink="http://www.w3.org/1999/xlink" x="0px" y="0px"
	 viewBox="0 0 512 512" style="enable-background:new 0 0 512 512;" xml:space="preserve">
<g>
	<g>
		<path d="M256,0C114.844,0,0,114.844,0,256s114.844,256,256,256s256-114.844,256-256S397.156,0,256,0z M341.333,170.667
			c11.76,0,21.333,9.573,21.333,21.333s-9.573,21.333-21.333,21.333C329.573,213.333,320,203.76,320,192
			S329.573,170.667,341.333,170.667z M170.667,170.667c11.76,0,21.333,9.573,21.333,21.333s-9.573,21.333-21.333,21.333
			c-11.76,0-21.333-9.573-21.333-21.333S158.906,170.667,170.667,170.667z M416,277.333c-2.427,0-5.01-0.396-8.146-1.229
			c-3.719-1.01-7.615,0.052-10.302,2.76l-48.885,48.885c-2.365,2.354-3.479,5.688-3.021,8.99c0.448,3.313,2.427,6.219,5.333,7.854
			c19.094,10.729,29.802,21.104,29.896,21.198c4.156,4.156,4.156,10.927,0,15.083c-4.042,4.021-10.927,4.135-15.198-0.115
			c-1.656-1.604-41.375-39.417-109.708-39.427c-68.604,0-108.115,37.927-109.74,39.521c-4.24,4.125-11.01,4.104-15.104-0.073
			c-4.104-4.156-4.115-10.885-0.01-14.99C132.99,363.927,177.802,320,256,320c18.708,0,36.594,2.542,54.688,7.771
			c3.719,1.083,7.75,0.042,10.5-2.708l61.281-61.281c2.698-2.698,3.75-6.625,2.76-10.302c-0.833-3.135-1.229-5.719-1.229-8.146
			c0-17.646,14.354-32,32-32c17.646,0,32,14.354,32,32C448,262.979,433.646,277.333,416,277.333z"/>
	</g>
</g>
<g>
</g>
<g>
</g>
<g>
</g>
<g>
</g>
<g>
</g>
<g>
</g>
<g>
</g>
<g>
</g>
<g>
</g>
<g>
</g>
<g>
</g>
<g>
</g>
<g>
</g>
<g>
</g>
<g>
</g>
</svg>
