<?xml version="1.0" encoding="iso-8859-1"?>
<!-- Generator: Adobe Illustrator 19.0.0, SVG Export Plug-In . SVG Version: 6.00 Build 0)  -->
<svg fill='#eeeeee' version="1.1" id="Capa_1" xmlns="http://www.w3.org/2000/svg" xmlns:xlink="http://www.w3.org/1999/xlink" x="0px" y="0px"
	 viewBox="0 0 512 512" style="enable-background:new 0 0 512 512;" xml:space="preserve">
<g>
	<g>
		<path d="M256,0C114.833,0,0,114.844,0,256s114.833,256,256,256s256-114.844,256-256S397.167,0,256,0z M64,178.667
			C64,150.729,87.396,128,116.146,128c13.25,0,24.563,7.385,33.188,15.896c8.625-8.51,19.938-15.896,33.188-15.896
			c28.75,0,52.146,22.729,52.146,50.667c0,13.594-5.479,26.365-15.396,35.958l-62.563,59.75c-2.063,1.969-4.729,2.958-7.375,2.958
			c-2.646,0-5.313-0.99-7.375-2.958l-62.521-59.719C69.479,205.031,64,192.26,64,178.667z M401.292,311.958
			C385.25,379.5,325.521,426.667,256,426.667c-69.604,0-129.375-47.24-145.333-114.885c-1.354-5.729,2.188-11.479,7.917-12.833
			c5.813-1.281,11.5,2.198,12.833,7.938c13.688,57.958,64.917,98.448,124.583,98.448c59.583,0,110.792-40.427,124.542-98.313
			c1.354-5.729,7.188-9.313,12.833-7.906C399.104,300.469,402.646,306.219,401.292,311.958z M432.604,214.625l-62.563,59.75
			c-2.063,1.969-4.729,2.958-7.375,2.958s-5.313-0.99-7.375-2.958l-62.521-59.719c-9.958-9.625-15.438-22.396-15.438-35.99
			c0-27.938,23.396-50.667,52.146-50.667c13.25,0,24.563,7.385,33.188,15.896c8.625-8.51,19.938-15.896,33.188-15.896
			c28.75,0,52.146,22.729,52.146,50.667C448,192.26,442.521,205.031,432.604,214.625z"/>
	</g>
</g>
<g>
</g>
<g>
</g>
<g>
</g>
<g>
</g>
<g>
</g>
<g>
</g>
<g>
</g>
<g>
</g>
<g>
</g>
<g>
</g>
<g>
</g>
<g>
</g>
<g>
</g>
<g>
</g>
<g>
</g>
</svg>
