<?xml version="1.0" encoding="iso-8859-1"?>
<!-- Generator: Adobe Illustrator 19.0.0, SVG Export Plug-In . SVG Version: 6.00 Build 0)  -->
<svg fill='#eeeeee' version="1.1" id="Capa_1" xmlns="http://www.w3.org/2000/svg" xmlns:xlink="http://www.w3.org/1999/xlink" x="0px" y="0px"
	 viewBox="0 0 512 512" style="enable-background:new 0 0 512 512;" xml:space="preserve">
<g>
	<g>
		<path d="M491.635,155.859c-0.007-0.016-0.004-0.031-0.004-0.031c-19.152-44.953-50.684-83.37-91.194-111.12
			C357.75,15.458,307.813,0,256,0C153.156,0,60.667,61.167,20.375,155.833C6.854,187.604,0,221.292,0,256
			c0,9.813,0.698,19.979,2.208,32.042C18.188,415.708,127.292,512,256,512c141.156,0,256-114.833,256-256
			C512,221.301,505.147,187.621,491.635,155.859z M416.708,85.333h-53.941l30.867-18.865
			C401.715,72.348,409.492,78.547,416.708,85.333z M374.197,53.34l-52.349,31.993h-89.922l92.017-53.94
			C341.43,36.686,358.277,44.021,374.197,53.34z M256,21.333c12.703,0,25.264,1.091,37.626,3.089l-47.961,28.115L188.504,31.23
			C210.043,24.779,232.728,21.333,256,21.333z M158.174,42.706l63.736,23.756l-32.193,18.871H95.046
			C113.651,67.78,134.94,53.353,158.174,42.706z M37.618,170.667h6.536l-8.332,4.887C36.421,173.924,36.984,172.286,37.618,170.667z
			 M21.79,268.706c-0.283-4.4-0.457-8.624-0.457-12.706c0-17.155,1.98-34.009,5.605-50.495l59.418-34.839h95.854L21.79,268.706z
			 M160,224c0-11.771,9.573-21.333,21.333-21.333c11.76,0,21.333,9.563,21.333,21.333s-9.573,21.333-21.333,21.333
			C169.573,245.333,160,235.771,160,224z M360.875,400.583c-2.052,3.083-5.438,4.75-8.885,4.75c-2.031,0-4.083-0.583-5.906-1.792
			c-60.615-40.417-142.594-40.875-143.417-40.875c-5.896,0-10.667-4.771-10.667-10.667c0-5.896,4.771-10.667,10.667-10.667
			c3.615,0,89.323,0.5,155.25,44.458C362.823,389.063,364.146,395.688,360.875,400.583z M309.333,224
			c0-11.771,9.573-21.333,21.333-21.333S352,212.229,352,224s-9.573,21.333-21.333,21.333S309.333,235.771,309.333,224z
			 M46.982,149.333c7.846-15.385,17.267-29.65,27.996-42.667h361.93c10.799,13.053,19.704,27.521,27.474,42.667H46.982z"/>
	</g>
</g>
<g>
</g>
<g>
</g>
<g>
</g>
<g>
</g>
<g>
</g>
<g>
</g>
<g>
</g>
<g>
</g>
<g>
</g>
<g>
</g>
<g>
</g>
<g>
</g>
<g>
</g>
<g>
</g>
<g>
</g>
</svg>
