<?xml version="1.0" encoding="iso-8859-1"?>
<!-- Generator: Adobe Illustrator 19.0.0, SVG Export Plug-In . SVG Version: 6.00 Build 0)  -->
<svg fill='#eeeeee' version="1.1" id="Capa_1" xmlns="http://www.w3.org/2000/svg" xmlns:xlink="http://www.w3.org/1999/xlink" x="0px" y="0px"
	 viewBox="0 0 512 512" style="enable-background:new 0 0 512 512;" xml:space="preserve">
<g>
	<g>
		<path d="M256,0C114.833,0,0,114.844,0,256s114.833,256,256,256s256-114.844,256-256S397.167,0,256,0z M170.667,213.333
			c-11.771,0-21.333-9.573-21.333-21.333s9.563-21.333,21.333-21.333C182.438,170.667,192,180.24,192,192
			S182.438,213.333,170.667,213.333z M341.333,384c0,23.531-19.146,42.667-42.667,42.667c-4.688,0-9.334-0.844-14.229-2.573
			c-8.188-2.979-14.958-8.031-19.958-14.74c-1.896-1.729-11.583-3.823-19.417-4.021c-5.896-0.156-10.542-5.052-10.396-10.948
			c0.146-5.865,5.479-10.531,10.938-10.385c8.167,0.219,28.021,1.875,36,12.635c2.5,3.344,5.875,5.875,9.813,7.302
			c2.708,0.958,5.021,1.396,7.25,1.396C310.438,405.333,320,395.76,320,384c0-11.76-9.563-21.333-21.333-21.333
			c-5.896,0-10.667-4.771-10.667-10.667c0-5.896,4.771-10.667,10.667-10.667C310.438,341.333,320,331.76,320,320
			c0-13.99-12.375-25.708-28.438-19.99c-4.083,1.479-7.458,4.01-9.958,7.365c-7.979,10.75-27.833,12.406-36,12.625
			c-5.292,0.354-10.771-4.49-10.917-10.375c-0.167-5.885,4.479-10.781,10.354-10.958c8.021-0.229,17.542-2.271,19.604-4.208
			c4.833-6.521,11.604-11.573,19.438-14.438c5.25-1.844,9.896-2.688,14.583-2.688c23.521,0,42.667,19.135,42.667,42.667
			c0,12.729-5.604,24.177-14.479,32C335.729,359.823,341.333,371.271,341.333,384z M341.333,213.333
			C329.563,213.333,320,203.76,320,192s9.563-21.333,21.333-21.333c11.771,0,21.333,9.573,21.333,21.333
			S353.104,213.333,341.333,213.333z"/>
	</g>
</g>
<g>
</g>
<g>
</g>
<g>
</g>
<g>
</g>
<g>
</g>
<g>
</g>
<g>
</g>
<g>
</g>
<g>
</g>
<g>
</g>
<g>
</g>
<g>
</g>
<g>
</g>
<g>
</g>
<g>
</g>
</svg>
