<?xml version="1.0" encoding="iso-8859-1"?>
<!-- Generator: Adobe Illustrator 19.0.0, SVG Export Plug-In . SVG Version: 6.00 Build 0)  -->
<svg fill='#eeeeee' version="1.1" id="Capa_1" xmlns="http://www.w3.org/2000/svg" xmlns:xlink="http://www.w3.org/1999/xlink" x="0px" y="0px"
	 viewBox="0 0 512 512" style="enable-background:new 0 0 512 512;" xml:space="preserve">
<g>
	<g>
		<path d="M256,0C114.833,0,0,114.844,0,256s114.833,256,256,256s256-114.844,256-256S397.167,0,256,0z M87.125,208.583
			c-3.271-4.906-1.938-11.521,2.958-14.792l64-42.667c3.583-2.396,8.25-2.396,11.833,0l64,42.667
			c4.896,3.271,6.229,9.885,2.958,14.792c-2.063,3.083-5.438,4.75-8.875,4.75c-2.042,0-4.104-0.583-5.917-1.792L160,172.823
			l-58.083,38.719C97.021,214.781,90.396,213.49,87.125,208.583z M332.146,408.813C314.625,433.354,286.146,448,256,448
			s-58.625-14.646-76.146-39.188l-18.714-26.193c18.254,6.102,44.43,13.359,67.464,13.807l23.229,9.844
			c1.333,0.563,2.75,0.844,4.167,0.844s2.833-0.281,4.167-0.844l23.271-9.854c8.188-0.21,36.849-1.736,65.869-11.622
			L332.146,408.813z M281.188,375.115c-1.438,0-2.854,0.292-4.167,0.844L256,384.865l-21.021-8.906
			c-1.333-0.552-2.729-0.844-4.167-0.844c-29.029,0-66.697-13.711-79.311-18.637c0.612-0.841,1.227-1.686,2.103-2.342l31.354-23.51
			c20.146-15.156,50.625-13.25,68.792,4.354l2.146,2.063l1.479-1.49c18.125-18.156,49.688-19.938,69.688-4.927l31.333,23.51
			c0.98,0.734,1.707,1.661,2.355,2.622C326.32,374.671,281.632,375.115,281.188,375.115z M424.875,208.583
			c-2.063,3.083-5.438,4.75-8.875,4.75c-2.042,0-4.104-0.583-5.917-1.792L352,172.823l-58.083,38.719
			c-4.875,3.24-11.521,1.948-14.792-2.958s-1.938-11.521,2.958-14.792l64-42.667c3.583-2.396,8.25-2.396,11.833,0l64,42.667
			C426.813,197.063,428.146,203.677,424.875,208.583z"/>
	</g>
</g>
<g>
</g>
<g>
</g>
<g>
</g>
<g>
</g>
<g>
</g>
<g>
</g>
<g>
</g>
<g>
</g>
<g>
</g>
<g>
</g>
<g>
</g>
<g>
</g>
<g>
</g>
<g>
</g>
<g>
</g>
</svg>
