<?xml version="1.0" encoding="iso-8859-1"?>
<!-- Generator: Adobe Illustrator 19.0.0, SVG Export Plug-In . SVG Version: 6.00 Build 0)  -->
<svg fill='#eeeeee' version="1.1" id="Capa_1" xmlns="http://www.w3.org/2000/svg" xmlns:xlink="http://www.w3.org/1999/xlink" x="0px" y="0px"
	 viewBox="0 0 512 512" style="enable-background:new 0 0 512 512;" xml:space="preserve">
<g>
	<g>
		<path d="M485.017,369.236C502.411,334.082,512,295.316,512,256C512,114.844,397.167,0,256,0S0,114.844,0,256s114.833,256,256,256
			c45.453,0,89.913-12.327,129.268-35.457l34.023,32.499c2.063,1.969,4.729,2.958,7.375,2.958s5.313-0.99,7.375-2.958l62.563-59.75
			c9.917-9.594,15.396-22.365,15.396-35.958C512,394.307,501.021,377.897,485.017,369.236z M224,224
			c-5.896,0-10.667-4.771-10.667-10.667c0-23.531-19.146-42.667-42.667-42.667c-23.521,0-42.667,19.135-42.667,42.667
			c0,5.896-4.771,10.667-10.667,10.667c-5.896,0-10.667-4.771-10.667-10.667c0-35.292,28.708-64,64-64c35.292,0,64,28.708,64,64
			C234.667,219.229,229.896,224,224,224z M341.333,384c0,23.531-19.146,42.667-42.667,42.667c-4.688,0-9.334-0.844-14.229-2.573
			c-8.188-2.979-14.958-8.031-19.958-14.74c-1.896-1.729-11.583-3.823-19.417-4.021c-5.896-0.156-10.542-5.052-10.396-10.948
			c0.146-5.865,5.958-10.531,10.938-10.385c8.167,0.219,28.021,1.875,36,12.635c2.5,3.344,5.875,5.875,9.813,7.302
			c2.708,0.958,5.021,1.396,7.25,1.396C310.438,405.333,320,395.76,320,384c0-11.76-9.563-21.333-21.333-21.333
			c-5.896,0-10.667-4.771-10.667-10.667c0-5.896,4.771-10.667,10.667-10.667C310.438,341.333,320,331.76,320,320
			c0-13.99-12.354-25.708-28.438-19.99c-4.083,1.479-7.458,4.01-9.958,7.365c-7.979,10.75-27.833,12.406-36,12.625
			c-0.083,0-0.188,0-0.271,0c-5.771,0-10.5-4.583-10.646-10.375c-0.167-5.885,4.479-10.781,10.354-10.958
			c8.021-0.229,17.542-2.271,19.604-4.208c4.833-6.521,11.604-11.573,19.438-14.438c5.25-1.844,9.896-2.688,14.583-2.688
			c23.521,0,42.667,19.135,42.667,42.667c0,12.729-5.604,24.177-14.479,32C335.729,359.823,341.333,371.271,341.333,384z
			 M298.667,213.333c0,5.896-4.771,10.667-10.667,10.667s-10.667-4.771-10.667-10.667c0-35.292,28.708-64,64-64
			c35.292,0,64,28.708,64,64c0,5.896-4.771,10.667-10.667,10.667S384,219.229,384,213.333c0-23.531-19.146-42.667-42.667-42.667
			C317.813,170.667,298.667,189.802,298.667,213.333z M481.813,433.906l-55.146,52.677l-55.104-52.646
			c-5.729-5.531-8.896-12.844-8.896-20.604c0-16.177,13.813-29.333,30.813-29.333c7.292,0,16.313,6.26,24.75,17.188
			c4.042,5.229,12.833,5.229,16.875,0C443.542,390.26,452.563,384,459.854,384c17,0,30.813,13.156,30.813,29.333
			C490.667,421.094,487.5,428.406,481.813,433.906z"/>
	</g>
</g>
<g>
</g>
<g>
</g>
<g>
</g>
<g>
</g>
<g>
</g>
<g>
</g>
<g>
</g>
<g>
</g>
<g>
</g>
<g>
</g>
<g>
</g>
<g>
</g>
<g>
</g>
<g>
</g>
<g>
</g>
</svg>
