<?xml version="1.0" encoding="iso-8859-1"?>
<!-- Generator: Adobe Illustrator 19.0.0, SVG Export Plug-In . SVG Version: 6.00 Build 0)  -->
<svg fill='#eeeeee' version="1.1" id="Capa_1" xmlns="http://www.w3.org/2000/svg" xmlns:xlink="http://www.w3.org/1999/xlink" x="0px" y="0px"
	 viewBox="0 0 512 512" style="enable-background:new 0 0 512 512;" xml:space="preserve">
<g>
	<g>
		<path d="M256,0C114.844,0,0,114.844,0,256s114.844,256,256,256s256-114.844,256-256S397.156,0,256,0z M341.333,170.667
			c11.76,0,21.333,9.573,21.333,21.333s-9.573,21.333-21.333,21.333C329.573,213.333,320,203.76,320,192
			S329.573,170.667,341.333,170.667z M170.667,170.667c11.76,0,21.333,9.573,21.333,21.333s-9.573,21.333-21.333,21.333
			c-11.76,0-21.333-9.573-21.333-21.333S158.906,170.667,170.667,170.667z M405.042,333.135
			c-6.681,28.155-22.087,52.698-42.599,72.047c-29.736-22.94-71.129-28.07-106.13-10.234c-35.087-17.93-76.665-12.665-106.46,10.549
			c-20.685-19.397-36.214-44.061-42.905-72.383c-0.75-3.167,0-6.51,2.021-9.063c2.021-2.563,5.104-4.052,8.365-4.052h277.333
			c3.26,0,6.344,1.49,8.365,4.052C405.063,326.615,405.802,329.958,405.042,333.135z"/>
	</g>
</g>
<g>
</g>
<g>
</g>
<g>
</g>
<g>
</g>
<g>
</g>
<g>
</g>
<g>
</g>
<g>
</g>
<g>
</g>
<g>
</g>
<g>
</g>
<g>
</g>
<g>
</g>
<g>
</g>
<g>
</g>
</svg>
