<?xml version="1.0" encoding="iso-8859-1"?>
<!-- Generator: Adobe Illustrator 19.0.0, SVG Export Plug-In . SVG Version: 6.00 Build 0)  -->
<svg fill='#eeeeee' version="1.1" id="Capa_1" xmlns="http://www.w3.org/2000/svg" xmlns:xlink="http://www.w3.org/1999/xlink" x="0px" y="0px"
	 viewBox="0 0 512 512" style="enable-background:new 0 0 512 512;" xml:space="preserve">
<g>
	<g>
		<path d="M256,0C114.844,0,0,114.844,0,256s114.844,256,256,256s256-114.844,256-256S397.156,0,256,0z M304.563,193.125
			l85.333-42.667c5.26-2.604,11.677-0.49,14.313,4.771c2.635,5.271,0.5,11.677-4.771,14.313l-85.333,42.667
			c-1.531,0.76-3.156,1.125-4.76,1.125c-3.917,0-7.677-2.156-9.552-5.896C297.156,202.167,299.292,195.76,304.563,193.125z
			 M107.792,155.229c2.646-5.26,9.021-7.375,14.313-4.771l85.333,42.667c5.271,2.635,7.406,9.042,4.771,14.313
			c-1.875,3.74-5.635,5.896-9.552,5.896c-1.604,0-3.229-0.365-4.76-1.125l-85.333-42.667
			C107.292,166.906,105.156,160.5,107.792,155.229z M256,448c-34.99,0-71.135-18.135-74.427-48.771
			C192.26,390.833,210.823,384,224,384c7.319,0,14.423,2.03,21.333,5.165v16.168c0,5.896,4.771,10.667,10.667,10.667
			s10.667-4.771,10.667-10.667v-16.168C273.577,386.03,280.681,384,288,384c13.281,0,31.844,6.823,42.427,15.208
			C327.156,429.854,291,448,256,448z M405.042,311.958c-7.121,29.995-26.337,58.512-53.517,80.285
			c-0.448-1.888-1.217-3.682-2.608-5.087c-13.573-13.729-40.333-24.49-60.917-24.49c-11.052,0-21.792,2.51-32,7.469
			c-10.208-4.958-20.948-7.469-32-7.469c-20.427,0-47.167,10.74-60.875,24.448c-1.413,1.413-2.195,3.228-2.647,5.142
			c-27.211-21.816-46.424-50.418-53.53-80.475c-0.75-3.167,0-6.51,2.021-9.073c2.021-2.552,5.104-4.042,8.365-4.042h0.01
			l277.333,0.156c3.26,0,6.344,1.5,8.365,4.052C405.063,305.438,405.802,308.781,405.042,311.958z"/>
	</g>
</g>
<g>
</g>
<g>
</g>
<g>
</g>
<g>
</g>
<g>
</g>
<g>
</g>
<g>
</g>
<g>
</g>
<g>
</g>
<g>
</g>
<g>
</g>
<g>
</g>
<g>
</g>
<g>
</g>
<g>
</g>
</svg>
