<?xml version="1.0" encoding="iso-8859-1"?>
<!-- Generator: Adobe Illustrator 19.0.0, SVG Export Plug-In . SVG Version: 6.00 Build 0)  -->
<svg fill='#eeeeee' version="1.1" id="Capa_1" xmlns="http://www.w3.org/2000/svg" xmlns:xlink="http://www.w3.org/1999/xlink" x="0px" y="0px"
	 viewBox="0 0 512 512" style="enable-background:new 0 0 512 512;" xml:space="preserve">
<g>
	<g>
		<path d="M256,0C114.844,0,0,114.833,0,256s114.844,256,256,256s256-114.833,256-256S397.156,0,256,0z M214.458,112.563
			c2.646-5.25,9.031-7.438,14.313-4.771l56.708,28.354l-28.354-56.708c-2.635-5.271-0.5-11.667,4.771-14.313
			c5.26-2.667,11.677-0.479,14.313,4.771l42.667,85.333c2.052,4.104,1.25,9.063-2,12.313c-2.052,2.042-4.781,3.125-7.542,3.125
			c-1.625,0-3.25-0.375-4.771-1.125l-85.333-42.667C213.958,124.229,211.823,117.833,214.458,112.563z M138.448,42.896
			c13.635,0,38.615,16.25,48.729,23.229c2.885,1.979,4.604,5.271,4.604,8.771s-1.719,6.792-4.604,8.771
			c-10.115,6.979-35.094,23.229-48.729,23.229c-17.646,0-32-14.354-32-32C106.448,57.25,120.802,42.896,138.448,42.896z
			 M391.76,391.771c-37.427,37.438-86.594,56.146-135.76,56.146s-98.333-18.708-135.76-56.146C83.969,355.5,64,307.292,64,256
			s19.969-99.5,56.24-135.771c4.167-4.167,10.917-4.167,15.083,0L391.76,376.688C395.927,380.854,395.927,387.604,391.76,391.771z
			 M399.438,297.542c-1.531,0.771-3.156,1.125-4.76,1.125c-3.917,0-7.677-2.167-9.552-5.896l-42.667-85.333
			c-2.052-4.104-1.25-9.063,2-12.313c3.26-3.25,8.198-4.042,12.313-2l85.333,42.667c5.271,2.646,7.406,9.042,4.771,14.313
			c-2.646,5.25-9.042,7.417-14.313,4.771l-56.708-28.354l28.354,56.708C406.844,288.5,404.708,294.896,399.438,297.542z
			 M437.115,405.563c-17.646,0-32-14.354-32-32c0-13.646,16.24-38.625,23.229-48.729c3.979-5.75,13.563-5.75,17.542,0
			c6.99,10.104,23.229,35.083,23.229,48.729C469.115,391.208,454.76,405.563,437.115,405.563z"/>
	</g>
</g>
<g>
</g>
<g>
</g>
<g>
</g>
<g>
</g>
<g>
</g>
<g>
</g>
<g>
</g>
<g>
</g>
<g>
</g>
<g>
</g>
<g>
</g>
<g>
</g>
<g>
</g>
<g>
</g>
<g>
</g>
</svg>
