<?xml version="1.0" encoding="iso-8859-1"?>
<!-- Generator: Adobe Illustrator 19.0.0, SVG Export Plug-In . SVG Version: 6.00 Build 0)  -->
<svg fill='#eeeeee' version="1.1" id="Capa_1" xmlns="http://www.w3.org/2000/svg" xmlns:xlink="http://www.w3.org/1999/xlink" x="0px" y="0px"
	 viewBox="0 0 512 512" style="enable-background:new 0 0 512 512;" xml:space="preserve">
<g>
	<g>
		<path d="M256,0C114.833,0,0,114.844,0,256s114.833,256,256,256s256-114.844,256-256S397.167,0,256,0z M200.375,160.708
			L113.5,127.302c-5.479-2.125-8.229-8.313-6.125-13.781c2.104-5.5,8.313-8.24,13.792-6.146l131,50.385
			c2.458,0.938,5.208,0.938,7.667,0l130.958-50.375c5.521-2.104,11.729,0.646,13.833,6.125c2.104,5.479-0.646,11.667-6.125,13.781
			l-86.875,33.417c-4.125,1.583-6.833,5.542-6.833,9.958c0,4.417,2.708,8.375,6.833,9.958l86.875,33.406
			c5.479,2.125,8.229,8.313,6.125,13.781c-2.063,5.333-8.479,8.208-13.792,6.146l-131-50.385c-1.229-0.469-2.542-0.708-3.833-0.708
			s-2.604,0.24-3.833,0.708l-130.958,50.375c-5.625,2.094-11.792-0.823-13.833-6.125c-2.104-5.479,0.646-11.667,6.125-13.781
			l86.875-33.417c4.125-1.583,6.833-5.542,6.833-9.958C207.208,166.25,204.5,162.292,200.375,160.708z M367.742,411.456
			l-3.763-3.414c-28.563-24.573-72.979-31.302-109.75-14.938c-36.979-16.427-81.396-9.594-110,15.125
			c-0.345,0.298-1.15,1.154-1.896,1.951C97.079,378.121,64,327.721,64,266.667C64,260.771,68.771,256,74.667,256h362.667
			c5.896,0,10.667,4.771,10.667,10.667C448,328.57,413.965,379.471,367.742,411.456z"/>
	</g>
</g>
<g>
</g>
<g>
</g>
<g>
</g>
<g>
</g>
<g>
</g>
<g>
</g>
<g>
</g>
<g>
</g>
<g>
</g>
<g>
</g>
<g>
</g>
<g>
</g>
<g>
</g>
<g>
</g>
<g>
</g>
</svg>
