<?xml version="1.0" encoding="iso-8859-1"?>
<!-- Generator: Adobe Illustrator 19.0.0, SVG Export Plug-In . SVG Version: 6.00 Build 0)  -->
<svg fill='#eeeeee' version="1.1" id="Capa_1" xmlns="http://www.w3.org/2000/svg" xmlns:xlink="http://www.w3.org/1999/xlink" x="0px" y="0px"
	 viewBox="0 0 512 512" style="enable-background:new 0 0 512 512;" xml:space="preserve">
<g>
	<g>
		<path d="M256,0C114.833,0,0,114.844,0,256s114.833,256,256,256s256-114.844,256-256S397.167,0,256,0z M304.563,193.125
			l85.333-42.667c5.292-2.625,11.667-0.51,14.313,4.771c2.625,5.271,0.5,11.677-4.771,14.313l-85.333,42.667
			c-1.542,0.76-3.167,1.125-4.771,1.125c-3.896,0-7.667-2.156-9.542-5.896C297.167,202.167,299.292,195.76,304.563,193.125z
			 M107.792,155.229c2.646-5.26,9.063-7.375,14.313-4.771l85.333,42.667c5.271,2.635,7.396,9.042,4.771,14.313
			c-1.875,3.74-5.646,5.896-9.542,5.896c-1.604,0-3.229-0.365-4.771-1.125l-85.333-42.667
			C107.292,166.906,105.167,160.5,107.792,155.229z M354.668,408.832c-0.178-0.201-0.203-0.499-0.397-0.686
			c-25.292-24.375-65-31.333-97.979-15.594c-32.854-15.656-72.104-9.073-98.021,15.656l-0.756,0.802
			c-31.273-29.118-50.848-72.124-50.848-121.01c0-5.896,4.771-10.667,10.667-10.667h277.333c5.896,0,10.667,4.771,10.667,10.667
			C405.333,336.789,385.833,379.715,354.668,408.832z"/>
	</g>
</g>
<g>
</g>
<g>
</g>
<g>
</g>
<g>
</g>
<g>
</g>
<g>
</g>
<g>
</g>
<g>
</g>
<g>
</g>
<g>
</g>
<g>
</g>
<g>
</g>
<g>
</g>
<g>
</g>
<g>
</g>
</svg>
