<?xml version="1.0" encoding="iso-8859-1"?>
<!-- Generator: Adobe Illustrator 19.0.0, SVG Export Plug-In . SVG Version: 6.00 Build 0)  -->
<svg fill='#eeeeee' version="1.1" id="Capa_1" xmlns="http://www.w3.org/2000/svg" xmlns:xlink="http://www.w3.org/1999/xlink" x="0px" y="0px"
	 viewBox="0 0 512 512" style="enable-background:new 0 0 512 512;" xml:space="preserve">
<g>
	<g>
		<path d="M256,0C114.844,0,0,114.844,0,256s114.844,256,256,256s256-114.844,256-256S397.156,0,256,0z M87.125,208.583
			c-3.271-4.906-1.948-11.521,2.958-14.792l64-42.667c3.583-2.396,8.25-2.396,11.833,0l64,42.667
			c4.906,3.271,6.229,9.885,2.958,14.792c-2.052,3.083-5.438,4.75-8.885,4.75c-2.031,0-4.083-0.583-5.906-1.792L160,172.823
			l-58.083,38.719C96.979,214.792,90.385,213.479,87.125,208.583z M354.673,408.832c-25.281-24.375-65.382-31.988-98.382-16.28
			c-32.844-15.667-72.115-9.052-98.031,15.656l-0.754,0.798c-31.272-29.118-50.84-72.122-50.84-121.007
			c0-5.896,4.771-10.667,10.667-10.667h277.333c5.896,0,10.667,4.771,10.667,10.667
			C405.333,336.789,385.837,379.715,354.673,408.832z M424.875,208.583c-2.052,3.083-5.438,4.75-8.885,4.75
			c-2.031,0-4.083-0.583-5.906-1.792L352,172.823l-58.083,38.719c-4.948,3.25-11.552,1.938-14.792-2.958
			c-3.271-4.906-1.948-11.521,2.958-14.792l64-42.667c3.583-2.396,8.25-2.396,11.833,0l64,42.667
			C426.823,197.063,428.146,203.677,424.875,208.583z"/>
	</g>
</g>
<g>
</g>
<g>
</g>
<g>
</g>
<g>
</g>
<g>
</g>
<g>
</g>
<g>
</g>
<g>
</g>
<g>
</g>
<g>
</g>
<g>
</g>
<g>
</g>
<g>
</g>
<g>
</g>
<g>
</g>
</svg>
