<?xml version="1.0" encoding="iso-8859-1"?>
<!-- Generator: Adobe Illustrator 19.0.0, SVG Export Plug-In . SVG Version: 6.00 Build 0)  -->
<svg fill='#eeeeee' version="1.1" id="Capa_1" xmlns="http://www.w3.org/2000/svg" xmlns:xlink="http://www.w3.org/1999/xlink" x="0px" y="0px"
	 viewBox="0 0 512 512" style="enable-background:new 0 0 512 512;" xml:space="preserve">
<g>
	<g>
		<path d="M479.245,218.858C471.065,95.646,369.702,0,245.333,0C115.937,0,10.667,105.271,10.667,234.667
			s105.271,234.667,234.667,234.667c30.693,0,61.042-6.172,89.208-17.728c-2.48,5.404-3.875,11.404-3.875,17.728
			c0,11.417,4.448,22.125,12.521,30.188c8.052,8.042,18.75,12.479,30.125,12.479c0.01,0,0.031,0,0.052,0l53.365-0.042
			c41.135-0.021,74.604-33.521,74.604-74.667V256C501.333,239.975,492.348,226.151,479.245,218.858z M330.667,149.333
			c11.76,0,21.333,9.563,21.333,21.333c0,11.771-9.573,21.333-21.333,21.333s-21.333-9.563-21.333-21.333
			C309.333,158.896,318.906,149.333,330.667,149.333z M160,149.333c11.76,0,21.333,9.563,21.333,21.333
			C181.333,182.438,171.76,192,160,192s-21.333-9.563-21.333-21.333C138.667,158.896,148.24,149.333,160,149.333z M330.667,341.333
			c0,3.178,0.35,6.276,1.013,9.257c-26.757-12.014-58.361-12.428-86.034,1.681c-35.129-17.917-76.695-12.616-106.457,10.566
			c-20.686-19.397-36.215-44.06-42.908-72.379c-0.75-3.188,0-6.521,2.021-9.083c2.021-2.542,5.104-4.042,8.365-4.042H384
			c3.26,0,6.344,1.5,8.365,4.063c2.031,2.542,2.771,5.896,2.01,9.063c-0.674,2.84-1.831,5.471-2.746,8.208h-18.296
			C349.802,298.667,330.667,317.813,330.667,341.333z M480,437.292c0,29.396-23.906,53.313-53.292,53.333l-53.365,0.042
			c0,0-0.021,0-0.031,0c-5.677,0-11.031-2.208-15.052-6.229c-4.042-4.042-6.26-9.396-6.26-15.104
			c0-11.771,9.573-21.333,21.333-21.333H384c5.896,0,10.667-4.771,10.667-10.667c0-5.896-4.771-10.667-10.667-10.667h-10.667
			c-11.76,0-21.333-9.563-21.333-21.333c0-11.771,9.573-21.333,21.333-21.333H384c5.896,0,10.667-4.771,10.667-10.667
			c0-5.896-4.771-10.667-10.667-10.667h-10.667c-11.76,0-21.333-9.563-21.333-21.333c0-11.771,9.573-21.333,21.333-21.333H448
			c5.896,0,10.667-4.771,10.667-10.667c0-5.896-4.771-10.667-10.667-10.667h-10.667V256c0-11.771,9.573-21.333,21.333-21.333
			S480,244.229,480,256V437.292z"/>
	</g>
</g>
<g>
</g>
<g>
</g>
<g>
</g>
<g>
</g>
<g>
</g>
<g>
</g>
<g>
</g>
<g>
</g>
<g>
</g>
<g>
</g>
<g>
</g>
<g>
</g>
<g>
</g>
<g>
</g>
<g>
</g>
</svg>
