<?xml version="1.0" encoding="iso-8859-1"?>
<!-- Generator: Adobe Illustrator 19.0.0, SVG Export Plug-In . SVG Version: 6.00 Build 0)  -->
<svg fill='#eeeeee' version="1.1" id="Capa_1" xmlns="http://www.w3.org/2000/svg" xmlns:xlink="http://www.w3.org/1999/xlink" x="0px" y="0px"
	 viewBox="0 0 512 512" style="enable-background:new 0 0 512 512;" xml:space="preserve">
<g>
	<g>
		<path d="M256,0C114.844,0,0,114.844,0,256s114.844,256,256,256s256-114.844,256-256S397.156,0,256,0z M368,181.333h-10.667
			C336.75,181.333,320,164.583,320,144c0-18.758,13.954-34.18,32-36.794V96c0-5.896,4.771-10.667,10.667-10.667
			S373.333,90.104,373.333,96v10.667h21.333c5.896,0,10.667,4.771,10.667,10.667c0,5.896-4.771,10.667-10.667,10.667h-37.333
			c-8.823,0-16,7.177-16,16s7.177,16,16,16H368c20.583,0,37.333,16.75,37.333,37.333c0,18.758-13.954,34.18-32,36.794v11.206
			c0,5.896-4.771,10.667-10.667,10.667S352,251.229,352,245.333v-10.667h-21.333c-5.896,0-10.667-4.771-10.667-10.667
			s4.771-10.667,10.667-10.667H368c8.823,0,16-7.177,16-16C384,188.51,376.823,181.333,368,181.333z M154.667,181.333H144
			c-20.583,0-37.333-16.75-37.333-37.333c0-18.758,13.954-34.18,32-36.794V96c0-5.896,4.771-10.667,10.667-10.667
			C155.229,85.333,160,90.104,160,96v10.667h21.333c5.896,0,10.667,4.771,10.667,10.667c0,5.896-4.771,10.667-10.667,10.667H144
			c-8.823,0-16,7.177-16,16s7.177,16,16,16h10.667C175.25,160,192,176.75,192,197.333c0,18.758-13.954,34.18-32,36.794v11.206
			c0,5.896-4.771,10.667-10.667,10.667c-5.896,0-10.667-4.771-10.667-10.667v-10.667h-21.333c-5.896,0-10.667-4.771-10.667-10.667
			s4.771-10.667,10.667-10.667h37.333c8.823,0,16-7.177,16-16C170.667,188.51,163.49,181.333,154.667,181.333z M256,448
			c-34.99,0-71.125-18.135-74.427-48.76c10.698-8.396,29.25-15.229,42.427-15.229c7.336,0,14.435,2.029,21.333,5.165v16.158
			c0,5.896,4.771,10.667,10.667,10.667s10.667-4.771,10.667-10.667v-16.158c6.898-3.137,13.997-5.165,21.333-5.165
			c13.281,0,31.844,6.813,42.427,15.198C327.156,429.854,291,448,256,448z M405.042,311.958
			c-7.117,29.981-26.355,58.438-53.536,80.19c-0.457-1.852-1.221-3.611-2.589-4.992c-13.563-13.729-40.323-24.479-60.917-24.479
			c-11.063,0-21.802,2.51-32,7.458c-10.198-4.948-20.938-7.458-32-7.458c-20.417,0-47.156,10.729-60.875,24.438
			c-1.387,1.387-2.165,3.167-2.628,5.039c-27.203-21.799-46.448-50.332-53.549-80.372c-0.75-3.167,0-6.51,2.021-9.073
			c2.021-2.552,5.104-4.042,8.365-4.042h0.01l277.333,0.156c3.26,0,6.344,1.5,8.365,4.052
			C405.063,305.438,405.802,308.781,405.042,311.958z"/>
	</g>
</g>
<g>
</g>
<g>
</g>
<g>
</g>
<g>
</g>
<g>
</g>
<g>
</g>
<g>
</g>
<g>
</g>
<g>
</g>
<g>
</g>
<g>
</g>
<g>
</g>
<g>
</g>
<g>
</g>
<g>
</g>
</svg>
