<?xml version="1.0" encoding="iso-8859-1"?>
<!-- Generator: Adobe Illustrator 19.0.0, SVG Export Plug-In . SVG Version: 6.00 Build 0)  -->
<svg fill='#eeeeee' version="1.1" id="Capa_1" xmlns="http://www.w3.org/2000/svg" xmlns:xlink="http://www.w3.org/1999/xlink" x="0px" y="0px"
	 viewBox="0 0 512 512" style="enable-background:new 0 0 512 512;" xml:space="preserve">
<g>
	<g>
		<path d="M256,0C114.833,0,0,114.844,0,256s114.833,256,256,256s256-114.844,256-256S397.167,0,256,0z M341.333,170.667
			c11.771,0,21.333,9.573,21.333,21.333s-9.563,21.333-21.333,21.333C329.563,213.333,320,203.76,320,192
			S329.563,170.667,341.333,170.667z M170.667,170.667C182.438,170.667,192,180.24,192,192s-9.563,21.333-21.333,21.333
			c-11.771,0-21.333-9.573-21.333-21.333S158.896,170.667,170.667,170.667z M309.333,405.333c-24.138,0-42.568-10.378-53.333-24.262
			c-10.766,13.884-29.195,24.262-53.333,24.262c-116,0-117.333-95.042-117.333-96c0-4.948,3.396-9.25,8.208-10.385
			c4.917-1.146,9.792,1.188,12,5.615c0.271,0.5,8.604,15.438,33.125,15.438c13.479,0,22.333-4.417,32.563-9.542
			c11.063-5.531,23.583-11.792,42.104-11.792c20.798,0,34.357,7.806,42.667,18.887c8.31-11.081,21.868-18.887,42.667-18.887
			c18.521,0,31.042,6.26,42.104,11.792C351,315.583,359.854,320,373.333,320c24.521,0,32.854-14.938,33.188-15.573
			c2.333-4.313,7.292-6.521,12.042-5.365c4.75,1.198,8.104,5.385,8.104,10.271C426.667,310.292,425.333,405.333,309.333,405.333z"/>
	</g>
</g>
<g>
</g>
<g>
</g>
<g>
</g>
<g>
</g>
<g>
</g>
<g>
</g>
<g>
</g>
<g>
</g>
<g>
</g>
<g>
</g>
<g>
</g>
<g>
</g>
<g>
</g>
<g>
</g>
<g>
</g>
</svg>
