<?xml version="1.0" encoding="iso-8859-1"?>
<!-- Generator: Adobe Illustrator 19.0.0, SVG Export Plug-In . SVG Version: 6.00 Build 0)  -->
<svg fill='#eeeeee' version="1.1" id="Capa_1" xmlns="http://www.w3.org/2000/svg" xmlns:xlink="http://www.w3.org/1999/xlink" x="0px" y="0px"
	 viewBox="0 0 512 512" style="enable-background:new 0 0 512 512;" xml:space="preserve">
<g>
	<g>
		<g>
			<path d="M23.75,170.125l18.917,12.611v-1.402c0-17.646,14.354-32,32-32h128c15.366,0,28.215,10.891,31.285,25.355
				c5.797-2.434,12.961-4.022,22.048-4.022s16.251,1.589,22.048,4.022c3.07-14.465,15.919-25.355,31.285-25.355h128
				c17.646,0,32,14.354,32,32v1.402l18.917-12.611c4.25-2.833,5.896-8.292,3.917-13C452.146,61.677,359.438,0,256,0
				S59.854,61.677,19.833,157.125C17.854,161.833,19.5,167.292,23.75,170.125z"/>
			<path d="M506.021,201.417c-0.75-3.448-3.146-6.302-6.417-7.625c-3.292-1.333-7.021-0.969-9.917,1.01l-20.354,13.572v36.96
				c0,29.406-23.917,53.333-53.333,53.333H309.333c-17.646,0-32-14.354-32-32v-64C277.229,201.146,275.625,192,256,192
				s-21.229,9.146-21.333,10.969v63.698c0,17.646-14.354,32-32,32H96c-29.417,0-53.333-23.927-53.333-53.333v-36.96l-20.354-13.572
				c-2.917-1.979-6.646-2.344-9.917-1.01c-3.271,1.323-5.667,4.177-6.417,7.625C2,219.646,0,238.021,0,256
				c0,141.156,114.833,256,256,256s256-114.844,256-256C512,238.021,510,219.646,506.021,201.417z M316.167,402.885
				c-18.896,15.781-39.146,23.781-60.188,23.781c-21.042,0-41.271-7.99-60.146-23.75c-4.521-3.771-5.125-10.5-1.354-15.021
				c3.792-4.531,10.5-5.104,15.021-1.354c29.875,24.938,63.083,24.948,93-0.031c4.5-3.771,11.229-3.188,15.021,1.354
				C321.292,392.385,320.688,399.115,316.167,402.885z"/>
			<circle cx="149.333" cy="213.333" r="21.333"/>
			<circle cx="362.667" cy="213.333" r="21.333"/>
		</g>
	</g>
</g>
<g>
</g>
<g>
</g>
<g>
</g>
<g>
</g>
<g>
</g>
<g>
</g>
<g>
</g>
<g>
</g>
<g>
</g>
<g>
</g>
<g>
</g>
<g>
</g>
<g>
</g>
<g>
</g>
<g>
</g>
</svg>
