<?xml version="1.0" encoding="iso-8859-1"?>
<!-- Generator: Adobe Illustrator 19.0.0, SVG Export Plug-In . SVG Version: 6.00 Build 0)  -->
<svg fill='#eeeeee' version="1.1" id="Capa_1" xmlns="http://www.w3.org/2000/svg" xmlns:xlink="http://www.w3.org/1999/xlink" x="0px" y="0px"
	 viewBox="0 0 512 512" style="enable-background:new 0 0 512 512;" xml:space="preserve">
<g>
	<g>
		<path d="M512,128c0-32.271-49.979-95.563-55.667-102.667c-4.083-5.063-12.583-5.063-16.667,0
			c-2.365,2.954-12.405,15.678-23.309,31.793C370.832,20.345,314.464,0,256,0C114.833,0,0,114.844,0,256s114.833,256,256,256
			s256-114.844,256-256c0-29.497-5.372-58.59-15.527-86.689C506.017,158.13,512,143.819,512,128z M341.333,170.667
			c11.771,0,21.333,9.573,21.333,21.333s-9.563,21.333-21.333,21.333C329.563,213.333,320,203.76,320,192
			S329.563,170.667,341.333,170.667z M170.667,170.667C182.438,170.667,192,180.24,192,192s-9.563,21.333-21.333,21.333
			c-11.771,0-21.333-9.573-21.333-21.333S158.896,170.667,170.667,170.667z M392.896,400.583c-1.979,2.969-5.313,4.75-8.875,4.75
			l-256.104-0.021c-3.563,0-6.896-1.781-8.875-4.75c-1.979-2.969-2.333-6.729-0.979-10.021
			c23.292-55.833,77.417-91.906,137.896-91.906c60.5,0,114.625,36.083,137.917,91.927
			C395.229,393.854,394.875,397.615,392.896,400.583z M448,170.667c-23.521,0-42.667-19.135-42.667-42.667
			c0-16.24,23.563-53.042,42.667-78.563c19.104,25.51,42.667,62.313,42.667,78.563C490.667,151.531,471.521,170.667,448,170.667z"/>
	</g>
</g>
<g>
</g>
<g>
</g>
<g>
</g>
<g>
</g>
<g>
</g>
<g>
</g>
<g>
</g>
<g>
</g>
<g>
</g>
<g>
</g>
<g>
</g>
<g>
</g>
<g>
</g>
<g>
</g>
<g>
</g>
</svg>
