<?xml version="1.0" encoding="iso-8859-1"?>
<!-- Generator: Adobe Illustrator 19.0.0, SVG Export Plug-In . SVG Version: 6.00 Build 0)  -->
<svg fill='#eeeeee' version="1.1" id="Capa_1" xmlns="http://www.w3.org/2000/svg" xmlns:xlink="http://www.w3.org/1999/xlink" x="0px" y="0px"
	 viewBox="0 0 512 512" style="enable-background:new 0 0 512 512;" xml:space="preserve">
<g>
	<g>
		<path d="M256,0C114.844,0,0,114.833,0,256s114.844,256,256,256s256-114.833,256-256S397.156,0,256,0z M128,192
			c0-23.521,19.135-42.667,42.667-42.667s42.667,19.146,42.667,42.667s-19.135,42.667-42.667,42.667S128,215.521,128,192z M352,384
			c-2.26,0-3.458,1.021-7.5,6.417c-4.469,5.938-11.219,14.917-24.563,14.917s-20.094-8.979-24.563-14.917
			c-4.042-5.396-5.24-6.417-7.5-6.417c-2.25,0-3.438,1.021-7.479,6.396c-4.458,5.958-11.198,14.938-24.531,14.938
			c-13.323,0-20.052-9-24.51-14.938c-4.021-5.375-5.198-6.396-7.427-6.396c-2.24,0-3.417,1.021-7.458,6.396
			c-4.458,5.958-11.188,14.938-24.521,14.938c-13.333,0-20.063-9-24.521-14.938C163.406,385.021,162.229,384,160,384
			c-5.896,0-10.667-4.771-10.667-10.667c0-5.896,4.771-10.667,10.667-10.667c13.323,0,20.052,8.979,24.51,14.938
			c4.021,5.375,5.208,6.396,7.438,6.396c2.24,0,3.417-1.021,7.458-6.396c4.458-5.958,11.188-14.938,24.521-14.938
			c13.323,0,20.052,9,24.51,14.938c4.021,5.375,5.198,6.396,7.427,6.396c2.24,0,3.427-1.021,7.469-6.396
			c4.458-5.958,11.198-14.938,24.542-14.938s20.094,8.979,24.563,14.917c4.042,5.396,5.24,6.417,7.5,6.417s3.458-1.021,7.5-6.417
			c4.469-5.938,11.219-14.917,24.563-14.917c5.896,0,10.667,4.771,10.667,10.667C362.667,379.229,357.896,384,352,384z
			 M341.333,234.667c-23.531,0-42.667-19.146-42.667-42.667s19.135-42.667,42.667-42.667C364.865,149.333,384,168.479,384,192
			S364.865,234.667,341.333,234.667z"/>
	</g>
</g>
<g>
</g>
<g>
</g>
<g>
</g>
<g>
</g>
<g>
</g>
<g>
</g>
<g>
</g>
<g>
</g>
<g>
</g>
<g>
</g>
<g>
</g>
<g>
</g>
<g>
</g>
<g>
</g>
<g>
</g>
</svg>
