<?xml version="1.0" encoding="iso-8859-1"?>
<!-- Generator: Adobe Illustrator 19.0.0, SVG Export Plug-In . SVG Version: 6.00 Build 0)  -->
<svg fill='#eeeeee' version="1.1" id="Capa_1" xmlns="http://www.w3.org/2000/svg" xmlns:xlink="http://www.w3.org/1999/xlink" x="0px" y="0px"
	 viewBox="0 0 512 512" style="enable-background:new 0 0 512 512;" xml:space="preserve">
<g>
	<g>
		<g>
			<path d="M17.802,295.875c16.979-9.104,35.438-20.563,54.865-34.021c4.469-3.104,5.885-9.063,3.292-13.854
				C68.021,233.354,64,218.104,64,202.667c0-64.688,52.635-117.333,117.333-117.333c15.469,0,30.75,4.042,45.438,12.021
				c4.802,2.604,10.771,1.188,13.854-3.292c19.802-28.563,35.135-55.688,44.323-78.438c1.281-3.167,0.969-6.729-0.823-9.625
				s-4.865-4.75-8.25-5.021C269.292,0.479,262.708,0,256,0C114.844,0,0,114.833,0,256c0,9.688,0.708,20.083,2.177,31.813
				c0.438,3.479,2.563,6.521,5.688,8.146c1.531,0.792,3.219,1.188,4.896,1.188C14.5,297.146,16.229,296.729,17.802,295.875z"/>
			<path d="M181.333,106.667c-52.938,0-96,43.063-96,96c0,41.167,33.5,74.667,74.667,74.667c52.938,0,96-43.063,96-96
				C256,140.167,222.5,106.667,181.333,106.667z"/>
			<path d="M320.563,8.542c-5.344-1.521-10.865,1.5-12.729,6.708c-9.76,27.146-27.708,59.708-51.906,94.188
				c-2.708,3.854-2.563,9.042,0.365,12.75c13.76,17.396,21.042,37.854,21.042,59.146c0,64.688-52.635,117.333-117.333,117.333
				c-21.396,0-41.927-7.333-59.365-21.229c-3.719-2.958-8.896-3.104-12.76-0.375c-25.51,17.833-49.302,32.333-70.698,43.042
				c-4.688,2.354-6.979,7.75-5.406,12.75C45.458,440,143.604,512,256,512c141.156,0,256-114.833,256-256
				C512,139.646,433.281,37.875,320.563,8.542z M373.333,362.667H138.667c-5.896,0-10.667-4.771-10.667-10.667
				c0-5.896,4.771-10.667,10.667-10.667h234.667c5.896,0,10.667,4.771,10.667,10.667C384,357.896,379.229,362.667,373.333,362.667z
				 M320,192c0-11.771,9.573-21.333,21.333-21.333c11.76,0,21.333,9.563,21.333,21.333s-9.573,21.333-21.333,21.333
				C329.573,213.333,320,203.771,320,192z M343.094,167.854c-16.677,2.771-33.063,2.813-33.76,2.813
				c-5.885,0-10.656-4.771-10.667-10.667c0-5.875,4.771-10.667,10.656-10.667c26.708-0.021,51.052-5.979,53.396-10.875
				c-0.01-5.896,4.74-10.563,10.625-10.563c0.01,0,0.01,0,0.01,0c5.896,0,10.635,4.875,10.646,10.75
				C384.01,153.5,370.25,163.313,343.094,167.854z"/>
		</g>
	</g>
</g>
<g>
</g>
<g>
</g>
<g>
</g>
<g>
</g>
<g>
</g>
<g>
</g>
<g>
</g>
<g>
</g>
<g>
</g>
<g>
</g>
<g>
</g>
<g>
</g>
<g>
</g>
<g>
</g>
<g>
</g>
</svg>
