<?xml version="1.0" encoding="iso-8859-1"?>
<!-- Generator: Adobe Illustrator 19.0.0, SVG Export Plug-In . SVG Version: 6.00 Build 0)  -->
<svg fill='#eeeeee' version="1.1" id="Capa_1" xmlns="http://www.w3.org/2000/svg" xmlns:xlink="http://www.w3.org/1999/xlink" x="0px" y="0px"
	 viewBox="0 0 512 512" style="enable-background:new 0 0 512 512;" xml:space="preserve">
<g>
	<g>
		<path d="M460.5,297.583c5.865-13.438,8.833-27.375,8.833-41.583c0-52.5-38.125-96.271-88.156-105.063
			c14.844-13.646,24.156-33.229,24.156-54.938c0-51.708-52.781-96-96-96c-5.896,0-10.667,4.771-10.667,10.667
			c0,29.417-28.708,53.333-64,53.333h-21.333c-44.479,0-81.125,38.479-84.99,87.417C79.542,161.188,42.667,204.375,42.667,256
			c0,14.208,2.969,28.146,8.833,41.583C20.448,318.708,0,354.354,0,394.667C0,459.354,52.635,512,117.333,512h277.333
			C459.365,512,512,459.354,512,394.667C512,354.354,491.552,318.708,460.5,297.583z M330.667,234.667
			c11.76,0,21.333,9.563,21.333,21.333s-9.573,21.333-21.333,21.333s-21.333-9.563-21.333-21.333S318.906,234.667,330.667,234.667z
			 M181.333,234.667c11.76,0,21.333,9.563,21.333,21.333s-9.573,21.333-21.333,21.333c-11.76,0-21.333-9.563-21.333-21.333
			S169.573,234.667,181.333,234.667z M362.271,355c-11.875,42.188-55.573,71.667-106.26,71.667
			c-50.729,0-94.438-29.521-106.281-71.792c-1.594-5.667,1.719-11.563,7.396-13.146c5.667-1.563,11.563,1.729,13.146,7.396
			c9.125,32.563,45.188,56.208,85.74,56.208c41.177,0,76.427-23.083,85.719-56.125c1.604-5.667,7.563-8.917,13.156-7.375
			C360.563,343.438,363.865,349.313,362.271,355z"/>
	</g>
</g>
<g>
</g>
<g>
</g>
<g>
</g>
<g>
</g>
<g>
</g>
<g>
</g>
<g>
</g>
<g>
</g>
<g>
</g>
<g>
</g>
<g>
</g>
<g>
</g>
<g>
</g>
<g>
</g>
<g>
</g>
</svg>
