<?xml version="1.0" encoding="iso-8859-1"?>
<!-- Generator: Adobe Illustrator 19.0.0, SVG Export Plug-In . SVG Version: 6.00 Build 0)  -->
<svg fill='#eeeeee' version="1.1" id="Capa_1" xmlns="http://www.w3.org/2000/svg" xmlns:xlink="http://www.w3.org/1999/xlink" x="0px" y="0px"
	 viewBox="0 0 512 512" style="enable-background:new 0 0 512 512;" xml:space="preserve">
<g>
	<g>
		<path d="M460.5,297.583c5.865-13.438,8.833-27.375,8.833-41.583c0-52.5-38.125-96.271-88.156-105.063
			c14.844-13.646,24.156-33.229,24.156-54.938c0-51.708-52.781-96-96-96c-5.896,0-10.667,4.771-10.667,10.667
			c0,29.417-28.708,53.333-64,53.333h-21.333c-44.479,0-81.125,38.479-84.99,87.417C79.542,161.188,42.667,204.375,42.667,256
			c0,14.208,2.969,28.146,8.833,41.583C20.448,318.708,0,354.354,0,394.667C0,459.354,52.635,512,117.333,512h277.333
			C459.365,512,512,459.354,512,394.667C512,354.354,491.552,318.708,460.5,297.583z M320,229.333h21.333
			c5.896,0,10.667,4.771,10.667,10.667c0,11.771-9.563,21.333-21.333,21.333c-11.771,0-21.333-9.563-21.333-21.333
			C309.333,234.104,314.104,229.333,320,229.333z M170.667,229.333H192c5.896,0,10.667,4.771,10.667,10.667
			c0,11.771-9.563,21.333-21.333,21.333C169.563,261.333,160,251.771,160,240C160,234.104,164.771,229.333,170.667,229.333z
			 M354.875,426.271c-0.958,0.271-1.938,0.396-2.875,0.396c-4.667,0-8.958-3.083-10.271-7.792
			c-9.125-32.563-45.188-56.208-85.75-56.208c-40.521,0-76.563,23.604-85.708,56.125c-1.604,5.667-7.417,8.917-13.167,7.375
			c-5.667-1.604-8.958-7.479-7.375-13.167c11.875-42.188,55.563-71.667,106.25-71.667c50.75,0,94.458,29.521,106.292,71.792
			C363.854,418.792,360.542,424.688,354.875,426.271z"/>
	</g>
</g>
<g>
</g>
<g>
</g>
<g>
</g>
<g>
</g>
<g>
</g>
<g>
</g>
<g>
</g>
<g>
</g>
<g>
</g>
<g>
</g>
<g>
</g>
<g>
</g>
<g>
</g>
<g>
</g>
<g>
</g>
</svg>
