<?xml version="1.0" encoding="iso-8859-1"?>
<!-- Generator: Adobe Illustrator 19.0.0, SVG Export Plug-In . SVG Version: 6.00 Build 0)  -->
<svg fill='#eeeeee' version="1.1" id="Capa_1" xmlns="http://www.w3.org/2000/svg" xmlns:xlink="http://www.w3.org/1999/xlink" x="0px" y="0px"
	 viewBox="0 0 512 512" style="enable-background:new 0 0 512 512;" xml:space="preserve">
<g>
	<g>
		<path d="M460.5,297.583c5.865-13.438,8.833-27.375,8.833-41.583c0-52.5-38.125-96.271-88.156-105.063
			c14.844-13.646,24.156-33.229,24.156-54.938c0-51.708-52.781-96-96-96c-5.896,0-10.667,4.771-10.667,10.667
			c0,29.417-28.708,53.333-64,53.333h-21.333c-44.479,0-81.125,38.479-84.99,87.417C79.542,161.188,42.667,204.375,42.667,256
			c0,14.208,2.969,28.146,8.833,41.583C20.448,318.708,0,354.354,0,394.667C0,459.354,52.635,512,117.333,512h277.333
			C459.365,512,512,459.354,512,394.667C512,354.354,491.552,318.708,460.5,297.583z M289.813,239.375
			c1.792-2.667,18.167-26.042,40.854-26.042s39.063,23.375,40.854,26.042c3.271,4.896,1.979,11.479-2.896,14.771
			c-4.813,3.313-11.479,2.042-14.792-2.833c-2.938-4.313-13.5-16.646-23.167-16.646c-9.958,0-20.792,13.104-23.146,16.625
			c-2.063,3.063-5.438,4.708-8.854,4.708c-2.063,0-4.125-0.583-5.958-1.813C287.833,250.896,286.521,244.271,289.813,239.375z
			 M140.479,239.375c1.792-2.667,18.167-26.042,40.854-26.042s39.063,23.375,40.854,26.042c3.271,4.896,1.979,11.479-2.896,14.771
			c-4.813,3.313-11.479,2.042-14.792-2.833c-2.938-4.313-13.5-16.646-23.167-16.646c-9.958,0-20.792,13.104-23.146,16.625
			c-2.063,3.063-5.438,4.708-8.854,4.708c-2.063,0-4.125-0.583-5.958-1.813C138.5,250.896,137.188,244.271,140.479,239.375z
			 M383.771,354.333c-13.958,67.708-66.5,115-127.75,115c-61.313,0-113.875-47.375-127.813-115.188
			c-0.646-3.146,0.167-6.396,2.188-8.896c2.042-2.479,5.063-3.917,8.271-3.917l234.667,0.167c3.208,0,6.25,1.438,8.271,3.938
			C383.625,347.917,384.438,351.188,383.771,354.333z"/>
	</g>
</g>
<g>
</g>
<g>
</g>
<g>
</g>
<g>
</g>
<g>
</g>
<g>
</g>
<g>
</g>
<g>
</g>
<g>
</g>
<g>
</g>
<g>
</g>
<g>
</g>
<g>
</g>
<g>
</g>
<g>
</g>
</svg>
