<?xml version="1.0" encoding="iso-8859-1"?>
<!-- Generator: Adobe Illustrator 19.0.0, SVG Export Plug-In . SVG Version: 6.00 Build 0)  -->
<svg fill='#eeeeee' version="1.1" id="Capa_1" xmlns="http://www.w3.org/2000/svg" xmlns:xlink="http://www.w3.org/1999/xlink" x="0px" y="0px"
	 viewBox="0 0 512 512" style="enable-background:new 0 0 512 512;" xml:space="preserve">
<g>
	<g>
		<g>
			<path d="M252.875,344.458c-4.167-4.167-10.917-4.167-15.083,0l-21.333,21.333c-4.167,4.167-4.167,10.917,0,15.083
				c2.083,2.083,4.813,3.125,7.542,3.125s5.458-1.042,7.542-3.125l21.333-21.333C257.042,355.375,257.042,348.625,252.875,344.458z"
				/>
			<path d="M274.208,408.458c-4.167-4.167-10.917-4.167-15.083,0c-4.167,4.167-4.167,10.917,0,15.083l21.333,21.333
				c2.083,2.083,4.813,3.125,7.542,3.125s5.458-1.042,7.542-3.125c4.167-4.167,4.167-10.917,0-15.083L274.208,408.458z"/>
			<path d="M216.458,429.792l-21.333,21.333c-4.167,4.167-4.167,10.917,0,15.083c2.083,2.083,4.813,3.125,7.542,3.125
				c2.729,0,5.458-1.042,7.542-3.125l21.333-21.333c4.167-4.167,4.167-10.917,0-15.083
				C227.375,425.625,220.625,425.625,216.458,429.792z"/>
			<path d="M490.667,234.667C490.667,105.271,385.396,0,256,0S21.333,105.271,21.333,234.667
				c0,81.051,40.936,154.264,108.025,197.198c-13.43,7.193-22.691,21.194-22.691,37.469c0,23.531,19.146,42.667,42.667,42.667
				h213.333c23.521,0,42.667-19.135,42.667-42.667c0-16.277-9.267-30.281-22.699-37.473h0.001
				C449.719,388.94,490.667,315.73,490.667,234.667z M128,181.333c0-5.896,4.771-10.667,10.667-10.667h64
				c5.896,0,10.667,4.771,10.667,10.667c0,5.896-4.771,10.667-10.667,10.667h-64C132.771,192,128,187.229,128,181.333z M384,469.333
				c0,11.76-9.563,21.333-21.333,21.333H149.333c-11.771,0-21.333-9.573-21.333-21.333c0-11.76,9.563-21.333,21.333-21.333
				C172.854,448,192,428.865,192,405.333v-76.121c-5.596,1.789-15.927,4.806-21.333,7.102v23.202
				c-10.427-6.047-17.784-19.22-20.208-24.078c-2.625-5.271-0.5-11.677,4.771-14.313c29.396-14.688,62.292-22.458,95.146-22.458
				h11.25c32.854,0,65.75,7.771,95.146,22.458c5.271,2.635,7.396,9.042,4.771,14.313c-2.426,4.859-9.78,18.04-20.208,24.087v-23.211
				c-5.406-2.296-15.737-5.313-21.333-7.102v76.121C320,428.865,339.146,448,362.667,448C374.438,448,384,457.573,384,469.333z
				 M373.333,192h-64c-5.896,0-10.667-4.771-10.667-10.667c0-5.896,4.771-10.667,10.667-10.667h64
				c5.896,0,10.667,4.771,10.667,10.667C384,187.229,379.229,192,373.333,192z"/>
		</g>
	</g>
</g>
<g>
</g>
<g>
</g>
<g>
</g>
<g>
</g>
<g>
</g>
<g>
</g>
<g>
</g>
<g>
</g>
<g>
</g>
<g>
</g>
<g>
</g>
<g>
</g>
<g>
</g>
<g>
</g>
<g>
</g>
</svg>
