<?xml version="1.0" encoding="iso-8859-1"?>
<!-- Generator: Adobe Illustrator 19.0.0, SVG Export Plug-In . SVG Version: 6.00 Build 0)  -->
<svg fill='#eeeeee' version="1.1" id="Capa_1" xmlns="http://www.w3.org/2000/svg" xmlns:xlink="http://www.w3.org/1999/xlink" x="0px" y="0px"
	 viewBox="0 0 512 512" style="enable-background:new 0 0 512 512;" xml:space="preserve">
<g>
	<g>
		<path d="M256,0C114.844,0,0,114.844,0,256s114.844,256,256,256s256-114.844,256-256S397.156,0,256,0z M95.99,170.667
			c-4.979,0-9.438-3.5-10.448-8.573c-1.156-5.781,2.594-11.396,8.365-12.552l106.667-21.333c5.865-1.208,11.396,2.594,12.552,8.365
			c1.156,5.781-2.594,11.396-8.365,12.552L98.094,170.458C97.385,170.604,96.677,170.667,95.99,170.667z M106.667,192
			c0-5.896,4.771-10.667,10.667-10.667c5.896,0,10.667,4.771,10.667,10.667c0,23.531,19.135,42.667,42.667,42.667
			s42.667-19.135,42.667-42.667c0-5.896,4.771-10.667,10.667-10.667s10.667,4.771,10.667,10.667c0,35.292-28.708,64-64,64
			C135.375,256,106.667,227.292,106.667,192z M379.74,381.865c-1.927,1.438-4.167,2.135-6.396,2.135c-3.25,0-6.448-1.469-8.542-4.26
			c-1.167-1.51-30.573-38.396-108.802-38.406h-0.031c-78.208,0-107.604,36.885-108.813,38.458c-3.594,4.635-10.25,5.542-14.927,2
			c-4.667-3.552-5.615-10.167-2.094-14.854C131.573,365.021,166.354,320,255.969,320H256c89.635,0.01,124.427,45.021,125.865,46.927
			C385.406,371.646,384.448,378.333,379.74,381.865z M341.333,256c-35.292,0-64-28.708-64-64c0-5.896,4.771-10.667,10.667-10.667
			s10.667,4.771,10.667,10.667c0,23.531,19.135,42.667,42.667,42.667C364.865,234.667,384,215.531,384,192
			c0-5.896,4.771-10.667,10.667-10.667s10.667,4.771,10.667,10.667C405.333,227.292,376.625,256,341.333,256z M426.458,162.094
			c-1.01,5.073-5.469,8.573-10.448,8.573c-0.688,0-1.396-0.063-2.104-0.208L307.24,149.125c-5.771-1.156-9.521-6.771-8.365-12.552
			c1.146-5.781,6.708-9.594,12.552-8.365l106.667,21.333C423.865,150.698,427.615,156.313,426.458,162.094z"/>
	</g>
</g>
<g>
</g>
<g>
</g>
<g>
</g>
<g>
</g>
<g>
</g>
<g>
</g>
<g>
</g>
<g>
</g>
<g>
</g>
<g>
</g>
<g>
</g>
<g>
</g>
<g>
</g>
<g>
</g>
<g>
</g>
</svg>
