<?xml version="1.0" encoding="iso-8859-1"?>
<!-- Generator: Adobe Illustrator 19.0.0, SVG Export Plug-In . SVG Version: 6.00 Build 0)  -->
<svg fill='#eeeeee' version="1.1" id="Capa_1" xmlns="http://www.w3.org/2000/svg" xmlns:xlink="http://www.w3.org/1999/xlink" x="0px" y="0px"
	 viewBox="0 0 512 512" style="enable-background:new 0 0 512 512;" xml:space="preserve">
<g>
	<g>
		<path d="M485.056,282.44c3.307-15.479,5.611-31.32,5.611-47.773C490.667,105.271,385.396,0,256,0S21.333,105.271,21.333,234.667
			c0,16.453,2.303,32.294,5.611,47.773c-36.708,46.871-35.771,113.547,4.91,154.904C65.354,471.406,114.271,512,157.021,512
			c16.792,0,31.292-6.094,43.125-18.115c8.81-8.949,12.628-18.76,13.1-29.018c13.905,2.643,28.091,4.466,42.754,4.466
			c14.663,0,28.849-1.823,42.754-4.466c0.473,10.258,4.29,20.069,13.1,29.018C323.687,505.906,338.187,512,354.979,512
			c42.75,0,91.667-40.594,125.167-74.656C520.827,395.987,521.764,329.311,485.056,282.44z M341.333,85.333
			c35.292,0,64,28.708,64,64c0,35.292-28.708,64-64,64c-35.292,0-64-28.708-64-64C277.333,114.042,306.042,85.333,341.333,85.333z
			 M170.667,106.667c23.521,0,42.667,19.135,42.667,42.667S194.187,192,170.667,192C147.146,192,128,172.865,128,149.333
			S147.146,106.667,170.667,106.667z M184.937,478.927c-7.771,7.896-16.896,11.74-27.917,11.74
			c-27.583,0-66.646-24.25-109.958-68.281c-35.771-36.375-33.979-97.365,4-135.969c9-9.146,13.042-9.219,14.146-9.042
			c5.938,0.99,14.042,17.948,20.563,31.573c8.729,18.24,18.604,38.927,34.396,54.958l7.333,7.406
			C162.062,406.229,209.437,454.042,184.937,478.927z M256,348.792c-22.625-10.979-47.979-10.604-70.5,6.594l-2.042,1.625
			c-0.583,0.479-1.125,1.01-1.604,1.604l-3.714,4.609c-4.725-13.244-7.474-27.813-7.474-43.224
			c0-58.813,38.271-106.667,85.333-106.667S341.333,261.188,341.333,320c0,15.573-2.828,30.27-7.647,43.621l-3.395-4.767
			c-0.563-0.792-1.229-1.5-1.979-2.104C305.542,338.333,279.333,337.479,256,348.792z M464.937,422.385
			c-43.313,44.031-82.375,68.281-109.958,68.281c-11.021,0-20.146-3.844-27.917-11.74c-24.5-24.885,22.875-72.698,57.438-107.615
			l7.333-7.406c15.792-16.031,25.667-36.719,34.396-54.958c6.521-13.625,14.625-30.583,20.563-31.573
			c0.125-0.021,0.271-0.031,0.479-0.031c1.563,0,5.729,1,13.667,9.073C498.917,325.021,500.708,386.01,464.937,422.385z"/>
	</g>
</g>
<g>
</g>
<g>
</g>
<g>
</g>
<g>
</g>
<g>
</g>
<g>
</g>
<g>
</g>
<g>
</g>
<g>
</g>
<g>
</g>
<g>
</g>
<g>
</g>
<g>
</g>
<g>
</g>
<g>
</g>
</svg>
