<?xml version="1.0" encoding="iso-8859-1"?>
<!-- Generator: Adobe Illustrator 19.0.0, SVG Export Plug-In . SVG Version: 6.00 Build 0)  -->
<svg fill='#eeeeee' version="1.1" id="Capa_1" xmlns="http://www.w3.org/2000/svg" xmlns:xlink="http://www.w3.org/1999/xlink" x="0px" y="0px"
	 viewBox="0 0 512 512" style="enable-background:new 0 0 512 512;" xml:space="preserve">
<g>
	<g>
		<path d="M256,0C114.844,0,0,114.844,0,256s114.844,256,256,256s256-114.844,256-256S397.156,0,256,0z M117.344,192
			c-3.917,0-7.677-2.156-9.552-5.896c-2.635-5.271-0.5-11.677,4.771-14.313l85.333-42.667c5.25-2.625,11.677-0.5,14.313,4.771
			c2.635,5.271,0.5,11.677-4.771,14.313l-85.333,42.667C120.573,191.635,118.948,192,117.344,192z M170.667,234.667
			c-11.76,0-21.333-9.573-21.333-21.333c0-11.76,9.573-21.333,21.333-21.333c11.76,0,21.333,9.573,21.333,21.333
			C192,225.094,182.427,234.667,170.667,234.667z M309.333,405.333H202.667c-5.896,0-10.667-4.771-10.667-10.667
			S196.771,384,202.667,384h106.667c5.896,0,10.667,4.771,10.667,10.667S315.229,405.333,309.333,405.333z M341.333,234.667
			c-11.76,0-21.333-9.573-21.333-21.333c0-11.76,9.573-21.333,21.333-21.333c11.76,0,21.333,9.573,21.333,21.333
			C362.667,225.094,353.094,234.667,341.333,234.667z M404.208,186.104c-1.875,3.74-5.635,5.896-9.552,5.896
			c-1.604,0-3.229-0.365-4.76-1.125l-85.333-42.667c-5.271-2.635-7.406-9.042-4.771-14.313c2.635-5.271,9.042-7.396,14.313-4.771
			l85.333,42.667C404.708,174.427,406.844,180.833,404.208,186.104z"/>
	</g>
</g>
<g>
</g>
<g>
</g>
<g>
</g>
<g>
</g>
<g>
</g>
<g>
</g>
<g>
</g>
<g>
</g>
<g>
</g>
<g>
</g>
<g>
</g>
<g>
</g>
<g>
</g>
<g>
</g>
<g>
</g>
</svg>
