<?xml version="1.0" encoding="iso-8859-1"?>
<!-- Generator: Adobe Illustrator 19.0.0, SVG Export Plug-In . SVG Version: 6.00 Build 0)  -->
<svg fill='#eeeeee' version="1.1" id="Capa_1" xmlns="http://www.w3.org/2000/svg" xmlns:xlink="http://www.w3.org/1999/xlink" x="0px" y="0px"
	 viewBox="0 0 512 512" style="enable-background:new 0 0 512 512;" xml:space="preserve">
<g>
	<g>
		<path d="M256,0C114.844,0,0,114.844,0,256s114.844,256,256,256s256-114.844,256-256S397.156,0,256,0z M341.333,160
			c12.365,0,21.333,13.458,21.333,32s-8.969,32-21.333,32C328.969,224,320,210.542,320,192S328.969,160,341.333,160z M170.667,160
			C183.031,160,192,173.458,192,192s-8.969,32-21.333,32c-12.365,0-21.333-13.458-21.333-32S158.302,160,170.667,160z
			 M351.27,412.285c-0.522-1.402-1.277-2.71-2.353-3.796C335.344,394.76,308.583,384,288,384c-11.063,0-21.802,2.51-32,7.458
			C245.802,386.51,235.063,384,224,384c-20.427,0-47.167,10.74-60.875,24.448c-1.094,1.094-1.861,2.419-2.389,3.842
			c-13.829-14.001-22.069-31.108-22.069-49.624c0-47.052,52.635-85.333,117.333-85.333s117.333,38.281,117.333,85.333
			C373.333,381.18,365.095,398.285,351.27,412.285z"/>
	</g>
</g>
<g>
</g>
<g>
</g>
<g>
</g>
<g>
</g>
<g>
</g>
<g>
</g>
<g>
</g>
<g>
</g>
<g>
</g>
<g>
</g>
<g>
</g>
<g>
</g>
<g>
</g>
<g>
</g>
<g>
</g>
</svg>
