<?xml version="1.0" encoding="iso-8859-1"?>
<!-- Generator: Adobe Illustrator 19.0.0, SVG Export Plug-In . SVG Version: 6.00 Build 0)  -->
<svg fill='#eeeeee' version="1.1" id="Capa_1" xmlns="http://www.w3.org/2000/svg" xmlns:xlink="http://www.w3.org/1999/xlink" x="0px" y="0px"
	 viewBox="0 0 512 512" style="enable-background:new 0 0 512 512;" xml:space="preserve">
<g>
	<g>
		<path d="M256,0C114.844,0,0,114.844,0,256s114.844,256,256,256s256-114.844,256-256S397.156,0,256,0z M109.792,231.542
			c-4.156-4.156-4.156-10.927,0-15.083l27.583-27.583c4.167-4.167,4.167-10.917,0-15.083l-27.583-27.583
			c-4.156-4.156-4.156-10.927,0-15.083c4.167-4.167,10.917-4.167,15.083,0l27.583,27.583c4.167,4.167,10.917,4.167,15.083,0
			l27.583-27.583c4.167-4.167,10.917-4.167,15.083,0c2.01,2.021,3.125,4.698,3.125,7.542s-1.115,5.521-3.125,7.542l-27.583,27.583
			c-4.167,4.167-4.167,10.917,0,15.083l27.583,27.583c4.156,4.156,4.156,10.927,0,15.083c-4.042,4.021-11.042,4.021-15.083,0
			l-27.583-27.583c-2.083-2.083-4.813-3.125-7.542-3.125s-5.458,1.042-7.542,3.125l-27.583,27.583
			C120.833,235.563,113.833,235.563,109.792,231.542z M351.27,412.285c-0.522-1.402-1.277-2.71-2.353-3.796
			C335.344,394.76,308.583,384,288,384c-11.052,0-21.792,2.51-32,7.469C245.792,386.51,235.052,384,224,384
			c-20.427,0-47.167,10.74-60.875,24.448c-1.094,1.094-1.861,2.419-2.389,3.842c-13.829-14.001-22.069-31.108-22.069-49.624
			c0-47.052,52.635-85.333,117.333-85.333s117.333,38.281,117.333,85.333C373.333,381.18,365.095,398.285,351.27,412.285z
			 M374.625,188.875l27.583,27.583c4.156,4.156,4.156,10.927,0,15.083c-4.042,4.021-11.042,4.021-15.083,0l-27.583-27.583
			c-2.083-2.083-4.813-3.125-7.542-3.125c-2.729,0-5.458,1.042-7.542,3.125l-27.583,27.583c-4.042,4.021-11.042,4.021-15.083,0
			c-4.156-4.156-4.156-10.927,0-15.083l27.583-27.583c4.167-4.167,4.167-10.917,0-15.083l-27.583-27.583
			c-2.01-2.021-3.125-4.698-3.125-7.542s1.115-5.521,3.125-7.542c4.167-4.167,10.917-4.167,15.083,0l27.583,27.583
			c4.167,4.167,10.917,4.167,15.083,0l27.583-27.583c4.167-4.167,10.917-4.167,15.083,0c4.156,4.156,4.156,10.927,0,15.083
			l-27.583,27.583C370.458,177.958,370.458,184.708,374.625,188.875z"/>
	</g>
</g>
<g>
</g>
<g>
</g>
<g>
</g>
<g>
</g>
<g>
</g>
<g>
</g>
<g>
</g>
<g>
</g>
<g>
</g>
<g>
</g>
<g>
</g>
<g>
</g>
<g>
</g>
<g>
</g>
<g>
</g>
</svg>
