<?xml version="1.0" encoding="iso-8859-1"?>
<!-- Generator: Adobe Illustrator 19.0.0, SVG Export Plug-In . SVG Version: 6.00 Build 0)  -->
<svg fill='#eeeeee' version="1.1" id="Capa_1" xmlns="http://www.w3.org/2000/svg" xmlns:xlink="http://www.w3.org/1999/xlink" x="0px" y="0px"
	 viewBox="0 0 512 512" style="enable-background:new 0 0 512 512;" xml:space="preserve">
<g>
	<g>
		<path d="M256,0C114.833,0,0,114.844,0,256s114.833,256,256,256s256-114.844,256-256S397.167,0,256,0z M341.333,170.667
			c11.771,0,21.333,9.573,21.333,21.333s-9.563,21.333-21.333,21.333C329.563,213.333,320,203.76,320,192
			S329.563,170.667,341.333,170.667z M170.667,170.667C182.438,170.667,192,180.24,192,192s-9.563,21.333-21.333,21.333
			c-11.771,0-21.333-9.573-21.333-21.333S158.896,170.667,170.667,170.667z M64,266.667c0-17.646,14.354-32,32-32s32,14.354,32,32
			c0,17.646-14.354,32-32,32S64,284.313,64,266.667z M404.875,333.906C388.229,388.521,327,426.667,256,426.667
			c-71.063,0-132.313-38.198-148.917-92.906c-1.708-5.635,1.479-11.594,7.104-13.302c5.708-1.719,11.604,1.469,13.313,7.115
			c13.688,45.052,67.729,77.76,128.5,77.76c60.729,0,114.75-32.656,128.458-77.656c1.729-5.615,7.708-8.865,13.313-7.083
			C403.417,322.302,406.583,328.271,404.875,333.906z M416,298.667c-17.646,0-32-14.354-32-32c0-17.646,14.354-32,32-32
			c17.646,0,32,14.354,32,32C448,284.313,433.646,298.667,416,298.667z"/>
	</g>
</g>
<g>
</g>
<g>
</g>
<g>
</g>
<g>
</g>
<g>
</g>
<g>
</g>
<g>
</g>
<g>
</g>
<g>
</g>
<g>
</g>
<g>
</g>
<g>
</g>
<g>
</g>
<g>
</g>
<g>
</g>
</svg>
