<?xml version="1.0" encoding="iso-8859-1"?>
<!-- Generator: Adobe Illustrator 19.0.0, SVG Export Plug-In . SVG Version: 6.00 Build 0)  -->
<svg fill='#eeeeee' version="1.1" id="Capa_1" xmlns="http://www.w3.org/2000/svg" xmlns:xlink="http://www.w3.org/1999/xlink" x="0px" y="0px"
	 viewBox="0 0 512 512" style="enable-background:new 0 0 512 512;" xml:space="preserve">
<g>
	<g>
		<path d="M256,0C114.844,0,0,114.844,0,256s114.844,256,256,256s256-114.844,256-256S397.156,0,256,0z M341.333,170.667
			c11.76,0,21.333,9.573,21.333,21.333s-9.573,21.333-21.333,21.333C329.573,213.333,320,203.76,320,192
			S329.573,170.667,341.333,170.667z M170.667,170.667c11.76,0,21.333,9.573,21.333,21.333s-9.573,21.333-21.333,21.333
			c-11.76,0-21.333-9.573-21.333-21.333S158.906,170.667,170.667,170.667z M373.333,384c5.885,0,10.667,4.781,10.667,10.667
			s-4.781,10.667-10.667,10.667c-33.802,0-63.406-23.031-71.979-56.021c-1.219-4.698-5.469-7.979-10.323-7.979h-70.063
			c-4.854,0-9.104,3.281-10.323,7.979c-8.573,32.99-38.177,56.021-71.979,56.021c-5.885,0-10.667-4.781-10.667-10.667
			S132.781,384,138.667,384C168.073,384,192,360.073,192,330.667s-23.927-53.333-53.333-53.333c-5.885,0-10.667-4.781-10.667-10.667
			c0-5.885,4.781-10.667,10.667-10.667c33.802,0,63.406,23.031,71.979,56.021c1.219,4.698,5.469,7.979,10.323,7.979h70.063
			c4.854,0,9.104-3.281,10.323-7.979c8.573-32.99,38.177-56.021,71.979-56.021c5.885,0,10.667,4.781,10.667,10.667
			c0,5.885-4.781,10.667-10.667,10.667c-29.406,0-53.333,23.927-53.333,53.333S343.927,384,373.333,384z"/>
	</g>
</g>
<g>
</g>
<g>
</g>
<g>
</g>
<g>
</g>
<g>
</g>
<g>
</g>
<g>
</g>
<g>
</g>
<g>
</g>
<g>
</g>
<g>
</g>
<g>
</g>
<g>
</g>
<g>
</g>
<g>
</g>
</svg>
