<?xml version="1.0" encoding="iso-8859-1"?>
<!-- Generator: Adobe Illustrator 19.0.0, SVG Export Plug-In . SVG Version: 6.00 Build 0)  -->
<svg fill='#eeeeee' version="1.1" id="Capa_1" xmlns="http://www.w3.org/2000/svg" xmlns:xlink="http://www.w3.org/1999/xlink" x="0px" y="0px"
	 viewBox="0 0 512 512" style="enable-background:new 0 0 512 512;" xml:space="preserve">
<g>
	<g>
		<path d="M256,0C114.833,0,0,114.833,0,256s114.833,256,256,256s256-114.833,256-256S397.167,0,256,0z M170.667,170.667
			c11.771,0,21.333,9.563,21.333,21.333s-9.563,21.333-21.333,21.333c-11.771,0-21.333-9.563-21.333-21.333
			S158.896,170.667,170.667,170.667z M358.979,397.271c2.25,1.938,3.583,4.729,3.688,7.688c0.104,2.958-1.021,5.833-3.125,7.917
			l-32,32C325.458,446.958,322.729,448,320,448c-2.479,0-4.979-0.854-6.979-2.604l-57.022-49.417l-57.02,49.417
			c-2,1.75-4.5,2.604-6.979,2.604c-2.729,0-5.458-1.042-7.542-3.125l-32-32c-2.104-2.083-3.229-4.958-3.125-7.917
			c0.104-2.958,1.438-5.75,3.688-7.688l52.238-45.273l-52.238-45.268c-2.25-1.938-3.583-4.729-3.688-7.688
			c-0.104-2.958,1.021-5.833,3.125-7.917l32-32c3.979-3.979,10.333-4.167,14.521-0.521l57.022,49.418l57.02-49.418
			c4.188-3.667,10.542-3.479,14.521,0.521l32,32c2.104,2.083,3.229,4.958,3.125,7.917c-0.104,2.958-1.438,5.75-3.688,7.688
			l-52.238,45.273L358.979,397.271z M341.333,234.667c-23.521,0-42.667-19.146-42.667-42.667s19.146-42.667,42.667-42.667
			C364.854,149.333,384,168.479,384,192S364.854,234.667,341.333,234.667z"/>
	</g>
</g>
<g>
</g>
<g>
</g>
<g>
</g>
<g>
</g>
<g>
</g>
<g>
</g>
<g>
</g>
<g>
</g>
<g>
</g>
<g>
</g>
<g>
</g>
<g>
</g>
<g>
</g>
<g>
</g>
<g>
</g>
</svg>
