<?xml version="1.0" encoding="iso-8859-1"?>
<!-- Generator: Adobe Illustrator 19.0.0, SVG Export Plug-In . SVG Version: 6.00 Build 0)  -->
<svg fill='#eeeeee' version="1.1" id="Capa_1" xmlns="http://www.w3.org/2000/svg" xmlns:xlink="http://www.w3.org/1999/xlink" x="0px" y="0px"
	 viewBox="0 0 512 512" style="enable-background:new 0 0 512 512;" xml:space="preserve">
<g>
	<g>
		<path d="M422.771,399.458c43.854-44.271,67.896-102.458,67.896-164.792C490.667,105.271,385.396,0,256,0
			S21.333,105.271,21.333,234.667c0,62.333,24.042,120.521,67.896,164.792l-12.521,20.854c-8.729,14.542-8.938,32.021-0.583,46.792
			c8.354,14.75,23.458,23.563,40.417,23.563c17.708,0,33.646-9.833,41.563-25.688l0.167-0.333
			c0.708,10.438,4.625,20.479,11.417,28.771C179.375,505.229,193.708,512,208.979,512c21.146,0,39.375-12.792,47.021-31.417
			C263.646,499.208,281.875,512,303.021,512c15.271,0,29.604-6.771,39.292-18.583c6.792-8.292,10.708-18.333,11.417-28.771
			l0.167,0.333c7.917,15.854,23.854,25.688,41.563,25.688c16.958,0,32.063-8.813,40.417-23.563
			c8.354-14.771,8.146-32.25-0.583-46.792L422.771,399.458z M92.417,220.229c-5.063-1.792-8-7.083-6.833-12.333
			c7.5-33.938,38.125-58.563,72.833-58.563c41.167,0,74.667,33.5,74.667,74.667c0,20.271-8.042,39.25-22.646,53.438
			c-2.083,2.021-4.75,3.021-7.438,3.021c-2.771,0-5.542-1.083-7.646-3.229C168.958,250.125,119.542,229.896,92.417,220.229z
			 M255.833,311.25c-1.875,10.188-7.104,34.75-15.438,43.104c-5.542,5.542-12.792,8.292-20.063,8.292c-7.25,0-14.5-2.75-20.021-8.25
			c-11.063-11.083-11.063-29.063-0.021-40.104c0,0,0,0,0.021-0.021c8.354-8.333,32.917-13.563,43.104-15.438
			c3.375-0.563,6.979,0.479,9.458,2.958C255.354,304.271,256.458,307.813,255.833,311.25z M311.729,354.354
			c-5.542,5.542-12.813,8.292-20.083,8.292c-7.25,0-14.5-2.75-20.021-8.271c-8.354-8.375-13.583-32.938-15.458-43.125
			c-0.625-3.438,0.479-6.979,2.958-9.458c2.479-2.5,6.083-3.563,9.458-2.958c10.188,1.875,34.75,7.104,43.104,15.438
			c0.021,0.021,0.021,0.021,0.021,0.021C322.75,325.333,322.75,343.313,311.729,354.354z M316.625,277.229
			c-2.104,2.146-4.875,3.229-7.646,3.229c-2.688,0-5.375-1-7.438-3.021c-14.583-14.208-22.625-33.188-22.625-53.438
			c0-41.167,33.5-74.667,74.667-74.667c34.708,0,65.333,24.625,72.833,58.563c1.167,5.25-1.771,10.542-6.833,12.333
			C392.479,229.896,343.042,250.125,316.625,277.229z"/>
	</g>
</g>
<g>
</g>
<g>
</g>
<g>
</g>
<g>
</g>
<g>
</g>
<g>
</g>
<g>
</g>
<g>
</g>
<g>
</g>
<g>
</g>
<g>
</g>
<g>
</g>
<g>
</g>
<g>
</g>
<g>
</g>
</svg>
