<?xml version="1.0" encoding="iso-8859-1"?>
<!-- Generator: Adobe Illustrator 19.0.0, SVG Export Plug-In . SVG Version: 6.00 Build 0)  -->
<svg fill='#eeeeee' version="1.1" id="Capa_1" xmlns="http://www.w3.org/2000/svg" xmlns:xlink="http://www.w3.org/1999/xlink" x="0px" y="0px"
	 viewBox="0 0 512 512" style="enable-background:new 0 0 512 512;" xml:space="preserve">
<g>
	<g>
		<path d="M422.771,399.458c43.854-44.271,67.896-102.458,67.896-164.792C490.667,105.271,385.396,0,256,0
			S21.333,105.271,21.333,234.667c0,62.333,24.042,120.521,67.896,164.792l-12.521,20.854c-8.729,14.542-8.938,32.021-0.583,46.792
			c8.354,14.75,23.458,23.563,40.417,23.563c17.708,0,33.646-9.833,41.563-25.688l0.167-0.333
			c0.708,10.438,4.625,20.479,11.417,28.771C179.375,505.229,193.708,512,208.979,512c21.146,0,39.375-12.792,47.021-31.417
			C263.646,499.208,281.875,512,303.021,512c15.271,0,29.604-6.771,39.292-18.583c6.792-8.292,10.708-18.333,11.417-28.771
			l0.167,0.333c7.917,15.854,23.854,25.688,41.563,25.688c16.958,0,32.063-8.813,40.417-23.563
			c8.354-14.771,8.146-32.25-0.583-46.792L422.771,399.458z M160,277.333c-41.167,0-74.667-33.5-74.667-74.667
			c0-20.271,8.042-39.25,22.646-53.438c4.25-4.083,10.958-4,15.083,0.208c26.396,27.104,75.813,47.333,102.938,57
			c5.063,1.792,8,7.083,6.833,12.333C225.333,252.708,194.708,277.333,160,277.333z M255.833,311.25
			c-1.875,10.188-7.104,34.75-15.438,43.104c-0.021,0.021-0.021,0.021-0.021,0.021c-5.521,5.521-12.771,8.271-20.042,8.271
			c-7.25,0-14.5-2.75-20.021-8.25c-11.063-11.083-11.063-29.063-0.021-40.104c8.375-8.354,32.938-13.583,43.125-15.458
			c3.375-0.563,6.979,0.479,9.458,2.958C255.354,304.271,256.458,307.813,255.833,311.25z M311.729,354.354
			c-5.542,5.542-12.813,8.292-20.083,8.292c-7.25,0-14.5-2.75-20.021-8.271c-8.354-8.375-13.583-32.938-15.458-43.125
			c-0.625-3.438,0.479-6.979,2.958-9.458c2.479-2.5,6.083-3.563,9.458-2.958c10.188,1.875,34.75,7.104,43.104,15.438
			c0.021,0.021,0.021,0.021,0.021,0.021C322.75,325.333,322.75,343.313,311.729,354.354z M352,277.333
			c-34.708,0-65.334-24.625-72.833-58.563c-1.167-5.25,1.771-10.542,6.833-12.333c27.125-9.667,76.542-29.896,102.938-57
			c4.167-4.208,10.875-4.292,15.083-0.208c14.604,14.188,22.646,33.167,22.646,53.438C426.667,243.833,393.167,277.333,352,277.333z
			"/>
	</g>
</g>
<g>
</g>
<g>
</g>
<g>
</g>
<g>
</g>
<g>
</g>
<g>
</g>
<g>
</g>
<g>
</g>
<g>
</g>
<g>
</g>
<g>
</g>
<g>
</g>
<g>
</g>
<g>
</g>
<g>
</g>
</svg>
