<?xml version="1.0" encoding="iso-8859-1"?>
<!-- Generator: Adobe Illustrator 19.0.0, SVG Export Plug-In . SVG Version: 6.00 Build 0)  -->
<svg fill='#eeeeee' version="1.1" id="Capa_1" xmlns="http://www.w3.org/2000/svg" xmlns:xlink="http://www.w3.org/1999/xlink" x="0px" y="0px"
	 viewBox="0 0 512 512" style="enable-background:new 0 0 512 512;" xml:space="preserve">
<g>
	<g>
		<g>
			<path d="M458.667,42.667h16.917l-24.458,24.458c-3.042,3.052-3.958,7.635-2.313,11.625c1.646,3.99,5.542,6.583,9.854,6.583
				h42.667c5.896,0,10.667-4.771,10.667-10.667C512,68.771,507.229,64,501.333,64h-16.917l24.458-24.458
				c3.042-3.052,3.958-7.635,2.313-11.625c-1.646-3.99-5.542-6.583-9.854-6.583h-42.667C452.771,21.333,448,26.104,448,32
				S452.771,42.667,458.667,42.667z"/>
			<path d="M256,0C114.833,0,0,114.844,0,256s114.833,256,256,256s256-114.844,256-256S397.167,0,256,0z M106.667,192
				c0-5.896,4.771-10.667,10.667-10.667c5.896,0,10.667,4.771,10.667,10.667c0,23.531,19.146,42.667,42.667,42.667
				c23.521,0,42.667-19.135,42.667-42.667c0-5.896,4.771-10.667,10.667-10.667s10.667,4.771,10.667,10.667c0,35.292-28.708,64-64,64
				C135.375,256,106.667,227.292,106.667,192z M316.188,402.854c-18.875,15.781-39.125,23.781-60.188,23.781
				c-21.042,0-41.271-7.99-60.146-23.75c-4.521-3.771-5.125-10.5-1.354-15.021c3.771-4.521,10.521-5.094,15.021-1.354
				c29.896,24.948,63.104,24.917,93-0.031c4.458-3.781,11.229-3.188,15.021,1.344C321.313,392.344,320.708,399.073,316.188,402.854z
				 M341.333,256c-35.292,0-64-28.708-64-64c0-5.896,4.771-10.667,10.667-10.667s10.667,4.771,10.667,10.667
				c0,23.531,19.146,42.667,42.667,42.667C364.854,234.667,384,215.531,384,192c0-5.896,4.771-10.667,10.667-10.667
				s10.667,4.771,10.667,10.667C405.333,227.292,376.625,256,341.333,256z M405.333,149.333H352c-4.313,0-8.208-2.594-9.854-6.583
				c-1.646-3.99-0.729-8.573,2.313-11.625L379.583,96H352c-5.896,0-10.667-4.771-10.667-10.667c0-5.896,4.771-10.667,10.667-10.667
				h53.333c4.313,0,8.208,2.594,9.854,6.583c1.646,3.99,0.729,8.573-2.313,11.625L377.75,128h27.583
				c5.896,0,10.667,4.771,10.667,10.667C416,144.563,411.229,149.333,405.333,149.333z"/>
		</g>
	</g>
</g>
<g>
</g>
<g>
</g>
<g>
</g>
<g>
</g>
<g>
</g>
<g>
</g>
<g>
</g>
<g>
</g>
<g>
</g>
<g>
</g>
<g>
</g>
<g>
</g>
<g>
</g>
<g>
</g>
<g>
</g>
</svg>
