<?xml version="1.0" encoding="iso-8859-1"?>
<!-- Generator: Adobe Illustrator 19.0.0, SVG Export Plug-In . SVG Version: 6.00 Build 0)  -->
<svg fill='#eeeeee' version="1.1" id="Capa_1" xmlns="http://www.w3.org/2000/svg" xmlns:xlink="http://www.w3.org/1999/xlink" x="0px" y="0px"
	 viewBox="0 0 512 512" style="enable-background:new 0 0 512 512;" xml:space="preserve">
<g>
	<g>
		<path d="M256,0C114.844,0,0,114.833,0,256s114.844,256,256,256s256-114.833,256-256S397.156,0,256,0z M106.667,181.333
			c0-5.896,4.771-10.667,10.667-10.667c5.896,0,10.667,4.771,10.667,10.667c0,17.646,19.135,32,42.667,32s42.667-14.354,42.667-32
			c0-5.896,4.771-10.667,10.667-10.667s10.667,4.771,10.667,10.667c0,29.417-28.708,53.333-64,53.333
			C135.375,234.667,106.667,210.75,106.667,181.333z M256,448c-35.292,0-64-28.708-64-64c0-35.292,28.708-64,64-64s64,28.708,64,64
			C320,419.292,291.292,448,256,448z M394.667,362.667H352c-3.938,0-7.552-2.167-9.406-5.625c-1.854-3.479-1.646-7.688,0.531-10.958
			l31.615-47.417H352c-5.896,0-10.667-4.771-10.667-10.667s4.771-10.667,10.667-10.667h42.667c3.938,0,7.552,2.167,9.406,5.625
			c1.854,3.479,1.646,7.688-0.531,10.958l-31.615,47.417h22.74c5.896,0,10.667,4.771,10.667,10.667
			C405.333,357.896,400.563,362.667,394.667,362.667z M341.333,234.667c-35.292,0-64-23.917-64-53.333
			c0-5.896,4.771-10.667,10.667-10.667s10.667,4.771,10.667,10.667c0,17.646,19.135,32,42.667,32c23.531,0,42.667-14.354,42.667-32
			c0-5.896,4.771-10.667,10.667-10.667s10.667,4.771,10.667,10.667C405.333,210.75,376.625,234.667,341.333,234.667z
			 M458.667,298.667h-21.333c-3.698,0-7.125-1.917-9.073-5.063c-1.948-3.146-2.125-7.063-0.469-10.375L441.406,256h-4.073
			c-5.896,0-10.667-4.771-10.667-10.667c0-5.896,4.771-10.667,10.667-10.667h21.333c3.698,0,7.125,1.917,9.073,5.063
			c1.948,3.146,2.125,7.063,0.469,10.375l-13.615,27.229h4.073c5.896,0,10.667,4.771,10.667,10.667S464.563,298.667,458.667,298.667
			z"/>
	</g>
</g>
<g>
</g>
<g>
</g>
<g>
</g>
<g>
</g>
<g>
</g>
<g>
</g>
<g>
</g>
<g>
</g>
<g>
</g>
<g>
</g>
<g>
</g>
<g>
</g>
<g>
</g>
<g>
</g>
<g>
</g>
</svg>
