<?xml version="1.0" encoding="iso-8859-1"?>
<!-- Generator: Adobe Illustrator 19.0.0, SVG Export Plug-In . SVG Version: 6.00 Build 0)  -->
<svg fill='#eeeeee' version="1.1" id="Capa_1" xmlns="http://www.w3.org/2000/svg" xmlns:xlink="http://www.w3.org/1999/xlink" x="0px" y="0px"
	 viewBox="0 0 512 512" style="enable-background:new 0 0 512 512;" xml:space="preserve">
<g>
	<g>
		<path d="M256,0C114.844,0,0,114.844,0,256s114.844,256,256,256s256-114.844,256-256S397.156,0,256,0z M106.667,213.333
			c0-35.292,28.708-64,64-64c35.292,0,64,28.708,64,64c0,5.896-4.771,10.667-10.667,10.667s-10.667-4.771-10.667-10.667
			c0-23.531-19.135-42.667-42.667-42.667S128,189.802,128,213.333c0,5.896-4.771,10.667-10.667,10.667
			C111.438,224,106.667,219.229,106.667,213.333z M401.292,311.958C385.26,379.5,325.51,426.667,256,426.667
			c-69.594,0-129.365-47.24-145.344-114.885c-1.354-5.729,2.198-11.479,7.938-12.833c5.688-1.302,11.469,2.188,12.833,7.938
			c13.688,57.958,64.917,98.448,124.573,98.448c59.583,0,110.792-40.427,124.542-98.313c1.344-5.729,7.042-9.292,12.844-7.906
			C399.115,300.469,402.656,306.219,401.292,311.958z M394.667,224c-5.896,0-10.667-4.771-10.667-10.667
			c0-23.531-19.135-42.667-42.667-42.667c-23.531,0-42.667,19.135-42.667,42.667c0,5.896-4.771,10.667-10.667,10.667
			s-10.667-4.771-10.667-10.667c0-35.292,28.708-64,64-64c35.292,0,64,28.708,64,64C405.333,219.229,400.563,224,394.667,224z"/>
	</g>
</g>
<g>
</g>
<g>
</g>
<g>
</g>
<g>
</g>
<g>
</g>
<g>
</g>
<g>
</g>
<g>
</g>
<g>
</g>
<g>
</g>
<g>
</g>
<g>
</g>
<g>
</g>
<g>
</g>
<g>
</g>
</svg>
