<?xml version="1.0" encoding="iso-8859-1"?>
<!-- Generator: Adobe Illustrator 19.0.0, SVG Export Plug-In . SVG Version: 6.00 Build 0)  -->
<svg fill='#eeeeee' version="1.1" id="Capa_1" xmlns="http://www.w3.org/2000/svg" xmlns:xlink="http://www.w3.org/1999/xlink" x="0px" y="0px"
	 viewBox="0 0 512 512" style="enable-background:new 0 0 512 512;" xml:space="preserve">
<g>
	<g>
		<path d="M256,0C114.844,0,0,114.844,0,256s114.844,256,256,256s256-114.844,256-256S397.156,0,256,0z M90.083,193.792l64-42.667
			c3.583-2.396,8.25-2.396,11.833,0l64,42.667c4.906,3.271,6.229,9.885,2.958,14.792c-2.052,3.083-5.438,4.75-8.885,4.75
			c-2.031,0-4.083-0.583-5.906-1.792L160,172.823l-58.083,38.719c-4.938,3.25-11.552,1.938-14.792-2.958
			C83.854,203.677,85.177,197.063,90.083,193.792z M256,426.667c-63.587,0-125.37-46.966-146.349-109.109
			C105.341,319.026,100.802,320,96,320c-5.896,0-10.667-4.771-10.667-10.667c0-5.896,4.771-10.667,10.667-10.667
			c11.76,0,21.333-9.573,21.333-21.333c0-5.896,4.771-10.667,10.667-10.667s10.667,4.771,10.667,10.667
			c0,10.507-3.961,20.013-10.279,27.454C144.456,361.516,199.245,405.333,256,405.333c5.896,0,10.667,4.771,10.667,10.667
			C266.667,421.896,261.896,426.667,256,426.667z M424.875,208.583c-2.052,3.083-5.438,4.75-8.885,4.75
			c-2.031,0-4.083-0.583-5.906-1.792L352,172.823l-58.083,38.719c-4.948,3.25-11.531,1.938-14.792-2.958
			c-3.271-4.906-1.948-11.521,2.958-14.792l64-42.667c3.583-2.396,8.25-2.396,11.833,0l64,42.667
			C426.823,197.063,428.146,203.677,424.875,208.583z"/>
	</g>
</g>
<g>
</g>
<g>
</g>
<g>
</g>
<g>
</g>
<g>
</g>
<g>
</g>
<g>
</g>
<g>
</g>
<g>
</g>
<g>
</g>
<g>
</g>
<g>
</g>
<g>
</g>
<g>
</g>
<g>
</g>
</svg>
