<?xml version="1.0" encoding="iso-8859-1"?>
<!-- Generator: Adobe Illustrator 19.0.0, SVG Export Plug-In . SVG Version: 6.00 Build 0)  -->
<svg fill='#eeeeee' version="1.1" id="Capa_1" xmlns="http://www.w3.org/2000/svg" xmlns:xlink="http://www.w3.org/1999/xlink" x="0px" y="0px"
	 viewBox="0 0 511.958 511.958" style="enable-background:new 0 0 511.958 511.958;" xml:space="preserve">
<g>
	<g>
		<path d="M491.938,372.917c-2.938-2.938-6.313-5.188-9.917-6.75c6.979-12.208,5.25-28.083-5.167-38.5
			c-3.807-3.815-8.451-6.056-13.281-7.538c10.678-27.207,16.406-55.822,16.406-85.462C479.979,105.271,374.708,0,245.312,0
			S10.646,105.271,10.646,234.667s105.271,234.667,234.667,234.667c14.141,0,28.154-1.526,41.909-4.009
			c5.316,8.997,11.91,16.495,17.779,22.363c16.188,16.188,37.458,24.271,58.708,24.271c21.271,0,42.542-8.083,58.729-24.271
			l69.479-69.5c6.938-6.896,9.396-16.667,9.396-23.521C501.313,386.688,497.979,378.958,491.938,372.917z M159.979,149.333
			c11.771,0,21.333,9.563,21.333,21.333S171.75,192,159.979,192s-21.333-9.563-21.333-21.333S148.208,149.333,159.979,149.333z
			 M277.323,362.667h-128.01c-5.896,0-10.667-4.771-10.667-10.667c0-5.896,4.771-10.667,10.667-10.667h128.262
			c-0.099,0.664-0.301,1.28-0.366,1.958L277.323,362.667z M330.646,149.333c11.771,0,21.333,9.563,21.333,21.333
			S342.417,192,330.646,192c-11.771,0-21.333-9.563-21.333-21.333S318.875,149.333,330.646,149.333z M476.854,403.083l-69.5,69.521
			c-24.042,24.021-63.229,24.063-87.271,0c-16.208-16.208-22.729-30.333-21.125-46.958l-0.479-81.354
			c0.688-6.729,6.271-11.792,13.021-11.792c7.229,0,13.104,5.875,13.125,12.563l-1.729,34.875
			c-0.229,4.396,2.292,8.479,6.313,10.271c4.063,1.792,8.75,0.896,11.875-2.208l60.354-60.333c4.167-4.167,10.917-4.167,15.083,0
			s4.167,10.917,0,15.083l-30.167,30.167c-2.083,2.083-3.125,4.813-3.125,7.542s1.042,5.458,3.125,7.542
			c4.167,4.167,10.917,4.167,15.083,0l45.25-45.25c4.167-4.167,10.917-4.167,15.083,0c4.167,4.167,4.167,10.917,0,15.083
			l-15.021,15.021c-0.021,0.021-0.042,0.042-0.063,0.063l-30.167,30.167c-2.083,2.083-3.125,4.813-3.125,7.542
			c0,2.729,1.042,5.458,3.125,7.542c4.167,4.167,10.917,4.167,15.083,0L461.771,388c4.042-4.042,11.042-4.042,15.083,0
			c1.979,1.979,3.125,4.417,3.125,6.667C479.979,397.229,478.896,401.063,476.854,403.083z"/>
	</g>
</g>
<g>
</g>
<g>
</g>
<g>
</g>
<g>
</g>
<g>
</g>
<g>
</g>
<g>
</g>
<g>
</g>
<g>
</g>
<g>
</g>
<g>
</g>
<g>
</g>
<g>
</g>
<g>
</g>
<g>
</g>
</svg>
