<?xml version="1.0" encoding="iso-8859-1"?>
<!-- Generator: Adobe Illustrator 19.0.0, SVG Export Plug-In . SVG Version: 6.00 Build 0)  -->
<svg fill='#eeeeee' version="1.1" id="Capa_1" xmlns="http://www.w3.org/2000/svg" xmlns:xlink="http://www.w3.org/1999/xlink" x="0px" y="0px"
	 viewBox="0 0 512 512" style="enable-background:new 0 0 512 512;" xml:space="preserve">
<g>
	<g>
		<path d="M256,0C114.833,0,0,114.844,0,256s114.833,256,256,256s256-114.844,256-256S397.167,0,256,0z M341.333,149.333
			C364.854,149.333,384,168.469,384,192s-19.146,42.667-42.667,42.667c-23.521,0-42.667-19.135-42.667-42.667
			S317.813,149.333,341.333,149.333z M170.667,149.333c23.521,0,42.667,19.135,42.667,42.667s-19.146,42.667-42.667,42.667
			C147.146,234.667,128,215.531,128,192S147.146,149.333,170.667,149.333z M394.667,426.667c0,3.74-1.958,7.208-5.167,9.135
			c-1.688,1.021-3.583,1.531-5.5,1.531c-1.708,0-3.417-0.417-5-1.24c-34.646-15.677-74.021-18.76-122.833-18.76
			c-48.958,0-88.458,3.115-122.167,18.333c-3.333,1.479-7.958,1.573-10.979-0.396c-3.042-1.969-5.688-4.979-5.688-8.604v-33.333
			c0-4.573,2.917-8.635,7.25-10.104c79.458-26.896,183.375-26.896,262.833,0c4.333,1.469,7.25,5.531,7.25,10.104V426.667z
			 M394.667,352c0,3.552-1.771,6.865-4.708,8.854c-1.792,1.198-3.875,1.813-5.958,1.813c-1.354,0-2.729-0.26-4.021-0.781
			c-74.75-30.375-173.208-30.375-247.958,0c-3.292,1.313-7.021,0.938-9.979-1.031c-2.938-1.99-4.708-5.302-4.708-8.854v-17.781
			c0-12.885,7.542-24.656,20.146-31.49c30.667-16.615,66.313-25.396,103.104-25.396h30.625c36.917,0,72.708,8.781,103.542,25.396
			v-0.01c12.479,6.729,19.917,18.51,19.917,31.542V352z"/>
	</g>
</g>
<g>
</g>
<g>
</g>
<g>
</g>
<g>
</g>
<g>
</g>
<g>
</g>
<g>
</g>
<g>
</g>
<g>
</g>
<g>
</g>
<g>
</g>
<g>
</g>
<g>
</g>
<g>
</g>
<g>
</g>
</svg>
