<?xml version="1.0" encoding="iso-8859-1"?>
<!-- Generator: Adobe Illustrator 19.0.0, SVG Export Plug-In . SVG Version: 6.00 Build 0)  -->
<svg fill='#eeeeee' version="1.1" id="Capa_1" xmlns="http://www.w3.org/2000/svg" xmlns:xlink="http://www.w3.org/1999/xlink" x="0px" y="0px"
	 viewBox="0 0 512 512" style="enable-background:new 0 0 512 512;" xml:space="preserve">
<g>
	<g>
		<path d="M256,0C114.833,0,0,114.833,0,256s114.833,256,256,256s256-114.833,256-256S397.167,0,256,0z M309.333,149.333
			c1.583,0,38.75,0.313,52.208,27.229c2.625,5.271,0.5,11.667-4.771,14.313C355.229,191.646,353.604,192,352,192
			c-3.896,0-7.667-2.167-9.542-5.896c-7.5-15.021-32.875-15.438-33.125-15.438c-5.896,0-10.667-4.771-10.667-10.667
			S303.438,149.333,309.333,149.333z M320,192c11.771,0,21.333,9.563,21.333,21.333c0,11.771-9.563,21.333-21.333,21.333
			s-21.333-9.563-21.333-21.333C298.667,201.563,308.229,192,320,192z M117.646,178.75C122.042,161.188,143.229,128,192,128
			c5.896,0,10.667,4.771,10.667,10.667c0,5.896-4.771,10.667-10.667,10.667c-44.5,0-53.563,34.25-53.646,34.583
			C137.146,188.771,132.792,192,128,192c-0.854,0-1.708-0.104-2.583-0.313C119.688,190.25,116.229,184.458,117.646,178.75z
			 M202.667,213.333c0,11.771-9.563,21.333-21.333,21.333c-11.771,0-21.333-9.563-21.333-21.333
			c0-11.771,9.563-21.333,21.333-21.333C193.104,192,202.667,201.563,202.667,213.333z M373.333,362.667H138.667
			c-5.896,0-10.667-4.771-10.667-10.667c0-5.896,4.771-10.667,10.667-10.667h234.667c5.896,0,10.667,4.771,10.667,10.667
			C384,357.896,379.229,362.667,373.333,362.667z M405.333,192c-5.891,0-10.667-4.776-10.667-10.667
			c0-5.892,4.776-10.667,10.667-10.667S416,175.441,416,181.333C416,187.224,411.224,192,405.333,192z M420.771,132.208
			c-2.938,1.479-4.771,4.417-4.771,7.708v9.417c0,5.896-4.771,10.667-10.667,10.667c-5.896,0-10.667-4.771-10.667-10.667v-9.417
			c0-11.417,6.354-21.688,16.563-26.792c2.938-1.479,4.771-4.417,4.771-7.708V96c0-5.875-4.792-10.667-10.667-10.667
			S394.667,90.125,394.667,96c0,5.896-4.771,10.667-10.667,10.667c-5.896,0-10.667-4.771-10.667-10.667c0-17.646,14.354-32,32-32
			c17.646,0,32,14.354,32,32v9.417C437.333,116.833,430.979,127.104,420.771,132.208z"/>
	</g>
</g>
<g>
</g>
<g>
</g>
<g>
</g>
<g>
</g>
<g>
</g>
<g>
</g>
<g>
</g>
<g>
</g>
<g>
</g>
<g>
</g>
<g>
</g>
<g>
</g>
<g>
</g>
<g>
</g>
<g>
</g>
</svg>
