<?xml version="1.0" encoding="iso-8859-1"?>
<!-- Generator: Adobe Illustrator 19.0.0, SVG Export Plug-In . SVG Version: 6.00 Build 0)  -->
<svg fill='#eeeeee' version="1.1" id="Capa_1" xmlns="http://www.w3.org/2000/svg" xmlns:xlink="http://www.w3.org/1999/xlink" x="0px" y="0px"
	 viewBox="0 0 512 512" style="enable-background:new 0 0 512 512;" xml:space="preserve">
<g>
	<g>
		<path d="M256,0C114.844,0,0,114.844,0,256s114.844,256,256,256s256-114.844,256-256S397.156,0,256,0z M341.333,170.667
			c11.76,0,21.333,9.573,21.333,21.333s-9.573,21.333-21.333,21.333C329.573,213.333,320,203.76,320,192
			S329.573,170.667,341.333,170.667z M170.667,170.667c11.76,0,21.333,9.573,21.333,21.333s-9.573,21.333-21.333,21.333
			c-11.76,0-21.333-9.573-21.333-21.333S158.906,170.667,170.667,170.667z M256,448c-34.99,0-71.135-18.135-74.427-48.771
			c2.57-2.02,5.634-3.932,8.931-5.697v0.001c0.077-0.042,0.138-0.09,0.21-0.134c10.374-5.51,23.353-9.4,33.286-9.4
			c7.319,0,14.423,2.03,21.333,5.165v16.168c0,5.896,4.771,10.667,10.667,10.667s10.667-4.771,10.667-10.667v-16.168
			C273.577,386.03,280.681,384,288,384c13.281,0,31.844,6.823,42.427,15.208C327.156,429.854,291,448,256,448z M405.042,311.958
			c-7.121,29.995-26.337,58.512-53.517,80.285c-0.448-1.888-1.217-3.682-2.608-5.087c-13.573-13.729-40.333-24.49-60.917-24.49
			c-11.052,0-21.792,2.51-32,7.469c-10.208-4.958-20.948-7.469-32-7.469c-20.427,0-47.167,10.74-60.875,24.448
			c-1.413,1.413-2.195,3.228-2.647,5.142c-27.211-21.816-46.424-50.418-53.53-80.475c-0.75-3.167,0-6.51,2.021-9.073
			c2.021-2.552,5.104-4.042,8.365-4.042h0.01l277.333,0.156c3.26,0,6.344,1.5,8.365,4.052
			C405.063,305.438,405.802,308.781,405.042,311.958z"/>
	</g>
</g>
<g>
</g>
<g>
</g>
<g>
</g>
<g>
</g>
<g>
</g>
<g>
</g>
<g>
</g>
<g>
</g>
<g>
</g>
<g>
</g>
<g>
</g>
<g>
</g>
<g>
</g>
<g>
</g>
<g>
</g>
</svg>
