<?xml version="1.0" encoding="iso-8859-1"?>
<!-- Generator: Adobe Illustrator 19.0.0, SVG Export Plug-In . SVG Version: 6.00 Build 0)  -->
<svg fill='#eeeeee' version="1.1" id="Capa_1" xmlns="http://www.w3.org/2000/svg" xmlns:xlink="http://www.w3.org/1999/xlink" x="0px" y="0px"
	 viewBox="0 0 512 512" style="enable-background:new 0 0 512 512;" xml:space="preserve">
<g>
	<g>
		<path d="M256,0C114.844,0,0,114.833,0,256s114.844,256,256,256s256-114.833,256-256S397.156,0,256,0z M170.667,170.667
			c11.76,0,21.333,9.563,21.333,21.333s-9.573,21.333-21.333,21.333c-11.76,0-21.333-9.563-21.333-21.333
			S158.906,170.667,170.667,170.667z M380.875,338.208c-1.008,1.013-14.951,14.25-39.542,26.254v30.204
			c0,5.896-4.771,10.667-10.667,10.667H288c-5.896,0-10.667-4.771-10.667-10.667v-12.121C270.441,383.281,263.517,384,256,384
			s-14.441-0.719-21.333-1.454V416c0,5.896-4.771,10.667-10.667,10.667h-42.667c-5.896,0-10.667-4.771-10.667-10.667v-51.538
			c-24.591-12.004-38.534-25.241-39.542-26.254c-4.156-4.167-4.156-10.875-0.01-15.042c4.146-4.167,10.885-4.229,15.073-0.063
			c0.396,0.396,40.823,39.563,109.813,39.563s109.417-39.167,109.813-39.563c4.198-4.146,10.938-4.104,15.073,0.063
			C385.031,327.333,385.031,334.042,380.875,338.208z M341.333,234.667c-23.531,0-42.667-19.146-42.667-42.667
			s19.135-42.667,42.667-42.667C364.865,149.333,384,168.479,384,192S364.865,234.667,341.333,234.667z"/>
	</g>
</g>
<g>
</g>
<g>
</g>
<g>
</g>
<g>
</g>
<g>
</g>
<g>
</g>
<g>
</g>
<g>
</g>
<g>
</g>
<g>
</g>
<g>
</g>
<g>
</g>
<g>
</g>
<g>
</g>
<g>
</g>
</svg>
