<?xml version="1.0" encoding="iso-8859-1"?>
<!-- Generator: Adobe Illustrator 19.0.0, SVG Export Plug-In . SVG Version: 6.00 Build 0)  -->
<svg fill='#eeeeee' version="1.1" id="Capa_1" xmlns="http://www.w3.org/2000/svg" xmlns:xlink="http://www.w3.org/1999/xlink" x="0px" y="0px"
	 viewBox="0 0 512 512" style="enable-background:new 0 0 512 512;" xml:space="preserve">
<g>
	<g>
		<path d="M256,0C114.833,0,0,114.833,0,256s114.833,256,256,256s256-114.833,256-256S397.167,0,256,0z M117.333,192
			c-5.896,0-10.667-4.771-10.667-10.667c0-5.896,4.771-10.667,10.667-10.667h64c5.896,0,10.667,4.771,10.667,10.667
			c0,2.988-1.238,5.671-3.215,7.607c2.001,4.176,3.215,8.794,3.215,13.727c0,17.646-14.354,32-32,32s-32-14.354-32-32
			c0-3.758,0.77-7.314,1.965-10.667H117.333z M379.729,381.875c-1.917,1.438-4.167,2.125-6.396,2.125
			c-3.229,0-6.438-1.479-8.542-4.271c-1.167-1.5-30.563-38.375-108.792-38.396c-0.021,0-0.042,0-0.063,0
			c-78.188,0-107.563,36.896-108.771,38.458c-3.625,4.646-10.292,5.542-14.938,2c-4.667-3.542-5.604-10.167-2.104-14.854
			C131.563,365.021,166.354,320,255.938,320c0.021,0,0.042,0,0.063,0c89.625,0.021,124.438,45.021,125.875,46.938
			C385.396,371.646,384.438,378.333,379.729,381.875z M405.333,202.667c0,17.646-14.354,32-32,32c-17.646,0-32-14.354-32-32
			c0-3.758,0.77-7.314,1.965-10.667h-12.632c-5.896,0-10.667-4.771-10.667-10.667c0-5.896,4.771-10.667,10.667-10.667h64
			c5.896,0,10.667,4.771,10.667,10.667c0,2.988-1.238,5.671-3.215,7.607C404.12,193.116,405.333,197.734,405.333,202.667z"/>
	</g>
</g>
<g>
</g>
<g>
</g>
<g>
</g>
<g>
</g>
<g>
</g>
<g>
</g>
<g>
</g>
<g>
</g>
<g>
</g>
<g>
</g>
<g>
</g>
<g>
</g>
<g>
</g>
<g>
</g>
<g>
</g>
</svg>
