<?xml version="1.0" encoding="iso-8859-1"?>
<!-- Generator: Adobe Illustrator 19.0.0, SVG Export Plug-In . SVG Version: 6.00 Build 0)  -->
<svg fill='#eeeeee' version="1.1" id="Capa_1" xmlns="http://www.w3.org/2000/svg" xmlns:xlink="http://www.w3.org/1999/xlink" x="0px" y="0px"
	 viewBox="0 0 512 512" style="enable-background:new 0 0 512 512;" xml:space="preserve">
<g>
	<g>
		<path d="M480,21.333c-4.167,0-8.146,0.792-11.792,2.25C464.5,10,452.063,0,437.333,0c-14.729,0-27.167,10-30.875,23.583
			c-3.646-1.458-7.625-2.25-11.792-2.25c-17.646,0-32,14.354-32,32v27.284c-38.033-24.889-81.914-37.951-128-37.951
			C105.271,42.667,0,147.938,0,277.333S105.271,512,234.667,512s234.667-105.271,234.667-234.667
			c0-17.001-2.198-33.879-5.818-50.432c28.53-13.158,48.484-41.85,48.484-75.276V53.333C512,35.688,497.646,21.333,480,21.333z
			 M320,192c11.771,0,21.333,9.563,21.333,21.333c0,11.771-9.563,21.333-21.333,21.333s-21.333-9.563-21.333-21.333
			C298.667,201.563,308.229,192,320,192z M149.333,192c11.771,0,21.333,9.563,21.333,21.333c0,11.771-9.563,21.333-21.333,21.333
			c-11.771,0-21.333-9.563-21.333-21.333C128,201.563,137.563,192,149.333,192z M362.354,333.271
			c-13.604,54.125-67.292,93.396-127.688,93.396c-60.458,0-114.146-39.292-127.688-93.417c-1.417-5.708,2.042-11.5,7.771-12.938
			c5.625-1.417,11.521,2.042,12.938,7.771c11,44.042,57,77.25,106.979,77.25c49.938,0,95.917-33.208,106.979-77.271
			c1.458-5.708,7.188-9.146,12.958-7.75C360.313,321.75,363.771,327.542,362.354,333.271z M490.667,151.625
			c0,34.021-27.688,61.708-61.708,61.708c-22.896,0-37.5-5.375-48.125-18.25l-57.875-57.188c-4.271-5.229-3.896-12.792,0.875-17.563
			c2.604-2.604,6.042-3.875,9.396-3.875c3.25,0,6.438,1.188,8.771,3.5l23.438,25.875c2.958,3.271,7.604,4.375,11.729,2.792
			s6.833-5.542,6.833-9.958V53.333c0-5.875,4.792-10.667,10.667-10.667s10.667,4.792,10.667,10.667V96
			c0,5.896,4.771,10.667,10.667,10.667c5.896,0,10.667-4.771,10.667-10.667V32c0-5.875,4.792-10.667,10.667-10.667
			S448,26.125,448,32v64c0,5.896,4.771,10.667,10.667,10.667s10.667-4.771,10.667-10.667V53.333c0-5.875,4.792-10.667,10.667-10.667
			s10.667,4.792,10.667,10.667V151.625z"/>
	</g>
</g>
<g>
</g>
<g>
</g>
<g>
</g>
<g>
</g>
<g>
</g>
<g>
</g>
<g>
</g>
<g>
</g>
<g>
</g>
<g>
</g>
<g>
</g>
<g>
</g>
<g>
</g>
<g>
</g>
<g>
</g>
</svg>
