<?xml version="1.0" encoding="iso-8859-1"?>
<!-- Generator: Adobe Illustrator 19.0.0, SVG Export Plug-In . SVG Version: 6.00 Build 0)  -->
<svg fill='#eeeeee' version="1.1" id="Capa_1" xmlns="http://www.w3.org/2000/svg" xmlns:xlink="http://www.w3.org/1999/xlink" x="0px" y="0px"
	 viewBox="0 0 512 512" style="enable-background:new 0 0 512 512;" xml:space="preserve">
<g>
	<g>
		<path d="M256,0C114.844,0,0,114.844,0,256s114.844,256,256,256s256-114.844,256-256S397.156,0,256,0z M341.333,170.667
			c11.76,0,21.333,9.573,21.333,21.333s-9.573,21.333-21.333,21.333C329.573,213.333,320,203.76,320,192
			S329.573,170.667,341.333,170.667z M170.667,170.667c11.76,0,21.333,9.573,21.333,21.333s-9.573,21.333-21.333,21.333
			c-11.76,0-21.333-9.573-21.333-21.333S158.906,170.667,170.667,170.667z M383.823,375.24c-0.927,5.156-5.417,8.76-10.479,8.76
			c-0.635,0-1.271-0.052-1.917-0.177L136.76,341.156c-5.802-1.052-9.646-6.604-8.583-12.396c1.042-5.802,6.646-9.698,12.396-8.583
			l234.667,42.667C381.042,363.896,384.885,369.448,383.823,375.24z"/>
	</g>
</g>
<g>
</g>
<g>
</g>
<g>
</g>
<g>
</g>
<g>
</g>
<g>
</g>
<g>
</g>
<g>
</g>
<g>
</g>
<g>
</g>
<g>
</g>
<g>
</g>
<g>
</g>
<g>
</g>
<g>
</g>
</svg>
