<?xml version="1.0" encoding="iso-8859-1"?>
<!-- Generator: Adobe Illustrator 19.0.0, SVG Export Plug-In . SVG Version: 6.00 Build 0)  -->
<svg fill='#eeeeee' version="1.1" id="Capa_1" xmlns="http://www.w3.org/2000/svg" xmlns:xlink="http://www.w3.org/1999/xlink" x="0px" y="0px"
	 viewBox="0 0 512 512" style="enable-background:new 0 0 512 512;" xml:space="preserve">
<g>
	<g>
		<path d="M256,0C114.833,0,0,114.844,0,256s114.833,256,256,256s256-114.844,256-256S397.167,0,256,0z M138.667,181.333h64
			c5.896,0,10.667,4.771,10.667,10.667s-4.771,10.667-10.667,10.667h-64c-5.896,0-10.667-4.771-10.667-10.667
			S132.771,181.333,138.667,181.333z M256,426.667c-67.835,0-126.01-45.034-143.712-109.931C107.263,318.82,101.77,320,96,320
			c-5.896,0-10.667-4.771-10.667-10.667c0-5.896,4.771-10.667,10.667-10.667c11.771,0,21.333-9.573,21.333-21.333
			c0-5.896,4.771-10.667,10.667-10.667s10.667,4.771,10.667,10.667c0,9.751-3.418,18.638-8.941,25.831
			c0.771,1.089,1.368,2.331,1.691,3.721c13.688,57.958,64.917,98.448,124.583,98.448c5.896,0,10.667,4.771,10.667,10.667
			C266.667,421.896,261.896,426.667,256,426.667z M341.333,213.333C329.563,213.333,320,203.76,320,192s9.563-21.333,21.333-21.333
			c11.771,0,21.333,9.573,21.333,21.333S353.104,213.333,341.333,213.333z"/>
	</g>
</g>
<g>
</g>
<g>
</g>
<g>
</g>
<g>
</g>
<g>
</g>
<g>
</g>
<g>
</g>
<g>
</g>
<g>
</g>
<g>
</g>
<g>
</g>
<g>
</g>
<g>
</g>
<g>
</g>
<g>
</g>
</svg>
