<?xml version="1.0" encoding="iso-8859-1"?>
<!-- Generator: Adobe Illustrator 19.0.0, SVG Export Plug-In . SVG Version: 6.00 Build 0)  -->
<svg fill='#eeeeee' version="1.1" id="Capa_1" xmlns="http://www.w3.org/2000/svg" xmlns:xlink="http://www.w3.org/1999/xlink" x="0px" y="0px"
	 viewBox="0 0 512 512" style="enable-background:new 0 0 512 512;" xml:space="preserve">
<g>
	<g>
		<path d="M256,0C114.833,0,0,114.844,0,256s114.833,256,256,256s256-114.844,256-256S397.167,0,256,0z M341.333,170.667
			c11.771,0,21.333,9.573,21.333,21.333s-9.563,21.333-21.333,21.333C329.563,213.333,320,203.76,320,192
			S329.563,170.667,341.333,170.667z M138.667,181.333h64c5.896,0,10.667,4.771,10.667,10.667s-4.771,10.667-10.667,10.667h-64
			c-5.896,0-10.667-4.771-10.667-10.667S132.771,181.333,138.667,181.333z M401.292,311.958
			C385.25,379.5,325.521,426.667,256,426.667c-69.604,0-129.375-47.24-145.334-114.885c-1.354-5.729,2.188-11.479,7.917-12.833
			c5.875-1.271,11.5,2.198,12.833,7.938c13.688,57.958,64.917,98.448,124.583,98.448c59.583,0,110.792-40.427,124.542-98.313
			c1.354-5.729,7.188-9.302,12.833-7.906C399.104,300.469,402.646,306.219,401.292,311.958z"/>
	</g>
</g>
<g>
</g>
<g>
</g>
<g>
</g>
<g>
</g>
<g>
</g>
<g>
</g>
<g>
</g>
<g>
</g>
<g>
</g>
<g>
</g>
<g>
</g>
<g>
</g>
<g>
</g>
<g>
</g>
<g>
</g>
</svg>
