<?xml version="1.0" encoding="iso-8859-1"?>
<!-- Generator: Adobe Illustrator 19.0.0, SVG Export Plug-In . SVG Version: 6.00 Build 0)  -->
<svg fill='#eeeeee' version="1.1" id="Capa_1" xmlns="http://www.w3.org/2000/svg" xmlns:xlink="http://www.w3.org/1999/xlink" x="0px" y="0px"
	 viewBox="0 0 512 512" style="enable-background:new 0 0 512 512;" xml:space="preserve">
<g>
	<g>
		<path d="M256,0C114.833,0,0,114.833,0,256s114.833,256,256,256s256-114.833,256-256S397.167,0,256,0z M170.667,213.333
			c-11.771,0-21.333-9.563-21.333-21.333s9.563-21.333,21.333-21.333c11.771,0,21.333,9.563,21.333,21.333
			S182.438,213.333,170.667,213.333z M320,403.208c0,12.938-11.167,23.458-24.896,23.458C279.375,426.667,256,415.313,256,384
			s23.375-42.667,39.104-42.667c13.729,0,24.896,10.521,24.896,23.458V403.208z M320,192c0-11.771,9.563-21.333,21.333-21.333
			c11.771,0,21.333,9.563,21.333,21.333s-9.563,21.333-21.333,21.333C329.563,213.333,320,203.771,320,192z M384,362.667
			c0,1.477-0.299,2.88-0.841,4.159C381.164,376.536,372.962,384,362.667,384c-11.771,0-21.333-9.563-21.333-21.333
			s9.563-21.333,21.333-21.333V288c0-5.896,4.771-10.667,10.667-10.667c5.896,0,10.667,4.771,10.667,10.667V362.667z
			 M451.125,231.542L448,228.417v48.917c0,1.477-0.299,2.88-0.841,4.159c-1.995,9.711-10.197,17.174-20.492,17.174
			c-11.771,0-21.333-9.563-21.333-21.333c0-11.771,9.563-21.333,21.333-21.333v-53.333c0-4.313,2.604-8.208,6.583-9.854
			c3.979-1.604,8.583-0.729,11.625,2.313l21.333,21.333c4.167,4.167,4.167,10.917,0,15.083
			C462.042,235.708,455.292,235.708,451.125,231.542z"/>
	</g>
</g>
<g>
</g>
<g>
</g>
<g>
</g>
<g>
</g>
<g>
</g>
<g>
</g>
<g>
</g>
<g>
</g>
<g>
</g>
<g>
</g>
<g>
</g>
<g>
</g>
<g>
</g>
<g>
</g>
<g>
</g>
</svg>
