<?xml version="1.0" encoding="iso-8859-1"?>
<!-- Generator: Adobe Illustrator 19.0.0, SVG Export Plug-In . SVG Version: 6.00 Build 0)  -->
<svg fill='#eeeeee' version="1.1" id="Capa_1" xmlns="http://www.w3.org/2000/svg" xmlns:xlink="http://www.w3.org/1999/xlink" x="0px" y="0px"
	 viewBox="0 0 512 512" style="enable-background:new 0 0 512 512;" xml:space="preserve">
<g>
	<g>
		<path d="M256,0C114.833,0,0,114.844,0,256s114.833,256,256,256s256-114.844,256-256S397.167,0,256,0z M170.667,234.667
			c-11.771,0-21.333-9.573-21.333-21.333c0-11.76,9.563-21.333,21.333-21.333c11.771,0,21.333,9.573,21.333,21.333
			C192,225.094,182.438,234.667,170.667,234.667z M170.688,149.333c-33.604,0-42.625,33.219-43,34.635
			c-1.479,5.688-7.313,9.094-12.958,7.677c-5.688-1.458-9.146-7.208-7.729-12.896c4.396-17.552,23.354-50.75,63.688-50.75
			s59.292,33.198,63.688,50.75c1.417,5.708-2.042,11.5-7.771,12.927c-0.854,0.219-1.729,0.323-2.583,0.323
			c-4.792,0-9.146-3.229-10.354-8.083C213.313,182.552,204.292,149.333,170.688,149.333z M288.021,405.333h-64.042
			c-5.896,0-10.667-4.771-10.667-10.667S218.083,384,223.979,384h64.042c5.896,0,10.667,4.771,10.667,10.667
			S293.917,405.333,288.021,405.333z M341.333,234.667c-11.771,0-21.333-9.573-21.333-21.333c0-11.76,9.563-21.333,21.333-21.333
			c11.771,0,21.333,9.573,21.333,21.333C362.667,225.094,353.104,234.667,341.333,234.667z M397.271,191.677
			c-0.854,0.219-1.729,0.323-2.583,0.323c-4.792,0-9.146-3.229-10.354-8.083c-0.354-1.365-9.375-34.583-42.979-34.583
			s-42.625,33.219-43,34.635c-1.479,5.688-7.354,9.094-12.958,7.677c-5.688-1.458-9.146-7.208-7.729-12.896
			c4.396-17.552,23.354-50.75,63.688-50.75c40.333,0,59.292,33.198,63.688,50.75C406.458,184.458,403,190.25,397.271,191.677z"/>
	</g>
</g>
<g>
</g>
<g>
</g>
<g>
</g>
<g>
</g>
<g>
</g>
<g>
</g>
<g>
</g>
<g>
</g>
<g>
</g>
<g>
</g>
<g>
</g>
<g>
</g>
<g>
</g>
<g>
</g>
<g>
</g>
</svg>
