<svg width="16" height="16" viewBox="0 0 16 16" fill="none" xmlns="http://www.w3.org/2000/svg">
<path d="M15.4286 0H0.571429C0.419876 0 0.274531 0.0602039 0.167368 0.167368C0.0602039 0.274531 0 0.419876 0 0.571429V15.4286C0 15.5801 0.0602039 15.7255 0.167368 15.8326C0.274531 15.9398 0.419876 16 0.571429 16H15.4286C15.5801 16 15.7255 15.9398 15.8326 15.8326C15.9398 15.7255 16 15.5801 16 15.4286V0.571429C16 0.419876 15.9398 0.274531 15.8326 0.167368C15.7255 0.0602039 15.5801 0 15.4286 0ZM14 14H2V3H14V14Z" fill="#EEEEEE"/>
<path d="M4.86838 11.8535L4.14901 11.1465C4.10177 11.1001 4.06429 11.045 4.03873 10.9843C4.01316 10.9237 4 10.8586 4 10.793C4 10.7273 4.01316 10.6623 4.03873 10.6016C4.06429 10.541 4.10177 10.4858 4.14901 10.4394L6.12239 8.50002L4.14906 6.56058C4.10182 6.51415 4.06434 6.45903 4.03878 6.39837C4.01321 6.3377 4.00005 6.27268 4.00005 6.20702C4.00005 6.14136 4.01321 6.07634 4.03878 6.01568C4.06434 5.95501 4.10182 5.89989 4.14906 5.85346L4.86843 5.14645C4.91567 5.10002 4.97175 5.06319 5.03348 5.03806C5.0952 5.01293 5.16136 5 5.22817 5C5.29498 5 5.36113 5.01293 5.42286 5.03806C5.48458 5.06319 5.54066 5.10002 5.58791 5.14645L9 8.50002L5.58785 11.8535C5.54061 11.9 5.48453 11.9368 5.4228 11.9619C5.36108 11.9871 5.29492 12 5.22811 12C5.16131 12 5.09515 11.9871 5.03343 11.9619C4.9717 11.9368 4.91562 11.9 4.86838 11.8535V11.8535Z" fill="#EEEEEE"/>
<path d="M12.5 10H9.5C9.22386 10 9 10.2239 9 10.5V11.5C9 11.7761 9.22386 12 9.5 12H12.5C12.7761 12 13 11.7761 13 11.5V10.5C13 10.2239 12.7761 10 12.5 10Z" fill="#EEEEEE"/>
</svg>
