<svg xmlns="http://www.w3.org/2000/svg" width="16" height="16" viewBox="0 0 16 16">
    <path fill="#EEE" d="M12 7c2.21 0 4 1.79 4 4s-1.79 4-4 4-4-1.79-4-4 1.79-4 4-4zm.36 1.572h-.72c-.055 0-.1.046-.1.101v1.881H9.672c-.055 0-.1.045-.1.1v.691c0 .056.045.1.1.1h1.868v1.882c0 .055.045.1.1.1h.72c.055 0 .1-.045.1-.1v-1.881h1.868c.055 0 .1-.045.1-.1v-.691c0-.056-.045-.1-.1-.1H12.46V8.672c0-.055-.045-.1-.1-.1zM7.2 1l1.6 1.5h5.6c.835 0 1.52.599 1.593 1.363L16 4l.001 4C15.089 6.787 13.636 6 12 6c-2.761 0-5 2.239-5 5 0 .711.149 1.388.416 2H1.6c-.835 0-1.52-.599-1.593-1.363L0 11.5v-9C0 1.675.72 1 1.6 1h5.6z"/>
</svg>
