<svg width="16" height="16" viewBox="0 0 16 16" fill="none" xmlns="http://www.w3.org/2000/svg">
<path fill-rule="evenodd" clip-rule="evenodd" d="M16 8.99951V2.37771C16 2.01232 15.8642 1.66189 15.6225 1.40352C15.3808 1.14515 15.0529 1 14.7111 1H1.28894C0.947095 1 0.619247 1.14515 0.377523 1.40352C0.135799 1.66189 0 2.01232 0 2.37771V13.6223C0 13.9877 0.135799 14.3381 0.377523 14.5965C0.619247 14.8548 0.947095 15 1.28894 15H7.99963C7.54833 14.3992 7.22924 13.6934 7.08554 12.9258H2.28894C2.25166 12.9258 2.21474 12.9179 2.18029 12.9027C2.14585 12.8874 2.11455 12.8651 2.08818 12.8369C2.06182 12.8087 2.04091 12.7752 2.02664 12.7384C2.01237 12.7016 2.00503 12.6621 2.00503 12.6223V3.37771C2.00503 3.29722 2.03494 3.22003 2.08818 3.16312C2.14143 3.10621 2.21364 3.07424 2.28894 3.07424H13.7111C13.7859 3.07495 13.8575 3.10723 13.9102 3.16407C13.9629 3.2209 13.9925 3.29769 13.9925 3.37771V7.41276C14.7919 7.76048 15.4828 8.31106 16 8.99951ZM8.10597 8.86339L6.73485 7.14793C6.6972 7.10066 6.64765 7.06251 6.59047 7.03677C6.53329 7.01103 6.47018 6.99846 6.40657 7.00015C6.34296 7.00184 6.28074 7.01773 6.22526 7.04646C6.16978 7.07518 6.1227 7.11589 6.08805 7.16509L3.06345 11.4403C3.02444 11.4956 3.00258 11.5597 3.00021 11.6257C2.99785 11.6916 3.01508 11.7569 3.05004 11.8145C3.085 11.8721 3.13637 11.9198 3.19859 11.9525C3.26082 11.9851 3.33155 12.0015 3.40314 11.9999H7C7.00003 10.8121 7.4142 9.72113 8.10597 8.86339ZM12.9804 5.49018C12.9804 6.31319 12.3132 6.98037 11.4902 6.98037C10.6672 6.98037 10 6.31319 10 5.49018C10 4.66718 10.6672 4 11.4902 4C12.3132 4 12.9804 4.66718 12.9804 5.49018Z" fill="#EEEEEE"/>
<path fill-rule="evenodd" clip-rule="evenodd" d="M8 12C8 9.79086 9.79086 8 12 8C14.2091 8 16 9.79086 16 12C16 14.2091 14.2091 16 12 16C9.79086 16 8 14.2091 8 12ZM11.5397 14.327C11.5402 14.3824 11.585 14.4271 11.6404 14.4277H12.3596C12.415 14.4271 12.4598 14.3824 12.4603 14.327V12.4459H14.3281C14.3835 12.4454 14.4282 12.4006 14.4288 12.3452V11.6548C14.4282 11.5994 14.3835 11.5546 14.3281 11.5541H12.4603V9.673C12.4598 9.61762 12.415 9.57286 12.3596 9.57231H11.6404C11.585 9.57286 11.5402 9.61762 11.5397 9.673V11.5541H9.6719C9.61652 11.5546 9.57176 11.5994 9.5712 11.6548L9.5712 12.3452C9.57176 12.4006 9.61652 12.4454 9.6719 12.4459H11.5397L11.5397 14.327Z" fill="#EEEEEE"/>
</svg>
