<svg width="16" height="16" viewBox="0 0 16 16" fill="none" xmlns="http://www.w3.org/2000/svg">
<path fill-rule="evenodd" clip-rule="evenodd" d="M8 12C8 9.79086 9.79086 8 12 8C14.2091 8 16 9.79086 16 12C16 14.2091 14.2091 16 12 16C9.79086 16 8 14.2091 8 12ZM11.5397 14.327C11.5402 14.3824 11.585 14.4271 11.6404 14.4277H12.3596C12.415 14.4271 12.4598 14.3824 12.4603 14.327V12.4459H14.3281C14.3835 12.4454 14.4282 12.4006 14.4288 12.3452V11.6548C14.4282 11.5994 14.3835 11.5546 14.3281 11.5541H12.4603V9.673C12.4598 9.61762 12.415 9.57286 12.3596 9.57231H11.6404C11.585 9.57286 11.5402 9.61762 11.5397 9.673V11.5541H9.6719C9.61652 11.5546 9.57176 11.5994 9.5712 11.6548L9.5712 12.3452C9.57176 12.4006 9.61652 12.4454 9.6719 12.4459H11.5397L11.5397 14.327Z" fill="#EEEEEE"/>
<path fill-rule="evenodd" clip-rule="evenodd" d="M7.5 7C5.567 7 4 5.433 4 3.5C4 1.567 5.567 0 7.5 0C9.433 0 11 1.567 11 3.5C11 5.433 9.433 7 7.5 7ZM9.81316 7.36315C9.15261 7.12802 8.44126 7 7.7 7H7.5H6.3C2.82061 7 0 9.82061 0 13.3C0 13.6866 0.313401 14 0.7 14H7.37444C7.1336 13.3875 7 12.7111 7 12C7 9.90136 8.16366 8.1047 9.81316 7.36315Z" fill="#EEEEEE"/>
</svg>
