<svg width="16" height="16" viewBox="0 0 16 16" fill="none" xmlns="http://www.w3.org/2000/svg">
<path fill-rule="evenodd" clip-rule="evenodd" d="M5.51988 7.34479C5.51988 7.19128 5.39738 7.06662 5.24612 7.06662H0.274135C0.12288 7.06662 0 7.19128 0 7.34479V8.64302C0 8.79652 0.12288 8.92119 0.274135 8.92119H5.24612C5.39738 8.92119 5.51988 8.79652 5.51988 8.64302V7.34479Z" fill="#EEEEEE"/>
<path fill-rule="evenodd" clip-rule="evenodd" d="M9.94938 10.5265C9.94938 10.373 9.82688 10.2483 9.67563 10.2483H4.70364C4.55238 10.2483 4.4295 10.373 4.4295 10.5265V11.8247C4.4295 11.9782 4.55238 12.1029 4.70364 12.1029H9.67563C9.82688 12.1029 9.94938 11.9782 9.94938 11.8247V10.5265Z" fill="#EEEEEE"/>
<path fill-rule="evenodd" clip-rule="evenodd" d="M8.60671 4.16302C8.60671 4.00952 8.48408 3.88486 8.33314 3.88486H2.81872C2.66779 3.88486 2.54474 4.00952 2.54474 4.16302V5.46126C2.54474 5.61476 2.66779 5.73943 2.81872 5.73943H8.33314C8.48408 5.73943 8.60671 5.61476 8.60671 5.46126V4.16302Z" fill="#EEEEEE"/>
<path fill-rule="evenodd" clip-rule="evenodd" d="M15.7034 8.30111C15.8668 8.13503 15.8677 7.86528 15.7047 7.69973L10.3902 2.29999C10.2273 2.13443 9.96179 2.13532 9.79833 2.30139L4.48602 7.69889C4.32257 7.86497 4.3217 8.13472 4.48464 8.30027L9.79916 13.7C9.9621 13.8656 10.2276 13.8647 10.391 13.6986L15.7034 8.30111Z" fill="#EEEEEE"/>
</svg>
