<svg width="16" height="16" viewBox="0 0 16 16" fill="none" xmlns="http://www.w3.org/2000/svg">
<path d="M13.3525 4.25446C13.9972 4.25446 14.5833 4.53883 15 5V3.87656C15 2.90918 14.2609 2.1221 13.3525 2.1221H6.15366V1.75451C6.15366 0.787129 5.41458 0 4.50943 0H1.65073C0.739081 0 0 0.787129 0 1.75451V5C0.416747 4.53883 1.00281 4.25446 1.65073 4.25446H13.3525Z" fill="#EEEEEE"/>
<path fill-rule="evenodd" clip-rule="evenodd" d="M9 14V11.3581C9 10.6701 9.4614 10.1961 9.99446 10.0157V9.44825C9.99446 7.98927 11.2829 7 12.6217 7H13.4306C13.9916 7 14.5461 7.17515 15 7.48704V6.82823C15 5.82018 14.2609 5 13.3525 5H1.65073C0.739081 5 0 5.82018 0 6.82823V12.1719C0 13.1799 0.739081 14 1.65073 14H9Z" fill="#EEEEEE"/>
<path d="M15.5242 10.9346H15.0579V9.44825C15.0579 8.64793 14.3251 8 13.4306 8H12.6217C11.7224 8 10.9945 8.64793 10.9945 9.44825V10.9346H10.4758C10.2141 10.9346 10 11.1253 10 11.3581V14.5765C10 14.8095 10.2141 15 10.4758 15H15.5242C15.7859 15 16 14.8095 16 14.5765V11.3581C16 11.1253 15.7859 10.9346 15.5242 10.9346ZM14.1062 10.9346H11.9461V9.44825C11.9461 9.11796 12.2458 8.84697 12.6217 8.84697H13.4306C13.8017 8.84697 14.1062 9.11796 14.1062 9.44825V10.9346Z" fill="#EEEEEE"/>
</svg>
