<svg width="16" height="16" viewBox="0 0 16 16" fill="none" xmlns="http://www.w3.org/2000/svg">
<path d="M3 15V1H8.70886C9.75781 1 10.6327 1.15267 11.3335 1.45801C12.0344 1.76335 12.5612 2.18717 12.9139 2.72949C13.2667 3.26725 13.443 3.88704 13.443 4.58887C13.443 5.13574 13.3316 5.61654 13.1089 6.03125C12.8861 6.44141 12.5797 6.77865 12.1899 7.04297C11.8046 7.30273 11.3637 7.4873 10.8671 7.59668V7.7334C11.4101 7.75618 11.9184 7.90658 12.3918 8.18457C12.8698 8.46257 13.2574 8.85221 13.5544 9.35352C13.8515 9.85026 14 10.4427 14 11.1309C14 11.8737 13.812 12.5368 13.4361 13.1201C13.0648 13.6989 12.5148 14.1569 11.7861 14.4941C11.0574 14.8314 10.1593 15 9.09177 15H3ZM6.01456 12.5801H8.47215C9.31224 12.5801 9.92489 12.4229 10.3101 12.1084C10.6954 11.7894 10.888 11.3656 10.888 10.8369C10.888 10.4495 10.7928 10.1077 10.6025 9.81152C10.4122 9.5153 10.1407 9.28288 9.78797 9.11426C9.43987 8.94564 9.02447 8.86133 8.54177 8.86133H6.01456V12.5801ZM6.01456 6.8584H8.24937C8.66245 6.8584 9.02911 6.78776 9.34937 6.64648C9.67426 6.50065 9.92954 6.29557 10.1152 6.03125C10.3055 5.76693 10.4006 5.4502 10.4006 5.08106C10.4006 4.5752 10.2173 4.16732 9.85063 3.85742C9.48861 3.54753 8.97342 3.39258 8.30506 3.39258H6.01456V6.8584Z" fill="#EEEEEE"/>
</svg>
