<svg width="16" height="16" viewBox="0 0 16 16" fill="none" xmlns="http://www.w3.org/2000/svg">
<path fill-rule="evenodd" clip-rule="evenodd" d="M8.32357 0.0719485L15.6429 3.59534C15.8588 3.69357 15.9956 3.88538 16 4.09593V10.7629C15.719 10.4573 15.3836 10.2047 15 10.0307V5L11.2993 7.01223C11.201 7.00414 11.1012 7 11 7C9.20247 7 7.85339 8.30437 7.32393 9.90657C5.86759 10.3668 5.00003 11.9087 5.00003 13.3846C5.00003 13.7272 5.04678 14.0734 5.13681 14.4088L0.290125 11.4893C0.106676 11.3804 -0.00205472 11.2 2.94282e-05 11.0079V4.09593C-0.000125135 3.88944 0.127493 3.69858 0.334755 3.59534L7.67643 0.0719485C7.87782 -0.0239828 8.12218 -0.0239828 8.32357 0.0719485ZM2 4.76923L7 8V2L2 4.76923Z" fill="#EEEEEE"/>
<path d="M13.8282 10.8168C13.9026 10.8056 13.9872 10.8 14.0769 10.8C15.1385 10.8 16 11.7408 16 12.9C16 14.0592 15.1385 15 14.0769 15H11.641H10.359H7.92308C6.86154 15 6 14.0592 6 12.9C6 11.7408 6.86154 10.8 7.92308 10.8C8.01282 10.8 8.09744 10.8056 8.17179 10.8196H8.17692H8.17949C8.18718 10.8196 8.19487 10.8168 8.20256 10.8168H8.20257C8.21026 10.8168 8.21539 10.8168 8.22308 10.814C8.23333 10.8112 8.24103 10.8056 8.24872 10.8C8.25641 10.7972 8.2641 10.7944 8.26923 10.7888C8.27692 10.7832 8.27949 10.7776 8.28462 10.772C8.28974 10.7636 8.29744 10.7552 8.30256 10.7468C8.30769 10.7384 8.30769 10.7328 8.31026 10.7244L8.31795 10.6992V10.6936V10.6908C8.43333 9.1816 9.61026 8 11 8C12.3897 8 13.5667 9.1816 13.6846 10.688V10.6908V10.6964C13.6846 10.7048 13.6872 10.7104 13.6897 10.716C13.6923 10.7244 13.6949 10.7356 13.7 10.744C13.7026 10.7524 13.7077 10.758 13.7128 10.7636L13.7128 10.7636C13.7205 10.7692 13.7231 10.7776 13.7308 10.7832C13.7385 10.7888 13.7436 10.7916 13.7513 10.7972C13.759 10.8028 13.7641 10.8056 13.7718 10.8084C13.7795 10.8112 13.7872 10.814 13.7949 10.814C13.8 10.814 13.8051 10.8168 13.8103 10.8168H13.8205H13.8231H13.8282Z" fill="#EEEEEE"/>
</svg>
