<svg width="16" height="16" viewBox="0 0 16 16" fill="none" xmlns="http://www.w3.org/2000/svg">
<path d="M0 14.5363C0 14.7923 0.200649 15 0.448105 15H12.5519C12.7992 15 13 14.7923 13 14.5363V9H0V14.5363Z" fill="#EEEEEE"/>
<path d="M15.552 2H2.44811C2.20081 2 2 2.20757 2 2.46357V4H13.5C13.7473 4 14 4.244 14 4.5V11H15.552C15.7995 11 16 10.5844 16 10.3285V2.46341C16 2.20757 15.7993 2 15.552 2Z" fill="#EEEEEE"/>
<path d="M12.5519 5H0.447946C0.200649 5 0 5.20757 0 5.46357V8H13V5.46357C13 5.20757 12.7992 5 12.5519 5ZM1.94179 6.98535C1.79194 7.15061 1.59018 7.2392 1.37675 7.2392C1.16316 7.2392 0.960431 7.15078 0.811542 6.99692C0.662813 6.8419 0.577345 6.62094 0.577345 6.4122C0.577345 6.19141 0.662813 5.97078 0.811542 5.81675C1.10021 5.51828 1.64321 5.50786 1.94179 5.81675C2.09068 5.97061 2.17599 6.19157 2.17599 6.4122C2.17599 6.6211 2.09068 6.83132 1.94179 6.98535ZM4.45629 6.99675C4.30756 7.14004 4.10484 7.22796 3.89125 7.22796C3.67878 7.22796 3.47605 7.13987 3.32716 6.99675C3.17716 6.84157 3.09201 6.6211 3.09201 6.41204C3.09201 6.19124 3.17716 5.97061 3.32716 5.81658C3.61424 5.51828 4.15756 5.50737 4.45629 5.82716C4.6063 5.97045 4.69049 6.19124 4.69049 6.41204C4.69033 6.62077 4.60614 6.84157 4.45629 6.99675ZM6.97159 6.99692C6.82175 7.15061 6.61998 7.2392 6.41662 7.2392C6.20414 7.2392 6.00142 7.15078 5.85253 6.99692C5.69246 6.8419 5.60715 6.62127 5.60715 6.40146C5.60715 6.19174 5.6923 5.98268 5.84103 5.82749C6.16181 5.50786 6.6727 5.50786 6.97144 5.81691C7.13071 5.97078 7.2157 6.19174 7.2157 6.40146C7.21586 6.62143 7.12016 6.8419 6.97159 6.99692Z" fill="#EEEEEE"/>
</svg>
