<svg width="16" height="16" viewBox="0 0 16 16" fill="none" xmlns="http://www.w3.org/2000/svg">
<path fill-rule="evenodd" clip-rule="evenodd" d="M15.7813 2.11458L13.8854 0.21875C13.5938 -0.0729167 13.1563 -0.0729167 12.8646 0.21875L9.58175 3.5016C9.32614 3.50183 9.07061 3.59946 8.87559 3.79449L5.65162 7.01845C4.63272 6.91554 3.57832 7.2302 2.7988 8.08454C2.43546 8.48276 2.10024 9.14692 1.82168 9.77151C1.52433 10.4383 1.22775 11.2114 0.966898 11.9363C0.705102 12.6637 0.474573 13.3559 0.30973 13.8652C0.227201 14.1202 0.160882 14.3302 0.115059 14.4769C0.0921423 14.5503 0.0743371 14.6078 0.0621786 14.6473L0.0506506 14.6849C0.0177895 14.784 0 14.8899 0 15C0 15.5523 0.447715 16 1 16C1.10529 16 1.20679 15.9837 1.3021 15.9536L1.34057 15.9423C1.38013 15.9306 1.4377 15.9136 1.51099 15.8916C1.65754 15.8477 1.86718 15.784 2.12171 15.7044C2.62998 15.5453 3.3209 15.3214 4.04747 15.0632C4.77103 14.8059 5.54515 14.5092 6.21424 14.2037C6.83961 13.9181 7.51591 13.5634 7.92126 13.1561C8.33382 12.7417 8.63045 12.2513 8.80699 11.7304C8.95506 11.4245 9.01794 11.0803 8.99563 10.7419C8.99895 10.6749 9.00039 10.6079 8.99994 10.5409L12.311 7.22989C12.5552 6.98566 12.6467 6.64654 12.5855 6.33122L15.7813 3.13542C16.0729 2.84375 16.0729 2.33333 15.7813 2.11458ZM5.59258 9.78591C5.17565 10.4341 4.68957 11.8081 4.36512 12.8115C4.04205 12.9377 3.70811 13.0612 3.37756 13.1787C3.09376 13.2796 2.81497 13.3752 2.55088 13.4636C2.64351 13.1924 2.74363 12.9056 2.84876 12.6135C3.10197 11.9098 3.3796 11.1885 3.64827 10.5861C3.93573 9.94155 4.15831 9.56181 4.27623 9.43258C4.4361 9.25736 4.64421 9.13224 4.87699 9.06306C4.8983 9.08917 4.92112 9.11446 4.94547 9.1388L5.59258 9.78591ZM10.1897 6.52279L8.27392 8.43856C8.15966 8.29259 8.03172 8.15354 7.88994 8.02297C7.81781 7.95654 7.74308 7.893 7.66603 7.83244L9.58269 5.91579L10.1897 6.52279Z" fill="#EEEEEE"/>
</svg>
