<svg width="16" height="16" viewBox="0 0 16 16" fill="none" xmlns="http://www.w3.org/2000/svg">
<path d="M8 11.9088H10.5248V12.5376C10.5241 12.8414 10.4141 13.1348 10.2149 13.3643C10.0157 13.5937 9.7407 13.7438 9.44 13.7872V14.2848C9.44 14.4384 9.37898 14.5858 9.27036 14.6944C9.16173 14.803 9.01441 14.864 8.8608 14.864H7.1328C6.98057 14.8623 6.83513 14.8008 6.72794 14.6927C6.62074 14.5846 6.56041 14.4387 6.56 14.2864V13.7872C6.26047 13.7424 5.98693 13.5917 5.78906 13.3624C5.59119 13.1331 5.4821 12.8405 5.4816 12.5376V11.9088H8ZM15.1232 5.02882H14.2752C14.0842 5.02882 13.9011 5.10468 13.7661 5.2397C13.6311 5.37473 13.5552 5.55786 13.5552 5.74882C13.5552 5.93977 13.6311 6.12291 13.7661 6.25794C13.9011 6.39296 14.0842 6.46882 14.2752 6.46882H15.1232C15.3142 6.46882 15.4973 6.39296 15.6323 6.25794C15.7673 6.12291 15.8432 5.93977 15.8432 5.74882C15.8432 5.55786 15.7673 5.37473 15.6323 5.2397C15.4973 5.10468 15.3142 5.02882 15.1232 5.02882ZM14.6832 8.70882L14 8.20642C13.9246 8.14661 13.8378 8.10261 13.745 8.07704C13.6522 8.05148 13.5552 8.04488 13.4598 8.05763C13.3643 8.07038 13.2724 8.10222 13.1896 8.15126C13.1067 8.2003 13.0346 8.26552 12.9775 8.34304C12.9204 8.42056 12.8795 8.50879 12.8573 8.60246C12.835 8.69613 12.8319 8.79332 12.848 8.88824C12.8642 8.98315 12.8992 9.07384 12.9512 9.1549C13.0032 9.23596 13.0709 9.30572 13.1504 9.36002L13.8336 9.86242C13.9563 9.95316 14.105 10.002 14.2576 10.0016C14.294 10.0017 14.3304 9.99901 14.3664 9.99362C14.5053 9.97164 14.6347 9.90928 14.7385 9.8143C14.8422 9.71932 14.9157 9.59592 14.9498 9.45947C14.9839 9.32302 14.9771 9.17955 14.9303 9.04692C14.8835 8.9143 14.7986 8.79838 14.6864 8.71362L14.6832 8.70882ZM14.3632 1.49122C14.2701 1.47676 14.1751 1.48091 14.0837 1.50343C13.9922 1.52595 13.9061 1.5664 13.8304 1.62242L13.152 2.13282C13.0065 2.24818 12.9114 2.41552 12.8868 2.59958C12.8622 2.78364 12.91 2.97006 13.0201 3.11958C13.1303 3.2691 13.2941 3.37005 13.4772 3.40117C13.6603 3.4323 13.8483 3.39116 14.0016 3.28642L14.6848 2.78242C14.797 2.69765 14.8819 2.58174 14.9287 2.44912C14.9755 2.31649 14.9823 2.17302 14.9482 2.03657C14.9141 1.90011 14.8406 1.77671 14.7369 1.68173C14.6331 1.58675 14.5037 1.52439 14.3648 1.50242L14.3632 1.49122ZM2.4416 5.75042C2.4416 5.56031 2.36608 5.37799 2.23165 5.24357C2.09723 5.10914 1.91491 5.03362 1.7248 5.03362H0.876799C0.685843 5.03362 0.502709 5.10948 0.367682 5.2445C0.232656 5.37953 0.156799 5.56266 0.156799 5.75362C0.156799 5.94457 0.232656 6.12771 0.367682 6.26274C0.502709 6.39776 0.685843 6.47362 0.876799 6.47362H1.7248C1.81947 6.47362 1.91321 6.45487 2.00059 6.41845C2.08798 6.38203 2.16728 6.32866 2.23393 6.26142C2.30058 6.19417 2.35324 6.1144 2.38888 6.02669C2.42453 5.93899 2.44244 5.84509 2.4416 5.75042ZM2.8496 2.13442L2.1664 1.63202C2.09113 1.5714 2.00438 1.52663 1.91136 1.50039C1.81835 1.47416 1.72099 1.46701 1.62514 1.47937C1.52929 1.49172 1.43692 1.52334 1.3536 1.5723C1.27028 1.62127 1.19773 1.68658 1.14029 1.76431C1.08286 1.84204 1.04174 1.93058 1.0194 2.02461C0.997065 2.11863 0.993973 2.21621 1.01031 2.31146C1.02665 2.40671 1.06208 2.49768 1.11448 2.57889C1.16687 2.6601 1.23515 2.72987 1.3152 2.78402L1.9984 3.28642C2.07384 3.34623 2.16056 3.39023 2.25338 3.41579C2.3462 3.44136 2.44322 3.44796 2.53865 3.43521C2.63408 3.42246 2.72596 3.39062 2.80881 3.34158C2.89166 3.29254 2.96378 3.22732 3.02088 3.14979C3.07797 3.07227 3.11886 2.98405 3.14111 2.89038C3.16336 2.79671 3.16651 2.69951 3.15037 2.6046C3.13424 2.50969 3.09915 2.41899 3.0472 2.33794C2.99525 2.25688 2.9275 2.18712 2.848 2.13282L2.8496 2.13442ZM2 8.21442L1.3152 8.71522C1.20296 8.79998 1.11814 8.9159 1.0713 9.04852C1.02446 9.18115 1.01768 9.32462 1.05179 9.46107C1.0859 9.59752 1.15941 9.72092 1.26315 9.8159C1.36689 9.91088 1.49627 9.97324 1.6352 9.99522C1.67121 10.0006 1.70758 10.0033 1.744 10.0032C1.89662 10.0036 2.04529 9.95476 2.168 9.86402L2.8512 9.36162C2.99671 9.24625 3.09178 9.07892 3.11637 8.89486C3.14097 8.7108 3.09317 8.52438 2.98305 8.37486C2.87293 8.22534 2.70908 8.12438 2.52601 8.09326C2.34294 8.06214 2.15494 8.10328 2.0016 8.20802L2 8.21442ZM11.1536 2.37922C10.3002 1.57653 9.17156 1.13159 8 1.13602C6.8301 1.13282 5.70337 1.57767 4.8512 2.37922C4.34861 2.8475 3.95668 3.42187 3.70388 4.06059C3.45107 4.69932 3.34376 5.38634 3.38973 6.07173C3.43569 6.75713 3.63379 7.42367 3.96962 8.02291C4.30546 8.62216 4.77058 9.13905 5.3312 9.53602C5.37418 9.56507 5.40945 9.60413 5.43398 9.64984C5.45851 9.69555 5.47156 9.74654 5.472 9.79842V10.8144H7.36V7.92162L6.0672 6.62882C6.00745 6.56935 5.96005 6.49867 5.9277 6.42082C5.89535 6.34298 5.87869 6.25952 5.87869 6.17522C5.87869 6.09092 5.89535 6.00746 5.9277 5.92961C5.96005 5.85177 6.00745 5.78109 6.0672 5.72162C6.18948 5.60512 6.3519 5.54013 6.5208 5.54013C6.6897 5.54013 6.85212 5.60512 6.9744 5.72162L8 6.74882L9.0272 5.72162C9.1493 5.60475 9.31179 5.53952 9.4808 5.53952C9.64981 5.53952 9.8123 5.60475 9.9344 5.72162C9.99414 5.78109 10.0416 5.85177 10.0739 5.92961C10.1063 6.00746 10.1229 6.09092 10.1229 6.17522C10.1229 6.25952 10.1063 6.34298 10.0739 6.42082C10.0416 6.49867 9.99414 6.56935 9.9344 6.62882L8.64 7.92162V10.8128H10.5248V9.79842C10.5252 9.74654 10.5383 9.69555 10.5628 9.64984C10.5873 9.60413 10.6226 9.56507 10.6656 9.53602C11.2265 9.13923 11.6918 8.62241 12.0278 8.02316C12.3638 7.4239 12.562 6.75728 12.608 6.0718C12.654 5.38631 12.5466 4.6992 12.2936 4.06044C12.0406 3.42168 11.6485 2.84735 11.1456 2.37922H11.1536Z" fill="#EEEEEE"/>
</svg>
