<svg width="16" height="16" viewBox="0 0 16 16" fill="none" xmlns="http://www.w3.org/2000/svg">
<g id="Icons/16x16/CalenderPencil">
<path id="Combined Shape" fill-rule="evenodd" clip-rule="evenodd" d="M12.7914 0.676123C12.7847 0.301565 12.4824 0 12.1105 0C11.7344 0 11.4295 0.30838 11.4295 0.688776V1.36638H4.73941V0.688776L4.73929 0.676123C4.73262 0.301565 4.43036 0 4.0584 0C3.68229 0 3.37739 0.30838 3.37739 0.688776V1.36638H2.19436L2.15813 1.36668C0.964809 1.38631 0 2.37424 0 3.58577V12.7806L0.000294561 12.8173C0.0197105 14.0242 0.996498 15 2.19436 15H6V13.6224H2.1944L2.18066 13.6223C1.72801 13.6149 1.36206 13.2402 1.36206 12.7806V7.01372L11 7V5.62249L1.36206 5.63621V3.58577L1.36217 3.57187C1.36953 3.11405 1.74003 2.74393 2.1944 2.74393H3.37743V3.42149L3.37754 3.43415C3.38421 3.8087 3.68651 4.11027 4.05843 4.11027C4.43454 4.11027 4.73944 3.80189 4.73944 3.42149V2.74393H11.4295V3.42149L11.4296 3.43415C11.4363 3.8087 11.7386 4.11027 12.1105 4.11027C12.4866 4.11027 12.7915 3.80189 12.7915 3.42149V2.74393H13.8057L13.8194 2.74404C14.2721 2.75149 14.638 3.12621 14.638 3.58577V5.12755H16V3.58573L15.9997 3.54908C15.9803 2.34215 15.0035 1.36634 13.8056 1.36634H12.7915V0.688776L12.7914 0.676123ZM13.0653 6L12.4803 6.65009L7.79033 11.8611L7 16L10.725 15.1218L16 9.26072L13.0653 6ZM13.0615 8.64228L13.649 9.28754L9.88111 13.426L9.13061 13.6016L9.29056 12.7807L13.0615 8.64228Z" fill="#EEEEEE"/>
</g>
</svg>
