<svg width="17" height="16" viewBox="0 0 17 16" fill="none" xmlns="http://www.w3.org/2000/svg">
<path fill-rule="evenodd" clip-rule="evenodd" d="M12.7914 0.676123C12.7847 0.301565 12.4824 0 12.1105 0C11.7344 0 11.4295 0.30838 11.4295 0.688776V1.36638H4.73941V0.688776L4.73929 0.676123C4.73262 0.301565 4.43036 0 4.0584 0C3.68229 0 3.37739 0.30838 3.37739 0.688776V1.36638H2.19436L2.15813 1.36668C0.964809 1.38631 0 2.37424 0 3.58577V12.7806L0.000294561 12.8173C0.0197105 14.0242 0.996498 15 2.19436 15H12.4137C12.5282 15.0001 12.6478 15.0014 12.7708 15.0027C13.7316 15.0128 14.8999 15.0251 15.5 14.5C16.0689 14.0022 16.0433 13.1254 16.0138 12.1155C16.0071 11.8869 16.0002 11.6515 16 11.4121V3.58573L15.9997 3.54908C15.9803 2.34215 15.0035 1.36634 13.8056 1.36634H12.7915V0.688776L12.7914 0.676123ZM14.638 11.4908V7.00036L1.36206 7.01372V12.7806C1.36206 13.2402 1.72801 13.6149 2.18066 13.6223L2.1944 13.6224H13.5V13.689C13.8413 13.6334 14.0813 13.5379 14.2549 13.3859C14.5111 13.1618 14.5085 12.8194 14.5023 11.9791C14.5012 11.8347 14.5 11.6757 14.5 11.5L14.638 11.4908ZM14.638 5.62285V3.58577C14.638 3.12621 14.2721 2.75149 13.8194 2.74404L13.8057 2.74393H12.7915V3.42149C12.7915 3.80189 12.4866 4.11027 12.1105 4.11027C11.7386 4.11027 11.4363 3.8087 11.4296 3.43415L11.4295 3.42149V2.74393H4.73944V3.42149C4.73944 3.80189 4.43454 4.11027 4.05843 4.11027C3.68651 4.11027 3.38421 3.8087 3.37754 3.43415L3.37743 3.42149V2.74393H2.1944C1.74003 2.74393 1.36953 3.11405 1.36217 3.57187L1.36206 3.58577V5.63621L14.638 5.62285Z" fill="#EEEEEE"/>
</svg>
