<svg xmlns="http://www.w3.org/2000/svg" width="16" height="16" viewBox="0 0 16 16">
    <path fill="#BDBDBD" d="M8 0C3.582 0 0 3.582 0 8s3.582 8 8 8 8-3.582 8-8-3.582-8-8-8zm3.942 10.925l-1.017 1.017c-.08.077-.206.077-.285 0l-2.66-2.66-2.642 2.641c-.079.078-.206.078-.285 0l-.976-.976c-.078-.08-.078-.206 0-.285L6.718 8.02l-2.66-2.66c-.077-.079-.077-.206 0-.285l1.017-1.017c.08-.077.206-.077.285 0l2.66 2.66 2.642-2.641c.079-.078.206-.078.285 0l.976.976c.078.08.078.206 0 .285L9.282 7.98l2.66 2.66c.077.079.077.206 0 .285z"/>
</svg>
