<svg width="16" height="16" viewBox="0 0 16 16" fill="none" xmlns="http://www.w3.org/2000/svg">
<path d="M12 2C12 1.44772 11.5523 1 11 1H5C2.79086 1 1 2.79086 1 5V11C1 13.2091 2.79086 15 5 15H11C13.2091 15 15 13.2091 15 11V11C15 10.4477 14.5523 10 14 10V10C13.4477 10 13 10.4477 13 11V11C13 12.1046 12.1046 13 11 13H5C3.89543 13 3 12.1046 3 11V5C3 3.89543 3.89543 3 5 3H11C11.5523 3 12 2.55228 12 2V2Z" fill="#EEEEEE"/>
<path d="M15.1691 1.87539C14.9599 1.88153 14.761 1.97556 14.6146 2.13762L8.66044 8.58944L5.67583 6.08736C5.59208 6.01706 5.49636 5.96532 5.39416 5.93509C5.29195 5.90487 5.18525 5.89675 5.08015 5.91121C4.97505 5.92567 4.87361 5.96241 4.78161 6.01935C4.68962 6.07629 4.60887 6.15231 4.54399 6.24307C4.47911 6.33382 4.43136 6.43753 4.40346 6.54828C4.37557 6.65903 4.36808 6.77465 4.38142 6.88854C4.39477 7.00242 4.42868 7.11234 4.48123 7.21203C4.53377 7.31171 4.60393 7.39921 4.68768 7.46951L8.23695 10.4414C8.39192 10.5717 8.5854 10.6364 8.78119 10.6233C8.97699 10.6103 9.16168 10.5203 9.30071 10.3704L15.7539 3.37772C15.871 3.25513 15.9511 3.09704 15.9837 2.92423C16.0163 2.75141 15.9998 2.57194 15.9366 2.40941C15.8733 2.24689 15.7661 2.10891 15.6292 2.0136C15.4922 1.91829 15.3318 1.87011 15.1691 1.87539V1.87539Z" fill="#EEEEEE"/>
</svg>
