<svg width="16" height="16" viewBox="0 0 16 16" fill="none" xmlns="http://www.w3.org/2000/svg">
<path d="M14.7543 0.135904C9.9932 3.33365 5.36378 9.3769 5.36378 9.3769C4.42001 8.32917 3.42287 7.33764 2.37689 6.40679C1.80884 5.90171 0.975265 5.93392 0.442985 6.48153C-0.0892949 7.02913 -0.149427 7.91635 0.303479 8.53989C1.79226 10.6049 3.08723 12.8209 4.16975 15.1559C4.40877 15.6676 4.89626 15.9935 5.43225 15.9999C5.96823 16.0063 6.46248 15.6922 6.71224 15.1865C9.6733 9.24605 12.2375 5.91593 15.8077 1.42228C16.0669 1.09645 16.0637 0.61741 15.8002 0.295549C15.5366 -0.0263114 15.0919 -0.0941866 14.7543 0.135904Z" fill="#EEEEEE"/>
</svg>
