<svg width="16" height="16" viewBox="0 0 16 16" fill="none" xmlns="http://www.w3.org/2000/svg">
<path d="M7.17538 3.34811L7.17482 3.3468C7.43712 3.23825 7.71611 3.18387 7.9951 3.18331C8.54313 3.18331 9.09192 3.39255 9.50984 3.81065L10.1867 4.48748L14.3998 0.274623C14.766 -0.091541 15.3592 -0.091541 15.7254 0.274623C16.0915 0.640787 16.0915 1.234 15.7254 1.60016L11.5122 5.81321L12.188 6.48891C12.6055 6.90645 12.8142 7.45504 12.8153 8.00381C12.8142 8.28242 12.7604 8.56159 12.6518 8.82389C12.6513 8.82389 12.4591 9.28717 12.1636 10L6 3.83633C6.71565 3.53916 7.17538 3.34868 7.17538 3.34811Z" fill="#EEEEEE"/>
<path d="M5 4.5L11.5 11C11.051 12.0825 11.0122 12.8613 10.5409 14L2 5.45912C3.17186 4.97404 3.93576 4.94087 5 4.5Z" fill="#EEEEEE"/>
<rect y="10" width="4" height="1" fill="#EEEEEE"/>
<rect y="13" width="7" height="1" fill="#EEEEEE"/>
</svg>
