<svg width="16" height="16" viewBox="0 0 16 16" fill="none" xmlns="http://www.w3.org/2000/svg">
<path d="M2.29289 2.29289C2.65338 1.93241 3.22061 1.90468 3.6129 2.2097L3.70711 2.29289L8 6.585L12.2929 2.29289C12.6534 1.93241 13.2206 1.90468 13.6129 2.2097L13.7071 2.29289C14.0676 2.65338 14.0953 3.22061 13.7903 3.6129L13.7071 3.70711L8.70711 8.70711C8.34662 9.06759 7.77939 9.09532 7.3871 8.7903L7.29289 8.70711L2.29289 3.70711C1.90237 3.31658 1.90237 2.68342 2.29289 2.29289Z" fill="#EEEEEE"/>
<path d="M13.7071 13.7071C13.3466 14.0676 12.7794 14.0953 12.3871 13.7903L12.2929 13.7071L8 9.415L3.70711 13.7071C3.34662 14.0676 2.77939 14.0953 2.3871 13.7903L2.29289 13.7071C1.93241 13.3466 1.90468 12.7794 2.2097 12.3871L2.29289 12.2929L7.29289 7.29289C7.65338 6.93241 8.22061 6.90468 8.6129 7.2097L8.70711 7.29289L13.7071 12.2929C14.0976 12.6834 14.0976 13.3166 13.7071 13.7071Z" fill="#EEEEEE"/>
</svg>
