<svg width="16" height="17" viewBox="0 0 16 17" fill="none" xmlns="http://www.w3.org/2000/svg">
<path fill-rule="evenodd" clip-rule="evenodd" d="M10.5924 4.60304C10.5352 4.56914 10.4768 4.53649 10.4175 4.50515C9.94762 4.25698 9.42433 4.09577 8.8801 4.03154C8.33588 3.96731 7.78234 4.00142 7.25385 4.13176C6.72536 4.2621 6.2332 4.48588 5.80794 4.78921C5.38269 5.09254 5.03341 5.46895 4.78179 5.89505C4.53017 6.32116 4.31371 7.29302 4.27739 7.77135C4.27266 7.83476 4.24043 7.8942 4.18726 7.9376C4.13409 7.98099 4.06398 8.00507 3.99119 8.00494C2.95541 8.00845 1.96143 8.36196 1.21776 8.99131C0.474097 9.62067 0.0385307 10.477 0.00243597 11.3806C-0.0336588 12.2842 0.332523 13.1649 1.02417 13.8379C1.08048 13.8927 1.13859 13.9458 1.19839 13.9971L10.5924 4.60304ZM7.94534 15H12.5656C13.4765 15 14.35 14.6842 14.9941 14.1219C15.6382 13.5597 16 12.7972 16 12.0021C16 11.207 15.6382 10.4445 14.9941 9.88229C14.64 9.57315 14.2164 9.3385 13.7555 9.18989L7.94534 15Z" fill="#EEEEEE"/>
<rect x="13.7748" y="3.39044" width="2.59474" height="16.0999" rx="1.29737" transform="rotate(45 13.7748 3.39044)" fill="#EEEEEE"/>
</svg>
