<svg width="16" height="16" viewBox="0 0 16 16" fill="none" xmlns="http://www.w3.org/2000/svg">
<path fill-rule="evenodd" clip-rule="evenodd" d="M12.5084 6.91645H12.5656V6.91409C13.4765 6.91409 14.35 7.28737 14.9941 7.9518C15.6382 8.61623 16 9.5174 16 10.457C16 11.3967 15.6382 12.2979 14.9941 12.9623C14.35 13.6267 13.4765 14 12.5656 14H3.97974C3.89131 14 3.80574 13.9976 3.71215 13.9888C2.67917 13.9102 1.71581 13.422 1.02417 12.6266C0.332523 11.8312 -0.0336588 10.7904 0.00243597 9.72248C0.0385307 8.65459 0.474097 7.64261 1.21776 6.89883C1.96143 6.15504 2.95541 5.73726 3.99119 5.73311C4.06398 5.73327 4.13409 5.70481 4.18726 5.65352C4.24043 5.60224 4.27266 5.53198 4.27739 5.45705C4.31371 4.89175 4.53017 3.74319 4.78179 3.23961C5.03341 2.73603 5.38269 2.29119 5.80794 1.93271C6.2332 1.57422 6.72536 1.30975 7.25385 1.15571C7.78234 1.00168 8.33588 0.961362 8.8801 1.03727C9.42433 1.11318 9.94762 1.3037 10.4175 1.59699C10.8873 1.89028 11.2937 2.28009 11.6114 2.7422C11.9292 3.20432 12.1514 3.72888 12.2643 4.28331C12.3773 4.83774 12.3107 6.0072 12.2002 6.56216C12.191 6.60753 12.1922 6.6545 12.2039 6.69927C12.2156 6.74404 12.2373 6.78534 12.2673 6.81984C12.2973 6.85434 12.3348 6.88106 12.3767 6.89785C12.4186 6.91463 12.4637 6.92101 12.5084 6.91645ZM4.70624 9.17245C5.16475 9.66131 5.50674 9.95935 5.84872 10.2574C6.19071 10.5554 6.5327 10.8534 6.99121 11.3423C7.05641 11.4127 7.1216 11.4821 7.18679 11.5515C7.25198 11.6209 7.31717 11.6903 7.38236 11.7607C7.68224 12.0798 8.31243 12.0798 8.61231 11.7607C9.52934 10.783 10.8388 9.59088 10.8388 9.59088C10.8388 9.59088 11.0996 9.31331 11.2299 9.17245C11.5342 8.8493 11.5907 8.31486 11.2299 8C10.8996 7.70999 10.326 7.65614 10 8C9.59426 8.4326 9.29122 8.71576 8.99999 8.98173V8.44961V5.47633V4.87503C8.99999 4.61013 8.84909 3.98065 7.99999 4.00049C7.15089 4.02032 6.99999 4.59247 6.99999 4.87503V5.89148V9.08591C6.79823 8.90019 6.58055 8.68841 6.32733 8.41844C6.26214 8.34801 6.19695 8.27861 6.13176 8.20922C6.06657 8.13982 6.00138 8.07043 5.93618 8C5.63196 7.67685 5.01047 7.68099 4.70624 8C4.37593 8.34386 4.38463 8.82444 4.70624 9.17245Z" fill="#EEEEEE"/>
</svg>
