<svg width="16" height="16" viewBox="0 0 16 16" fill="none" xmlns="http://www.w3.org/2000/svg">
<path d="M12.5084 6.00623H12.5656V6.00423C13.4765 6.00423 14.35 6.32008 14.9941 6.88229C15.6382 7.4445 16 8.20703 16 9.00212C16 9.7972 15.6382 10.5597 14.9941 11.1219C14.35 11.6842 13.4765 12 12.5656 12H3.97974C3.89131 12 3.80574 11.998 3.71215 11.9905C2.67917 11.924 1.71581 11.5109 1.02417 10.8379C0.332523 10.1649 -0.0336588 9.28416 0.00243597 8.38056C0.0385307 7.47696 0.474097 6.62067 1.21776 5.99131C1.96143 5.36196 2.95541 5.00845 3.99119 5.00494C4.06398 5.00507 4.13409 4.98099 4.18726 4.9376C4.24043 4.8942 4.27266 4.83476 4.27739 4.77135C4.31371 4.29302 4.53017 3.32116 4.78179 2.89505C5.03341 2.46895 5.38269 2.09254 5.80794 1.78921C6.2332 1.48588 6.72536 1.2621 7.25385 1.13176C7.78234 1.00142 8.33588 0.967306 8.8801 1.03154C9.42433 1.09577 9.94762 1.25698 10.4175 1.50515C10.8873 1.75332 11.2937 2.08315 11.6114 2.47417C11.9292 2.86519 12.1514 3.30905 12.2643 3.77818C12.3773 4.24732 12.3107 5.23686 12.2002 5.70644C12.191 5.74483 12.1922 5.78458 12.2039 5.82246C12.2156 5.86034 12.2373 5.89529 12.2673 5.92448C12.2973 5.95367 12.3348 5.97628 12.3767 5.99049C12.4186 6.00469 12.4637 6.01008 12.5084 6.00623Z" fill="#EEEEEE"/>
</svg>
