<svg width="16" height="16" viewBox="0 0 16 16" fill="none" xmlns="http://www.w3.org/2000/svg">
<path fill-rule="evenodd" clip-rule="evenodd" d="M13.0938 1.5H6.90625H5.5V3H4V1.5C4 0.673259 4.67157 0 5.5 0H6.90625H13.0938H14.5C15.3267 0 16 0.671573 16 1.5V2.90625V9.09375V10.5C16 11.3267 15.3284 12 14.5 12H13V10.5H14.5V9.09375V2.90625V1.5H13.0938ZM0 5.5016C0 4.67229 0.670885 4 1.5016 4H10.4984C11.3277 4 12 4.67089 12 5.5016V14.4984C12 15.3277 11.3291 16 10.4984 16H1.5016C0.672288 16 0 15.3291 0 14.4984V5.5016ZM3.87598 5.88221C4.1042 5.57383 4.49375 5.5 4.81643 5.5C5.09982 5.5 5.39988 5.55259 5.63961 5.72682C5.88968 5.90508 6.00877 6.15723 6.00877 6.43087C6.00877 6.61381 5.94023 6.87284 5.84881 7.15691L3.96762 13.3144L3.96723 13.3157C3.90371 13.5213 3.84391 13.6941 3.78772 13.829C3.71491 14.0162 3.59034 14.1835 3.40455 14.3071C3.18767 14.4586 2.92246 14.5 2.68562 14.5C2.40775 14.5 2.10779 14.4546 1.86837 14.2904C1.60325 14.1086 1.5 13.8437 1.5 13.5798C1.5 13.4896 1.52106 13.3782 1.54303 13.2778C1.56757 13.1656 1.60323 13.0249 1.64893 12.8578L1.65204 12.8464L3.52719 6.68728C3.62606 6.35875 3.73704 6.06997 3.87598 5.88221ZM8.36721 5.88221C8.59542 5.57383 8.98498 5.5 9.30766 5.5C9.59104 5.5 9.89109 5.55259 10.1308 5.7268C10.3809 5.90507 10.5 6.15722 10.5 6.43087C10.5 6.61382 10.4315 6.87285 10.34 7.15694L8.45885 13.3144L8.45846 13.3157C8.39493 13.5213 8.33514 13.6941 8.27895 13.829C8.20613 14.0161 8.08157 14.1835 7.89578 14.3071C7.6789 14.4586 7.41369 14.5 7.17685 14.5C6.89897 14.5 6.59902 14.4546 6.35959 14.2904C6.09448 14.1086 5.99123 13.8437 5.99123 13.5798C5.99123 13.4896 6.01229 13.3782 6.03426 13.2778C6.0588 13.1656 6.09446 13.0249 6.14015 12.8578L6.14327 12.8464L8.01842 6.68728C8.11728 6.35875 8.22826 6.06997 8.36721 5.88221Z" fill="#EEEEEE"/>
</svg>
