<svg width="16" height="16" viewBox="0 0 16 16" fill="none" xmlns="http://www.w3.org/2000/svg">
<path fill-rule="evenodd" clip-rule="evenodd" d="M13.0938 1.5H6.90625H5.5V3H4V1.5C4 0.673259 4.67157 0 5.5 0H6.90625H13.0938H14.5C15.3267 0 16 0.671573 16 1.5V2.90625V9.09375V10.5C16 11.3267 15.3284 12 14.5 12H13V10.5H14.5V9.09375V2.90625V1.5H13.0938ZM1.5016 4C0.670885 4 0 4.67229 0 5.5016V14.4984C0 15.3291 0.672288 16 1.5016 16H10.4984C11.3291 16 12 15.3277 12 14.4984V5.5016C12 4.67089 11.3277 4 10.4984 4H1.5016Z" fill="#EEEEEE"/>
</svg>
