<svg width="16" height="16" viewBox="0 0 16 16" fill="none" xmlns="http://www.w3.org/2000/svg">
<path fill-rule="evenodd" clip-rule="evenodd" d="M7.06328 5.14913C7.35801 5.05235 7.67289 5 8 5C8.32711 5 8.64199 5.05235 8.93672 5.14913C8.79461 4.76992 8.42883 4.5 8 4.5C7.57117 4.5 7.20539 4.76992 7.06328 5.14913ZM9 10.8293C8.68722 10.9398 8.35064 11 8 11C7.64936 11 7.31278 10.9398 7 10.8293V15C7 15.5523 7.44772 16 8 16C8.55228 16 9 15.5523 9 15V10.8293Z" fill="#EEEEEE"/>
<path fill-rule="evenodd" clip-rule="evenodd" d="M8 10C6.89543 10 6 9.10457 6 8C6 6.89543 6.89543 6 8 6H10V4.53513C9.41165 4.19479 8.72857 4 8 4C5.79086 4 4 5.79086 4 8C4 10.2091 5.79086 12 8 12C8.72857 12 9.41165 11.8052 10 11.4649V10H8Z" fill="#EEEEEE"/>
<path fill-rule="evenodd" clip-rule="evenodd" d="M13 6C13 5.44772 12.5523 5 12 5C11.4477 5 11 5.44772 11 6V7H10C9.44772 7 9 7.44772 9 8C9 8.55228 9.44772 9 10 9H11V10C11 10.5523 11.4477 11 12 11C12.5523 11 13 10.5523 13 10V9H14C14.5523 9 15 8.55228 15 8C15 7.44772 14.5523 7 14 7H13V6Z" fill="#EEEEEE"/>
</svg>
