<svg width="16" height="16" viewBox="0 0 16 16" fill="none" xmlns="http://www.w3.org/2000/svg">
<g id="Icons/16x16/Create project">
<path id="Subtract" fill-rule="evenodd" clip-rule="evenodd" d="M0 3C0 1.34315 1.34315 0 3 0H11C12.6569 0 14 1.34315 14 3V7.41604C13.3875 7.14845 12.7111 7 12 7V3C12 2.44772 11.5523 2 11 2H3C2.44772 2 2 2.44772 2 3V11C2 11.5523 2.44772 12 3 12H7C7 12.7111 7.14845 13.3875 7.41604 14H3C1.34315 14 0 12.6569 0 11V3ZM7.99963 9C7.56292 9.58141 7.25 10.2611 7.10002 11H4C3.44772 11 3 10.5523 3 10C3 9.44771 3.44772 9 4 9H7.99963ZM10.995 7.10105C10.2578 7.25147 9.57971 7.56409 8.99951 8H4C3.44772 8 3 7.55228 3 7C3 6.44772 3.44772 6 4 6H10C10.5523 6 11 6.44772 11 7C11 7.03411 10.9983 7.06782 10.995 7.10105ZM3 4C3 3.44772 3.44772 3 4 3H10C10.5523 3 11 3.44772 11 4C11 4.55228 10.5523 5 10 5H4C3.44772 5 3 4.55228 3 4Z" fill="#EEEEEE"/>
<path id="Shape" fill-rule="evenodd" clip-rule="evenodd" d="M8 12C8 9.79086 9.79086 8 12 8C14.2091 8 16 9.79086 16 12C16 14.2091 14.2091 16 12 16C9.79086 16 8 14.2091 8 12ZM11.5397 14.327C11.5402 14.3824 11.585 14.4271 11.6404 14.4277H12.3596C12.415 14.4271 12.4598 14.3824 12.4603 14.327V12.4459H14.3281C14.3835 12.4454 14.4282 12.4006 14.4288 12.3452V11.6548C14.4282 11.5994 14.3835 11.5546 14.3281 11.5541H12.4603V9.673C12.4598 9.61762 12.415 9.57286 12.3596 9.57231H11.6404C11.585 9.57286 11.5402 9.61762 11.5397 9.673V11.5541H9.6719C9.61652 11.5546 9.57176 11.5994 9.5712 11.6548L9.5712 12.3452C9.57176 12.4006 9.61652 12.4454 9.6719 12.4459H11.5397L11.5397 14.327Z" fill="#EEEEEE"/>
</g>
</svg>
