<svg width="16" height="16" viewBox="0 0 16 16" fill="none" xmlns="http://www.w3.org/2000/svg">
<path fill-rule="evenodd" clip-rule="evenodd" d="M10.1201 10.1977L9.25326 8.37464L12.0873 2.43476C12.4813 1.60745 12.2657 0.695647 11.6077 0.398845L10.7257 0L7.99862 5.73579L5.27096 0L4.38894 0.398845C3.73095 0.695647 3.51593 1.6058 3.90938 2.43476L6.74342 8.37464L5.87661 10.1955C4.56861 8.96085 2.50339 8.92334 1.14911 10.1097C-0.205166 11.296 -0.386585 13.3015 0.733825 14.7004C1.85423 16.0994 3.89432 16.4147 5.4038 15.4222C6.12082 14.9503 6.48163 14.1872 6.8038 13.5058L6.81829 13.4751L8.00031 11.002L9.18234 13.4751L9.19682 13.5058C9.51899 14.1872 9.8798 14.9503 10.5968 15.4222C11.6231 16.097 12.9408 16.1869 14.0536 15.6581C15.1663 15.1292 15.905 14.0619 15.9915 12.8582C16.078 11.6545 15.499 10.4973 14.4727 9.82244C13.1109 8.93165 11.297 9.08726 10.1201 10.1977ZM4.72068 13.3717C4.29119 13.973 3.48769 14.172 2.82725 13.8405C2.1668 13.509 1.84623 12.7458 2.07182 12.0421C2.29741 11.3384 3.00194 10.9039 3.73203 11.0182C4.46212 11.1324 5.0002 11.7614 5 12.5004C5.00013 12.8129 4.90246 13.1175 4.72068 13.3717ZM11.1144 13.0745C11.3468 13.635 11.894 14.0003 12.5008 14C12.8986 14.0004 13.2803 13.8426 13.5615 13.5612C13.8428 13.2799 14.0005 12.8982 14 12.5004C14.0002 11.8936 13.6347 11.3465 13.0741 11.1143C12.5135 10.882 11.8682 11.0104 11.4392 11.4395C11.0102 11.8686 10.882 12.514 11.1144 13.0745Z" fill="#EEEEEE"/>
</svg>
