<svg width="16" height="16" viewBox="0 0 16 16" fill="none" xmlns="http://www.w3.org/2000/svg">
<path fill-rule="evenodd" clip-rule="evenodd" d="M2 4V12H4V4H2ZM1 2C0.447715 2 0 2.44772 0 3V13C0 13.5523 0.447715 14 1 14H5C5.55228 14 6 13.5523 6 13V3C6 2.44772 5.55228 2 5 2H1Z" fill="#EEEEEE"/>
<path fill-rule="evenodd" clip-rule="evenodd" d="M12 4V12H14V4H12ZM11 2C10.4477 2 10 2.44772 10 3V13C10 13.5523 10.4477 14 11 14H15C15.5523 14 16 13.5523 16 13V3C16 2.44772 15.5523 2 15 2H11Z" fill="#EEEEEE"/>
<rect x="7" y="5" width="2" height="2" rx="1" fill="#EEEEEE"/>
<rect x="7" y="9" width="2" height="2" rx="1" fill="#EEEEEE"/>
</svg>
