<svg width="16" height="16" viewBox="0 0 16 16" fill="none" xmlns="http://www.w3.org/2000/svg">
<g id="Icons/16x16/disk">
<path id="Shape" fill-rule="evenodd" clip-rule="evenodd" d="M3.19915 0V6.39403H12.7966V0H13.5985L16 2.40149V15.1981C16 15.6076 15.6947 15.9444 15.2988 15.9938L15.1981 16H0.801919C0.392429 16 0.0556286 15.6947 0.00623618 15.2988L0 15.1981V0.801919C0 0.392429 0.305301 0.0556286 0.701185 0.00623618L0.801919 0H3.19915ZM13 14V12H3V14H13ZM3 11V9H13V11H3ZM11 0V5H5V0H11ZM8 1H10V4H8V1Z" fill="#EEEEEE"/>
</g>
</svg>
