<svg width="16" height="16" viewBox="0 0 16 16" fill="none" xmlns="http://www.w3.org/2000/svg">
<path fill-rule="evenodd" clip-rule="evenodd" d="M11.1001 6.02289L11.1499 0H5.14989L5.1001 6.02289L1.78529 6.05953L1.68273 6.06792C1.38235 6.11475 1.15339 6.35128 1.15015 6.63718C1.15682 6.79918 1.22701 6.95366 1.34801 7.07269L7.71765 12.8432L7.79127 12.9018C7.89566 12.9718 8.0234 13.0092 8.15493 13.0065C8.16208 13.0067 8.16923 13.0069 8.17636 13.0069H1C0.447715 13.0069 0 13.4536 0 14.0046V15.0023C0 15.5533 0.447715 16 1 16H15C15.5523 16 16 15.5533 16 15.0023V14.0046C16 13.4536 15.5523 13.0069 15 13.0069H8.1771C8.3399 13.0068 8.49643 12.9481 8.61216 12.8432L14.9718 7.05455L15.0369 6.98379C15.1146 6.88379 15.1547 6.76269 15.1497 6.63869C15.1545 6.48617 15.0902 6.33856 14.9718 6.2304C14.8547 6.12028 14.6931 6.05854 14.5246 6.05953L11.1001 6.02289Z" fill="#EEEEEE"/>
</svg>
