<svg width="16" height="16" viewBox="0 0 16 16" fill="none" xmlns="http://www.w3.org/2000/svg">
<path d="M7.99909 10.4583C7.66835 10.4585 7.34223 10.3739 7.04732 10.2113L3 8.00198V9.92675C2.99965 10.3139 3.09314 10.6942 3.27107 11.0297C3.449 11.3651 3.70511 11.6438 4.01365 11.8377L6.97998 13.7051C7.28884 13.8983 7.63902 14 7.99545 14C8.35188 14 8.70206 13.8983 9.01092 13.7051L11.9827 11.8495C12.2915 11.6562 12.5481 11.378 12.7267 11.0429C12.9052 10.7079 12.9995 10.3277 13 9.94058V8L8.95086 10.2113C8.65595 10.3739 8.32983 10.4585 7.99909 10.4583Z" fill="#EEEEEE"/>
<path d="M15.5868 4.64696L9.03852 1.25584C8.71966 1.08794 8.3627 1 8 1C7.6373 1 7.28034 1.08794 6.96148 1.25584L0.416946 4.64696C0.288679 4.72048 0.182615 4.82552 0.109427 4.9515C0.0362401 5.07749 -0.00148654 5.21998 4.48296e-05 5.36464C0.0015762 5.50929 0.0423115 5.651 0.11815 5.7755C0.193989 5.9 0.302256 6.00289 0.432052 6.07383L2.81497 7.24027L7.01435 9.28705C7.32043 9.43771 7.65875 9.51622 8.00189 9.51622C8.34503 9.51622 8.68334 9.43771 8.98942 9.28705L13.1907 7.24027L14.0574 6.81845V10.514C13.8848 10.5783 13.7408 10.6992 13.6504 10.8559C13.5601 11.0125 13.529 11.1949 13.5627 11.3714C13.5963 11.548 13.6925 11.7075 13.8347 11.8223C13.9768 11.9371 14.1558 12 14.3406 12C14.5255 12 14.7045 11.9371 14.8466 11.8223C14.9887 11.7075 15.0849 11.548 15.1186 11.3714C15.1522 11.1949 15.1211 11.0125 15.0308 10.8559C14.9404 10.6992 14.7964 10.5783 14.6238 10.514V6.53784L15.5679 6.07383C15.6977 6.00289 15.806 5.9 15.8818 5.7755C15.9577 5.651 15.9984 5.50929 16 5.36464C16.0015 5.21998 15.9638 5.07749 15.8906 4.9515C15.8174 4.82552 15.7113 4.72048 15.5831 4.64696H15.5868Z" fill="#EEEEEE"/>
</svg>
