<svg width="16" height="16" viewBox="0 0 16 16" fill="none" xmlns="http://www.w3.org/2000/svg">
<path d="M12.7158 0H3.28421C1.46526 0 0 1.46526 0 3.28421V12.7158C0 14.5179 1.46526 16 3.28421 16H12.7158C14.5179 16 16 14.5347 16 12.7158V3.28421C16 1.46526 14.5347 0 12.7158 0ZM14.0379 12C14.0379 13.1284 13.1284 14.0379 12 14.0379H4C2.87158 14.0379 1.96211 13.1284 1.96211 12V4C1.96211 2.87158 2.87158 1.96211 4 1.96211H12C13.1284 1.96211 14.0379 2.87158 14.0379 4V12Z" fill="#EEEEEE"/>
<path d="M11.5851 9.08506C11.2246 8.87901 10.784 9.06216 10.6037 9.47426C10.123 10.619 9.1216 11.3287 8 11.3287C6.8784 11.3287 5.87698 10.619 5.39629 9.47426C5.21604 9.06216 4.77541 8.87901 4.4149 9.08506C4.05438 9.29111 3.89416 9.79479 4.07441 10.2069C4.79544 11.9011 6.33763 13 8 13C9.66237 13 11.2046 11.9011 11.9256 10.2069C12.1058 9.79479 11.9456 9.29111 11.5851 9.08506Z" fill="#EEEEEE"/>
<path d="M5.5 7C6.32843 7 7 6.32843 7 5.5C7 4.67157 6.32843 4 5.5 4C4.67157 4 4 4.67157 4 5.5C4 6.32843 4.67157 7 5.5 7Z" fill="#EEEEEE"/>
<path d="M10.5 7C11.3284 7 12 6.32843 12 5.5C12 4.67157 11.3284 4 10.5 4C9.67157 4 9 4.67157 9 5.5C9 6.32843 9.67157 7 10.5 7Z" fill="#EEEEEE"/>
</svg>
