<svg width="16" height="16" viewBox="0 0 16 16" fill="none" xmlns="http://www.w3.org/2000/svg">
<path d="M13.3525 4.25446C13.9972 4.25446 14.5833 4.53883 15 5V3.87656C15 2.90918 14.2609 2.1221 13.3525 2.1221H6.15366V1.75451C6.15366 0.787129 5.41458 0 4.50943 0H1.65073C0.739081 0 0 0.787129 0 1.75451V5C0.416747 4.53883 1.00281 4.25446 1.65073 4.25446H13.3525Z" fill="#EEEEEE"/>
<path fill-rule="evenodd" clip-rule="evenodd" d="M8.3632 14C7.9926 13.8536 7.73041 13.4922 7.73041 13.0696V10.7391C7.73041 10.1869 8.17812 9.73914 8.73041 9.73914H12.3217V9.00001C12.3217 8.58871 12.5735 8.21937 12.9564 8.06912C13.3393 7.91887 13.7751 8.01837 14.0548 8.3199L15 9.33873V6.82823C15 5.82018 14.2609 5 13.3525 5H1.65073C0.739081 5 0 5.82018 0 6.82823V12.1719C0 13.1799 0.739081 14 1.65073 14H8.3632Z" fill="#EEEEEE"/>
<path d="M13.3217 13.0696H8.73041V10.7391H13.3217V9L16 11.887L13.3217 14.8087V13.0696Z" fill="#EEEEEE"/>
</svg>
