<svg width="16" height="16" viewBox="0 0 16 16" fill="none" xmlns="http://www.w3.org/2000/svg">
<path d="M15.7683 7.39756C15.7683 7.39756 12.6006 4 8.00004 4C3.39947 4 0.231689 7.39756 0.231689 7.39756C-0.0772298 7.72893 -0.0772298 8.27104 0.231689 8.6024C0.231689 8.6024 3.39947 12 8.00004 12C12.6006 12 15.7683 8.6024 15.7683 8.6024C16.0772 8.27104 16.0772 7.72893 15.7683 7.39756ZM7.97251 11.2664C6.21349 11.2664 4.78748 9.80401 4.78748 7.99992C4.78748 6.19606 6.21349 4.73359 7.97251 4.73359C9.7315 4.73359 11.1575 6.19606 11.1575 7.99992C11.1575 9.80401 9.73147 11.2664 7.97251 11.2664Z" fill="#EEEEEE"/>
<path d="M10.0827 6.5724C9.97276 6.7759 9.76152 6.91377 9.51857 6.91377C9.16253 6.91377 8.87392 6.61778 8.87392 6.25264C8.87392 6.02421 8.98691 5.82286 9.15865 5.70409C8.80192 5.50774 8.3942 5.39612 7.96101 5.39612C6.56015 5.39612 5.4245 6.5608 5.4245 7.99738C5.4245 9.43414 6.56015 10.5988 7.96101 10.5988C9.36186 10.5988 10.4975 9.43414 10.4975 7.99738C10.4976 7.47116 10.3447 6.98177 10.0827 6.5724Z" fill="#EEEEEE"/>
</svg>
