<svg width="16" height="16" viewBox="0 0 16 16" fill="none" xmlns="http://www.w3.org/2000/svg">
<path d="M2.86529 4.99835C3.14143 4.52006 2.97756 3.90847 2.49927 3.63233C2.02097 3.35619 1.40938 3.52006 1.13324 3.99835C0.857097 4.47665 1.02097 5.08824 1.49927 5.36438C1.97756 5.64052 2.58915 5.47665 2.86529 4.99835Z" fill="#EEEEEE"/>
<path d="M4.99921 2.8677C5.4775 2.59156 5.64137 1.97997 5.36523 1.50168C5.08909 1.02338 4.4775 0.859508 3.9992 1.13565C3.52091 1.41179 3.35704 2.02338 3.63318 2.50168C3.90932 2.97997 4.52091 3.14384 4.99921 2.8677Z" fill="#EEEEEE"/>
<path d="M8 0H7V2H8C9.18669 2 10.3467 2.35189 11.3334 3.01118C12.3201 3.67047 13.0891 4.60754 13.5433 5.7039C13.9974 6.80025 14.1162 8.00665 13.8847 9.17054C13.6532 10.3344 13.0818 11.4035 12.2426 12.2426C11.4035 13.0818 10.3344 13.6532 9.17054 13.8847C8.00665 14.1162 6.80025 13.9974 5.7039 13.5433C4.60754 13.0891 3.67047 12.3201 3.01118 11.3334C2.35189 10.3467 2 9.18669 2 8V7H0V8C0 9.58225 0.469192 11.129 1.34824 12.4446C2.22729 13.7602 3.47672 14.7855 4.93853 15.391C6.40034 15.9965 8.00887 16.155 9.56072 15.8463C11.1126 15.5376 12.538 14.7757 13.6569 13.6569C14.7757 12.538 15.5376 11.1126 15.8463 9.56072C16.155 8.00887 15.9965 6.40034 15.391 4.93853C14.7855 3.47672 13.7602 2.22729 12.4446 1.34824C11.129 0.469192 9.58225 0 8 0Z" fill="#EEEEEE"/>
<path d="M6.54248 10.7075C6.63535 10.8005 6.74564 10.8742 6.86704 10.9246C6.98844 10.9749 7.11856 11.0008 7.24998 11.0008C7.3814 11.0008 7.51152 10.9749 7.63292 10.9246C7.75432 10.8742 7.86461 10.8005 7.95748 10.7075L11.9575 6.70751L10.5425 5.29251L7.24998 8.58501L5.45748 6.79251L4.04248 8.20751L6.54248 10.7075Z" fill="#EEEEEE"/>
</svg>
