<svg width="16" height="16" viewBox="0 0 16 16" fill="none" xmlns="http://www.w3.org/2000/svg">
<path d="M0.0464148 0.929408L2.80399 7.56868L6.11838 15.592C6.16956 15.7139 6.25547 15.8177 6.36522 15.8903C6.47497 15.9629 6.60361 16.001 6.73486 15.9998C6.82181 16.0021 6.90808 15.9838 6.98675 15.9463C7.06738 15.9127 7.14063 15.8633 7.20229 15.801C7.26395 15.7387 7.31281 15.6647 7.34606 15.5834C7.37932 15.502 7.39632 15.4148 7.39609 15.3268C7.39585 15.2388 7.37839 15.1516 7.34471 15.0705L4.42804 8.02333H15.3324C15.471 8.02183 15.6057 7.97651 15.7175 7.89375C15.8293 7.81099 15.9125 7.69496 15.9555 7.56199C16.0037 7.43617 16.013 7.2986 15.9822 7.16734C15.9515 7.03608 15.8821 6.91728 15.7831 6.82652L12.4157 3.7175L14.4044 1.04307C14.4721 0.941968 14.5112 0.824085 14.5172 0.702199C14.5233 0.580313 14.4962 0.459074 14.4388 0.351621C14.3815 0.244168 14.2961 0.1546 14.1918 0.0926261C14.0876 0.0306519 13.9685 -0.00136524 13.8475 4.46312e-05H0.669521C0.56034 0.000614364 0.452989 0.028377 0.357006 0.0808656C0.261023 0.133354 0.17938 0.208944 0.119332 0.300918C0.0566709 0.391458 0.0172165 0.496242 0.00449277 0.605912C-0.00823093 0.715581 0.00617207 0.826722 0.0464148 0.929408Z" fill="#EEEEEE"/>
</svg>
