<svg width="16" height="16" viewBox="0 0 16 16" fill="none" xmlns="http://www.w3.org/2000/svg">
<path d="M12.9223 4.85314C12.8727 4.76736 12.8018 4.69624 12.7167 4.64682C12.6317 4.59741 12.5354 4.57142 12.4374 4.57143H9.87413L11.277 0.772572C11.309 0.686061 11.3199 0.59295 11.3087 0.501224C11.2976 0.409499 11.2647 0.321896 11.2128 0.245931C11.161 0.169965 11.0918 0.107904 11.0112 0.0650702C10.9306 0.0222361 10.8409 -9.21573e-05 10.7499 2.85882e-07H6.81243C6.69211 -2.34972e-05 6.57495 0.0391472 6.47816 0.11176C6.38138 0.184372 6.31006 0.2866 6.27468 0.403429L4.02468 7.832C3.9988 7.91747 3.99302 8.00793 4.00783 8.09608C4.02263 8.18423 4.05759 8.26762 4.1099 8.33955C4.1622 8.41148 4.2304 8.46993 4.309 8.5102C4.38759 8.55047 4.4744 8.57145 4.56243 8.57143H7.28156L6.25668 15.3417C6.23633 15.4744 6.26261 15.6101 6.33091 15.725C6.39921 15.8399 6.50516 15.9268 6.63018 15.9703C6.68894 15.9902 6.7505 16.0002 6.81243 16C6.91277 15.9999 7.01126 15.9726 7.09771 15.9209C7.18415 15.8691 7.2554 15.7948 7.30406 15.7057L12.9291 5.42C12.9766 5.33308 13.001 5.23507 12.9998 5.13566C12.9986 5.03625 12.9719 4.93887 12.9223 4.85314Z" fill="#BDBDBD"/>
</svg>
