<svg width="16" height="16" viewBox="0 0 16 16" fill="none" xmlns="http://www.w3.org/2000/svg">
<path d="M13.3525 4.25446C13.9972 4.25446 14.5833 4.53883 15 5V3.87656C15 2.90918 14.2609 2.1221 13.3525 2.1221H6.15366V1.75451C6.15366 0.787129 5.41458 0 4.50943 0H1.65073C0.739081 0 0 0.787129 0 1.75451V5C0.416747 4.53883 1.00281 4.25446 1.65073 4.25446H13.3525Z" fill="#EEEEEE"/>
<path fill-rule="evenodd" clip-rule="evenodd" d="M5.04941 14C5.01672 13.7956 5 13.5895 5 13.3846C5 11.9087 5.86756 10.3668 7.3239 9.90657C7.85336 8.30437 9.20244 7 11 7C12.7984 7 14.1479 8.30571 14.678 9.90718C14.7888 9.94227 14.8962 9.98362 15 10.0307V6.82823C15 5.82018 14.2609 5 13.3525 5H1.65073C0.739081 5 0 5.82018 0 6.82823V12.1719C0 13.1799 0.739081 14 1.65073 14H5.04941Z" fill="#EEEEEE"/>
<path d="M13.8282 10.8168C13.9026 10.8056 13.9872 10.8 14.0769 10.8C15.1385 10.8 16 11.7408 16 12.9C16 14.0592 15.1385 15 14.0769 15H11.641H10.359H7.92308C6.86154 15 6 14.0592 6 12.9C6 11.7408 6.86154 10.8 7.92308 10.8C8.01282 10.8 8.09744 10.8056 8.17179 10.8196H8.17692H8.17949C8.18718 10.8196 8.19487 10.8168 8.20256 10.8168H8.20257C8.21026 10.8168 8.21539 10.8168 8.22308 10.814C8.23333 10.8112 8.24103 10.8056 8.24872 10.8C8.25641 10.7972 8.2641 10.7944 8.26923 10.7888C8.27692 10.7832 8.27949 10.7776 8.28462 10.772C8.28974 10.7636 8.29744 10.7552 8.30256 10.7468C8.30769 10.7384 8.30769 10.7328 8.31026 10.7244L8.31795 10.6992V10.6936V10.6908C8.43333 9.1816 9.61026 8 11 8C12.3897 8 13.5667 9.1816 13.6846 10.688V10.6908V10.6964C13.6846 10.7048 13.6872 10.7104 13.6897 10.716C13.6923 10.7244 13.6949 10.7356 13.7 10.744C13.7026 10.7524 13.7077 10.758 13.7128 10.7636L13.7128 10.7636C13.7205 10.7692 13.7231 10.7776 13.7308 10.7832C13.7385 10.7888 13.7436 10.7916 13.7513 10.7972C13.759 10.8028 13.7641 10.8056 13.7718 10.8084C13.7795 10.8112 13.7872 10.814 13.7949 10.814C13.8 10.814 13.8051 10.8168 13.8103 10.8168H13.8205H13.8231H13.8282Z" fill="#EEEEEE"/>
</svg>
