<svg width="16" height="16" viewBox="0 0 16 16" fill="none" xmlns="http://www.w3.org/2000/svg">
<path d="M13.3525 4.25446C13.9972 4.25446 14.5833 4.53883 15 5V3.87656C15 2.90918 14.2609 2.1221 13.3525 2.1221H6.15366V1.75451C6.15366 0.787129 5.41458 0 4.50943 0H1.65073C0.739081 0 0 0.787129 0 1.75451V5C0.416747 4.53883 1.00281 4.25446 1.65073 4.25446H13.3525Z" fill="#EEEEEE"/>
<path fill-rule="evenodd" clip-rule="evenodd" d="M7.41604 14C7.14845 13.3875 7 12.7111 7 12C7 9.23858 9.23858 7 12 7C13.1256 7 14.1643 7.37194 15 7.99963V6.82823C15 5.82018 14.2609 5 13.3525 5H1.65073C0.739081 5 0 5.82018 0 6.82823V12.1719C0 13.1799 0.739081 14 1.65073 14H7.41604Z" fill="#EEEEEE"/>
<path fill-rule="evenodd" clip-rule="evenodd" d="M8 12C8 9.79086 9.79086 8 12 8C14.2091 8 16 9.79086 16 12C16 14.2091 14.2091 16 12 16C9.79086 16 8 14.2091 8 12ZM10 11.5C9.72386 11.5 9.5 11.7239 9.5 12C9.5 12.2761 9.72386 12.5 10 12.5H14C14.2761 12.5 14.5 12.2761 14.5 12C14.5 11.7239 14.2761 11.5 14 11.5H10Z" fill="#EEEEEE"/>
</svg>
