<svg width="16" height="16" viewBox="0 0 16 16" fill="none" xmlns="http://www.w3.org/2000/svg">
<path fill-rule="evenodd" clip-rule="evenodd" d="M5 0H3C1.34315 0 0 1.34315 0 3V5H2V3C2 2.44772 2.44772 2 3 2H5V0ZM11 2V0H13C14.6569 0 16 1.34315 16 3V5H14V3C14 2.44772 13.5523 2 13 2H11ZM11 14H13C13.5523 14 14 13.5523 14 13V11H16V13C16 14.6569 14.6569 16 13 16H11V14ZM2 11V13C2 13.5523 2.44772 14 3 14H5V16H3C1.34315 16 0 14.6569 0 13V11H2Z" fill="#EEEEEE"/>
<path d="M4.32251 11.9999H11.6765C11.7354 12.0018 11.7936 11.9846 11.8444 11.9503C11.8952 11.916 11.9367 11.866 11.964 11.8059C11.9914 11.7458 12.0035 11.678 11.9991 11.6103C11.9947 11.5427 11.9738 11.4778 11.9389 11.4231L10.9245 9.83654C10.898 9.79432 10.864 9.75918 10.8246 9.7335C10.7853 9.70782 10.7416 9.69221 10.6966 9.68773C10.6515 9.68326 10.6062 9.69002 10.5636 9.70756C10.521 9.7251 10.4823 9.753 10.4499 9.78937L9.40757 10.9321L6.98788 7.14793C6.95776 7.10066 6.91812 7.06251 6.87238 7.03677C6.82663 7.01103 6.77615 6.99846 6.72526 7.00015C6.67437 7.00184 6.62459 7.01773 6.58021 7.04646C6.53583 7.07518 6.49816 7.11589 6.47044 7.16509L4.05076 11.4403C4.01955 11.4956 4.00206 11.5597 4.00017 11.6257C3.99828 11.6916 4.01206 11.7569 4.04003 11.8145C4.068 11.8721 4.10909 11.9198 4.15888 11.9525C4.20866 11.9851 4.26524 12.0015 4.32251 11.9999Z" fill="#EEEEEE"/>
<path d="M10.4902 6.98037C11.3132 6.98037 11.9804 6.31319 11.9804 5.49018C11.9804 4.66718 11.3132 4 10.4902 4C9.66718 4 9 4.66718 9 5.49018C9 6.31319 9.66718 6.98037 10.4902 6.98037Z" fill="#EEEEEE"/>
</svg>
