<svg width="16" height="16" viewBox="0 0 16 16" fill="none" xmlns="http://www.w3.org/2000/svg">
<path d="M14 1C13.589 1 13.206 1.125 12.888 1.338C12.614 0.56 11.871 0 11 0C10.403 0 9.867 0.263 9.5 0.679C9.133 0.263 8.597 0 8 0C7.129 0 6.386 0.56 6.112 1.338C5.794 1.125 5.412 1 5 1C3.897 1 3 1.897 3 3V5.269C2.706 5.098 2.364 5 2 5C0.897 5 0 5.897 0 7V10.5C0 12.36 1.277 13.929 3 14.373V16H14V14.829C15.164 14.416 16 13.304 16 12V3C16 1.897 15.103 1 14 1ZM15 12C15 13.104 14.104 14 13 14V15H4V13.5C2.343 13.5 1 12.157 1 10.5V7C1 6.448 1.448 6 2 6C2.552 6 3 6.448 3 7V9.5C3 9.776 3.224 10 3.5 10C3.776 10 4 9.776 4 9.5V3C4 2.448 4.448 2 5 2C5.552 2 6 2.448 6 3V6.5C6 6.776 6.224 7 6.5 7C6.776 7 7 6.776 7 6.5V2C7 1.448 7.448 1 8 1C8.553 1 9 1.448 9 2V6.5C9 6.776 9.224 7 9.5 7C9.776 7 10 6.776 10 6.5V2C10 1.448 10.447 1 11 1C11.553 1 12 1.448 12 2V6.5C12 6.776 12.224 7 12.5 7C12.776 7 13 6.776 13 6.5V3C13 2.448 13.447 2 14 2C14.553 2 15 2.448 15 3V12Z" fill="white"/>
</svg>
