<svg width="16" height="16" viewBox="0 0 16 16" fill="none" xmlns="http://www.w3.org/2000/svg">
<path d="M16 9L13.6675 2.14286C13.5556 1.80871 13.3476 1.51929 13.0723 1.31457C12.797 1.10986 12.468 0.999938 12.1306 1H3.86939C3.53271 0.999667 3.20422 1.10903 2.92924 1.31302C2.65426 1.517 2.44634 1.80555 2.33415 2.13886L0 9H16Z" fill="#EEEEEE"/>
<path fill-rule="evenodd" clip-rule="evenodd" d="M0 13.5V10H16V13.5C16 13.8978 15.8314 14.2794 15.5314 14.5607C15.2313 14.842 14.8243 15 14.4 15H1.6C1.17565 15 0.768687 14.842 0.468629 14.5607C0.168571 14.2794 0 13.8978 0 13.5ZM4 12C4 12.5523 3.55228 13 3 13C2.44772 13 2 12.5523 2 12C2 11.4477 2.44772 11 3 11C3.55228 11 4 11.4477 4 12ZM7 12C7 12.5523 6.55228 13 6 13C5.44772 13 5 12.5523 5 12C5 11.4477 5.44772 11 6 11C6.55228 11 7 11.4477 7 12Z" fill="#EEEEEE"/>
</svg>
