<svg width="16" height="16" viewBox="0 0 16 16" fill="none" xmlns="http://www.w3.org/2000/svg">
<path fill-rule="evenodd" clip-rule="evenodd" d="M4 1C2.34315 1 1 2.34315 1 4V12C1 13.6569 2.34315 15 4 15H12C13.6569 15 15 13.6569 15 12V4C15 2.34315 13.6569 1 12 1H4ZM4.70312 11.1484L4.41406 12.6094C4.39323 12.724 4.36719 12.8568 4.33594 13.0078C4.3099 13.1536 4.29688 13.2865 4.29688 13.4062C4.29688 13.6406 4.3724 13.8307 4.52344 13.9766C4.67448 14.1224 4.88281 14.1953 5.14844 14.1953C5.48177 14.1953 5.69792 14.099 5.79688 13.9062C5.90104 13.7083 6 13.388 6.09375 12.9453L6.46094 11.1484H8.1875L7.89844 12.6094C7.82552 12.9271 7.78906 13.1927 7.78906 13.4062C7.78906 13.6406 7.86458 13.8307 8.01562 13.9766C8.16667 14.1224 8.3724 14.1953 8.63281 14.1953C8.86719 14.1953 9.04688 14.1354 9.17188 14.0156C9.29688 13.901 9.38021 13.7656 9.42188 13.6094C9.46875 13.4531 9.52083 13.2318 9.57812 12.9453L9.94531 11.1484H11.1484C11.5026 11.1484 11.7656 11.0703 11.9375 10.9141C12.1146 10.7526 12.2031 10.5443 12.2031 10.2891C12.2031 10.0339 12.1146 9.82292 11.9375 9.65625C11.7604 9.48958 11.4974 9.40625 11.1484 9.40625H10.2812L10.75 7.13281H11.1484C11.4974 7.13281 11.7604 7.05469 11.9375 6.89844C12.1146 6.74219 12.2031 6.53385 12.2031 6.27344C12.2031 5.71094 11.8307 5.42188 11.0859 5.40625L11.375 3.9375C11.3802 3.91146 11.3932 3.85156 11.4141 3.75781C11.4349 3.65885 11.4505 3.55729 11.4609 3.45312C11.4766 3.34896 11.4844 3.24219 11.4844 3.13281C11.4844 2.89323 11.4089 2.70312 11.2578 2.5625C11.112 2.42188 10.9036 2.35156 10.6328 2.35156C10.3984 2.35156 10.2188 2.40885 10.0938 2.52344C9.97396 2.63802 9.89062 2.77865 9.84375 2.94531C9.79688 3.11198 9.7474 3.33073 9.69531 3.60156L9.32031 5.39062H7.60938L7.89844 3.9375C7.98698 3.46354 8.03125 3.20052 8.03125 3.14844C8.03125 2.91927 7.95833 2.73177 7.8125 2.58594C7.66667 2.4401 7.45573 2.36719 7.17969 2.36719C6.98177 2.36719 6.82031 2.41146 6.69531 2.5C6.57552 2.58854 6.47917 2.71875 6.40625 2.89062C6.33854 3.0625 6.27604 3.29948 6.21875 3.60156L5.85156 5.39062H4.6875C4.33854 5.39062 4.07292 5.47135 3.89062 5.63281C3.71354 5.78906 3.625 5.9974 3.625 6.25781C3.625 6.5026 3.71615 6.71094 3.89844 6.88281C4.08594 7.04948 4.34896 7.13281 4.6875 7.13281H5.5L5.05469 9.40625H4.6875C4.33854 9.40625 4.07292 9.48958 3.89062 9.65625C3.71354 9.81771 3.625 10.0286 3.625 10.2891C3.625 10.8464 3.98438 11.1328 4.70312 11.1484ZM7.25781 7.13281H8.98438L8.53906 9.40625H6.79688L7.25781 7.13281Z" fill="#EEEEEE"/>
</svg>
