<svg width="17" height="17" viewBox="0 0 17 17" fill="none" xmlns="http://www.w3.org/2000/svg">
<path d="M15.8362 8.40881C15.7831 8.46237 15.7199 8.50488 15.6503 8.53389C15.5806 8.5629 15.5059 8.57783 15.4305 8.57783C15.3551 8.57783 15.2804 8.5629 15.2108 8.53389C15.1411 8.50488 15.0779 8.46237 15.0248 8.40881L8.00213 1.38042L0.979456 8.40881C0.871856 8.51641 0.72592 8.57686 0.573752 8.57686C0.421583 8.57686 0.275647 8.51641 0.168048 8.40881C0.0604487 8.30121 0 8.15527 0 8.00311C0 7.85094 0.0604487 7.705 0.168048 7.5974L7.59643 0.169023C7.64955 0.115465 7.71275 0.0729556 7.78238 0.0439457C7.85201 0.0149358 7.9267 0 8.00213 0C8.07757 0 8.15225 0.0149358 8.22188 0.0439457C8.29152 0.0729556 8.35471 0.115465 8.40784 0.169023L15.8362 7.5974C15.8898 7.65052 15.9323 7.71372 15.9613 7.78335C15.9903 7.85299 16.0052 7.92767 16.0052 8.00311C16.0052 8.07854 15.9903 8.15323 15.9613 8.22286C15.9323 8.29249 15.8898 8.35569 15.8362 8.40881ZM8.00213 2.99752L1.78515 9.2145L1.71658 9.27736V14.2887C1.71658 14.7433 1.89719 15.1793 2.21867 15.5008C2.54015 15.8223 2.97618 16.0029 3.43082 16.0029H5.71648V10.2888C5.71648 10.1372 5.77668 9.99187 5.88384 9.88471C5.991 9.77755 6.13634 9.71735 6.28789 9.71735H9.71637C9.86792 9.71735 10.0133 9.77755 10.1204 9.88471C10.2276 9.99187 10.2878 10.1372 10.2878 10.2888V16.0029H12.5734C13.0281 16.0029 13.4641 15.8223 13.7856 15.5008C14.1071 15.1793 14.2877 14.7433 14.2877 14.2887V9.27736L14.2191 9.2145L8.00213 2.99752Z" fill="#EEEEEE"/>
</svg>
