<svg width="16" height="16" viewBox="0 0 16 16" fill="none" xmlns="http://www.w3.org/2000/svg">
<path d="M14.3525 4.25446C14.9972 4.25446 15.5833 4.53883 16 5V3.87656C16 2.90918 15.2609 2.1221 14.3525 2.1221H7.15366V1.75451C7.15366 0.787129 6.41458 0 5.50943 0H2.65073C1.73908 0 1 0.787129 1 1.75451V5C1.41675 4.53883 2.00281 4.25446 2.65073 4.25446H14.3525Z" fill="#EEEEEE"/>
<path fill-rule="evenodd" clip-rule="evenodd" d="M16 12.1719C16 13.5 15.5 14 14.5 14H13.5H13H10.5H6.68918L8.00672 12.5627C8.35873 12.1787 8.35697 11.5888 8.00267 11.2069L5.32441 8.3199C5.04469 8.01837 4.60887 7.91887 4.226 8.06912C3.84313 8.21937 3.5913 8.58871 3.5913 9.00001V9.73914H1V6.82823C1 5.82018 1.73908 5 2.65073 5H14.3525C15.2609 5 16 5.82018 16 6.82823V10V11V12.1719ZM1 10.7391H4.5913V9.00001L7.26957 11.887L5.33262 14H4.5913V13.0696H1.21277C1.07731 12.8043 1 12.4979 1 12.1719V10.7391Z" fill="#EEEEEE"/>
<path d="M4.5913 13.0696H0V10.7391H4.5913V9L7.26957 11.887L4.5913 14.8087V13.0696Z" fill="#EEEEEE"/>
</svg>
