<svg width="16" height="16" viewBox="0 0 16 16" fill="none" xmlns="http://www.w3.org/2000/svg">
<path d="M8 0C3.58169 0 0 3.58169 0 8C0 12.4183 3.58169 16 8 16C12.4183 16 16 12.4183 16 8C16 3.58169 12.4183 0 8 0ZM8 2.94436C8.78542 2.94436 9.42222 3.58116 9.42222 4.36658C9.42222 5.152 8.78542 5.7888 8 5.7888C7.21458 5.7888 6.57778 5.152 6.57778 4.36658C6.57778 3.58116 7.21458 2.94436 8 2.94436ZM10.1333 12.7001C10.1333 12.8964 9.97404 12.9778 9.77778 12.9778H6.22222C6.02596 12.9778 5.86667 12.8964 5.86667 12.7001V12.5223C5.86667 12.3259 6.02596 12.0889 6.22222 12.0889H6.57778V7.64444H6.22222C6.02596 7.64444 5.86667 7.56302 5.86667 7.36676V7.18898C5.86667 6.99253 6.02596 6.75556 6.22222 6.75556H9.06667C9.26293 6.75556 9.42222 6.99253 9.42222 7.18898V7.36676V12.0889H9.77778C9.97404 12.0889 10.1333 12.3259 10.1333 12.5223V12.7001Z" fill="#308BDB"/>
</svg>
