<svg width="16" height="16" viewBox="0 0 16 16" fill="none" xmlns="http://www.w3.org/2000/svg">
<g clip-path="url(#clip0)">
<path fill-rule="evenodd" clip-rule="evenodd" d="M1.28018 8.58562C-0.426727 6.66535 -0.426727 3.69605 1.28018 1.758C3.27157 -0.500098 6.72095 -0.588999 8.8368 1.52685C10.3659 3.05596 10.7393 5.33183 9.9214 7.21654L15.9489 13.2441C15.9845 13.2796 16.0023 13.3152 16.0023 13.3685V15.8222C16.0023 15.9289 15.9311 16 15.8244 16H13.4597C13.353 16 13.2819 15.9289 13.2819 15.8222V14.1153C13.2819 14.0086 13.2107 13.9375 13.1041 13.9375H11.3972C11.2905 13.9375 11.2194 13.8664 11.2194 13.7597V12.0528C11.2194 11.9461 11.1482 11.875 11.0416 11.875H9.22796C9.17462 11.875 9.13906 11.8572 9.1035 11.8216L7.20101 9.91915C5.2274 10.7726 2.82706 10.3281 1.28018 8.58562ZM3.5 5C4.32843 5 5 4.32843 5 3.5C5 2.67157 4.32843 2 3.5 2C2.67157 2 2 2.67157 2 3.5C2 4.32843 2.67157 5 3.5 5Z" fill="#EEEEEE"/>
</g>
<defs>
<clipPath id="clip0">
<rect width="16" height="16" fill="white"/>
</clipPath>
</defs>
</svg>
