<svg width="16" height="17" viewBox="0 0 16 17" fill="none" xmlns="http://www.w3.org/2000/svg">
<path d="M13.3218 8.53441H8.73047V6.20397H13.3218V4.46484L16 7.3518L13.3218 10.2735V8.53441Z" fill="#EEEEEE"/>
<path d="M6.33067 16.4997L0.521973 13.7171V1.02148L6.33067 3.76931V16.4997Z" fill="#EEEEEE"/>
<path d="M11.4783 14.5003H0.521739C0.243478 14.5003 0 14.2568 0 13.9785V1.02199C0 0.743733 0.243478 0.500255 0.521739 0.500255L11.4783 0.478505C11.7565 0.478505 12 0.721983 12 1.00024V4.00024C12 4.27851 11.5 4.50024 11 4.50024C10.5 4.50024 10 4.27851 10 4.00024V1.50025H2V12.5003H10V10.5524C10 10.2742 10.5217 10.0003 11 10.0003C11.4783 10.0002 12 10.222 12 10.5003V13.9785C11.9652 14.2568 11.7565 14.5003 11.4783 14.5003Z" fill="#EEEEEE"/>
</svg>
