<svg width="16" height="16" viewBox="0 0 16 16" fill="none" xmlns="http://www.w3.org/2000/svg">
<path d="M15.9402 7.87055L13.5475 3.03776C13.4633 2.86516 13.3116 2.7616 13.1263 2.74434L9.89104 2.7616C9.73939 2.29558 9.41923 1.8986 8.98113 1.65696V1.01834C8.98113 0.466019 8.54303 0 7.98697 0C7.43092 0 6.99281 0.44876 6.99281 1.01834V1.65696C6.57156 1.8986 6.25141 2.29558 6.09975 2.7616L2.86453 2.74434C2.69602 2.7616 2.52752 2.86516 2.44327 3.03776L0.0674006 7.87055C2.51087e-08 8.00863 -0.0168502 8.18123 0.0168501 8.33657C0.421254 9.83819 1.55021 10.8047 2.89823 10.8047C4.24624 10.8047 5.3752 9.83819 5.7796 8.33657C5.8133 8.18123 5.79645 8.02589 5.72905 7.87055L3.87553 4.10787L6.09975 4.12513C6.26826 4.59115 6.57156 4.97087 6.99281 5.21251V11.685C6.99281 12.8932 6.09975 13.9115 4.92024 14.0324L3.11728 14.2395C2.91508 14.2567 2.76342 14.4466 2.76342 14.6537V15.5858C2.76342 15.8101 2.94878 16 3.16783 16H12.8735C13.0926 16 13.2779 15.8101 13.2779 15.5858V14.6537C13.2779 14.4466 13.1263 14.274 12.9241 14.2395L11.0537 14.0324C9.87419 13.8943 8.98113 12.8932 8.98113 11.685V5.21251C9.40238 4.97087 9.70569 4.59115 9.87419 4.12513L12.0984 4.10787L10.2449 7.87055C10.1775 8.00863 10.1606 8.18123 10.1943 8.33657C10.5987 9.83819 11.7277 10.8047 13.0757 10.8047C14.4237 10.8047 15.5527 9.83819 15.9571 8.33657C16.0245 8.18123 16.0076 8.02589 15.9402 7.87055ZM4.44844 7.21467H1.36486L2.91508 4.09061L4.44844 7.21467ZM11.5592 7.21467L13.1094 4.09061L14.6596 7.21467H11.5592Z" fill="#EEEEEE"/>
</svg>
