<svg width="16" height="16" viewBox="0 0 16 16" fill="none" xmlns="http://www.w3.org/2000/svg">
<path d="M3 1.14286V14.8571C3 15.1602 2.87989 15.4509 2.66608 15.6653C2.45228 15.8796 2.1623 16 1.85993 16L1.14007 16C0.837701 16 0.547721 15.8796 0.333917 15.6653C0.120114 15.4509 0 15.1602 0 14.8571V1.14286C0 0.839753 0.120114 0.549062 0.333917 0.334735C0.547721 0.120408 0.837701 0 1.14007 0L1.85993 0C2.1623 0 2.45228 0.120408 2.66608 0.334735C2.87989 0.549062 3 0.839753 3 1.14286ZM15.9609 14.1771L12.421 0.931429C12.3422 0.639032 12.1509 0.389936 11.889 0.238863C11.6272 0.0877893 11.3162 0.0470931 11.0244 0.125714L9.92427 0.422857C9.63259 0.501822 9.3841 0.693623 9.2334 0.956127C9.08269 1.21863 9.04209 1.53037 9.12052 1.82286L12.6604 15.0686C12.7256 15.3112 12.8687 15.5255 13.0675 15.6783C13.2664 15.8312 13.51 15.9141 13.7606 15.9143C13.8608 15.9147 13.9605 15.9012 14.057 15.8743L15.1572 15.5771C15.4489 15.4982 15.6973 15.3064 15.848 15.0439C15.9987 14.7814 16.0393 14.4696 15.9609 14.1771ZM6.84039 0L6.14007 0C5.8377 0 5.54772 0.120408 5.33392 0.334735C5.12011 0.549062 5 0.839753 5 1.14286V14.8571C5 15.1602 5.12011 15.4509 5.33392 15.6653C5.54772 15.8796 5.8377 16 6.14007 16H6.84039C7.14276 16 7.43274 15.8796 7.64654 15.6653C7.86034 15.4509 7.98046 15.1602 7.98046 14.8571V1.14286C7.98046 0.839753 7.86034 0.549062 7.64654 0.334735C7.43274 0.120408 7.14276 0 6.84039 0Z" fill="#EEEEEE"/>
</svg>
