<svg xmlns="http://www.w3.org/2000/svg" width="16" height="16" viewBox="0 0 16 16">
    <path fill="#EEE" d="M7.07 5c.709 0 1.402.207 1.999.597.225.146.434.317.622.51.214.22.326.523.307.833-.018.259-.127.502-.307.686-.418.401-1.07.401-1.488 0-.62-.632-1.624-.632-2.244 0l-3.38 3.447c-.621.633-.621 1.66 0 2.293.62.633 1.626.633 2.247 0l1.998-2.042c.076-.078.19-.101.289-.06.538.224 1.113.338 1.694.335h.106c.107 0 .204.066.246.167.04.101.018.218-.058.295l-2.78 2.837c-.693.709-1.636 1.105-2.618 1.102-1.497-.001-2.847-.922-3.42-2.334-.574-1.412-.258-3.038.8-4.12L4.45 6.108C5.144 5.397 6.087 4.998 7.07 5zm7.845-3.892c1.447 1.477 1.447 3.871 0 5.348l-3.368 3.44c-.473.483-1.067.827-1.717.993h-.029l-.153.033-.085.016-.182.027h-.09c-.07 0-.13.013-.188.016L8.944 11h-.201c-.132-.005-.264-.018-.394-.038-.109-.019-.215-.04-.32-.067l-.156-.044c-.056-.016-.114-.035-.17-.056-.055-.022-.113-.04-.17-.065-.055-.024-.11-.046-.166-.073-.393-.186-.752-.442-1.058-.756-.214-.22-.326-.523-.307-.832.017-.261.126-.507.307-.692.418-.401 1.07-.401 1.487 0 .62.632 1.624.632 2.243 0l.868-.88.021-.025 2.482-2.531c.62-.633.62-1.66 0-2.294-.62-.633-1.626-.633-2.246 0L9.172 4.68c-.076.077-.19.1-.289.06-.536-.225-1.11-.34-1.69-.338h-.098c-.108.002-.207-.063-.249-.165-.043-.101-.02-.22.056-.297l2.775-2.831c1.446-1.477 3.792-1.477 5.238 0z"/>
</svg>
