<svg width="16" height="16" viewBox="0 0 16 16" fill="none" xmlns="http://www.w3.org/2000/svg">
<path d="M13.1429 7.63517H12.6875C12.6875 6.88443 12.6875 6.4329 12.6875 4.76516C12.6875 2.13338 10.5889 0 8 0C5.41109 0 3.31246 2.13338 3.31246 4.76516C3.31246 6.42001 3.31246 6.89279 3.31246 7.63517H2.85714C2.38571 7.63517 2 8.02727 2 8.50651V15.1287C2 15.6079 2.38571 16 2.85714 16H13.1429C13.6143 16 14 15.6079 14 15.1287V8.50651C14 8.02727 13.6143 7.63517 13.1429 7.63517ZM5.65623 4.76534C5.65623 3.44927 6.70554 2.38276 8 2.38276C9.29394 2.38276 10.3438 3.44927 10.3438 4.76534C10.3438 5.55895 10.3438 6.61257 10.3438 7.63517H5.65623C5.65623 6.13804 5.65623 5.75605 5.65623 4.76534Z" fill="#EEEEEE"/>
</svg>
