<svg width="16" height="16" viewBox="0 0 16 16" fill="none" xmlns="http://www.w3.org/2000/svg">
<path d="M4.42181 3.00534C2.53663 4.66177 2.28858 7.61418 3.87046 9.58835C4.72017 10.6498 5.96747 11.2575 7.29166 11.2575C8.33652 11.2575 9.35482 10.8692 10.1566 10.1657C11.0691 9.36146 11.63 8.23699 11.7335 6.99149C11.8372 5.74846 11.4735 4.5383 10.7056 3.58272C9.85561 2.52128 8.6109 1.91361 7.28671 1.91361C6.24185 1.91361 5.22332 2.30189 4.42181 3.00534ZM2.47151 10.8187C1.39302 9.46992 0.877641 7.76301 1.02459 6.01068C1.17154 4.26093 1.96106 2.67257 3.24669 1.54046C4.37831 0.547096 5.81323 0 7.28671 0C9.15026 0 10.9078 0.857208 12.1043 2.35237C14.0786 4.81812 14.0522 8.43618 12.0683 10.8617L14.7576 14.2149C14.9358 14.4368 15.02 14.7192 14.996 15.0091C14.9718 15.2966 14.8418 15.5588 14.6299 15.7453C14.4421 15.9093 14.2062 16 13.9631 16C13.6549 16 13.3659 15.8588 13.1661 15.6117L10.4791 12.2585C9.51375 12.8535 8.41598 13.1686 7.28907 13.1686C5.42576 13.1686 3.67061 12.3114 2.47151 10.8187Z" fill="white"/>
<path d="M7.67791 10H6.72211C6.46065 10.0006 6.24421 9.78413 6.24478 9.52267L6.24421 7.4558H4.17791C3.91645 7.45638 3.70001 7.23994 3.70001 6.9779V6.0221C3.70001 5.76121 3.91645 5.54477 4.17734 5.54477H6.24478L6.24421 3.4779C6.24421 3.21702 6.46007 3 6.72211 3H7.67791C7.93938 3.00058 8.15582 3.21702 8.15582 3.4779L8.15524 5.54477H10.2227C10.4836 5.54477 10.7006 5.76064 10.7 6.0221V6.9779C10.7 7.23994 10.4836 7.45638 10.2221 7.4558H8.15582L8.15524 9.52267C8.15582 9.78413 7.93938 10.0006 7.67791 10Z" fill="#EEEEEE"/>
</svg>
