<svg width="16" height="16" viewBox="0 0 16 16" fill="none" xmlns="http://www.w3.org/2000/svg">
<path d="M0.211096 3.49625C0.400777 3.0389 0.725877 2.65059 1.1427 2.3835C1.55953 2.11642 2.0481 1.98336 2.54276 2.00221C4.35308 2.00221 6.16339 2.00221 7.98011 2.00221C9.79682 2.00221 11.6135 2.00221 13.4175 2.00221C13.9055 1.98151 14.3886 2.10682 14.805 2.36212C15.2215 2.61742 15.5524 2.99112 15.7555 3.43547C15.7962 3.4919 15.8227 3.55727 15.8329 3.62609C15.8431 3.6949 15.8366 3.76516 15.8141 3.83096C15.7915 3.89677 15.7535 3.95621 15.7033 4.00429C15.653 4.05237 15.592 4.0877 15.5252 4.10731L8.31594 7.87281C8.22491 7.92501 8.12181 7.95248 8.01689 7.95248C7.91196 7.95248 7.80886 7.92501 7.71783 7.87281L0.412599 4.07531C0.355604 4.0577 0.303546 4.02692 0.260628 3.98548C0.217709 3.94404 0.18513 3.89308 0.165521 3.83673C0.145911 3.78037 0.139819 3.7202 0.147736 3.66106C0.155652 3.60191 0.177356 3.54546 0.211096 3.49625ZM0.687664 5.89888C2.95856 7.08687 5.22731 8.27059 7.49394 9.45004C7.64645 9.54041 7.82044 9.5881 7.9977 9.5881C8.17495 9.5881 8.34895 9.54041 8.50145 9.45004C10.7574 8.26632 13.0166 7.09327 15.2789 5.93087C15.3451 5.89412 15.4162 5.86718 15.49 5.85089C15.5503 5.83027 15.6147 5.82508 15.6775 5.83581C15.7402 5.84654 15.7993 5.87284 15.8492 5.91231C15.8992 5.95178 15.9385 6.00315 15.9634 6.06173C15.9884 6.12031 15.9983 6.18421 15.9922 6.2476C15.9922 7.75551 15.9922 9.26235 15.9922 10.7681C16.0105 11.1589 15.9966 11.5505 15.9506 11.9391C15.8598 12.5193 15.5625 13.0472 15.1136 13.4258C14.6646 13.8043 14.0941 14.008 13.507 13.9994C12.0229 13.9994 10.5389 13.9994 9.05798 13.9994H2.53636C1.98165 14.0119 1.43887 13.8373 0.99555 13.5036C0.552227 13.1698 0.2342 12.6965 0.0927554 12.1598C0.0343695 11.9514 0.00319164 11.7363 0 11.52C0 9.77956 0 8.03918 0 6.29559C0 5.85729 0.281462 5.69093 0.687664 5.89888Z" fill="#EEEEEE"/>
</svg>
