<svg width="16" height="16" viewBox="0 0 16 16" fill="none" xmlns="http://www.w3.org/2000/svg">
<path fill-rule="evenodd" clip-rule="evenodd" d="M16 1C16 0.447715 15.3488 0 14.5455 0H1.45455C0.651222 0 0 0.447715 0 1V3C0 3.55228 0.651222 4 1.45455 4H14.5455C15.3488 4 16 3.55228 16 3V1ZM14.5455 6C15.3488 6 16 6.44772 16 7V9C16 9.55229 15.3488 10 14.5455 10H1.45455C0.651222 10 0 9.55229 0 9V7C0 6.44772 0.651222 6 1.45455 6H14.5455ZM14.5455 12C15.3488 12 16 12.4477 16 13V15C16 15.5523 15.3488 16 14.5455 16H1.45455C0.651222 16 0 15.5523 0 15V13C0 12.4477 0.651222 12 1.45455 12H14.5455Z" fill="#EEEEEE"/>
</svg>
