<?xml version="1.0" encoding="UTF-8"?>
<svg width="16px" height="16px" viewBox="0 0 16 16" version="1.1" xmlns="http://www.w3.org/2000/svg" xmlns:xlink="http://www.w3.org/1999/xlink">
    <!-- Generator: Sketch 61.2 (89653) - https://sketch.com -->
    <title>Icons/16x16/ListView</title>
    <desc>Created with Sketch.</desc>
    <g id="Icons/16x16/ListView" stroke="none" stroke-width="1" fill="none" fill-rule="evenodd">
        <path d="M15,12 C15.5522847,12 16,12.4477153 16,13 L16,15 C16,15.5522847 15.5522847,16 15,16 L6,16 C5.44771525,16 5,15.5522847 5,15 L5,13 C5,12.4477153 5.44771525,12 6,12 L15,12 Z M3,12 C3.55228475,12 4,12.4477153 4,13 L4,15 C4,15.5522847 3.55228475,16 3,16 L1,16 C0.44771525,16 0,15.5522847 0,15 L0,13 C0,12.4477153 0.44771525,12 1,12 L3,12 Z M15,6 C15.5522847,6 16,6.44771525 16,7 L16,9 C16,9.55228475 15.5522847,10 15,10 L6,10 C5.44771525,10 5,9.55228475 5,9 L5,7 C5,6.44771525 5.44771525,6 6,6 L15,6 Z M3,6 C3.55228475,6 4,6.44771525 4,7 L4,9 C4,9.55228475 3.55228475,10 3,10 L1,10 C0.44771525,10 0,9.55228475 0,9 L0,7 C0,6.44771525 0.44771525,6 1,6 L3,6 Z M15,0 C15.5522847,0 16,0.44771525 16,1 L16,3 C16,3.55228475 15.5522847,4 15,4 L6,4 C5.44771525,4 5,3.55228475 5,3 L5,1 C5,0.44771525 5.44771525,0 6,0 L15,0 Z M3,0 C3.55228475,0 4,0.44771525 4,1 L4,3 C4,3.55228475 3.55228475,4 3,4 L1,4 C0.44771525,4 0,3.55228475 0,3 L0,1 C0,0.44771525 0.44771525,0 1,0 L3,0 Z" id="Shape" fill="#BDBDBD" fill-rule="nonzero"></path>
    </g>
</svg>