<svg width="16" height="13" viewBox="0 0 16 13" fill="none" xmlns="http://www.w3.org/2000/svg">
<path fill-rule="evenodd" clip-rule="evenodd" d="M9 0L3 6C2.33734 6.66444 2.33734 7.74841 3 8.41285L5.55454 10.9722L4.41545 11.8876C4.2673 11.9639 4.11114 12 3.95499 12C3.59263 12 3.24228 11.8013 3.0641 11.458L0.113171 5.75711C-0.0109521 5.52024 -0.0329739 5.24724 0.0471056 4.99231C0.127185 4.73737 0.301358 4.5286 0.539595 4.40415L9 0ZM15.713 2.78998L13.2984 0.370588C13.13 0.202017 12.9062 0.102406 12.667 0.0909126L10.7442 0.000879927C10.4782 -0.0106136 10.2123 0.0909126 10.0229 0.280556L3.81563 6.3107C3.44254 6.68424 3.44254 7.29148 3.81563 7.66502L8.1454 12C8.33098 12.1858 8.57588 12.2797 8.8227 12.2797C9.0676 12.2797 9.3125 12.1858 9.5 12L15.7206 5.95453C15.9005 5.77638 16.0019 5.52735 16 5.27449L15.9942 3.46426C15.9923 3.20949 15.8928 2.97004 15.713 2.78998ZM12.708 4.708C12.52 4.896 12.268 5 12 5C11.732 5 11.482 4.896 11.292 4.708C11.102 4.52 11 4.268 11 4C11 3.732 11.104 3.482 11.292 3.292C11.48 3.102 11.732 3 12 3C12.268 3 12.518 3.104 12.708 3.292C12.898 3.48 13 3.732 13 4C13 4.268 12.898 4.52 12.708 4.708Z" fill="#EEEEEE"/>
</svg>
