<svg width="16" height="16" viewBox="0 0 16 16" fill="none" xmlns="http://www.w3.org/2000/svg">
<path d="M12.8 0L12.9597 0.00391846C14.6528 0.0871393 16 1.48624 16 3.2V9.6L15.9961 9.75971C15.9129 11.4528 14.5138 12.8 12.8 12.8L12.7961 12.9597C12.7129 14.6528 11.3138 16 9.6 16H3.2L3.04028 15.9961C1.34717 15.9129 0 14.5138 0 12.8V6.4L0.00391846 6.24029C0.0871393 4.54718 1.48624 3.2 3.2 3.2L3.20392 3.04029C3.28714 1.34718 4.68624 0 6.4 0H12.8ZM3.2 4.8L3.08059 4.80439C2.2527 4.86547 1.6 5.55651 1.6 6.4V12.8L1.60439 12.9194C1.66547 13.7473 2.35651 14.4 3.2 14.4H9.6L9.71941 14.3956C10.5473 14.3345 11.2 13.6435 11.2 12.8H6.4L6.24028 12.7961C4.54717 12.7129 3.2 11.3138 3.2 9.6V4.8ZM12.8 1.6H6.4L6.28059 1.60439C5.4527 1.66547 4.8 2.35651 4.8 3.2V9.6L4.80439 9.71941C4.86547 10.5473 5.55651 11.2 6.4 11.2H12.8C13.6837 11.2 14.4 10.4837 14.4 9.6V3.2L14.3956 3.08059C14.3345 2.2527 13.6435 1.6 12.8 1.6ZM12 3.2C12.2921 3.2 12.5245 3.34476 12.6623 3.55031C12.669 3.56103 12.676 3.57178 12.6827 3.5827C12.707 3.6226 12.7277 3.66452 12.7448 3.70787C12.7504 3.72178 12.7555 3.73572 12.7601 3.74982C12.7916 3.84514 12.806 3.94672 12.8005 4.04852L12.8 7.2C12.8 7.64183 12.4418 8 12 8C11.5897 8 11.2516 7.69117 11.2054 7.2933L11.2 7.2V5.9312L8.56569 8.56569C8.25327 8.87811 7.74673 8.87811 7.43431 8.56569C7.14593 8.2773 7.12374 7.82351 7.36776 7.50968L7.43431 7.43431L10.0672 4.8H8.8C8.38973 4.8 8.0516 4.49117 8.00538 4.0933L8 4C8 3.58973 8.30883 3.2516 8.7067 3.20538L8.8 3.2H12Z" fill="white"/>
</svg>
