<svg width="16" height="16" viewBox="0 0 16 16" fill="none" xmlns="http://www.w3.org/2000/svg">
<path d="M3.36842 13.0526V15.5789C3.36842 15.8105 3.17895 16 2.94737 16H0.421053C0.189474 16 0 15.8105 0 15.5789V13.0526C0 12.8211 0.189474 12.6316 0.421053 12.6316H2.94737C3.17895 12.6316 3.36842 12.8211 3.36842 13.0526ZM2.94737 8.42105H0.421053C0.189474 8.42105 0 8.61053 0 8.84211V11.3684C0 11.6 0.189474 11.7895 0.421053 11.7895H2.94737C3.17895 11.7895 3.36842 11.6 3.36842 11.3684V8.84211C3.36842 8.61053 3.17895 8.42105 2.94737 8.42105ZM2.94737 4.21053H0.421053C0.189474 4.21053 0 4.4 0 4.63158V7.15789C0 7.38947 0.189474 7.57895 0.421053 7.57895H2.94737C3.17895 7.57895 3.36842 7.38947 3.36842 7.15789V4.63158C3.36842 4.4 3.17895 4.21053 2.94737 4.21053ZM7.15789 12.6316H4.63158C4.4 12.6316 4.21053 12.8211 4.21053 13.0526V15.5789C4.21053 15.8105 4.4 16 4.63158 16H7.15789C7.38947 16 7.57895 15.8105 7.57895 15.5789V13.0526C7.57895 12.8211 7.38947 12.6316 7.15789 12.6316ZM7.15789 8.42105H4.63158C4.4 8.42105 4.21053 8.61053 4.21053 8.84211V11.3684C4.21053 11.6 4.4 11.7895 4.63158 11.7895H7.15789C7.38947 11.7895 7.57895 11.6 7.57895 11.3684V8.84211C7.57895 8.61053 7.38947 8.42105 7.15789 8.42105ZM11.3684 12.6316H8.84211C8.61053 12.6316 8.42105 12.8211 8.42105 13.0526V15.5789C8.42105 15.8105 8.61053 16 8.84211 16H11.3684C11.6 16 11.7895 15.8105 11.7895 15.5789V13.0526C11.7895 12.8211 11.6 12.6316 11.3684 12.6316ZM15.5789 12.6316H13.0526C12.8211 12.6316 12.6316 12.8211 12.6316 13.0526V15.5789C12.6316 15.8105 12.8211 16 13.0526 16H15.5789C15.8105 16 16 15.8105 16 15.5789V13.0526C16 12.8211 15.8105 12.6316 15.5789 12.6316ZM11.3684 8.42105H8.84211C8.61053 8.42105 8.42105 8.61053 8.42105 8.84211V11.3684C8.42105 11.6 8.61053 11.7895 8.84211 11.7895H11.3684C11.6 11.7895 11.7895 11.6 11.7895 11.3684V8.84211C11.7895 8.61053 11.6 8.42105 11.3684 8.42105ZM7.15789 4.21053H4.63158C4.4 4.21053 4.21053 4.4 4.21053 4.63158V7.15789C4.21053 7.38947 4.4 7.57895 4.63158 7.57895H7.15789C7.38947 7.57895 7.57895 7.38947 7.57895 7.15789V4.63158C7.57895 4.4 7.38947 4.21053 7.15789 4.21053ZM2.94737 0H0.421053C0.189474 0 0 0.189474 0 0.421053V2.94737C0 3.17895 0.189474 3.36842 0.421053 3.36842H2.94737C3.17895 3.36842 3.36842 3.17895 3.36842 2.94737V0.421053C3.36842 0.189474 3.17895 0 2.94737 0Z" fill="white"/>
</svg>
