<svg width="16" height="16" viewBox="0 0 16 16" fill="none" xmlns="http://www.w3.org/2000/svg">
<g id="Icons/16x16/plug">
<path id="Combined Shape" fill-rule="evenodd" clip-rule="evenodd" d="M14.0212 4.60429C14.4705 4.14905 15.2108 4.1504 15.6589 4.60429C16.1151 5.06056 16.1123 5.79141 15.6589 6.2449L12.8657 9.03807L13.7062 9.87823C14.1949 10.3669 14.1876 11.1548 13.7062 11.6362C13.2179 12.1245 12.4301 12.118 11.9482 11.6362L4.36381 4.0546C3.8751 3.56589 3.88237 2.77806 4.36381 2.29663C4.85532 1.81107 5.63699 1.81187 6.12177 2.29663L6.9595 3.13404L9.75509 0.3411C10.1982 -0.107898 10.9351 -0.119465 11.3957 0.3411C11.8495 0.794966 11.8429 1.53162 11.3957 1.97882L8.60125 4.77325L11.217 7.38989C11.2615 7.43445 11.1137 7.28657 11.2248 7.39778L14.0212 4.60429ZM1.63469 6.47356L3.10691 5.0009C3.18455 5.10157 10.8936 12.8071 11 12.8934L9.52777 14.3661C7.33094 16.5549 3.80852 16.5377 1.63469 14.3632C-0.54202 12.1859 -0.547771 8.66241 1.63469 6.47356Z" fill="#EEEEEE"/>
</g>
</svg>
