<svg width="16" height="16" viewBox="0 0 16 16" fill="none" xmlns="http://www.w3.org/2000/svg">
<path fill-rule="evenodd" clip-rule="evenodd" d="M15.6429 3.59534L8.32354 0.0719485C8.12216 -0.0239828 7.87779 -0.0239828 7.6764 0.0719485L0.334729 3.59534C0.127467 3.69858 -0.000150749 3.88944 2.69395e-06 4.09593V11.0079C-0.00208033 11.2 0.10665 11.3804 0.290099 11.4893L7.60946 15.8983C7.83795 16.0339 8.13968 16.0339 8.36817 15.8983L15.7098 11.4893C15.8933 11.3804 16.002 11.2 15.9999 11.0079V4.09593C15.9956 3.88538 15.8588 3.69357 15.6429 3.59534ZM6.99997 8L1.99997 4.76923L6.99997 2V8ZM8.99997 14L15 10.4937V5L8.99997 8.2625V14Z" fill="#EEEEEE"/>
</svg>
