<svg xmlns="http://www.w3.org/2000/svg" width="16" height="16" viewBox="0 0 16 16">
    <path fill="#EEE" d="M3.423 7.45c.067-.002.132.02.186.066l.038.037 3.265 3.628c.059.07.09.165.088.264.001.076-.019.15-.057.21l-.031.042-3.256 3.64c-.064.069-.147.11-.234.113-.154-.002-.281-.134-.306-.307l-.005-.06v-2.02H0V9.832h3.111v-2.02c0-.097.033-.19.092-.258.058-.068.138-.105.22-.103zM9.173.023l.11.04 6.405 3.083c.161.074.273.207.303.36l.01.078v6.048c0 .14-.065.273-.18.369l-.075.052-6.424 3.858c-.171.102-.39.116-.574.044l-.09-.044-.419-.252c-.473-.285-.625-.9-.34-1.373.03-.05.065-.098.103-.142l.534-.611c.029-.045.049-.097.058-.152l.006-.084c.003-.083-.017-.164-.055-.233L8.5 11 4.124 6.524c-.041-.034-.088-.057-.137-.067l-.075-.006h-.047c-.106 0-.389.005-.848.013-.552.01-1.007-.43-1.017-.983V3.584c0-.15.077-.292.208-.387l.085-.051L8.717.063c.14-.067.306-.08.457-.04zM15 4l-5 2.9V12l5-3.117V4zM8 2L4 4.308 8 7V2z"/>
</svg>
