<svg xmlns="http://www.w3.org/2000/svg" width="16" height="16" viewBox="0 0 16 16">
    <path fill="#EEE" d="M5.324 9c.371 0 .676.305.676.676v4.648c0 .373-.303.676-.676.676H.676C.303 15 0 14.697 0 14.324V9.676C0 9.303.303 9 .676 9h4.648zM11 13c.552 0 1 .448 1 1s-.448 1-1 1H9c-.552 0-1-.448-1-1s.448-1 1-1h2zm3-4c.552 0 1 .448 1 1s-.448 1-1 1H9c-.552 0-1-.448-1-1s.448-1 1-1h5zM5.324 1c.371 0 .676.303.676.676v4.648C6 6.697 5.697 7 5.324 7H.676C.303 7 0 6.697 0 6.324V1.676C0 1.303.303 1 .676 1h4.648zM11 5c.552 0 1 .448 1 1s-.448 1-1 1H9c-.552 0-1-.448-1-1s.448-1 1-1h2zm3-4c.552 0 1 .448 1 1s-.448 1-1 1H9c-.552 0-1-.448-1-1s.448-1 1-1h5z"/>
</svg>
