<svg xmlns="http://www.w3.org/2000/svg" width="16" height="16" viewBox="0 0 16 16">
    <g fill="none" fill-rule="evenodd">
        <path fill="#EEE" fill-rule="nonzero" d="M11.881 3.256c.336-.341.906-.341 1.241 0C14.329 4.486 15 6.143 15 7.886c0 3.314-2.415 6.048-5.55 6.492v1.196c0 .358-.402.546-.67.341l-2.617-2.05c-.217-.17-.217-.495 0-.666l2.616-2.05c.269-.205.67-.017.67.342v1.059c2.147-.41 3.79-2.34 3.79-4.664 0-1.281-.47-2.46-1.358-3.366-.352-.341-.352-.922 0-1.264zM7.167.426c0-.358.447-.546.745-.341l2.906 2.067c.243.17.243.495 0 .666L7.912 4.851c-.298.205-.745.017-.745-.342V3.45c-2.385.41-4.21 2.34-4.21 4.664 0 1.264.54 2.46 1.508 3.366.392.341.392.922 0 1.264-.186.17-.447.256-.689.256-.242 0-.503-.085-.69-.256C1.747 11.514 1 9.857 1 8.114 1 4.8 3.683 2.049 7.167 1.622z"/>
    </g>
</svg>
