<svg width="16" height="16" viewBox="0 0 16 16" fill="none" xmlns="http://www.w3.org/2000/svg">
<path fill-rule="evenodd" clip-rule="evenodd" d="M1.07693 0.461609C0.913727 0.461625 0.757211 0.526465 0.641808 0.641869C0.526404 0.757272 0.461564 0.913788 0.461548 1.07699V4.7693C0.461564 4.93251 0.526404 5.08902 0.641808 5.20443C0.757211 5.31983 0.913727 5.38467 1.07693 5.38469H4.76924C4.93245 5.38467 5.08896 5.31983 5.20437 5.20443C5.31977 5.08902 5.38461 4.93251 5.38462 4.7693V1.07699C5.38461 0.913788 5.31977 0.757272 5.20437 0.641869C5.08896 0.526465 4.93245 0.461625 4.76924 0.461609H1.07693ZM1.07693 6.61536C0.913727 6.61537 0.757211 6.68021 0.641808 6.79562C0.526404 6.91102 0.461564 7.06754 0.461548 7.23074V10.923C0.461564 11.0863 0.526404 11.2428 0.641808 11.3582C0.757211 11.4736 0.913727 11.5384 1.07693 11.5384H4.76924C4.93245 11.5384 5.08896 11.4736 5.20436 11.3582C5.31977 11.2428 5.38461 11.0863 5.38462 10.923V7.23074C5.38461 7.06754 5.31977 6.91102 5.20436 6.79562C5.08896 6.68021 4.93245 6.61537 4.76924 6.61536H1.07693ZM6.79565 0.641869C6.91105 0.526465 7.06757 0.461625 7.23077 0.461609H10.9231C11.0863 0.461625 11.2428 0.526465 11.3582 0.641869C11.4736 0.757272 11.5384 0.913788 11.5385 1.07699V4.7693C11.5384 4.93251 11.4736 5.08902 11.3582 5.20443C11.2428 5.31983 11.0863 5.38467 10.9231 5.38469H7.23077C7.06757 5.38467 6.91105 5.31983 6.79565 5.20443C6.68024 5.08902 6.6154 4.93251 6.61539 4.7693V1.07699C6.6154 0.913788 6.68024 0.757272 6.79565 0.641869Z" fill="#EEEEEE"/>
<path fill-rule="evenodd" clip-rule="evenodd" d="M7 11.5C7 9.01867 9.01867 7 11.5 7C13.9813 7 16 9.01867 16 11.5C16 13.9813 13.9813 16 11.5 16C9.01867 16 7 13.9813 7 11.5ZM8.6875 12.0625H14.3125V10.9375H8.6875V12.0625Z" fill="#EEEEEE"/>
</svg>
