<svg width="16" height="16" viewBox="0 0 16 16" fill="none" xmlns="http://www.w3.org/2000/svg">
<path d="M14.8572 8.14286V11.5714C14.8566 12.1017 14.6457 12.6101 14.2707 12.985C13.8958 13.36 13.3874 13.5709 12.8572 13.5714H4.57142V15C4.57142 15.0513 4.5576 15.1017 4.53143 15.1458C4.50525 15.1899 4.46767 15.2262 4.42265 15.2508C4.37762 15.2754 4.32681 15.2874 4.27554 15.2855C4.22427 15.2837 4.17444 15.2681 4.13128 15.2404L0.131266 12.669C0.0910073 12.6431 0.0578904 12.6075 0.0349548 12.5655C0.0120193 12.5235 0 12.4764 0 12.4286C0 12.3807 0.0120193 12.3336 0.0349548 12.2916C0.0578904 12.2496 0.0910073 12.2141 0.131266 12.1882L4.13128 9.61678C4.17444 9.58905 4.22427 9.57345 4.27554 9.57163C4.32681 9.56981 4.37762 9.58182 4.42265 9.60641C4.46767 9.631 4.50525 9.66725 4.53143 9.71137C4.5576 9.7555 4.57142 9.80585 4.57142 9.85715V11.2857H12.2857C12.3615 11.2856 12.4341 11.2555 12.4876 11.2019C12.5412 11.1484 12.5713 11.0758 12.5714 11V8.14286C12.5714 8.06709 12.6015 7.99441 12.6551 7.94083C12.7087 7.88725 12.7814 7.85715 12.8572 7.85715H14.5714C14.6472 7.85715 14.7199 7.88725 14.7735 7.94083C14.8271 7.99441 14.8572 8.06709 14.8572 8.14286ZM15.8687 3.61677L11.8687 1.04533C11.8256 1.0176 11.7757 1.00201 11.7245 1.00018C11.6732 0.998356 11.6224 1.01037 11.5774 1.03496C11.5323 1.05955 11.4948 1.0958 11.4686 1.13993C11.4424 1.18405 11.4286 1.2344 11.4286 1.2857V2.71428H3.14285C2.61259 2.71487 2.10423 2.92577 1.72928 3.30072C1.35433 3.67566 1.14343 4.18403 1.14284 4.71428V8.14286C1.14284 8.21864 1.17294 8.29131 1.22652 8.34489C1.28011 8.39848 1.35278 8.42858 1.42856 8.42858H3.14285C3.21862 8.42858 3.29129 8.39848 3.34488 8.34489C3.39846 8.29131 3.42856 8.21864 3.42856 8.14286V5.28571C3.42866 5.20997 3.45879 5.13735 3.51235 5.08379C3.56591 5.03023 3.63853 5.0001 3.71428 5H11.4286V6.42857C11.4286 6.47987 11.4424 6.53023 11.4686 6.57435C11.4948 6.61847 11.5323 6.65473 11.5774 6.67932C11.6224 6.70391 11.6732 6.71592 11.7245 6.71409C11.7757 6.71227 11.8256 6.69667 11.8687 6.66894L15.8687 4.09751C15.909 4.07164 15.9421 4.03608 15.965 3.99408C15.988 3.95208 16 3.90499 16 3.85714C16 3.80928 15.988 3.7622 15.965 3.7202C15.9421 3.6782 15.909 3.64263 15.8687 3.61677Z" fill="white"/>
</svg>
