<svg width="16" height="16" viewBox="0 0 16 16" fill="none" xmlns="http://www.w3.org/2000/svg">
<path d="M14.2051 0H1.79487C0.803419 0 0 0.819187 0 1.8301V10.7889C0 11.7998 0.803419 12.619 1.79487 12.619H3.48718V15.6343C3.48718 15.9306 3.81197 16.1049 4.05128 15.9306L8.8547 12.619H14.2051C15.1966 12.619 16 11.7998 16 10.7889V1.8301C16 0.819187 15.1966 0 14.2051 0ZM11.5726 7.12867H10.8376H7.45299L8.8547 8.55789L7.7265 9.70824L5.4188 7.33783L4.41026 6.29206L4.70085 5.99575L5.53846 5.14171L6.73504 3.93907L7.74359 2.91073L8.87179 4.06108L7.86325 5.08942L7.47009 5.4903H10.8376H11.5726V7.12867Z" fill="white"/>
</svg>
