<svg width="16" height="16" viewBox="0 0 16 16" fill="none" xmlns="http://www.w3.org/2000/svg">
<path d="M5.05083 11L5.05083 3.56191L5.94476 4.38921C6.37422 4.80239 7.07052 4.80239 7.49998 4.38921C7.92945 3.97603 7.92945 3.30613 7.49998 2.89295L4.81254 0.309885C4.38308 -0.103295 3.68678 -0.103295 3.25732 0.309885L0.322089 3.13783C-0.107375 3.55101 -0.107375 4.22091 0.322089 4.63409C0.751552 5.04727 1.44785 5.04727 1.87731 4.63409L2.94916 3.56191L2.94916 11C2.94916 12.0076 5.05083 12.0076 5.05083 11Z" fill="#EEEEEE"/>
<path d="M13.0508 15L13.0508 7.56191L13.9448 8.38921C14.3742 8.80239 15.0705 8.80239 15.5 8.38921C15.9294 7.97603 15.9294 7.30613 15.5 6.89295L12.8125 4.30989C12.3831 3.8967 11.6868 3.8967 11.2573 4.30989L8.32209 7.13783C7.89263 7.55101 7.89263 8.22091 8.32209 8.63409C8.75155 9.04727 9.44785 9.04727 9.87731 8.63409L10.9492 7.56191L10.9492 15C10.9492 16.0076 13.0508 16.0076 13.0508 15Z" fill="#EEEEEE"/>
</svg>
