<svg width="16" height="16" viewBox="0 0 16 16" fill="none" xmlns="http://www.w3.org/2000/svg">
<path fill-rule="evenodd" clip-rule="evenodd" d="M2 0H4V1.17071C5.16519 1.58254 6 2.69378 6 4C6 5.30622 5.16519 6.41746 4 6.82929V9.17071C5.16519 9.58254 6 10.6938 6 12C6 13.3062 5.16519 14.4175 4 14.8293V16H2V14.8293C0.834808 14.4175 0 13.3062 0 12C0 10.6938 0.834808 9.58254 2 9.17071V6.82929C0.834808 6.41746 0 5.30622 0 4C0 2.69378 0.834808 1.58254 2 1.17071V0ZM8 12C8 12.5523 8.44771 13 9 13H15C15.5523 13 16 12.5523 16 12V11C16 10.4477 15.5523 10 15 10H9C8.44771 10 8 10.4477 8 11V12ZM3 13.5C3.82843 13.5 4.5 12.8284 4.5 12C4.5 11.1716 3.82843 10.5 3 10.5C2.17157 10.5 1.5 11.1716 1.5 12C1.5 12.8284 2.17157 13.5 3 13.5ZM4.5 4C4.5 4.82843 3.82843 5.5 3 5.5C2.17157 5.5 1.5 4.82843 1.5 4C1.5 3.17157 2.17157 2.5 3 2.5C3.82843 2.5 4.5 3.17157 4.5 4Z" fill="#EEEEEE"/>
<path d="M8.24448 5.41326C9.16151 6.39099 10.0742 7.36458 10.9912 8.34231C11.1216 8.48317 11.252 8.61989 11.3824 8.76075C11.6822 9.07975 12.3124 9.07975 12.6123 8.76075C13.5293 7.78302 14.442 6.80943 15.359 5.83169C15.4894 5.69084 15.6198 5.55412 15.7502 5.41326C16.0544 5.09011 16.1109 4.55567 15.7502 4.24081C15.4199 3.95081 14.8462 3.89695 14.5202 4.24081C13.6032 5.21854 12.6905 6.19213 11.7735 7.16986C11.6431 7.31072 11.5127 7.44744 11.3824 7.5883C11.7909 7.5883 12.2038 7.5883 12.6123 7.5883C11.6953 6.61057 10.7826 5.63698 9.86557 4.65925C9.73519 4.51839 9.60481 4.38167 9.47443 4.24081C9.1702 3.91766 8.54871 3.9218 8.24448 4.24081C7.91418 4.58467 7.92287 5.06525 8.24448 5.41326Z" fill="#EEEEEE"/>
<path d="M13 7.2064C13 5.80299 13 5.39562 13 3.99222C13 1.75628 13 4.55512 13 2.31919C13 1.81174 13 1.30033 13 0.792884C13 0.37662 12.54 -0.0198221 12 0C11.46 0.0198221 11 0.348869 11 0.792884C11 2.19629 11 1.56818 11 2.97158C11 5.20752 11 3.44416 11 5.6801C11 6.18754 11 6.69895 11 7.2064C11 7.62266 11.46 8.01911 12 7.99928C12.54 7.97946 13 7.65041 13 7.2064Z" fill="#EEEEEE"/>
</svg>
