<svg width="16" height="16" viewBox="0 0 16 16" fill="none" xmlns="http://www.w3.org/2000/svg">
<path d="M11.6073 3.53492L11.6073 10.5C11.6073 13.5376 9.153 16 6.12553 16C3.09805 16 0.643798 13.5376 0.643798 10.5L0.643799 6.99731C0.643799 6.44503 1.09003 5.99731 1.64048 5.99731C2.19093 5.99731 2.63715 6.44503 2.63715 6.99731L2.63715 10.5C2.63715 12.433 4.19895 14 6.12553 14C8.0521 14 9.6139 12.433 9.6139 10.5L9.6139 3.53492L7.36386 5.79246C6.95517 6.20251 6.29256 6.20251 5.88387 5.79246C5.47518 5.38241 5.47518 4.71759 5.88387 4.30754L9.87058 0.307538C10.2793 -0.102513 10.9419 -0.102513 11.3506 0.307538L15.3373 4.30754C15.746 4.71759 15.746 5.38241 15.3373 5.79246C14.9286 6.20251 14.266 6.20251 13.8573 5.79246L11.6073 3.53492Z" fill="#EEEEEE"/>
</svg>
