<svg width="16" height="16" viewBox="0 0 16 16" fill="none" xmlns="http://www.w3.org/2000/svg">
<path d="M4.68034 12.4651L4.68034 5.5C4.68034 2.46243 7.1346 7.7402e-08 10.1621 1.13504e-07C13.1895 1.49607e-07 15.6438 2.46243 15.6438 5.5L15.6438 9.00269C15.6438 9.55497 15.1976 10.0027 14.6471 10.0027C14.0967 10.0027 13.6504 9.55497 13.6504 9.00269L13.6504 5.5C13.6504 3.567 12.0886 2 10.1621 2C8.2355 2 6.6737 3.567 6.6737 5.5L6.6737 12.4651L8.92374 10.2075C9.33243 9.79749 9.99504 9.79749 10.4037 10.2075C10.8124 10.6176 10.8124 11.2824 10.4037 11.6925L6.41702 15.6925C6.00833 16.1025 5.34571 16.1025 4.93703 15.6925L0.950315 11.6925C0.541627 11.2824 0.541627 10.6176 0.950315 10.2075C1.359 9.79749 2.02162 9.79749 2.43031 10.2075L4.68034 12.4651Z" fill="#EEEEEE"/>
</svg>
