<svg width="16" height="16" viewBox="0 0 16 16" fill="none" xmlns="http://www.w3.org/2000/svg">
<path d="M2.01761 6.96798L3.87361 7.73758C3.66434 8.26589 3.49742 8.81001 3.37441 9.36478L3.30401 9.68478L5.96481 12.3472L6.28481 12.2784C6.83958 12.1554 7.3837 11.9884 7.91201 11.7792L8.68161 13.6352C8.68915 13.6536 8.70114 13.6698 8.71651 13.6824C8.73188 13.695 8.75014 13.7036 8.76966 13.7074C8.78917 13.7112 8.80932 13.7101 8.8283 13.7042C8.84729 13.6983 8.8645 13.6878 8.87841 13.6736L10.0416 12.5104C10.2314 12.3206 10.3794 12.0931 10.4758 11.8426C10.5723 11.592 10.6151 11.3241 10.6016 11.056L10.56 10.3088C12.7136 8.71838 14.8928 5.92958 15.4864 1.06238C15.5032 0.940349 15.4917 0.816078 15.4526 0.699254C15.4135 0.58243 15.348 0.476209 15.2611 0.388871C15.1742 0.301532 15.0684 0.235436 14.9517 0.195734C14.8351 0.156031 14.7109 0.143796 14.5888 0.15998C9.72321 0.75838 6.93281 2.93918 5.34241 5.08638L4.59681 5.04798C4.32929 5.03342 4.06168 5.07502 3.8112 5.17008C3.56072 5.26515 3.3329 5.41159 3.14241 5.59998L1.97921 6.76318C1.96309 6.77688 1.95088 6.7946 1.94382 6.81454C1.93676 6.83448 1.93509 6.85593 1.93899 6.87672C1.94289 6.89751 1.95221 6.9169 1.96602 6.93293C1.97982 6.94896 1.99762 6.96105 2.01761 6.96798ZM9.48001 4.13278C9.68159 3.93189 9.93819 3.79524 10.2174 3.74009C10.4966 3.68493 10.7859 3.71374 11.0487 3.82287C11.3115 3.93201 11.5361 4.11658 11.6941 4.35328C11.8521 4.58998 11.9365 4.86819 11.9365 5.15278C11.9365 5.43737 11.8521 5.71558 11.6941 5.95228C11.5361 6.18898 11.3115 6.37355 11.0487 6.48269C10.7859 6.59182 10.4966 6.62063 10.2174 6.56548C9.93819 6.51032 9.68159 6.37367 9.48001 6.17278C9.34576 6.039 9.23924 5.88003 9.16656 5.705C9.09389 5.52996 9.05647 5.3423 9.05647 5.15278C9.05647 4.96326 9.09389 4.7756 9.16656 4.60056C9.23924 4.42553 9.34576 4.26656 9.48001 4.13278ZM1.67041 12.56C1.36241 12.4519 1.03167 12.4254 0.710408 12.4832C0.681855 12.4894 0.652203 12.4882 0.624222 12.4798C0.596242 12.4714 0.570846 12.4561 0.550408 12.4352C0.525071 12.4099 0.508105 12.3775 0.501809 12.3423C0.495513 12.3071 0.50019 12.2708 0.515208 12.2384C0.856008 11.5056 1.76001 10.032 3.39681 11.2224C3.40536 11.23 3.4122 11.2394 3.41688 11.2499C3.42156 11.2604 3.42398 11.2717 3.42398 11.2832C3.42398 11.2947 3.42156 11.306 3.41688 11.3165C3.4122 11.327 3.40536 11.3363 3.39681 11.344C3.17767 11.5166 3.00223 11.7383 2.88465 11.9912C2.76708 12.2442 2.71068 12.5212 2.72001 12.8C2.7212 12.8327 2.73473 12.8638 2.75788 12.8869C2.78103 12.9101 2.81209 12.9236 2.84481 12.9248C3.1224 12.9359 3.39873 12.8818 3.6516 12.7668C3.90448 12.6517 4.12684 12.479 4.30081 12.2624C4.30846 12.253 4.3181 12.2455 4.32903 12.2403C4.33996 12.2351 4.35191 12.2324 4.36401 12.2324C4.37611 12.2324 4.38805 12.2351 4.39898 12.2403C4.40991 12.2455 4.41955 12.253 4.42721 12.2624C4.65441 12.5328 5.28001 13.416 4.58721 14.2688C4.28476 14.6323 3.8514 14.8622 3.38081 14.9088C2.70881 14.9808 1.46721 15.2 0.960008 15.7792C0.939647 15.8033 0.913121 15.8214 0.883258 15.8317C0.853395 15.8419 0.821315 15.8438 0.790439 15.8373C0.759562 15.8307 0.731048 15.8159 0.707937 15.7944C0.684826 15.7729 0.667984 15.7455 0.659208 15.7152C0.480008 15.104 0.201608 13.7376 1.67041 12.56Z" fill="#EEEEEE"/>
</svg>
