<svg xmlns="http://www.w3.org/2000/svg" width="16" height="16" viewBox="0 0 16 16">
    <path fill="#EEE" d="M10.12 10.198l-.867-1.823 2.834-5.94c.394-.828.179-1.74-.48-2.036L10.727 0 7.999 5.736 5.27 0l-.882.399c-.658.297-.873 1.207-.48 2.036l2.834 5.94-.866 1.82c-1.308-1.234-3.374-1.272-4.728-.085C-.205 11.296-.387 13.3.734 14.7c1.12 1.4 3.16 1.715 4.67.722.728-.479 1.088-1.258 1.414-1.947L8 11.002l1.182 2.473c.326.69.687 1.468 1.415 1.947 1.026.675 2.344.765 3.457.236 1.112-.529 1.851-1.596 1.938-2.8.086-1.203-.493-2.36-1.52-3.036-1.361-.89-3.175-.735-4.352.376zm-5.4 3.174c-.429.601-1.232.8-1.893.468-.66-.331-.98-1.094-.755-1.798.225-.704.93-1.138 1.66-1.024.73.114 1.268.743 1.268 1.482 0 .313-.098.618-.28.872zM12.5 14c-.606 0-1.153-.365-1.386-.925-.232-.561-.104-1.206.325-1.635.43-.43 1.075-.558 1.635-.326.56.233.926.78.926 1.386 0 .398-.157.78-.438 1.061-.282.282-.663.44-1.061.439z"/>
</svg>
