<svg width="16" height="16" viewBox="0 0 16 16" fill="none" xmlns="http://www.w3.org/2000/svg">
<path d="M3.39554 8.00047L9.70719 1.69431C10.0958 1.30605 10.0963 0.677904 9.70893 0.29082C9.3188 -0.098962 8.6926 -0.0954873 8.30422 0.292554L1.29281 7.29786C1.29252 7.29815 1.29223 7.29843 1.29194 7.29872C1.29165 7.29901 1.29136 7.2993 1.29107 7.29959C1.0963 7.49419 0.99964 7.74759 1 8.00085C1.00094 8.25475 1.09765 8.50809 1.29107 8.70134C1.29136 8.70163 1.29165 8.70192 1.29194 8.70221C1.29223 8.7025 1.29252 8.70279 1.29281 8.70308L8.30422 15.7084C8.69281 16.0966 9.32151 16.0972 9.70893 15.7101C10.099 15.3203 10.0956 14.6947 9.70719 14.3066L3.39554 8.00047Z" fill="#EEEEEE"/>
<path d="M9.39554 8.00047L15.7072 1.69431C16.0958 1.30605 16.0963 0.677904 15.7089 0.29082C15.3188 -0.098962 14.6926 -0.0954873 14.3042 0.292554L7.29281 7.29786C7.29252 7.29815 7.29223 7.29843 7.29194 7.29872C7.29165 7.29901 7.29136 7.2993 7.29107 7.29959C7.0963 7.49419 6.99964 7.74759 7 8.00085C7.00094 8.25475 7.09765 8.50809 7.29107 8.70134C7.29136 8.70163 7.29165 8.70192 7.29194 8.70221C7.29223 8.7025 7.29252 8.70279 7.29281 8.70308L14.3042 15.7084C14.6928 16.0966 15.3215 16.0972 15.7089 15.7101C16.099 15.3203 16.0956 14.6947 15.7072 14.3066L9.39554 8.00047Z" fill="#EEEEEE"/>
</svg>
