<svg width="16" height="16" viewBox="0 0 16 16" fill="none" xmlns="http://www.w3.org/2000/svg">
<path d="M12.6045 7.99953L6.29281 14.3057C5.90421 14.694 5.90365 15.3221 6.29107 15.7092C6.6812 16.099 7.3074 16.0955 7.69578 15.7074L14.7072 8.70214C14.7075 8.70185 14.7078 8.70157 14.7081 8.70128C14.7083 8.70099 14.7086 8.7007 14.7089 8.70041C14.9037 8.50581 15.0004 8.25241 15 7.99915C14.9991 7.74525 14.9023 7.49191 14.7089 7.29866C14.7086 7.29837 14.7083 7.29808 14.7081 7.29779C14.7078 7.2975 14.7075 7.29721 14.7072 7.29692L7.69578 0.291621C7.30719 -0.096637 6.67849 -0.0971955 6.29107 0.289888C5.90095 0.679671 5.90443 1.30533 6.29281 1.69338L12.6045 7.99953Z" fill="#EEEEEE"/>
<path d="M6.60446 7.99953L0.292808 14.3057C-0.0957878 14.694 -0.0963472 15.3221 0.291074 15.7092C0.681196 16.099 1.3074 16.0955 1.69578 15.7074L8.70719 8.70214C8.70748 8.70185 8.70777 8.70157 8.70806 8.70128C8.70835 8.70099 8.70864 8.7007 8.70893 8.70041C8.9037 8.50581 9.00036 8.25241 9 7.99915C8.99906 7.74525 8.90235 7.49191 8.70893 7.29866C8.70864 7.29837 8.70835 7.29808 8.70806 7.29779C8.70777 7.2975 8.70748 7.29721 8.70719 7.29692L1.69578 0.291621C1.30719 -0.096637 0.678493 -0.0971955 0.291072 0.289888C-0.0990495 0.679671 -0.0955719 1.30533 0.292807 1.69338L6.60446 7.99953Z" fill="#EEEEEE"/>
</svg>
