<svg xmlns="http://www.w3.org/2000/svg" width="16" height="16" viewBox="0 0 16 16">
    <path fill="#EEE" d="M14.933 5.698l-.978-1.661c-.124-.218-.391-.319-.64-.235l-1.387.453c-.747-.688-1.654-1.191-2.65-1.46L9.03 1.42C8.994 1.168 8.763 1 8.496 1h-2.01c-.266 0-.498.168-.533.42l-.231 1.375c-.996.286-1.903.789-2.65 1.477l-1.387-.47c-.249-.084-.516.017-.64.235L.067 5.698c-.125.218-.071.487.142.638l1.156.872c-.196.856-.196 1.728 0 2.584l-1.174.872c-.195.151-.249.42-.124.638l.978 1.661c.124.218.391.319.64.235l1.387-.453c.747.688 1.654 1.191 2.65 1.46l.249 1.376c.035.251.266.419.533.419h2.01c.266 0 .498-.168.533-.42l.231-1.375c.996-.286 1.903-.789 2.65-1.477l1.387.47c.249.084.516-.017.64-.235l.978-1.661c.125-.218.071-.487-.124-.638l-1.156-.872c.195-.856.195-1.728 0-2.584l1.156-.872c.195-.151.249-.42.124-.638zM7.5 12C5.56 12 4 10.44 4 8.5S5.56 5 7.5 5 11 6.56 11 8.5c-.017 1.923-1.577 3.483-3.5 3.5z"/>
</svg>
