<svg width="16" height="16" viewBox="0 0 16 16" fill="none" xmlns="http://www.w3.org/2000/svg">
<path d="M3.01899 0C5.20254 0 9.69702 0 11.8806 0C12.4629 0 12.6812 0.302113 12.2263 0.746397C11.6258 1.33285 10.9162 2.04371 9.82439 2.96782C9.82439 2.96782 14.7556 5.97118 13.9004 10.9116C13.0451 15.8343 7.14954 16.4385 7.00397 15.781C6.84021 15.1057 10.4249 14.3948 9.53325 12.1734C8.65983 10.0053 7.8592 9.18779 5.58466 7.10854C4.4565 8.21037 3.54668 9.20557 2.83703 9.89865C2.36393 10.3962 2 10.3607 2 9.68539C2 7.55283 2 3.02113 2 0.888568C2 0.248799 2.27294 0 3.01899 0Z" fill="#EEEEEE"/>
</svg>
