<svg width="16" height="16" viewBox="0 0 16 16" fill="none" xmlns="http://www.w3.org/2000/svg">
<path fill-rule="evenodd" clip-rule="evenodd" d="M12.5319 0.482864L15.6314 3.63524C15.8623 3.86986 15.99 4.18186 15.9925 4.51382L15.9998 6.87249C16.0023 7.20195 15.8721 7.52643 15.6413 7.75855L7.65603 15.6356C7.41534 15.8777 7.10097 16 6.7866 16C6.46977 16 6.1554 15.8777 5.91717 15.6356L0.359193 9.98726C-0.119731 9.50056 -0.119731 8.70934 0.359193 8.22263L8.32723 0.365555C8.57038 0.118456 8.91176 -0.0138292 9.25315 0.00114651L11.7214 0.118456C12.0285 0.133432 12.3158 0.263221 12.5319 0.482864ZM10.8652 6.51483C11.2092 6.51483 11.5327 6.37932 11.774 6.13436C12.0179 5.88941 12.1489 5.56106 12.1489 5.21186C12.1489 4.86267 12.0179 4.53432 11.774 4.28936C11.5301 4.04441 11.2092 3.9089 10.8652 3.9089C10.5212 3.9089 10.1977 4.0418 9.95636 4.28936C9.71503 4.53693 9.58153 4.86267 9.58153 5.21186C9.58153 5.56106 9.71247 5.88941 9.95636 6.13436C10.2003 6.37932 10.5212 6.51483 10.8652 6.51483Z" fill="#EEEEEE"/>
</svg>
