<svg width="16" height="16" viewBox="0 0 16 16" fill="none" xmlns="http://www.w3.org/2000/svg">
<path fill-rule="evenodd" clip-rule="evenodd" d="M8 0C7.44772 0 7 0.447715 7 1V5.17071C7.31278 5.06015 7.64936 5 8 5C8.35064 5 8.68722 5.06015 9 5.17071V1C9 0.447715 8.55228 0 8 0ZM9 10.8293C8.68722 10.9398 8.35064 11 8 11C7.64936 11 7.31278 10.9398 7 10.8293V15C7 15.5523 7.44772 16 8 16C8.55228 16 9 15.5523 9 15V10.8293Z" fill="#EEEEEE"/>
<circle cx="8" cy="8" r="3" stroke="#EEEEEE" stroke-width="2"/>
</svg>
