<svg width="16" height="16" viewBox="0 0 16 16" fill="none" xmlns="http://www.w3.org/2000/svg">
<path d="M1.61558 4.47474C2.61678 3.55544 3.61323 2.64005 4.61443 1.72075C4.75678 1.58831 4.89913 1.45977 5.04148 1.32733C4.59545 1.32733 4.14467 1.32733 3.69864 1.32733C4.69984 2.24662 5.6963 3.16202 6.69749 4.08131C6.83985 4.21375 6.9822 4.3423 7.12455 4.47474C7.4567 4.77857 8.13524 4.77468 8.46739 4.47474C8.83275 4.14753 8.82326 3.69957 8.46739 3.37236C7.46619 2.45307 6.46973 1.53767 5.46853 0.61838C5.32618 0.48594 5.18383 0.357395 5.04148 0.224954C4.71408 -0.0749847 4.02605 -0.0749847 3.69864 0.224954C2.69744 1.14425 1.70099 2.05965 0.699787 2.97894C0.557437 3.11138 0.415086 3.23992 0.272735 3.37236C-0.0594163 3.6762 -0.121102 4.17869 0.272735 4.47474C0.638102 4.74741 1.26444 4.80194 1.61558 4.47474Z" fill="#EEEEEE"/>
<path d="M3.42346 0.926125C3.42346 2.30507 3.42346 3.6879 3.42346 5.06684C3.42346 7.2638 3.42346 9.46075 3.42346 11.6577C3.42346 12.1563 3.42346 12.6588 3.42346 13.1574C3.42346 13.5664 3.86 13.9559 4.37247 13.9365C4.88493 13.917 5.32147 13.5937 5.32147 13.1574C5.32147 11.7785 5.32147 10.3956 5.32147 9.01669C5.32147 6.81973 5.32147 4.62278 5.32147 2.42582C5.32147 1.92722 5.32147 1.42473 5.32147 0.926125C5.32147 0.517118 4.88493 0.127587 4.37247 0.147063C3.86 0.16654 3.42346 0.489851 3.42346 0.926125Z" fill="#EEEEEE"/>
<path d="M7.53267 12.6277C8.53387 13.547 9.53032 14.4624 10.5315 15.3817C10.6739 15.5141 10.8162 15.6427 10.9586 15.7751C11.286 16.075 11.974 16.075 12.3014 15.7751C13.3026 14.8558 14.2991 13.9404 15.3003 13.0211C15.4426 12.8887 15.585 12.7601 15.7273 12.6277C16.0595 12.3238 16.1212 11.8214 15.7273 11.5253C15.3667 11.2526 14.7404 11.202 14.3845 11.5253C13.3833 12.4446 12.3868 13.36 11.3856 14.2793C11.2433 14.4117 11.1009 14.5403 10.9586 14.6727C11.4046 14.6727 11.8554 14.6727 12.3014 14.6727C11.3002 13.7534 10.3038 12.838 9.30256 11.9187C9.16021 11.7863 9.01786 11.6577 8.87551 11.5253C8.54336 11.2215 7.86482 11.2254 7.53267 11.5253C7.17204 11.8486 7.18153 12.3005 7.53267 12.6277Z" fill="#EEEEEE"/>
<path d="M12.5814 15.0739C12.5814 13.695 12.5814 12.3121 12.5814 10.9332C12.5814 8.73623 12.5814 6.53928 12.5814 4.34232C12.5814 3.84372 12.5814 3.34123 12.5814 2.84263C12.5814 2.43362 12.1448 2.04409 11.6324 2.06357C11.1199 2.08304 10.6833 2.40635 10.6833 2.84263C10.6833 4.22157 10.6833 5.6044 10.6833 6.98335C10.6833 9.1803 10.6833 11.3773 10.6833 13.5742C10.6833 14.0728 10.6833 14.5753 10.6833 15.0739C10.6833 15.4829 11.1199 15.8724 11.6324 15.853C12.1448 15.8335 12.5814 15.5102 12.5814 15.0739Z" fill="#EEEEEE"/>
</svg>
