<svg width="16" height="16" viewBox="0 0 16 16" fill="none" xmlns="http://www.w3.org/2000/svg">
<path d="M5.47915 5.75919C6.3958 4.78146 7.30811 3.80787 8.22477 2.83014C8.3551 2.68928 8.48543 2.55256 8.61576 2.4117C8.20739 2.4117 7.79468 2.4117 7.38631 2.4117C8.30296 3.38943 9.21527 4.36302 10.1319 5.34075C10.2623 5.48161 10.3926 5.61833 10.5229 5.75919C10.827 6.08234 11.4483 6.0782 11.7524 5.75919C12.0869 5.41118 12.0782 4.93475 11.7524 4.58674C10.8357 3.60901 9.9234 2.63542 9.00675 1.65769C8.87642 1.51683 8.74609 1.38011 8.61576 1.23925C8.316 0.920249 7.68607 0.920249 7.38631 1.23925C6.46966 2.21699 5.55735 3.19057 4.64069 4.1683C4.51036 4.30916 4.38003 4.44588 4.2497 4.58674C3.9456 4.90989 3.88912 5.44433 4.2497 5.75919C4.58422 6.04919 5.15767 6.1072 5.47915 5.75919Z" fill="#EEEEEE"/>
<path d="M7 1.79159C7 3.19145 7 4.59526 7 5.99512C7 8.2254 7 10.4557 7 12.686C7 13.1921 7 13.7022 7 14.2084C7 14.6236 7.46 15.0191 8 14.9993C8.54 14.9795 9 14.6513 9 14.2084C9 12.8086 9 11.4047 9 10.0049C9 7.7746 9 5.54432 9 3.31404C9 2.80787 9 2.29775 9 1.79159C9 1.37638 8.54 0.98094 8 1.00071C7.46 1.02048 7 1.3487 7 1.79159Z" fill="#EEEEEE"/>
</svg>
