<svg width="16" height="16" viewBox="0 0 16 16" fill="none" xmlns="http://www.w3.org/2000/svg">
<path d="M4.24448 11.4133C5.16151 12.391 6.07419 13.3646 6.99121 14.3423C7.1216 14.4832 7.25198 14.6199 7.38236 14.7607C7.68224 15.0798 8.31243 15.0798 8.61231 14.7607C9.52934 13.783 10.442 12.8094 11.359 11.8317C11.4894 11.6908 11.6198 11.5541 11.7502 11.4133C12.0544 11.0901 12.1109 10.5557 11.7502 10.2408C11.4199 9.95081 10.8462 9.89695 10.5202 10.2408C9.60322 11.2185 8.69054 12.1921 7.77351 13.1699C7.64313 13.3107 7.51275 13.4474 7.38236 13.5883C7.7909 13.5883 8.20378 13.5883 8.61231 13.5883C7.69528 12.6106 6.7826 11.637 5.86557 10.6592C5.73519 10.5184 5.60481 10.3817 5.47443 10.2408C5.1702 9.91766 4.54871 9.9218 4.24448 10.2408C3.91418 10.5847 3.92287 11.0653 4.24448 11.4133Z" fill="#EEEEEE"/>
<path d="M9 14.2084C9 12.8086 9 11.4047 9 10.0049C9 7.7746 9 5.54432 9 3.31404C9 2.80787 9 2.29775 9 1.79159C9 1.37638 8.54 0.98094 8 1.00071C7.46 1.02048 7 1.3487 7 1.79159C7 3.19145 7 4.59526 7 5.99512C7 8.2254 7 10.4557 7 12.686C7 13.1921 7 13.7022 7 14.2084C7 14.6236 7.46 15.0191 8 14.9993C8.54 14.9795 9 14.6513 9 14.2084Z" fill="#EEEEEE"/>
</svg>
