<svg width="16" height="16" viewBox="0 0 16 16" fill="none" xmlns="http://www.w3.org/2000/svg">
<path d="M7.84842 1.13491L3.40211 4.94701L0.909478 5.19409C0.387372 5.24703 0 5.7059 0 6.23536V9.76508C0 10.3122 0.387372 10.7711 0.909478 10.8064L3.40211 11.0534L7.84842 14.8655C8.21894 15.1832 8.75789 14.9008 8.75789 14.4067V1.57612C8.74105 1.09961 8.2021 0.817231 7.84842 1.13491Z" fill="#EEEEEE"/>
<path d="M12.0421 3.74687C11.9242 3.58803 11.6884 3.55273 11.5368 3.69391L10.9305 4.25867C10.7958 4.38221 10.7789 4.59399 10.8968 4.75283C11.5705 5.63526 11.9747 6.76478 11.9747 7.98254C11.9747 9.20029 11.5705 10.3298 10.8968 11.2122C10.7789 11.3534 10.7958 11.5829 10.9305 11.7064L11.5368 12.2711C11.6884 12.4123 11.9074 12.3947 12.0421 12.2182C12.9347 11.0534 13.4737 9.57091 13.4737 7.96488C13.4737 6.35886 12.9516 4.91168 12.0421 3.74687Z" fill="#EEEEEE"/>
<path d="M13.8948 1.94671C13.7769 1.78787 13.5411 1.78787 13.4063 1.91141L12.8 2.49381C12.6653 2.61735 12.6484 2.84678 12.7663 2.98797C13.8442 4.34692 14.4842 6.09414 14.4842 7.98254C14.4842 9.87094 13.8442 11.6181 12.7663 12.9771C12.6484 13.1359 12.6653 13.3477 12.8 13.4713L13.4063 14.0537C13.5411 14.1949 13.7769 14.1772 13.8948 14.0184C15.2084 12.377 16 10.2769 16 7.96488C16 5.65292 15.2084 3.58803 13.8948 1.94671Z" fill="#EEEEEE"/>
</svg>
