<svg width="17" height="16" viewBox="0 0 17 16" fill="none" xmlns="http://www.w3.org/2000/svg">
<path fill-rule="evenodd" clip-rule="evenodd" d="M8.75789 4.07426V1.57612C8.74105 1.09961 8.2021 0.817231 7.84842 1.13491L3.40211 4.94701L0.909478 5.19409C0.387372 5.24703 0 5.7059 0 6.23536V9.76508C0 10.3122 0.387372 10.7711 0.909478 10.8064L1.92513 10.907L8.75789 4.07426ZM6.47942 13.6918L7.84842 14.8655C8.21894 15.1832 8.75789 14.9008 8.75789 14.4067V11.4133L6.47942 13.6918ZM11.9704 8.20085C11.9252 9.33503 11.5301 10.3828 10.8968 11.2123C10.7789 11.3535 10.7958 11.5829 10.9305 11.7065L11.5368 12.2712C11.6884 12.4124 11.9074 12.3948 12.0421 12.2183C12.9347 11.0535 13.4737 9.57097 13.4737 7.96494C13.4737 7.5638 13.4411 7.17258 13.3781 6.79318L11.9704 8.20085ZM14.2281 5.94315C14.3954 6.59484 14.4842 7.27892 14.4842 7.9826C14.4842 9.871 13.8442 11.6182 12.7663 12.9771C12.6484 13.136 12.6653 13.3478 12.8 13.4713L13.4063 14.0537C13.5411 14.1949 13.7769 14.1773 13.8948 14.0184C15.2084 12.3771 16 10.2769 16 7.96494C16 6.8165 15.8047 5.72902 15.4471 4.72414L14.2281 5.94315Z" fill="#EEEEEE"/>
<rect x="14.7584" y="-0.320923" width="2.59474" height="19.6367" rx="1.29737" transform="rotate(45 14.7584 -0.320923)" fill="#EEEEEE"/>
</svg>
