<svg width="16" height="17" viewBox="0 0 16 17" fill="none" xmlns="http://www.w3.org/2000/svg">
<path fill-rule="evenodd" clip-rule="evenodd" d="M14 1C14 0.447715 13.5523 0 13 0H3C2.44772 0 2 0.447715 2 1V3C2 3.55228 2.44772 4 3 4H13C13.5523 4 14 3.55228 14 3V1ZM14 7C14 6.44772 13.5523 6 13 6H3C2.44772 6 2 6.44772 2 7V9C2 9.55229 2.44772 10 3 10H7V9C7 8.44771 7.44772 8 8 8H14V7ZM7 12H3C2.44772 12 2 12.4477 2 13V15C2 15.5523 2.44772 16 3 16H7V12Z" fill="#EEEEEE"/>
<path d="M9.95703 10.6387L11.252 14.2715L12.6465 10.4805C12.7559 10.1758 12.8633 9.96094 12.9688 9.83594C13.0742 9.70703 13.2344 9.64258 13.4492 9.64258C13.6523 9.64258 13.8242 9.71094 13.9648 9.84766C14.1094 9.98438 14.1816 10.1426 14.1816 10.3223C14.1816 10.3926 14.168 10.4746 14.1406 10.5684C14.1172 10.6621 14.0879 10.75 14.0527 10.832C14.0215 10.9141 13.9844 11.0078 13.9414 11.1133L12.4062 14.9219C12.3633 15.0312 12.3066 15.1699 12.2363 15.3379C12.1699 15.5059 12.0938 15.6504 12.0078 15.7715C11.9258 15.8887 11.8223 15.9805 11.6973 16.0469C11.5762 16.1133 11.4277 16.1465 11.252 16.1465C11.0254 16.1465 10.8438 16.0957 10.707 15.9941C10.5742 15.8887 10.4746 15.7754 10.4082 15.6543C10.3457 15.5293 10.2383 15.2852 10.0859 14.9219L8.5625 11.1543C8.52734 11.0605 8.49023 10.9668 8.45117 10.873C8.41602 10.7793 8.38477 10.6836 8.35742 10.5859C8.33398 10.4883 8.32227 10.4043 8.32227 10.334C8.32227 10.2246 8.35547 10.1172 8.42188 10.0117C8.48828 9.90234 8.58008 9.81445 8.69727 9.74805C8.81445 9.67773 8.94141 9.64258 9.07812 9.64258C9.34375 9.64258 9.52539 9.71875 9.62305 9.87109C9.72461 10.0234 9.83594 10.2793 9.95703 10.6387Z" fill="#EEEEEE"/>
</svg>
