<svg width="16" height="16" viewBox="0 0 16 16" fill="none" xmlns="http://www.w3.org/2000/svg">
<path fill-rule="evenodd" clip-rule="evenodd" d="M14 1C14 0.447715 13.5523 0 13 0H3C2.44772 0 2 0.447715 2 1V3C2 3.55228 2.44772 4 3 4H13C13.5523 4 14 3.55228 14 3V1ZM14 7C14 6.44772 13.5523 6 13 6H3C2.44772 6 2 6.44772 2 7V9C2 9.55229 2.44772 10 3 10H7V8C7 7.44772 7.44772 7 8 7H14ZM7 12H3C2.44772 12 2 12.4477 2 13V15C2 15.5523 2.44772 16 3 16H7V12Z" fill="#EEEEEE"/>
<path d="M15.7958 11.6489L9.56485 8.05429C9.43943 7.9819 9.30671 7.9819 9.18106 8.05429C9.05541 8.1268 9 8.26057 9 8.40546V15.5946C9 15.7394 9.05541 15.8733 9.18094 15.9457C9.24377 15.9819 9.30277 16 9.3729 16C9.44291 16 9.50748 15.9819 9.5703 15.9457L15.7985 12.3512C15.9241 12.2788 16 12.1449 16 12.0001C16 11.8552 15.9213 11.7214 15.7958 11.6489Z" fill="#EEEEEE"/>
</svg>
