<svg width="17" height="17" viewBox="0 0 17 17" fill="none" xmlns="http://www.w3.org/2000/svg">
<path fill-rule="evenodd" clip-rule="evenodd" d="M12 1C12 0.447715 11.5523 0 11 0H1C0.447715 0 0 0.447715 0 1V3C0 3.55228 0.447715 4 1 4H11C11.5523 4 12 3.55228 12 3V1ZM16 7C16 6.44772 15.5523 6 15 6H5C4.44772 6 4 6.44772 4 7V9C4 9.55229 4.44771 10 5 10H9V9C9 8.44771 9.44771 8 10 8H16V7ZM9 12H5C4.44772 12 4 12.4477 4 13V15C4 15.5523 4.44771 16 5 16H9V12Z" fill="#EEEEEE"/>
<path d="M11.957 10.6387L13.252 14.2715L14.6465 10.4805C14.7559 10.1758 14.8633 9.96094 14.9688 9.83594C15.0742 9.70703 15.2344 9.64258 15.4492 9.64258C15.6523 9.64258 15.8242 9.71094 15.9648 9.84766C16.1094 9.98438 16.1816 10.1426 16.1816 10.3223C16.1816 10.3926 16.168 10.4746 16.1406 10.5684C16.1172 10.6621 16.0879 10.75 16.0527 10.832C16.0215 10.9141 15.9844 11.0078 15.9414 11.1133L14.4062 14.9219C14.3633 15.0312 14.3066 15.1699 14.2363 15.3379C14.1699 15.5059 14.0938 15.6504 14.0078 15.7715C13.9258 15.8887 13.8223 15.9805 13.6973 16.0469C13.5762 16.1133 13.4277 16.1465 13.252 16.1465C13.0254 16.1465 12.8438 16.0957 12.707 15.9941C12.5742 15.8887 12.4746 15.7754 12.4082 15.6543C12.3457 15.5293 12.2383 15.2852 12.0859 14.9219L10.5625 11.1543C10.5273 11.0605 10.4902 10.9668 10.4512 10.873C10.416 10.7793 10.3848 10.6836 10.3574 10.5859C10.334 10.4883 10.3223 10.4043 10.3223 10.334C10.3223 10.2246 10.3555 10.1172 10.4219 10.0117C10.4883 9.90234 10.5801 9.81445 10.6973 9.74805C10.8145 9.67773 10.9414 9.64258 11.0781 9.64258C11.3438 9.64258 11.5254 9.71875 11.623 9.87109C11.7246 10.0234 11.8359 10.2793 11.957 10.6387Z" fill="#EEEEEE"/>
</svg>
