<svg width="16" height="16" viewBox="0 0 16 16" fill="none" xmlns="http://www.w3.org/2000/svg">
<path fill-rule="evenodd" clip-rule="evenodd" d="M12 1C12 0.447715 11.5523 0 11 0H1C0.447715 0 0 0.447715 0 1V3C0 3.55228 0.447715 4 1 4H11C11.5523 4 12 3.55228 12 3V1ZM16 7C16 6.44772 15.5523 6 15 6H5C4.44772 6 4 6.44772 4 7V9C4 9.55229 4.44771 10 5 10H7V8C7 7.44772 7.44772 7 8 7H16ZM7 12H5C4.44772 12 4 12.4477 4 13V15C4 15.5523 4.44771 16 5 16H7V12Z" fill="#EEEEEE"/>
<path d="M15.7958 11.6489L9.56485 8.05429C9.43943 7.9819 9.30671 7.9819 9.18106 8.05429C9.05541 8.1268 9 8.26057 9 8.40546V15.5946C9 15.7394 9.05541 15.8733 9.18094 15.9457C9.24377 15.9819 9.30277 16 9.3729 16C9.44291 16 9.50748 15.9819 9.5703 15.9457L15.7985 12.3512C15.9241 12.2788 16 12.1449 16 12.0001C16 11.8552 15.9213 11.7214 15.7958 11.6489Z" fill="#EEEEEE"/>
</svg>
