<svg width="16" height="16" viewBox="0 0 16 16" fill="none" xmlns="http://www.w3.org/2000/svg">
<path d="M10.3883 5.10356C10.3362 4.56706 10.1128 4.15028 9.718 3.85321C9.32321 3.55614 8.78742 3.4076 8.11063 3.4076C7.65076 3.4076 7.26247 3.47411 6.94577 3.60713C6.62907 3.73571 6.38612 3.91528 6.21692 4.14584C6.05206 4.37641 5.96963 4.63801 5.96963 4.93064C5.96095 5.17451 6.01085 5.38733 6.11931 5.56912C6.2321 5.75091 6.38612 5.90831 6.58134 6.04133C6.77657 6.16991 7.00217 6.28298 7.25813 6.38052C7.5141 6.47363 7.78742 6.55344 8.07809 6.61995L9.27549 6.91259C9.85683 7.04561 10.3905 7.22296 10.8764 7.44466C11.3623 7.66635 11.7831 7.93903 12.1388 8.26271C12.4946 8.58638 12.7701 8.9677 12.9653 9.40665C13.1649 9.84561 13.2668 10.3489 13.2711 10.9164C13.2668 11.75 13.0586 12.4727 12.6464 13.0846C12.2386 13.692 11.6486 14.1642 10.8764 14.5012C10.1085 14.8337 9.18221 15 8.09761 15C7.02169 15 6.0846 14.8315 5.28633 14.4945C4.49241 14.1576 3.87202 13.6587 3.42516 12.9981C2.98265 12.333 2.75054 11.5105 2.72885 10.5306H5.45553C5.4859 10.9873 5.61388 11.3686 5.83948 11.6746C6.06941 11.9761 6.37527 12.2044 6.75705 12.3596C7.14317 12.5104 7.57918 12.5857 8.06508 12.5857C8.5423 12.5857 8.95662 12.5148 9.30803 12.3729C9.66377 12.231 9.93926 12.0337 10.1345 11.781C10.3297 11.5283 10.4273 11.2378 10.4273 10.9097C10.4273 10.6038 10.3384 10.3466 10.1605 10.1382C9.98698 9.92985 9.73102 9.75249 9.39262 9.60618C9.05857 9.45986 8.64859 9.32684 8.16269 9.20713L6.7115 8.83468C5.58785 8.55534 4.70065 8.11861 4.04989 7.52447C3.39913 6.93032 3.07592 6.13001 3.08026 5.12352C3.07592 4.29881 3.29067 3.57831 3.72451 2.962C4.16269 2.34569 4.76356 1.86461 5.52711 1.51877C6.29067 1.17292 7.15835 1 8.13015 1C9.11931 1 9.98265 1.17292 10.7202 1.51877C11.462 1.86461 12.039 2.34569 12.4512 2.962C12.8633 3.57831 13.0759 4.29216 13.0889 5.10356H10.3883Z" fill="#EEEEEE"/>
<path d="M2 8.67506H14V9.95202H2V8.67506Z" fill="#EEEEEE"/>
</svg>
