<svg width="16" height="16" viewBox="0 0 16 16" fill="none" xmlns="http://www.w3.org/2000/svg">
<path d="M10.3239 5.71023C10.2784 5.25189 10.0833 4.89583 9.73864 4.64205C9.39394 4.38826 8.92614 4.26136 8.33523 4.26136C7.93371 4.26136 7.5947 4.31818 7.31818 4.43182C7.04167 4.54167 6.82955 4.69508 6.68182 4.89205C6.53788 5.08902 6.46591 5.3125 6.46591 5.5625C6.45833 5.77083 6.50189 5.95265 6.59659 6.10795C6.69508 6.26326 6.82955 6.39773 7 6.51136C7.17045 6.62121 7.36742 6.7178 7.59091 6.80114C7.81439 6.88068 8.05303 6.94886 8.30682 7.00568L9.35227 7.25568C9.85985 7.36932 10.3258 7.52083 10.75 7.71023C11.1742 7.89962 11.5417 8.13258 11.8523 8.40909C12.1629 8.68561 12.4034 9.01136 12.5739 9.38636C12.7481 9.76136 12.8371 10.1913 12.8409 10.6761C12.8371 11.3883 12.6553 12.0057 12.2955 12.5284C11.9394 13.0473 11.4242 13.4508 10.75 13.7386C10.0795 14.0227 9.27083 14.1648 8.32386 14.1648C7.38447 14.1648 6.56629 14.0208 5.86932 13.733C5.17614 13.4451 4.63447 13.0189 4.24432 12.4545C3.85795 11.8864 3.6553 11.1837 3.63636 10.3466H6.01705C6.04356 10.7367 6.1553 11.0625 6.35227 11.3239C6.55303 11.5814 6.82008 11.7765 7.15341 11.9091C7.49053 12.0379 7.87121 12.1023 8.29545 12.1023C8.71212 12.1023 9.07386 12.0417 9.38068 11.9205C9.69129 11.7992 9.93182 11.6307 10.1023 11.4148C10.2727 11.1989 10.358 10.9508 10.358 10.6705C10.358 10.4091 10.2803 10.1894 10.125 10.0114C9.97348 9.83333 9.75 9.68182 9.45455 9.55682C9.16288 9.43182 8.80492 9.31818 8.38068 9.21591L7.11364 8.89773C6.13258 8.65909 5.35795 8.28598 4.78977 7.77841C4.22159 7.27083 3.93939 6.58712 3.94318 5.72727C3.93939 5.02273 4.12689 4.4072 4.50568 3.88068C4.88826 3.35417 5.41288 2.94318 6.07955 2.64773C6.74621 2.35227 7.50379 2.20455 8.35227 2.20455C9.21591 2.20455 9.9697 2.35227 10.6136 2.64773C11.2614 2.94318 11.7652 3.35417 12.125 3.88068C12.4848 4.4072 12.6705 5.01705 12.6818 5.71023H10.3239Z" fill="#EEEEEE"/>
<path d="M3 8.76136H13.4773V9.85227H3V8.76136Z" fill="#EEEEEE"/>
</svg>
