<svg width="16" height="16" viewBox="0 0 16 16" fill="none" xmlns="http://www.w3.org/2000/svg">
<path d="M0.481901 0.000437529C0.214871 0.010358 0.000479981 0.232767 0.000479981 0.500139C0.000479981 0.543501 0.00607976 0.586543 0.0171193 0.628464L1.68313 6.87273L9.03916 7.99886L1.68409 9.12387L0.0171193 15.3702C0.00575977 15.4125 0 15.4561 0 15.4998C0 15.7742 0.225751 16 0.50014 16C0.578217 16 0.655334 15.9816 0.725091 15.9464L15.7245 8.44608C15.8931 8.36127 16 8.18799 16 7.99934C16 7.81053 15.8931 7.63724 15.7245 7.5526L0.725091 0.0522797C0.649734 0.0146781 0.566057 -0.00308262 0.481901 0.000437529Z" fill="#EEEEEE"/>
</svg>
