<svg width="16" height="16" viewBox="0 0 16 16" fill="none" xmlns="http://www.w3.org/2000/svg">
<path d="M11.5253 1.61558C12.4446 2.61678 13.36 3.61323 14.2793 4.61443C14.4117 4.75678 14.5403 4.89913 14.6727 5.04148C14.6727 4.59545 14.6727 4.14467 14.6727 3.69864C13.7534 4.69984 12.838 5.6963 11.9187 6.6975C11.7863 6.83985 11.6578 6.9822 11.5253 7.12455C11.2215 7.4567 11.2254 8.13524 11.5253 8.46739C11.8525 8.83275 12.3005 8.82326 12.6277 8.46739C13.547 7.46619 14.4624 6.46973 15.3817 5.46853C15.5141 5.32618 15.6427 5.18383 15.7751 5.04148C16.075 4.71408 16.075 4.02605 15.7751 3.69864C14.8558 2.69744 13.9404 1.70099 13.0211 0.699787C12.8887 0.557436 12.7601 0.415086 12.6277 0.272735C12.3239 -0.0594164 11.8214 -0.121102 11.5253 0.272735C11.2527 0.638102 11.1981 1.26444 11.5253 1.61558Z" fill="#EEEEEE"/>
<path d="M15.0739 3.42346C13.695 3.42346 12.3122 3.42346 10.9332 3.42346C8.73627 3.42346 6.53931 3.42346 4.34236 3.42346C3.84376 3.42346 3.34126 3.42346 2.84266 3.42346C2.43365 3.42346 2.04412 3.86 2.0636 4.37247C2.08308 4.88493 2.40639 5.32147 2.84266 5.32147C4.2216 5.32147 5.60443 5.32147 6.98337 5.32147C9.18033 5.32147 11.3773 5.32147 13.5742 5.32147C14.0728 5.32147 14.5753 5.32147 15.0739 5.32147C15.4829 5.32147 15.8725 4.88493 15.853 4.37247C15.8335 3.86 15.5102 3.42346 15.0739 3.42346Z" fill="#EEEEEE"/>
<path d="M3.37238 7.53267C2.45309 8.53387 1.53769 9.53032 0.618396 10.5315C0.485956 10.6739 0.35741 10.8162 0.22497 10.9586C-0.0749692 11.286 -0.0749692 11.974 0.22497 12.3014C1.14426 13.3026 2.05966 14.2991 2.97895 15.3003C3.1114 15.4426 3.23994 15.585 3.37238 15.7273C3.67622 16.0595 4.17871 16.1212 4.47475 15.7273C4.74743 15.3667 4.79807 14.7404 4.47475 14.3845C3.55546 13.3833 2.64006 12.3868 1.72077 11.3856C1.58833 11.2433 1.45978 11.1009 1.32734 10.9586C1.32734 11.4046 1.32734 11.8554 1.32734 12.3014C2.24664 11.3002 3.16203 10.3038 4.08133 9.30256C4.21377 9.16021 4.34231 9.01786 4.47475 8.87551C4.77859 8.54336 4.77469 7.86482 4.47475 7.53267C4.15144 7.17204 3.69959 7.18153 3.37238 7.53267Z" fill="#EEEEEE"/>
<path d="M0.926154 12.5814C2.30509 12.5814 3.68793 12.5814 5.06687 12.5814C7.26383 12.5814 9.46078 12.5814 11.6577 12.5814C12.1563 12.5814 12.6588 12.5814 13.1574 12.5814C13.5664 12.5814 13.956 12.1448 13.9365 11.6324C13.917 11.1199 13.5937 10.6833 13.1574 10.6833C11.7785 10.6833 10.3957 10.6833 9.01672 10.6833C6.81976 10.6833 4.6228 10.6833 2.42585 10.6833C1.92725 10.6833 1.42475 10.6833 0.926155 10.6833C0.517147 10.6833 0.127616 11.1199 0.147092 11.6324C0.166569 12.1448 0.48988 12.5814 0.926154 12.5814Z" fill="#EEEEEE"/>
</svg>
