<svg width="16" height="16" viewBox="0 0 16 16" fill="none" xmlns="http://www.w3.org/2000/svg">
<path fill-rule="evenodd" clip-rule="evenodd" d="M7.99799 3.39468C7.56082 3.13527 7.03588 2.99824 6.499 3.00338H5V4.00671H6.499C6.67705 3.99413 6.85413 4.03876 6.99389 4.13143C7.13365 4.2241 7.22547 4.35778 7.2505 4.50503V11.4949C7.2264 11.6427 7.13498 11.7772 6.99512 11.8706C6.85526 11.964 6.67766 12.0091 6.499 11.9966H5V12.9999H6.499C7.03519 13.0046 7.5596 12.8689 7.99799 12.6119C8.43758 12.8669 8.96119 13.0024 9.49699 12.9999H11V11.9966H9.501C9.32234 12.0091 9.14474 11.964 9.00488 11.8706C8.86502 11.7772 8.7736 11.6427 8.7495 11.4949V4.50169C8.77453 4.35444 8.86635 4.22076 9.00611 4.12809C9.14586 4.03542 9.32295 3.99079 9.501 4.00336H11V3.00004H9.501C8.96272 2.99745 8.43703 3.13548 7.99799 3.39468V3.39468Z" fill="#EEEEEE"/>
<rect x="1" y="1" width="14" height="14" rx="2" stroke="#EEEEEE" stroke-width="2"/>
</svg>
