<svg width="16" height="16" viewBox="0 0 16 16" fill="none" xmlns="http://www.w3.org/2000/svg">
<g id="Icons/16x16/timeline">
<path id="Combined Shape" fill-rule="evenodd" clip-rule="evenodd" d="M5 0H4V2.05001C2.85888 2.28164 2 3.29052 2 4.5C2 5.70948 2.85888 6.71836 4 6.94999V9.05001C2.85888 9.28164 2 10.2905 2 11.5C2 12.7095 2.85888 13.7184 4 13.95V16H5V13.95C6.14112 13.7184 7 12.7095 7 11.5C7 10.2905 6.14112 9.28164 5 9.05001V6.94999C6.14112 6.71836 7 5.70948 7 4.5C7 3.29052 6.14112 2.28164 5 2.05001V0ZM11 5C10.4477 5 10 4.55228 10 4C10 3.44772 10.4477 3 11 3H15C15.5523 3 16 3.44772 16 4C16 4.55228 15.5523 5 15 5H11ZM10 11C10 11.5523 10.4477 12 11 12H15C15.5523 12 16 11.5523 16 11C16 10.4477 15.5523 10 15 10H11C10.4477 10 10 10.4477 10 11ZM4.5 13C5.32843 13 6 12.3284 6 11.5C6 10.6716 5.32843 10 4.5 10C3.67157 10 3 10.6716 3 11.5C3 12.3284 3.67157 13 4.5 13ZM6 4.5C6 5.32843 5.32843 6 4.5 6C3.67157 6 3 5.32843 3 4.5C3 3.67157 3.67157 3 4.5 3C5.32843 3 6 3.67157 6 4.5Z" fill="#EEEEEE"/>
</g>
</svg>
