<svg xmlns="http://www.w3.org/2000/svg" width="16" height="16" viewBox="0 0 16 16">
    <path fill="#BDBDBD" d="M12.364 2H11c0-.92-1.02-2-2-2H6c-.98 0-2 1.08-2 2H3c-.907-.06-1.925.648-2 1.5v1.021c.025.284.288.497.59.478h11.82c.302.019.565-.194.59-.478V3.5c0-1-.73-1.56-1.636-1.5zM6 2c0-.552.669-1 1-1h1c.331 0 1 .448 1 1H6zM2 14.333C2 15.253 2.739 16 3.65 16h7.7c.911 0 1.65-.746 1.65-1.667V6H2v8.333zm7-6.75C9 7.261 9.224 7 9.5 7s.5.261.5.583v5.834c0 .322-.224.583-.5.583s-.5-.261-.5-.583V7.583zm-2 0C7 7.261 7.224 7 7.5 7s.5.261.5.583v5.834c0 .322-.224.583-.5.583s-.5-.261-.5-.583V7.583zm-2 0C5 7.261 5.224 7 5.5 7s.5.261.5.583v5.834c0 .322-.224.583-.5.583s-.5-.261-.5-.583V7.583z"/>
</svg>
