<svg width="16" height="16" viewBox="0 0 16 16" fill="none" xmlns="http://www.w3.org/2000/svg">
<path d="M5.02584 15C11.0699 15 14.3718 9.61163 14.3718 4.93953C14.3718 4.7876 14.3667 4.63566 14.3617 4.48372C15.0019 3.9845 15.5614 3.36047 16 2.65504C15.4102 2.93721 14.7801 3.12713 14.1147 3.21395C14.7952 2.77442 15.3144 2.08527 15.5614 1.26047C14.9263 1.66744 14.2256 1.96047 13.4745 2.11783C12.8746 1.42868 12.0227 1 11.075 1C9.26024 1 7.78828 2.5845 7.78828 4.53798C7.78828 4.81473 7.81853 5.08605 7.87398 5.34651C5.14682 5.18372 2.72212 3.77829 1.10397 1.63488C0.821676 2.15581 0.660365 2.76357 0.660365 3.41473C0.660365 4.64109 1.24008 5.72636 2.12224 6.36124C1.58286 6.34496 1.07876 6.18217 0.635161 5.91628C0.635161 5.93256 0.635161 5.94341 0.635161 5.95969C0.635161 7.67442 1.76938 9.10155 3.27158 9.42713C2.99433 9.50853 2.70699 9.55194 2.40454 9.55194C2.19282 9.55194 1.98614 9.53023 1.78954 9.48682C2.20794 10.8922 3.42281 11.9124 4.85948 11.945C3.73535 12.8946 2.31884 13.4589 0.781348 13.4589C0.514178 13.4589 0.257089 13.4426 0 13.4101C1.44171 14.414 3.17076 15 5.02584 15Z" fill="#EEEEEE"/>
</svg>
