<svg width="16" height="16" viewBox="0 0 16 16" fill="none" xmlns="http://www.w3.org/2000/svg">
<g clip-path="url(#clip0)">
<path fill-rule="evenodd" clip-rule="evenodd" d="M0 1.24272C0 0.985347 0.0839466 0.746245 0.227712 0.547905C0.27574 0.481646 0.330443 0.419937 0.390922 0.363615C0.602003 0.167043 0.883445 0.036096 1.19701 0.00641604C1.24183 0.00217338 1.28731 0 1.33333 0H14.6667C15.403 0 16 0.556386 16 1.24272V3.72817C16 4.4145 15.403 4.97089 14.6667 4.97089C13.9303 4.97089 13.3333 4.4145 13.3333 3.72817V2.48545H9.33333V13.5146H12C12.7364 13.5146 13.3333 14.071 13.3333 14.7573C13.3333 15.4436 12.7364 16 12 16H4C3.26362 16 2.66667 15.4436 2.66667 14.7573C2.66667 14.071 3.26362 13.5146 4 13.5146H6.66667V2.48545H2.66667V3.72817C2.66667 4.4145 2.06971 4.97089 1.33333 4.97089C0.596954 4.97089 0 4.4145 0 3.72817V1.24272Z" fill="#BDBDBD"/>
</g>
<defs>
<clipPath id="clip0">
<rect width="16" height="16" fill="white"/>
</clipPath>
</defs>
</svg>
