<svg width="16" height="16" viewBox="0 0 16 16" fill="none" xmlns="http://www.w3.org/2000/svg">
<path d="M3.11732 7.48003L5.92862 4.68389C8.0823 2.54181 11.5589 2.54542 13.6939 4.69194C15.8288 6.83847 15.8137 10.3151 13.66 12.4571L13.3036 12.8116C12.912 13.2011 12.2799 13.2004 11.8917 12.8102C11.5035 12.4199 11.5063 11.7878 11.8979 11.3983L12.2543 11.0438C13.6248 9.68068 13.6345 7.4683 12.2759 6.10233C10.9172 4.73636 8.70485 4.73407 7.33432 6.0972L4.52303 8.89335L7.71037 8.89666C8.2893 8.89726 8.75657 9.36706 8.75405 9.94599C8.75152 10.5249 8.28015 10.9938 7.70121 10.9932L2.05375 10.9873C1.47482 10.9867 1.00754 10.5169 1.01007 9.93796L1.03473 4.29055C1.03725 3.71161 1.50862 3.24279 2.08756 3.24339C2.6665 3.24399 3.13377 3.71379 3.13124 4.29272L3.11732 7.48003Z" fill="#EEEEEE"/>
</svg>
