<svg width="16" height="16" viewBox="0 0 16 16" fill="none" xmlns="http://www.w3.org/2000/svg">
<g id="Icons/16x16/Update">
<path id="Update" fill-rule="evenodd" clip-rule="evenodd" d="M7.84081 0.0442412C7.54774 -0.0904072 7.16674 0.0951892 7.16674 0.426351V1.62221L6.925 1.65576C3.55948 2.17754 1 4.87687 1 8.11404C1 9.85659 1.74523 11.5137 3.08663 12.7437C3.27294 12.9146 3.53377 13 3.77597 13C4.01816 13 4.27899 12.9146 4.4653 12.7437C4.85654 12.4021 4.85654 11.8212 4.4653 11.4795L4.27729 11.2947C3.42687 10.4144 2.95622 9.29396 2.95622 8.11404C2.95622 5.79065 4.78202 3.86019 7.16674 3.45018V4.50937L7.17441 4.58903C7.23465 4.89472 7.63681 5.04028 7.91197 4.85105L10.8184 2.81808L10.8901 2.75586C11.0576 2.57701 11.0336 2.30367 10.8184 2.15181L7.91197 0.0846761L7.84081 0.0442412ZM13.1221 3.25626C12.7867 2.91458 12.2166 2.91458 11.8813 3.25626C11.5291 3.59793 11.5291 4.17878 11.8813 4.52045L12.0534 4.70514C12.8305 5.58352 13.2394 6.69009 13.2394 7.88596C13.2394 10.2093 11.5962 12.1398 9.44996 12.5498V11.4906L9.44306 11.411C9.38884 11.1053 9.0269 10.9597 8.77926 11.149L6.16352 13.199L6.09893 13.2612C5.94823 13.4401 5.96976 13.7134 6.16352 13.8653L8.77926 15.9153L8.84331 15.9558C9.10707 16.0904 9.44996 15.9048 9.44996 15.5736V14.3778L9.68375 14.3402C12.7047 13.7966 15 11.1173 15 7.88596C15 6.14341 14.3293 4.48629 13.1221 3.25626Z" fill="#EEEEEE"/>
</g>
</svg>
