<svg xmlns="http://www.w3.org/2000/svg" width="16" height="16" viewBox="0 0 16 16">
    <path fill="#EEE" d="M15 13c.552 0 1 .447 1 .998v.997c0 .551-.448.998-1 .998H1c-.552 0-1-.447-1-.998v-.997C0 13.447.448 13 1 13h14zM7.995-.007c.132-.002.26.035.364.105l.074.059 6.37 5.77c.12.12.19.274.197.436-.003.286-.232.522-.533.57l-.102.007-3.315.037L11 12H5l.05-5.023-3.424-.037c-.169.001-.33-.06-.448-.17C1.06 6.66.996 6.514 1 6.36c-.005-.124.036-.245.113-.345l.065-.07 6.36-5.79c.121-.109.287-.168.457-.163z"/>
</svg>
