<svg width="16" height="16" viewBox="0 0 16 16" fill="none" xmlns="http://www.w3.org/2000/svg">
<path d="M11 8C12.1046 8 13 7.10457 13 6C13 4.89543 12.1046 4 11 4C9.89543 4 9 4.89543 9 6C9 7.10457 9.89543 8 11 8Z" fill="#EEEEEE"/>
<path d="M12.1672 9H11.8188C11.2888 8.9994 10.7645 9.08927 10.2792 9.2639C9.79394 9.43852 9.35828 9.69407 9 10.0143C9.70045 10.7973 10.0777 11.7432 10.0767 12.7143V13H16V12.1429C16.0003 11.7301 15.9013 11.3213 15.7088 10.9399C15.5163 10.5584 15.234 10.2119 14.8781 9.92C14.5221 9.62811 14.0995 9.39662 13.6343 9.23876C13.1692 9.0809 12.6707 8.99977 12.1672 9Z" fill="#EEEEEE"/>
<path d="M4.5 8C5.88071 8 7 6.88071 7 5.5C7 4.11929 5.88071 3 4.5 3C3.11929 3 2 4.11929 2 5.5C2 6.88071 3.11929 8 4.5 8Z" fill="#EEEEEE"/>
<path d="M4.82143 9H4.17857C3.62983 8.99999 3.08646 9.09887 2.57948 9.29102C2.07251 9.48317 1.61186 9.7648 1.22384 10.1199C0.835821 10.4749 0.52803 10.8964 0.318043 11.3603C0.108056 11.8242 -1.5617e-05 12.3214 1.6927e-09 12.8235L1.6927e-09 14H9V12.8235C8.99963 11.8096 8.55927 10.8372 7.77571 10.1203C6.99216 9.40328 5.92954 9.00034 4.82143 9Z" fill="#EEEEEE"/>
</svg>
