<svg width="16" height="16" viewBox="0 0 16 16" fill="none" xmlns="http://www.w3.org/2000/svg">
<path fill-rule="evenodd" clip-rule="evenodd" d="M1 8.11404C1 6.65808 1.51775 5.31092 2.39372 4.22174C3.51221 2.70324 5.21438 1.64639 7.16674 1.31257V0.426351C7.16674 0.0675924 7.61388 -0.120329 7.91197 0.0846761L10.8184 2.15181C11.0605 2.32265 11.0605 2.64724 10.8184 2.81808L7.91197 4.85105C7.61388 5.05605 7.16674 4.86813 7.16674 4.50937V3.45018C6.60687 3.54644 6.07781 3.7265 5.59595 3.97578C4.02867 4.89875 3 6.56239 3 8.5123C3 11.5413 5.46065 14 8.5 14C11.5394 14 14 11.5413 14 8.5123C14 7.23251 13.5622 6.05737 12.8268 5.12405C12.485 4.69024 12.5596 4.06148 12.9934 3.71969C13.4272 3.37789 14.056 3.45249 14.3978 3.8863C15.4009 5.15945 16 6.76733 16 8.5123C16 12.6494 12.6404 16 8.5 16C4.35965 16 1 12.6494 1 8.5123C1 8.44186 1.00097 8.37172 1.00289 8.30188C1.00097 8.23939 1 8.17677 1 8.11404ZM8.25195 10.2715L6.95703 6.63867C6.83594 6.2793 6.72461 6.02344 6.62305 5.87109C6.52539 5.71875 6.34375 5.64258 6.07812 5.64258C5.94141 5.64258 5.81445 5.67773 5.69727 5.74805C5.58008 5.81445 5.48828 5.90234 5.42188 6.01172C5.35547 6.11719 5.32227 6.22461 5.32227 6.33398C5.32227 6.4043 5.33398 6.48828 5.35742 6.58594C5.38477 6.68359 5.41602 6.7793 5.45117 6.87305C5.49023 6.9668 5.52734 7.06055 5.5625 7.1543L7.08594 10.9219C7.23828 11.2852 7.3457 11.5293 7.4082 11.6543C7.47461 11.7754 7.57422 11.8887 7.70703 11.9941C7.84375 12.0957 8.02539 12.1465 8.25195 12.1465C8.42773 12.1465 8.57617 12.1133 8.69727 12.0469C8.82227 11.9805 8.92578 11.8887 9.00781 11.7715C9.09375 11.6504 9.16992 11.5059 9.23633 11.3379C9.30664 11.1699 9.36328 11.0312 9.40625 10.9219L10.9414 7.11328C10.9844 7.00781 11.0215 6.91406 11.0527 6.83203C11.0879 6.75 11.1172 6.66211 11.1406 6.56836C11.168 6.47461 11.1816 6.39258 11.1816 6.32227C11.1816 6.14258 11.1094 5.98438 10.9648 5.84766C10.8242 5.71094 10.6523 5.64258 10.4492 5.64258C10.2344 5.64258 10.0742 5.70703 9.96875 5.83594C9.86328 5.96094 9.75586 6.17578 9.64648 6.48047L8.25195 10.2715Z" fill="#EEEEEE"/>
</svg>
