<svg width="16" height="16" viewBox="0 0 16 16" fill="none" xmlns="http://www.w3.org/2000/svg">
<path d="M8 16C3.59184 16 0 12.4082 0 8C0 3.59184 3.59184 0 8 0C12.4082 0 16 3.59184 16 8C16 12.4082 12.4082 16 8 16ZM8 1.50204C4.40816 1.50204 1.50204 4.40816 1.50204 8C1.50204 11.5918 4.40816 14.498 8 14.498C11.5918 14.498 14.498 11.5918 14.498 8C14.498 4.40816 11.5918 1.50204 8 1.50204Z" fill="#EEEEEE"/>
<path d="M10.1248 11C9.96034 11 9.7776 10.9394 9.63141 10.8384L7.36547 9.08081C7.12792 8.89899 7 8.61616 7 8.31313V3.9495C7 3.42424 7.38375 3 7.85886 3C8.33398 3 8.71773 3.42424 8.71773 3.9495V7.80808L10.6365 9.28283C11.0202 9.58586 11.1116 10.1717 10.8558 10.596C10.673 10.8586 10.3989 11 10.1248 11Z" fill="#EEEEEE"/>
</svg>
