<svg width="16" height="16" viewBox="0 0 16 16" fill="none" xmlns="http://www.w3.org/2000/svg">
<g id="Icons/16x16/wheel">
<path id="Shape" fill-rule="evenodd" clip-rule="evenodd" d="M14.8853 3.23937L15.9286 5.01119C16.0613 5.24385 16.0044 5.5302 15.7958 5.69128L14.5629 6.62192C14.7715 7.53468 14.7715 8.46533 14.5629 9.37808L15.7958 10.3087C16.0044 10.4698 16.0613 10.7562 15.9286 10.9888L14.8853 12.7606C14.7526 12.9933 14.468 13.1007 14.2025 13.0112L12.723 12.5101C11.9264 13.2438 10.959 13.7808 9.89679 14.085L9.65021 15.5526C9.61227 15.821 9.36569 16 9.08117 16H6.9378C6.65328 16 6.4067 15.821 6.36876 15.5526L6.10321 14.085C5.04101 13.7987 4.07365 13.2617 3.277 12.528L1.7975 13.0112C1.53195 13.1007 1.24743 12.9933 1.11466 12.7606L0.0714254 10.9888C-0.0613498 10.7562 -0.00444616 10.4698 0.204201 10.3087L1.45608 9.37808C1.24743 8.46533 1.24743 7.53468 1.45608 6.62192L0.223168 5.69128C-0.00444616 5.5302 -0.0613498 5.24385 0.0714254 5.01119L1.11466 3.23937C1.24743 3.00671 1.53195 2.89933 1.7975 2.98881L3.277 3.48993C4.07365 2.75615 5.04101 2.21924 6.10321 1.91499L6.34979 0.447427C6.38773 0.178971 6.63431 0 6.91883 0H9.0622C9.34672 0 9.5933 0.178971 9.63124 0.447427L9.89679 1.91499C10.959 2.20134 11.9264 2.73826 12.723 3.47204L14.2025 2.98881C14.468 2.89933 14.7526 3.00671 14.8853 3.23937ZM4.26667 8C4.26667 10.07 5.93003 11.7333 8 11.7333C10.0515 11.7149 11.7149 10.0515 11.7333 8C11.7333 5.93003 10.07 4.26667 8 4.26667C5.93003 4.26667 4.26667 5.93003 4.26667 8Z" fill="#EEEEEE"/>
</g>
</svg>
