<svg width="16" height="16" viewBox="0 0 16 16" fill="none" xmlns="http://www.w3.org/2000/svg">
<path d="M2.12937 8.00047L7.73973 1.69431C8.08514 1.30605 8.08564 0.677904 7.74127 0.29082C7.39449 -0.098962 6.83786 -0.0954873 6.49264 0.292554L0.260274 7.29786C0.260017 7.29815 0.25976 7.29843 0.259504 7.29872C0.259247 7.29901 0.258989 7.2993 0.258732 7.29959C0.0856026 7.49419 -0.000320395 7.74759 8.97698e-07 8.00085C0.000832018 8.25475 0.0868013 8.50809 0.258732 8.70134C0.258989 8.70163 0.259246 8.70192 0.259504 8.70221C0.25976 8.7025 0.260017 8.70279 0.260274 8.70308L6.49264 15.7084C6.83806 16.0966 7.39689 16.0972 7.74127 15.7101C8.08804 15.3203 8.08495 14.6947 7.73973 14.3066L2.12937 8.00047Z" fill="#EEEEEE"/>
<rect x="10" y="1" width="6" height="2" rx="1" fill="#EEEEEE"/>
<rect x="10" y="5" width="6" height="2" rx="1" fill="#EEEEEE"/>
<rect x="10" y="9" width="6" height="2" rx="1" fill="#EEEEEE"/>
<rect x="10" y="13" width="6" height="2" rx="1" fill="#EEEEEE"/>
</svg>
