<svg width="16" height="16" viewBox="0 0 16 16" fill="none" xmlns="http://www.w3.org/2000/svg">
<path d="M13.8706 7.99953L8.26027 14.3057C7.91485 14.694 7.91436 15.3221 8.25873 15.7092C8.60551 16.099 9.16214 16.0955 9.50736 15.7074L15.7397 8.70214C15.74 8.70185 15.7402 8.70157 15.7405 8.70128C15.7408 8.70099 15.741 8.7007 15.7413 8.70041C15.9144 8.50581 16.0003 8.25241 16 7.99915C15.9992 7.74525 15.9132 7.49191 15.7413 7.29866C15.741 7.29837 15.7408 7.29808 15.7405 7.29779C15.7402 7.2975 15.74 7.29721 15.7397 7.29692L9.50736 0.291621C9.16194 -0.0966371 8.60311 -0.0971959 8.25873 0.289888C7.91196 0.67967 7.91505 1.30533 8.26027 1.69338L13.8706 7.99953Z" fill="#EEEEEE"/>
<rect y="1" width="6" height="2" rx="1" fill="#EEEEEE"/>
<rect y="5" width="6" height="2" rx="1" fill="#EEEEEE"/>
<rect y="9" width="6" height="2" rx="1" fill="#EEEEEE"/>
<rect y="13" width="6" height="2" rx="1" fill="#EEEEEE"/>
</svg>
