<svg width="16" height="16" viewBox="0 0 16 16" fill="none" xmlns="http://www.w3.org/2000/svg">
<path fill-rule="evenodd" clip-rule="evenodd" d="M8.5 11C9.70948 11 10.7184 11.8589 10.95 13L16 13V14L10.95 14C10.7184 15.1411 9.70948 16 8.5 16C7.29052 16 6.28164 15.1411 6.05001 14L0 14V13L6.05001 13C6.28164 11.8589 7.29052 11 8.5 11ZM8.5 12C9.32843 12 10 12.6716 10 13.5C10 14.3284 9.32843 15 8.5 15C7.67157 15 7 14.3284 7 13.5C7 12.6716 7.67157 12 8.5 12Z" fill="#EEEEEE"/>
<path d="M11.9449 4.09601H11.9949V4.09437C12.7919 4.09437 13.5563 4.35279 14.1198 4.81278C14.6834 5.27278 15 5.89666 15 6.54719C15 7.19771 14.6834 7.8216 14.1198 8.28159C13.5563 8.74158 12.7919 9 11.9949 9H4.48228C4.4049 9 4.33002 8.99836 4.24813 8.99223C3.34427 8.93784 2.50133 8.59986 1.89614 8.04919C1.29096 7.49852 0.970549 6.77795 1.00213 6.03864C1.03371 5.29933 1.41483 4.59873 2.06554 4.0838C2.71625 3.56888 3.58599 3.27964 4.49229 3.27677C4.55598 3.27688 4.61733 3.25718 4.66385 3.22167C4.71038 3.18617 4.73858 3.13753 4.74272 3.08565C4.7745 2.69429 4.9639 1.89913 5.18406 1.5505C5.40423 1.20187 5.70985 0.8939 6.08195 0.645719C6.45405 0.397538 6.88469 0.214443 7.34711 0.107802C7.80954 0.00116054 8.29389 -0.0267496 8.77009 0.0258043C9.24629 0.0783582 9.70417 0.210254 10.1153 0.413302C10.5264 0.61635 10.882 0.886216 11.16 1.20614C11.438 1.52607 11.6325 1.88922 11.7313 2.27306C11.8301 2.6569 11.7718 3.46653 11.6751 3.85073C11.6671 3.88214 11.6682 3.91466 11.6784 3.94565C11.6886 3.97664 11.7076 4.00524 11.7339 4.02912C11.7602 4.053 11.7929 4.07151 11.8296 4.08313C11.8662 4.09475 11.9057 4.09916 11.9449 4.09601Z" fill="#EEEEEE"/>
<rect x="8" y="8" width="1" height="4" fill="#EEEEEE"/>
</svg>
