<svg width="16" height="16" viewBox="0 0 16 16" fill="none" xmlns="http://www.w3.org/2000/svg">
<path d="M6.30583 0.022047V2.96168L5.00183 3.71129L3.70148 2.94331V0.00367462C3.20274 0.245374 2.78002 0.620924 2.47995 1.08892C2.17987 1.55692 2.01408 2.09919 2.00086 2.65594C1.98764 3.21269 2.12749 3.76231 2.40501 4.24418C2.68253 4.72606 3.08694 5.12149 3.57363 5.38688V5.38688V7H6.42636V5.3832C6.91306 5.11782 7.31747 4.72239 7.59499 4.24051C7.8725 3.75863 8.01236 3.20902 7.99914 2.65226C7.98592 2.09551 7.82013 1.55324 7.52005 1.08525C7.21997 0.61725 6.79726 0.241699 6.29852 0L6.30583 0.022047Z" fill="#EEEEEE"/>
<path d="M5.7976 8H4.2024C3.81448 8 3.5 8.29015 3.5 8.64807V15.3519C3.5 15.7098 3.81448 16 4.2024 16H5.7976C6.18552 16 6.5 15.7098 6.5 15.3519V8.64807C6.5 8.29015 6.18552 8 5.7976 8Z" fill="#EEEEEE"/>
<path d="M11.2024 8L12.7976 8C13.1855 8 13.5 7.70985 13.5 7.35193L13.5 0.648071C13.5 0.290151 13.1855 4.49345e-07 12.7976 4.15431e-07L11.2024 2.75975e-07C10.8145 2.42061e-07 10.5 0.290151 10.5 0.648071L10.5 7.35193C10.5 7.70985 10.8145 8 11.2024 8Z" fill="#EEEEEE"/>
<path d="M10.5 11.9895L11.0072 16L12.9928 16L13.5 11.9895L12.7266 11.9895L12.7266 9L11.2734 9L11.2734 11.9895L10.5 11.9895Z" fill="#EEEEEE"/>
</svg>
