<svg width="16" height="16" viewBox="0 0 16 16" fill="none" xmlns="http://www.w3.org/2000/svg">
<path d="M12.9926 4.95851C12.9926 4.95851 13.0018 4.95851 12.9926 4.95851C12.9926 4.86621 12.9926 4.78314 12.9926 4.69085C12.9926 4.60778 12.9926 4.53394 12.9926 4.45088C12.9926 4.27551 12.9649 4.10938 12.9188 3.94325C12.9188 3.81403 12.8727 3.69405 12.8359 3.57406C12.8174 3.4633 12.7806 3.35255 12.7345 3.25102C12.7068 3.14027 12.6607 3.02951 12.6054 2.92799C12.5593 2.78031 12.4763 2.6511 12.3934 2.53111C12.3196 2.37421 12.2182 2.24499 12.1168 2.10655C11.7296 1.58046 11.2595 1.14667 10.7064 0.80517C9.87672 0.29754 8.98253 0.0298819 8.00536 0.00219304C7.64584 -0.0070366 7.2771 0.0114221 6.9268 0.0852592C6.64102 0.140637 6.34603 0.205243 6.07869 0.343688C6.02338 0.389836 5.94042 0.362147 5.90354 0.426754C5.85745 0.472902 5.7837 0.445215 5.73761 0.500593C5.69152 0.509822 5.64542 0.519053 5.60855 0.555971C5.46105 0.620579 5.33199 0.694413 5.20293 0.795939C5.05544 0.879006 4.92638 0.971303 4.80654 1.08206C4.70513 1.13744 4.62217 1.2205 4.54842 1.30357C4.46545 1.35895 4.40092 1.44202 4.3364 1.51585C4.25343 1.58046 4.1889 1.67276 4.11515 1.75582C4.00453 1.86658 3.91234 1.99579 3.82016 2.13424C3.71875 2.26345 3.62657 2.4019 3.56204 2.5588C3.49751 2.66956 3.4422 2.78031 3.40532 2.90953C3.35923 3.00182 3.31314 3.10335 3.2947 3.20487C3.26705 3.29717 3.23017 3.38024 3.20252 3.47253C3.14721 3.62021 3.11033 3.77711 3.08268 3.92479C3.0458 4.04477 2.99971 4.16476 3.0458 4.29397C3.0458 4.41396 3.10111 4.50625 3.17486 4.59855C3.22095 4.68162 3.2947 4.74622 3.38689 4.78314C3.50673 4.86621 3.65422 4.86621 3.7925 4.87544C3.92156 4.8939 4.05062 4.91236 4.17046 4.92159C4.61295 4.95851 5.04622 5.02311 5.48871 5.04157C5.65464 5.06003 5.82979 5.10618 5.99573 5.06926C6.0326 5.06003 6.05104 5.03234 6.06026 4.99542C6.08791 4.69085 6.26306 4.46934 6.47509 4.27551C6.61337 4.18322 6.75165 4.10938 6.89914 4.03554C6.99133 4.00785 7.07429 3.98016 7.16648 3.95248C7.25866 3.93402 7.34163 3.91556 7.43381 3.8971C7.51678 3.88787 7.59053 3.87864 7.6735 3.87864C7.76568 3.87864 7.84865 3.87864 7.94083 3.87864C8.00536 3.90633 8.07911 3.90633 8.15286 3.90633C8.23583 3.92479 8.30957 3.94325 8.39254 3.96171C8.51238 4.00785 8.623 4.054 8.74284 4.09092C8.81659 4.13707 8.89956 4.18322 8.97331 4.22936C9.07471 4.32166 9.17611 4.42319 9.27752 4.51548C9.38814 4.69085 9.48032 4.86621 9.46189 5.07849C9.40658 5.1431 9.35127 5.21694 9.29595 5.28154C9.21299 5.35538 9.1208 5.42922 9.03783 5.50305C8.97331 5.5492 8.90878 5.60458 8.84425 5.65073C8.75206 5.71534 8.66909 5.77071 8.57691 5.83532C8.45707 5.90916 8.32801 5.98299 8.20817 6.05683C8.1252 6.09375 8.04224 6.1399 7.96849 6.17682C7.88552 6.21374 7.81177 6.25065 7.72881 6.28757C7.64584 6.30603 7.56287 6.35218 7.48913 6.39833C7.40616 6.41679 7.32319 6.46294 7.24944 6.49986C7.15726 6.52754 7.06507 6.55523 6.99133 6.61061C6.89914 6.6383 6.80696 6.66599 6.72399 6.71214C6.3829 6.82289 6.05104 6.93365 5.70995 7.0444C5.66386 7.06286 5.65464 7.09055 5.65464 7.1367C5.65464 7.57972 5.66386 8.03197 5.66386 8.475C5.65464 8.5396 5.65464 8.59498 5.66386 8.65959C5.65464 8.70574 5.69152 8.70574 5.70995 8.7242C5.9312 8.83495 6.16166 8.93648 6.41056 9.00109C6.56727 9.05646 6.72399 9.10261 6.88992 9.1303C7.08351 9.18568 7.2771 9.21337 7.47069 9.23183C7.96849 9.29643 8.46629 9.2872 8.96409 9.20414C9.0194 9.20414 9.05627 9.23183 9.09315 9.26875C9.46189 9.55486 9.60938 9.93328 9.60016 10.3855C9.58173 10.4778 9.56329 10.5794 9.54485 10.6716C9.50798 10.7547 9.46189 10.8378 9.42501 10.9208C9.21299 11.2439 8.95487 11.4931 8.59535 11.6408C8.45707 11.6777 8.30957 11.7054 8.1713 11.7423C8.04224 11.7423 7.90396 11.7515 7.7749 11.7515C7.71959 11.7515 7.6735 11.7515 7.61818 11.7515C7.59975 11.7515 7.58131 11.7515 7.56287 11.7515C7.33241 11.7238 7.11117 11.6777 6.90836 11.5854C6.69633 11.4562 6.51196 11.2993 6.36447 11.1147C6.24463 10.9024 6.10635 10.6901 6.06948 10.4317C6.06026 10.3855 6.0326 10.3394 5.96807 10.3486C5.95885 10.3486 5.94042 10.3394 5.9312 10.3486C5.11997 10.4594 4.30874 10.5701 3.49751 10.6809C3.45142 10.6901 3.39611 10.6809 3.35923 10.727C3.16564 10.9947 2.95362 11.2623 3.00893 11.6315C3.00893 11.7977 3.03658 11.9546 3.08268 12.1115C3.10111 12.2499 3.12877 12.3884 3.18408 12.5176C3.21174 12.6468 3.25783 12.7668 3.31314 12.8868C3.35923 13.0344 3.42376 13.1821 3.50673 13.3113C3.57126 13.459 3.64501 13.5974 3.74641 13.7174C3.82016 13.8559 3.91234 13.9759 4.01375 14.0866C4.11515 14.2343 4.22577 14.3635 4.36405 14.4835C4.48389 14.6219 4.61295 14.7419 4.76045 14.8527C4.90794 14.9911 5.06466 15.1111 5.23981 15.2034C5.36887 15.3049 5.51636 15.3788 5.66386 15.4434C5.82979 15.5541 6.01416 15.6095 6.19853 15.6741C6.48431 15.7849 6.7793 15.8495 7.07429 15.9049C7.26788 15.951 7.46147 15.9695 7.66428 15.9879C8.59535 16.0433 9.49876 15.9141 10.3284 15.4803C10.8815 15.1942 11.3978 14.8342 11.785 14.3266C11.9878 14.1235 12.126 13.8743 12.2643 13.6251C12.3934 13.4498 12.4856 13.2559 12.5593 13.0529C12.6331 12.9052 12.6884 12.7575 12.7252 12.6006C12.7898 12.4622 12.799 12.3053 12.8266 12.1484C12.8727 12.0099 12.882 11.8715 12.882 11.7238C12.928 11.5023 12.9004 11.2808 12.8727 11.0501C12.8727 10.8932 12.8359 10.7455 12.799 10.5978C12.7898 10.4501 12.7437 10.3117 12.6884 10.1732C12.6791 10.0348 12.6054 9.92405 12.5501 9.80406C12.5132 9.65639 12.4487 9.52718 12.3657 9.40719C12.3104 9.25029 12.2274 9.11184 12.126 8.98263C12.0707 8.84418 11.9785 8.7242 11.8864 8.61344C11.7757 8.41962 11.6098 8.27195 11.49 8.07812L11.5729 7.99505C11.8771 7.72739 12.1353 7.42282 12.3381 7.07209C12.4118 6.97056 12.4763 6.86904 12.5224 6.74905C12.587 6.65676 12.6331 6.56446 12.6607 6.46294C12.716 6.37987 12.7437 6.28757 12.7621 6.18605C12.8174 6.11221 12.799 6.01991 12.8359 5.94608C12.8727 5.87224 12.8912 5.7984 12.8912 5.71534C12.9373 5.59535 12.9465 5.46614 12.9649 5.33692C12.9926 5.18925 13.011 5.07849 12.9926 4.95851ZM7.94083 7.61664C7.95005 7.61664 7.95927 7.61664 7.95927 7.61664C7.95927 7.61664 7.95005 7.61664 7.94083 7.61664C7.95005 7.62587 7.95005 7.62587 7.94083 7.61664C7.95005 7.62587 7.95005 7.62587 7.94083 7.61664ZM11.4623 9.90559C11.4623 9.90559 11.4623 9.91482 11.4623 9.90559V9.90559ZM6.29994 11.4562C6.29072 11.4562 6.29072 11.4562 6.29994 11.4562C6.29072 11.4562 6.29072 11.4562 6.29994 11.4562ZM7.68272 11.9823H7.6735C7.6735 11.9823 7.6735 11.9823 7.68272 11.9823Z" fill="#EEEEEE"/>
</svg>
