<svg width="16" height="16" viewBox="0 0 16 16" fill="none" xmlns="http://www.w3.org/2000/svg">
<path d="M11.8265 15.3557C10.9904 16.1979 10.0679 16.0666 9.18865 15.6695C8.25383 15.2644 7.39924 15.2388 6.41198 15.6695C5.18253 16.2203 4.53001 16.0602 3.78957 15.3557C-0.390865 10.8883 0.226172 4.08311 4.97736 3.82691C6.12968 3.89096 6.93646 4.48822 7.6152 4.53785C8.62406 4.32489 9.58972 3.71483 10.6695 3.79489C11.9669 3.90377 12.9372 4.43538 13.585 5.3913C10.9164 7.05657 11.5488 10.7073 14 11.7321C13.5095 13.0691 12.8801 14.3902 11.8249 15.3669L11.8265 15.3557ZM7.52264 3.77888C7.39769 1.79336 8.948 0.160122 10.7312 0C10.9765 2.28974 8.72587 4.00305 7.52264 3.77888Z" fill="#EEEEEE"/>
</svg>
