<svg width="16" height="16" viewBox="0 0 16 16" fill="none" xmlns="http://www.w3.org/2000/svg">
<path d="M15.9531 8.23922C15.8592 7.57956 15.6304 6.95399 15.2729 6.38007C14.961 5.87919 14.5609 5.43371 14.0833 5.05509L14.0846 5.0539L9.06873 1.20674C9.06512 1.20356 9.06135 1.20057 9.05743 1.19777C8.89067 1.0702 8.66488 1 8.42191 1C8.17862 1 7.94401 1.07035 7.76162 1.19818C7.56552 1.33497 7.45343 1.51648 7.4456 1.70969C7.43843 1.88994 7.52454 2.06339 7.6887 2.19859C8.01152 2.45295 8.33361 2.71285 8.65615 2.97306C8.96916 3.22571 9.2917 3.48589 9.61267 3.73919L3.46903 3.73503C2.76645 3.73503 2.28804 4.0645 2.18963 4.61609C2.14639 4.8577 2.2227 5.12335 2.39328 5.32681C2.57426 5.54249 2.83702 5.66147 3.13313 5.66147L3.60148 5.66178C4.24849 5.66178 4.89835 5.66019 5.54734 5.65862L6.16623 5.65718L0.59036 9.77666L0.568223 9.79282C0.256772 10.0312 0.0528744 10.3654 0.00888237 10.7097C-0.0244639 10.9706 0.0364674 11.2089 0.185164 11.3993C0.362384 11.6262 0.63908 11.751 0.964339 11.751C1.28387 11.751 1.60991 11.6301 1.88282 11.41L4.89388 8.94918C4.88101 9.06935 4.86538 9.24564 4.86717 9.37358C4.87055 9.57617 4.93568 9.98265 5.03878 10.3127C5.25182 10.9908 5.61068 11.6114 6.10533 12.1563C6.62002 12.7232 7.24687 13.1728 7.96834 13.4921C8.73108 13.829 9.55102 14 10.4055 14H10.4134C11.2706 13.9979 12.0931 13.8242 12.8583 13.4835C13.581 13.1604 14.2075 12.709 14.7203 12.1422C15.2143 11.5944 15.5727 10.9729 15.7853 10.2953C15.8905 9.95982 15.9579 9.6137 15.9862 9.26333C16.0125 8.9247 16.0012 8.58013 15.9531 8.23922V8.23922ZM10.4679 11.4898C8.58485 11.4898 7.05781 10.1257 7.05781 8.44283C7.05781 6.76019 8.58488 5.39607 10.4679 5.39607C12.351 5.39607 13.8779 6.76019 13.8779 8.44283C13.878 10.1257 12.351 11.4898 10.4679 11.4898ZM12.4345 8.17509C12.4623 8.67734 12.2614 9.1437 11.9086 9.48893C11.5497 9.84063 11.0377 10.0615 10.465 10.0615C9.89268 10.0615 9.38053 9.84063 9.02155 9.48893C8.66892 9.1437 8.46844 8.67741 8.49605 8.17549C8.52311 7.68762 8.76142 7.25697 9.12037 6.95205C9.47334 6.65222 9.94729 6.4693 10.465 6.4693C10.9828 6.4693 11.4566 6.65228 11.8096 6.95205C12.1688 7.25697 12.4071 7.68731 12.4345 8.17509V8.17509Z" fill="#EEEEEE"/>
</svg>
