<svg width="16" height="16" viewBox="0 0 16 16" fill="none" xmlns="http://www.w3.org/2000/svg">
<path d="M8.01467 3.41799C5.85734 3.80866 4.45134 4.61133 3.53334 5.36466C3.41867 5.80799 3.35134 6.26866 3.35134 6.74599C3.35134 9.94199 6.08001 12.5327 9.44534 12.5327C9.94734 12.5327 10.4233 12.4673 10.876 12.3567C11.848 11.1247 12.6433 8.97999 12.846 7.20466C13.0587 5.34733 13.4813 4.78466 14.0073 4.41799C14.194 4.28799 14.39 4.18866 14.5973 4.14133C14.006 2.87666 12.9713 1.88266 11.6347 1.36266C11.638 1.37733 11.644 1.38933 11.6473 1.40399C11.9013 2.48999 10.7433 2.92399 8.01467 3.41799ZM15.4527 5.26533C15.4313 5.22333 15.41 5.17599 15.388 5.12266C14.992 4.15266 14.04 4.78133 13.7887 5.35199C13.294 6.47599 13.3667 6.96666 13.166 8.10599C12.9653 9.24533 12.2747 11.4387 11.2807 12.5647C9.86067 14.1727 8.30734 14.8873 6.12934 14.6793C3.95134 14.4713 2.27267 12.6247 1.65134 11.286C1.13001 10.1627 1.05134 8.88866 1.66801 7.23733C2.28467 5.58599 4.13467 4.24333 5.82601 3.59799C7.51734 2.95266 8.85601 2.88933 9.79934 2.61466C10.7427 2.33933 11.2987 1.88599 11.264 1.49999C11.2207 1.02133 10.7593 0.76666 10.4987 0.659994C9.71201 0.407327 8.87134 0.27066 7.998 0.27066C3.59067 0.27066 0.0180054 3.74933 0.0180054 8.04066C0.0180054 12.332 3.59067 15.8107 7.998 15.8107C12.4053 15.8107 15.978 12.332 15.978 8.04066C15.9773 7.06266 15.7913 6.12733 15.4527 5.26533Z" fill="#EEEEEE"/>
</svg>
