<svg width="16" height="16" viewBox="0 0 16 16" fill="none" xmlns="http://www.w3.org/2000/svg">
<g style="mix-blend-mode:lighten">
<path d="M5.91918 4.68061C5.91358 4.82761 5.93969 4.9883 5.983 5.14903C6.06551 5.45485 6.20225 5.73506 6.3635 5.99975C6.73084 6.60166 7.19384 7.11698 7.69621 7.59543C7.73735 7.63476 7.78632 7.66797 7.83877 7.6933C7.89129 7.72061 7.94373 7.72061 7.998 7.69718C8.05045 7.67377 8.09737 7.64045 8.13676 7.59717C8.3111 7.41693 8.48343 7.23641 8.64845 7.05012C8.88083 6.78544 9.10213 6.51314 9.3027 6.22102C9.48465 5.95638 9.64761 5.67796 9.76746 5.37608C9.8873 5.07604 9.94557 4.76656 9.90622 4.44116C9.84061 3.90421 9.62139 3.44925 9.22955 3.09251C8.76624 2.67139 8.22658 2.50278 7.61926 2.5967C6.63147 2.74978 5.91537 3.65935 5.91918 4.68055V4.68061Z" fill="#EEEEEE"/>
</g>
<path d="M11.0313 11.9995C10.9069 12.0032 10.7673 11.9879 10.6278 11.9582C10.2149 11.8678 9.86415 11.6801 9.59463 11.3473C9.43073 11.1443 9.29293 10.9243 9.17415 10.693C9.03451 10.4204 8.91784 10.1364 8.81609 9.84893C8.69176 9.50119 8.58619 9.14585 8.50493 8.78669C8.4598 8.58548 8.51053 8.45943 8.73307 8.39011C9.01575 8.30178 9.30054 8.22281 9.59085 8.15877C10.0715 8.05345 10.5559 7.98589 11.0501 8.00255C11.1896 8.00815 11.3289 8.02313 11.4667 8.04757C11.8664 8.11722 12.2057 8.30148 12.4828 8.59278C12.9561 9.08911 13.1444 9.68132 13.0277 10.3564C12.8599 11.3209 12.0039 12.0071 11.0313 11.9995V11.9995Z" fill="#EEEEEE"/>
<path d="M4.80562 11.9995C4.92995 12.0032 5.06955 11.9879 5.20911 11.9582C5.62202 11.8678 5.97272 11.6801 6.24224 11.3473C6.40615 11.1443 6.54395 10.9243 6.66272 10.693C6.80236 10.4204 6.91904 10.1364 7.02078 9.84893C7.14511 9.50119 7.25068 9.14585 7.33194 8.78669C7.37707 8.58548 7.32634 8.45943 7.1038 8.39011C6.82112 8.30178 6.53633 8.22281 6.24603 8.15877C5.7654 8.05345 5.28095 7.98589 4.78682 8.00255C4.64722 8.00815 4.50792 8.02313 4.37013 8.04757C3.97043 8.11722 3.63116 8.30148 3.35407 8.59278C2.88076 9.08911 2.6925 9.68132 2.80921 10.3564C2.97695 11.3209 3.83293 12.0071 4.80562 11.9995V11.9995Z" fill="#EEEEEE"/>
<circle cx="8" cy="8" r="7.5" stroke="#EEEEEE"/>
</svg>
