<svg width="16" height="16" viewBox="0 0 16 16" fill="none" xmlns="http://www.w3.org/2000/svg">
<path fill-rule="evenodd" clip-rule="evenodd" d="M11.8082 14C14.8356 13.9 16 11.8286 16 11.8286C16 7.22864 14.0274 3.5001 14.0274 3.5001C12.0548 1.95726 10.1781 2.00012 10.1781 2.00012L9.9863 2.22869C12.3151 2.97154 13.3973 4.04296 13.3973 4.04296C11.9726 3.22868 10.5753 2.82868 9.27397 2.67154C8.28767 2.55726 7.34247 2.58583 6.50685 2.70011L6.27397 2.72868C5.79452 2.77154 4.63014 2.95725 3.16438 3.62867C2.65753 3.87153 2.35616 4.04296 2.35616 4.04296C2.35616 4.04296 3.49315 2.9144 5.9589 2.17155L5.82192 2.00012C5.82192 2.00012 3.94521 1.95726 1.9726 3.5001C1.9726 3.5001 0 7.22864 0 11.8286C0 11.8286 1.15068 13.9 4.17808 14C4.17808 14 4.68493 13.3571 5.09589 12.8143C3.35616 12.2714 2.69863 11.1286 2.69863 11.1286L3.08219 11.3715L3.13699 11.4143L3.19064 11.4465L3.20662 11.4536L3.26027 11.4857C3.60274 11.6857 3.9452 11.8429 4.26027 11.9714C4.82192 12.2 5.49315 12.4286 6.27397 12.5857C7.30137 12.7857 8.50685 12.8572 9.82192 12.6C10.4658 12.4857 11.1233 12.2857 11.8082 11.9857C12.2877 11.8 12.8219 11.5286 13.3836 11.1429C13.3836 11.1429 12.6986 12.3143 10.9041 12.8429C11.3151 13.3857 11.8082 14 11.8082 14ZM5.43836 7.32864C4.65753 7.32864 4.0411 8.04292 4.0411 8.91434C4.0411 9.78576 4.67123 10.5 5.43836 10.5C6.21918 10.5 6.83562 9.78576 6.83562 8.91434C6.84932 8.04292 6.21918 7.32864 5.43836 7.32864ZM10.4384 7.32864C9.65753 7.32864 9.0411 8.04292 9.0411 8.91434C9.0411 9.78576 9.67123 10.5 10.4384 10.5C11.2192 10.5 11.8356 9.78576 11.8356 8.91434C11.8356 8.04292 11.2192 7.32864 10.4384 7.32864Z" fill="#EEEEEE"/>
</svg>
