<svg width="16" height="16" viewBox="0 0 16 16" fill="none" xmlns="http://www.w3.org/2000/svg">
<path fill-rule="evenodd" clip-rule="evenodd" d="M16 15.1169C16 15.6046 15.6046 16 15.117 16L11.0398 16V9.80393H13.1195L13.4309 7.38921H11.0398V5.84756C11.0398 5.14844 11.2339 4.67201 12.2364 4.67201L13.5151 4.67146V2.51171C13.294 2.48228 12.5349 2.41653 11.6519 2.41653C9.80828 2.41653 8.54612 3.54185 8.54612 5.60841V7.38921H6.46104V9.80393H8.54612V16L0.883077 16C0.395224 16 0 15.6045 0 15.1169V0.883071C0 0.395284 0.395286 0 0.883077 0H15.117C15.6047 0 16 0.395284 16 0.883071V15.1169Z" fill="#EEEEEE"/>
</svg>
