<svg width="16" height="16" viewBox="0 0 16 16" fill="none" xmlns="http://www.w3.org/2000/svg">
<path d="M0.486688 16C-0.0435404 15.6429 -0.11847 15.3468 0.178646 14.7754C1.083 13.0367 1.6304 11.2 1.79327 9.25257C2.02846 6.44317 1.4821 3.78667 0.193215 1.26984C-0.122632 0.653714 -0.0705982 0.419556 0.486688 0C0.642791 0 0.798894 0 0.954996 0C1.31299 0.163556 1.46753 0.489651 1.62624 0.809651C2.46295 2.49854 3.01451 4.27175 3.23201 6.13689C3.53745 8.75327 3.20392 11.296 2.25845 13.762C2.03939 14.3324 1.77974 14.8856 1.50708 15.4331C1.39 15.6688 1.2313 15.8593 1.00703 16C0.833236 16 0.659962 16 0.486688 16Z" fill="#EEEEEE"/>
<path d="M6.67966 8.02845C6.6604 10.013 6.28888 11.9299 5.52293 13.7712C5.35434 14.176 5.09886 14.3523 4.72057 14.3264C4.1997 14.2908 3.92236 13.8027 4.13882 13.2643C4.39275 12.6329 4.61598 11.9929 4.77624 11.3326C5.47142 8.47492 5.2867 5.67416 4.20335 2.93232C4.13206 2.75149 4.03475 2.57676 4.04672 2.37409C4.06702 2.02565 4.3225 1.74425 4.66697 1.68635C5.00363 1.62997 5.33613 1.80622 5.48235 2.14146C5.72379 2.6946 5.92048 3.26451 6.08803 3.84305C6.48609 5.21143 6.66821 6.60876 6.67966 8.02845Z" fill="#EEEEEE"/>
<path d="M9.90995 7.83441C9.90943 9.2866 9.75697 10.56 9.44216 11.8136C9.35578 12.1569 9.02953 12.3982 8.70535 12.3825C8.35777 12.3657 8.05961 12.1117 7.99405 11.779C7.96699 11.6414 7.99665 11.5098 8.02995 11.3783C8.30573 10.2888 8.41969 9.17688 8.42749 8.06095C8.4353 6.96177 8.31562 5.86717 8.06273 4.79085C8.0185 4.60292 7.95086 4.41498 7.99665 4.21638C8.06898 3.90399 8.36089 3.66171 8.67778 3.65053C9.05867 3.63682 9.34694 3.83644 9.44632 4.20215C9.61335 4.81625 9.72158 5.44253 9.79183 6.07288C9.86207 6.71136 9.93544 7.35085 9.90995 7.83441Z" fill="#EEEEEE"/>
<path d="M12.9757 7.99797C12.9721 8.5313 12.9346 9.0626 12.8654 9.59136C12.8446 9.75086 12.8113 9.90832 12.7026 10.0404C12.4918 10.2954 12.1396 10.3878 11.8352 10.2644C11.5282 10.1399 11.3367 9.83974 11.3793 9.51009C11.5089 8.5059 11.5079 7.50324 11.3793 6.49854C11.3315 6.1247 11.613 5.77219 11.9918 5.7021C12.3638 5.63302 12.7312 5.86464 12.8301 6.25625C12.9487 6.72711 12.9336 7.21371 12.9747 7.69321C12.983 7.79429 12.9757 7.89638 12.9757 7.99797Z" fill="#EEEEEE"/>
<path d="M16 8.01475C15.9979 8.47647 15.6316 8.83761 15.1659 8.8371C14.7158 8.83659 14.3214 8.44447 14.3302 8.0051C14.3391 7.56117 14.7085 7.20866 15.1649 7.20764C15.655 7.20713 16.0021 7.54237 16 8.01475Z" fill="#EEEEEE"/>
</svg>
