<svg width="16" height="16" viewBox="0 0 16 16" fill="none" xmlns="http://www.w3.org/2000/svg">
<g clip-path="url(#clip0_4000_17507)">
<path d="M1.20962 12.9987L1.91523 14.1923C2.06186 14.4436 2.27262 14.641 2.52005 14.7846L5.04009 10.5128H0C0 10.791 0.0733104 11.0692 0.219931 11.3205L1.20962 12.9987Z" fill="#EEEEEE"/>
<path d="M8 5.48719L5.47995 1.21539C5.23253 1.35898 5.02176 1.55642 4.87514 1.8077L0.219931 9.70514C0.076007 9.951 0.000191627 10.2294 0 10.5128H5.04009L8 5.48719Z" fill="#EEEEEE"/>
<path d="M13.4799 14.7846C13.7274 14.641 13.9381 14.4436 14.0848 14.1923L14.378 13.6987L15.7801 11.3205C15.9267 11.0692 16 10.791 16 10.5128H10.9595L12.0321 12.5769L13.4799 14.7846Z" fill="#EEEEEE"/>
<path d="M8.00003 5.48718L10.5201 1.21538C10.2727 1.07179 9.98857 1 9.69533 1H6.30472C6.01148 1 5.7274 1.08077 5.47998 1.21538L8.00003 5.48718Z" fill="#EEEEEE"/>
<path d="M10.9599 10.5128H5.04007L2.52002 14.7846C2.76744 14.9282 3.05152 15 3.34476 15H12.6552C12.9484 15 13.2325 14.9192 13.4799 14.7846L10.9599 10.5128Z" fill="#EEEEEE"/>
<path d="M13.4525 5.75642L11.1249 1.8077C10.9782 1.55642 10.7675 1.35898 10.52 1.21539L8 5.48719L10.9599 10.5128H15.9908C15.9908 10.2346 15.9175 9.95642 15.7709 9.70514L13.4525 5.75642Z" fill="#EEEEEE"/>
</g>
<defs>
<clipPath id="clip0_4000_17507">
<rect width="16" height="14" fill="white" transform="translate(0 1)"/>
</clipPath>
</defs>
</svg>
