<svg width="16" height="16" viewBox="0 0 16 16" fill="none" xmlns="http://www.w3.org/2000/svg">
<path fill-rule="evenodd" clip-rule="evenodd" d="M14.8157 0H1.18093C0.529402 0 0 0.516408 0 1.15275V14.8456C0 15.4826 0.529402 16 1.18093 16H14.8157C15.4682 16 16 15.4829 16 14.8456V1.15275C15.9998 0.516408 15.4682 0 14.8157 0ZM2.37214 5.99841H4.74548V13.634H2.37214V5.99841ZM3.55932 2.20264C4.31794 2.20264 4.93484 2.81922 4.93484 3.5782C4.93484 4.33786 4.31828 4.95444 3.55932 4.95444C2.79883 4.95444 2.18329 4.33786 2.18329 3.5782C2.18312 2.81955 2.79883 2.20264 3.55932 2.20264ZM8.50988 5.99838H6.23401H6.23367V13.634H8.60465V9.85665C8.60465 8.861 8.79434 7.89627 10.0293 7.89627C11.2462 7.89627 11.2626 9.03516 11.2626 9.92067V13.634H13.6341V9.44583C13.6341 7.39 13.1902 5.80851 10.7871 5.80851C9.63269 5.80851 8.85853 6.44148 8.54164 7.04184H8.50988V5.99838Z" fill="#EEEEEE"/>
</svg>
