<svg width="16" height="16" viewBox="0 0 16 16" fill="none" xmlns="http://www.w3.org/2000/svg">
<path d="M11.1973 0.466339H16L9.58118 12.9335C9.58118 12.9335 8.49972 9.63071 8.03491 8.45201" fill="#EEEEEE"/>
<path d="M12.382 15.8818H16V0.466339C15.997 8.52215 12.777 15.8818 12.382 15.8818Z" fill="#EEEEEE"/>
<path d="M9.58125 12.9335H6.59504L6.10352e-05 0.466345C1.16961 0.309839 3.50566 0.0989711 4.66301 0L9.58125 12.9335Z" fill="#EEEEEE"/>
<path d="M3.82454 8.01114C2.83418 12.1253 -0.00301522 16.0032 2.4053e-06 16C3.28687 16 3.99468 15.4986 3.99468 15.2333C3.99468 15.0864 3.99468 10.4962 3.99468 8.32424C3.93699 8.22201 3.88227 8.1166 3.82454 8.01114Z" fill="#EEEEEE"/>
<path d="M0 0.466339V16C1.79828 12.876 2.84642 10.8317 3.77292 7.91852C1.48849 3.67018 0 0.466339 0 0.466339Z" fill="#EEEEEE"/>
<path d="M12.1329 15.2717L12.382 15.8819V7.7876L12.1329 8.22515" fill="#EEEEEE"/>
<path d="M12.3699 7.8035V15.8563L12.3789 15.8818C12.6372 15.8818 15.997 7.16781 15.997 0.466339C15.997 0.466339 13.9465 4.96385 12.3699 7.8035Z" fill="#EEEEEE"/>
</svg>
