<svg width="16" height="16" viewBox="0 0 16 16" fill="none" xmlns="http://www.w3.org/2000/svg">
<path d="M8 16C3.58968 16 0 12.4103 0 8C0 3.58968 3.58968 0 8 0C12.4103 0 16 3.58968 16 8C16 12.4103 12.4103 16 8 16ZM8 0.863827C4.06479 0.863827 0.863827 4.06479 0.863827 8C0.863827 11.9352 4.06479 15.1362 8 15.1362C11.9352 15.1362 15.1362 11.9352 15.1362 8C15.1362 4.06479 11.9352 0.863827 8 0.863827Z" fill="#EEEEEE"/>
<path d="M7.29934 6.64667L9.38213 8.89263C9.46851 8.97901 9.5213 9.09418 9.5213 9.21416L9.33414 13.6677C9.32934 14.018 9.55969 14.2963 9.89083 14.1812C11.8584 13.4949 13.063 12.4103 13.6581 10.9946C13.7445 10.793 13.7205 10.5627 13.5717 10.4043L11.7577 8.47031C11.6185 8.32634 11.5417 8.13438 11.5417 7.93282L11.5273 6.85783C11.5273 6.57949 11.7529 6.35873 12.0312 6.35873L13.4853 6.37793C14.1716 6.37793 14.2292 6.12358 14.1284 5.84524C13.4517 3.96401 12.228 2.63468 10.3659 1.93402C10.1548 1.85243 9.92442 2.0012 9.91482 2.22676L9.79484 4.12238C9.78525 4.32874 9.61728 4.48711 9.41572 4.48711L8.39832 4.48231C8.12958 4.48231 7.89922 4.35273 7.78885 4.24236L5.73006 2.18357C5.60528 2.06359 5.42292 2.0252 5.26455 2.09718C3.61368 2.85063 2.48111 4.06959 1.81884 5.79245C1.71806 6.06119 1.93402 6.34434 2.22196 6.34434L6.65147 6.37313C6.89143 6.38273 7.12658 6.47871 7.29934 6.64667V6.64667ZM8.75345 5.46131C9.0366 5.18777 9.71326 5.32214 10.1692 5.79245C10.6203 6.26275 10.8938 6.92982 10.4667 7.28495C10.1644 7.5345 9.66527 7.44332 9.17097 7.0162C8.61908 6.54589 8.43192 5.77325 8.75345 5.46131V5.46131Z" fill="#EEEEEE"/>
</svg>
