<svg width="16" height="16" viewBox="0 0 16 16" fill="none" xmlns="http://www.w3.org/2000/svg">
<path d="M9.66629 9.74834L12.9689 6.66727C12.2829 4.05776 9.55827 2.48485 6.88331 3.15408C5.6787 3.45545 4.63243 4.18393 3.94873 5.19731C3.99985 5.19605 9.66629 9.74834 9.66629 9.74834Z" fill="#BDBDBD"/>
<path d="M6.10113 5.77733L6.10098 5.77786C5.46992 5.39657 4.74213 5.19503 3.99983 5.19602C3.98268 5.19602 3.96582 5.19708 3.94871 5.19728C1.74073 5.22396 -0.0270258 6.99171 0.00031287 9.14567C0.0102232 9.927 0.260481 10.6874 0.718637 11.3283L5.66645 10.7238L9.45983 7.73991L6.10113 5.77733Z" fill="#BDBDBD"/>
<path d="M12.9689 6.66727C12.8963 6.66255 12.8233 6.65927 12.7495 6.65927C12.3064 6.65885 11.868 6.74713 11.4613 6.91865L11.4612 6.91832L9.45984 7.73993L11.6662 10.3987L15.6107 11.3341C16.4619 9.79248 15.8709 7.86963 14.2906 7.03924C13.8823 6.82467 13.4316 6.69785 12.9689 6.66729V6.66727H12.9689Z" fill="#EEEEEE"/>
<path d="M0.718689 11.3284C1.46577 12.3762 2.69152 13.0007 3.99989 13H12.7495C13.9448 13.0003 15.0437 12.3605 15.6107 11.3341L9.45988 7.73993L0.718689 11.3284Z" fill="#EEEEEE"/>
</svg>
