<svg width="16" height="16" viewBox="0 0 16 16" fill="none" xmlns="http://www.w3.org/2000/svg">
<path fill-rule="evenodd" clip-rule="evenodd" d="M14.2602 2.83647C14.9456 3.01765 15.4859 3.54824 15.6704 4.22118C16.0131 5.45059 15.9999 8.01294 15.9999 8.01294C15.9999 8.01294 15.9999 10.5624 15.6704 11.7918C15.4859 12.4647 14.9456 12.9953 14.2602 13.1765C13.0082 13.5 7.99997 13.5 7.99997 13.5C7.99997 13.5 3.00493 13.5 1.7397 13.1635C1.05436 12.9824 0.514001 12.4518 0.329488 11.7788C0 10.5624 0 8 0 8C0 8 0 5.45059 0.329488 4.22118C0.514001 3.54824 1.06754 3.00471 1.7397 2.82353C2.99175 2.5 7.99997 2.5 7.99997 2.5C7.99997 2.5 13.0082 2.5 14.2602 2.83647ZM6.40521 5.64468L10.5699 7.99997L6.40521 10.3553V5.64468Z" fill="#EEEEEE"/>
</svg>
