<svg fill='#eeeeee' id="Layer_1" enable-background="new 0 0 512 512" height="512" viewBox="0 0 512 512" width="512" xmlns="http://www.w3.org/2000/svg"><path clip-rule="evenodd" d="m502.439 125.304c-3.471 3.472-8.024 5.208-12.592 5.208-4.548 0-9.111-1.736-12.587-5.208l-94.909-94.912c-6.942-6.942-6.942-18.232 0-25.174 6.958-6.958 18.232-6.958 25.19 0l94.899 94.897c6.957 6.958 6.957 18.233-.001 25.189zm-471.965 161.169c0 124.35 101.174 225.527 225.526 225.527 124.363 0 225.526-101.177 225.526-225.527 0-124.361-101.163-225.526-225.526-225.526-124.352 0-225.526 101.164-225.526 225.526zm285.652 85.305-72.713-72.716c-3.34-3.339-5.225-7.868-5.225-12.589v-146.923c0-9.84 7.981-17.809 17.812-17.809 9.84 0 17.807 7.969 17.807 17.809v139.543l67.509 67.505c6.942 6.946 6.942 18.222 0 25.179-3.487 3.483-8.034 5.22-12.603 5.22-4.553.001-9.111-1.736-12.587-5.219zm-293.978-241.266c-4.553 0-9.105-1.736-12.587-5.208-6.958-6.956-6.958-18.231 0-25.189l94.898-94.897c6.953-6.958 18.232-6.958 25.185 0 6.958 6.942 6.958 18.232 0 25.174l-94.898 94.912c-3.482 3.473-8.035 5.208-12.598 5.208z" fill-rule="evenodd"/></svg>