<svg fill='#eeeeee' id="Layer_1" enable-background="new 0 0 512 512" height="512" viewBox="0 0 512 512" width="512" xmlns="http://www.w3.org/2000/svg"><path clip-rule="evenodd" d="m89.892 511.997.003.003h332.21c.001-.001.002-.002.003-.003v-410.503c0-14.334-11.674-26.02-26.01-26.02h-62.357v-49.454c0-14.333-11.674-26.02-26.01-26.02h-103.413c-14.355 0-26.06 11.656-26.06 26.02v49.454h-62.357c-14.336 0-26.009 11.687-26.009 26.02zm262.828-100.862c0 9.426-7.649 17.07-17.059 17.07h-159.322c-9.461 0-17.06-7.644-17.06-17.07 0-9.425 7.599-17.064 17.06-17.064h159.322c9.41 0 17.059 7.638 17.059 17.064zm-17.059-96.685c9.41 0 17.059 7.644 17.059 17.069s-7.649 17.064-17.059 17.064h-159.322c-9.461 0-17.06-7.639-17.06-17.064s7.599-17.069 17.06-17.069zm0-79.616c9.41 0 17.059 7.645 17.059 17.07s-7.649 17.064-17.059 17.064h-159.322c-9.461 0-17.06-7.639-17.06-17.064s7.599-17.07 17.06-17.07zm0-79.615c9.41 0 17.059 7.644 17.059 17.069 0 9.426-7.649 17.064-17.059 17.064h-159.322c-9.461 0-17.06-7.639-17.06-17.064s7.599-17.069 17.06-17.069z" fill-rule="evenodd"/></svg>