<svg fill='#eeeeee' id="Layer_1" enable-background="new 0 0 512 512" height="512" viewBox="0 0 512 512" width="512" xmlns="http://www.w3.org/2000/svg"><path clip-rule="evenodd" d="m89.892 511.997.003.003 332.21-.001c.001-.001.002-.002.003-.003v-410.502c0-14.334-11.674-26.02-26.01-26.02h-62.357v-49.454c0-14.333-11.674-26.02-26.01-26.02h-103.413c-14.355 0-26.06 11.656-26.06 26.02v49.454h-62.357c-14.336 0-26.01 11.687-26.01 26.02zm166.108-161.812c16.772 0 30.438 13.674 30.438 30.445 0 16.776-13.662 30.441-30.438 30.441-16.796 0-30.437-13.646-30.437-30.441 0-16.789 13.644-30.445 30.437-30.445zm0-29.05c-16.791 0-30.437-13.653-30.437-30.441v-116.653c0-16.795 13.64-30.446 30.437-30.446 16.776 0 30.438 13.67 30.438 30.446v116.652c-.001 16.77-13.669 30.442-30.438 30.442z" fill-rule="evenodd"/></svg>