<svg fill='#eeeeee' id="Layer_1" enable-background="new 0 0 512 512" height="512" viewBox="0 0 512 512" width="512" xmlns="http://www.w3.org/2000/svg"><path clip-rule="evenodd" d="m74.409 255.998c0 8.841-7.157 16.003-15.998 16.003h-42.408c-8.832 0-16.003-7.162-16.003-16.003s7.171-15.998 16.003-15.998h42.408c8.841 0 15.998 7.157 15.998 15.998zm.571-158.391c-6.251-6.251-6.251-16.38 0-22.627 6.251-6.251 16.38-6.251 22.631 0l29.991 29.986c6.246 6.251 6.246 16.385 0 22.631-3.133 3.118-7.223 4.68-11.323 4.68-4.09 0-8.19-1.562-11.309-4.68zm181.023 15.892c-78.565 0-142.49 63.925-142.49 142.499s63.925 142.498 142.49 142.498c78.574 0 142.498-63.924 142.498-142.498s-63.924-142.499-142.498-142.499zm-16.003-55.092v-42.409c0-8.841 7.171-15.998 16.002-15.998 8.841 0 15.998 7.157 15.998 15.998v42.409c0 8.841-7.157 16.003-15.998 16.003-8.831-.001-16.002-7.162-16.002-16.003zm144.411 69.191c-6.251-6.246-6.251-16.38 0-22.631l29.982-29.986c6.246-6.251 16.38-6.251 22.626 0 6.251 6.246 6.251 16.376 0 22.627l-29.986 29.991c-3.123 3.118-7.223 4.68-11.314 4.68-4.099-.001-8.184-1.563-11.308-4.681zm127.589 128.4c0 8.841-7.157 16.003-15.998 16.003h-42.409c-8.832 0-16.003-7.162-16.003-16.003s7.171-15.998 16.003-15.998h42.409c8.841 0 15.998 7.157 15.998 15.998zm-74.98 158.391c6.251 6.251 6.251 16.38 0 22.632-3.118 3.118-7.218 4.689-11.309 4.689-4.1 0-8.19-1.571-11.318-4.689l-29.982-29.991c-6.251-6.251-6.251-16.38 0-22.631 6.251-6.242 16.38-6.242 22.622 0zm-165.02 39.2v42.413c0 8.836-7.157 15.998-15.998 15.998-8.832 0-16.003-7.162-16.003-15.998v-42.413c0-8.841 7.171-15.998 16.003-15.998 8.841 0 15.998 7.157 15.998 15.998zm-144.397-69.192c6.246 6.251 6.246 16.38 0 22.631l-29.992 29.992c-3.123 3.118-7.218 4.689-11.309 4.689-4.105 0-8.19-1.571-11.323-4.689-6.251-6.251-6.251-16.381 0-22.632l29.991-29.991c6.252-6.241 16.382-6.246 22.633 0z" fill-rule="evenodd"/></svg>