<svg fill='#eeeeee' id="Layer_1" enable-background="new 0 0 512 512" height="512" viewBox="0 0 512 512" width="512" xmlns="http://www.w3.org/2000/svg"><path clip-rule="evenodd" d="m511.998 480.979c0 6.928-5.607 12.574-12.563 12.574h-486.86c-6.928 0-12.573-5.645-12.573-12.574v-357.387c0-6.928 5.645-12.568 12.573-12.568h96.114c6.012 0 11.646-2.96 15.065-7.915l58.285-84.661h147.928l58.301 84.661c3.402 4.955 9.042 7.915 15.048 7.915h96.119c6.955 0 12.563 5.64 12.563 12.568zm-255.995-350.588c-82.672 0-149.945 67.268-149.945 149.951 0 82.688 67.273 149.939 149.945 149.939 82.688 0 149.956-67.252 149.956-149.939-.001-82.684-67.268-149.951-149.956-149.951zm0 263.323c62.517 0 113.383-50.861 113.383-113.372 0-62.518-50.866-113.378-113.383-113.378-62.512 0-113.372 50.86-113.372 113.378-.001 62.511 50.86 113.372 113.372 113.372z" fill-rule="evenodd"/></svg>