<svg fill='#eeeeee' id="Layer_1" enable-background="new 0 0 512 512" height="512" viewBox="0 0 512 512" width="512" xmlns="http://www.w3.org/2000/svg"><path clip-rule="evenodd" d="m89.893 511.997c.001.001.002.002.003.003l332.21-.001.003-.003v-410.502c0-14.334-11.674-26.02-26.01-26.02h-62.357v-49.454c0-14.333-11.674-26.02-26.01-26.02h-103.414c-14.355 0-26.06 11.656-26.06 26.02v49.454h-62.357c-14.336 0-26.01 11.687-26.01 26.02zm179.404-366.825.005 107.96h84.632v.002l-111.214 156.355c-.003.002-.014.005-.023.006.007-.002-.001-.007-.004-.014l.002-107.983h-84.6c-.008 0-.02-.005-.03-.011.004-.001.005-.011.007-.018z" fill-rule="evenodd"/></svg>