<svg fill='#eeeeee' id="Layer_1" enable-background="new 0 0 512 512" height="512" viewBox="0 0 512 512" width="512" xmlns="http://www.w3.org/2000/svg"><path clip-rule="evenodd" d="m383.542 292.434h-255.084c-10.099 0-18.283-8.192-18.283-18.285 0-10.101 8.185-18.286 18.283-18.286h255.084c10.104 0 18.283 8.185 18.283 18.286 0 10.093-8.179 18.285-18.283 18.285zm18.283-158.183c0 10.104-8.179 18.286-18.283 18.286h-255.084c-10.099 0-18.283-8.182-18.283-18.286 0-10.09 8.185-18.286 18.283-18.286h255.084c10.104.001 18.283 8.196 18.283 18.286zm68.131-125.11h-427.906c-23.185 0-42.05 18.871-42.05 42.048v311.498c0 23.187 18.866 42.056 42.05 42.056h146.748c6.535 0 12.568 3.486 15.835 9.143l51.367 88.973 51.373-88.973c3.268-5.657 9.301-9.143 15.836-9.143h146.748c23.185 0 42.045-18.869 42.045-42.056v-311.498c-.001-23.176-18.862-42.048-42.046-42.048z" fill-rule="evenodd"/></svg>