<svg fill='#eeeeee' id="Layer_1" enable-background="new 0 0 512 512" height="512" viewBox="0 0 512 512" width="512" xmlns="http://www.w3.org/2000/svg"><path clip-rule="evenodd" d="m256.001 512.001c141.159 0 255.999-114.846 255.999-256.001 0-141.152-114.84-256.001-255.999-256.001s-256.001 114.849-256.001 256.001c0 141.155 114.842 256.001 256.001 256.001zm144.719-318.472-163.726 163.726c-5.144 5.143-12.121 8.038-19.395 8.038s-14.251-2.895-19.394-8.038l-86.926-86.925c-10.705-10.705-10.708-28.083.003-38.786 10.713-10.704 28.076-10.707 38.786.002l67.531 67.525 144.33-144.324c10.71-10.709 28.076-10.707 38.787-.002 10.709 10.703 10.71 28.078.004 38.784z" fill-rule="evenodd"/></svg>