<svg fill='#eeeeee' id="Layer_1" enable-background="new 0 0 512 512" height="512" viewBox="0 0 512 512" width="512" xmlns="http://www.w3.org/2000/svg"><path clip-rule="evenodd" d="m94.111 191.412c5.494-84.491 75.957-151.525 161.814-151.525 85.856 0 156.303 67.024 161.811 151.508 52.879 5.373 94.264 50.134 94.264 104.412 0 57.891-47.069 104.961-104.96 104.961h-129.59v49.889c0 11.795-9.655 21.456-21.454 21.456-11.791 0-21.445-9.661-21.445-21.456v-49.889h-129.591c-57.892-.001-104.96-47.07-104.96-104.961 0-54.229 41.306-98.945 94.111-104.395zm183.339 209.355v-139.252l46.007 46.007c4.03 4.031 9.467 6.286 15.167 6.286s11.135-2.256 15.166-6.285c8.378-8.375 8.376-21.964.001-30.339l-82.624-82.623c-8.371-8.371-21.963-8.371-30.334 0l-82.625 82.622c-8.376 8.376-8.374 21.961-.001 30.338 8.376 8.379 21.96 8.378 30.337.001l46.007-46.007v139.252z" fill-rule="evenodd"/></svg>