<svg fill='#eeeeee' id="Layer_1" enable-background="new 0 0 512 512" height="512" viewBox="0 0 512 512" width="512" xmlns="http://www.w3.org/2000/svg"><path clip-rule="evenodd" d="m10.001 83.177h491.998c5.418 0 10.001 4.583 10.001 10v83.462h-512.001v-83.461c0-5.418 4.583-10.001 10.002-10.001zm502 335.645v-205.608h-512.002v205.609c0 5.417 4.583 10 10.002 10h491.998c5.419 0 10.002-4.583 10.002-10.001zm-335.341-78.386c0 10.09-8.179 18.285-18.283 18.285h-84.424c-10.099 0-18.283-8.195-18.283-18.285 0-10.104 8.185-18.286 18.283-18.286h84.424c10.104 0 18.283 8.182 18.283 18.286z" fill-rule="evenodd"/></svg>