<svg fill='#eeeeee' id="Layer_1" enable-background="new 0 0 512 512" height="512" viewBox="0 0 512 512" width="512" xmlns="http://www.w3.org/2000/svg"><path clip-rule="evenodd" d="m456.816 490.035v-330.434h-141.313c-10.104 0-18.283-8.184-18.283-18.289v-141.313h-220.07c-12.116 0-21.966 9.856-21.966 21.972v468.064c0 12.115 9.851 21.966 21.966 21.966h357.689c12.115 0 21.977-9.851 21.977-21.966zm-123.029-367.006v-97.17l97.165 97.17zm52.952 269.005c0 10.093-8.185 18.289-18.289 18.289h-224.911c-10.093 0-18.289-8.195-18.289-18.289 0-10.104 8.196-18.284 18.289-18.284h224.911c10.105 0 18.289 8.18 18.289 18.284zm0-124.803c0 10.099-8.185 18.284-18.289 18.284h-224.911c-10.093 0-18.289-8.185-18.289-18.284s8.196-18.283 18.289-18.283h224.911c10.105 0 18.289 8.184 18.289 18.283z" fill-rule="evenodd"/></svg>