<svg fill='#eeeeee' id="Layer_1" enable-background="new 0 0 512 512" height="512" viewBox="0 0 512 512" width="512" xmlns="http://www.w3.org/2000/svg"><path clip-rule="evenodd" d="m54.126 457.897v-92.754c0-14.926-12.118-27.049-27.045-27.049-14.944 0-27.09 12.095-27.09 27.049v94.047c0 29.138 23.701 52.81 52.833 52.81h406.397c29.115 0 52.788-23.701 52.788-52.81v-94.047c0-14.926-12.118-27.049-27.045-27.049s-27.045 12.124-27.045 27.049v92.754zm174.851-169.341v-261.502c0-14.93 12.113-27.054 27.045-27.054s27.045 12.124 27.045 27.054v261.503l83.613-83.62c10.556-10.557 27.708-10.554 38.268-.005 10.56 10.548 10.557 27.712.005 38.265l-129.794 129.793c-5.078 5.078-11.956 7.926-19.137 7.926s-14.058-2.848-19.137-7.926l-129.795-129.795c-10.548-10.549-10.542-27.69-.011-38.249 10.549-10.577 27.725-10.571 38.285-.011z" fill-rule="evenodd"/></svg>