<svg fill='#eeeeee' id="Layer_1" enable-background="new 0 0 512 512" height="512" viewBox="0 0 512 512" width="512" xmlns="http://www.w3.org/2000/svg"><path clip-rule="evenodd" d="m511.997 292.794-.001-73.593h-46.918l-3.143-13.079c-5.142-21.396-13.558-41.685-25.06-60.447l-7.032-11.47 33.191-33.205-52.03-52.039-33.197 33.204-11.474-7.034c-18.765-11.505-39.049-19.924-60.451-25.064l-13.08-3.142-.001-46.925-73.587.001v.002 46.923l-13.082 3.141c-21.406 5.14-41.697 13.557-60.469 25.057l-11.471 7.026-33.183-33.188-52.043 52.038 33.197 33.198-7.033 11.472c-11.502 18.763-19.922 39.05-25.059 60.448l-3.141 13.082-46.922.001c-.002.001-.003.003-.004.004l.001 73.586.002.002h.001 46.916l3.146 13.073c5.151 21.402 13.565 41.689 25.071 60.457l7.034 11.474-33.209 33.2 52.04 52.038 33.207-33.2 11.471 7.033c18.765 11.504 39.05 19.923 60.451 25.064l13.08 3.142-.001 46.926 73.587-.001c0-.001 0-.001 0-.002v-46.922l13.08-3.142c21.401-5.141 41.686-13.555 60.453-25.056l11.47-7.029 33.2 33.191 52.029-52.04-33.19-33.197 7.033-11.471c11.506-18.768 19.921-39.06 25.071-60.462l3.146-13.074h46.904zm-255.994-159.674c67.764 0 122.88 55.116 122.88 122.88s-55.116 122.88-122.88 122.88c-67.767 0-122.88-55.113-122.88-122.88 0-67.766 55.113-122.88 122.88-122.88z" fill-rule="evenodd"/></svg>