<svg fill='#eeeeee' id="Layer_1" enable-background="new 0 0 512 512" height="512" viewBox="0 0 512 512" width="512" xmlns="http://www.w3.org/2000/svg"><path clip-rule="evenodd" d="m480.939 380.108h-100.545c6.816-32.834 10.898-68.511 11.925-105.161h119.681c-2.692 37.904-13.644 73.549-31.061 105.161zm-147.946 121.362c10.746-15.406 20.417-34.299 28.839-56.473 3.416-8.99 6.557-18.428 9.432-28.223h85.128c-31.482 39.316-74.268 69.209-123.399 84.696zm-277.396-84.696h85.128c2.595 8.828 5.4 17.352 8.427 25.52 8.638 23.32 18.671 43.131 29.866 59.181-49.142-15.482-91.933-45.375-123.421-84.701zm123.654-405.092c-10.179 14.476-19.412 31.969-27.396 52.207-4.081 10.303-7.784 21.19-11.13 32.569h-85.128c31.542-39.385 74.419-69.316 123.654-84.776zm277.141 84.776h-85.128c-3.633-12.373-7.703-24.179-12.206-35.283-7.746-19.114-16.579-35.677-26.282-49.483 49.224 15.466 92.085 45.391 123.616 84.766zm-64.073 141.822c-1.016-36.747-5.086-72.37-11.903-105.155h100.523c17.417 31.612 28.369 67.257 31.061 105.155zm-49.407-105.155c7.292 32.32 11.644 68.03 12.736 105.155h-199.29c1.076-37.077 5.438-72.814 12.725-105.155zm-93.907-132.439c-22.698 4.762-45.682 32.709-63.051 76.674-2.433 6.141-4.708 12.514-6.865 19.098h153.812c-2.427-7.449-5.027-14.638-7.828-21.514-17.849-44.061-41.234-71.263-64.176-74.625zm-217.944 132.439h100.534c-6.828 32.806-10.898 68.446-11.914 105.155h-119.681c2.692-37.898 13.633-73.543 31.061-105.155zm-31.061 141.822h119.681c1.016 36.612 5.108 72.305 11.935 105.161h-100.555c-17.428-31.612-28.369-67.257-31.061-105.161zm169.072 105.161c-7.011-30.958-11.617-66.354-12.73-105.161h199.306c-1.092 37.012-5.471 72.787-12.757 105.161zm74.538 130.87 22.709.703c22.309-6.903 44.629-35.947 61.23-79.69 1.87-4.93 3.643-10.011 5.341-15.217h-153.769c16.903 51.635 40.921 85.463 64.489 94.204z" fill-rule="evenodd"/></svg>