<svg fill='#eeeeee' id="Layer_1" enable-background="new 0 0 512 512" height="512" viewBox="0 0 512 512" width="512" xmlns="http://www.w3.org/2000/svg"><path clip-rule="evenodd" d="m256 512.001c-141.156 0-256.001-114.844-256.001-256s114.845-256.002 256.001-256.002 256.001 114.845 256.001 256.001-114.845 256.001-256.001 256.001zm0-314.536c-22.439 0-40.677 18.246-40.677 40.683v155.897c0 22.444 18.229 40.688 40.677 40.688 22.419 0 40.677-18.269 40.677-40.688v-155.897c0-22.411-18.266-40.683-40.677-40.683zm0-38.822c22.414 0 40.677-18.275 40.677-40.688 0-22.419-18.259-40.682-40.677-40.682-22.447 0-40.677 18.237-40.677 40.682 0 22.438 18.234 40.688 40.677 40.688z" fill-rule="evenodd"/></svg>