<svg fill='#eeeeee' id="Layer_1" enable-background="new 0 0 512 512" height="512" viewBox="0 0 512 512" width="512" xmlns="http://www.w3.org/2000/svg"><path clip-rule="evenodd" d="m105.599 4.073h-97.479c-4.485 0-8.12 3.647-8.12 8.13v97.46c0 4.481 3.638 8.125 8.12 8.125h97.479c4.481 0 8.12-3.644 8.12-8.125v-97.46c-.001-4.483-3.635-8.13-8.12-8.13zm286.014 481.947c0 8.976-7.284 16.256-16.246 16.256h-187.769c-9.01 0-16.295-7.28-16.295-16.256s7.284-16.251 16.295-16.251h187.769c8.962-.001 16.246 7.274 16.246 16.251zm120.387-69.899c0 8.976-7.284 16.251-16.246 16.251h-308.156c-9.01 0-16.295-7.275-16.295-16.251s7.284-16.256 16.295-16.256h308.156c8.962 0 16.246 7.28 16.246 16.256zm-340.697-125.169c0-8.976 7.284-16.256 16.295-16.256h187.769c8.962 0 16.246 7.28 16.246 16.256s-7.284 16.251-16.246 16.251h-187.769c-9.01 0-16.295-7.275-16.295-16.251zm340.697-69.903c0 8.981-7.284 16.256-16.246 16.256h-308.156c-9.01 0-16.295-7.275-16.295-16.256 0-8.972 7.284-16.251 16.295-16.251h308.156c8.962-.001 16.246 7.279 16.246 16.251zm-340.697-125.17c0-8.976 7.284-16.251 16.295-16.251h187.769c8.962 0 16.246 7.275 16.246 16.251s-7.284 16.256-16.246 16.256h-187.769c-9.01 0-16.295-7.28-16.295-16.256zm0-69.898c0-8.976 7.284-16.251 16.295-16.251h308.156c8.962 0 16.246 7.275 16.246 16.251s-7.284 16.256-16.246 16.256h-308.156c-9.01 0-16.295-7.28-16.295-16.256zm-65.704 173.165h-97.479c-4.484 0-8.12 3.641-8.12 8.125v97.459c0 4.483 3.636 8.125 8.12 8.125h97.479c4.484 0 8.12-3.642 8.12-8.125v-97.46c-.001-4.483-3.636-8.124-8.12-8.124zm0 195.067h-97.479c-4.482 0-8.12 3.645-8.12 8.125v97.46c0 4.482 3.635 8.129 8.12 8.129h97.479c4.485 0 8.12-3.647 8.12-8.129v-97.46c-.001-4.48-3.639-8.125-8.12-8.125z" fill-rule="evenodd"/></svg>