<svg fill='#eeeeee' id="Layer_1" enable-background="new 0 0 512 512" height="512" viewBox="0 0 512 512" width="512" xmlns="http://www.w3.org/2000/svg"><path clip-rule="evenodd" d="m89.893 511.997c.001.001.002.002.003.003l332.21-.001.003-.003v-410.502c0-14.334-11.674-26.02-26.01-26.02h-62.357v-49.454c0-14.333-11.674-26.02-26.01-26.02h-103.414c-14.355 0-26.06 11.656-26.06 26.02v49.454h-62.357c-14.336 0-26.01 11.687-26.01 26.02zm262.827-100.862c0 9.425-7.649 17.069-17.059 17.069h-159.322c-9.461 0-17.059-7.644-17.059-17.069 0-9.426 7.598-17.064 17.059-17.064h159.322c9.41 0 17.059 7.638 17.059 17.064z" fill-rule="evenodd"/></svg>