<svg fill='#eeeeee' id="Layer_1" enable-background="new 0 0 512 512" height="512" viewBox="0 0 512 512" width="512" xmlns="http://www.w3.org/2000/svg"><path clip-rule="evenodd" d="m35.089 512.001h441.822c19.351 0 35.089-15.739 35.089-35.09v-441.822c0-19.351-15.739-35.09-35.089-35.09h-441.822c-19.351 0-35.09 15.739-35.09 35.09v441.822c0 19.351 15.739 35.09 35.09 35.09zm383.198-399.999c0 10.093-8.185 18.283-18.289 18.283h-288.001c-10.088 0-18.284-8.19-18.284-18.283 0-10.099 8.195-18.289 18.284-18.289h288.001c10.104.001 18.289 8.19 18.289 18.289zm0 143.998c0 10.099-8.185 18.289-18.289 18.289h-288.001c-10.088 0-18.284-8.19-18.284-18.289s8.195-18.283 18.284-18.283h288.001c10.104 0 18.289 8.184 18.289 18.283zm0 144.003c0 10.099-8.185 18.283-18.289 18.283h-288.001c-10.088 0-18.284-8.184-18.284-18.283 0-10.104 8.195-18.289 18.284-18.289h288.001c10.104 0 18.289 8.185 18.289 18.289z" fill-rule="evenodd"/></svg>