<svg fill='#eeeeee' id="Layer_1" enable-background="new 0 0 512 512" height="512" viewBox="0 0 512 512" width="512" xmlns="http://www.w3.org/2000/svg"><path clip-rule="evenodd" d="m163.655 394.866v42.4h-57.826c-10.094 0-18.289 8.185-18.289 18.283 0 10.093 8.195 18.289 18.289 18.289h300.342c10.104 0 18.289-8.195 18.289-18.289 0-10.099-8.185-18.283-18.289-18.283h-57.827v-42.4h-36.572v42.4h-111.544v-42.4zm348.346-31.565v-318.718c0-3.483-2.939-6.422-6.427-6.422h-499.153c-3.483 0-6.422 2.939-6.422 6.422v318.717c0 3.483 2.938 6.422 6.422 6.422h499.153c3.488.001 6.427-2.938 6.427-6.421z" fill-rule="evenodd"/></svg>