<svg fill='#eeeeee' id="Layer_1" enable-background="new 0 0 512 512" height="512" viewBox="0 0 512 512" width="512" xmlns="http://www.w3.org/2000/svg"><path clip-rule="evenodd" d="m96.761 511.997c.001.001.002.002.003.003l332.21-.001c.001-.001.003-.002.003-.003v-361.987l-332.216 332.216zm-65.16-37.017c-6.637-6.637-6.637-17.497 0-24.134l65.159-65.159v-284.193c0-14.333 11.673-26.02 26.01-26.02h62.357v-49.454c0-14.364 11.705-26.02 26.06-26.02h103.413c14.336 0 26.01 11.687 26.01 26.02v49.454h62.357c1.268 0 2.516.093 3.737.27l49.56-49.56c6.637-6.637 17.497-6.637 24.134 0 6.637 6.637 6.637 17.497 0 24.134l-51.422 51.422-332.215 332.216-41.025 41.024c-6.637 6.638-17.497 6.638-24.135 0z" fill-rule="evenodd"/></svg>