<svg fill='#eeeeee' id="Layer_1" enable-background="new 0 0 512 512" height="512" viewBox="0 0 512 512" width="512" xmlns="http://www.w3.org/2000/svg"><path clip-rule="evenodd" d="m151.324 405.316h236.741c5.208 0 9.605-4.391 9.605-9.594v-236.752zm-124.422 58.198c-7.089-7.089-7.089-18.689 0-25.777l89.811-89.811v-336.718c0-5.203 4.397-9.599 9.594-9.599h261.759c5.208 0 9.605 4.396 9.605 9.599v55.761l61.652-61.652c7.089-7.089 18.688-7.089 25.777 0 7.089 7.088 7.089 18.688 0 25.777l-432.421 432.42c-7.089 7.089-18.689 7.089-25.777 0zm370.768 38.886v-61.638c-3.101.661-6.31 1.01-9.605 1.01h-261.759c-3.289 0-6.498-.35-9.594-1.01v61.638c0 5.203 4.397 9.599 9.594 9.599h261.759c5.208.001 9.605-4.396 9.605-9.599zm-207.661-442.824c0 10.067 8.159 18.226 18.226 18.226h97.907c10.072 0 18.226-8.159 18.226-18.226s-8.154-18.226-18.226-18.226h-97.907c-10.068 0-18.226 8.159-18.226 18.226z" fill-rule="evenodd"/></svg>