<svg fill='#eeeeee' id="Layer_1" enable-background="new 0 0 512 512" height="512" viewBox="0 0 512 512" width="512" xmlns="http://www.w3.org/2000/svg"><path clip-rule="evenodd" d="m-.001 256c0 141.156 114.844 256 256 256s256.001-114.844 256.001-256-114.844-256.001-256-256.001-256.001 114.845-256.001 256.001zm237.669 168.687v-150.398h-150.376c-10.082 0-18.278-8.185-18.278-18.288 0-10.104 8.196-18.284 18.278-18.284h150.376v-150.404c0-10.099 8.195-18.283 18.332-18.283 10.083 0 18.278 8.185 18.278 18.283v150.403h150.376c10.083 0 18.278 8.179 18.278 18.284 0 10.104-8.195 18.288-18.278 18.288h-150.376v150.398c0 10.104-8.195 18.283-18.278 18.283-10.137.001-18.332-8.178-18.332-18.282z" fill-rule="evenodd"/></svg>