<svg fill='#eeeeee' id="Layer_1" enable-background="new 0 0 512 512" height="512" viewBox="0 0 512 512" width="512" xmlns="http://www.w3.org/2000/svg"><path clip-rule="evenodd" d="m255.994 107.511c16.86 0 30.56 13.702 30.56 30.547 0 16.847-13.7 30.55-30.56 30.55-16.844 0-30.55-13.703-30.55-30.55.001-16.844 13.706-30.547 30.55-30.547zm-31.838-100.426-125.612 76.323c-19.13 11.622-29.671 30.353-29.671 52.742v361.713c0 7.795 6.346 14.139 14.137 14.139h345.978c7.796 0 14.137-6.344 14.137-14.139v-361.712c0-22.389-10.536-41.121-29.671-52.742l-121.825-74.022c-.162-.092-.318-.194-.469-.297-18.591-12.083-52.661-11.36-66.491-2.324-.162.103-.33.222-.513.319zm98.971 130.974c0-37.005-30.119-67.119-67.133-67.119-37.004 0-67.122 30.114-67.122 67.119 0 37.018 30.118 67.121 67.122 67.121 37.015 0 67.133-30.104 67.133-67.121zm-171.76 263.933h209.27c10.099 0 18.283 8.182 18.283 18.286 0 10.101-8.185 18.286-18.283 18.286h-209.27c-10.104 0-18.289-8.185-18.289-18.286 0-10.104 8.185-18.286 18.289-18.286z" fill-rule="evenodd"/></svg>