<svg fill='#eeeeee' id="Layer_1" enable-background="new 0 0 512 512" height="512" viewBox="0 0 512 512" width="512" xmlns="http://www.w3.org/2000/svg"><path clip-rule="evenodd" d="m129.472-.001h198.071l54.985 46.655v92.388h-253.056zm382.529 328.628c0 31.089-22.559 56.371-50.289 56.371h-42.616v-48.952h31.315c10.104 0 18.289-8.196 18.289-18.283 0-10.104-8.185-18.289-18.289-18.289h-388.822c-10.104 0-18.289 8.185-18.289 18.289 0 10.088 8.185 18.283 18.289 18.283h31.316v48.952h-42.617c-27.73 0-50.289-25.282-50.289-56.371v-153.013h512.001v153.013zm-382.529 183.374h253.057v-175.955h-253.057z" fill-rule="evenodd"/></svg>