<svg fill='#eeeeee' id="Layer_1" enable-background="new 0 0 512 512" height="512" viewBox="0 0 512 512" width="512" xmlns="http://www.w3.org/2000/svg"><path clip-rule="evenodd" d="m441.476 370.893c-10.083 0-18.278 8.185-18.278 18.283v122.824h-106.056c-8.734-50.354-52.731-88.786-105.516-88.786-52.84 0-96.836 38.432-105.517 88.786h-106.11v-106.104c50.359-8.697 88.802-52.694 88.802-105.506 0-52.801-38.443-96.803-88.802-105.506v-106.093h122.824c10.082 0 18.278-8.196 18.278-18.289 0-38.88 31.65-70.503 70.525-70.503 38.874 0 70.47 31.623 70.47 70.503 0 10.093 8.196 18.289 18.278 18.289h122.824v122.819c0 10.093 8.195 18.289 18.278 18.289 38.875 0 70.524 31.623 70.524 70.492.001 38.879-31.649 70.502-70.524 70.502z" fill-rule="evenodd"/></svg>