<svg fill='#eeeeee' id="Layer_1" enable-background="new 0 0 512 512" height="512" viewBox="0 0 512 512" width="512" xmlns="http://www.w3.org/2000/svg"><path clip-rule="evenodd" d="m410.487 51.824c-44.505-33.754-98.603-51.824-154.48-51.824-68.345 0-132.69 26.657-181.017 74.984-48.326 48.326-74.979 112.672-74.979 181.016 0 68.345 26.651 132.693 74.979 181.021 48.326 48.325 112.674 74.979 181.017 74.979 68.344 0 132.693-26.654 181.021-74.979 48.33-48.328 74.961-112.677 74.961-181.021 0-9.452-.483-18.91-1.509-28.307-.777-7.112-4.326-13.548-9.883-18.044-5.619-4.545-12.815-6.682-20.004-5.89-7.12.785-13.563 4.349-18.057 9.919-4.516 5.598-6.649 12.757-5.873 19.914.807 7.439 1.237 14.924 1.237 22.407 0 111.321-90.571 201.896-201.893 201.896-111.317.002-201.897-90.578-201.897-201.895s90.58-201.897 201.897-201.897c41.802 0 82.391 12.811 116.488 36.955l8.913 6.311h-35.66c-14.94 0-27.054 12.114-27.054 27.054s12.115 27.049 27.054 27.049h97.387c14.931 0 27.045-12.119 27.045-27.049v-97.369c-.001-14.93-12.114-27.054-27.046-27.054-14.947 0-27.072 12.102-27.072 27.054v28.999z" fill-rule="evenodd"/></svg>