<svg fill='#eeeeee' id="Layer_1" enable-background="new 0 0 512 512" height="512" viewBox="0 0 512 512" width="512" xmlns="http://www.w3.org/2000/svg"><path clip-rule="evenodd" d="m486.188 96.135c-25.684-44.485-67.088-76.257-116.705-89.552-49.361-13.227-101.577-6.25-145.811 19.293-44.264 25.561-76.348 67.212-89.583 116.609-13.498 50.378-5.968 103.537 20.76 148.283l6.82 11.416-152.621 152.623c-5.835 5.836-9.048 13.651-9.048 21.9 0 8.25 3.217 16.065 9.052 21.903l4.315 4.318c5.833 5.837 13.649 9.042 21.895 9.042 8.25 0 16.066-3.208 21.903-9.046l152.528-152.535 11.421 6.835c15.256 9.13 31.71 16.057 48.881 20.658 16.213 4.345 32.909 6.574 49.695 6.574 86.808 0 163.224-58.605 185.696-142.477 13.266-49.51 6.43-101.456-19.198-145.844zm-133.997 217.218c-32.165 8.618-66.259 4.082-95.091-12.553-28.882-16.663-49.848-43.892-58.482-76.114-8.643-32.254-4.17-66.231 12.526-95.15 16.729-28.976 43.821-49.766 76.141-58.424 10.578-2.834 21.478-4.285 32.429-4.285 56.655 0 106.478 38.219 121.145 92.951 8.621 32.17 4.082 66.266-12.557 95.101-16.665 28.877-43.892 49.841-76.111 58.474z" fill-rule="evenodd"/></svg>