<svg fill='#eeeeee' id="Layer_1" enable-background="new 0 0 512 512" height="512" viewBox="0 0 512 512" width="512" xmlns="http://www.w3.org/2000/svg"><path clip-rule="evenodd" d="m374.035 391.033c21.844 0 35.997-.42 48.17-6.25 13.116-6.301 21.467-17.801 31.799-33.372.944-1.469 1.699-3.088 2.123-4.799l55.341-211.965c1.274-4.789.236-9.9-2.831-13.82-3.02-3.921-7.69-6.221-12.644-6.221h-366.77l-11.889-53.301c-1.651-7.309-8.115-12.51-15.616-12.51h-85.724c-8.823 0-15.994 7.17-15.994 16 0 8.841 7.171 16 15.994 16h72.891l66.192 295.996v34.902c0 28.401 23.07 51.511 51.472 51.511h257.267c8.87 0 16.041-7.171 16.041-16 0-8.84-7.171-16-16.041-16h-257.266c-10.757 0-19.485-8.761-19.485-19.511v-20.661h186.97z" fill-rule="evenodd"/></svg>