<svg fill='#eeeeee' id="Layer_1" enable-background="new 0 0 512 512" height="512" viewBox="0 0 512 512" width="512" xmlns="http://www.w3.org/2000/svg"><path clip-rule="evenodd" d="m115.078 395.355c0 5.219 4.411 9.625 9.624 9.625h262.584c5.225 0 9.635-4.405 9.635-9.625v-385.726c0-5.219-4.41-9.63-9.635-9.63h-262.583c-5.214 0-9.624 4.41-9.624 9.63v385.726zm281.844 107.016v-61.833c-3.111.663-6.33 1.014-9.635 1.014h-262.584c-3.3 0-6.519-.351-9.624-1.014v61.833c0 5.219 4.411 9.63 9.624 9.63h262.584c5.224 0 9.635-4.411 9.635-9.63zm-208.316-444.222c0-10.099 8.185-18.283 18.284-18.283h98.216c10.104 0 18.284 8.185 18.284 18.283s-8.179 18.284-18.284 18.284h-98.216c-10.099 0-18.284-8.185-18.284-18.284z" fill-rule="evenodd"/></svg>