<svg fill='#eeeeee' id="Layer_1" enable-background="new 0 0 512 512" height="512" viewBox="0 0 512 512" width="512" xmlns="http://www.w3.org/2000/svg"><path clip-rule="evenodd" d="m-.001-.001v512.002h512.002v-512.002zm93.714 424.574v-211.281c0-10.104 8.195-18.283 18.289-18.283 10.104 0 18.284 8.179 18.284 18.283v211.282c0 10.099-8.179 18.283-18.284 18.283-10.093 0-18.289-8.185-18.289-18.284zm144.004 0v-337.141c0-10.104 8.19-18.289 18.283-18.289 10.104 0 18.289 8.184 18.289 18.289v337.141c0 10.099-8.184 18.283-18.289 18.283-10.093.001-18.283-8.184-18.283-18.283zm143.998 0v-211.281c0-10.104 8.195-18.283 18.289-18.283 10.099 0 18.283 8.179 18.283 18.283v211.282c0 10.099-8.184 18.283-18.283 18.283-10.095 0-18.289-8.185-18.289-18.284z" fill-rule="evenodd"/></svg>