<svg fill='#eeeeee' id="Layer_1" enable-background="new 0 0 512 512" height="512" viewBox="0 0 512 512" width="512" xmlns="http://www.w3.org/2000/svg"><path clip-rule="evenodd" d="m52.061 301.397c-1.361-9.573-2.076-19.26-2.076-28.987 0-84.812 52.034-160.202 129.112-191.188-4.024-9.754-6.25-20.433-6.25-31.627 0-.651.01-1.299.025-1.945-93.116 34.398-156.446 123.838-156.446 224.76 0 13.558 1.157 27.059 3.415 40.345.533-.325 1.071-.645 1.613-.958 9.706-5.612 20.103-9.024 30.607-10.4zm353.967 57.615c6.598-11.445 17.336-19.693 30.094-23.115 4.209-1.129 8.558-1.702 12.915-1.702 8.695 0 17.214 2.312 24.743 6.666 23.623 13.661 31.813 44.108 18.164 67.751-13.654 23.652-44.1 31.811-67.747 18.148-11.465-6.624-19.689-17.326-23.114-30.118-3.414-12.754-1.649-26.191 4.945-37.63zm-149.983-259.821c-27.35 0-49.625-22.237-49.625-49.595 0-27.353 22.279-49.596 49.625-49.596 27.352 0 49.576 22.249 49.576 49.596 0 27.352-22.219 49.595-49.576 49.595zm-240.897 271.783c3.418-12.774 11.669-23.495 23.112-30.112 23.631-13.665 54.124-5.503 67.753 18.153 6.592 11.44 8.358 24.874 4.944 37.628-3.418 12.769-11.616 23.504-23.065 30.118-23.67 13.677-54.122 5.511-67.795-18.155-6.605-11.432-8.361-24.881-4.949-37.632zm317.799-289.742c77.12 30.984 129.108 106.365 129.108 191.178 0 9.715-.685 19.386-2.054 28.943 10.746 1.439 21.138 4.981 30.586 10.445.543.314 1.079.635 1.613.96 2.258-13.287 3.415-26.789 3.415-40.348 0-100.912-63.33-190.348-156.445-224.75.014.643.024 1.288.024 1.935 0 11.198-2.224 21.881-6.247 31.637zm50.139 353.342c-36.103 28.429-80.384 43.851-127.041 43.851-46.671 0-90.963-15.43-127.072-43.851-6.549 8.514-14.756 15.751-24.284 21.256-.557.322-1.117.634-1.678.941 42.923 35.755 96.485 55.229 153.034 55.229 56.512 0 110.079-19.48 153.005-55.245-.551-.302-1.101-.608-1.648-.924-9.538-5.511-17.757-12.745-24.316-21.257z" fill-rule="evenodd"/></svg>