<svg fill='#eeeeee' id="Layer_1" enable-background="new 0 0 512 512" height="512" viewBox="0 0 512 512" width="512" xmlns="http://www.w3.org/2000/svg"><path clip-rule="evenodd" d="m66.308 144.298h379.385v136.409h-379.385zm293.721-50.894v-75.083c0-10.117 8.21-18.321 18.31-18.321s18.31 8.205 18.31 18.321v75.083c0 10.117-8.21 18.321-18.31 18.321-10.101.001-18.31-8.204-18.31-18.321zm-122.339 0v-75.083c0-10.116 8.21-18.321 18.31-18.321s18.31 8.205 18.31 18.321v75.083c0 10.117-8.21 18.321-18.31 18.321s-18.31-8.204-18.31-18.321zm-122.339 0v-75.083c0-10.116 8.156-18.321 18.31-18.321 10.1 0 18.31 8.205 18.31 18.321v75.083c0 10.117-8.21 18.321-18.31 18.321-10.154.001-18.31-8.204-18.31-18.321zm252.023 277.553c-2.484 3.219-3.889 7.189-3.889 11.272v129.771h-215.024v-129.771c0-4.181-1.458-8.232-4.051-11.494-.162-.206-14.097-17.468-43.426-53.392h309.546c-30.139 37.026-42.507 52.836-43.156 53.614z" fill-rule="evenodd"/></svg>