<svg fill='#eeeeee' id="Layer_1" enable-background="new 0 0 512 512" height="512" viewBox="0 0 512 512" width="512" xmlns="http://www.w3.org/2000/svg"><path clip-rule="evenodd" d="m338.642 401.345v-212.456c0-10.099 8.185-18.289 18.289-18.289s18.284 8.19 18.284 18.289v212.457c0 10.099-8.179 18.289-18.284 18.289-10.104-.001-18.289-8.191-18.289-18.29zm-100.934-275.546c0-10.099 8.195-18.283 18.284-18.283 10.104 0 18.289 8.185 18.289 18.283v338.635c0 10.099-8.185 18.284-18.289 18.284-10.088 0-18.284-8.185-18.284-18.284zm-64.367 63.09v212.457c0 10.099-8.184 18.289-18.288 18.289-10.088 0-18.284-8.19-18.284-18.289v-212.457c0-10.099 8.196-18.289 18.284-18.289 10.104 0 18.288 8.19 18.288 18.289zm-103.769-82.602v405.713h372.856v-405.713h37.997c10.083 0 18.278-8.19 18.278-18.289s-8.195-18.284-18.278-18.284h-37.997-372.856-37.997c-10.083 0-18.278 8.185-18.278 18.284s8.196 18.289 18.278 18.289zm92.069-106.288h188.702v33.143h-188.702z" fill-rule="evenodd"/></svg>