<svg fill='#eeeeee' id="Layer_1" enable-background="new 0 0 512 512" height="512" viewBox="0 0 512 512" width="512" xmlns="http://www.w3.org/2000/svg"><path clip-rule="evenodd" d="m54.103 457.897v-92.754c0-14.926-12.118-27.049-27.045-27.049s-27.045 12.124-27.045 27.049v94.047c0 29.109 23.673 52.81 52.788 52.81h406.398c29.115 0 52.788-23.701 52.788-52.81v-94.047c0-14.926-12.118-27.049-27.045-27.049s-27.045 12.124-27.045 27.049v92.754zm228.942-365.535v273.907c0 14.923-12.121 27.049-27.045 27.049s-27.045-12.126-27.045-27.049v-273.907l-83.614 83.61c-10.575 10.575-27.698 10.575-38.273 0-10.55-10.55-10.55-27.701 0-38.251l129.795-129.795c5.079-5.078 11.955-7.926 19.137-7.926 7.181 0 14.059 2.848 19.137 7.926l129.795 129.795c10.551 10.551 10.554 27.708-.004 38.256-5.096 5.09-11.93 7.921-19.132 7.921-7.189 0-14.053-2.842-19.137-7.926z" fill-rule="evenodd"/></svg>