<svg width="16" height="16" viewBox="0 0 16 16" fill="none" xmlns="http://www.w3.org/2000/svg">
<path d="M15.861 15.3511L14.304 12.5545L13.7109 13.5533L12.304 12.8765V8.44552L8.37465 6.21186V3.70581H9.54234L7.85567 1L6.16899 3.72397H7.33669V6.23002L3.4073 8.44552V12.8947L2.15005 13.8653L1.55693 12.8665L0 15.6631L3.2436 15.7357L2.65049 14.7369L3.92627 13.7663L7.85567 15.9818L11.7851 13.7663L13.1919 14.4431L12.6174 15.4237L15.861 15.3511ZM4.44525 9.60775L7.33669 11.2421V14.5109L4.44525 12.8765V9.60775ZM7.85567 10.3705L4.96423 8.73608L7.85567 7.10169L10.7471 8.73608L7.85567 10.3705ZM8.37465 14.5109V11.2421L11.2661 9.60775V12.8765L8.37465 14.5109Z" fill="#EEEEEE"/>
</svg>
