<?xml version="1.0" encoding="iso-8859-1"?>
<!-- Generator: Adobe Illustrator 19.0.0, SVG Export Plug-In . SVG Version: 6.00 Build 0)  -->
<svg fill='#eeeeee' xmlns="http://www.w3.org/2000/svg" xmlns:xlink="http://www.w3.org/1999/xlink" version="1.1" id="Capa_1" x="0px" y="0px" viewBox="0 0 469.333 469.333" style="enable-background:new 0 0 469.333 469.333;" xml:space="preserve">
<g>
	<g>
		<g>
			<path d="M42.667,426.667c0-11.781-9.552-21.333-21.333-21.333S0,414.885,0,426.667V448c0,11.781,9.552,21.333,21.333,21.333     h21.333C54.448,469.333,64,459.781,64,448S54.448,426.667,42.667,426.667z"/>
			<path d="M21.333,277.333c11.781,0,21.333-9.552,21.333-21.333v-42.667c0-11.781-9.552-21.333-21.333-21.333S0,201.552,0,213.333     V256C0,267.781,9.552,277.333,21.333,277.333z"/>
			<path d="M21.333,170.667c11.781,0,21.333-9.552,21.333-21.333v-42.667c0-11.781-9.552-21.333-21.333-21.333S0,94.885,0,106.667     v42.667C0,161.115,9.552,170.667,21.333,170.667z"/>
			<path d="M21.333,384c11.781,0,21.333-9.552,21.333-21.333V320c0-11.781-9.552-21.333-21.333-21.333S0,308.219,0,320v42.667     C0,374.448,9.552,384,21.333,384z"/>
			<path d="M42.667,0H21.333C9.552,0,0,9.552,0,21.333v21.333C0,54.448,9.552,64,21.333,64s21.333-9.552,21.333-21.333     C54.448,42.667,64,33.115,64,21.333S54.448,0,42.667,0z"/>
			<path d="M256,0h-42.667C201.552,0,192,9.552,192,21.333s9.552,21.333,21.333,21.333H256c11.781,0,21.333-9.552,21.333-21.333     S267.781,0,256,0z"/>
			<path d="M149.333,0h-42.667C94.885,0,85.333,9.552,85.333,21.333s9.552,21.333,21.333,21.333h42.667     c11.781,0,21.333-9.552,21.333-21.333S161.115,0,149.333,0z"/>
			<path d="M362.667,0H320c-11.781,0-21.333,9.552-21.333,21.333S308.219,42.667,320,42.667h42.667     c11.781,0,21.333-9.552,21.333-21.333S374.448,0,362.667,0z"/>
			<path d="M448,0h-21.333c-11.781,0-21.333,9.552-21.333,21.333s9.552,21.333,21.333,21.333C426.667,54.448,436.219,64,448,64     s21.333-9.552,21.333-21.333V21.333C469.333,9.552,459.781,0,448,0z"/>
			<path d="M448,192c-11.781,0-21.333,9.552-21.333,21.333V256c0,11.781,9.552,21.333,21.333,21.333s21.333-9.552,21.333-21.333     v-42.667C469.333,201.552,459.781,192,448,192z"/>
			<path d="M448,298.667c-11.781,0-21.333,9.552-21.333,21.333v42.667c0,11.781,9.552,21.333,21.333,21.333     s21.333-9.552,21.333-21.333V320C469.333,308.219,459.781,298.667,448,298.667z"/>
			<path d="M448,85.333c-11.781,0-21.333,9.552-21.333,21.333v42.667c0,11.781,9.552,21.333,21.333,21.333     s21.333-9.552,21.333-21.333v-42.667C469.333,94.885,459.781,85.333,448,85.333z"/>
			<path d="M448,405.333c-11.781,0-21.333,9.552-21.333,21.333c-11.781,0-21.333,9.552-21.333,21.333s9.552,21.333,21.333,21.333     H448c11.781,0,21.333-9.552,21.333-21.333v-21.333C469.333,414.885,459.781,405.333,448,405.333z"/>
			<path d="M362.667,426.667H320c-11.781,0-21.333,9.552-21.333,21.333s9.552,21.333,21.333,21.333h42.667     c11.781,0,21.333-9.552,21.333-21.333S374.448,426.667,362.667,426.667z"/>
			<path d="M256,426.667h-42.667C201.552,426.667,192,436.219,192,448s9.552,21.333,21.333,21.333H256     c11.781,0,21.333-9.552,21.333-21.333S267.781,426.667,256,426.667z"/>
			<path d="M149.333,426.667h-42.667c-11.781,0-21.333,9.552-21.333,21.333s9.552,21.333,21.333,21.333h42.667     c11.781,0,21.333-9.552,21.333-21.333S161.115,426.667,149.333,426.667z"/>
			<path d="M213.333,128H256c0.135-0.01,0.281,0,0.427,0c5.885,0,10.667-4.771,10.667-10.667c0-3.865-2.052-7.24-5.125-9.115     l-19.76-19.76c-4.167-4.167-10.917-4.167-15.083,0l-21.333,21.333c-3.052,3.052-3.969,7.635-2.313,11.625     C205.125,125.406,209.021,128,213.333,128z"/>
			<path d="M205.792,359.542l21.333,21.333c2.083,2.083,4.813,3.125,7.542,3.125s5.458-1.042,7.542-3.125l21.333-21.333     c3.052-3.052,3.969-7.635,2.313-11.625c-1.646-3.99-5.542-6.583-9.854-6.583h-42.667c-4.313,0-8.208,2.594-9.854,6.583     C201.823,351.906,202.74,356.49,205.792,359.542z"/>
			<path d="M359.542,205.792c-3.052-3.052-7.615-3.958-11.625-2.313c-3.99,1.646-6.583,5.542-6.583,9.854V256     c0,4.312,2.594,8.208,6.583,9.854c1.323,0.552,2.708,0.813,4.083,0.813c2.771,0,5.5-1.083,7.542-3.125l21.333-21.333     c4.167-4.167,4.167-10.917,0-15.083L359.542,205.792z"/>
			<path d="M117.333,266.667c1.375,0,2.76-0.26,4.083-0.813c3.99-1.646,6.583-5.542,6.583-9.854v-42.667     c0-4.313-2.594-8.208-6.583-9.854c-4-1.656-8.563-0.75-11.625,2.313l-21.333,21.333c-4.167,4.167-4.167,10.917,0,15.083     l21.333,21.333C111.833,265.583,114.562,266.667,117.333,266.667z"/>
		</g>
	</g>
</g>
<g>
</g>
<g>
</g>
<g>
</g>
<g>
</g>
<g>
</g>
<g>
</g>
<g>
</g>
<g>
</g>
<g>
</g>
<g>
</g>
<g>
</g>
<g>
</g>
<g>
</g>
<g>
</g>
<g>
</g>
</svg>
