<?xml version="1.0" encoding="iso-8859-1"?>
<!-- Generator: Adobe Illustrator 19.0.0, SVG Export Plug-In . SVG Version: 6.00 Build 0)  -->
<svg fill='#eeeeee' xmlns="http://www.w3.org/2000/svg" xmlns:xlink="http://www.w3.org/1999/xlink" version="1.1" id="Capa_1" x="0px" y="0px" viewBox="0 0 469.333 469.333" style="enable-background:new 0 0 469.333 469.333;" xml:space="preserve">
<g>
	<g>
		<g>
			<path d="M362.667,192c0-47.052-38.271-85.333-85.333-85.333S192,144.948,192,192c0,8,1.208,16.042,3.583,23.979l-85.792,85.812     c-2,2-3.125,4.708-3.125,7.542V352c0,5.896,4.771,10.667,10.667,10.667H160c2.833,0,5.542-1.125,7.542-3.125l85.792-85.813     c7.958,2.396,16,3.604,24,3.604C324.396,277.333,362.667,239.052,362.667,192z M298.667,192     c-11.771,0-21.333-9.573-21.333-21.333s9.563-21.333,21.333-21.333S320,158.906,320,170.667S310.437,192,298.667,192z"/>
			<path d="M42.667,426.667c0-11.781-9.542-21.333-21.333-21.333C9.542,405.333,0,414.885,0,426.667V448     c0,11.781,9.542,21.333,21.333,21.333h21.333C54.458,469.333,64,459.781,64,448S54.458,426.667,42.667,426.667z"/>
			<path d="M21.333,170.667c11.792,0,21.333-9.552,21.333-21.333v-42.667c0-11.781-9.542-21.333-21.333-21.333     C9.542,85.333,0,94.885,0,106.667v42.667C0,161.115,9.542,170.667,21.333,170.667z"/>
			<path d="M21.333,277.333c11.792,0,21.333-9.552,21.333-21.333v-42.667c0-11.781-9.542-21.333-21.333-21.333     C9.542,192,0,201.552,0,213.333V256C0,267.781,9.542,277.333,21.333,277.333z"/>
			<path d="M21.333,384c11.792,0,21.333-9.552,21.333-21.333V320c0-11.781-9.542-21.333-21.333-21.333     C9.542,298.667,0,308.219,0,320v42.667C0,374.448,9.542,384,21.333,384z"/>
			<path d="M42.667,0H21.333C9.542,0,0,9.552,0,21.333v21.333C0,54.448,9.542,64,21.333,64c11.792,0,21.333-9.552,21.333-21.333     C54.458,42.667,64,33.115,64,21.333S54.458,0,42.667,0z"/>
			<path d="M106.667,42.667h42.667c11.792,0,21.333-9.552,21.333-21.333S161.125,0,149.333,0h-42.667     C94.875,0,85.333,9.552,85.333,21.333S94.875,42.667,106.667,42.667z"/>
			<path d="M213.333,42.667H256c11.792,0,21.333-9.552,21.333-21.333S267.792,0,256,0h-42.667C201.542,0,192,9.552,192,21.333     S201.542,42.667,213.333,42.667z"/>
			<path d="M362.667,0H320c-11.792,0-21.333,9.552-21.333,21.333S308.208,42.667,320,42.667h42.667     c11.792,0,21.333-9.552,21.333-21.333S374.458,0,362.667,0z"/>
			<path d="M448,0h-21.333c-11.792,0-21.333,9.552-21.333,21.333s9.542,21.333,21.333,21.333C426.667,54.448,436.208,64,448,64     c11.792,0,21.333-9.552,21.333-21.333V21.333C469.333,9.552,459.792,0,448,0z"/>
			<path d="M448,85.333c-11.792,0-21.333,9.552-21.333,21.333v42.667c0,11.781,9.542,21.333,21.333,21.333     c11.792,0,21.333-9.552,21.333-21.333v-42.667C469.333,94.885,459.792,85.333,448,85.333z"/>
			<path d="M448,192c-11.792,0-21.333,9.552-21.333,21.333V256c0,11.781,9.542,21.333,21.333,21.333     c11.792,0,21.333-9.552,21.333-21.333v-42.667C469.333,201.552,459.792,192,448,192z"/>
			<path d="M448,298.667c-11.792,0-21.333,9.552-21.333,21.333v42.667c0,11.781,9.542,21.333,21.333,21.333     c11.792,0,21.333-9.552,21.333-21.333V320C469.333,308.219,459.792,298.667,448,298.667z"/>
			<path d="M448,405.333c-11.792,0-21.333,9.552-21.333,21.333c-11.792,0-21.333,9.552-21.333,21.333s9.542,21.333,21.333,21.333     H448c11.792,0,21.333-9.552,21.333-21.333v-21.333C469.333,414.885,459.792,405.333,448,405.333z"/>
			<path d="M362.667,426.667H320c-11.792,0-21.333,9.552-21.333,21.333s9.542,21.333,21.333,21.333h42.667     c11.792,0,21.333-9.552,21.333-21.333S374.458,426.667,362.667,426.667z"/>
			<path d="M149.333,426.667h-42.667c-11.792,0-21.333,9.552-21.333,21.333s9.542,21.333,21.333,21.333h42.667     c11.792,0,21.333-9.552,21.333-21.333S161.125,426.667,149.333,426.667z"/>
			<path d="M256,426.667h-42.667C201.542,426.667,192,436.219,192,448s9.542,21.333,21.333,21.333H256     c11.792,0,21.333-9.552,21.333-21.333S267.792,426.667,256,426.667z"/>
		</g>
	</g>
</g>
<g>
</g>
<g>
</g>
<g>
</g>
<g>
</g>
<g>
</g>
<g>
</g>
<g>
</g>
<g>
</g>
<g>
</g>
<g>
</g>
<g>
</g>
<g>
</g>
<g>
</g>
<g>
</g>
<g>
</g>
</svg>
