<?xml version="1.0" encoding="iso-8859-1"?>
<!-- Generator: Adobe Illustrator 19.0.0, SVG Export Plug-In . SVG Version: 6.00 Build 0)  -->
<svg fill='#eeeeee' xmlns="http://www.w3.org/2000/svg" xmlns:xlink="http://www.w3.org/1999/xlink" version="1.1" id="Capa_1" x="0px" y="0px" viewBox="0 0 512 512" style="enable-background:new 0 0 512 512;" xml:space="preserve">
<g>
	<g>
		<path d="M405.333,277.333h-128v-42.667h64.104c23.479,0,42.563-19.094,42.563-42.563v-64.208    c0-23.469-19.083-42.563-42.563-42.563h-64.104V10.667C277.333,4.771,272.563,0,266.667,0h-21.333    c-5.896,0-10.667,4.771-10.667,10.667v74.667h-64.104c-23.479,0-42.563,19.094-42.563,42.563v64.208    c0,23.469,19.083,42.563,42.563,42.563h64.104v42.667h-128C83.146,277.333,64,296.469,64,320v64    c0,23.531,19.146,42.667,42.667,42.667h128v74.667c0,5.896,4.771,10.667,10.667,10.667h21.333c5.896,0,10.667-4.771,10.667-10.667    v-74.667h128C428.854,426.667,448,407.531,448,384v-64C448,296.469,428.854,277.333,405.333,277.333z"/>
	</g>
</g>
<g>
</g>
<g>
</g>
<g>
</g>
<g>
</g>
<g>
</g>
<g>
</g>
<g>
</g>
<g>
</g>
<g>
</g>
<g>
</g>
<g>
</g>
<g>
</g>
<g>
</g>
<g>
</g>
<g>
</g>
</svg>
