<?xml version="1.0" encoding="iso-8859-1"?>
<!-- Generator: Adobe Illustrator 19.0.0, SVG Export Plug-In . SVG Version: 6.00 Build 0)  -->
<svg fill='#eeeeee' xmlns="http://www.w3.org/2000/svg" xmlns:xlink="http://www.w3.org/1999/xlink" version="1.1" id="Capa_1" x="0px" y="0px" viewBox="0 0 469.333 469.333" style="enable-background:new 0 0 469.333 469.333;" xml:space="preserve">
<g>
	<g>
		<g>
			<path d="M426.667,256h-320C83.146,256,64,275.135,64,298.667v64c0,23.531,19.146,42.667,42.667,42.667h320     c23.521,0,42.667-19.135,42.667-42.667v-64C469.333,275.135,450.188,256,426.667,256z"/>
			<path d="M106.562,213.333h192.208c23.479,0,42.563-19.094,42.563-42.563v-64.208C341.333,83.094,322.25,64,298.771,64H106.562     C83.083,64,64,83.094,64,106.562v64.208C64,194.24,83.083,213.333,106.562,213.333z"/>
			<path d="M32,0H10.667C4.771,0,0,4.771,0,10.667v448c0,5.896,4.771,10.667,10.667,10.667H32c5.896,0,10.667-4.771,10.667-10.667     v-448C42.667,4.771,37.896,0,32,0z"/>
		</g>
	</g>
</g>
<g>
</g>
<g>
</g>
<g>
</g>
<g>
</g>
<g>
</g>
<g>
</g>
<g>
</g>
<g>
</g>
<g>
</g>
<g>
</g>
<g>
</g>
<g>
</g>
<g>
</g>
<g>
</g>
<g>
</g>
</svg>
