<?xml version="1.0" encoding="iso-8859-1"?>
<!-- Generator: Adobe Illustrator 19.0.0, SVG Export Plug-In . SVG Version: 6.00 Build 0)  -->
<svg fill='#eeeeee' xmlns="http://www.w3.org/2000/svg" xmlns:xlink="http://www.w3.org/1999/xlink" version="1.1" id="Capa_1" x="0px" y="0px" viewBox="0 0 469.333 469.333" style="enable-background:new 0 0 469.333 469.333;" xml:space="preserve">
<g>
	<g>
		<g>
			<path d="M362.667,256h-320C19.146,256,0,275.135,0,298.667v64c0,23.531,19.146,42.667,42.667,42.667h320     c23.521,0,42.667-19.135,42.667-42.667v-64C405.333,275.135,386.188,256,362.667,256z"/>
			<path d="M362.771,64H170.562C147.083,64,128,83.094,128,106.562v64.208c0,23.469,19.083,42.563,42.563,42.563h192.208     c23.479,0,42.563-19.094,42.563-42.563v-64.208C405.333,83.094,386.25,64,362.771,64z"/>
			<path d="M458.667,0h-21.333c-5.896,0-10.667,4.771-10.667,10.667v448c0,5.896,4.771,10.667,10.667,10.667h21.333     c5.896,0,10.667-4.771,10.667-10.667v-448C469.333,4.771,464.563,0,458.667,0z"/>
		</g>
	</g>
</g>
<g>
</g>
<g>
</g>
<g>
</g>
<g>
</g>
<g>
</g>
<g>
</g>
<g>
</g>
<g>
</g>
<g>
</g>
<g>
</g>
<g>
</g>
<g>
</g>
<g>
</g>
<g>
</g>
<g>
</g>
</svg>
