<?xml version="1.0" encoding="iso-8859-1"?>
<!-- Generator: Adobe Illustrator 19.0.0, SVG Export Plug-In . SVG Version: 6.00 Build 0)  -->
<svg fill='#eeeeee' xmlns="http://www.w3.org/2000/svg" xmlns:xlink="http://www.w3.org/1999/xlink" version="1.1" id="Capa_1" x="0px" y="0px" viewBox="0 0 512 512" style="enable-background:new 0 0 512 512;" xml:space="preserve">
<g>
	<g>
		<g>
			<path d="M234.667,192h42.667c0.135-0.021,0.281-0.01,0.427,0c5.885,0,10.667-4.771,10.667-10.667c0-3.865-2.052-7.24-5.125-9.115     l-19.76-19.76c-4.167-4.167-10.917-4.167-15.083,0l-21.333,21.333c-3.052,3.052-3.969,7.635-2.313,11.625     C226.458,189.406,230.354,192,234.667,192z"/>
			<path d="M248.458,359.542c2.083,2.083,4.813,3.125,7.542,3.125s5.458-1.042,7.542-3.125l21.333-21.333     c3.052-3.052,3.969-7.635,2.313-11.625c-1.646-3.99-5.542-6.583-9.854-6.583h-42.667c-4.313,0-8.208,2.594-9.854,6.583     c-1.656,3.99-0.74,8.573,2.313,11.625L248.458,359.542z"/>
			<path d="M326.583,287.188c1.323,0.552,2.708,0.813,4.083,0.813c2.771,0,5.5-1.083,7.542-3.125l21.333-21.333     c4.167-4.167,4.167-10.917,0-15.083l-21.333-21.333c-3.052-3.052-7.625-3.958-11.625-2.313c-3.99,1.646-6.583,5.542-6.583,9.854     v42.667C320,281.646,322.594,285.542,326.583,287.188z"/>
			<path d="M173.792,284.875c2.042,2.042,4.771,3.125,7.542,3.125c1.375,0,2.76-0.26,4.083-0.813     c3.99-1.646,6.583-5.542,6.583-9.854v-42.667c0-4.313-2.594-8.208-6.583-9.854c-4-1.656-8.583-0.75-11.625,2.313l-21.333,21.333     c-4.167,4.167-4.167,10.917,0,15.083L173.792,284.875z"/>
			<path d="M405.333,85.333H106.667c-11.781,0-21.333,9.552-21.333,21.333v298.667c0,11.781,9.552,21.333,21.333,21.333h298.667     c11.781,0,21.333-9.552,21.333-21.333V106.667C426.667,94.885,417.115,85.333,405.333,85.333z M384,384H128V128h256V384z"/>
			<path d="M96,64h21.333C123.229,64,128,59.229,128,53.333V10.667C128,4.771,123.229,0,117.333,0H96     c-5.896,0-10.667,4.771-10.667,10.667v42.667C85.333,59.229,90.104,64,96,64z"/>
			<path d="M53.333,85.333H10.667C4.771,85.333,0,90.104,0,96v21.333C0,123.229,4.771,128,10.667,128h42.667     C59.229,128,64,123.229,64,117.333V96C64,90.104,59.229,85.333,53.333,85.333z"/>
			<path d="M416,0h-21.333C388.771,0,384,4.771,384,10.667v42.667C384,59.229,388.771,64,394.667,64H416     c5.896,0,10.667-4.771,10.667-10.667V10.667C426.667,4.771,421.896,0,416,0z"/>
			<path d="M501.333,85.333h-42.667C452.771,85.333,448,90.104,448,96v21.333c0,5.896,4.771,10.667,10.667,10.667h42.667     c5.896,0,10.667-4.771,10.667-10.667V96C512,90.104,507.229,85.333,501.333,85.333z"/>
			<path d="M117.333,448H96c-5.896,0-10.667,4.771-10.667,10.667v42.667C85.333,507.229,90.104,512,96,512h21.333     c5.896,0,10.667-4.771,10.667-10.667v-42.667C128,452.771,123.229,448,117.333,448z"/>
			<path d="M53.333,384H10.667C4.771,384,0,388.771,0,394.667V416c0,5.896,4.771,10.667,10.667,10.667h42.667     C59.229,426.667,64,421.896,64,416v-21.333C64,388.771,59.229,384,53.333,384z"/>
			<path d="M416,448h-21.333c-5.896,0-10.667,4.771-10.667,10.667v42.667c0,5.896,4.771,10.667,10.667,10.667H416     c5.896,0,10.667-4.771,10.667-10.667v-42.667C426.667,452.771,421.896,448,416,448z"/>
			<path d="M501.333,384h-42.667c-5.896,0-10.667,4.771-10.667,10.667V416c0,5.896,4.771,10.667,10.667,10.667h42.667     c5.896,0,10.667-4.771,10.667-10.667v-21.333C512,388.771,507.229,384,501.333,384z"/>
		</g>
	</g>
</g>
<g>
</g>
<g>
</g>
<g>
</g>
<g>
</g>
<g>
</g>
<g>
</g>
<g>
</g>
<g>
</g>
<g>
</g>
<g>
</g>
<g>
</g>
<g>
</g>
<g>
</g>
<g>
</g>
<g>
</g>
</svg>
