<?xml version="1.0" encoding="iso-8859-1"?>
<!-- Generator: Adobe Illustrator 19.0.0, SVG Export Plug-In . SVG Version: 6.00 Build 0)  -->
<svg fill='#eeeeee' xmlns="http://www.w3.org/2000/svg" xmlns:xlink="http://www.w3.org/1999/xlink" version="1.1" id="Capa_1" x="0px" y="0px" viewBox="0 0 469.333 469.333" style="enable-background:new 0 0 469.333 469.333;" xml:space="preserve">
<g>
	<g>
		<g>
			<path d="M106.667,405.333h64c23.531,0,42.667-19.135,42.667-42.667v-320C213.333,19.135,194.198,0,170.667,0h-64     C83.135,0,64,19.135,64,42.667v320C64,386.198,83.135,405.333,106.667,405.333z"/>
			<path d="M298.562,405.333h64.208c23.469,0,42.563-19.094,42.563-42.563V170.562c0-23.469-19.094-42.563-42.563-42.563h-64.208     C275.094,128,256,147.094,256,170.562v192.208C256,386.24,275.094,405.333,298.562,405.333z"/>
			<path d="M458.667,426.667h-448C4.771,426.667,0,431.438,0,437.333v21.333c0,5.896,4.771,10.667,10.667,10.667h448     c5.896,0,10.667-4.771,10.667-10.667v-21.333C469.333,431.438,464.563,426.667,458.667,426.667z"/>
		</g>
	</g>
</g>
<g>
</g>
<g>
</g>
<g>
</g>
<g>
</g>
<g>
</g>
<g>
</g>
<g>
</g>
<g>
</g>
<g>
</g>
<g>
</g>
<g>
</g>
<g>
</g>
<g>
</g>
<g>
</g>
<g>
</g>
</svg>
