<?xml version="1.0" encoding="iso-8859-1"?>
<!-- Generator: Adobe Illustrator 19.0.0, SVG Export Plug-In . SVG Version: 6.00 Build 0)  -->
<svg fill='#eeeeee' xmlns="http://www.w3.org/2000/svg" xmlns:xlink="http://www.w3.org/1999/xlink" version="1.1" id="Capa_1" x="0px" y="0px" viewBox="0 0 512 512" style="enable-background:new 0 0 512 512;" xml:space="preserve">
<g>
	<g>
		<path d="M501.333,234.667h-74.667v-64.104c0-23.469-19.094-42.563-42.563-42.563h-64.208c-23.469,0-42.563,19.094-42.563,42.563    v64.104h-42.667v-128C234.667,83.135,215.531,64,192,64h-64c-23.531,0-42.667,19.135-42.667,42.667v128H10.667    C4.771,234.667,0,239.438,0,245.333v21.333c0,5.896,4.771,10.667,10.667,10.667h74.667v128C85.333,428.865,104.469,448,128,448h64    c23.531,0,42.667-19.135,42.667-42.667v-128h42.667v64.104c0,23.469,19.094,42.563,42.563,42.563h64.208    c23.469,0,42.563-19.094,42.563-42.563v-64.104h74.667c5.896,0,10.667-4.771,10.667-10.667v-21.333    C512,239.438,507.229,234.667,501.333,234.667z"/>
	</g>
</g>
<g>
</g>
<g>
</g>
<g>
</g>
<g>
</g>
<g>
</g>
<g>
</g>
<g>
</g>
<g>
</g>
<g>
</g>
<g>
</g>
<g>
</g>
<g>
</g>
<g>
</g>
<g>
</g>
<g>
</g>
</svg>
