<?xml version="1.0" encoding="iso-8859-1"?>
<!-- Generator: Adobe Illustrator 19.0.0, SVG Export Plug-In . SVG Version: 6.00 Build 0)  -->
<svg fill='#eeeeee' xmlns="http://www.w3.org/2000/svg" xmlns:xlink="http://www.w3.org/1999/xlink" version="1.1" id="Capa_1" x="0px" y="0px" viewBox="0 0 512 512" style="enable-background:new 0 0 512 512;" xml:space="preserve">
<g>
	<g>
		<g>
			<path d="M405.333,85.333H106.667c-11.781,0-21.333,9.552-21.333,21.333v298.667c0,11.781,9.552,21.333,21.333,21.333h298.667     c11.781,0,21.333-9.552,21.333-21.333V106.667C426.667,94.885,417.115,85.333,405.333,85.333z M384,384H128V128h256V384z"/>
			<path d="M96,64h21.333C123.229,64,128,59.229,128,53.333V10.667C128,4.771,123.229,0,117.333,0H96     c-5.896,0-10.667,4.771-10.667,10.667v42.667C85.333,59.229,90.104,64,96,64z"/>
			<path d="M53.333,85.333H10.667C4.771,85.333,0,90.104,0,96v21.333C0,123.229,4.771,128,10.667,128h42.667     C59.229,128,64,123.229,64,117.333V96C64,90.104,59.229,85.333,53.333,85.333z"/>
			<path d="M416,0h-21.333C388.771,0,384,4.771,384,10.667v42.667C384,59.229,388.771,64,394.667,64H416     c5.896,0,10.667-4.771,10.667-10.667V10.667C426.667,4.771,421.896,0,416,0z"/>
			<path d="M501.333,85.333h-42.667C452.771,85.333,448,90.104,448,96v21.333c0,5.896,4.771,10.667,10.667,10.667h42.667     c5.896,0,10.667-4.771,10.667-10.667V96C512,90.104,507.229,85.333,501.333,85.333z"/>
			<path d="M117.333,448H96c-5.896,0-10.667,4.771-10.667,10.667v42.667C85.333,507.229,90.104,512,96,512h21.333     c5.896,0,10.667-4.771,10.667-10.667v-42.667C128,452.771,123.229,448,117.333,448z"/>
			<path d="M53.333,384H10.667C4.771,384,0,388.771,0,394.667V416c0,5.896,4.771,10.667,10.667,10.667h42.667     C59.229,426.667,64,421.896,64,416v-21.333C64,388.771,59.229,384,53.333,384z"/>
			<path d="M416,448h-21.333c-5.896,0-10.667,4.771-10.667,10.667v42.667c0,5.896,4.771,10.667,10.667,10.667H416     c5.896,0,10.667-4.771,10.667-10.667v-42.667C426.667,452.771,421.896,448,416,448z"/>
			<path d="M501.333,384h-42.667c-5.896,0-10.667,4.771-10.667,10.667V416c0,5.896,4.771,10.667,10.667,10.667h42.667     c5.896,0,10.667-4.771,10.667-10.667v-21.333C512,388.771,507.229,384,501.333,384z"/>
		</g>
	</g>
</g>
<g>
</g>
<g>
</g>
<g>
</g>
<g>
</g>
<g>
</g>
<g>
</g>
<g>
</g>
<g>
</g>
<g>
</g>
<g>
</g>
<g>
</g>
<g>
</g>
<g>
</g>
<g>
</g>
<g>
</g>
</svg>
