<?xml version="1.0" encoding="iso-8859-1"?>
<!-- Generator: Adobe Illustrator 19.0.0, SVG Export Plug-In . SVG Version: 6.00 Build 0)  -->
<svg fill='#eeeeee' xmlns="http://www.w3.org/2000/svg" xmlns:xlink="http://www.w3.org/1999/xlink" version="1.1" id="Capa_1" x="0px" y="0px" viewBox="0 0 469.333 469.333" style="enable-background:new 0 0 469.333 469.333;" xml:space="preserve">
<g>
	<g>
		<g>
			<path d="M114.823,277.333c-41.813,0-72.156,31.403-72.156,74.659c0,46.068-40.104,99.687-40.51,100.218     c-2.406,3.187-2.833,7.447-1.104,11.04c1.719,3.604,5.302,5.937,9.292,6.062c0.104,0,1.958,0.021,2.063,0.021     c7.49,0,35.104-0.708,76.188-9.718C145.614,447.107,192,399.893,192,354.377C192,311.892,157.375,277.333,114.823,277.333z"/>
			<path d="M204.5,219.583c-4.167-4.167-10.917-4.167-15.083,0l-31.333,31.323c-2.396,2.385-3.51,5.771-3.01,9.125     c0.5,3.344,2.563,6.25,5.552,7.844c17.458,9.26,31.583,23.375,40.854,40.813c1.583,2.99,4.49,5.052,7.833,5.552     c0.531,0.073,1.063,0.115,1.583,0.115c2.813,0,5.531-1.104,7.542-3.125l31.313-31.313c4.167-4.167,4.167-10.917,0-15.083     L204.5,219.583z"/>
			<path d="M426.667,0c-11.396,0-22.104,4.438-30.167,12.5L219.583,189.417c-2,2-3.125,4.708-3.125,7.542     c0,2.833,1.125,5.542,3.125,7.542l45.25,45.25c2,2,4.708,3.125,7.542,3.125c2.833,0,5.542-1.125,7.542-3.125L456.833,72.833     c8.063-8.063,12.5-18.771,12.5-30.167C469.333,19.135,450.198,0,426.667,0z"/>
		</g>
	</g>
</g>
<g>
</g>
<g>
</g>
<g>
</g>
<g>
</g>
<g>
</g>
<g>
</g>
<g>
</g>
<g>
</g>
<g>
</g>
<g>
</g>
<g>
</g>
<g>
</g>
<g>
</g>
<g>
</g>
<g>
</g>
</svg>
