<?xml version="1.0" encoding="iso-8859-1"?>
<!-- Generator: Adobe Illustrator 19.0.0, SVG Export Plug-In . SVG Version: 6.00 Build 0)  -->
<svg fill='#eeeeee' xmlns="http://www.w3.org/2000/svg" xmlns:xlink="http://www.w3.org/1999/xlink" version="1.1" id="Capa_1" x="0px" y="0px" viewBox="0 0 512 512" style="enable-background:new 0 0 512 512;" xml:space="preserve">
<g>
	<g>
		<path d="M405.333,0.125c0,0-116.404-0.395-119.438,0.219L188.75,20.006c-9.063,1.03-16.997,4.546-23.482,9.855    c-0.13,0.081-0.284,0.079-0.414,0.164L86.708,80.803C72.5,89.697,64,104.943,64,121.606c0,9.518,2.792,18.735,7.271,25.316    l185.074,325.829C258.117,494.66,276.313,512,298.667,512h106.667C428.854,512,448,492.869,448,469.344V42.781    C448,19.256,428.854,0.125,405.333,0.125z M107.542,124.451c-0.583-0.875-0.875-1.865-0.875-2.938    c0-1.938,0.917-3.542,2.979-4.833l45.279-29.432l66.16,237.083L107.542,124.451z M256,288.501L193.813,62.253    c0.792-0.063,1.583-0.177,2.375-0.344L256,49.8V288.501z M352,448.003c-17.646,0-32-14.354-32-32c0-17.646,14.354-32,32-32    c17.646,0,32,14.354,32,32C384,433.648,369.646,448.003,352,448.003z M405.333,330.669c0,5.896-4.771,10.667-10.667,10.667    h-85.333c-5.896,0-10.667-4.771-10.667-10.667v-64c0-5.896,4.771-10.667,10.667-10.667h85.333c5.896,0,10.667,4.771,10.667,10.667    V330.669z M405.333,224.003c0,5.896-4.771,10.667-10.667,10.667h-85.333c-5.896,0-10.667-4.771-10.667-10.667v-64    c0-5.896,4.771-10.667,10.667-10.667h85.333c5.896,0,10.667,4.771,10.667,10.667V224.003z M405.333,117.336    c0,5.896-4.771,10.667-10.667,10.667h-85.333c-5.896,0-10.667-4.771-10.667-10.667v-64c0-5.896,4.771-10.667,10.667-10.667h85.333    c5.896,0,10.667,4.771,10.667,10.667V117.336z"/>
	</g>
</g>
<g>
</g>
<g>
</g>
<g>
</g>
<g>
</g>
<g>
</g>
<g>
</g>
<g>
</g>
<g>
</g>
<g>
</g>
<g>
</g>
<g>
</g>
<g>
</g>
<g>
</g>
<g>
</g>
<g>
</g>
</svg>
