<?xml version="1.0" encoding="iso-8859-1"?>
<!-- Generator: Adobe Illustrator 19.0.0, SVG Export Plug-In . SVG Version: 6.00 Build 0)  -->
<svg fill='#eeeeee' xmlns="http://www.w3.org/2000/svg" xmlns:xlink="http://www.w3.org/1999/xlink" version="1.1" id="Capa_1" x="0px" y="0px" viewBox="0 0 512 512" style="enable-background:new 0 0 512 512;" xml:space="preserve">
<g>
	<g>
		<g>
			<path d="M446.227,428.632L275.737,13.24C272.465,5.229,264.649,0,256,0s-16.465,5.229-19.737,13.24L65.632,428.975     c-0.008,0.02-0.704,2.018-1.085,4.091c-0.43,2.341-0.55,4.794-0.547,4.883C64.877,496.358,184.918,512,256,512     s191.123-15.642,192-74.051C448.005,437.781,447.385,431.333,446.227,428.632z M256,469.333     c-90.668,0-140.56-21.742-148.118-30.777L256,77.542l147.858,360.38C394.943,448.259,345.272,469.333,256,469.333z"/>
			<path d="M210.542,364.51c-12.646,1.042-24.938,2.531-36.5,4.417c-11.646,1.885-19.521,12.844-17.646,24.479     c1.708,10.469,10.771,17.906,21.042,17.906c1.125,0,2.292-0.083,3.438-0.281c10.438-1.688,21.542-3.042,33.167-4     c11.75-0.969,20.479-11.281,19.521-23.021C232.563,372.271,222.042,363.448,210.542,364.51z"/>
			<path d="M298.208,407.052c11.625,0.948,22.708,2.313,33.146,4.01c1.167,0.188,2.313,0.281,3.458,0.281     c10.271,0,19.313-7.427,21.042-17.896c1.896-11.625-6-22.594-17.625-24.49c-11.667-1.906-23.958-3.396-36.521-4.427     c-12.042-0.948-22.063,7.771-23.021,19.521C277.729,395.792,286.479,406.094,298.208,407.052z"/>
		</g>
	</g>
</g>
<g>
</g>
<g>
</g>
<g>
</g>
<g>
</g>
<g>
</g>
<g>
</g>
<g>
</g>
<g>
</g>
<g>
</g>
<g>
</g>
<g>
</g>
<g>
</g>
<g>
</g>
<g>
</g>
<g>
</g>
</svg>
