<?xml version="1.0" encoding="iso-8859-1"?>
<!-- Generator: Adobe Illustrator 19.0.0, SVG Export Plug-In . SVG Version: 6.00 Build 0)  -->
<svg fill='#eeeeee' xmlns="http://www.w3.org/2000/svg" xmlns:xlink="http://www.w3.org/1999/xlink" version="1.1" id="Capa_1" x="0px" y="0px" viewBox="0 0 469.334 469.334" style="enable-background:new 0 0 469.334 469.334;" xml:space="preserve">
<g>
	<g>
		<path d="M458.667,341.334h-32v-268.5l39.543-39.543c4.165-4.165,4.165-10.919,0-15.085L451.128,3.124    c-4.165-4.165-10.919-4.165-15.085,0L396.5,42.667H128v-32C128,4.771,123.229,0,117.333,0h-64    c-5.896,0-10.667,4.771-10.667,10.667v32h-32C4.771,42.667,0,47.438,0,53.334v64C0,123.23,4.771,128,10.667,128h32v288    c0,5.896,4.771,10.667,10.667,10.667h288v32c0,5.896,4.771,10.667,10.667,10.667h64c5.896,0,10.667-4.771,10.667-10.667v-32h32    c5.896,0,10.667-4.771,10.667-10.667v-64C469.333,346.105,464.563,341.334,458.667,341.334z M128,128h183.167L128,311.167V128z     M341.333,341.334H158.167l183.167-183.167V341.334z"/>
	</g>
</g>
<g>
</g>
<g>
</g>
<g>
</g>
<g>
</g>
<g>
</g>
<g>
</g>
<g>
</g>
<g>
</g>
<g>
</g>
<g>
</g>
<g>
</g>
<g>
</g>
<g>
</g>
<g>
</g>
<g>
</g>
</svg>
