<?xml version="1.0" encoding="iso-8859-1"?>
<!-- Generator: Adobe Illustrator 19.0.0, SVG Export Plug-In . SVG Version: 6.00 Build 0)  -->
<svg fill='#eeeeee' xmlns="http://www.w3.org/2000/svg" xmlns:xlink="http://www.w3.org/1999/xlink" version="1.1" id="Capa_1" x="0px" y="0px" viewBox="0 0 512 512" style="enable-background:new 0 0 512 512;" xml:space="preserve">
<g>
	<g>
		<g>
			<path d="M256,0C184.688,0,64,15.729,64,74.667v362.667C64,496.271,184.688,512,256,512s192-15.729,192-74.667V74.667     C448,15.729,327.313,0,256,0z M256,42.667c90.594,0,140.969,21.844,148.76,32c-7.792,10.156-58.167,32-148.76,32     s-140.969-21.844-148.76-32C115.031,64.51,165.406,42.667,256,42.667z M256,469.333c-94.542,0-145.281-23.792-149.333-32v-312.85     c41.638,18.753,105.008,24.85,149.333,24.85c44.336,0,107.724-6.099,149.362-24.862l0.18,311.602     C401.281,445.542,350.542,469.333,256,469.333z"/>
			<path d="M210.292,364.531c-12.563,1.031-24.854,2.521-36.531,4.427c-11.625,1.896-19.521,12.865-17.615,24.49     c1.708,10.469,10.76,17.896,21.031,17.896c1.135,0,2.292-0.094,3.458-0.281c10.438-1.698,21.531-3.063,33.135-4.01     c11.75-0.958,20.49-11.26,19.521-23C232.333,372.313,222.063,363.49,210.292,364.531z"/>
			<path d="M337.969,368.917c-11.583-1.875-23.865-3.365-36.5-4.406c-12.073-1.135-22.042,7.76-23.021,19.5     c-0.969,11.74,7.76,22.052,19.5,23.021c11.625,0.958,22.74,2.313,33.188,4.01c1.156,0.188,2.302,0.271,3.438,0.271     c10.281,0,19.333-7.438,21.042-17.917C357.5,381.771,349.604,370.813,337.969,368.917z"/>
		</g>
	</g>
</g>
<g>
</g>
<g>
</g>
<g>
</g>
<g>
</g>
<g>
</g>
<g>
</g>
<g>
</g>
<g>
</g>
<g>
</g>
<g>
</g>
<g>
</g>
<g>
</g>
<g>
</g>
<g>
</g>
<g>
</g>
</svg>
