<?xml version="1.0" encoding="iso-8859-1"?>
<!-- Generator: Adobe Illustrator 19.0.0, SVG Export Plug-In . SVG Version: 6.00 Build 0)  -->
<svg fill='#eeeeee' xmlns="http://www.w3.org/2000/svg" xmlns:xlink="http://www.w3.org/1999/xlink" version="1.1" id="Capa_1" x="0px" y="0px" viewBox="0 0 469.333 469.333" style="enable-background:new 0 0 469.333 469.333;" xml:space="preserve">
<g>
	<g>
		<g>
			<path d="M426.667,0h-384C19.146,0,0,19.135,0,42.667v384c0,23.531,19.146,42.667,42.667,42.667h384     c23.521,0,42.667-19.135,42.667-42.667v-384C469.333,19.135,450.188,0,426.667,0z M138.667,42.667     c5.891,0,10.667,4.775,10.667,10.667c0,5.891-4.776,10.667-10.667,10.667S128,59.224,128,53.333     C128,47.441,132.776,42.667,138.667,42.667z M96,42.667c5.891,0,10.667,4.775,10.667,10.667C106.667,59.224,101.891,64,96,64     s-10.667-4.776-10.667-10.667C85.333,47.441,90.109,42.667,96,42.667z M53.333,42.667C59.224,42.667,64,47.441,64,53.333     C64,59.224,59.224,64,53.333,64s-10.667-4.776-10.667-10.667C42.667,47.441,47.443,42.667,53.333,42.667z M426.667,426.667h-384     v-320h384V426.667z"/>
			<path d="M85.333,362.729c11.792,0,21.396-9.604,21.396-21.396c0-7.698-4.311-14.158-10.435-17.927     c1.96-33.964,19.63-96.112,120.49-99.046c3.779,6.085,10.214,10.368,17.883,10.368c11.792,0,21.396-9.604,21.396-21.396     c0-11.792-9.604-21.396-21.396-21.396c-7.924,0-14.582,4.533-18.28,10.957c-99.831,2.93-138.423,62.046-141.477,120.148     c-6.432,3.695-10.973,10.359-10.973,18.29C63.937,353.125,73.542,362.729,85.333,362.729z"/>
			<path d="M284.479,372.729c1.146,0.406,2.333,0.604,3.521,0.604c3.167,0,6.271-1.427,8.333-4L335.792,320h58.875     c4.521,0,8.563-2.865,10.063-7.135c1.5-4.271,0.146-9.031-3.396-11.865l-106.667-85.333c-3.229-2.563-7.562-3.073-11.292-1.281     c-3.688,1.781-6.042,5.51-6.042,9.615v138.667C277.333,367.198,280.187,371.229,284.479,372.729z"/>
		</g>
	</g>
</g>
<g>
</g>
<g>
</g>
<g>
</g>
<g>
</g>
<g>
</g>
<g>
</g>
<g>
</g>
<g>
</g>
<g>
</g>
<g>
</g>
<g>
</g>
<g>
</g>
<g>
</g>
<g>
</g>
<g>
</g>
</svg>
