<?xml version="1.0" encoding="iso-8859-1"?>
<!-- Generator: Adobe Illustrator 19.0.0, SVG Export Plug-In . SVG Version: 6.00 Build 0)  -->
<svg fill='#eeeeee' xmlns="http://www.w3.org/2000/svg" xmlns:xlink="http://www.w3.org/1999/xlink" version="1.1" id="Capa_1" x="0px" y="0px" viewBox="0 0 469.336 469.336" style="enable-background:new 0 0 469.336 469.336;" xml:space="preserve">
<g>
	<g>
		<path d="M469.253,10.013c-0.25-4.187-2.937-7.833-6.874-9.323c-3.937-1.479-8.353-0.542-11.311,2.438    C387.138,67.086,338.312,88.701,286.63,111.586l-2.52,1.125c-2.062,0.906-3.791,2.448-4.916,4.396l-10.124,17.438    c-0.458-1.042-0.958-2.094-1.479-3.156c-2.562-5.219-8.832-7.396-14.019-5.01c-31.35,14.344-56.118,25.667-82.427,50.781    c-2.021,1.948-3.208,4.625-3.291,7.448c-0.042,1.865-0.188,3.958-0.354,6.229c-0.396,5.385-0.833,11.813-0.375,18.573    c-2.291-1.385-4.687-3.125-7.145-5.229c-2.229-1.896-5.103-2.792-8.02-2.479c-2.916,0.302-5.562,1.781-7.332,4.094    c-21.539,27.917-37.787,62.083-48.327,101.542c-1.208,4.51,0.667,9.292,4.624,11.781c3.958,2.479,9.061,2.094,12.623-0.938    c33.683-28.875,59.013-47.802,81.448-64.552c36.891-27.573,71.72-53.625,134.337-116.25c4.041-4.021,11.04-4.021,15.081,0    c2.021,2.021,3.125,4.698,3.125,7.542s-1.104,5.521-3.125,7.542c-63.742,63.75-99.133,90.208-136.607,118.219    c-24.975,18.677-104.578,85.012-108.557,88.596c-28.662,25.848-60.172,55.895-96.124,91.852c-4.166,4.167-4.166,10.917,0,15.083    c2.083,2.083,4.812,3.125,7.541,3.125s5.458-1.042,7.541-3.125c30.618-30.622,58.005-56.969,83.125-80.035    c5.394,1.309,12.902,2.556,22.799,2.556c40.536,0,108.736-19.875,203.369-114.521C474.627,127.065,469.544,14.732,469.253,10.013z    "/>
	</g>
</g>
<g>
</g>
<g>
</g>
<g>
</g>
<g>
</g>
<g>
</g>
<g>
</g>
<g>
</g>
<g>
</g>
<g>
</g>
<g>
</g>
<g>
</g>
<g>
</g>
<g>
</g>
<g>
</g>
<g>
</g>
</svg>
