<?xml version="1.0" encoding="iso-8859-1"?>
<!-- Generator: Adobe Illustrator 19.0.0, SVG Export Plug-In . SVG Version: 6.00 Build 0)  -->
<svg fill='#eeeeee' xmlns="http://www.w3.org/2000/svg" xmlns:xlink="http://www.w3.org/1999/xlink" version="1.1" id="Capa_1" x="0px" y="0px" viewBox="0 0 469.333 469.333" style="enable-background:new 0 0 469.333 469.333;" xml:space="preserve">
<g>
	<g>
		<g>
			<path d="M458.667,106.667H117.333c-5.896,0-10.667,4.771-10.667,10.667v341.333c0,5.896,4.771,10.667,10.667,10.667H352     c1.401,0,2.786-0.285,4.083-0.823c1.309-0.543,2.487-1.328,3.471-2.315l106.641-106.641c1.307-1.303,2.1-3.009,2.592-4.846     c0.122-0.456,0.206-0.857,0.267-1.324c0.064-0.474,0.279-0.893,0.279-1.384V117.333     C469.333,111.437,464.563,106.667,458.667,106.667z M362.667,432.917V384c0-11.76,9.563-21.333,21.333-21.333h48.917     L362.667,432.917z"/>
			<path d="M426.667,0h-416C4.771,0,0,4.771,0,10.667v416c0,23.531,19.146,42.667,42.667,42.667h32     c5.896,0,10.667-4.771,10.667-10.667V416c0-5.896-4.771-10.667-10.667-10.667H53.333c-5.875,0-10.667-4.781-10.667-10.667     c0-5.885,4.792-10.667,10.667-10.667h21.333c5.896,0,10.667-4.771,10.667-10.667V352c0-5.896-4.771-10.667-10.667-10.667H53.333     c-5.875,0-10.667-4.781-10.667-10.667c0-5.885,4.792-10.667,10.667-10.667h21.333c5.896,0,10.667-4.771,10.667-10.667V288     c0-5.896-4.771-10.667-10.667-10.667H53.333c-5.875,0-10.667-4.781-10.667-10.667S47.458,256,53.333,256h21.333     c5.896,0,10.667-4.771,10.667-10.667V224c0-5.896-4.771-10.667-10.667-10.667H53.333c-5.875,0-10.667-4.781-10.667-10.667     S47.458,192,53.333,192h21.333c5.896,0,10.667-4.771,10.667-10.667V160c0-5.896-4.771-10.667-10.667-10.667H53.333     c-5.875,0-10.667-4.781-10.667-10.667S47.458,128,53.333,128h21.333c5.896,0,10.667-4.771,10.667-10.667v-32h32     c5.896,0,10.667-4.771,10.667-10.667V53.333c0-5.885,4.792-10.667,10.667-10.667s10.667,4.781,10.667,10.667v21.333     c0,5.896,4.771,10.667,10.667,10.667h21.333c5.896,0,10.667-4.771,10.667-10.667V53.333c0-5.885,4.792-10.667,10.667-10.667     s10.667,4.781,10.667,10.667v21.333c0,5.896,4.771,10.667,10.667,10.667h21.333c5.896,0,10.667-4.771,10.667-10.667V53.333     c0-5.885,4.792-10.667,10.667-10.667s10.667,4.781,10.667,10.667v21.333c0,5.896,4.771,10.667,10.667,10.667h21.333     c5.896,0,10.667-4.771,10.667-10.667V53.333c0-5.885,4.792-10.667,10.667-10.667s10.667,4.781,10.667,10.667v21.333     c0,5.896,4.771,10.667,10.667,10.667h21.333c5.896,0,10.667-4.771,10.667-10.667V53.333c0-5.885,4.792-10.667,10.667-10.667     s10.667,4.781,10.667,10.667v21.333c0,5.896,4.771,10.667,10.667,10.667h42.667c5.896,0,10.667-4.771,10.667-10.667v-32     C469.333,19.135,450.188,0,426.667,0z"/>
		</g>
	</g>
</g>
<g>
</g>
<g>
</g>
<g>
</g>
<g>
</g>
<g>
</g>
<g>
</g>
<g>
</g>
<g>
</g>
<g>
</g>
<g>
</g>
<g>
</g>
<g>
</g>
<g>
</g>
<g>
</g>
<g>
</g>
</svg>
