<?xml version="1.0" encoding="iso-8859-1"?>
<!-- Generator: Adobe Illustrator 19.0.0, SVG Export Plug-In . SVG Version: 6.00 Build 0)  -->
<svg fill='#eeeeee' xmlns="http://www.w3.org/2000/svg" xmlns:xlink="http://www.w3.org/1999/xlink" version="1.1" id="Capa_1" x="0px" y="0px" viewBox="0 0 469.333 469.333" style="enable-background:new 0 0 469.333 469.333;" xml:space="preserve">
<g>
	<g>
		<g>
			<path d="M240.875,128h-23.104c-11.792,0-21.333,9.552-21.333,21.333s9.542,21.333,21.333,21.333h23.104     c11.792,0,21.333-9.552,21.333-21.333S252.667,128,240.875,128z"/>
			<path d="M298.667,170.667c0,11.781,9.542,21.333,21.333,21.333c11.792,0,21.333-9.552,21.333-21.333v-21.333     c0-11.781-9.542-21.333-21.333-21.333h-21.333c-11.792,0-21.333,9.552-21.333,21.333S286.875,170.667,298.667,170.667z"/>
			<path d="M320,207.115c-11.792,0-21.333,9.552-21.333,21.333v23.115c0,11.781,9.542,21.333,21.333,21.333     c11.792,0,21.333-9.552,21.333-21.333v-23.115C341.333,216.667,331.792,207.115,320,207.115z"/>
			<path d="M352,320h-10.667v-10.667c0-11.781-9.542-21.333-21.333-21.333c-11.792,0-21.333,9.552-21.333,21.333V320H149.333     V170.667H160c11.792,0,21.333-9.552,21.333-21.333S171.792,128,160,128h-10.667v-10.667C149.333,105.552,139.792,96,128,96     c-11.792,0-21.333,9.552-21.333,21.333V128h-96C4.771,128,0,132.771,0,138.667v320c0,5.896,4.771,10.667,10.667,10.667h320     c5.896,0,10.667-4.771,10.667-10.667v-96H352c11.792,0,21.333-9.552,21.333-21.333S363.792,320,352,320z"/>
			<path d="M448,298.667c-11.792,0-21.333,9.552-21.333,21.333c-11.792,0-21.333,9.552-21.333,21.333s9.542,21.333,21.333,21.333     H448c11.792,0,21.333-9.552,21.333-21.333V320C469.333,308.219,459.792,298.667,448,298.667z"/>
			<path d="M448,85.333c-11.792,0-21.333,9.552-21.333,21.333v42.667c0,11.781,9.542,21.333,21.333,21.333     c11.792,0,21.333-9.552,21.333-21.333v-42.667C469.333,94.885,459.792,85.333,448,85.333z"/>
			<path d="M448,192c-11.792,0-21.333,9.552-21.333,21.333V256c0,11.781,9.542,21.333,21.333,21.333     c11.792,0,21.333-9.552,21.333-21.333v-42.667C469.333,201.552,459.792,192,448,192z"/>
			<path d="M448,0h-21.333c-11.792,0-21.333,9.552-21.333,21.333s9.542,21.333,21.333,21.333C426.667,54.448,436.208,64,448,64     c11.792,0,21.333-9.552,21.333-21.333V21.333C469.333,9.552,459.792,0,448,0z"/>
			<path d="M213.333,42.667H256c11.792,0,21.333-9.552,21.333-21.333S267.792,0,256,0h-42.667C201.542,0,192,9.552,192,21.333     S201.542,42.667,213.333,42.667z"/>
			<path d="M362.667,0H320c-11.792,0-21.333,9.552-21.333,21.333S308.208,42.667,320,42.667h42.667     c11.792,0,21.333-9.552,21.333-21.333S374.458,0,362.667,0z"/>
			<path d="M128,64c11.792,0,21.333-9.552,21.333-21.333c11.792,0,21.333-9.552,21.333-21.333S161.125,0,149.333,0H128     c-11.792,0-21.333,9.552-21.333,21.333v21.333C106.667,54.448,116.208,64,128,64z"/>
		</g>
	</g>
</g>
<g>
</g>
<g>
</g>
<g>
</g>
<g>
</g>
<g>
</g>
<g>
</g>
<g>
</g>
<g>
</g>
<g>
</g>
<g>
</g>
<g>
</g>
<g>
</g>
<g>
</g>
<g>
</g>
<g>
</g>
</svg>
