<?xml version="1.0" encoding="iso-8859-1"?>
<!-- Generator: Adobe Illustrator 19.0.0, SVG Export Plug-In . SVG Version: 6.00 Build 0)  -->
<svg fill='#eeeeee' xmlns="http://www.w3.org/2000/svg" xmlns:xlink="http://www.w3.org/1999/xlink" version="1.1" id="Capa_1" x="0px" y="0px" viewBox="0 0 512 512" style="enable-background:new 0 0 512 512;" xml:space="preserve">
<g>
	<g>
		<g>
			<path d="M303.646,441.771c-1.635,0.415-3.331,0.634-4.979,1.008v-5.445c0-5.896-4.771-10.667-10.667-10.667h-64     c-5.896,0-10.667,4.771-10.667,10.667v5.445c-1.648-0.374-3.344-0.592-4.979-1.008c-11.458-3.01-23.021,3.969-25.938,15.385     c-2.917,11.417,3.979,23.042,15.396,25.948c5.076,1.301,10.313,2.188,15.521,3.15v15.079c0,5.896,4.771,10.667,10.667,10.667h64     c5.896,0,10.667-4.771,10.667-10.667v-15.079c5.208-0.962,10.445-1.849,15.521-3.15c11.417-2.906,18.313-14.531,15.396-25.948     C326.666,445.74,315.042,438.771,303.646,441.771z"/>
			<path d="M373.833,407.281c-8.271,6.458-17.125,12.26-26.313,17.26c-10.354,5.625-14.188,18.573-8.563,28.927     c3.875,7.115,11.208,11.146,18.771,11.146c3.438,0,6.938-0.833,10.167-2.594c11.229-6.104,22.063-13.198,32.188-21.094     c9.292-7.25,10.938-20.656,3.688-29.948C396.521,401.708,383.104,400,373.833,407.281z"/>
			<path d="M453.354,339.104c-10.354-5.646-23.313-1.76-28.917,8.573c-4.958,9.125-10.75,17.958-17.25,26.271     c-7.25,9.281-5.604,22.688,3.667,29.938c3.917,3.052,8.542,4.531,13.125,4.531c6.354,0,12.625-2.813,16.833-8.198     c7.938-10.156,15.042-20.99,21.125-32.188C467.563,357.667,463.708,344.719,453.354,339.104z"/>
			<path d="M54.854,329.583c11.417-2.917,18.292-14.542,15.375-25.948c-0.413-1.628-0.63-3.326-1.003-4.969h5.44     c5.896,0,10.667-4.771,10.667-10.667v-64c0-5.896-4.771-10.667-10.667-10.667h-5.44c0.372-1.643,0.59-3.341,1.003-4.969     c2.917-11.406-3.958-23.031-15.375-25.948c-11.417-2.927-23.042,3.958-25.958,15.385c-1.306,5.077-2.186,10.319-3.146,15.531     H10.667C4.771,213.333,0,218.104,0,224v64c0,5.896,4.771,10.667,10.667,10.667H25.75c0.96,5.212,1.84,10.454,3.146,15.531     c2.458,9.646,11.146,16.052,20.646,16.052C51.292,330.25,53.083,330.042,54.854,329.583z"/>
			<path d="M104.708,373.813c-6.417-8.229-12.229-17.083-17.271-26.313c-5.604-10.344-18.542-14.167-28.938-8.542     c-10.333,5.635-14.167,18.594-8.521,28.938c6.146,11.292,13.229,22.115,21.104,32.188c4.208,5.385,10.479,8.198,16.833,8.198     c4.583,0,9.208-1.479,13.104-4.521C110.313,396.51,111.958,383.104,104.708,373.813z"/>
			<path d="M164.333,424.469c-9.188-5-18.042-10.813-26.292-17.26c-9.354-7.302-22.729-5.604-29.958,3.667     c-7.25,9.281-5.604,22.688,3.667,29.938c10.104,7.896,20.938,15.01,32.167,21.135c3.25,1.76,6.75,2.594,10.188,2.594     c7.563,0,14.896-4.021,18.75-11.135C178.5,443.063,174.666,430.104,164.333,424.469z"/>
			<path d="M58.646,172.896c3.229,1.76,6.708,2.583,10.146,2.583c7.583,0,14.917-4.042,18.771-11.156     c4.958-9.125,10.75-17.958,17.25-26.271c7.25-9.281,5.604-22.688-3.667-29.938c-9.375-7.302-22.729-5.625-29.958,3.667     c-7.938,10.156-15.042,20.99-21.125,32.188C44.438,154.333,48.292,167.281,58.646,172.896z"/>
			<path d="M144.104,49.979c-11.229,6.104-22.063,13.198-32.188,21.094c-9.292,7.25-10.938,20.656-3.688,29.948     c4.208,5.385,10.479,8.208,16.833,8.208c4.583,0,9.208-1.469,13.104-4.51c8.271-6.458,17.125-12.26,26.313-17.26     c10.354-5.625,14.188-18.573,8.563-28.927S154.438,44.333,144.104,49.979z"/>
			<path d="M347.667,87.531c9.188,5,18.042,10.813,26.292,17.26c3.917,3.052,8.542,4.531,13.125,4.531     c6.354,0,12.625-2.813,16.833-8.198c7.25-9.281,5.604-22.688-3.667-29.938c-10.104-7.896-20.938-15.01-32.167-21.135     c-10.417-5.615-23.333-1.813-28.938,8.542C333.5,68.938,337.333,81.896,347.667,87.531z"/>
			<path d="M407.292,138.188c6.417,8.229,12.229,17.083,17.271,26.313c3.854,7.115,11.188,11.135,18.75,11.135     c3.438,0,6.938-0.833,10.188-2.594c10.333-5.635,14.167-18.594,8.521-28.938c-6.146-11.292-13.229-22.115-21.104-32.188     c-7.25-9.281-20.646-10.958-29.938-3.677C401.688,115.49,400.042,128.896,407.292,138.188z"/>
			<path d="M314.188,28.896c-5.076-1.301-10.313-2.188-15.521-3.15V10.667C298.667,4.771,293.896,0,288,0h-64     c-5.896,0-10.667,4.771-10.667,10.667v15.079c-5.208,0.962-10.445,1.849-15.521,3.15c-11.417,2.906-18.313,14.531-15.396,25.948     c2.458,9.646,11.125,16.052,20.646,16.052c1.75,0,3.521-0.208,5.292-0.667c1.635-0.415,3.331-0.634,4.979-1.008v5.445     c0,5.896,4.771,10.667,10.667,10.667h64c5.896,0,10.667-4.771,10.667-10.667v-5.445c1.648,0.374,3.344,0.592,4.979,1.008     c1.771,0.458,3.542,0.667,5.292,0.667c9.521,0,18.188-6.406,20.646-16.052C332.5,43.427,325.604,31.802,314.188,28.896z"/>
			<path d="M501.333,213.333H486.25c-0.96-5.212-1.84-10.454-3.146-15.531c-2.917-11.427-14.583-18.313-25.958-15.385     c-11.417,2.917-18.292,14.542-15.375,25.948c0.413,1.628,0.63,3.326,1.003,4.969h-5.44c-5.896,0-10.667,4.771-10.667,10.667v64     c0,5.896,4.771,10.667,10.667,10.667h5.44c-0.372,1.643-0.59,3.341-1.003,4.969c-2.917,11.406,3.958,23.031,15.375,25.948     c1.771,0.458,3.563,0.667,5.313,0.667c9.5,0,18.188-6.406,20.646-16.052c1.306-5.077,2.186-10.319,3.146-15.531h15.083     c5.896,0,10.667-4.771,10.667-10.667v-64C512,218.104,507.229,213.333,501.333,213.333z"/>
		</g>
	</g>
</g>
<g>
</g>
<g>
</g>
<g>
</g>
<g>
</g>
<g>
</g>
<g>
</g>
<g>
</g>
<g>
</g>
<g>
</g>
<g>
</g>
<g>
</g>
<g>
</g>
<g>
</g>
<g>
</g>
<g>
</g>
</svg>
