<?xml version="1.0" encoding="iso-8859-1"?>
<!-- Generator: Adobe Illustrator 19.0.0, SVG Export Plug-In . SVG Version: 6.00 Build 0)  -->
<svg fill='#eeeeee' xmlns="http://www.w3.org/2000/svg" xmlns:xlink="http://www.w3.org/1999/xlink" version="1.1" id="Capa_1" x="0px" y="0px" viewBox="0 0 512 512" style="enable-background:new 0 0 512 512;" xml:space="preserve">
<g>
	<g>
		<path d="M501.333,320h-21.861c-3.813-67.053-43.12-125.728-102.793-160h79.643c5.862,6.499,14.257,10.667,23.677,10.667    c17.646,0,32-14.354,32-32c0-17.646-14.354-32-32-32c-9.421,0-17.815,4.168-23.677,10.667H298.667    c0-5.896-4.771-10.667-10.667-10.667h-64c-5.896,0-10.667,4.771-10.667,10.667H55.677c-5.862-6.499-14.256-10.667-23.677-10.667    c-17.646,0-32,14.354-32,32c0,17.646,14.354,32,32,32c9.421,0,17.815-4.168,23.677-10.667h79.643    c-59.673,34.272-98.98,92.947-102.793,160H10.667C4.771,320,0,324.771,0,330.667v64c0,5.896,4.771,10.667,10.667,10.667h64    c5.896,0,10.667-4.771,10.667-10.667v-64c0-5.706-4.5-10.266-10.131-10.559c5.143-70.049,60.876-128.348,138.131-144.671v5.896    c0,5.896,4.771,10.667,10.667,10.667h64c5.896,0,10.667-4.771,10.667-10.667v-5.896c77.255,16.323,132.988,74.621,138.132,144.671    c-5.632,0.293-10.132,4.853-10.132,10.559v64c0,5.896,4.771,10.667,10.667,10.667h64c5.896,0,10.667-4.771,10.667-10.667v-64    C512,324.771,507.229,320,501.333,320z"/>
	</g>
</g>
<g>
</g>
<g>
</g>
<g>
</g>
<g>
</g>
<g>
</g>
<g>
</g>
<g>
</g>
<g>
</g>
<g>
</g>
<g>
</g>
<g>
</g>
<g>
</g>
<g>
</g>
<g>
</g>
<g>
</g>
</svg>
