<?xml version="1.0" encoding="iso-8859-1"?>
<!-- Generator: Adobe Illustrator 19.0.0, SVG Export Plug-In . SVG Version: 6.00 Build 0)  -->
<svg fill='#eeeeee' xmlns="http://www.w3.org/2000/svg" xmlns:xlink="http://www.w3.org/1999/xlink" version="1.1" id="Capa_1" x="0px" y="0px" viewBox="0 0 469.333 469.333" style="enable-background:new 0 0 469.333 469.333;" xml:space="preserve">
<g>
	<g>
		<path d="M426.667,0h-320C83.146,0,64,19.135,64,42.667v10.667H42.667C19.146,53.333,0,72.469,0,96v66.604    c0,21.354,15.979,39.552,37.167,42.313l189.604,24.729c10.583,1.375,18.563,10.469,18.563,21.146V256H224    c-5.896,0-10.667,4.771-10.667,10.667v160c0,23.531,19.146,42.667,42.667,42.667h21.333c23.521,0,42.667-19.135,42.667-42.667    v-160c0-5.896-4.771-10.667-10.667-10.667H288v-5.208c0-32.031-23.958-59.313-55.729-63.458L42.667,162.604V96H64v10.667    c0,23.531,19.146,42.667,42.667,42.667h320c23.521,0,42.667-19.135,42.667-42.667v-64C469.333,19.135,450.188,0,426.667,0z"/>
	</g>
</g>
<g>
</g>
<g>
</g>
<g>
</g>
<g>
</g>
<g>
</g>
<g>
</g>
<g>
</g>
<g>
</g>
<g>
</g>
<g>
</g>
<g>
</g>
<g>
</g>
<g>
</g>
<g>
</g>
<g>
</g>
</svg>
