<?xml version="1.0" encoding="iso-8859-1"?>
<!-- Generator: Adobe Illustrator 19.0.0, SVG Export Plug-In . SVG Version: 6.00 Build 0)  -->
<svg fill='#eeeeee' xmlns="http://www.w3.org/2000/svg" xmlns:xlink="http://www.w3.org/1999/xlink" version="1.1" id="Capa_1" x="0px" y="0px" viewBox="0 0 469.337 469.337" style="enable-background:new 0 0 469.337 469.337;" xml:space="preserve">
<g>
	<g>
		<g>
			<path d="M122.545,370.261L21.211,344.929c-3.083-0.802-6.271-0.135-8.813,1.687c-2.563,1.844-4.167,4.708-4.396,7.833     L0.045,457.846c-0.333,4.135,1.771,8.072,5.375,10.114c1.646,0.917,3.438,1.375,5.25,1.375c2.188,0,4.354-0.667,6.208-1.989     L126.17,389.28c3.375-2.417,5.042-6.583,4.271-10.666C129.67,374.531,126.586,371.26,122.545,370.261z"/>
			<path d="M446.878,52.486L415.608,29.03c-24.979-18.717-55.896-29.029-87.083-29.029c-42.417,0-82.583,18.466-110.188,50.682     L2.566,302.37c-2.396,2.802-3.188,6.656-2.063,10.176c1.125,3.521,4,6.208,7.583,7.104l170.708,42.663     c0.854,0.219,1.729,0.323,2.583,0.323c2.479,0,4.917-0.875,6.875-2.51l263.021-221.46c11.479-10.582,18.063-25.622,18.063-41.256     C469.337,79.827,460.941,63.026,446.878,52.486z M167.541,316.877c-2.083,2.083-4.813,3.125-7.542,3.125     c-2.729,0-5.458-1.042-7.542-3.125l-42.667-42.667c-4.167-4.167-4.167-10.917,0-15.083l27.583-27.583l57.75,57.75     L167.541,316.877z M295.541,188.877l-70.25,70.25l-57.75-57.75l70.25-70.25c4.167-4.167,10.917-4.167,15.083,0l42.667,42.667     C299.708,177.96,299.708,184.71,295.541,188.877z M373.291,128.002c-17.646,0-32-14.354-32-32c0-17.646,14.354-32,32-32     c17.646,0,32,14.354,32,32C405.291,113.648,390.937,128.002,373.291,128.002z"/>
		</g>
	</g>
</g>
<g>
</g>
<g>
</g>
<g>
</g>
<g>
</g>
<g>
</g>
<g>
</g>
<g>
</g>
<g>
</g>
<g>
</g>
<g>
</g>
<g>
</g>
<g>
</g>
<g>
</g>
<g>
</g>
<g>
</g>
</svg>
