<?xml version="1.0" encoding="iso-8859-1"?>
<!-- Generator: Adobe Illustrator 19.0.0, SVG Export Plug-In . SVG Version: 6.00 Build 0)  -->
<svg fill='#eeeeee' xmlns="http://www.w3.org/2000/svg" xmlns:xlink="http://www.w3.org/1999/xlink" version="1.1" id="Capa_1" x="0px" y="0px" viewBox="0 0 512.01 512.01" style="enable-background:new 0 0 512.01 512.01;" xml:space="preserve">
<g>
	<g>
		<g>
			<path d="M373.859,149.344c29.406,0,53.333-23.927,53.333-53.333c0-28.01-7.458-52.156-45.563-92.646     c-3.01-3.198-7.656-4.198-11.698-2.604c-4.073,1.615-6.74,5.542-6.74,9.917c0,16.031-11.385,30.729-22.396,44.948     c-10.427,13.458-20.271,26.177-20.271,40.385C320.526,125.417,344.453,149.344,373.859,149.344z"/>
			<path d="M310.859,234.677l41,0.021c0.49,0.052,2.031,0.208,2.531,0.219c4.667,0,8.813-3.031,10.198-7.531l13.396-43.521     c0.948-3.104,0.438-6.479-1.396-9.156c-1.833-2.688-4.792-4.385-8.042-4.615c-13.031-0.938-25.344-5.01-35.604-11.76     c-2.813-1.875-6.396-2.292-9.573-1.094c-3.188,1.177-5.615,3.802-6.552,7.073l-16.219,56.771     c-0.917,3.219-0.271,6.677,1.75,9.354C304.359,233.104,307.516,234.677,310.859,234.677z"/>
			<path d="M181.339,234.677h85.333c5.896,0,10.667-4.771,10.667-10.667V10.677c0-5.896-4.771-10.667-10.667-10.667h-85.333     c-5.896,0-10.667,4.771-10.667,10.667V32.01c0,5.896,4.771,10.667,10.667,10.667h42.667c5.885,0,10.667,4.781,10.667,10.667     c0,5.885-4.781,10.667-10.667,10.667h-42.667c-5.896,0-10.667,4.771-10.667,10.667V96.01c0,5.896,4.771,10.667,10.667,10.667     h42.667c5.885,0,10.667,4.781,10.667,10.667c0,5.885-4.781,10.667-10.667,10.667h-42.667c-5.896,0-10.667,4.771-10.667,10.667     v21.333c0,5.896,4.771,10.667,10.667,10.667h42.667c5.885,0,10.667,4.781,10.667,10.667c0,5.885-4.781,10.667-10.667,10.667     h-42.667c-5.896,0-10.667,4.771-10.667,10.667v21.333C170.672,229.906,175.443,234.677,181.339,234.677z"/>
			<path d="M77.255,73.698l30.115-7.531c3.365-0.833,6.104-3.26,7.354-6.5c1.25-3.229,0.854-6.875-1.073-9.76L83.547,4.76     c-2.625-3.917-7.479-5.677-11.969-4.292c-4.5,1.365-7.573,5.51-7.573,10.208v52.677c0,3.281,1.51,6.385,4.104,8.406     c1.896,1.479,4.208,2.26,6.563,2.26C75.536,74.021,76.401,73.917,77.255,73.698z"/>
			<path d="M115.453,234.677h43.365c3.333,0,6.479-1.563,8.49-4.208c2.021-2.656,2.677-6.104,1.792-9.313L133.328,92.385     c-1.552-5.583-7.333-8.917-12.865-7.49L78.109,95.49c-2.823,0.698-5.229,2.521-6.677,5.042c-1.438,2.521-1.792,5.521-0.969,8.313     l34.76,118.177C106.557,231.563,110.724,234.677,115.453,234.677z"/>
			<path d="M405.339,277.344h-42.667v-10.667c0-5.896-4.771-10.667-10.667-10.667H117.339c-5.896,0-10.667,4.771-10.667,10.667     v202.667c0,23.531,19.135,42.667,42.667,42.667h170.667c23.531,0,42.667-19.135,42.667-42.667v-42.667     c47.063,0,85.333-38.281,85.333-85.333V320.01C448.005,296.479,428.859,277.344,405.339,277.344z M405.339,341.344     c0,23.531-19.146,42.667-42.667,42.667v-64h42.667V341.344z"/>
		</g>
	</g>
</g>
<g>
</g>
<g>
</g>
<g>
</g>
<g>
</g>
<g>
</g>
<g>
</g>
<g>
</g>
<g>
</g>
<g>
</g>
<g>
</g>
<g>
</g>
<g>
</g>
<g>
</g>
<g>
</g>
<g>
</g>
</svg>
