<?xml version="1.0" encoding="iso-8859-1"?>
<!-- Generator: Adobe Illustrator 19.0.0, SVG Export Plug-In . SVG Version: 6.00 Build 0)  -->
<svg fill='#eeeeee' xmlns="http://www.w3.org/2000/svg" xmlns:xlink="http://www.w3.org/1999/xlink" version="1.1" id="Capa_1" x="0px" y="0px" viewBox="0 0 469.336 469.336" style="enable-background:new 0 0 469.336 469.336;" xml:space="preserve">
<g>
	<g>
		<g>
			<path d="M402.326,175.908c2.083,2.083,4.813,3.125,7.542,3.125c2.719,0,5.427-1.031,7.51-3.094l39.458-39.104     c8.063-8.063,12.5-18.771,12.5-30.167s-4.438-22.104-12.5-30.167l-64-64c-16.125-16.125-44.177-16.156-60.365,0.031     L293.399,51.96c-4.135,4.177-4.125,10.896,0.031,15.052L402.326,175.908z"/>
			<path d="M357.266,235.312l29.81-29.57c2.01-1.991,3.146-4.712,3.156-7.559c0.01-2.836-1.115-5.557-3.125-7.569l-39.229-39.263     c-4-4.003-11.083-4.003-15.083,0L129.909,354.412c-2.427,2.429-3.531,5.87-2.99,9.258c0.552,3.388,2.698,6.307,5.76,7.84     l16.656,8.341V407.9l-51.031,14.602l-51.51-51.555l14.59-51.075h28.025l8.333,16.671c1.531,3.065,4.448,5.213,7.833,5.765     c0.573,0.094,1.146,0.136,1.708,0.136c2.802,0,5.531-1.105,7.542-3.128l202.885-203.061c2-2.002,3.125-4.712,3.125-7.548     c0-2.836-1.125-5.547-3.125-7.548l-39.229-39.263c-2-2.002-4.708-3.128-7.542-3.128h-0.021c-2.844,0.01-5.563,1.147-7.552,3.159     l-29.544,29.836L125.284,3.129c-4.167-4.17-10.917-4.17-15.083,0L3.534,109.888c-4.167,4.17-4.167,10.926,0,15.096l16.917,16.931     c4.167,4.17,10.917,4.17,15.083,0l42.667-42.704c4.042-4.024,11.042-4.024,15.083,0c2.01,2.023,3.125,4.702,3.125,7.548     s-1.115,5.526-3.125,7.548l-42.667,42.704c-4.167,4.17-4.167,10.926,0,15.096l12.5,12.511c4.167,4.17,10.917,4.17,15.083,0     l42.667-42.704c4.042-4.024,11.042-4.024,15.083,0c2.01,2.023,3.125,4.702,3.125,7.548c0,2.846-1.115,5.526-3.125,7.548     l-42.667,42.704c-4.167,4.17-4.167,10.926,0,15.096l19.335,19.351l-66.855,67.515c-0.104,0.106-0.1,0.267-0.199,0.377     c-1.095,1.185-2.01,2.55-2.488,4.211l-18.521,64.858L0.409,455.729c-1.063,3.722-0.021,7.736,2.719,10.478     c2.031,2.033,4.75,3.128,7.542,3.128c0.979,0,1.958-0.136,2.927-0.407l84.531-24.167l64.802-18.537     c0.195-0.056,0.329-0.203,0.52-0.27c0.673-0.232,1.262-0.61,1.881-0.976c0.608-0.361,1.216-0.682,1.73-1.146     c0.138-0.122,0.319-0.167,0.452-0.298l67.457-66.913l19.741,19.758c4.167,4.17,10.917,4.17,15.083,0l42.667-42.704     c4.042-4.024,11.042-4.024,15.083,0c4.156,4.16,4.156,10.937,0,15.096l-42.667,42.704c-4.167,4.17-4.167,10.926,0,15.096     l12.5,12.511c4.167,4.17,10.917,4.17,15.083,0l42.667-42.704c4.042-4.024,11.042-4.024,15.083,0     c4.156,4.16,4.156,10.937,0,15.096l-42.667,42.704c-4.167,4.17-4.167,10.926,0,15.096l16.917,16.931     c2.083,2.085,4.813,3.128,7.542,3.128c2.729,0,5.458-1.043,7.542-3.128l106.667-106.759c4.167-4.17,4.167-10.926,0-15.096     L357.266,235.312z"/>
		</g>
	</g>
</g>
<g>
</g>
<g>
</g>
<g>
</g>
<g>
</g>
<g>
</g>
<g>
</g>
<g>
</g>
<g>
</g>
<g>
</g>
<g>
</g>
<g>
</g>
<g>
</g>
<g>
</g>
<g>
</g>
<g>
</g>
</svg>
