<?xml version="1.0" encoding="iso-8859-1"?>
<!-- Generator: Adobe Illustrator 19.0.0, SVG Export Plug-In . SVG Version: 6.00 Build 0)  -->
<svg fill='#eeeeee' xmlns="http://www.w3.org/2000/svg" xmlns:xlink="http://www.w3.org/1999/xlink" version="1.1" id="Capa_1" x="0px" y="0px" viewBox="0 0 469.333 469.333" style="enable-background:new 0 0 469.333 469.333;" xml:space="preserve">
<g>
	<g>
		<g>
			<path d="M420.717,384.322c31.395-43.438,48.616-95.396,48.616-149.634c0-70.156-29.271-138.021-80.313-186.198     c-8.573-8.094-22.073-7.698-30.156,0.865c-3.896,4.125-5.823,9.385-5.823,14.646c0,5.667,2.24,11.313,6.688,15.51     c42.542,40.156,66.938,96.719,66.938,155.177c0,42.865-12.901,84.027-36.533,119.051l-9.259-9.259     c-3.052-3.052-7.635-3.969-11.625-2.313c-3.99,1.646-6.583,5.542-6.583,9.854v64c0,5.896,4.771,10.646,10.667,10.646h64     c4.313,0,8.208-2.573,9.854-6.563c1.656-3.979,0.74-8.583-2.313-11.625L420.717,384.322z"/>
			<path d="M173.792,188.875c4.167,4.167,10.917,4.167,15.083,0L359.542,18.208c3.052-3.042,3.948-7.635,2.313-11.625     C360.208,2.594,356.313,0,352,0H10.667C6.354,0,2.458,2.594,0.812,6.583C0.26,7.906,0,9.292,0,10.667     c0,2.771,1.083,5.5,3.125,7.542L173.792,188.875z"/>
			<path d="M188.844,280.49c-4.167-4.167-10.917-4.167-15.083,0L3.125,451.125C1.083,453.167,0,455.896,0,458.667     c0,1.375,0.26,2.76,0.813,4.083c1.646,3.99,5.542,6.583,9.854,6.583H352c4.313,0,8.208-2.604,9.854-6.583     c1.646-4,0.74-8.583-2.313-11.625L188.844,280.49z"/>
			<path d="M21.333,256h21.333C54.448,256,64,246.448,64,234.667s-9.552-21.333-21.333-21.333H21.333     C9.552,213.333,0,222.885,0,234.667S9.552,256,21.333,256z"/>
			<path d="M245.333,213.333c-11.781,0-21.333,9.552-21.333,21.333S233.552,256,245.333,256H288     c11.781,0,21.333-9.552,21.333-21.333s-9.552-21.333-21.333-21.333H245.333z"/>
			<path d="M117.333,213.333c-11.781,0-21.333,9.552-21.333,21.333S105.552,256,117.333,256H160     c11.781,0,21.333-9.552,21.333-21.333s-9.552-21.333-21.333-21.333H117.333z"/>
			<path d="M394.667,256c11.781,0,21.333-9.552,21.333-21.333s-9.552-21.333-21.333-21.333h-21.333     c-11.781,0-21.333,9.552-21.333,21.333S361.552,256,373.333,256H394.667z"/>
		</g>
	</g>
</g>
<g>
</g>
<g>
</g>
<g>
</g>
<g>
</g>
<g>
</g>
<g>
</g>
<g>
</g>
<g>
</g>
<g>
</g>
<g>
</g>
<g>
</g>
<g>
</g>
<g>
</g>
<g>
</g>
<g>
</g>
</svg>
