<?xml version="1.0" encoding="iso-8859-1"?>
<!-- Generator: Adobe Illustrator 19.0.0, SVG Export Plug-In . SVG Version: 6.00 Build 0)  -->
<svg fill='#eeeeee' xmlns="http://www.w3.org/2000/svg" xmlns:xlink="http://www.w3.org/1999/xlink" version="1.1" id="Capa_1" x="0px" y="0px" viewBox="0 0 469.333 469.333" style="enable-background:new 0 0 469.333 469.333;" xml:space="preserve">
<g>
	<g>
		<g>
			<path d="M64,116.292c5.667,0,11.313-2.24,15.51-6.688c40.156-42.542,96.719-66.938,155.177-66.938     c42.865,0,84.027,12.901,119.051,36.533l-9.259,9.259c-3.052,3.052-3.969,7.635-2.313,11.625c1.646,3.99,5.542,6.583,9.854,6.583     h64c5.896,0,10.646-4.771,10.646-10.667V32c0-4.313-2.573-8.208-6.563-9.854c-3.979-1.656-8.583-0.74-11.625,2.313     l-24.158,24.158C340.884,17.221,288.926,0,234.687,0C164.531,0,96.667,29.271,48.49,80.312     c-8.094,8.573-7.698,22.073,0.865,30.156C53.479,114.365,58.74,116.292,64,116.292z"/>
			<path d="M18.208,109.792c-3.042-3.052-7.635-3.948-11.625-2.313C2.594,109.125,0,113.021,0,117.333v341.333     c0,4.313,2.594,8.208,6.583,9.854c1.323,0.552,2.708,0.813,4.083,0.813c2.771,0,5.5-1.083,7.542-3.125l170.667-170.667     c4.167-4.167,4.167-10.917,0-15.083L18.208,109.792z"/>
			<path d="M462.75,107.479c-4-1.646-8.583-0.74-11.625,2.313L280.49,280.49c-4.167,4.167-4.167,10.917,0,15.083l170.635,170.635     c2.042,2.042,4.771,3.125,7.542,3.125c1.375,0,2.76-0.26,4.083-0.813c3.99-1.646,6.583-5.542,6.583-9.854V117.333     C469.333,113.021,466.729,109.125,462.75,107.479z"/>
			<path d="M234.667,405.333c-11.781,0-21.333,9.552-21.333,21.333V448c0,11.781,9.552,21.333,21.333,21.333S256,459.781,256,448     v-21.333C256,414.885,246.448,405.333,234.667,405.333z"/>
			<path d="M234.667,160c-11.781,0-21.333,9.552-21.333,21.333V224c0,11.781,9.552,21.333,21.333,21.333S256,235.781,256,224     v-42.667C256,169.552,246.448,160,234.667,160z"/>
			<path d="M234.667,288c-11.781,0-21.333,9.552-21.333,21.333V352c0,11.781,9.552,21.333,21.333,21.333S256,363.781,256,352     v-42.667C256,297.552,246.448,288,234.667,288z"/>
			<path d="M234.667,53.333c-11.781,0-21.333,9.552-21.333,21.333V96c0,11.781,9.552,21.333,21.333,21.333S256,107.781,256,96     V74.667C256,62.885,246.448,53.333,234.667,53.333z"/>
		</g>
	</g>
</g>
<g>
</g>
<g>
</g>
<g>
</g>
<g>
</g>
<g>
</g>
<g>
</g>
<g>
</g>
<g>
</g>
<g>
</g>
<g>
</g>
<g>
</g>
<g>
</g>
<g>
</g>
<g>
</g>
<g>
</g>
</svg>
