<?xml version="1.0" encoding="iso-8859-1"?>
<!-- Generator: Adobe Illustrator 19.0.0, SVG Export Plug-In . SVG Version: 6.00 Build 0)  -->
<svg fill='#eeeeee' xmlns="http://www.w3.org/2000/svg" xmlns:xlink="http://www.w3.org/1999/xlink" version="1.1" id="Capa_1" x="0px" y="0px" viewBox="0 0 469.333 469.333" style="enable-background:new 0 0 469.333 469.333;" xml:space="preserve">
<g>
	<g>
		<path d="M379.962,183.186c2.539-10.897,4.017-22.194,4.017-33.853C383.979,66.99,316.99,0,234.646,0S85.312,66.99,85.312,149.333    c0,11.665,1.48,22.969,4.022,33.871C36.805,206.362,0,258.857,0,319.854c0,82.344,66.99,149.479,149.333,149.479    c31.728,0,61.118-10.165,85.333-27.103c24.215,16.938,53.605,27.103,85.333,27.103c82.344,0,149.333-67.135,149.333-149.479    C469.333,258.841,432.513,206.335,379.962,183.186z M234.646,42.667c58.812,0,106.667,47.854,106.667,106.667    c0,7.733-0.923,15.237-2.494,22.506c-6.178-0.783-12.431-1.319-18.819-1.319c-31.728,0-61.119,10.02-85.333,26.957    c-24.215-16.938-53.605-26.957-85.333-26.957c-6.401,0-12.668,0.54-18.859,1.326c-1.572-7.272-2.495-14.779-2.495-22.513    C127.979,90.521,175.833,42.667,234.646,42.667z M319.514,213.237c-10.591,14.025-24.401,25.382-40.529,32.811    c-3.624-6.341-7.706-12.375-12.189-18.092C282.387,218.891,300.241,213.326,319.514,213.237z M149.333,426.521    c-58.813,0-106.667-47.854-106.667-106.667c0-42.948,25.656-79.822,62.327-96.715c15.846,27.727,40.268,49.902,69.69,62.862    c-2.539,10.897-4.017,22.194-4.017,33.853c0,34.665,11.977,66.527,31.87,91.898C186.812,420.896,168.794,426.521,149.333,426.521z     M190.337,246.065c-16.142-7.43-29.965-18.796-40.564-32.833c19.292,0.081,37.161,5.651,52.763,14.724    C198.049,233.678,193.964,239.717,190.337,246.065z M234.667,383.194c-13.227-17.764-21.333-39.542-21.333-63.34    c0-7.733,0.923-15.237,2.493-22.507c6.178,0.783,12.431,1.319,18.819,1.319c6.401,0,12.668-0.54,18.859-1.326    c1.572,7.272,2.495,14.779,2.495,22.513C256,343.652,247.893,365.43,234.667,383.194z M320,426.521    c-19.461,0-37.479-5.625-53.203-14.768c19.893-25.371,31.87-57.233,31.87-91.898c0-11.665-1.48-22.969-4.022-33.871    c29.41-12.965,53.824-35.138,69.664-62.861c36.688,16.885,62.358,53.771,62.358,96.732    C426.667,378.667,378.813,426.521,320,426.521z"/>
	</g>
</g>
<g>
</g>
<g>
</g>
<g>
</g>
<g>
</g>
<g>
</g>
<g>
</g>
<g>
</g>
<g>
</g>
<g>
</g>
<g>
</g>
<g>
</g>
<g>
</g>
<g>
</g>
<g>
</g>
<g>
</g>
</svg>
