<?xml version="1.0" encoding="iso-8859-1"?>
<!-- Generator: Adobe Illustrator 19.0.0, SVG Export Plug-In . SVG Version: 6.00 Build 0)  -->
<svg fill='#eeeeee' xmlns="http://www.w3.org/2000/svg" xmlns:xlink="http://www.w3.org/1999/xlink" version="1.1" id="Capa_1" x="0px" y="0px" viewBox="0 0 469.333 469.333" style="enable-background:new 0 0 469.333 469.333;" xml:space="preserve">
<g>
	<g>
		<path d="M466.208,109.792L359.542,3.125c-4.167-4.167-10.917-4.167-15.083,0L3.125,344.458c-4.167,4.167-4.167,10.917,0,15.083    l106.667,106.667c2.083,2.083,4.813,3.125,7.542,3.125c2.729,0,5.458-1.042,7.542-3.125l27.583-27.583    c4.167-4.167,4.167-10.917,0-15.083l-42.667-42.667c-2.021-2.021-3.125-4.698-3.125-7.542s1.104-5.521,3.125-7.542    c4.042-4.021,11.042-4.021,15.083,0l42.667,42.667c4.167,4.167,10.917,4.167,15.083,0l12.5-12.5    c4.167-4.167,4.167-10.917,0-15.083l-32-32c-2.021-2.021-3.125-4.698-3.125-7.542s1.104-5.521,3.125-7.542    c4.042-4.021,11.042-4.021,15.083,0l32,32c4.167,4.167,10.917,4.167,15.083,0l12.5-12.5c4.167-4.167,4.167-10.917,0-15.083l-32-32    c-2.021-2.021-3.125-4.698-3.125-7.542s1.104-5.521,3.125-7.542c4.042-4.021,11.042-4.021,15.083,0l32,32    c4.167,4.167,10.917,4.167,15.083,0l12.5-12.5c4.167-4.167,4.167-10.917,0-15.083l-42.667-42.667    c-2.021-2.021-3.125-4.698-3.125-7.542s1.104-5.521,3.125-7.542c4.042-4.021,11.042-4.021,15.083,0l42.667,42.667    c4.167,4.167,10.917,4.167,15.083,0l12.5-12.5c4.167-4.167,4.167-10.917,0-15.083l-32-32c-2.021-2.021-3.125-4.698-3.125-7.542    s1.104-5.521,3.125-7.542c4.042-4.021,11.042-4.021,15.083,0l32,32c4.167,4.167,10.917,4.167,15.083,0l12.5-12.5    c4.167-4.167,4.167-10.917,0-15.083l-32-32c-2.021-2.021-3.125-4.698-3.125-7.542s1.104-5.521,3.125-7.542    c4.042-4.021,11.042-4.021,15.083,0l32,32c4.167,4.167,10.917,4.167,15.083,0l12.5-12.5c4.167-4.167,4.167-10.917,0-15.083    l-42.667-42.667c-2.021-2.021-3.125-4.698-3.125-7.542s1.104-5.521,3.125-7.542c4.042-4.021,11.042-4.021,15.083,0l42.667,42.667    c4.167,4.167,10.917,4.167,15.083,0l27.583-27.583C470.375,120.708,470.375,113.958,466.208,109.792z"/>
	</g>
</g>
<g>
</g>
<g>
</g>
<g>
</g>
<g>
</g>
<g>
</g>
<g>
</g>
<g>
</g>
<g>
</g>
<g>
</g>
<g>
</g>
<g>
</g>
<g>
</g>
<g>
</g>
<g>
</g>
<g>
</g>
</svg>
