<?xml version="1.0" encoding="iso-8859-1"?>
<!-- Generator: Adobe Illustrator 19.0.0, SVG Export Plug-In . SVG Version: 6.00 Build 0)  -->
<svg fill='#eeeeee' xmlns="http://www.w3.org/2000/svg" xmlns:xlink="http://www.w3.org/1999/xlink" version="1.1" id="Capa_1" x="0px" y="0px" viewBox="0 0 469.333 469.333" style="enable-background:new 0 0 469.333 469.333;" xml:space="preserve">
<g>
	<g>
		<g>
			<path d="M458.667,0h-64C388.771,0,384,4.771,384,10.667v10.667h-10.667c-11.792,0-21.333,9.552-21.333,21.333     S361.542,64,373.333,64H384v10.667c0,5.896,4.771,10.667,10.667,10.667h10.667V96c0,11.781,9.542,21.333,21.333,21.333     C438.458,117.333,448,107.781,448,96V85.333h10.667c5.896,0,10.667-4.771,10.667-10.667v-64C469.333,4.771,464.563,0,458.667,0z"/>
			<path d="M458.667,384H448v-10.667c0-11.781-9.542-21.333-21.333-21.333c-11.792,0-21.333,9.552-21.333,21.333V384h-10.667     c-5.896,0-10.667,4.771-10.667,10.667v10.667h-10.667c-11.792,0-21.333,9.552-21.333,21.333S361.542,448,373.333,448H384v10.667     c0,5.896,4.771,10.667,10.667,10.667h64c5.896,0,10.667-4.771,10.667-10.667v-64C469.333,388.771,464.563,384,458.667,384z"/>
			<path d="M96,21.333H85.333V10.667C85.333,4.771,80.562,0,74.667,0h-64C4.771,0,0,4.771,0,10.667v64     c0,5.896,4.771,10.667,10.667,10.667h10.667V96c0,11.781,9.542,21.333,21.333,21.333S64,107.781,64,96V85.333h10.667     c5.896,0,10.667-4.771,10.667-10.667V64H96c11.792,0,21.333-9.552,21.333-21.333S107.792,21.333,96,21.333z"/>
			<path d="M202.667,21.333H160c-11.792,0-21.333,9.552-21.333,21.333S148.208,64,160,64h42.667C214.458,64,224,54.448,224,42.667     S214.458,21.333,202.667,21.333z"/>
			<path d="M309.333,21.333h-42.667c-11.792,0-21.333,9.552-21.333,21.333S254.875,64,266.667,64h42.667     c11.792,0,21.333-9.552,21.333-21.333S321.125,21.333,309.333,21.333z"/>
			<path d="M96,405.333H85.333v-10.667c0-5.896-4.771-10.667-10.667-10.667H64v-10.667C64,361.552,54.458,352,42.667,352     s-21.333,9.552-21.333,21.333V384H10.667C4.771,384,0,388.771,0,394.667v64c0,5.896,4.771,10.667,10.667,10.667h64     c5.896,0,10.667-4.771,10.667-10.667V448H96c11.792,0,21.333-9.552,21.333-21.333S107.792,405.333,96,405.333z"/>
			<path d="M202.667,405.333H160c-11.792,0-21.333,9.552-21.333,21.333S148.208,448,160,448h42.667     c11.792,0,21.333-9.552,21.333-21.333S214.458,405.333,202.667,405.333z"/>
			<path d="M309.333,405.333h-42.667c-11.792,0-21.333,9.552-21.333,21.333S254.875,448,266.667,448h42.667     c11.792,0,21.333-9.552,21.333-21.333S321.125,405.333,309.333,405.333z"/>
			<path d="M21.333,309.333c0,11.781,9.542,21.333,21.333,21.333S64,321.115,64,309.333v-42.667     c0-11.781-9.542-21.333-21.333-21.333s-21.333,9.552-21.333,21.333V309.333z"/>
			<path d="M42.667,224C54.458,224,64,214.448,64,202.667V160c0-11.781-9.542-21.333-21.333-21.333S21.333,148.219,21.333,160     v42.667C21.333,214.448,30.875,224,42.667,224z"/>
			<path d="M405.333,309.333c0,11.781,9.542,21.333,21.333,21.333c11.792,0,21.333-9.552,21.333-21.333v-42.667     c0-11.781-9.542-21.333-21.333-21.333c-11.792,0-21.333,9.552-21.333,21.333V309.333z"/>
			<path d="M426.667,224c11.792,0,21.333-9.552,21.333-21.333V160c0-11.781-9.542-21.333-21.333-21.333     c-11.792,0-21.333,9.552-21.333,21.333v42.667C405.333,214.448,414.875,224,426.667,224z"/>
		</g>
	</g>
</g>
<g>
</g>
<g>
</g>
<g>
</g>
<g>
</g>
<g>
</g>
<g>
</g>
<g>
</g>
<g>
</g>
<g>
</g>
<g>
</g>
<g>
</g>
<g>
</g>
<g>
</g>
<g>
</g>
<g>
</g>
</svg>
