<?xml version="1.0" encoding="iso-8859-1"?>
<!-- Generator: Adobe Illustrator 19.0.0, SVG Export Plug-In . SVG Version: 6.00 Build 0)  -->
<svg fill='#eeeeee' xmlns="http://www.w3.org/2000/svg" xmlns:xlink="http://www.w3.org/1999/xlink" version="1.1" id="Capa_1" x="0px" y="0px" viewBox="0 0 512 512" style="enable-background:new 0 0 512 512;" xml:space="preserve">
<g>
	<g>
		<g>
			<path d="M512,256C512,114.844,397.167,0,256,0S0,114.844,0,256c0,0.689,0.098,1.353,0.103,2.04C0.099,258.221,0,258.37,0,258.552     c0,0.957,0.233,1.875,0.272,2.827C3.173,400.036,116.648,512,256,512s252.827-111.964,255.728-250.621     c0.039-0.952,0.272-1.87,0.272-2.827c0-0.182-0.099-0.332-0.103-0.513C511.902,257.352,512,256.689,512,256z M42.867,259.952     c-0.025-1.328-0.201-2.619-0.201-3.952c0-87.807,53.353-163.344,129.314-196.03c-13.168,22.363-23.809,50.217-31.354,82.09     c-2.145-0.131-4.31-0.23-6.48,0.336c-14.021,3.573-27.417,7.792-39.771,12.563c-10.979,4.25-16.458,16.594-12.208,27.594     c3.271,8.458,11.333,13.656,19.896,13.656c2.563,0,5.167-0.469,7.688-1.438c7.133-2.759,14.814-5.23,22.702-7.557     C129.628,208.988,128,231.943,128,256c0,24.02,1.624,46.939,4.439,68.684C78.405,308.71,44.169,283.612,42.867,259.952z      M60.54,341.202c22.012,12.612,49.266,22.85,80.421,30.169c7.526,31.279,18.048,58.629,31.02,80.659     C122.225,430.62,82.247,390.801,60.54,341.202z M256,469.333c-24.788,0-51.335-34.613-68.124-89.617     C209.458,382.431,232.185,384,256,384c23.882,0,46.669-1.577,68.305-4.306c-2.395,7.898-4.938,15.599-7.763,22.775     c-4.333,10.958,1.042,23.354,12,27.688c2.563,1.01,5.208,1.5,7.833,1.5c8.5,0,16.521-5.115,19.833-13.5     c4.917-12.438,9.271-25.854,12.958-39.906c0.576-2.202,0.488-4.378,0.368-6.534c31.78-7.34,59.561-17.702,81.926-30.516     C418.496,416.523,343.336,469.333,256,469.333z M469.133,259.952c-2.131,38.711-92.478,81.381-213.133,81.381     c-28.137,0-54.523-2.404-78.643-6.454c-4.199-24.182-6.69-50.651-6.69-78.879c0-122.104,45.042-213.333,85.333-213.333     c117.625,0,213.333,95.698,213.333,213.333C469.333,257.333,469.158,258.624,469.133,259.952z"/>
			<path d="M361.479,214.781c-11.771,0.458-20.958,10.365-20.5,22.135c0.229,6.292,0.354,12.656,0.354,19.083     c0,6.281-0.125,12.51-0.354,18.677c-0.458,11.771,8.708,21.688,20.479,22.135c0.292,0.021,0.563,0.021,0.854,0.021     c11.396,0,20.854-9.01,21.292-20.51C383.875,269.615,384,262.844,384,256c0-6.969-0.125-13.875-0.396-20.708     C383.146,223.521,373.25,214.51,361.479,214.781z"/>
			<path d="M369.518,141.889c0.41-2.76,0.294-5.643-0.456-8.514c-3.708-14.167-8.083-27.604-13.021-39.948     c-4.375-10.958-16.813-16.24-27.729-11.906c-10.938,4.365-16.271,16.781-11.896,27.719c4.271,10.719,8.104,22.469,11.354,34.927     c2.521,9.594,11.167,15.948,20.625,15.948c0.995,0,2.003-0.247,3.006-0.393c-1.655,10.737,4.79,21.199,15.535,23.924     c12.417,3.146,24.167,6.844,34.938,10.979c2.521,0.969,5.104,1.427,7.646,1.427c8.563,0,16.646-5.208,19.917-13.688     c4.229-11-1.271-23.344-12.271-27.573c-12.313-4.74-25.688-8.938-39.729-12.5C374.767,141.609,372.098,141.565,369.518,141.889z"/>
			<path d="M276.167,128.365c-13.354-0.5-27.292-0.438-40.75,0.021c-11.771,0.438-20.958,10.333-20.521,22.104     c0.417,11.51,9.875,20.552,21.292,20.552c0.271,0,0.542,0,0.813-0.01c12.438-0.479,25.188-0.479,37.583-0.021     c11.583,0.396,21.688-8.75,22.104-20.521C297.125,138.708,287.938,128.813,276.167,128.365z"/>
		</g>
	</g>
</g>
<g>
</g>
<g>
</g>
<g>
</g>
<g>
</g>
<g>
</g>
<g>
</g>
<g>
</g>
<g>
</g>
<g>
</g>
<g>
</g>
<g>
</g>
<g>
</g>
<g>
</g>
<g>
</g>
<g>
</g>
</svg>
