<?xml version="1.0" encoding="iso-8859-1"?>
<!-- Generator: Adobe Illustrator 19.0.0, SVG Export Plug-In . SVG Version: 6.00 Build 0)  -->
<svg fill='#eeeeee' xmlns="http://www.w3.org/2000/svg" xmlns:xlink="http://www.w3.org/1999/xlink" version="1.1" id="Capa_1" x="0px" y="0px" viewBox="0 0 469.333 469.333" style="enable-background:new 0 0 469.333 469.333;" xml:space="preserve">
<g>
	<g>
		<g>
			<path d="M465.364,435.031L253.749,11.792C250.135,4.564,242.404,0.002,234.671,0c-7.736-0.002-15.474,4.561-19.089,11.792     L2.249,438.458c-3.302,6.615-2.948,14.469,0.938,20.76c3.885,6.281,10.75,10.115,18.146,10.115h426.667     c0.135-0.01,0.281-0.021,0.427,0c11.781,0,20.906-9.552,20.906-21.333C469.332,443.125,468.124,438.625,465.364,435.031z      M395.791,398.042c-10.552-5.281-23.365-1-28.625,9.542c-3.152,6.305-2.556,13.254,0.418,19.083H81.435     c2.404-5.344,2.78-11.56,0.21-17.333c-2.35-5.283-6.611-9.091-11.582-11.086L223.115,92.134C226.491,94.375,230.31,96,234.666,96     s8.174-1.625,11.551-3.866l154.074,308.158L395.791,398.042z"/>
			<path d="M234.666,284.719c11.781,0,21.333-9.552,21.333-21.333v-37.75c0-11.781-9.552-21.333-21.333-21.333     s-21.333,9.552-21.333,21.333v37.75C213.333,275.167,222.885,284.719,234.666,284.719z"/>
			<path d="M213.333,131.281v37.74c0,11.781,9.552,21.333,21.333,21.333s21.333-9.552,21.333-21.333v-37.74     c0-11.781-9.552-21.333-21.333-21.333S213.333,119.5,213.333,131.281z"/>
			<path d="M142.749,358.844l-25.5,11.333c-10.76,4.781-15.615,17.385-10.823,28.156c3.531,7.948,11.323,12.677,19.5,12.677     c2.896,0,5.833-0.594,8.656-1.854l25.5-11.333c10.76-4.781,15.615-17.385,10.823-28.156     C166.114,358.896,153.53,354.021,142.749,358.844z"/>
			<path d="M255.999,320c0-11.781-9.552-21.333-21.333-21.333s-21.333,9.552-21.333,21.333v7.477l-6.823,3.034     c-10.771,4.781-15.615,17.396-10.823,28.156c4.781,10.771,17.406,15.615,28.156,10.823l10.292-4.573l10.073,5.042     c3.063,1.531,6.323,2.25,9.521,2.25c7.833,0,15.365-4.313,19.104-11.792c5.271-10.542,1-23.354-9.542-28.625l-7.292-3.646V320z"/>
			<path d="M299.416,397.563l22.083,11.042c3.063,1.531,6.323,2.25,9.521,2.25c7.833,0,15.365-4.313,19.104-11.792     c5.271-10.542,1-23.354-9.542-28.625l-22.083-11.042c-10.552-5.26-23.365-0.99-28.625,9.542     C284.603,379.479,288.874,392.292,299.416,397.563z"/>
		</g>
	</g>
</g>
<g>
</g>
<g>
</g>
<g>
</g>
<g>
</g>
<g>
</g>
<g>
</g>
<g>
</g>
<g>
</g>
<g>
</g>
<g>
</g>
<g>
</g>
<g>
</g>
<g>
</g>
<g>
</g>
<g>
</g>
</svg>
