<?xml version="1.0" encoding="iso-8859-1"?>
<!-- Generator: Adobe Illustrator 19.0.0, SVG Export Plug-In . SVG Version: 6.00 Build 0)  -->
<svg fill='#eeeeee' xmlns="http://www.w3.org/2000/svg" xmlns:xlink="http://www.w3.org/1999/xlink" version="1.1" id="Capa_1" x="0px" y="0px" viewBox="0 0 469.333 469.333" style="enable-background:new 0 0 469.333 469.333;" xml:space="preserve">
<g>
	<g>
		<path d="M464.646,449.546L18.208,3.119c-3.042-3.052-7.646-3.948-11.625-2.313C2.604,2.453,0,6.348,0,10.661v448    c0,5.896,4.771,10.667,10.667,10.667h42.667c5.896,0,10.667-4.771,10.667-10.667v-32c0-5.885,4.792-10.667,10.667-10.667    s10.667,4.781,10.667,10.667v32c0,5.896,4.771,10.667,10.667,10.667h21.333c5.896,0,10.667-4.771,10.667-10.667v-21.333    c0-5.885,4.792-10.667,10.667-10.667s10.667,4.781,10.667,10.667v21.333c0,5.896,4.771,10.667,10.667,10.667h21.333    c5.896,0,10.667-4.771,10.667-10.667v-32c0-5.885,4.792-10.667,10.667-10.667s10.667,4.781,10.667,10.667v32    c0,5.896,4.771,10.667,10.667,10.667h21.333c5.896,0,10.667-4.771,10.667-10.667v-21.333c0-5.885,4.792-10.667,10.667-10.667    s10.667,4.781,10.667,10.667v21.333c0,5.896,4.771,10.667,10.667,10.667h21.333c5.896,0,10.667-4.771,10.667-10.667v-32    c0-5.885,4.792-10.667,10.667-10.667s10.667,4.781,10.667,10.667v32c0,5.896,4.771,10.667,10.667,10.667h21.333    c5.896,0,10.667-4.771,10.667-10.667v-21.333c0-5.885,4.792-10.667,10.667-10.667s10.667,4.781,10.667,10.667v21.333    c0,5.896,4.771,10.667,10.667,10.667h42.667c0.167,0,0.333,0.01,0.417,0c5.896,0,10.25-4.771,10.25-10.667    C469.333,454.796,467.708,451.421,464.646,449.546z M253.062,383.994c-0.104,0.01-0.271,0.021-0.417,0H96    c-5.896,0-10.667-4.771-10.667-10.667V216.671c0-4.313,2.604-8.208,6.583-9.854c3.979-1.646,8.563-0.729,11.625,2.313    l155.083,155.083c3.063,1.875,5.104,5.25,5.104,9.115C263.729,379.223,258.958,383.994,253.062,383.994z"/>
	</g>
</g>
<g>
</g>
<g>
</g>
<g>
</g>
<g>
</g>
<g>
</g>
<g>
</g>
<g>
</g>
<g>
</g>
<g>
</g>
<g>
</g>
<g>
</g>
<g>
</g>
<g>
</g>
<g>
</g>
<g>
</g>
</svg>
