<svg fill='#eeeeee' id="Capa_1" enable-background="new 0 0 488.471 488.471" height="512" viewBox="0 0 488.471 488.471" width="512" xmlns="http://www.w3.org/2000/svg"><path d="m137.383 91.588c8.437 0 15.265-6.827 15.265-15.265v-61.058c0-8.438-6.828-15.265-15.265-15.265s-15.265 6.827-15.265 15.265v61.059c0 8.437 6.828 15.264 15.265 15.264z"/><path d="m76.324 122.118h-61.059c-8.437 0-15.265 6.827-15.265 15.264s6.827 15.265 15.265 15.265h61.059c8.437 0 15.265-6.827 15.265-15.265 0-8.437-6.828-15.264-15.265-15.264z"/><path d="m479.526 222.65-91.588-91.588c-5.724-5.724-13.491-8.944-21.585-8.944h-213.706c-16.86 0-30.529 13.67-30.529 30.529v305.294c0 16.875 13.67 30.529 30.529 30.529h305.294c16.86 0 30.529-13.655 30.529-30.529v-213.706c0-8.094-3.22-15.861-8.944-21.585zm-82.644 21.585c-16.862 0-30.529-13.67-30.529-30.529v-61.059l91.588 91.588z"/></svg>