<svg fill='#eeeeee' id="Capa_1" enable-background="new 0 0 488.471 488.471" height="512" viewBox="0 0 488.471 488.471" width="512" xmlns="http://www.w3.org/2000/svg"><path d="m0 183.176h61.059v-61.059h122.118v-61.058h-183.177z"/><path d="m61.059 305.294h-61.059v122.118h183.176v-61.059h-122.117z"/><path d="m305.294 61.059v61.059h122.118v61.059h61.059v-122.118z"/><path d="m427.412 366.353h-122.118v61.059h183.177v-122.118h-61.059z"/><path id="path-1_57_" d="m213.706 122.118h61.059v61.059h-61.059z" transform="translate(7 4)"/><path id="path-1_56_" d="m213.706 305.294h61.059v61.059h-61.059z" transform="translate(7 10)"/><path id="path-1_55_" d="m213.706 213.706h61.059v61.059h-61.059z" transform="translate(7 7)"/><path id="path-1_54_" d="m122.118 213.706h61.059v61.059h-61.059z" transform="translate(4 7)"/><path id="path-1_53_" d="m305.294 213.706h61.059v61.059h-61.059z" transform="translate(10 7)"/></svg>