<svg fill='#eeeeee' id="Capa_1" enable-background="new 0 0 488.471 488.471" height="512" viewBox="0 0 488.471 488.471" width="512" xmlns="http://www.w3.org/2000/svg"><path d="m287.411 201.06c23.845 23.845 23.845 62.505 0 86.35s-62.505 23.845-86.35 0-23.845-62.505 0-86.35c23.844-23.845 62.505-23.845 86.35 0"/><path d="m427.412 183.176v-122.117h-122.118l-61.059-61.059-61.059 61.059h-122.117v122.118l-61.059 61.058 61.059 61.059v122.118h122.118l61.059 61.059 61.059-61.059h122.118v-122.118l61.059-61.059zm-183.177 183.177c-67.445 0-122.118-54.675-122.118-122.118 0-67.445 54.673-122.118 122.118-122.118s122.118 54.673 122.118 122.118c0 67.443-54.673 122.118-122.118 122.118z"/></svg>