<svg fill='#eeeeee' id="Capa_1" enable-background="new 0 0 488.471 488.471" height="512" viewBox="0 0 488.471 488.471" width="512" xmlns="http://www.w3.org/2000/svg"><path d="m410.089 0c-22.45 0-43.871 9.66-58.763 26.505l-147.327 166.967c20.236 7.573 38.982 18.993 54.889 34.5 16.595 16.172 28.569 35.439 36.377 56.246l166.701-147.089c16.845-14.877 26.505-36.298 26.505-58.748-.001-43.215-35.166-78.381-78.382-78.381z"/><path d="m60.298 249.736c-37.014 36.09-32.199 73.551-27.965 106.6 4.457 34.673 8.303 64.622-27.727 99.757-3.786 3.697-5.396 9.078-4.234 14.251 1.148 5.158 4.889 9.362 9.883 11.091 12.641 4.398 30.902 7.036 52.145 7.036 53.486 0 125.904-16.785 175.171-64.83 23.985-23.389 37.193-54.247 37.193-86.893 0-32.736-13.208-63.638-37.193-87.012-49.7-48.492-127.573-48.462-177.273 0z"/></svg>