<svg fill='#eeeeee' id="Capa_1" enable-background="new 0 0 488.471 488.471" height="512" viewBox="0 0 488.471 488.471" width="512" xmlns="http://www.w3.org/2000/svg"><path d="m410.569 166.703c3.06 31.109-2.348 62.835-16.379 91.398 1.66-9.479 2.693-19.176 2.693-29.13 0-92.736-75.177-167.912-167.912-167.912-71.302 0-132.07 44.518-156.422 107.213 22.314-.689 44.594 5.026 64.508 16.411-4.951-.611-9.822-1.506-14.939-1.506-67.445 0-122.118 54.673-122.118 122.117 0 67.443 54.673 122.118 122.118 122.118h228.971c75.874 0 137.382-61.508 137.382-137.382 0-54.465-31.951-101.105-77.902-123.327z"/></svg>