<svg fill='#eeeeee' id="Capa_1" enable-background="new 0 0 488.47 488.47" height="512" viewBox="0 0 488.47 488.47" width="512" xmlns="http://www.w3.org/2000/svg"><path d="m478.125 98.102c-71.313-24.239-152.597-37.044-233.883-37.044-81.289-.001-162.58 12.804-233.897 37.044-6.186 2.117-10.345 7.916-10.345 14.46v263.346c0 6.544 4.159 12.343 10.345 14.46 71.315 24.239 152.2 37.044 233.89 37.044s162.575-12.805 233.89-37.044c6.186-2.117 10.345-7.916 10.345-14.46v-263.346c0-6.544-4.159-12.343-10.345-14.46zm-417.065 48.239c57.062-15.861 120.116-24.224 183.171-24.224 63.058-.002 126.116 8.361 183.182 24.224v174.217l-106.853-106.852-148.352 148.352c-38.357-3.749-75.945-10.144-111.148-19.929z"/><path d="m200.294 196.589c17.884 17.884 17.884 46.879 0 64.763s-46.879 17.884-64.763 0-17.884-46.879 0-64.763 46.879-17.884 64.763 0"/></svg>