<svg fill='#eeeeee' id="Capa_1" enable-background="new 0 0 488.471 488.471" height="512" viewBox="0 0 488.471 488.471" width="512" xmlns="http://www.w3.org/2000/svg"><path id="path-1_46_" d="m228.971 0h30.529v61.059h-30.529z" transform="translate(7.5)"/><path d="m30.529 152.647h427.412v183.176h-427.412z"/><path id="path-1_45_" d="m228.971 427.412h30.529v61.059h-30.529z" transform="translate(7.5 14)"/><path d="m189.11 321.882h61.059v30.529h-61.059z" transform="matrix(.707 -.707 .707 .707 1.636 10.051)"/><path d="m-234.198 331.762h61.058v30.529h-61.058z" transform="matrix(.707 -.707 .707 .707 -8.264 5.95)"/><path d="m-12.211 99.901h30.529v61.059h-30.529z" transform="matrix(.707 -.707 .707 .707 -1.263 3.05)"/><path d="m-2.313 523.213h30.529v61.058h-30.529z" transform="matrix(.707 -.707 .707 .707 -5.364 12.95)"/></svg>