<svg fill='#eeeeee' id="Capa_1" enable-background="new 0 0 488.471 488.471" height="512" viewBox="0 0 488.471 488.471" width="512" xmlns="http://www.w3.org/2000/svg"><path d="m335.824 244.235c0-50.505-41.083-91.588-91.588-91.588s-91.588 41.083-91.588 91.588 41.083 91.588 91.588 91.588 91.588-41.083 91.588-91.588zm-91.589 30.53c-16.83 0-30.529-13.699-30.529-30.529s13.699-30.529 30.529-30.529 30.529 13.699 30.529 30.529-13.699 30.529-30.529 30.529z"/><path d="m61.059 122.118h122.118v-61.059h-183.177v122.118h61.059z"/><path d="m61.059 305.294h-61.059v122.118h183.176v-61.059h-122.117z"/><path d="m305.294 61.059v61.059h122.118v61.059h61.059v-122.118z"/><path d="m427.412 366.353h-122.118v61.059h183.177v-122.118h-61.059z"/></svg>