<svg fill='#eeeeee' id="Capa_1" enable-background="new 0 0 488.471 488.471" height="512" viewBox="0 0 488.471 488.471" width="512" xmlns="http://www.w3.org/2000/svg"><path d="m305.294 0-16.517 16.517c-9.281 9.28-17.005 19.998-22.875 31.737l-17.454 34.906 156.862 156.862 34.906-17.454c11.739-5.87 22.455-13.595 31.737-22.875l16.517-16.517c.001 0-183.176-183.176-183.176-183.176z"/><path d="m203.42 124.473c-60.532 38.341-111.832 28.174-111.832 28.174l-91.588 335.824 335.824-91.588s-10.167-51.3 28.174-111.832c0-.001-160.578-160.578-160.578-160.578zm-35.508 241.88c-25.291 0-45.794-20.503-45.794-45.794s20.503-45.794 45.794-45.794 45.794 20.503 45.794 45.794-20.503 45.794-45.794 45.794z"/></svg>