<svg fill='#eeeeee' id="Capa_1" enable-background="new 0 0 488.471 488.471" height="512" viewBox="0 0 488.471 488.471" width="512" xmlns="http://www.w3.org/2000/svg"><path d="m366.353 122.117v-91.588h-61.059v91.588h-96.836l61.059 61.059h35.777v35.777l61.059 61.059v-96.836h122.118v-61.059h-122.118z"/><path d="m452.693 366.352h35.777v-61.059h-96.836z"/><path d="m183.176 30.529h-61.059v5.247l61.059 61.059z"/><path d="m0 43.17 78.947 78.947h-78.947v61.059h122.118v122.118h-122.118v61.059h122.118v91.588h61.059v-91.588h122.118v91.588h61.059v-48.418l78.946 78.947 43.17-43.17-445.298-445.299-43.17 43.17zm183.176 262.124v-78.947l78.947 78.947z"/></svg>