<svg fill='#eeeeee' id="Capa_1" enable-background="new 0 0 488.471 488.471" height="512" viewBox="0 0 488.471 488.471" width="512" xmlns="http://www.w3.org/2000/svg"><path d="m427.412 91.588h-42.187l-30.544-61.059h-220.906l-5.631 11.273 97.463 97.463c6.117-.947 12.25-1.884 18.628-1.884 67.335 0 122.118 54.783 122.118 122.118 0 6.378-.937 12.511-1.884 18.628l123.519 123.519c.127-1.601.483-3.132.483-4.765v-244.235c0-33.674-27.384-61.058-61.059-61.058z"/><path d="m0 43.17 49.698 49.698c-28.129 5.424-49.493 30.17-49.519 59.853l-.164 244.146c0 33.675 27.384 61.074 61.059 61.074h353.696l30.529 30.529 43.17-43.17-445.299-445.299-43.17 43.17zm244.236 338.446c-67.335 0-122.118-54.783-122.118-122.118 0-26.564 8.708-50.989 23.219-70.992l44.27 44.27c-4.042 8.065-6.43 17.078-6.43 26.723 0 33.675 27.384 61.059 61.059 61.059 9.652 0 18.723-2.314 26.792-6.362l44.03 44.03c-19.96 14.543-44.264 23.39-70.822 23.39z"/></svg>