<svg fill='#eeeeee' id="Capa_1" enable-background="new 0 0 488.471 488.471" height="512" viewBox="0 0 488.471 488.471" width="512" xmlns="http://www.w3.org/2000/svg"><path d="m396.867 45.764-32.676.02c-6.814-26.286-30.482-45.784-58.897-45.784h-213.706c-33.721 0-61.059 27.336-61.059 61.059v30.529c0 33.721 27.337 61.059 61.059 61.059h213.706c28.422 0 52.094-19.509 58.903-45.804l32.685-.02v53.769l-133.82 41.203c-38.639 11.896-64.607 47.061-64.637 87.519v15.98h-15.25v152.647c0 16.86 13.668 30.529 30.529 30.529h30.529c16.862 0 30.529-13.67 30.529-30.529v-152.647h-15.276l-.004-15.965c.015-13.491 8.661-25.223 21.555-29.188l133.805-41.188c25.774-7.931 43.096-31.379 43.096-58.361v-53.769c.003-33.675-27.381-61.059-61.071-61.059z"/></svg>