<svg fill='#eeeeee' id="Capa_1" enable-background="new 0 0 488.47 488.47" height="512" viewBox="0 0 488.47 488.47" width="512" xmlns="http://www.w3.org/2000/svg"><path d="m482.329 64.086c-3.876-2.877-8.87-3.771-13.491-2.385-66.336 19.826-141.899 29.888-224.603 29.888s-158.267-10.062-224.603-29.888c-4.591-1.386-9.6-.492-13.491 2.385-3.86 2.877-6.141 7.408-6.141 12.238v335.802c0 4.83 2.281 9.362 6.142 12.239 3.891 2.877 8.899 3.816 13.491 2.385 66.336-19.826 141.899-29.888 224.603-29.888s158.267 10.062 224.603 29.888c1.431.432 2.907.641 4.368.641 3.25 0 6.455-1.043 9.123-3.026 3.861-2.877 6.142-7.409 6.142-12.239v-335.802c-.002-4.83-2.282-9.361-6.143-12.238zm-54.917 256.453-91.588-91.588-107.213 107.212c-59.298.883-115.611 6.524-167.552 17.275v-218.425c56.527 11.702 118.048 17.635 183.176 17.635s126.649-5.933 183.176-17.635c.001 0 .001 185.526.001 185.526z"/><path d="m200.294 196.59c17.884 17.884 17.884 46.879 0 64.763s-46.879 17.884-64.763 0-17.884-46.879 0-64.763 46.879-17.884 64.763 0"/></svg>