<svg fill='#eeeeee' id="Capa_1" enable-background="new 0 0 488.472 488.472" height="512" viewBox="0 0 488.472 488.472" width="512" xmlns="http://www.w3.org/2000/svg"><path d="m488.247.001c-71.794 71.794-227.5 32.348-339.316 127.663l49.623 69.474-92.986-18.596c-35.458 58.575-57.511 145.643-34.86 198.374-18.093 20.452-36.906 39.802-58.916 56.922-13.312 10.36-15.712 29.531-5.366 42.843 6.022 7.737 15.026 11.791 24.119 11.791 6.559 0 13.163-2.102 18.723-6.425 41.143-32.005 70.838-67.886 102.277-105.884 30.923-37.366 62.887-75.573 108.064-112.981-51.153 71.293-68.516 133.63-89.637 162.78 65.894.328 151.827-26.874 211.667-90.953 72.536-77.675 110.118-263.639 106.607-335.009z"/></svg>