<svg fill='#eeeeee' id="Capa_1" enable-background="new 0 0 488.471 488.471" height="512" viewBox="0 0 488.471 488.471" width="512" xmlns="http://www.w3.org/2000/svg"><path d="m390.547 193.749c3.712-13.163 6.335-26.767 6.335-41.102 0-84.165-68.482-152.647-152.647-152.647s-152.647 68.482-152.647 152.647c0 14.335 2.624 27.939 6.335 41.102-57.128 22.094-97.923 77.248-97.923 142.075 0 84.165 68.482 152.647 152.647 152.647 34.496 0 65.997-11.937 91.588-31.31 25.592 19.373 57.092 31.31 91.588 31.31 84.165 0 152.647-68.482 152.647-152.647.001-64.827-40.794-119.981-97.923-142.075zm-146.312-132.69c50.505 0 91.588 41.083 91.588 91.588 0 10.973-2.255 21.358-5.808 31.117-32.208 1.237-61.665 12.466-85.78 30.723-24.116-18.255-53.57-29.486-85.778-30.723-3.553-9.758-5.81-20.143-5.81-31.117 0-50.505 41.084-91.588 91.588-91.588zm-183.176 274.765c0-41.333 27.695-75.949 65.374-87.306 16.651 20.415 38.108 36.546 63.079 46.204-3.712 13.163-6.335 26.767-6.335 41.102 0 27.678 7.97 53.305 20.903 75.712-14.674 10.001-32.372 15.876-51.433 15.876-50.505 0-91.588-41.084-91.588-91.588zm274.765 91.588c-19.06 0-36.759-5.875-51.433-15.876 12.934-22.407 20.903-48.034 20.903-75.712 0-14.335-2.624-27.939-6.335-41.102 24.971-9.658 46.428-25.787 63.079-46.204 37.679 11.357 65.374 45.973 65.374 87.306 0 50.504-41.084 91.588-91.588 91.588z"/></svg>