<svg fill='#eeeeee' id="Capa_1" enable-background="new 0 0 488.471 488.471" height="512" viewBox="0 0 488.471 488.471" width="512" xmlns="http://www.w3.org/2000/svg"><path d="m274.765 0c-89.639 0-166.27 55.249-198.003 133.503 33.621-26.175 75.77-41.914 121.68-41.914 109.596 0 198.441 88.845 198.441 198.441 0 45.91-15.74 88.059-41.914 121.68 78.254-31.733 133.503-108.364 133.503-198.003-.001-118.029-95.681-213.707-213.707-213.707z"/><path d="m198.441 122.118c-74.865 0-138.23 49.02-159.894 116.694 24.028-15.775 52.677-25.105 83.57-25.105 84.304 0 152.647 68.343 152.647 152.647 0 30.891-9.33 59.54-25.105 83.568 67.672-21.665 116.694-85.029 116.694-159.892 0-92.737-75.177-167.912-167.912-167.912z"/><path d="m208.468 280.003c47.69 47.69 47.69 125.011 0 172.7-47.69 47.69-125.011 47.69-172.7 0-47.69-47.69-47.69-125.011 0-172.7 47.69-47.69 125.01-47.69 172.7 0"/></svg>