<svg fill='#eeeeee' id="Capa_1" enable-background="new 0 0 488.471 488.471" height="512" viewBox="0 0 488.471 488.471" width="512" xmlns="http://www.w3.org/2000/svg"><path id="path-1_16_" d="m0 0h91.588v91.588h-91.588z"/><path id="path-2_13_" d="m30.529 305.294h61.059v61.059h-61.059z" transform="translate(1 10)"/><path id="path-1_15_" d="m0 396.882h91.588v91.588h-91.588z" transform="translate(0 13)"/><path id="path-2_12_" d="m122.118 396.882h61.059v61.059h-61.059z" transform="translate(4 13)"/><path id="path-2_2_" d="m213.706 396.882h61.059v61.059h-61.059z" transform="translate(7 13)"/><path id="path-2_3_" d="m30.529 213.706h61.059v61.059h-61.059z" transform="translate(1 7)"/><path id="path-2_4_" d="m30.529 122.118h61.059v61.059h-61.059z" transform="translate(1 4)"/><path id="path-1_14_" d="m396.882 0h91.588v91.588h-91.588z" transform="translate(13)"/><path id="path-2_5_" d="m396.882 213.706h61.059v61.059h-61.059z" transform="translate(13 7)"/><path id="path-1_13_" d="m396.882 396.882h91.588v91.588h-91.588z" transform="translate(13 13)"/><path id="path-2_6_" d="m305.294 396.882h61.059v61.059h-61.059z" transform="translate(10 13)"/><path id="path-2_7_" d="m396.882 305.294h61.059v61.059h-61.059z" transform="translate(13 10)"/><path id="path-2_8_" d="m396.882 122.118h61.059v61.059h-61.059z" transform="translate(13 4)"/><path id="path-2_9_" d="m122.118 30.529h61.059v61.059h-61.059z" transform="translate(4 1)"/><path id="path-2_10_" d="m213.706 30.529h61.059v61.059h-61.059z" transform="translate(7 1)"/><path id="path-2_11_" d="m305.294 30.529h61.059v61.059h-61.059z" transform="translate(10 1)"/></svg>