<svg fill='#eeeeee' id="Capa_1" enable-background="new 0 0 488.471 488.471" height="512" viewBox="0 0 488.471 488.471" width="512" xmlns="http://www.w3.org/2000/svg"><path d="m244.235 122.118v-30.53h-30.529v-30.529c-8.43 0-15.265-6.835-15.265-15.265 0-8.432 6.835-15.265 15.265-15.265v-15.264c0-8.432-6.835-15.265-15.265-15.265h-61.059c-8.43 0-15.265 6.833-15.265 15.265v76.324h-30.529v30.529c-33.675 0-61.059 27.384-61.059 61.059v274.765c0 16.86 13.67 30.529 30.529 30.529h213.706c16.86 0 30.529-13.67 30.529-30.529v-274.766c.001-33.674-27.383-61.058-61.058-61.058z"/><path id="path-1_26_" d="m442.751 91.588h-.311c-8.381 0-15.028 6.827-15.028 15.265s6.943 15.265 15.339 15.265c8.381 0 15.19-6.827 15.19-15.265s-6.809-15.265-15.19-15.265z" transform="translate(14 3)"/><path id="path-2_15_" d="m442.751 61.059c8.381 0 15.19-6.827 15.19-15.265s-6.809-15.265-15.19-15.265h-.311c-8.381 0-15.028 6.827-15.028 15.265s6.943 15.265 15.339 15.265z" transform="translate(14 1)"/><path id="path-1_25_" d="m381.692 91.588h-.311c-8.381 0-15.028 6.827-15.028 15.265s6.943 15.265 15.339 15.265c8.381 0 15.19-6.827 15.19-15.265s-6.808-15.265-15.19-15.265z" transform="translate(12 3)"/><path id="path-1_24_" d="m442.751 152.647h-.311c-8.381 0-15.028 6.827-15.028 15.265 0 8.437 6.943 15.265 15.339 15.265 8.381 0 15.19-6.827 15.19-15.265s-6.809-15.265-15.19-15.265z" transform="translate(14 5)"/><path id="path-1_23_" d="m442.751 213.706h-.311c-8.381 0-15.028 6.827-15.028 15.265 0 8.437 6.943 15.265 15.339 15.265 8.381 0 15.19-6.827 15.19-15.265s-6.809-15.265-15.19-15.265z" transform="translate(14 7)"/><path id="path-1_22_" d="m381.692 152.647h-.311c-8.381 0-15.028 6.827-15.028 15.265 0 8.437 6.943 15.265 15.339 15.265 8.381 0 15.19-6.827 15.19-15.265s-6.808-15.265-15.19-15.265z" transform="translate(12 5)"/><path id="path-1_21_" d="m381.692 30.529h-.311c-8.381 0-15.028 6.827-15.028 15.265s6.943 15.265 15.339 15.265c8.381 0 15.19-6.827 15.19-15.265s-6.808-15.265-15.19-15.265z" transform="translate(12 1)"/><path id="path-1_20_" d="m320.633 30.529h-.311c-8.381 0-15.028 6.827-15.028 15.265s6.943 15.265 15.339 15.265c8.381 0 15.19-6.827 15.19-15.265s-6.808-15.265-15.19-15.265z" transform="translate(10 1)"/><path id="path-1_19_" d="m320.633 91.588h-.311c-8.381 0-15.028 6.827-15.028 15.265s6.943 15.265 15.339 15.265c8.381 0 15.19-6.827 15.19-15.265s-6.808-15.265-15.19-15.265z" transform="translate(10 3)"/><path id="path-2_14_" d="m259.575 61.059c8.381 0 15.19-6.827 15.19-15.265s-6.809-15.265-15.19-15.265h-.311c-8.381 0-15.028 6.827-15.028 15.265s6.942 15.265 15.339 15.265z" transform="translate(8 1)"/></svg>