<svg fill='#eeeeee' id="Capa_1" enable-background="new 0 0 488.471 488.471" height="512" viewBox="0 0 488.471 488.471" width="512" xmlns="http://www.w3.org/2000/svg"><path d="m244.235 122.118c-84.165 0-152.647 68.482-152.647 152.647 0 47.732 23.016 92.826 61.059 121.492v92.214h183.176v-92.214c38.042-28.666 61.059-73.76 61.059-121.492 0-84.165-68.482-152.647-152.647-152.647z"/><path d="m228.971 0h30.529v61.059h-30.529z"/><path id="path-1_30_" d="m427.412 228.971h61.059v30.529h-61.059z" transform="translate(14 7.5)"/><path id="path-1_29_" d="m0 228.971h61.059v30.529h-61.059z" transform="translate(0 7.5)"/><path d="m189.11 321.882h61.059v30.529h-61.059z" transform="matrix(.707 -.707 .707 .707 1.636 10.051)"/><path d="m-12.211 99.901h30.529v61.059h-30.529z" transform="matrix(.707 -.707 .707 .707 -1.263 3.05)"/></svg>