<svg fill='#eeeeee' id="Capa_1" enable-background="new 0 0 497.882 497.882" height="512" viewBox="0 0 497.882 497.882" width="512" xmlns="http://www.w3.org/2000/svg"><path d="m52.472 194.463c-35.389 34.261-52.729 79.997-52.469 125.849.258 45.563 17.895 91.239 52.469 125.887 34.804 34.876 80.157 51.949 125.623 51.679 45.157-.268 90.426-17.644 125.583-51.679 98.555-95.413 194.204-286.164 194.204-446.198-195.457 195.457-332.777 85.42-445.41 194.462zm118.676 210.066c-42.965 0-77.794-34.831-77.794-77.794 0-42.965 34.829-77.794 77.794-77.794s77.794 34.829 77.794 77.794c0 42.964-34.829 77.794-77.794 77.794z"/></svg>