<svg fill='#eeeeee' id="Capa_1" enable-background="new 0 0 497.883 497.883" height="512" viewBox="0 0 497.883 497.883" width="512" xmlns="http://www.w3.org/2000/svg"><path d="m248.912 0-217.795 128.267v58.439l31.118-.002 31.118 311.179h311.144l31.15-311.179 31.118.002v-58.357c-.002 0-217.853-128.349-217.853-128.349zm.028 435.646c-17.186 0-31.118-13.933-31.118-31.118 0-17.186 13.931-31.118 31.118-31.118s31.118 13.931 31.118 31.118c0 17.185-13.931 31.118-31.118 31.118zm0-140.029c-42.893 0-77.794-34.901-77.794-77.794s34.901-77.794 77.794-77.794 77.794 34.901 77.794 77.794-34.901 77.794-77.794 77.794z"/></svg>