<svg fill='#eeeeee' id="Capa_1" enable-background="new 0 0 497.884 497.884" height="512" viewBox="0 0 497.884 497.884" width="512" xmlns="http://www.w3.org/2000/svg"><path d="m342.292 404.526c-39.545-27.873-36.995-62.232-31.044-93.277 15.485-.074 17.343-.074 23.265-.074 55.854 0 101.132-45.279 101.132-101.132 0-34.643-17.462-65.162-44.017-83.389-5.964 21.374-17.61 40.245-32.939 55.368 9.09-17.285 14.721-36.667 14.721-57.552 0-68.744-55.726-124.47-124.47-124.47-52.452 0-97.121 32.538-115.445 78.453 2.205-.133 4.296-.659 6.533-.659 24.005 0 45.998 8.007 64 21.164-10.436-3.326-21.342-5.605-32.882-5.605-60.15 0-108.912 48.762-108.912 108.912s48.762 108.912 108.912 108.912c3.565 0 15.535.024 15.535.024 14.935 28.5 2.617 74.528-31.093 93.326l-124.47.003v31.118c0 17.185 13.931 31.118 31.118 31.118h31.118v31.118h62.235v-31.118h186.706v31.118h62.235v-31.118h31.118c17.186 0 31.118-13.933 31.118-31.118v-31.118c-.003-.001-124.474-.004-124.474-.004z"/></svg>