<svg fill='#eeeeee' id="Capa_1" enable-background="new 0 0 497.882 497.882" height="512" viewBox="0 0 497.882 497.882" width="512" xmlns="http://www.w3.org/2000/svg"><path d="m217.823 338.404c0-66.368 38.882-96.285 70.121-120.322 26.267-20.21 47.677-36.842 53.005-74.436l-123.126-143.646-186.705 217.823h114.099l-145.217 186.706h155.588v93.353h124.47v-32.707c-37.558-29.14-62.235-74.872-62.235-126.771z"/><path d="m373.411 124.47c0 128.36-124.47 106.967-124.47 213.933 0 70.89 55.726 128.36 124.47 128.36s124.47-57.47 124.47-128.36c.001-93.595-85.572-195.214-124.47-213.933zm0 311.176c-34.371 0-62.235-28.734-62.235-64.18 0-46.798 42.787-97.607 62.235-106.967 0 64.18 62.235 53.483 62.235 106.967 0 35.446-27.863 64.18-62.235 64.18z"/></svg>