<svg fill='#eeeeee' id="Capa_1" enable-background="new 0 0 497.881 497.881" height="512" viewBox="0 0 497.881 497.881" width="512" xmlns="http://www.w3.org/2000/svg"><path d="m435.645 280.058h-155.588v-93.353h62.235c17.185 0 31.118-13.933 31.118-31.118v-62.234c0-17.185-13.933-31.118-31.118-31.118s-31.118 13.933-31.118 31.118v31.118h-31.118v-93.353c.001-17.185-13.932-31.118-31.116-31.118s-31.118 13.933-31.118 31.118v124.47h-31.118v-31.118c0-17.185-13.933-31.118-31.118-31.118s-31.118 13.933-31.118 31.118v62.235c0 17.185 13.933 31.118 31.118 31.118h62.235v62.235h-155.587v62.235h36.168l27.648 155.588h245.78l27.648-155.588h36.168c-.001 0-.001-62.235-.001-62.235z"/></svg>