<svg fill='#eeeeee' id="Capa_1" enable-background="new 0 0 497.882 497.882" height="512" viewBox="0 0 497.882 497.882" width="512" xmlns="http://www.w3.org/2000/svg"><path d="m354.007 7.869c-13.578-4.099-27.251-6.669-40.844-7.869 40.352 50.249 56.106 118.845 36.078 185.203-3.726 12.349-8.663 23.973-14.406 35.011 57.293 8.845 103.937 48.773 122.639 102.203 13.726-18.372 24.717-39.243 31.727-62.469 32.277-106.942-28.253-219.802-135.194-252.079z"/><path d="m311.177 248.941c-4.266 0-8.3.836-12.455 1.255 7.992 18.732 12.455 39.328 12.455 60.98 0 6.055-.667 11.937-1.341 17.811-6.858-79.593-72.877-142.282-154.247-142.282-85.928.001-155.588 69.66-155.588 155.589s69.66 155.588 155.588 155.588h155.588c68.744 0 124.47-55.728 124.47-124.47.001-68.745-55.726-124.471-124.47-124.471z"/><path d="m108.913 155.588 62.235-31.118 62.235 31.118-24.518-61.293 40.076-32.06h-52.9l-24.893-62.235-24.894 62.235h-52.9l40.076 32.06z"/></svg>