<svg fill='#eeeeee' id="Capa_1" enable-background="new 0 0 497.882 497.882" height="512" viewBox="0 0 497.882 497.882" width="512" xmlns="http://www.w3.org/2000/svg"><path d="m264.501 0h31.118v62.235h-31.118z"/><path d="m435.647 202.264h62.235v31.118h-62.235z"/><path d="m210.825 325.56h62.229v31.114h-62.229z" transform="matrix(.707 -.707 .707 .707 2.075 10.172)"/><path d="m37.544 144.707h31.114v62.229h-31.114z" transform="matrix(.707 -.707 .707 .707 -.556 4.525)"/><path d="m172.36 156.498c49.179 4.346 92.855 27.422 123.486 62.708 7.02-.927 11.092-1.383 15.331-1.383 33.438 0 64.26 10.835 89.653 28.859 2.218-9.301 3.7-18.879 3.7-28.859 0-68.744-55.726-124.47-124.47-124.47-46.326 0-86.268 25.602-107.7 63.145z"/><path d="m311.177 248.941c-4.266 0-8.3.836-12.455 1.255 7.992 18.732 12.455 39.328 12.455 60.98 0 6.055-.667 11.937-1.341 17.811-6.858-79.593-72.877-142.282-154.247-142.282-85.928.001-155.588 69.66-155.588 155.589s69.66 155.588 155.588 155.588h155.588c68.744 0 124.47-55.728 124.47-124.47 0-68.745-55.726-124.471-124.47-124.471z"/></svg>