<svg fill='#eeeeee' id="Capa_1" enable-background="new 0 0 497.882 497.882" height="512" viewBox="0 0 497.882 497.882" width="512" xmlns="http://www.w3.org/2000/svg"><path d="m466.764 84.662c-45.619-51.805-112.252-84.662-186.706-84.662-137.486 0-248.94 111.455-248.94 248.941s111.455 248.941 248.941 248.941c74.453 0 141.087-32.857 186.706-84.662-38.622-43.858-62.235-101.246-62.235-164.279-.001-63.033 23.612-120.421 62.234-164.279zm-331.472 195.658c-13.088.729-24.856-19.515-26.286-45.214-1.428-25.699 8.022-47.123 21.11-47.85s24.856 19.515 26.286 45.214c1.429 25.701-8.022 47.123-21.11 47.85zm60.222 107.867c-7.871 4.545-22.05-5.28-31.67-21.944-9.622-16.662-11.039-33.854-3.168-38.399s22.05 5.28 31.67 21.944c9.622 16.662 11.038 33.854 3.168 38.399z"/></svg>