<svg fill='#eeeeee' id="Capa_1" enable-background="new 0 0 511.382 511.382" height="512" viewBox="0 0 511.382 511.382" width="512" xmlns="http://www.w3.org/2000/svg"><path d="m373.721 317.926c9.439-18.833 15.249-39.775 15.249-62.235 0-77.217-62.812-140.029-140.029-140.029s-140.029 62.812-140.029 140.029c0 22.461 5.81 43.402 15.249 62.235z"/><path d="m280.058 504.632h-248.94c-17.186 0-31.118-13.931-31.118-31.118 0-17.186 13.932-31.118 31.118-31.118h248.941c17.186 0 31.118 13.932 31.118 31.118-.001 17.187-13.933 31.118-31.119 31.118z"/><path d="m466.764 504.632h-93.353c-17.186 0-31.118-13.932-31.118-31.118 0-17.186 13.932-31.118 31.118-31.118h93.353c17.186 0 31.118 13.932 31.118 31.118 0 17.187-13.932 31.118-31.118 31.118z"/><path d="m186.706 411.279h-124.471c-17.186 0-31.118-13.932-31.118-31.118 0-17.186 13.932-31.118 31.118-31.118h124.47c17.186 0 31.118 13.932 31.118 31.118 0 17.186-13.932 31.118-31.117 31.118z"/><path d="m466.764 411.279h-186.706c-17.186 0-31.118-13.932-31.118-31.118 0-17.186 13.932-31.118 31.118-31.118h186.706c17.186 0 31.118 13.932 31.118 31.118-.001 17.186-13.932 31.118-31.118 31.118z"/><path id="path-1_3_" d="m233.383 6.75h31.117v77.794h-31.118z" transform="translate(7.5)"/><path id="path-1_2_" d="m233.383 6.75h31.117v77.794h-31.118z" transform="translate(7.5)"/><path id="path-2_5_" d="m420.088 240.133h77.794v31.118h-77.794z" transform="translate(13.5 7.5)"/><path id="path-2_4_" d="m.001 240.133h77.794v31.118h-77.794z" transform="translate(0 7.5)"/><path id="path-2_2_" d="m420.088 240.133h77.794v31.118h-77.794z" transform="translate(13.5 7.5)"/><path id="path-2_3_" d="m.001 240.133h77.794v31.118h-77.794z" transform="translate(0 7.5)"/><path id="path-3" d="m172.4 333.186h77.786v31.114h-77.786z" transform="matrix(.707 -.707 .707 .707 11.53375 3.758228)"/><path id="path-3_1_" d="m172.4 333.186h77.786v31.114h-77.786z" transform="matrix(.707 -.707 .707 .707 11.53375 3.758228)"/><g transform="matrix(.707 -.707 .707 .707 1.988728 2.69675)"><path id="path-4" d="m-17.103 106.557h31.114v77.786h-31.114z"/><path id="path-4_1_" d="m-17.103 106.557h31.114v77.786h-31.114z"/></g></svg>