<svg fill='#eeeeee' id="Capa_1" enable-background="new 0 0 497.882 497.882" height="512" viewBox="0 0 497.882 497.882" width="512" xmlns="http://www.w3.org/2000/svg"><path d="m494.746 280.059c2.042-10.057 3.136-20.459 3.136-31.118 0-83.763-66.336-151.559-149.265-154.95 15.69 27.338 24.795 58.934 24.795 92.715 0 4.055-.729 7.91-.984 11.901-9.622-94.084-89.097-167.489-185.722-167.489-103.115 0-186.706 83.59-186.706 186.705 0 21.857 3.95 42.743 10.852 62.235z"/><path d="m280.058 466.764h-248.94c-17.186 0-31.118-13.932-31.118-31.118 0-17.186 13.932-31.118 31.118-31.118h248.941c17.186 0 31.118 13.932 31.118 31.118-.001 17.186-13.933 31.118-31.119 31.118z"/><path d="m466.764 466.764h-93.353c-17.186 0-31.118-13.932-31.118-31.118 0-17.186 13.932-31.118 31.118-31.118h93.353c17.186 0 31.118 13.932 31.118 31.118 0 17.186-13.932 31.118-31.118 31.118z"/><path d="m186.706 373.411h-124.471c-17.186 0-31.118-13.932-31.118-31.118 0-17.186 13.932-31.118 31.118-31.118h124.47c17.186 0 31.118 13.932 31.118 31.118 0 17.186-13.932 31.118-31.117 31.118z"/><path d="m466.764 373.411h-186.706c-17.186 0-31.118-13.932-31.118-31.118 0-17.186 13.932-31.118 31.118-31.118h186.706c17.186 0 31.118 13.932 31.118 31.118-.001 17.186-13.932 31.118-31.118 31.118z"/></svg>