<svg fill='#eeeeee' id="Capa_1" enable-background="new 0 0 497.883 497.883" height="512" viewBox="0 0 497.883 497.883" width="512" xmlns="http://www.w3.org/2000/svg"><path d="m319.305 311.176c-5.151-19.91-8.129-40.703-8.129-62.235 0-92.09 50.133-172.303 124.47-215.365-36.644-21.228-79.074-33.576-124.47-33.576-137.486 0-248.941 111.455-248.941 248.941 0 21.532 3.02 42.31 8.159 62.235z"/><path d="m280.058 435.646h-248.94c-17.187 0-31.118 13.933-31.118 31.117 0 17.186 13.931 31.118 31.118 31.118h248.941c17.185 0 31.118-13.931 31.118-31.118-.001-17.184-13.934-31.117-31.119-31.117z"/><path d="m466.764 435.646h-93.353c-17.186 0-31.118 13.933-31.118 31.118 0 17.186 13.931 31.118 31.118 31.118h93.353c17.185 0 31.118-13.931 31.118-31.118-.001-17.185-13.934-31.118-31.118-31.118z"/><path d="m62.235 404.529h124.47c17.185 0 31.118-13.931 31.118-31.118 0-17.185-13.933-31.118-31.118-31.118h-124.47c-17.186 0-31.118 13.933-31.118 31.118.001 17.186 13.932 31.118 31.118 31.118z"/><path d="m248.941 373.411c0 17.186 13.931 31.118 31.118 31.118h186.706c17.185 0 31.118-13.931 31.118-31.118 0-17.185-13.933-31.118-31.118-31.118h-186.707c-17.186 0-31.117 13.934-31.117 31.118z"/></svg>