<svg fill='#eeeeee' id="Capa_1" enable-background="new 0 0 435.647 435.647" height="512" viewBox="0 0 435.647 435.647" width="512" xmlns="http://www.w3.org/2000/svg"><path d="m342.293 124.47v124.47c0 17.154-13.963 31.118-31.118 31.118v-248.94c.001-17.187-13.93-31.118-31.117-31.118h-217.823c-17.186 0-31.117 13.931-31.117 31.118v342.293h-2.592c-15.755 0-28.526 13.931-28.526 31.118v31.118h342.293v-31.118c0-17.186-12.771-31.118-28.525-31.118h-2.592v-31.118c51.478 0 93.353-41.875 93.353-93.353v-124.47c0-17.154 13.963-31.118 31.118-31.118v-62.234c-51.479 0-93.354 41.875-93.354 93.352zm-171.146 248.941-15.559-62.235h-46.676l62.235-124.47 15.559 62.235h46.676zm77.794-217.823h-155.588v-93.353h155.588z"/></svg>