<svg fill='#eeeeee' id="Capa_1" enable-background="new 0 0 497.882 497.882" height="512" viewBox="0 0 497.882 497.882" width="512" xmlns="http://www.w3.org/2000/svg"><path d="m248.941 0c-137.264 0-248.941 111.677-248.941 248.941s111.677 248.941 248.941 248.941 248.941-111.677 248.941-248.941-111.678-248.941-248.941-248.941zm-143.104 279.994c-13.088.727-24.856-19.515-26.286-45.214-1.428-25.701 8.022-47.123 21.11-47.852 13.088-.727 24.856 19.517 26.286 45.216 1.428 25.698-8.023 47.122-21.11 47.85zm60.221 107.865c-7.871 4.545-22.05-5.28-31.67-21.942-9.622-16.664-11.039-33.856-3.168-38.399 7.871-4.545 22.05 5.28 31.67 21.942 9.622 16.663 11.039 33.856 3.168 38.399z"/></svg>