<svg fill='#eeeeee' id="Capa_1" enable-background="new 0 0 497.882 497.882" height="512" viewBox="0 0 497.882 497.882" width="512" xmlns="http://www.w3.org/2000/svg"><path d="m248.941.001-248.941 77.795v46.675l31.118.002v373.408h435.646v-373.408l31.118-.002v-46.675zm155.588 435.646h-138.331c2.663-30.403 5.595-91.429-7.293-135.412 11.848 24.409 26.115 55.827 32.781 80.861 29.936-11.889 50.608-37.938 50.608-81.889 0-71.809-93.353-143.619-93.353-143.619s-93.353 71.809-93.353 143.619c0 57.912 35.663 84.962 81.591 88.893-.15 17.855-1.086 34.565-2.258 47.546h-141.568v-328.956l155.588-44.454 155.588 44.454z"/></svg>