<svg fill='#eeeeee' id="Capa_1" enable-background="new 0 0 497.881 497.881" height="512" viewBox="0 0 497.881 497.881" width="512" xmlns="http://www.w3.org/2000/svg"><path d="m311.176 248.941c0-92.09 50.133-172.303 124.47-215.365-36.644-21.229-79.074-33.576-124.47-33.576-137.486 0-248.941 111.455-248.941 248.941s111.455 248.94 248.941 248.94c45.396 0 87.826-12.347 124.47-33.575-74.337-43.062-124.47-123.276-124.47-215.365zm-175.884 31.379c-13.088.729-24.856-19.515-26.286-45.214-1.428-25.699 8.022-47.123 21.11-47.85s24.856 19.515 26.286 45.214c1.429 25.701-8.022 47.123-21.11 47.85zm60.222 107.867c-7.871 4.545-22.05-5.28-31.67-21.944-9.622-16.662-11.039-33.854-3.168-38.399s22.05 5.28 31.67 21.944c9.622 16.662 11.039 33.854 3.168 38.399z"/></svg>