<svg fill='#eeeeee' id="Capa_1" enable-background="new 0 0 435.647 435.647" height="512" viewBox="0 0 435.647 435.647" width="512" xmlns="http://www.w3.org/2000/svg"><path d="m404.529 0h-373.411c0 67.891 62.235 72.607 62.235 155.588 0 28.008-5.531 45.339-11.927 62.235h-50.308v31.118h155.588v31.118h-122.694c-1.088 9.118-1.774 19.268-1.774 31.118 0 82.979 89.201 124.47 155.586 124.47 1.035-22.778 2.803-43.353 5.12-62.235h-36.238v-31.118h93.353v-31.118h-45.837c15.749-63.679 40.28-98.902 65.954-124.47h-82.352v-31.118h186.706v-31.118h-36.907c21.64-25.501 36.907-59.779 36.906-124.47z"/></svg>