<svg fill='#eeeeee' id="Capa_1" enable-background="new 0 0 497.882 497.882" height="512" viewBox="0 0 497.882 497.882" width="512" xmlns="http://www.w3.org/2000/svg"><path d="m453.226 44.656c-40.301-28.079-89.209-44.656-142.05-44.656-137.486 0-248.941 111.455-248.941 248.941 0 51.558 20.898 98.234 54.686 132.02l-72.265 72.265c40.3 28.079 89.209 44.656 142.05 44.656 137.486 0 248.941-111.455 248.941-248.941 0-51.557-20.898-98.234-54.684-132.022zm-204.285 297.637c-51.557 0-93.353-41.795-93.353-93.353s41.795-93.353 93.353-93.353 93.353 41.795 93.353 93.353-41.796 93.353-93.353 93.353z"/></svg>