<svg fill='#eeeeee' id="Capa_1" enable-background="new 0 0 497.88 497.88" height="512" viewBox="0 0 497.88 497.88" width="512" xmlns="http://www.w3.org/2000/svg"><path d="m172.62 361.134c16.774-8.387 37.666-18.841 76.107-18.841 38.472 0 59.394 10.438 76.183 18.841 14.267 7.126 24.584 12.277 48.393 12.277 23.794 0 34.111-5.151 48.378-12.277 5.806-2.898 12.503-5.931 19.845-8.807l-5.882-41.189-62.235-93.315-31.118-62.235-21.217-7.073-25.46 38.19v31.118l15.559 31.118-46.676 31.118 15.559-31.118-15.559-46.676 31.118-62.235-47.351-108.913-61.559 62.235-31.118 108.885-46.676 62.262-15.593 77.794-9.096 22.767c10.691 4.969 21.112 8.351 40.126 8.351 23.748-.001 34.035-5.151 48.272-12.277z"/><path d="m421.683 392.25c-14.267 7.126-24.584 12.277-48.378 12.277-23.809 0-34.126-5.151-48.393-12.277-16.79-8.402-37.712-18.841-76.183-18.841-38.441 0-59.333 10.454-76.107 18.841-14.237 7.126-24.523 12.277-48.272 12.277-23.733 0-34.02-5.151-48.241-12.262-16.791-8.402-37.668-18.855-76.109-18.855v62.235c23.733 0 34.02 5.151 48.241 12.262 16.79 8.402 37.666 18.856 76.107 18.856s59.333-10.454 76.107-18.841c14.237-7.126 24.523-12.277 48.272-12.277 23.794 0 34.111 5.151 48.378 12.277 16.805 8.387 37.712 18.841 76.199 18.841 38.472 0 59.394-10.438 76.183-18.841 14.267-7.126 24.584-12.277 48.393-12.277v-62.235c-38.485 0-59.392 10.453-76.197 18.84z"/></svg>