<svg fill='#eeeeee' id="Capa_1" enable-background="new 0 0 497.883 497.883" height="512" viewBox="0 0 497.883 497.883" width="512" xmlns="http://www.w3.org/2000/svg"><path d="m406.419 13.671c18.228 18.228 18.228 47.782 0 66.01s-47.782 18.228-66.01 0-18.228-47.782 0-66.01 47.781-18.228 66.01 0"/><path d="m446.025 137.097c-23.688-8.372-48.12-12.626-72.613-12.626h-186.706c-17.185 0-31.118 13.933-31.118 31.118s13.933 31.118 31.118 31.118h124.47v311.176h124.47v-155.589c17.185 0 31.118-13.933 31.118-31.118v-144.74c.001-13.188-8.31-24.933-20.739-29.339z"/><path d="m217.824 292.806-25.967 142.84h-72.536l-25.967-142.84v-12.748h-62.235v15.559l36.268 202.264h176.404l35.767-196.703.501-21.12h-62.235z"/><path d="m-102.541 262.996h66.01v66.01h-66.01z" transform="matrix(.707 -.707 .707 .707 -4.546 6.025)"/></svg>