<svg fill='#eeeeee' id="Capa_1" enable-background="new 0 0 497.882 497.882" height="512" viewBox="0 0 497.882 497.882" width="512" xmlns="http://www.w3.org/2000/svg"><path d="m137.315 225.32c-7.838 17.773-12.845 36.24-12.845 54.739 0 68.742 55.726 124.47 124.47 124.47 19.65 0 37.985-4.963 54.511-13.073.001 0-166.136-166.136-166.136-166.136z"/><path d="m248.941 0c-137.264 0-248.941 111.677-248.941 248.941s111.677 248.941 248.941 248.941 248.941-111.677 248.941-248.941-111.678-248.941-248.941-248.941zm186.705 248.941c0 40.261-12.938 77.484-34.692 108.011l-35.114-35.114c4.807-13.033 7.57-27.042 7.57-41.78 0-93.353-124.47-186.706-124.47-186.706s-28.307 21.325-57.922 53.664l-50.089-50.089c30.527-21.754 67.751-34.692 108.011-34.692 102.956 0 186.706 83.75 186.706 186.706zm-373.411 0c0-40.261 12.938-77.484 34.692-108.011l260.025 260.025c-30.527 21.754-67.751 34.692-108.011 34.692-102.956-.001-186.706-83.751-186.706-186.706z"/></svg>