<svg fill='#eeeeee' id="Capa_1" enable-background="new 0 0 497.881 497.881" height="512" viewBox="0 0 497.881 497.881" width="512" xmlns="http://www.w3.org/2000/svg"><path d="m433.504 238.823s-97.976-12.643-153.445 24.313v-33.778c36.175-9.342 62.235-36.274 62.235-85.739-.001-71.81-93.353-143.619-93.353-143.619s-93.353 71.809-93.353 143.619c0 49.465 26.06 76.396 62.235 85.739v33.778c-55.47-36.956-153.445-24.313-153.445-24.313s-15.234 116.786 35.544 167.565c39.904 39.904 83.087 35.29 117.901 7.565v83.928h62.235v-83.928c34.813 27.725 77.997 32.339 117.901-7.565 50.779-50.779 35.545-167.565 35.545-167.565z"/></svg>