<svg fill='#eeeeee' id="Capa_1" enable-background="new 0 0 510.882 510.882" height="512" viewBox="0 0 510.882 510.882" width="512" xmlns="http://www.w3.org/2000/svg"><path id="path-1_39_" d="m317.675 466.764c0-17.186-31.118-62.235-31.118-62.235s-31.118 45.049-31.118 62.235 13.932 31.118 31.118 31.118 31.118-13.932 31.118-31.118z" transform="translate(8 13)"/><path id="path-1_38_" d="m224.323 435.646c0-17.186-31.118-62.235-31.118-62.235s-31.118 45.049-31.118 62.235 13.932 31.118 31.118 31.118 31.118-13.932 31.118-31.118z" transform="translate(5 12)"/><path d="m355.116 62.874c15.69 27.338 24.795 58.934 24.795 92.715 0 4.055-.729 7.91-.984 11.901-9.621-94.085-89.096-167.49-185.721-167.49-103.115 0-186.706 83.591-186.706 186.706s83.591 186.706 186.706 186.706h155.588c85.928 0 155.588-69.66 155.588-155.588 0-83.764-66.336-151.56-149.266-154.95z"/></svg>