<svg fill='#eeeeee' id="Capa_1" enable-background="new 0 0 497.882 497.882" height="512" viewBox="0 0 497.882 497.882" width="512" xmlns="http://www.w3.org/2000/svg"><path d="m0 248.941c0 137.486 111.455 248.941 248.941 248.941 28.356 0 55.497-4.97 80.888-13.703l-112.005-126.327-68.761 48.133c-52.013-33.142-86.827-90.916-86.827-157.045 0-67.443 36.058-126.463 89.792-159.28l-41.979-47.324c-66.381 44.713-110.049 120.553-110.049 206.605z"/><path d="m497.882 248.941c0-137.486-111.456-248.941-248.942-248.941-28.356 0-55.497 4.97-80.888 13.703l112.006 126.326 68.761-48.133c52.013 33.142 86.827 90.916 86.827 157.045 0 67.443-36.057 126.463-89.792 159.28l41.979 47.324c66.381-44.713 110.049-120.552 110.049-206.604z"/></svg>