<svg fill='#eeeeee' id="Capa_1" enable-background="new 0 0 497.881 497.881" height="512" viewBox="0 0 497.881 497.881" width="512" xmlns="http://www.w3.org/2000/svg"><path d="m154.189 272.071 25.255 14.581-22.78-85.015-85.015 22.78 28.622 16.526-96.549 179.323c-5.196 9.648-4.938 21.302.684 30.707 5.607 9.405 15.756 15.164 26.711 15.164h186.706v-62.235h-134.606c0-.001 70.972-131.83 70.972-131.831z"/><path d="m494.158 420.267-58.725-109.063-54.79 29.507 34.02 63.192h-103.488v-31.118l-62.235 62.235 62.235 62.235v-31.118h155.588c10.955 0 21.105-5.759 26.711-15.164 5.622-9.404 5.88-21.058.684-30.706z"/><path d="m307.513 275.321 85.015 22.78 22.78-85.015-24.954 14.408-114.034-211.757c-10.849-20.147-43.941-20.147-54.79 0l-76.244 141.594 54.79 29.507 48.849-90.709 87.513 162.494c-.001-.001-28.924 16.698-28.925 16.698z"/></svg>