<svg fill='#eeeeee' id="Capa_1" enable-background="new 0 0 510.882 510.882" height="512" viewBox="0 0 510.882 510.882" width="512" xmlns="http://www.w3.org/2000/svg"><path id="path-1_37_" d="m215.209 382.526c12.152 12.152 12.152 31.855 0 44.007s-31.855 12.152-44.007 0-12.152-31.855 0-44.007 31.855-12.152 44.007 0" transform="translate(4.902 11.902)"/><path d="m355.116 62.874c15.69 27.338 24.795 58.934 24.795 92.715 0 4.055-.729 7.91-.984 11.901-9.621-94.085-89.096-167.49-185.721-167.49-103.115 0-186.706 83.591-186.706 186.706s83.591 186.706 186.706 186.706h155.588c85.928 0 155.588-69.66 155.588-155.588 0-83.764-66.336-151.56-149.266-154.95z"/><path id="path-2_9_" d="m68.735 466.764c0 17.185 13.931 31.118 31.118 31.118s31.118-13.933 31.118-31.118c0-17.186-31.118-62.235-31.118-62.235s-31.118 45.048-31.118 62.235z" transform="translate(2 13)"/><path id="path-1_32_" d="m401.915 382.526c12.152 12.152 12.152 31.855 0 44.007s-31.855 12.152-44.007 0-12.152-31.855 0-44.007 31.855-12.152 44.007 0" transform="translate(10.902 11.902)"/><path id="path-2_8_" d="m255.44 466.764c0 17.185 13.931 31.118 31.118 31.118s31.118-13.933 31.118-31.118c0-17.186-31.118-62.235-31.118-62.235s-31.118 45.048-31.118 62.235z" transform="translate(8 13)"/></svg>