<svg fill='#eeeeee' id="Capa_1" enable-background="new 0 0 511.784 511.784" height="512" viewBox="0 0 511.784 511.784" width="512" xmlns="http://www.w3.org/2000/svg"><path id="path-1_10_" d="m246.778 444.761c12.152 12.152 12.152 31.855 0 44.007s-31.855 12.152-44.007 0-12.152-31.855 0-44.007 31.855-12.152 44.007 0" transform="translate(5.902 13.902)"/><path id="path-1_9_" d="m340.13 382.526c12.152 12.152 12.152 31.855 0 44.007s-31.855 12.152-44.007 0-12.152-31.855 0-44.007c12.153-12.152 31.855-12.152 44.007 0" transform="translate(8.902 11.902)"/><path id="path-1_8_" d="m433.484 444.761c12.152 12.152 12.152 31.855 0 44.007s-31.855 12.152-44.007 0-12.152-31.855 0-44.007 31.855-12.152 44.007 0" transform="translate(11.902 13.902)"/><path d="m153.425 382.526c12.152 12.152 12.152 31.855 0 44.007s-31.855 12.152-44.007 0-12.152-31.855 0-44.007 31.855-12.152 44.007 0"/><path d="m355.568 62.874c15.69 27.338 24.795 58.934 24.795 92.715 0 4.055-.729 7.91-.984 11.901-9.622-94.085-89.097-167.49-185.722-167.49-103.115 0-186.706 83.591-186.706 186.706s83.591 186.706 186.706 186.706h124.47 31.118c85.928 0 155.588-69.66 155.588-155.588 0-83.764-66.336-151.56-149.265-154.95z"/></svg>