<svg fill='#eeeeee' id="Capa_1" enable-background="new 0 0 497.882 497.882" height="512" viewBox="0 0 497.882 497.882" width="512" xmlns="http://www.w3.org/2000/svg"><path id="path-1_21_" d="m77.795 435.646c0 17.185 13.931 31.118 31.118 31.118s31.118-13.933 31.118-31.118c0-17.186-31.118-62.235-31.118-62.235s-31.118 45.049-31.118 62.235z" transform="translate(2.5 12)"/><path id="path-1_20_" d="m357.854 404.528c0 17.185 13.931 31.118 31.118 31.118s31.118-13.933 31.118-31.118c0-17.186-31.118-62.235-31.118-62.235s-31.118 45.049-31.118 62.235z" transform="translate(11.5 11)"/><path d="m342.295 62.235c-1.069 0-2.059.291-3.122.315 11.857 23.283 18.681 49.559 18.681 77.479 0 4.338-.699 8.486-1.016 12.742-9.172-85.875-81.823-152.771-170.131-152.771-94.521 0-171.147 76.624-171.147 171.147 0 94.521 76.626 171.147 171.147 171.147h15.57l-31.129 62.235h46.676l-15.563 93.353 108.915-93.353h-46.676l31.08-62.235h46.714c77.336 0 140.029-62.693 140.029-140.029s-62.692-140.03-140.028-140.03z"/></svg>