<svg fill='#eeeeee' id="Capa_1" enable-background="new 0 0 511.381 511.381" height="512" viewBox="0 0 511.381 511.381" width="512" xmlns="http://www.w3.org/2000/svg"><path d="m347.956 149.925c54.685 54.685 54.685 143.346 0 198.031s-143.346 54.685-198.031 0-54.685-143.346 0-198.031 143.346-54.685 198.031 0"/><path id="path-1_19_" d="m233.382 0h31.118v77.794h-31.118z" transform="translate(7.5)"/><path id="path-1_18_" d="m233.382 420.087h31.118v77.794h-31.118z" transform="translate(7.5 13.5)"/><path id="path-2_7_" d="m420.087 233.382h77.794v31.118h-77.794z" transform="translate(13.5 7.5)"/><path id="path-2_6_" d="m0 233.382h77.794v31.118h-77.794z" transform="translate(0 7.5)"/><path id="path-3_3_" d="m177.174 328.41h77.786v31.114h-77.786z" transform="matrix(.707 -.707 .707 .707 11.53375 3.758228)"/><path id="path-3_2_" d="m-238.958 337.958h77.786v31.114h-77.786z" transform="matrix(.707 -.707 .707 .707 1.98775 13.302272)"/><path id="path-4_3_" d="m-2.783 517.914h31.114v77.786h-31.114z" transform="matrix(.707 -.707 .707 .707 11.532772 12.24275)"/><path id="path-4_2_" d="m-12.33 101.783h31.114v77.786h-31.114z" transform="matrix(.707 -.707 .707 .707 1.988728 2.69675)"/></svg>