<svg fill='#eeeeee' id="Capa_1" enable-background="new 0 0 497.881 497.881" height="512" viewBox="0 0 497.881 497.881" width="512" xmlns="http://www.w3.org/2000/svg"><path d="m342.293 291.868v-198.515c0-51.558-41.795-93.353-93.352-93.353s-93.353 41.795-93.353 93.353v198.515c-19.133 21.885-31.118 50.19-31.118 81.543 0 68.742 55.726 124.47 124.47 124.47s124.47-55.728 124.47-124.47c.001-31.353-11.983-59.658-31.117-81.543zm-93.352 143.778c-34.371 0-62.235-27.864-62.235-62.235 0-22.979 12.594-42.823 31.118-53.603v-226.455c0-17.186 13.931-31.118 31.118-31.118 17.186 0 31.118 13.931 31.118 31.118v226.455c18.524 10.78 31.118 30.624 31.118 53.603-.002 34.371-27.865 62.235-62.237 62.235z"/></svg>