<svg fill='#eeeeee' id="Capa_1" enable-background="new 0 0 497.882 497.882" height="512" viewBox="0 0 497.882 497.882" width="512" xmlns="http://www.w3.org/2000/svg"><path d="m306.148 375.74c-28.903-15.885-62.76-17.481-91.723-1.707-8.169 4.448-16.934 7.905-26.086 10.427-2.313 43.398-10.305 90.979-32.749 113.422h186.706c-16.176-16.159-23.904-70.018-27.634-118.123-2.881-1.266-5.774-2.512-8.514-4.019z"/><path d="m425.145 163.91c-7.348 19.365-18.691 36.635-32.597 51.442 7.671-18.41 11.981-38.576 11.981-59.764-.001-85.928-69.66-155.588-155.588-155.588-57.677 0-107.447 31.746-134.32 78.369 33.315 1.537 63.185 16.106 84.663 38.696-13.612-5.138-28.272-8.154-43.697-8.154-68.744 0-124.47 55.726-124.47 124.47 0 68.742 55.726 124.47 124.47 124.47 21.344 0 41.358-5.421 58.836-14.938 28.964-15.773 62.82-14.178 91.723 1.707 15.335 8.425 32.924 13.23 51.706 13.23 60.15 0 108.912-48.762 108.912-108.912-.001-34.606-16.452-65.078-41.619-85.028z"/></svg>