<svg fill='#eeeeee' id="Capa_1" enable-background="new 0 0 497.881 497.881" height="512" viewBox="0 0 497.881 497.881" width="512" xmlns="http://www.w3.org/2000/svg"><path d="m311.176 124.47c0-51.478 41.875-93.353 93.353-93.353v-31.117c-68.632 0-124.47 55.838-124.47 124.47z"/><path d="m186.705 124.47h31.118c0-68.632-55.838-124.47-124.471-124.47v31.118c51.478 0 93.353 41.875 93.353 93.352z"/><path d="m275.501 4.557c6.076 6.076 6.076 15.927 0 22.003s-15.927 6.076-22.003 0-6.076-15.927 0-22.003c6.075-6.076 15.927-6.076 22.003 0"/><path id="path-1_11_" d="m119.913 97.91c6.076 6.076 6.076 15.927 0 22.003s-15.927 6.076-22.003 0-6.076-15.927 0-22.003c6.075-6.076 15.927-6.076 22.003 0" transform="translate(2.951 2.951)"/><path id="path-1_7_" d="m462.207 129.027c6.076 6.076 6.076 15.927 0 22.003s-15.927 6.076-22.003 0-6.076-15.927 0-22.003 15.927-6.076 22.003 0" transform="translate(13.951 3.951)"/><path id="path-1_6_" d="m399.972 66.792c6.076 6.076 6.076 15.927 0 22.003s-15.927 6.076-22.003 0-6.076-15.927 0-22.003c6.075-6.076 15.927-6.076 22.003 0" transform="translate(11.951 1.951)"/><path d="m357.98 161.301c-2.232-18.345-19.534-30.89-37.499-26.565-19.787 4.763-45.664 9.386-71.54 9.386s-51.753-4.623-71.54-9.386c-17.967-4.325-35.269 8.22-37.499 26.565-18.495 152.072-139.902 336.58-139.902 336.58h497.881s-121.406-184.508-139.901-336.58zm-109.039 196.552c-26.406-13.204-52.887-82.236-98.31-102.895 7.542-24.476 13.772-49.187 17.768-73.464 1.428-8.67 9.386-14.64 18.003-12.93 18.744 3.719 40.542 6.67 62.539 6.67 22.045 0 43.89-2.963 62.661-6.693 8.569-1.704 16.438 4.163 17.855 12.786 5.386 32.777 14.866 66.334 26.25 99.018-39.87 11.706-80.165 90.808-106.766 77.508z"/></svg>