<svg fill='#eeeeee' id="Capa_1" enable-background="new 0 0 497.881 497.881" height="512" viewBox="0 0 497.881 497.881" width="512" xmlns="http://www.w3.org/2000/svg"><path d="m466.764 124.47h-15.559c-11.791 0-22.563 6.655-27.836 17.2l-14.085 28.17-84.31 105.398-14.425-94.728c-3.335-82.861-71.297-149.392-154.961-149.392-85.786-.001-155.588 69.801-155.588 155.587 0 41.258 16.624 80.341 45.962 109.519l16.911-118.332c.091-.634.329-1.212.439-1.839 5.362-46.416 44.445-82.702 92.276-82.702 40.513 0 74.732 26.092 87.619 62.235h-145.722l-34.931 244.536-.319 66.641h280.058v-68.997l104.915-170.493 5.637 2.826c9.633 4.817 21.105 4.285 30.282-1.367 9.162-5.667 14.754-15.68 14.754-26.468v-46.676c0-17.185-13.933-31.118-31.117-31.118z"/></svg>