<svg fill='#eeeeee' id="Capa_1" enable-background="new 0 0 497.882 497.882" height="512" viewBox="0 0 497.882 497.882" width="512" xmlns="http://www.w3.org/2000/svg"><path d="m248.941 0c-137.264 0-248.941 111.677-248.941 248.941s111.677 248.941 248.941 248.941 248.941-111.677 248.941-248.941-111.678-248.941-248.941-248.941zm0 435.646c-102.955 0-186.706-83.75-186.706-186.706s83.75-186.706 186.706-186.706 186.706 83.75 186.706 186.706-83.751 186.706-186.706 186.706z"/><path d="m248.941 93.353s-124.47 93.353-124.47 186.706c0 68.742 55.726 124.47 124.47 124.47s124.47-55.728 124.47-124.47c0-93.353-124.47-186.706-124.47-186.706z"/></svg>