<svg fill='#eeeeee' id="Capa_1" enable-background="new 0 0 497.882 497.882" height="512" viewBox="0 0 497.882 497.882" width="512" xmlns="http://www.w3.org/2000/svg"><path d="m348.616 62.874c15.69 27.338 24.795 58.934 24.795 92.715 0 4.055-.729 7.91-.984 11.901-9.621-94.085-89.096-167.49-185.721-167.49-103.115 0-186.706 83.591-186.706 186.706 0 10.626 1.094 20.977 2.8 31.118h308.376c68.41 0 124.045 55.495 124.404 123.821 37.621-28.4 62.302-73.054 62.302-123.821 0-83.764-66.336-151.56-149.266-154.95z"/><path d="m93.352 466.764c0-17.186-31.118-62.235-31.118-62.235s-31.118 45.049-31.118 62.235 13.932 31.118 31.118 31.118 31.118-13.932 31.118-31.118z"/><path id="path-1_5_" d="m93.352 311.176c0-17.186-31.118-62.235-31.118-62.235s-31.118 45.05-31.118 62.235c0 17.186 13.932 31.118 31.118 31.118s31.118-13.932 31.118-31.118z" transform="translate(1 8)"/><path id="path-1_4_" d="m186.705 404.529c0-17.186-31.118-62.235-31.118-62.235s-31.118 45.05-31.118 62.235c0 17.186 13.932 31.118 31.118 31.118s31.118-13.932 31.118-31.118z" transform="translate(4 11)"/><path d="m311.176 435.646c-51.478 0-93.353-41.875-93.353-93.353h31.118c0 34.324 27.912 62.235 62.235 62.235 34.324 0 62.235-27.912 62.235-62.235 0-34.324-27.912-62.235-62.235-62.235h-217.824v-31.118h217.823c51.478 0 93.353 41.875 93.353 93.353s-41.875 93.353-93.352 93.353z"/></svg>