<svg fill='#eeeeee' id="Capa_1" enable-background="new 0 0 497.882 497.882" height="512" viewBox="0 0 497.882 497.882" width="512" xmlns="http://www.w3.org/2000/svg"><path d="m404.529 217.823h-404.529v-62.235h404.529c17.154 0 31.118-13.963 31.118-31.118s-13.963-31.118-31.118-31.118c-17.154 0-31.118 13.963-31.118 31.118h-62.235c0-51.478 41.875-93.353 93.353-93.353s93.353 41.875 93.353 93.353-41.875 93.353-93.353 93.353z"/><path d="m326.735 466.764c-51.478 0-93.353-41.875-93.353-93.353h62.235c0 17.154 13.963 31.118 31.118 31.118 17.154 0 31.118-13.963 31.118-31.118 0-17.154-13.963-31.118-31.118-31.118h-326.735v-62.235h326.735c51.478 0 93.353 41.875 93.353 93.353s-41.875 93.353-93.353 93.353z"/></svg>