<svg fill='#eeeeee' id="Capa_1" enable-background="new 0 0 497.882 497.882" height="512" viewBox="0 0 497.882 497.882" width="512" xmlns="http://www.w3.org/2000/svg"><path d="m348.617 62.874c15.69 27.338 24.795 58.934 24.795 92.715 0 4.055-.729 7.91-.984 11.901-9.622-94.085-89.097-167.49-185.722-167.49-103.115 0-186.705 83.591-186.705 186.706 0 21.857 3.95 42.743 10.852 62.235h300.324c58.686 0 107.713 40.954 120.778 95.695 39.776-28.183 65.927-74.352 65.927-126.812 0-83.764-66.335-151.56-149.265-154.95z"/><path d="m311.176 280.059h-311.176v31.118h311.176c34.324 0 62.235 27.912 62.235 62.235 0 34.324-27.912 62.235-62.235 62.235-34.324 0-62.235-27.912-62.235-62.235h-31.118c0 51.478 41.875 93.353 93.353 93.353s93.353-41.875 93.353-93.353-41.875-93.353-93.353-93.353z"/><path d="m124.47 373.411h-124.47v31.118h124.47c17.154 0 31.118 13.963 31.118 31.118 0 17.154-13.963 31.118-31.118 31.118s-31.118-13.963-31.118-31.118h-31.117c0 34.324 27.912 62.235 62.235 62.235 34.324 0 62.235-27.912 62.235-62.235.001-34.324-27.911-62.236-62.235-62.236z"/></svg>