<?xml version="1.0" encoding="iso-8859-1"?>
<!-- Generator: Adobe Illustrator 19.0.0, SVG Export Plug-In . SVG Version: 6.00 Build 0)  -->
<svg fill='#eeeeee' version="1.1" id="Capa_1" xmlns="http://www.w3.org/2000/svg" xmlns:xlink="http://www.w3.org/1999/xlink" x="0px" y="0px"
	 viewBox="0 0 512 512" style="enable-background:new 0 0 512 512;" xml:space="preserve">
<g>
	<g>
		<g>
			<path d="M469.333,85.333H170.667c0-23.531-19.135-42.667-42.667-42.667h-21.333C83.135,42.667,64,61.802,64,85.333H42.667
				C19.135,85.333,0,104.469,0,128v298.667c0,23.531,19.135,42.667,42.667,42.667h426.667c23.531,0,42.667-19.135,42.667-42.667V128
				C512,104.469,492.865,85.333,469.333,85.333z M362.667,138.667c0-5.896,4.771-10.667,10.667-10.667h64
				c5.896,0,10.667,4.771,10.667,10.667V160c0,5.896-4.771,10.667-10.667,10.667h-64c-5.896,0-10.667-4.771-10.667-10.667V138.667z
				 M320,128c11.76,0,21.333,9.573,21.333,21.333c0,11.76-9.573,21.333-21.333,21.333s-21.333-9.573-21.333-21.333
				C298.667,137.573,308.24,128,320,128z M490.667,384h-154.88c-26.99,38.655-71.732,64-122.453,64
				c-50.721,0-95.464-25.345-122.453-64H21.333V213.333H90.88c26.99-38.656,71.732-64,122.453-64c50.721,0,95.464,25.344,122.453,64
				h154.88V384z"/>
			<path d="M213.333,170.667c-70.583,0-128,57.417-128,128s57.417,128,128,128s128-57.417,128-128S283.917,170.667,213.333,170.667z
				 M213.333,384C166.281,384,128,345.719,128,298.667c0-47.052,38.281-85.333,85.333-85.333c47.052,0,85.333,38.281,85.333,85.333
				C298.667,345.719,260.385,384,213.333,384z"/>
		</g>
	</g>
</g>
<g>
</g>
<g>
</g>
<g>
</g>
<g>
</g>
<g>
</g>
<g>
</g>
<g>
</g>
<g>
</g>
<g>
</g>
<g>
</g>
<g>
</g>
<g>
</g>
<g>
</g>
<g>
</g>
<g>
</g>
</svg>
