<?xml version="1.0" encoding="iso-8859-1"?>
<!-- Generator: Adobe Illustrator 19.0.0, SVG Export Plug-In . SVG Version: 6.00 Build 0)  -->
<svg fill='#eeeeee' version="1.1" id="Capa_1" xmlns="http://www.w3.org/2000/svg" xmlns:xlink="http://www.w3.org/1999/xlink" x="0px" y="0px"
	 viewBox="0 0 512 512" style="enable-background:new 0 0 512 512;" xml:space="preserve">
<g>
	<g>
		<g>
			<path d="M507.24,328.927c2.979-1.969,4.76-5.302,4.76-8.875V170.688c0-3.563-1.781-6.896-4.75-8.875l-32-21.354
				c-1.792-1.198-3.854-1.797-5.917-1.797v207.064L430.003,448H168.556l18.684-12.438c2.979-1.969,4.76-5.302,4.76-8.875V64.021
				c0-3.563-1.781-6.896-4.75-8.875l-32-21.354c-3.583-2.396-8.25-2.396-11.833,0L128,44.079V32c0-5.896-4.771-10.667-10.667-10.667
				h-32V10.667C85.333,4.771,80.563,0,74.667,0H53.333c-5.896,0-10.667,4.771-10.667,10.667v10.667h-32C4.771,21.333,0,26.104,0,32
				v426.667v42.667C0,507.229,4.771,512,10.667,512h490.667c5.896,0,10.667-4.771,10.667-10.667v-42.667
				c0-5.896-4.771-10.667-10.667-10.667h-48.466l42.839-111.395L507.24,328.927z M64,106.667c-11.76,0-21.333-9.573-21.333-21.333
				C42.667,73.573,52.24,64,64,64s21.333,9.573,21.333,21.333C85.333,97.094,75.76,106.667,64,106.667z"/>
			<path d="M443.24,350.26c2.979-1.969,4.76-5.302,4.76-8.875V149.354c0-3.563-1.781-6.896-4.75-8.875l-32-21.354
				c-1.792-1.198-3.854-1.797-5.917-1.797v256.026c2.063,0,4.125-0.594,5.906-1.792L443.24,350.26z"/>
			<path d="M379.24,371.594c2.979-1.969,4.76-5.302,4.76-8.875V128.021c0-3.563-1.781-6.896-4.75-8.875l-32-21.354
				c-1.792-1.198-3.854-1.797-5.917-1.797v298.693c2.063,0,4.125-0.594,5.906-1.792L379.24,371.594z"/>
			<path d="M315.24,392.896c2.979-1.969,4.76-5.302,4.76-8.875V106.688c0-3.563-1.781-6.896-4.75-8.875l-32-21.354
				c-1.792-1.198-3.854-1.797-5.917-1.797V415.99c2.063,0,4.125-0.594,5.906-1.792L315.24,392.896z"/>
			<path d="M213.333,435.344c0,0.652-0.191,1.264-0.228,1.91c0.079,0.001,0.148,0.069,0.228,0.069c2.063,0,4.125-0.594,5.906-1.792
				l32-21.302c2.979-1.969,4.76-5.302,4.76-8.875V85.375c0-3.563-1.781-6.896-4.75-8.875l-32-21.354
				c-1.862-1.245-4.007-1.775-6.15-1.727c0.039,0.661,0.233,1.288,0.233,1.956V435.344z"/>
		</g>
	</g>
</g>
<g>
</g>
<g>
</g>
<g>
</g>
<g>
</g>
<g>
</g>
<g>
</g>
<g>
</g>
<g>
</g>
<g>
</g>
<g>
</g>
<g>
</g>
<g>
</g>
<g>
</g>
<g>
</g>
<g>
</g>
</svg>
