<?xml version="1.0" encoding="iso-8859-1"?>
<!-- Generator: Adobe Illustrator 19.0.0, SVG Export Plug-In . SVG Version: 6.00 Build 0)  -->
<svg fill='#eeeeee' version="1.1" id="Capa_1" xmlns="http://www.w3.org/2000/svg" xmlns:xlink="http://www.w3.org/1999/xlink" x="0px" y="0px"
	 viewBox="0 0 512 512" style="enable-background:new 0 0 512 512;" xml:space="preserve">
<g>
	<g>
		<g>
			<path d="M192,84.354V448h213.333V84.354C378.396,71.375,339.99,64,298.667,64C257.344,64,218.938,71.375,192,84.354z
				 M384,170.667C384,217.719,345.719,256,298.667,256C345.719,256,384,294.281,384,341.333c0,47.052-38.281,85.333-85.333,85.333
				c-47.052,0-85.333-38.281-85.333-85.333c0-47.052,38.281-85.333,85.333-85.333c-47.052,0-85.333-38.281-85.333-85.333
				c0-47.052,38.281-85.333,85.333-85.333C345.719,85.333,384,123.615,384,170.667z"/>
			<path d="M234.667,170.667c0,35.292,28.708,64,64,64c35.292,0,64-28.708,64-64c0-35.292-28.708-64-64-64
				C263.375,106.667,234.667,135.375,234.667,170.667z M309.333,138.667c0,5.896-4.771,10.667-10.667,10.667
				c-11.76,0-21.333,9.573-21.333,21.333c0,5.896-4.771,10.667-10.667,10.667c-5.896,0-10.667-4.771-10.667-10.667
				C256,147.135,275.135,128,298.667,128C304.563,128,309.333,132.771,309.333,138.667z"/>
			<path d="M298.667,405.333c35.292,0,64-28.708,64-64c0-35.292-28.708-64-64-64c-35.292,0-64,28.708-64,64
				C234.667,376.625,263.375,405.333,298.667,405.333z M298.667,298.667c5.896,0,10.667,4.771,10.667,10.667
				c0,5.896-4.771,10.667-10.667,10.667c-11.76,0-21.333,9.573-21.333,21.333c0,5.896-4.771,10.667-10.667,10.667
				c-5.896,0-10.667-4.771-10.667-10.667C256,317.802,275.135,298.667,298.667,298.667z"/>
			<path d="M480,362.667h-10.667v-320C469.333,19.135,450.198,0,426.667,0h-256C147.135,0,128,19.135,128,42.667v256h-10.667
				c-5.896,0-10.667,4.771-10.667,10.667v32H85.333v-128H96c5.896,0,10.667-4.771,10.667-10.667c0-5.896-4.771-10.667-10.667-10.667
				H32c-5.896,0-10.667,4.771-10.667,10.667c0,5.896,4.771,10.667,10.667,10.667h32V352c0,5.896,4.771,10.667,10.667,10.667h32v32
				c0,5.896,4.771,10.667,10.667,10.667H128v64C128,492.865,147.135,512,170.667,512h256c23.531,0,42.667-19.135,42.667-42.667
				v-42.667H480c5.896,0,10.667-4.771,10.667-10.667v-42.667C490.667,367.438,485.896,362.667,480,362.667z M426.667,458.667
				c0,5.896-4.771,10.667-10.667,10.667H181.333c-5.896,0-10.667-4.771-10.667-10.667V77.833c0-3.906,2.135-7.5,5.563-9.365
				c30.104-16.396,74.729-25.802,122.438-25.802c47.708,0,92.333,9.406,122.438,25.802c3.427,1.865,5.563,5.458,5.563,9.365V458.667
				z"/>
		</g>
	</g>
</g>
<g>
</g>
<g>
</g>
<g>
</g>
<g>
</g>
<g>
</g>
<g>
</g>
<g>
</g>
<g>
</g>
<g>
</g>
<g>
</g>
<g>
</g>
<g>
</g>
<g>
</g>
<g>
</g>
<g>
</g>
</svg>
