<?xml version="1.0" encoding="iso-8859-1"?>
<!-- Generator: Adobe Illustrator 19.0.0, SVG Export Plug-In . SVG Version: 6.00 Build 0)  -->
<svg fill='#eeeeee' version="1.1" id="Capa_1" xmlns="http://www.w3.org/2000/svg" xmlns:xlink="http://www.w3.org/1999/xlink" x="0px" y="0px"
	 viewBox="0 0 512 512" style="enable-background:new 0 0 512 512;" xml:space="preserve">
<g>
	<g>
		<g>
			<path d="M469.333,170.667H448v-21.333h10.667c5.896,0,10.667-4.771,10.667-10.667c0-5.896-4.771-10.667-10.667-10.667H416
				c-5.896,0-10.667,4.771-10.667,10.667c0,5.896,4.771,10.667,10.667,10.667h10.667v21.333H213.333
				c-23.531,0-42.667,19.135-42.667,42.667v85.333H160c-5.896,0-10.667,4.771-10.667,10.667V320H128V186.318
				c27.549-9.908,49.247-32.091,58.621-59.98c1.603,0.962,3.372,1.663,5.379,1.663c5.896,0,10.667-4.771,10.667-10.667
				c0-23.531,19.135-42.667,42.667-42.667C251.229,74.667,256,69.896,256,64s-4.771-10.667-10.667-10.667
				c-23.531,0-42.667-19.135-42.667-42.667C202.667,4.771,197.896,0,192,0s-10.667,4.771-10.667,10.667
				c0,10.215-3.754,19.475-9.76,26.827C153.986,15.043,126.66,0,96,0C43.063,0,0,43.063,0,96c0,41.663,26.833,76.85,64,90.103
				v208.564c0,17.646,14.354,32,32,32s32-14.354,32-32V384h21.333v10.667c0,5.896,4.771,10.667,10.667,10.667h10.667v64
				c0,23.531,19.135,42.667,42.667,42.667h256C492.865,512,512,492.865,512,469.333v-256
				C512,189.802,492.865,170.667,469.333,170.667z M192,46.01c4.74,7.125,10.865,13.25,17.99,17.99
				c-7.125,4.74-13.25,10.865-17.99,17.99c-4.74-7.125-10.865-13.25-17.99-17.99C181.135,59.26,187.26,53.135,192,46.01z
				 M96,149.333c-29.406,0-53.333-23.927-53.333-53.333S66.594,42.667,96,42.667c13.591,0,25.876,5.266,35.305,13.667
				C129.283,58.273,128,60.973,128,64c0,5.896,4.771,10.667,10.667,10.667c2.246,0,4.353,0.479,6.492,0.849
				c2.547,6.232,4.174,13.378,4.174,20.484C149.333,125.406,125.406,149.333,96,149.333z M341.333,469.333
				c-70.583,0-128-57.417-128-128s57.417-128,128-128s128,57.417,128,128S411.917,469.333,341.333,469.333z"/>
			<path d="M341.333,256C294.281,256,256,294.281,256,341.333c0,47.052,38.281,85.333,85.333,85.333
				c47.052,0,85.333-38.281,85.333-85.333C426.667,294.281,388.385,256,341.333,256z M341.333,384
				c-23.531,0-42.667-19.135-42.667-42.667c0-23.531,19.135-42.667,42.667-42.667c23.531,0,42.667,19.135,42.667,42.667
				C384,364.865,364.865,384,341.333,384z"/>
		</g>
	</g>
</g>
<g>
</g>
<g>
</g>
<g>
</g>
<g>
</g>
<g>
</g>
<g>
</g>
<g>
</g>
<g>
</g>
<g>
</g>
<g>
</g>
<g>
</g>
<g>
</g>
<g>
</g>
<g>
</g>
<g>
</g>
</svg>
