<?xml version="1.0" encoding="iso-8859-1"?>
<!-- Generator: Adobe Illustrator 19.0.0, SVG Export Plug-In . SVG Version: 6.00 Build 0)  -->
<svg fill='#eeeeee' version="1.1" id="Capa_1" xmlns="http://www.w3.org/2000/svg" xmlns:xlink="http://www.w3.org/1999/xlink" x="0px" y="0px"
	 viewBox="0 0 512.005 512.005" style="enable-background:new 0 0 512.005 512.005;" xml:space="preserve">
<g>
	<g>
		<path d="M470.295,137.605c12.314-9.779,20.374-24.695,20.374-41.603v-12.5c0-16.365,6.635-32.385,18.208-43.958
			c3.052-3.052,3.969-7.635,2.313-11.625c-1.646-3.99-5.542-6.583-9.854-6.583h-128c-4.313,0-8.208,2.594-9.854,6.583
			c-1.656,3.99-0.74,8.573,2.313,11.625c11.573,11.573,18.208,27.594,18.208,43.958v12.5c0,15.163,6.432,28.788,16.626,38.508
			c-13.878,5.895-26.073,15.632-34.908,28.68c-0.323,0.344-0.635,0.698-0.917,1.083c-18.984,25.328-39.539,41.608-57.47,52.074
			c1.174-4.392,2.001-8.921,2.001-13.678v-12.5c0-16.365,6.635-32.385,18.208-43.958c3.052-3.052,3.969-7.635,2.313-11.625
			c-1.646-3.99-5.542-6.583-9.854-6.583h-128c-4.313,0-8.208,2.594-9.854,6.583c-1.656,3.99-0.74,8.573,2.313,11.625
			c11.573,11.573,18.208,27.594,18.208,43.958v12.5c0,4.664,0.793,9.109,1.923,13.424c-18.021-10.49-38.577-26.737-57.392-51.82
			c-0.271-0.375-0.573-0.719-0.896-1.042c-8.829-13.069-21.03-22.827-34.914-28.732c10.186-9.719,16.612-23.341,16.612-38.497v-12.5
			c0-16.365,6.635-32.385,18.208-43.958c3.052-3.052,3.969-7.635,2.313-11.625c-1.646-3.99-5.542-6.583-9.854-6.583h-128
			c-4.313,0-8.208,2.594-9.854,6.583c-1.656,3.99-0.74,8.573,2.313,11.625C14.7,51.117,21.336,67.138,21.336,83.502v12.5
			c0,16.908,8.06,31.824,20.374,41.603C20.935,148.897,5.656,169.275,1.336,193.2c-4.281,23.75,2.01,47.833,17.26,66.083
			c15.26,18.25,37.635,28.719,61.875,28.719c22.125-0.125,43.542-12.417,57.292-32.865l9.76-14.51
			c3.281-4.896,1.99-11.521-2.896-14.813c-4.906-3.281-11.521-1.979-14.813,2.896l-9.76,14.521
			c-9.802,14.583-24.646,23.354-40.052,23.438c-17.427,0-33.844-7.677-45.031-21.073c-11.354-13.573-15.844-30.844-12.635-48.604
			c4.125-22.906,22.927-42.021,45.708-46.479c24.094-4.771,48.292,5.417,61.406,25.906c0.49,0.771,1.083,1.458,1.75,2.063
			c32.038,42.066,68.701,61.385,92.802,70.172v178.016h-33.188c-34.635,0-62.813,23.927-62.813,53.333
			c0,5.896,4.771,10.667,10.667,10.667h234.667c5.896,0,10.667-4.771,10.667-10.667c0-29.406-28.177-53.333-62.813-53.333h-33.188
			v-177.76c25.224-8.984,60.703-28.263,92.719-70.323c0.698-0.625,1.323-1.354,1.833-2.167
			c13.115-20.458,37.229-30.583,61.406-25.906c22.781,4.458,41.583,23.573,45.708,46.479c3.208,17.76-1.281,35.031-12.635,48.604
			c-11.188,13.396-27.604,21.073-45.375,21.073c-15.063-0.083-29.906-8.854-39.708-23.448l-9.76-14.51
			c-3.302-4.875-9.906-6.208-14.813-2.896c-4.885,3.292-6.177,9.917-2.896,14.813l9.76,14.5c13.75,20.458,35.167,32.75,57.76,32.875
			c23.771,0,46.146-10.469,61.406-28.719c15.25-18.25,21.542-42.333,17.26-66.083C506.349,169.275,491.07,148.897,470.295,137.605z"
			/>
	</g>
</g>
<g>
</g>
<g>
</g>
<g>
</g>
<g>
</g>
<g>
</g>
<g>
</g>
<g>
</g>
<g>
</g>
<g>
</g>
<g>
</g>
<g>
</g>
<g>
</g>
<g>
</g>
<g>
</g>
<g>
</g>
</svg>
