<?xml version="1.0" encoding="iso-8859-1"?>
<!-- Generator: Adobe Illustrator 19.0.0, SVG Export Plug-In . SVG Version: 6.00 Build 0)  -->
<svg fill='#eeeeee' version="1.1" id="Capa_1" xmlns="http://www.w3.org/2000/svg" xmlns:xlink="http://www.w3.org/1999/xlink" x="0px" y="0px"
	 viewBox="0 0 512 512" style="enable-background:new 0 0 512 512;" xml:space="preserve">
<g>
	<g>
		<path d="M510.686,374.528c-5.75-31.844-30.907-57.417-62.607-63.625c-32.137-6.229-64.242,6.875-82.347,33.615
			c-0.458,0.479-0.885,1-1.26,1.563c-46.95,70.43-98.521,80.056-119.117,80.879c0-0.115-0.013-0.18-0.013-0.296
			c0-25.823,7.573-35.125,7.542-35.125c0.098-0.098,0.094-0.249,0.186-0.349c1.046-0.832,2.203-1.49,3.199-2.391
			c13.396-12.115,21.074-29.417,21.074-47.469v-23.167c0-16.365,6.636-32.385,18.209-43.958c3.052-3.052,3.969-7.635,2.313-11.625
			c-1.646-3.99-5.542-6.583-9.855-6.583H256V117.33c0-5.896-4.761-10.667-10.657-10.667h-21.334v-1.46
			c18.352-4.6,32.001-20.57,32.001-39.686c0-13.115-8.761-22.802-15.803-30.594c-2.646-2.927-5.302-5.802-7.313-8.833
			c-7.281-10.948-9.177-17.927-9.177-17.927v0.01c-0.948-3.917-4.011-6.969-7.927-7.896c-1.239-0.283-2.496-0.344-3.718-0.196
			c-2.639,0.319-5.113,1.609-6.887,3.717c-8.104,9.615-34.512,42.49-34.512,61.719c0,19.116,13.649,35.086,32.001,39.686v1.46
			H181.34c-5.896,0-10.667,4.771-10.667,10.667v138.667h-32.001c-4.313,0-8.209,2.594-9.855,6.583
			c-1.656,3.99-0.74,8.573,2.313,11.625c11.573,11.573,18.209,27.594,18.209,43.958v20.125c0,20.626,9.283,39.361,23.643,51.775
			c0.25,0.374,0.259,0.862,0.556,1.204c0.083,0.094,7.802,9.323,7.802,35.396c0,13.82-2.09,19.349-3.16,21.333H10.667
			C4.771,447.996,0,452.767,0,458.663c0,29.406,23.928,53.333,53.335,53.333h320.012c26.056,0,47.726-18.811,52.346-43.547
			c2.121,0.228,4.175,0.868,6.323,0.88c23.772,0,46.148-10.469,61.409-28.719C508.676,422.361,514.967,398.278,510.686,374.528z
			 M477.031,426.923c-11.188,13.396-27.604,21.073-45.375,21.073c-15.063-0.083-29.906-8.854-39.708-23.448l-9.76-14.51
			c-3.292-4.885-9.896-6.219-14.813-2.896c-4.885,3.292-6.177,9.917-2.896,14.813l9.76,14.5c2.885,4.293,6.276,8.005,9.777,11.542
			H250.082c27.095-2.089,82.038-15.938,131.043-88.458c0.531-0.542,1.01-1.135,1.427-1.792
			c13.115-20.458,37.229-30.583,61.406-25.906c22.781,4.458,41.583,23.573,45.708,46.479
			C492.875,396.08,488.385,413.351,477.031,426.923z"/>
	</g>
</g>
<g>
</g>
<g>
</g>
<g>
</g>
<g>
</g>
<g>
</g>
<g>
</g>
<g>
</g>
<g>
</g>
<g>
</g>
<g>
</g>
<g>
</g>
<g>
</g>
<g>
</g>
<g>
</g>
<g>
</g>
</svg>
