<?xml version="1.0" encoding="iso-8859-1"?>
<!-- Generator: Adobe Illustrator 19.0.0, SVG Export Plug-In . SVG Version: 6.00 Build 0)  -->
<svg fill='#eeeeee' version="1.1" id="Capa_1" xmlns="http://www.w3.org/2000/svg" xmlns:xlink="http://www.w3.org/1999/xlink" x="0px" y="0px"
	 viewBox="0 0 512.006 512.006" style="enable-background:new 0 0 512.006 512.006;" xml:space="preserve">
<g>
	<g>
		<path d="M489.545,453.896c-1.643-3.277-4.902-5.221-8.496-5.599c2.042-10.969,6.604-16.633,6.767-16.828
			c1.833-1.969,2.854-4.563,2.854-7.26c0-3.677-0.427-7.323-1.26-10.813c-4.188-17.708-5.177-32.875-3.021-46.385
			c2.802-17.604,4.281-37.552,4.281-57.677s-1.479-40.073-4.281-57.677c-2.156-13.51-1.167-28.677,3.021-46.375
			c0.833-3.5,1.26-7.146,1.26-10.823c0-2.573-1.052-5.198-2.74-7.146c-0.253-0.285-4.835-5.97-6.88-16.943
			c3.592-0.378,6.852-2.322,8.495-5.599l21.333-42.667c1.656-3.302,1.479-7.229-0.469-10.375c-1.948-3.146-5.375-5.063-9.073-5.063
			h-32V96c0-4.292-2.573-8.167-6.531-9.833L260.138,0.834c-2.646-1.104-5.625-1.104-8.271,0L49.201,86.167
			C45.243,87.834,42.67,91.709,42.67,96v10.667h-32c-3.698,0-7.125,1.917-9.073,5.063s-2.125,7.073-0.469,10.375l21.333,42.667
			c1.643,3.277,4.902,5.221,8.496,5.599c-2.04,10.969-6.604,16.633-6.767,16.828c-1.833,1.969-2.854,4.563-2.854,7.26
			c0,3.677,0.427,7.323,1.26,10.813c4.188,17.708,5.177,32.875,3.021,46.385c-2.802,17.604-4.281,37.552-4.281,57.677
			s1.479,40.073,4.281,57.677c2.156,13.51,1.167,28.677-3.021,46.375c-0.833,3.5-1.26,7.146-1.26,10.823
			c0,2.573,1.052,5.198,2.74,7.146c0.253,0.285,4.835,5.97,6.88,16.943c-3.592,0.378-6.852,2.322-8.495,5.599L1.128,496.563
			c-1.656,3.302-1.479,7.229,0.469,10.375C3.545,510.084,6.972,512,10.67,512h490.667c3.698,0,7.125-1.917,9.073-5.062
			c1.948-3.146,2.125-7.073,0.469-10.375L489.545,453.896z M97.079,448c2.066-10.793,6.576-16.337,6.737-16.531
			c1.833-1.969,2.854-4.563,2.854-7.26c0-3.677-0.427-7.323-1.26-10.813c-4.188-17.708-5.177-32.875-3.021-46.385
			c2.301-14.452,3.46-30.598,3.891-47.01h32.931c5.414,59.711,55.695,106.667,116.793,106.667S367.382,379.711,372.796,320h32.931
			c0.431,16.413,1.59,32.559,3.891,47.01c2.156,13.51,1.167,28.677-3.021,46.375c-0.833,3.5-1.26,7.146-1.26,10.823
			c0,2.573,1.052,5.198,2.74,7.146c0.25,0.283,4.779,5.848,6.85,16.646H97.079z M277.895,306.193
			c5.053,5.053,10.273,13.424,15.801,22.297c4.855,7.786,9.88,15.84,13.775,19.734c3.092,3.092,2.809,8.38-0.634,11.823
			c-3.443,3.441-8.73,3.725-11.822,0.634c-3.896-3.896-11.949-8.921-19.736-13.775c-8.872-5.527-17.244-10.749-22.297-15.802
			c-0.306-0.306-0.488-0.616-0.772-0.923c-8.098-1.867-17.54-9.738-17.54-27.244c0-9.635,2.698-22.594,5.563-36.323
			c2.51-12.052,5.104-24.521,5.104-31.948c0-5.896,4.771-10.667,10.667-10.667c5.896,0,10.667,4.771,10.667,10.667
			c0,7.427,2.594,19.896,5.104,31.948c2.865,13.729,5.563,26.688,5.563,36.323c0,0.945-0.156,1.724-0.21,2.613
			C277.382,305.791,277.64,305.938,277.895,306.193z M408.191,187.198c-1.833,1.969-2.854,4.563-2.854,7.26
			c0,3.677,0.427,7.323,1.26,10.813c4.188,17.708,5.177,32.875,3.021,46.385c-2.301,14.452-3.46,30.598-3.891,47.01h-32.931
			C367.382,238.956,317.101,192,256.003,192S144.624,238.956,139.21,298.667h-32.931c-0.431-16.413-1.59-32.559-3.891-47.01
			c-2.156-13.51-1.167-28.677,3.021-46.375c0.833-3.5,1.26-7.146,1.26-10.823c0-2.573-1.052-5.198-2.74-7.146
			c-0.25-0.283-4.779-5.848-6.85-16.646h317.848C412.861,181.459,408.352,187.004,408.191,187.198z"/>
	</g>
</g>
<g>
</g>
<g>
</g>
<g>
</g>
<g>
</g>
<g>
</g>
<g>
</g>
<g>
</g>
<g>
</g>
<g>
</g>
<g>
</g>
<g>
</g>
<g>
</g>
<g>
</g>
<g>
</g>
<g>
</g>
</svg>
