<?xml version="1.0" encoding="iso-8859-1"?>
<!-- Generator: Adobe Illustrator 19.0.0, SVG Export Plug-In . SVG Version: 6.00 Build 0)  -->
<svg fill='#eeeeee' version="1.1" id="Capa_1" xmlns="http://www.w3.org/2000/svg" xmlns:xlink="http://www.w3.org/1999/xlink" x="0px" y="0px"
	 viewBox="0 0 512 512" style="enable-background:new 0 0 512 512;" xml:space="preserve">
<g>
	<g>
		<path d="M437.333,448h-10.667V32c0-5.896-4.771-10.667-10.667-10.667h-21.333C388.771,21.333,384,26.104,384,32v10.66
			C357.099,20.874,315.828,0,256,0S154.901,20.874,128,42.66V32c0-5.896-4.771-10.667-10.667-10.667H96
			c-5.896,0-10.667,4.771-10.667,10.667v416H74.667C68.771,448,64,452.771,64,458.667v42.667C64,507.229,68.771,512,74.667,512
			h362.667c5.896,0,10.667-4.771,10.667-10.667v-42.667C448,452.771,443.229,448,437.333,448z M320,448H192V255.454
			c15.173,11.487,33.404,18.784,53.333,20.801v66.592c-18.352,4.77-32,21.326-32,41.152c0,23.531,19.135,42.667,42.667,42.667
			s42.667-19.135,42.667-42.667c0-19.827-13.648-36.383-32-41.152v-66.592c19.93-2.017,38.16-9.314,53.333-20.801V448z
			 M284.875,184.458c4.167,4.167,4.167,10.917,0,15.083c-2.083,2.083-4.813,3.125-7.542,3.125c-2.729,0-5.458-1.042-7.542-3.125
			l-21.333-21.333c-2-2-3.125-4.708-3.125-7.542v-53.333c0-5.896,4.771-10.667,10.667-10.667s10.667,4.771,10.667,10.667v48.917
			L284.875,184.458z M384,448h-42.667V234.007c13.227-17.764,21.333-39.542,21.333-63.34C362.667,111.854,314.813,64,256,64
			s-106.667,47.854-106.667,106.667c0,23.798,8.107,45.576,21.333,63.34V448H128V104.76c11.552-17.427,48.927-62.094,128-62.094
			c79.042,0,116.438,44.667,128,62.104V448z"/>
	</g>
</g>
<g>
</g>
<g>
</g>
<g>
</g>
<g>
</g>
<g>
</g>
<g>
</g>
<g>
</g>
<g>
</g>
<g>
</g>
<g>
</g>
<g>
</g>
<g>
</g>
<g>
</g>
<g>
</g>
<g>
</g>
</svg>
