<?xml version="1.0" encoding="iso-8859-1"?>
<!-- Generator: Adobe Illustrator 19.0.0, SVG Export Plug-In . SVG Version: 6.00 Build 0)  -->
<svg fill='#eeeeee' version="1.1" id="Capa_1" xmlns="http://www.w3.org/2000/svg" xmlns:xlink="http://www.w3.org/1999/xlink" x="0px" y="0px"
	 viewBox="0 0 469.333 469.333" style="enable-background:new 0 0 469.333 469.333;" xml:space="preserve">
<g>
	<g>
		<g>
			<path d="M121.375,0H98.021C79.271,0,64,15.385,64,34.302v20.219c0,29.396,6.875,58.865,19.875,85.229l8.292,16.771
				c9.479,19.177,14.5,40.667,14.5,62.146c0,17.375-4.667,34.417-13.479,49.281l-49.021,82.667
				c-2.354,3.948-1.896,8.948,1.104,12.417c2.729,3.156,68.021,77.635,165.083,105.875c0.979,0.292,1.979,0.427,2.979,0.427
				c2.292,0,4.542-0.729,6.396-2.135c2.688-2.01,4.271-5.177,4.271-8.531V50.344c0-2.74-1.063-5.375-2.958-7.365
				C195,15.667,158.666,0,121.375,0z M164.583,278.74l-25.188,134.337c-6.816-4.262-13.241-8.535-19.288-12.85l23.517-125.414
				c3.792-20.24,5.708-40.927,5.708-61.479c0-20.552-1.917-41.24-5.708-61.49L119.16,21.333h2.215
				c6.689,0,13.309,0.815,19.852,1.979l23.357,124.604c4.042,21.542,6.083,43.552,6.083,65.417
				C170.667,235.198,168.625,257.208,164.583,278.74z"/>
			<path d="M425.167,350.615l-49.021-82.667v-0.01c-8.813-14.854-13.479-31.896-13.479-49.271c0-21.479,5.021-42.969,14.5-62.146
				l8.292-16.781c13-26.354,19.875-55.823,19.875-85.219V34.302C405.333,15.385,390.063,0,371.313,0h-23.354
				c-37.292,0-73.625,15.667-99.667,42.979c-1.896,1.99-2.958,4.625-2.958,7.365v56.323c5.896,0,10.667,4.771,10.667,10.667
				c0,5.896-4.771,10.667-10.667,10.667v42.667c5.896,0,10.667,4.771,10.667,10.667c0,5.896-4.771,10.667-10.667,10.667v42.667
				c5.896,0,10.667,4.771,10.667,10.667c0,5.896-4.771,10.667-10.667,10.667v42.667c5.896,0,10.667,4.771,10.667,10.667
				c0,5.896-4.771,10.667-10.667,10.667v42.667c5.896,0,10.667,4.771,10.667,10.667S251.229,384,245.333,384v74.667
				c0,3.354,1.583,6.521,4.271,8.531c1.854,1.406,4.104,2.135,6.396,2.135c1,0,2-0.135,2.979-0.427
				c97.063-28.24,162.354-102.719,165.083-105.875C427.063,359.563,427.521,354.563,425.167,350.615z M325.708,274.823
				l23.828,125.227c-6.039,4.316-12.457,8.594-19.268,12.859L304.75,278.771c-4.042-21.563-6.083-43.573-6.083-65.437
				c0-21.865,2.042-43.875,6.083-65.406l23.393-124.619c6.531-1.16,13.139-1.975,19.815-1.975h2.253l-24.503,130.521
				c-3.792,20.24-5.708,40.927-5.708,61.479C320,233.885,321.917,254.573,325.708,274.823z"/>
		</g>
	</g>
</g>
<g>
</g>
<g>
</g>
<g>
</g>
<g>
</g>
<g>
</g>
<g>
</g>
<g>
</g>
<g>
</g>
<g>
</g>
<g>
</g>
<g>
</g>
<g>
</g>
<g>
</g>
<g>
</g>
<g>
</g>
</svg>
