<?xml version="1.0" encoding="iso-8859-1"?>
<!-- Generator: Adobe Illustrator 19.0.0, SVG Export Plug-In . SVG Version: 6.00 Build 0)  -->
<svg fill='#eeeeee' version="1.1" id="Capa_1" xmlns="http://www.w3.org/2000/svg" xmlns:xlink="http://www.w3.org/1999/xlink" x="0px" y="0px"
	 viewBox="0 0 512.005 512.005" style="enable-background:new 0 0 512.005 512.005;" xml:space="preserve">
<g>
	<g>
		<g>
			<path d="M443.487,129.953l-181.339-128c-3.667-2.604-8.625-2.604-12.292,0l-181.339,128c-4.813,3.406-5.958,10.052-2.563,14.875
				c3.375,4.813,10.104,5.938,14.855,2.563l7.077-4.996l40.299,211.611c0.958,5.031,5.354,8.667,10.479,8.667h74.669v65.965
				c-12.39,4.418-21.334,16.147-21.334,30.035c0,0.781,0.083,1.563,0.25,2.323c7.584,33.854,18.251,51.01,31.751,51.01
				c13.5,0,24.167-17.156,31.751-51.01c0.167-0.76,0.25-1.542,0.25-2.323c0-13.888-8.944-25.617-21.334-30.035v-65.965h42.668
				v23.298c-12.39,4.418-21.334,16.147-21.334,30.035c0,0.781,0.083,1.563,0.25,2.323c7.584,33.854,18.251,51.01,31.751,51.01
				c13.5,0,24.167-17.156,31.751-51.01c0.167-0.76,0.25-1.542,0.25-2.323c0-13.888-8.944-25.617-21.334-30.035v-23.298h74.669
				c5.125,0,9.521-3.635,10.479-8.667l40.299-211.611l7.077,4.996c1.854,1.313,4.021,1.948,6.146,1.948
				c3.333,0,6.646-1.573,8.709-4.51C449.446,140.005,448.3,133.359,443.487,129.953z M213.33,106.672
				c0-23.531,19.146-42.667,42.667-42.667c23.521,0,42.667,19.135,42.667,42.667v32c0,5.896-4.771,10.667-10.667,10.667h-64
				c-5.896,0-10.667-4.771-10.667-10.667V106.672z M255.997,320.005c-41.167,0-74.667-33.5-74.667-74.667s33.5-74.667,74.667-74.667
				c41.167,0,74.667,33.5,74.667,74.667S297.164,320.005,255.997,320.005z"/>
			<path d="M266.664,240.922v-16.917c0-5.896-4.771-10.667-10.667-10.667c-5.896,0-10.667,4.771-10.667,10.667v21.333
				c0,2.833,1.125,5.542,3.125,7.542l10.667,10.667c2.083,2.083,4.813,3.125,7.542,3.125c2.729,0,5.458-1.042,7.542-3.125
				c4.167-4.167,4.167-10.917,0-15.083L266.664,240.922z"/>
		</g>
	</g>
</g>
<g>
</g>
<g>
</g>
<g>
</g>
<g>
</g>
<g>
</g>
<g>
</g>
<g>
</g>
<g>
</g>
<g>
</g>
<g>
</g>
<g>
</g>
<g>
</g>
<g>
</g>
<g>
</g>
<g>
</g>
</svg>
