<?xml version="1.0" encoding="iso-8859-1"?>
<!-- Generator: Adobe Illustrator 19.0.0, SVG Export Plug-In . SVG Version: 6.00 Build 0)  -->
<svg fill='#eeeeee' version="1.1" id="Capa_1" xmlns="http://www.w3.org/2000/svg" xmlns:xlink="http://www.w3.org/1999/xlink" x="0px" y="0px"
	 viewBox="0 0 512 512" style="enable-background:new 0 0 512 512;" xml:space="preserve">
<g>
	<g>
		<path d="M480,106.667H362.667v-32C362.667,68.771,357.896,64,352,64H10.667C4.771,64,0,68.771,0,74.667V288
			c0,47.156,24.375,91.323,64,116.729v0.604C64,428.865,83.146,448,106.667,448H256c23.521,0,42.667-19.135,42.667-42.667v-0.604
			c21.719-13.926,38.63-33.598,49.684-56.198C358.883,369.466,380.342,384,405.333,384c17.646,0,32-14.354,32-32
			c0-17.646-14.354-32-32-32C464.146,320,512,272.146,512,213.333v-74.667C512,121.021,497.646,106.667,480,106.667z
			 M21.333,170.667V128c11.771,0,21.333,9.573,21.333,21.333C42.667,161.094,33.104,170.667,21.333,170.667z M64,320
			c-11.771,0-21.333-9.573-21.333-21.333c0-11.76,9.563-21.333,21.333-21.333s21.333,9.573,21.333,21.333
			C85.333,310.427,75.771,320,64,320z M85.333,192c0-11.76,9.563-21.333,21.333-21.333C118.438,170.667,128,180.24,128,192
			s-9.563,21.333-21.333,21.333C94.896,213.333,85.333,203.76,85.333,192z M128,384c-11.771,0-21.333-9.573-21.333-21.333
			s9.563-21.333,21.333-21.333s21.333,9.573,21.333,21.333S139.771,384,128,384z M128,106.667c-11.771,0-21.333-9.573-21.333-21.333
			h42.667C149.333,97.094,139.771,106.667,128,106.667z M192,298.667c-11.771,0-21.333-9.573-21.333-21.333
			c0-11.76,9.563-21.333,21.333-21.333s21.333,9.573,21.333,21.333C213.333,289.094,203.771,298.667,192,298.667z M213.333,149.333
			C201.563,149.333,192,139.76,192,128s9.563-21.333,21.333-21.333c11.771,0,21.333,9.573,21.333,21.333
			S225.104,149.333,213.333,149.333z M256,384c-11.771,0-21.333-9.573-21.333-21.333s9.563-21.333,21.333-21.333
			s21.333,9.573,21.333,21.333S267.771,384,256,384z M256,234.667c-11.771,0-21.333-9.573-21.333-21.333
			c0-11.76,9.563-21.333,21.333-21.333s21.333,9.573,21.333,21.333C277.333,225.094,267.771,234.667,256,234.667z M320,298.667
			c-11.771,0-21.333-9.573-21.333-21.333c0-11.76,9.563-21.333,21.333-21.333s21.333,9.573,21.333,21.333
			C341.333,289.094,331.771,298.667,320,298.667z M341.333,170.667c-11.771,0-21.333-9.573-21.333-21.333
			c0-11.76,9.563-21.333,21.333-21.333V170.667z M448,213.333C448,236.865,428.854,256,405.333,256
			c-16.451,0-31.318,6.411-42.667,16.646V170.667H448V213.333z"/>
	</g>
</g>
<g>
</g>
<g>
</g>
<g>
</g>
<g>
</g>
<g>
</g>
<g>
</g>
<g>
</g>
<g>
</g>
<g>
</g>
<g>
</g>
<g>
</g>
<g>
</g>
<g>
</g>
<g>
</g>
<g>
</g>
</svg>
