<?xml version="1.0" encoding="iso-8859-1"?>
<!-- Generator: Adobe Illustrator 19.0.0, SVG Export Plug-In . SVG Version: 6.00 Build 0)  -->
<svg fill='#eeeeee' version="1.1" id="Capa_1" xmlns="http://www.w3.org/2000/svg" xmlns:xlink="http://www.w3.org/1999/xlink" x="0px" y="0px"
	 viewBox="0 0 512 512" style="enable-background:new 0 0 512 512;" xml:space="preserve">
<g>
	<g>
		<g>
			<path d="M504.563,262.802L475,129.833c-5.833-26.198-28.646-44.5-55.479-44.5c-31.354,0-56.854,25.5-56.854,56.844v7.156h42.667
				v-7.156c0-7.813,6.375-14.177,14.188-14.177c6.688,0,12.375,4.573,13.833,11.104l22.865,102.892
				c-19.035-17.634-44.288-28.663-72.219-28.663c-44.129,0-82.083,26.944-98.288,65.241c-7.677-6.759-17.357-11.908-29.712-11.908
				c-12.388,0-22.029,5.191-29.688,11.991c-16.185-38.34-54.154-65.324-98.313-65.324c-27.932,0-53.186,11.029-72.221,28.664
				l22.846-102.872C80.104,132.573,85.792,128,92.479,128c7.813,0,14.188,6.365,14.188,14.177v7.156h42.667v-7.156
				c0-31.344-25.5-56.844-56.854-56.844c-26.833,0-49.646,18.302-55.5,44.521L7.438,262.813C2.5,285.083,0,307.906,0,330.667
				C0,342.448,9.542,352,21.333,352h5.447c13.689,43.121,53.629,74.667,101.22,74.667c52.215,0,95.599-37.779,104.719-87.398
				c5.249-2.309,9.547-6.638,11.51-12.518c2.437-7.271,8.833-16.708,11.708-17.427c2.771,0.656,9,9.281,11.833,17.427
				c1.954,5.861,6.275,10.086,11.5,12.409c9.078,49.671,52.478,87.508,104.729,87.508c47.591,0,87.531-31.546,101.22-74.667h5.447
				c11.792,0,21.333-9.552,21.333-21.333C512,307.906,509.5,285.083,504.563,262.802z M128,405.333
				c-47.063,0-85.333-38.281-85.333-85.333c0-47.052,38.271-85.333,85.333-85.333s85.333,38.281,85.333,85.333
				C213.333,367.052,175.063,405.333,128,405.333z M384,405.333c-47.063,0-85.333-38.281-85.333-85.333
				c0-47.052,38.271-85.333,85.333-85.333s85.333,38.281,85.333,85.333C469.333,367.052,431.063,405.333,384,405.333z"/>
			<path d="M128,256c-35.292,0-64,28.708-64,64c0,5.896,4.771,10.667,10.667,10.667c5.896,0,10.667-4.771,10.667-10.667
				c0-23.531,19.146-42.667,42.667-42.667c5.896,0,10.667-4.771,10.667-10.667C138.667,260.771,133.896,256,128,256z"/>
			<path d="M384,256c-35.292,0-64,28.708-64,64c0,5.896,4.771,10.667,10.667,10.667c5.896,0,10.667-4.771,10.667-10.667
				c0-23.531,19.146-42.667,42.667-42.667c5.896,0,10.667-4.771,10.667-10.667C394.667,260.771,389.896,256,384,256z"/>
		</g>
	</g>
</g>
<g>
</g>
<g>
</g>
<g>
</g>
<g>
</g>
<g>
</g>
<g>
</g>
<g>
</g>
<g>
</g>
<g>
</g>
<g>
</g>
<g>
</g>
<g>
</g>
<g>
</g>
<g>
</g>
<g>
</g>
</svg>
