<?xml version="1.0" encoding="iso-8859-1"?>
<!-- Generator: Adobe Illustrator 19.0.0, SVG Export Plug-In . SVG Version: 6.00 Build 0)  -->
<svg fill='#eeeeee' version="1.1" id="Capa_1" xmlns="http://www.w3.org/2000/svg" xmlns:xlink="http://www.w3.org/1999/xlink" x="0px" y="0px"
	 viewBox="0 0 512 512" style="enable-background:new 0 0 512 512;" xml:space="preserve">
<g>
	<g>
		<g>
			<path d="M405.336,234.667h-43.745c-5.385-47.869-45.637-85.333-94.922-85.333v-42.667c5.896,0,10.667-4.771,10.667-10.667
				s-4.771-10.667-10.667-10.667V74.667c0-5.896-4.771-10.667-10.667-10.667s-10.667,4.771-10.667,10.667v10.667H106.669V64
				c4.896,0,9.167-3.333,10.354-8.083L127.69,13.25c0.792-3.188,0.083-6.563-1.938-9.146C123.731,1.51,120.627,0,117.336,0H74.669
				c-3.292,0-6.396,1.51-8.417,4.104c-2.021,2.583-2.729,5.958-1.938,9.146l10.667,42.667C76.169,60.667,80.44,64,85.336,64v32
				c0,5.896,4.771,10.667,10.667,10.667h149.333v42.667c-49.285,0-89.536,37.465-94.922,85.333h-43.745
				c-23.521,0-42.667,19.135-42.667,42.667V448c0,23.531,19.146,42.667,42.667,42.667v10.667c0,5.896,4.771,10.667,10.667,10.667
				h10.667c4.042,0,7.729-2.281,9.542-5.896l7.719-15.438h221.479l7.719,15.438c1.813,3.615,5.5,5.896,9.542,5.896h10.667
				c5.896,0,10.667-4.771,10.667-10.667v-10.667c23.521,0,42.667-19.135,42.667-42.667V277.333
				C448.002,253.802,428.856,234.667,405.336,234.667z M384.002,437.333c0,5.896-4.771,10.667-10.667,10.667H138.669
				c-5.896,0-10.667-4.771-10.667-10.667V330.667c0-5.896,4.771-10.667,10.667-10.667h234.667c5.896,0,10.667,4.771,10.667,10.667
				V437.333z"/>
			<circle cx="256" cy="384" r="21.333"/>
		</g>
	</g>
</g>
<g>
</g>
<g>
</g>
<g>
</g>
<g>
</g>
<g>
</g>
<g>
</g>
<g>
</g>
<g>
</g>
<g>
</g>
<g>
</g>
<g>
</g>
<g>
</g>
<g>
</g>
<g>
</g>
<g>
</g>
</svg>
