<?xml version="1.0" encoding="iso-8859-1"?>
<!-- Generator: Adobe Illustrator 19.0.0, SVG Export Plug-In . SVG Version: 6.00 Build 0)  -->
<svg fill='#eeeeee' version="1.1" id="Capa_1" xmlns="http://www.w3.org/2000/svg" xmlns:xlink="http://www.w3.org/1999/xlink" x="0px" y="0px"
	 viewBox="0 0 512 512" style="enable-background:new 0 0 512 512;" xml:space="preserve">
<g>
	<g>
		<path d="M468.845,385.03c-5.023-83.734-74.535-150.363-159.512-150.363H256v-12.948c0-4.625,3.76-8.385,8.385-8.385
			c37.5,0,70.156-26.813,75.958-62.375c3.542-21.844-2.583-43.958-16.792-60.667C309.333,73.583,288.594,64,266.667,64H76.948
			C39.438,64,6.792,90.813,1,126.354c-3.552,21.854,2.563,43.958,16.781,60.667C32,203.74,52.729,213.333,74.667,213.333h2.281
			c4.625,0,8.385,3.76,8.385,8.385v12.948H64c-23.531,0-42.667,19.135-42.667,42.667V384H10.667C4.771,384,0,388.771,0,394.667
			v42.667C0,443.229,4.771,448,10.667,448h490.667c5.896,0,10.667-4.771,10.667-10.667C512,411.413,493.392,389.801,468.845,385.03z
			 M96,362.667c-5.891,0-10.667-4.776-10.667-10.667c0-5.892,4.776-10.667,10.667-10.667s10.667,4.775,10.667,10.667
			C106.667,357.891,101.891,362.667,96,362.667z M160,362.667c-5.891,0-10.667-4.776-10.667-10.667
			c0-5.892,4.776-10.667,10.667-10.667s10.667,4.775,10.667,10.667C170.667,357.891,165.891,362.667,160,362.667z M192,221.719
			v12.948h-42.667v-12.948c0-39.917-32.469-72.385-72.385-72.385h-2.281c-3.135,0-6.104-1.375-8.135-3.76
			c-2.094-2.469-2.906-5.563-2.365-8.927c0.677-4.177,5.979-8.646,12.781-8.646h189.719c3.135,0,6.104,1.375,8.135,3.76
			c2.094,2.469,2.906,5.563,2.365,8.927c-0.677,4.177-5.979,8.646-12.781,8.646C224.469,149.333,192,181.802,192,221.719z
			 M224,362.667c-5.891,0-10.667-4.776-10.667-10.667c0-5.892,4.776-10.667,10.667-10.667s10.667,4.775,10.667,10.667
			C234.667,357.891,229.891,362.667,224,362.667z"/>
	</g>
</g>
<g>
</g>
<g>
</g>
<g>
</g>
<g>
</g>
<g>
</g>
<g>
</g>
<g>
</g>
<g>
</g>
<g>
</g>
<g>
</g>
<g>
</g>
<g>
</g>
<g>
</g>
<g>
</g>
<g>
</g>
</svg>
