<?xml version="1.0" encoding="iso-8859-1"?>
<!-- Generator: Adobe Illustrator 19.0.0, SVG Export Plug-In . SVG Version: 6.00 Build 0)  -->
<svg fill='#eeeeee' version="1.1" id="Capa_1" xmlns="http://www.w3.org/2000/svg" xmlns:xlink="http://www.w3.org/1999/xlink" x="0px" y="0px"
	 viewBox="0 0 469.333 469.333" style="enable-background:new 0 0 469.333 469.333;" xml:space="preserve">
<g>
	<g>
		<path d="M330.667,192h-53.333v-21.333c35.292,0,64-28.708,64-64V85.333H352c17.646,0,32-14.354,32-32c0-17.646-14.354-32-32-32H32
			c-17.646,0-32,14.354-32,32c0,17.646,14.354,32,32,32h10.667v21.333c0,35.292,28.708,64,64,64V192h-64
			C19.135,192,0,211.135,0,234.667v202.667C0,443.229,4.771,448,10.667,448h448c5.896,0,10.667-4.771,10.667-10.667V330.667
			C469.333,254.208,407.125,192,330.667,192z M106.667,85.333h170.667v21.333c-35.292,0-64,28.708-64,64V192h-42.667v-21.333
			c0-35.292-28.708-64-64-64V85.333z M211.74,400.271c-1.948,3.146-5.375,5.063-9.073,5.063h-128c-3.698,0-7.125-1.917-9.073-5.063
			c-1.948-3.146-2.125-7.073-0.469-10.375c0.99-1.979,24.844-48.563,73.542-48.563s72.552,46.583,73.542,48.563
			C213.865,393.198,213.687,397.125,211.74,400.271z M403.74,400.271c-1.948,3.146-5.375,5.063-9.073,5.063h-128
			c-3.698,0-7.125-1.917-9.073-5.063c-1.948-3.146-2.125-7.073-0.469-10.375c0.99-1.979,24.844-48.563,73.542-48.563
			s72.552,46.583,73.542,48.563C405.865,393.198,405.688,397.125,403.74,400.271z M394.667,298.667
			c-5.896,0-10.667-4.771-10.667-10.667c0-5.885-4.781-10.667-10.667-10.667s-10.667,4.781-10.667,10.667
			c0,5.896-4.771,10.667-10.667,10.667h-32c-5.896,0-10.667-4.771-10.667-10.667c0-5.885-4.781-10.667-10.667-10.667
			S288,282.115,288,288c0,5.896-4.771,10.667-10.667,10.667h-32c-5.896,0-10.667-4.771-10.667-10.667
			c0-5.885-4.781-10.667-10.667-10.667c-5.885,0-10.667,4.781-10.667,10.667c0,5.896-4.771,10.667-10.667,10.667h-32
			c-5.896,0-10.667-4.771-10.667-10.667c0-5.885-4.781-10.667-10.667-10.667c-5.885,0-10.667,4.781-10.667,10.667
			c0,5.896-4.771,10.667-10.667,10.667H96c-5.896,0-10.667-4.771-10.667-10.667c0-5.885-4.781-10.667-10.667-10.667
			S64,282.115,64,288c0,5.896-4.771,10.667-10.667,10.667h-32v-21.333H44.49C48.896,264.917,60.76,256,74.667,256
			s25.771,8.917,30.177,21.333h14.313C123.562,264.917,135.427,256,149.333,256s25.771,8.917,30.177,21.333h14.313
			C198.229,264.917,210.094,256,224,256s25.771,8.917,30.177,21.333h14.312C272.896,264.917,284.76,256,298.667,256
			s25.771,8.917,30.177,21.333h14.313C347.563,264.917,359.427,256,373.333,256s25.771,8.917,30.177,21.333h31.536
			c3.469,6.763,6.29,13.893,8.405,21.333H394.667z"/>
	</g>
</g>
<g>
</g>
<g>
</g>
<g>
</g>
<g>
</g>
<g>
</g>
<g>
</g>
<g>
</g>
<g>
</g>
<g>
</g>
<g>
</g>
<g>
</g>
<g>
</g>
<g>
</g>
<g>
</g>
<g>
</g>
</svg>
