<?xml version="1.0" encoding="iso-8859-1"?>
<!-- Generator: Adobe Illustrator 19.0.0, SVG Export Plug-In . SVG Version: 6.00 Build 0)  -->
<svg fill='#eeeeee' version="1.1" id="Capa_1" xmlns="http://www.w3.org/2000/svg" xmlns:xlink="http://www.w3.org/1999/xlink" x="0px" y="0px"
	 viewBox="0 0 512 512" style="enable-background:new 0 0 512 512;" xml:space="preserve">
<g>
	<g>
		<path d="M330.667,234.667c41.167,0,74.667-33.5,74.667-74.667s-33.5-74.667-74.667-74.667c-0.271,0-0.531,0-0.802,0.01
			c0.531-3.552,0.802-7.115,0.802-10.677C330.667,33.5,297.167,0,256,0s-74.667,33.5-74.667,74.667
			c0,3.563,0.271,7.125,0.802,10.677c-0.271-0.01-0.531-0.01-0.802-0.01c-41.167,0-74.667,33.5-74.667,74.667
			s33.5,74.667,74.667,74.667c15.51,0,30.333-4.792,42.667-13.406V480c0,17.646,14.354,32,32,32s32-14.354,32-32v-10.667h10.667V480
			c0,5.896,4.771,10.667,10.667,10.667H352c5.896,0,10.667-4.771,10.667-10.667V373.333c0-5.896-4.771-10.667-10.667-10.667h-42.667
			c-5.896,0-10.667,4.771-10.667,10.667V384H288V221.26C300.333,229.875,315.156,234.667,330.667,234.667z"/>
	</g>
</g>
<g>
</g>
<g>
</g>
<g>
</g>
<g>
</g>
<g>
</g>
<g>
</g>
<g>
</g>
<g>
</g>
<g>
</g>
<g>
</g>
<g>
</g>
<g>
</g>
<g>
</g>
<g>
</g>
<g>
</g>
</svg>
