<?xml version="1.0" encoding="iso-8859-1"?>
<!-- Generator: Adobe Illustrator 19.0.0, SVG Export Plug-In . SVG Version: 6.00 Build 0)  -->
<svg fill='#eeeeee' version="1.1" id="Capa_1" xmlns="http://www.w3.org/2000/svg" xmlns:xlink="http://www.w3.org/1999/xlink" x="0px" y="0px"
	 viewBox="0 0 512 512" style="enable-background:new 0 0 512 512;" xml:space="preserve">
<g>
	<g>
		<path d="M384,85.333C384,37.479,327.771,0,256,0S128,37.479,128,85.333c0,39.333,39.833,73.115,96,82.625v333.375
			c0,5.896,4.771,10.667,10.667,10.667h42.667c5.896,0,10.667-4.771,10.667-10.667v-32h10.667V480
			c0,5.896,4.771,10.667,10.667,10.667H352c5.896,0,10.667-4.771,10.667-10.667V373.333c0-5.896-4.771-10.667-10.667-10.667h-42.667
			c-5.896,0-10.667,4.771-10.667,10.667V384H288V167.958C344.167,158.448,384,124.667,384,85.333z M256,128
			c-42.406,0-85.333-14.656-85.333-42.667c0-56.021,170.667-56.021,170.667,0C341.333,113.344,298.406,128,256,128z"/>
	</g>
</g>
<g>
</g>
<g>
</g>
<g>
</g>
<g>
</g>
<g>
</g>
<g>
</g>
<g>
</g>
<g>
</g>
<g>
</g>
<g>
</g>
<g>
</g>
<g>
</g>
<g>
</g>
<g>
</g>
<g>
</g>
</svg>
