<?xml version="1.0" encoding="iso-8859-1"?>
<!-- Generator: Adobe Illustrator 19.0.0, SVG Export Plug-In . SVG Version: 6.00 Build 0)  -->
<svg fill='#eeeeee' version="1.1" id="Capa_1" xmlns="http://www.w3.org/2000/svg" xmlns:xlink="http://www.w3.org/1999/xlink" x="0px" y="0px"
	 viewBox="0 0 512 512" style="enable-background:new 0 0 512 512;" xml:space="preserve">
<g>
	<g>
		<path d="M437.333,213.333c-41.167,0-74.667,33.5-74.667,74.667c0,29.672,17.533,55.145,42.667,67.177v34.156
			c0,32.344-26.313,58.667-58.667,58.667S288,421.677,288,389.333V384c17.646,0,32-14.354,32-32c0-17.646-14.354-32-32-32V64
			c29.417,0,53.333-23.927,53.333-53.333C341.333,4.771,336.563,0,330.667,0H181.333c-5.896,0-10.667,4.771-10.667,10.667
			C170.667,40.073,194.583,64,224,64v256c-17.646,0-32,14.354-32,32c0,17.646,14.354,32,32,32v5.333
			C224,421.677,197.688,448,165.333,448c-32.354,0-58.667-26.323-58.667-58.667v-34.156c25.134-12.033,42.667-37.505,42.667-67.177
			c0-41.167-33.5-74.667-74.667-74.667C33.5,213.333,0,246.833,0,288c0,29.672,17.533,55.145,42.667,67.177v34.156
			C42.667,456.969,97.688,512,165.333,512c34.5,0,67.5-14.938,90.667-40.521C279.167,497.063,312.167,512,346.667,512
			c67.646,0,122.667-55.031,122.667-122.667v-34.156C494.467,343.145,512,317.672,512,288
			C512,246.833,478.5,213.333,437.333,213.333z"/>
	</g>
</g>
<g>
</g>
<g>
</g>
<g>
</g>
<g>
</g>
<g>
</g>
<g>
</g>
<g>
</g>
<g>
</g>
<g>
</g>
<g>
</g>
<g>
</g>
<g>
</g>
<g>
</g>
<g>
</g>
<g>
</g>
</svg>
