<?xml version="1.0" encoding="iso-8859-1"?>
<!-- Generator: Adobe Illustrator 19.0.0, SVG Export Plug-In . SVG Version: 6.00 Build 0)  -->
<svg fill='#eeeeee' version="1.1" id="Capa_1" xmlns="http://www.w3.org/2000/svg" xmlns:xlink="http://www.w3.org/1999/xlink" x="0px" y="0px"
	 viewBox="0 0 512 512" style="enable-background:new 0 0 512 512;" xml:space="preserve">
<g>
	<g>
		<g>
			<path d="M416,405.333c-5.896,0-10.667,4.771-10.667,10.667v10.667h-42.667c0-21.625-16.177-39.542-37.063-42.302l-20.409-27.214
				c22.947-20.272,36.138-49.047,36.138-79.818c0-24.313-8.063-47.198-23.313-66.188C298.385,186.719,288,159.781,288,133.24V10.667
				C288,4.771,283.229,0,277.333,0H192c-5.896,0-10.667,4.771-10.667,10.667v122.969c0,26.375-10.333,53.125-29.885,77.354
				c-19.667,24.365-27.344,55.01-21.615,86.302c4.319,23.59,16.88,44.457,34.28,59.891l-20.384,27.182
				c-20.885,2.76-37.063,20.677-37.063,42.302v27.267c-12.691,7.4-21.333,21.008-21.333,36.733v10.667
				C85.333,507.229,90.104,512,96,512h277.333c5.896,0,10.667-4.771,10.667-10.667v-10.667c0-15.725-8.642-29.333-21.333-36.733V448
				h42.667v10.667c0,5.896,4.771,10.667,10.667,10.667c5.896,0,10.667-4.771,10.667-10.667V416
				C426.667,410.104,421.896,405.333,416,405.333z M192,448h-21.333v-10.667c0-5.896,4.771-10.667,10.667-10.667
				c5.896,0,10.667,4.771,10.667,10.667V448z M150.813,293.458c-4.583-25.083,1.531-49.615,17.24-69.073
				c22.646-28.073,34.615-59.448,34.615-90.75V21.333h64V133.24c0,31.458,12.01,63.021,34.729,91.271
				C313.563,239.667,320,257.938,320,277.333c0,25.823-11.51,49.99-31.583,66.281c-20.073,16.292-46.448,22.5-72.354,17.094
				C183.135,353.813,156.917,326.781,150.813,293.458z M245.333,448H224v-10.667c0-5.896,4.771-10.667,10.667-10.667
				c5.896,0,10.667,4.771,10.667,10.667V448z M298.667,448h-21.333v-10.667c0-5.896,4.771-10.667,10.667-10.667
				s10.667,4.771,10.667,10.667V448z"/>
			<path d="M288,291.25c0-1.458-0.104-2.813-0.292-5.115c-1.594-19.188-11.219-31.156-18.948-40.771
				c-6.948-8.635-10.875-13.896-10.875-21.365c0-3.927-2.156-7.531-5.615-9.396c-3.479-1.875-7.677-1.667-10.938,0.5
				c-12.646,8.365-23.25,22.583-27,36.229c-0.344,1.271-0.646,2.552-0.917,3.833c-0.948-1.406-2.229-2.594-3.76-3.427
				c-2.896-1.573-6.417-1.708-9.458-0.375c-1.833,0.823-17.927,8.833-18.781,36.906l-0.083,2.979
				c0,27.615,23.927,50.083,53.333,50.083S288,318.865,288,291.25z"/>
		</g>
	</g>
</g>
<g>
</g>
<g>
</g>
<g>
</g>
<g>
</g>
<g>
</g>
<g>
</g>
<g>
</g>
<g>
</g>
<g>
</g>
<g>
</g>
<g>
</g>
<g>
</g>
<g>
</g>
<g>
</g>
<g>
</g>
</svg>
