<?xml version="1.0" encoding="iso-8859-1"?>
<!-- Generator: Adobe Illustrator 19.0.0, SVG Export Plug-In . SVG Version: 6.00 Build 0)  -->
<svg fill='#eeeeee' version="1.1" id="Capa_1" xmlns="http://www.w3.org/2000/svg" xmlns:xlink="http://www.w3.org/1999/xlink" x="0px" y="0px"
	 viewBox="0 0 512 512" style="enable-background:new 0 0 512 512;" xml:space="preserve">
<g>
	<g>
		<path d="M467.198,281.604c-41.552-55.406-70.229-117.771-85.25-185.375L362.417,8.354C361.323,3.469,357,0,352,0H160
			c-5,0-9.323,3.469-10.417,8.354l-19.531,87.875c-15.021,67.604-43.698,129.969-85.25,185.375
			c-1.417,1.884-2.139,4.125-2.135,6.396c0,41.167,33.5,74.667,74.667,74.667c27.852,0,51.973-15.423,64.719-38.116
			c11.257,17.359,30.033,30.327,52.615,35.465v100.283l-55.083,9.181c-5.146,0.854-8.917,5.302-8.917,10.521v21.333
			c0,5.896,4.771,10.667,10.667,10.667h149.333c5.896,0,10.667-4.771,10.667-10.667V480c0-5.219-3.771-9.667-8.917-10.521
			l-55.083-9.059V360.016c11.913-2.711,22.698-7.621,32-14.204v41.469c-6.258,3.724-10.667,10.262-10.667,18.053
			c0,11.76,9.573,21.333,21.333,21.333s21.333-9.573,21.333-21.333c0-7.792-4.409-14.329-10.667-18.053v-61.651
			c12.906,22.074,36.612,37.038,64,37.038c41.167,0,74.667-33.5,74.667-74.667C469.337,285.729,468.615,283.488,467.198,281.604z"/>
	</g>
</g>
<g>
</g>
<g>
</g>
<g>
</g>
<g>
</g>
<g>
</g>
<g>
</g>
<g>
</g>
<g>
</g>
<g>
</g>
<g>
</g>
<g>
</g>
<g>
</g>
<g>
</g>
<g>
</g>
<g>
</g>
</svg>
