<?xml version="1.0" encoding="iso-8859-1"?>
<!-- Generator: Adobe Illustrator 19.0.0, SVG Export Plug-In . SVG Version: 6.00 Build 0)  -->
<svg fill='#eeeeee' version="1.1" id="Capa_1" xmlns="http://www.w3.org/2000/svg" xmlns:xlink="http://www.w3.org/1999/xlink" x="0px" y="0px"
	 viewBox="0 0 512 512" style="enable-background:new 0 0 512 512;" xml:space="preserve">
<g>
	<g>
		<path d="M341.333,228.96v-15.626h21.333c0,5.896,4.771,10.667,10.667,10.667c5.896,0,10.667-4.771,10.667-10.667V192
			c0-5.896-4.771-10.667-10.667-10.667c-5.896,0-10.667,4.771-10.667,10.667h-23.298c-3.223-9.036-10.332-16.146-19.368-19.368
			v-23.298c0-31.639-23.128-57.807-53.333-62.922V10.667C266.667,4.771,261.896,0,256,0s-10.667,4.771-10.667,10.667v75.745
			C215.128,91.526,192,117.694,192,149.333v23.298c-12.389,4.418-21.333,16.147-21.333,30.035v26.293C72.18,264.565,0,354.659,0,416
			c0,5.896,4.771,10.667,10.667,10.667H192V448c0,20.563,14.604,37.771,34,41.781C231.5,503.063,247.083,512,256,512
			s24.5-8.938,30-22.219c19.396-4.01,34-21.219,34-41.781v-21.333h181.333c5.896,0,10.667-4.771,10.667-10.667
			C512,354.659,439.82,264.565,341.333,228.96z M298.667,448c0,11.76-9.563,21.333-21.333,21.333
			c-5.896,0-10.667,4.771-10.667,10.667c0,4.094-7.875,10.073-10.125,10.708c-3.333-0.635-11.208-6.615-11.208-10.708
			c0-5.896-4.771-10.667-10.667-10.667c-11.771,0-21.333-9.573-21.333-21.333v-21.333h85.333V448z"/>
	</g>
</g>
<g>
</g>
<g>
</g>
<g>
</g>
<g>
</g>
<g>
</g>
<g>
</g>
<g>
</g>
<g>
</g>
<g>
</g>
<g>
</g>
<g>
</g>
<g>
</g>
<g>
</g>
<g>
</g>
<g>
</g>
</svg>
