<?xml version="1.0" encoding="iso-8859-1"?>
<!-- Generator: Adobe Illustrator 19.0.0, SVG Export Plug-In . SVG Version: 6.00 Build 0)  -->
<svg fill='#eeeeee' version="1.1" id="Capa_1" xmlns="http://www.w3.org/2000/svg" xmlns:xlink="http://www.w3.org/1999/xlink" x="0px" y="0px"
	 viewBox="0 0 512 512" style="enable-background:new 0 0 512 512;" xml:space="preserve">
<g>
	<g>
		<path d="M282.458,22.75C276.729,8.365,267.146,0,256,0s-20.729,8.365-26.458,22.75C167.5,28.292,117.333,43.177,117.333,138.667
			c0,61.156,47.333,201.958,67.667,259.646c3.253,9.257,9.686,16.6,17.667,21.594v51.26c0,8.542,3.333,16.583,9.375,22.625
			l8.833,8.833c5.958,5.958,14.208,9.375,22.625,9.375h25c8.417,0,16.667-3.417,22.625-9.375l8.833-8.833
			c6.042-6.042,9.375-14.083,9.375-22.625v-51.259c7.98-4.992,14.414-12.335,17.667-21.585
			c20.333-57.698,67.667-198.5,67.667-259.656C394.667,43.177,344.5,28.292,282.458,22.75z M288,469.333h-64V448h64V469.333z
			 M286.792,384l-20.125,0.048V280.599l35.521-12.453c4.292-1.5,7.146-5.531,7.146-10.063s-2.854-8.563-7.146-10.063l-35.521-12.457
			v-14.758l35.521-12.431c4.292-1.5,7.146-5.542,7.146-10.073c0-4.542-2.875-8.573-7.146-10.073l-35.521-12.398v-14.673
			l35.521-12.418c5.563-1.948,8.5-8.031,6.542-13.594c-1.917-5.563-8.021-8.51-13.583-6.552l-28.479,9.96V96
			c0-5.896-4.771-10.667-10.667-10.667S245.333,90.104,245.333,96v50.014l-35.521,12.423c-4.271,1.5-7.146,5.542-7.146,10.073
			c0,4.542,2.875,8.573,7.146,10.073l35.521,12.398v14.681l-35.521,12.431c-4.271,1.5-7.146,5.542-7.146,10.073
			s2.854,8.563,7.146,10.063l35.521,12.46v14.789l-35.521,12.46c-5.563,1.948-8.5,8.031-6.542,13.594
			c1.542,4.385,5.667,7.135,10.063,7.135c1.167,0,2.354-0.188,3.521-0.604l28.479-9.984v96.02l-20.083,0.048
			C193.708,294.729,160,183.281,160,138.667c0-64.406,20.542-69.302,79.938-73.969c5.875-0.469,11.417-2.531,16.063-5.854
			c4.646,3.323,10.188,5.385,16.083,5.854C331.458,69.365,352,74.26,352,138.667C352,183.313,318.333,294.646,286.792,384z"/>
	</g>
</g>
<g>
</g>
<g>
</g>
<g>
</g>
<g>
</g>
<g>
</g>
<g>
</g>
<g>
</g>
<g>
</g>
<g>
</g>
<g>
</g>
<g>
</g>
<g>
</g>
<g>
</g>
<g>
</g>
<g>
</g>
</svg>
