<?xml version="1.0" encoding="iso-8859-1"?>
<!-- Generator: Adobe Illustrator 19.0.0, SVG Export Plug-In . SVG Version: 6.00 Build 0)  -->
<svg fill='#eeeeee' version="1.1" id="Capa_1" xmlns="http://www.w3.org/2000/svg" xmlns:xlink="http://www.w3.org/1999/xlink" x="0px" y="0px"
	 viewBox="0 0 512 512" style="enable-background:new 0 0 512 512;" xml:space="preserve">
<g>
	<g>
		<g>
			<path d="M448,255.891c0-33.233-4.615-62.996-12.188-79.482c1.01-5.398,1.521-10.953,1.521-16.559
				c0-5.794-0.521-11.474-1.542-16.872c-4.615-24.417-9.125-50.428-9.125-76.376V31.795c0-5.898-4.771-10.671-10.667-10.671h-11.875
				c-28.01,0-57.365-4.669-92.385-14.683c-30.042-8.587-81.448-8.587-111.469,0c-35.031,10.015-64.385,14.683-92.396,14.683H96
				c-5.896,0-10.667,4.773-10.667,10.671v34.807c0,25.949-4.51,51.96-9.125,76.376c-1.021,5.398-1.542,11.078-1.542,16.872
				c0,5.607,0.51,11.161,1.521,16.559C68.615,192.895,64,222.658,64,255.891c0,33.233,4.615,62.996,12.188,79.482
				c-1.01,5.398-1.521,10.953-1.521,16.559c0,5.794,0.521,11.474,1.542,16.872c4.615,24.417,9.125,50.428,9.125,76.376v34.807
				c0,5.898,4.771,10.671,10.667,10.671h11.875c28.021,0,57.375,4.669,92.396,14.683C215.292,509.634,235.083,512,256,512
				s40.708-2.366,55.719-6.659c35.031-10.015,64.385-14.683,92.406-14.683H416c5.896,0,10.667-4.773,10.667-10.671V445.18
				c0-25.949,4.51-51.96,9.125-76.376c1.021-5.398,1.542-11.078,1.542-16.872c0-5.607-0.51-11.161-1.521-16.559
				C443.385,318.886,448,289.124,448,255.891z M362.667,426.667H149.333V85.333h213.333V426.667z"/>
			<path d="M181.333,149.333c2.729,0,5.458-1.042,7.542-3.125l21.333-21.333c4.167-4.167,4.167-10.917,0-15.083
				c-4.167-4.167-10.917-4.167-15.083,0l-21.333,21.333c-4.167,4.167-4.167,10.917,0,15.083
				C175.875,148.292,178.604,149.333,181.333,149.333z"/>
			<path d="M195.125,188.875c2.083,2.083,4.813,3.125,7.542,3.125c2.729,0,5.458-1.042,7.542-3.125l42.667-42.667
				c4.167-4.167,4.167-10.917,0-15.083s-10.917-4.167-15.083,0l-42.667,42.667C190.958,177.958,190.958,184.708,195.125,188.875z"/>
		</g>
	</g>
</g>
<g>
</g>
<g>
</g>
<g>
</g>
<g>
</g>
<g>
</g>
<g>
</g>
<g>
</g>
<g>
</g>
<g>
</g>
<g>
</g>
<g>
</g>
<g>
</g>
<g>
</g>
<g>
</g>
<g>
</g>
</svg>
