<?xml version="1.0" encoding="iso-8859-1"?>
<!-- Generator: Adobe Illustrator 19.0.0, SVG Export Plug-In . SVG Version: 6.00 Build 0)  -->
<svg fill='#eeeeee' version="1.1" id="Capa_1" xmlns="http://www.w3.org/2000/svg" xmlns:xlink="http://www.w3.org/1999/xlink" x="0px" y="0px"
	 viewBox="0 0 512 512" style="enable-background:new 0 0 512 512;" xml:space="preserve">
<g>
	<g>
		<g>
			<path d="M383.854,120.906c0.083-1.167,0.146-2.365,0.146-3.573c0-25.99-21.396-46.542-43.708-42.021
				c-4.417-20.896-23.333-35.698-42.396-32.073C294.104,18.646,276.771,0,256,0s-38.104,18.646-41.896,43.24
				c-18.979-3.635-37.979,11.177-42.396,32.073C149.417,70.792,128,91.344,128,117.333c0,1.208,0.063,2.406,0.146,3.573
				C85,165.26,64,216.479,64,277.333c0,89.969,47.188,167.323,120.646,198.625c6.979,18.188,24.875,28.792,42.083,24.354
				C234.583,507.74,245.042,512,256,512s21.417-4.26,29.271-11.688c17.229,4.438,35.125-6.167,42.083-24.354
				C400.813,444.656,448,367.302,448,277.333C448,216.479,427,165.26,383.854,120.906z M256,426.667
				c-72.979,0-128-64.198-128-149.333S183.021,128,256,128s128,64.198,128,149.333S328.979,426.667,256,426.667z"/>
			<path d="M210.208,173.792c-4.167-4.167-10.917-4.167-15.083,0l-21.333,21.333c-4.167,4.167-4.167,10.917,0,15.083
				c2.083,2.083,4.813,3.125,7.542,3.125c2.729,0,5.458-1.042,7.542-3.125l21.333-21.333
				C214.375,184.708,214.375,177.958,210.208,173.792z"/>
			<path d="M237.792,195.125l-42.667,42.667c-4.167,4.167-4.167,10.917,0,15.083c2.083,2.083,4.813,3.125,7.542,3.125
				c2.729,0,5.458-1.042,7.542-3.125l42.667-42.667c4.167-4.167,4.167-10.917,0-15.083S241.958,190.958,237.792,195.125z"/>
		</g>
	</g>
</g>
<g>
</g>
<g>
</g>
<g>
</g>
<g>
</g>
<g>
</g>
<g>
</g>
<g>
</g>
<g>
</g>
<g>
</g>
<g>
</g>
<g>
</g>
<g>
</g>
<g>
</g>
<g>
</g>
<g>
</g>
</svg>
