<?xml version="1.0" encoding="iso-8859-1"?>
<!-- Generator: Adobe Illustrator 19.0.0, SVG Export Plug-In . SVG Version: 6.00 Build 0)  -->
<svg fill='#eeeeee' version="1.1" id="Capa_1" xmlns="http://www.w3.org/2000/svg" xmlns:xlink="http://www.w3.org/1999/xlink" x="0px" y="0px"
	 viewBox="0 0 512.006 512.006" style="enable-background:new 0 0 512.006 512.006;" xml:space="preserve">
<g>
	<g>
		<g>
			<path d="M266.67,0.006c-18.836,0-36.84,3.44-53.637,9.444c-0.369-3.043-1.806-5.865-4.384-7.611
				c-1.698-1.15-3.489-1.768-5.477-1.833c-1.451-0.048-3.089,0.194-4.46,0.76c-2.333,0.938-57.479,23.615-90.917,90.469
				c-1.646,3.302-1.479,7.229,0.458,10.375c1.729,2.777,4.677,4.357,7.866,4.746c-6.007,16.801-9.449,34.809-9.449,53.65
				c0,18.771,3.417,36.716,9.38,53.464c-17.038,0.691-30.714,14.664-30.714,31.87c0,13.888,8.944,25.617,21.333,30.035v225.965
				c0,5.896,4.771,10.667,10.667,10.667c5.896,0,10.667-4.771,10.667-10.667V275.374c6.672-2.379,12.339-6.823,16.139-12.669
				c29.372,34.986,73.375,57.301,122.527,57.301c88.229,0,160-71.771,160-160S354.899,0.006,266.67,0.006z M266.67,298.673
				c-76.458,0-138.667-62.208-138.667-138.667S190.211,21.339,266.67,21.339s138.667,62.208,138.667,138.667
				S343.128,298.673,266.67,298.673z"/>
			<path d="M266.67,42.673c-64.688,0-117.333,52.635-117.333,117.333c0,5.896,4.771,10.667,10.667,10.667
				s10.667-4.771,10.667-10.667c0-52.938,43.063-96,96-96c5.896,0,10.667-4.771,10.667-10.667
				C277.336,47.443,272.565,42.673,266.67,42.673z"/>
		</g>
	</g>
</g>
<g>
</g>
<g>
</g>
<g>
</g>
<g>
</g>
<g>
</g>
<g>
</g>
<g>
</g>
<g>
</g>
<g>
</g>
<g>
</g>
<g>
</g>
<g>
</g>
<g>
</g>
<g>
</g>
<g>
</g>
</svg>
