<?xml version="1.0" encoding="iso-8859-1"?>
<!-- Generator: Adobe Illustrator 19.0.0, SVG Export Plug-In . SVG Version: 6.00 Build 0)  -->
<svg fill='#eeeeee' version="1.1" id="Capa_1" xmlns="http://www.w3.org/2000/svg" xmlns:xlink="http://www.w3.org/1999/xlink" x="0px" y="0px"
	 viewBox="0 0 512 512" style="enable-background:new 0 0 512 512;" xml:space="preserve">
<g>
	<g>
		<path d="M437.333,234.667h-41.253l9.169-73.353c0.375-3.031-0.563-6.083-2.583-8.386c-2.021-2.292-4.938-3.594-8-3.594H225.043
			l-45.585-78.731C191.229,55.206,195,38.341,189.521,24.351c-3.729-9.511-11.188-16.688-21.583-20.751
			c-16.188-6.334-37.875-4.219-58.104,5.615C75.937,25.705,56.896,57.8,66.479,82.29c7.813,19.959,31.271,28.584,58.833,22.459
			l25.797,44.584h-33.776c-3.063,0-5.979,1.302-8,3.594c-2.021,2.302-2.958,5.354-2.583,8.386l9.169,73.353H74.667
			c-17.646,0-32,14.347-32,31.993v85.336c0,17.646,14.354,32.001,32,32.001h59.921l11.329,90.628
			C148.583,495.927,166.771,512,188.25,512h135.5c21.479,0,39.667-16.073,42.333-37.376l11.329-90.628h59.921
			c17.646,0,32-14.355,32-32.001V266.66C469.333,249.014,454.979,234.667,437.333,234.667z M106.667,320v-21.333h17.253L126.587,320
			H106.667z M183,341.25c-0.458,0.052-0.896,0.083-1.354,0.083c-5.292,0-9.896-3.948-10.563-9.344l-16-128
			c-0.729-5.844,3.417-11.177,9.25-11.906c5.771-0.698,11.188,3.396,11.917,9.26l16,128C192.979,335.188,188.833,340.521,183,341.25
			z M405.333,320h-19.921l2.668-21.333h17.253V320z"/>
	</g>
</g>
<g>
</g>
<g>
</g>
<g>
</g>
<g>
</g>
<g>
</g>
<g>
</g>
<g>
</g>
<g>
</g>
<g>
</g>
<g>
</g>
<g>
</g>
<g>
</g>
<g>
</g>
<g>
</g>
<g>
</g>
</svg>
