<?xml version="1.0" encoding="iso-8859-1"?>
<!-- Generator: Adobe Illustrator 19.0.0, SVG Export Plug-In . SVG Version: 6.00 Build 0)  -->
<svg fill='#eeeeee' version="1.1" id="Capa_1" xmlns="http://www.w3.org/2000/svg" xmlns:xlink="http://www.w3.org/1999/xlink" x="0px" y="0px"
	 viewBox="0 0 512 512" style="enable-background:new 0 0 512 512;" xml:space="preserve">
<g>
	<g>
		<g>
			<path d="M202.667,341.333c-17.354,0-32,14.656-32,32s14.646,32,32,32c17.354,0,32-14.656,32-32S220.021,341.333,202.667,341.333z
				"/>
			<path d="M384,64c-35.292,0-64,28.708-64,64v1.794c-12.553,4.047-22.315,14.891-24.25,28.477L290.932,192H256
				c0-5.896-4.771-10.667-10.667-10.667h-10.667V160c0-5.896-4.771-10.667-10.667-10.667h-10.667v-1.078
				c36.089-5.232,64-36.074,64-73.589C277.333,33.5,243.833,0,202.667,0C161.5,0,128,33.5,128,74.667
				c0,37.514,27.911,68.357,64,73.589v1.078h-10.667c-5.896,0-10.667,4.771-10.667,10.667v123.23c-37.167,13.253-64,48.44-64,90.103
				c0,6.266,0.698,12.362,1.849,18.296l-17.682,7.079C74.542,405.229,64,420.781,64,438.333v63C64,507.229,68.771,512,74.667,512
				h256c5.896,0,10.667-4.771,10.667-10.667v-11.207C401.036,484.711,448,434.43,448,373.333V128C448,92.708,419.292,64,384,64z
				 M202.667,106.667C196.776,106.667,192,101.891,192,96c0-5.892,4.776-10.667,10.667-10.667S213.333,90.108,213.333,96
				C213.333,101.891,208.557,106.667,202.667,106.667z M224,64c5.891,0,10.667,4.775,10.667,10.667
				c0,5.891-4.776,10.667-10.667,10.667s-10.667-4.776-10.667-10.667C213.333,68.775,218.109,64,224,64z M202.667,42.667
				c5.891,0,10.667,4.775,10.667,10.667c0,5.891-4.776,10.667-10.667,10.667S192,59.224,192,53.333
				C192,47.441,196.776,42.667,202.667,42.667z M181.333,85.333c-5.891,0-10.667-4.776-10.667-10.667
				c0-5.892,4.776-10.667,10.667-10.667S192,68.775,192,74.667C192,80.557,187.224,85.333,181.333,85.333z M202.667,426.667
				c-28.917,0-53.333-24.427-53.333-53.333S173.75,320,202.667,320C231.583,320,256,344.427,256,373.333
				S231.583,426.667,202.667,426.667z M426.667,373.333c0,49.285-37.465,89.536-85.333,94.922v-29.922
				c0-17.552-10.542-33.104-26.833-39.625l-17.682-7.079c1.151-5.934,1.849-12.03,1.849-18.296c0-41.663-26.833-76.85-64-90.103V224
				h10.667c5.896,0,10.667-4.771,10.667-10.667h31.885l-10.448,73.156c-0.438,3.063,0.479,6.167,2.5,8.5
				c2.021,2.333,4.979,3.677,8.063,3.677h85.333c3.083,0,6.042-1.344,8.063-3.677c2.021-2.333,2.938-5.438,2.5-8.5l-10.452-73.178
				c5.841-0.064,10.556-4.788,10.556-10.645c0-5.896-4.771-10.667-10.667-10.667h-2.932l-4.818-33.729
				c-1.935-13.586-11.697-24.43-24.25-28.477V128c0-23.531,19.146-42.667,42.667-42.667c23.521,0,42.667,19.135,42.667,42.667
				V373.333z"/>
		</g>
	</g>
</g>
<g>
</g>
<g>
</g>
<g>
</g>
<g>
</g>
<g>
</g>
<g>
</g>
<g>
</g>
<g>
</g>
<g>
</g>
<g>
</g>
<g>
</g>
<g>
</g>
<g>
</g>
<g>
</g>
<g>
</g>
</svg>
