<?xml version="1.0" encoding="iso-8859-1"?>
<!-- Generator: Adobe Illustrator 19.0.0, SVG Export Plug-In . SVG Version: 6.00 Build 0)  -->
<svg fill='#eeeeee' version="1.1" id="Capa_1" xmlns="http://www.w3.org/2000/svg" xmlns:xlink="http://www.w3.org/1999/xlink" x="0px" y="0px"
	 viewBox="0 0 512 512" style="enable-background:new 0 0 512 512;" xml:space="preserve">
<g>
	<g>
		<g>
			<circle cx="256" cy="362.667" r="64"/>
			<path d="M458.667,65.078V64c0-20.434-14.452-37.513-33.654-41.665C420.887,9.431,408.922,0,394.667,0H117.333
				c-13.888,0-25.617,8.944-30.035,21.333h-1.965c-23.521,0-42.667,19.135-42.667,42.667H32C14.354,64,0,78.354,0,96
				c0,13.888,8.944,25.617,21.333,30.035V160c0,41.167,33.5,74.667,74.667,74.667h42.667c5.896,0,10.667-4.771,10.667-10.667
				v-85.333c0-5.896-4.771-10.667-10.667-10.667H96c-2.978,0-5.66-1.242-7.599-3.22c10.762-5.16,18.266-16.069,18.266-28.78
				c0-17.646-14.354-32-32-32H64c0-11.76,9.563-21.333,21.333-21.333h1.965C91.716,55.056,103.445,64,117.333,64H192v53.333
				C192,140.865,211.146,160,234.667,160h3.279c1.783,2.997,4.199,5.427,7.173,7.245c-0.732,22.993-4.581,38.418-7.129,46.089
				h-22.073c-11.229,0-22.229,4.552-30.167,12.5l-99.875,99.875C71.771,339.823,64,358.573,64,378.51V448
				c0,23.531,19.146,42.667,42.667,42.667v10.667c0,5.896,4.771,10.667,10.667,10.667h21.333c5.896,0,10.667-4.771,10.667-10.667
				v-10.667h213.333v10.667c0,5.896,4.771,10.667,10.667,10.667h21.333c5.896,0,10.667-4.771,10.667-10.667v-10.667
				C428.854,490.667,448,471.531,448,448v-69.49c0-19.938-7.771-38.688-21.875-52.802l-99.875-99.875
				c-7.938-7.948-18.938-12.5-30.167-12.5H274.01c-2.553-7.698-6.397-23.116-7.129-46.089c2.974-1.818,5.391-4.247,7.173-7.245
				h3.279C300.854,160,320,140.865,320,117.333V64h74.667c13.279,0,24.684-8.134,29.52-19.677
				c7.711,3.219,13.147,10.816,13.147,19.677v1.078C407.128,70.193,384,96.361,384,128v32c0,5.896,4.771,10.667,10.667,10.667
				h106.667c5.896,0,10.667-4.771,10.667-10.667v-32C512,96.361,488.872,70.193,458.667,65.078z M341.333,362.667
				C341.333,409.719,303.063,448,256,448s-85.333-38.281-85.333-85.333c0-47.052,38.271-85.333,85.333-85.333
				S341.333,315.615,341.333,362.667z M298.667,117.333c0,11.76-9.563,21.333-21.333,21.333h-3.279
				C270.333,132.409,263.798,128,256,128s-14.333,4.409-18.055,10.667h-3.279c-11.771,0-21.333-9.573-21.333-21.333V64h85.333
				V117.333z"/>
		</g>
	</g>
</g>
<g>
</g>
<g>
</g>
<g>
</g>
<g>
</g>
<g>
</g>
<g>
</g>
<g>
</g>
<g>
</g>
<g>
</g>
<g>
</g>
<g>
</g>
<g>
</g>
<g>
</g>
<g>
</g>
<g>
</g>
</svg>
