<?xml version="1.0" encoding="iso-8859-1"?>
<!-- Generator: Adobe Illustrator 19.0.0, SVG Export Plug-In . SVG Version: 6.00 Build 0)  -->
<svg fill='#eeeeee' version="1.1" id="Capa_1" xmlns="http://www.w3.org/2000/svg" xmlns:xlink="http://www.w3.org/1999/xlink" x="0px" y="0px"
	 viewBox="0 0 512 512" style="enable-background:new 0 0 512 512;" xml:space="preserve">
<g>
	<g>
		<g>
			<path d="M469.333,86.413V74.667c0-35.292-28.708-64-64-64h-29.656C369.815,4.168,361.421,0,352,0H160
				c-9.421,0-17.815,4.168-23.677,10.667h-29.656c-35.292,0-64,28.708-64,64v11.746C18.348,91.368,0,112.913,0,138.667v42.667
				C0,187.229,4.771,192,10.667,192h128c5.896,0,10.667-4.771,10.667-10.667v-42.667c0-25.754-18.348-47.298-42.667-52.254V74.667
				h29.656c5.862,6.499,14.256,10.667,23.677,10.667h32v42.458c0,11.875,9.667,21.542,21.542,21.542h31.792v22.849
				c-18.346,4.77-32,21.326-32,41.151H160c-41.167,0-74.667,33.5-74.667,74.667v160H74.667c-17.646,0-32,14.354-32,32
				c0,17.646,14.354,32,32,32h362.667c17.646,0,32-14.354,32-32c0-17.646-14.354-32-32-32h-10.667V288
				c0-41.167-33.5-74.667-74.667-74.667h-53.333c0-19.826-13.654-36.381-32-41.151v-22.849h31.792
				c11.875,0,21.542-9.667,21.542-21.542V85.333h32c9.421,0,17.815-4.168,23.677-10.667h29.656v11.746
				c-24.319,4.956-42.667,26.5-42.667,52.254v42.667c0,5.896,4.771,10.667,10.667,10.667h128c5.896,0,10.667-4.771,10.667-10.667
				v-42.667C512,112.913,493.652,91.368,469.333,86.413z M341.333,341.333c0,47.052-38.271,85.333-85.333,85.333
				s-85.333-38.281-85.333-85.333C170.667,294.281,208.938,256,256,256S341.333,294.281,341.333,341.333z M298.458,128
				l-85.125-0.208V85.333h85.244L298.458,128z"/>
			<circle cx="256" cy="341.333" r="64"/>
		</g>
	</g>
</g>
<g>
</g>
<g>
</g>
<g>
</g>
<g>
</g>
<g>
</g>
<g>
</g>
<g>
</g>
<g>
</g>
<g>
</g>
<g>
</g>
<g>
</g>
<g>
</g>
<g>
</g>
<g>
</g>
<g>
</g>
</svg>
