<?xml version="1.0" encoding="iso-8859-1"?>
<!-- Generator: Adobe Illustrator 19.0.0, SVG Export Plug-In . SVG Version: 6.00 Build 0)  -->
<svg fill='#eeeeee' version="1.1" id="Capa_1" xmlns="http://www.w3.org/2000/svg" xmlns:xlink="http://www.w3.org/1999/xlink" x="0px" y="0px"
	 viewBox="0 0 512 512" style="enable-background:new 0 0 512 512;" xml:space="preserve">
<g>
	<g>
		<g>
			<path d="M501.333,448c-5.896,0-10.667,4.771-10.667,10.667v7.878c-21.46-6.703-64-28.155-64-93.211
				c0-44.531,19.729-71.667,40.625-100.396C489.271,242.719,512,211.469,512,160C512,64.302,430.552,0,309.333,0
				c-92.137,0-130.852,15.909-141.388,21.333h-13.279c-38.229,0-69.333,31.104-69.333,69.333c0,32.767,22.376,60.009,53.333,67.254
				v15.861C59.82,188.815,0,258.174,0,341.333C0,435.438,76.563,512,170.667,512s170.667-76.563,170.667-170.667
				c0-83.159-59.82-152.518-138.667-167.552v-15.832C233.612,150.766,256,123.495,256,90.667c0-27.297-15.996-50.732-38.984-62.035
				c20.759-3.935,50.56-7.298,92.318-7.298c90.26,0,181.333,42.875,181.333,138.667c0,44.531-19.729,71.667-40.625,100.396
				c-21.979,30.219-44.708,61.469-44.708,112.938c0,84.398,61.454,108.908,85.333,115.242v12.758
				c0,5.896,4.771,10.667,10.667,10.667c5.896,0,10.667-4.771,10.667-10.667v-42.667C512,452.771,507.229,448,501.333,448z
				 M298.667,341.333c0,70.583-57.417,128-128,128s-128-57.417-128-128s57.417-128,128-128S298.667,270.75,298.667,341.333z
				 M234.667,90.667c0,20.965-13.184,38.624-32,45.169v-16.159c6.499-5.862,10.667-14.256,10.667-23.677c0-17.646-14.354-32-32-32
				H160c-17.646,0-32,14.354-32,32c0,9.421,4.168,17.815,10.667,23.677v16.107c-18.818-6.586-32-24.211-32-45.117
				c0-26.469,21.531-48,48-48h32C213.135,42.667,234.667,64.198,234.667,90.667z"/>
			<path d="M160,234.667c0,9.781-2.635,25.604-5.188,40.917c-2.823,16.896-5.479,32.865-5.479,44.417
				c0,15.499,4.918,23.432,10.03,27.553c0.878,4.555,3.24,9.658,8.77,15.188c6.673,6.672,17.749,14.044,29.477,21.836
				c10.624,7.065,21.602,14.367,27.251,20.017c3.406,3.406,9.488,2.835,13.599-1.276c4.111-4.111,4.681-10.193,1.275-13.598
				c-5.65-5.65-12.952-16.628-20.017-27.251c-7.792-11.728-15.164-22.803-21.836-29.477c-2.241-2.241-4.419-3.97-6.527-5.323
				C191.667,325.271,192,322.9,192,320c0-11.552-2.656-27.521-5.479-44.417c-2.552-15.313-5.188-31.135-5.188-40.917
				c0-5.896-4.771-10.667-10.667-10.667C164.771,224,160,228.771,160,234.667z"/>
		</g>
	</g>
</g>
<g>
</g>
<g>
</g>
<g>
</g>
<g>
</g>
<g>
</g>
<g>
</g>
<g>
</g>
<g>
</g>
<g>
</g>
<g>
</g>
<g>
</g>
<g>
</g>
<g>
</g>
<g>
</g>
<g>
</g>
</svg>
