<?xml version="1.0" encoding="iso-8859-1"?>
<!-- Generator: Adobe Illustrator 19.0.0, SVG Export Plug-In . SVG Version: 6.00 Build 0)  -->
<svg fill='#eeeeee' version="1.1" id="Capa_1" xmlns="http://www.w3.org/2000/svg" xmlns:xlink="http://www.w3.org/1999/xlink" x="0px" y="0px"
	 viewBox="0 0 512 512" style="enable-background:new 0 0 512 512;" xml:space="preserve">
<g>
	<g>
		<g>
			<path d="M430.771,122.396c-31.417-5.875-95.917-15.729-174.771-15.729s-143.354,9.854-174.771,15.729
				C71.25,124.25,64,133.052,64,143.323v91.344C64,246.427,73.563,256,85.333,256h341.333c11.771,0,21.333-9.573,21.333-21.333
				v-91.344C448,133.052,440.75,124.25,430.771,122.396z M160,128h192c5.896,0,10.667,4.771,10.667,10.667
				c0,5.896-4.771,10.667-10.667,10.667H160c-5.896,0-10.667-4.771-10.667-10.667C149.333,132.771,154.104,128,160,128z
				 M138.667,170.667h234.667c5.896,0,10.667,4.771,10.667,10.667c0,5.896-4.771,10.667-10.667,10.667H138.667
				c-5.896,0-10.667-4.771-10.667-10.667C128,175.438,132.771,170.667,138.667,170.667z M394.667,234.667H117.333
				c-5.896,0-10.667-4.771-10.667-10.667s4.771-10.667,10.667-10.667h277.333c5.896,0,10.667,4.771,10.667,10.667
				S400.563,234.667,394.667,234.667z"/>
			<rect x="234.667" y="341.333" width="85.333" height="21.333"/>
			<rect x="192" y="341.333" width="21.333" height="21.333"/>
			<path d="M459.917,65.104C411.021,50.219,342.417,42.667,256,42.667c-86.458,0-155.063,7.552-203.917,22.438
				C20.938,74.604,0,103.219,0,136.313V384c0,23.531,19.146,42.667,42.667,42.667v32c0,5.896,4.771,10.667,10.667,10.667H64
				c4.896,0,9.167-3.333,10.354-8.083L83,426.667h346l8.646,34.583c1.188,4.75,5.458,8.083,10.354,8.083h10.667
				c5.896,0,10.667-4.771,10.667-10.667v-32C492.854,426.667,512,407.531,512,384V136.313
				C512,103.219,491.063,74.604,459.917,65.104z M106.667,384C83.146,384,64,364.865,64,341.333
				c0-23.531,19.146-42.667,42.667-42.667c23.521,0,42.667,19.135,42.667,42.667C149.333,364.865,130.188,384,106.667,384z
				 M341.333,373.333c0,5.896-4.771,10.667-10.667,10.667H181.333c-5.896,0-10.667-4.771-10.667-10.667v-42.667
				c0-5.896,4.771-10.667,10.667-10.667h149.333c5.896,0,10.667,4.771,10.667,10.667V373.333z M405.333,384
				c-23.521,0-42.667-19.135-42.667-42.667c0-23.531,19.146-42.667,42.667-42.667c23.521,0,42.667,19.135,42.667,42.667
				C448,364.865,428.854,384,405.333,384z M469.333,234.667c0,23.531-19.146,42.667-42.667,42.667H85.333
				c-23.521,0-42.667-19.135-42.667-42.667v-91.344c0-20.531,14.563-38.156,34.646-41.906c32.146-6,98.104-16.083,178.688-16.083
				s146.542,10.083,178.688,16.083c20.083,3.75,34.646,21.375,34.646,41.906V234.667z"/>
			<circle cx="106.667" cy="341.333" r="21.333"/>
			<circle cx="405.333" cy="341.333" r="21.333"/>
		</g>
	</g>
</g>
<g>
</g>
<g>
</g>
<g>
</g>
<g>
</g>
<g>
</g>
<g>
</g>
<g>
</g>
<g>
</g>
<g>
</g>
<g>
</g>
<g>
</g>
<g>
</g>
<g>
</g>
<g>
</g>
<g>
</g>
</svg>
