<?xml version="1.0" encoding="iso-8859-1"?>
<!-- Generator: Adobe Illustrator 19.0.0, SVG Export Plug-In . SVG Version: 6.00 Build 0)  -->
<svg fill='#eeeeee' version="1.1" id="Capa_1" xmlns="http://www.w3.org/2000/svg" xmlns:xlink="http://www.w3.org/1999/xlink" x="0px" y="0px"
	 viewBox="0 0 512 512" style="enable-background:new 0 0 512 512;" xml:space="preserve">
<g>
	<g>
		<g>
			<path d="M341.333,257.965v-12.632c0-5.896-4.771-10.667-10.667-10.667c-5.896,0-10.667,4.771-10.667,10.667v12.632
				c-12.389,4.418-21.333,16.147-21.333,30.035s8.944,25.617,21.333,30.035v12.632c0,5.896,4.771,10.667,10.667,10.667
				c5.896,0,10.667-4.771,10.667-10.667v-12.632c12.389-4.418,21.333-16.147,21.333-30.035S353.723,262.383,341.333,257.965z"/>
			<path d="M437.333,42.667H74.667C33.5,42.667,0,76.167,0,117.333V224c0,5.896,4.771,10.667,10.667,10.667h10.667v10.667
				C21.333,251.229,26.104,256,32,256h10.667v149.333c0,23.531,19.146,42.667,42.667,42.667v10.667
				c0,5.896,4.771,10.667,10.667,10.667h21.333c5.896,0,10.667-4.771,10.667-10.667V448h256v10.667
				c0,5.896,4.771,10.667,10.667,10.667H416c5.896,0,10.667-4.771,10.667-10.667V448c23.521,0,42.667-19.135,42.667-42.667V256H480
				c5.896,0,10.667-4.771,10.667-10.667v-10.667h10.667c5.896,0,10.667-4.771,10.667-10.667V117.333
				C512,76.167,478.5,42.667,437.333,42.667z M202.667,362.667H96c-5.896,0-10.667-4.771-10.667-10.667
				c0-5.896,4.771-10.667,10.667-10.667h106.667c5.896,0,10.667,4.771,10.667,10.667
				C213.333,357.896,208.563,362.667,202.667,362.667z M202.667,298.667H96c-5.896,0-10.667-4.771-10.667-10.667
				S90.104,277.333,96,277.333h106.667c5.896,0,10.667,4.771,10.667,10.667S208.563,298.667,202.667,298.667z M202.667,234.667H96
				c-5.896,0-10.667-4.771-10.667-10.667S90.104,213.333,96,213.333h106.667c5.896,0,10.667,4.771,10.667,10.667
				S208.563,234.667,202.667,234.667z M330.667,384c-52.938,0-96-43.063-96-96s43.063-96,96-96s96,43.063,96,96
				S383.604,384,330.667,384z M490.667,202.667c0-5.896-4.771-10.667-10.667-10.667h-11.745c-5.232-36.089-36.074-64-73.589-64
				H117.333c-37.514,0-68.357,27.911-73.589,64H32c-5.896,0-10.667,4.771-10.667,10.667v-85.333C21.333,87.927,45.25,64,74.667,64
				h362.667c29.417,0,53.333,23.927,53.333,53.333V202.667z"/>
		</g>
	</g>
</g>
<g>
</g>
<g>
</g>
<g>
</g>
<g>
</g>
<g>
</g>
<g>
</g>
<g>
</g>
<g>
</g>
<g>
</g>
<g>
</g>
<g>
</g>
<g>
</g>
<g>
</g>
<g>
</g>
<g>
</g>
</svg>
