<?xml version="1.0" encoding="iso-8859-1"?>
<!-- Generator: Adobe Illustrator 19.0.0, SVG Export Plug-In . SVG Version: 6.00 Build 0)  -->
<svg fill='#eeeeee' version="1.1" id="Capa_1" xmlns="http://www.w3.org/2000/svg" xmlns:xlink="http://www.w3.org/1999/xlink" x="0px" y="0px"
	 viewBox="0 0 512 512" style="enable-background:new 0 0 512 512;" xml:space="preserve">
<g>
	<g>
		<path d="M446.723,154.938c-1.667-3.063-4.708-5.125-8.146-5.531l-30.203-3.553l-138.697-96.02l6.531-13.063
			c1.5-3,1.5-6.542,0-9.542L265.541,5.896c-1.812-3.613-5.673-5.894-9.536-5.896c-3.866-0.002-7.734,2.279-9.547,5.896
			l-10.666,21.333c-1.5,3-1.5,6.542,0,9.542l6.531,13.063l-138.697,96.02l-30.203,3.553c-3.437,0.406-6.479,2.469-8.146,5.531
			c-1.646,3.052-1.708,6.729-0.146,9.833l21.333,42.667c2.042,4.063,6.291,6.417,10.958,5.802l0.168-0.022l38.857,213.747
			c-3.109,0.66-5.831,2.638-7.317,5.598l-21.333,42.667c-1.521,3.052-1.5,6.646,0.063,9.667c1.562,3.031,4.479,5.125,7.854,5.646
			l138.662,21.333c0.542,0.083,1.083,0.125,1.625,0.125c0.542,0,1.083-0.042,1.625-0.125l138.662-21.333
			c3.375-0.521,6.291-2.615,7.854-5.646c1.562-3.021,1.583-6.615,0.063-9.667l-21.333-42.667c-1.486-2.957-4.212-4.943-7.316-5.604
			l38.855-213.741l0.168,0.022c0.479,0.063,0.958,0.094,1.417,0.094c4,0,7.708-2.25,9.541-5.896l21.333-42.667
			C448.431,161.667,448.368,157.99,446.723,154.938z M234.667,443.945l-53.563-9.736l-41.201-226.635l94.763-12.635V443.945z
			 M257.25,128.073c-0.833-0.104-1.667-0.104-2.5,0l-105.993,12.47L256,66.302l107.244,74.241L257.25,128.073z M330.896,434.21
			l-53.563,9.736V194.939l94.763,12.635L330.896,434.21z"/>
	</g>
</g>
<g>
</g>
<g>
</g>
<g>
</g>
<g>
</g>
<g>
</g>
<g>
</g>
<g>
</g>
<g>
</g>
<g>
</g>
<g>
</g>
<g>
</g>
<g>
</g>
<g>
</g>
<g>
</g>
<g>
</g>
</svg>
