<?xml version="1.0" encoding="iso-8859-1"?>
<!-- Generator: Adobe Illustrator 19.0.0, SVG Export Plug-In . SVG Version: 6.00 Build 0)  -->
<svg fill='#eeeeee' version="1.1" id="Capa_1" xmlns="http://www.w3.org/2000/svg" xmlns:xlink="http://www.w3.org/1999/xlink" x="0px" y="0px"
	 viewBox="0 0 512 512" style="enable-background:new 0 0 512 512;" xml:space="preserve">
<g>
	<g>
		<path d="M469.333,128H42.667C19.146,128,0,147.135,0,170.667v170.667C0,364.865,19.146,384,42.667,384h426.667
			C492.854,384,512,364.865,512,341.333V170.667C512,147.135,492.854,128,469.333,128z M341.333,277.333
			c0,23.531-19.146,42.667-42.667,42.667h-85.333c-23.521,0-42.667-19.135-42.667-42.667v-10.667
			c0-5.896,4.771-10.667,10.667-10.667c5.896,0,10.667,4.771,10.667,10.667v10.667c0,11.76,9.563,21.333,21.333,21.333h85.333
			c11.771,0,21.333-9.573,21.333-21.333v-10.667c0-5.896,4.771-10.667,10.667-10.667c5.896,0,10.667,4.771,10.667,10.667V277.333z
			 M490.667,234.667H448v10.667c0,5.896-4.771,10.667-10.667,10.667h-10.667v106.667H384V256h-10.667
			c-5.896,0-10.667-4.771-10.667-10.667v-10.667H149.333v10.667c0,5.896-4.771,10.667-10.667,10.667H128v106.667H85.333V256H74.667
			C68.771,256,64,251.229,64,245.333v-10.667H21.333v-21.333H64v-10.667C64,196.771,68.771,192,74.667,192h10.667v-42.667H128V192
			h10.667c5.896,0,10.667,4.771,10.667,10.667v10.667h213.333v-10.667c0-5.896,4.771-10.667,10.667-10.667H384v-42.667h42.667V192
			h10.667c5.896,0,10.667,4.771,10.667,10.667v10.667h42.667V234.667z"/>
	</g>
</g>
<g>
</g>
<g>
</g>
<g>
</g>
<g>
</g>
<g>
</g>
<g>
</g>
<g>
</g>
<g>
</g>
<g>
</g>
<g>
</g>
<g>
</g>
<g>
</g>
<g>
</g>
<g>
</g>
<g>
</g>
</svg>
