<?xml version="1.0" encoding="iso-8859-1"?>
<!-- Generator: Adobe Illustrator 19.0.0, SVG Export Plug-In . SVG Version: 6.00 Build 0)  -->
<svg fill='#eeeeee' version="1.1" id="Capa_1" xmlns="http://www.w3.org/2000/svg" xmlns:xlink="http://www.w3.org/1999/xlink" x="0px" y="0px"
	 viewBox="0 0 512.001 512.001" style="enable-background:new 0 0 512.001 512.001;" xml:space="preserve">
<g>
	<g>
		<path d="M458.668,106.667c29.406,0,53.333-23.927,53.333-53.333S488.074,0.001,458.668,0.001s-53.333,23.927-53.333,53.333
			c0,10.852,3.296,20.932,8.885,29.365l-40.885,40.885l-8.396-8.396c11.557-9.79,19.063-24.224,19.063-40.521
			c0-29.406-23.927-53.333-53.333-53.333c-29.406,0-53.333,23.927-53.333,53.333c0,28.033,21.818,50.836,49.323,52.927l-27.99,27.99
			l-13.792-13.792c-4.167-4.167-10.917-4.167-15.083,0c-4.167,4.167-4.167,10.917,0,15.083l3.326,3.326L67.137,365.782
			c-2.01,2-3.135,4.719-3.135,7.552c0,16.762,5.755,32.085,15.128,44.56L3.126,493.782c-4.167,4.167-4.167,10.917-0.01,15.094
			c2.083,2.083,4.823,3.125,7.552,3.125c2.729,0,5.458-1.042,7.542-3.115l76.031-75.917c12.474,9.314,27.789,15.031,44.552,15.031
			c2.823,0,5.531-1.125,7.531-3.115l205.94-205.539l2.862,2.862c2.083,2.083,4.813,3.125,7.542,3.125
			c2.729,0,5.458-1.042,7.542-3.125c4.167-4.167,4.167-10.917,0-15.083l-13.792-13.792l27.99-27.99
			c2.091,27.505,24.895,49.323,52.927,49.323c29.406,0,53.333-23.927,53.333-53.333s-23.927-53.333-53.333-53.333
			c-16.297,0-30.73,7.505-40.521,19.063l-8.396-8.396l40.885-40.885C437.736,103.372,447.816,106.667,458.668,106.667z
			 M135.73,370.199c-2.083,2.094-4.813,3.135-7.552,3.135c-2.729,0-5.448-1.042-7.531-3.115l-13.888-13.841l15.098-15.069
			l13.853,13.806C139.876,359.272,139.897,366.022,135.73,370.199z M167.762,316.876c-2.083,2.083-4.813,3.125-7.542,3.125
			c-2.729,0-5.458-1.042-7.542-3.125l-3.169-3.165l15.099-15.069l3.154,3.151C171.928,305.949,171.928,312.709,167.762,316.876z
			 M221.189,284.876c-2.083,2.083-4.823,3.125-7.552,3.125c-2.729,0-5.458-1.042-7.542-3.115l-13.85-13.829l15.109-15.079
			l13.824,13.805C225.345,273.949,225.345,280.699,221.189,284.876z M253.241,231.532c-2.083,2.094-4.823,3.135-7.552,3.135
			c-2.729,0-5.448-1.042-7.531-3.115l-3.165-3.16l15.098-15.069l3.13,3.125C257.397,220.615,257.397,227.365,253.241,231.532z
			 M330.668,106.667c-17.646,0-32-14.354-32-32c0-17.646,14.354-32,32-32c17.646,0,32,14.354,32,32
			C362.668,92.313,348.314,106.667,330.668,106.667z M437.335,149.334c17.646,0,32,14.354,32,32c0,17.646-14.354,32-32,32
			c-17.646,0-32-14.354-32-32C405.335,163.688,419.689,149.334,437.335,149.334z M458.668,21.334c17.646,0,32,14.354,32,32
			c0,17.646-14.354,32-32,32c-17.646,0-32-14.354-32-32C426.668,35.688,441.022,21.334,458.668,21.334z"/>
	</g>
</g>
<g>
</g>
<g>
</g>
<g>
</g>
<g>
</g>
<g>
</g>
<g>
</g>
<g>
</g>
<g>
</g>
<g>
</g>
<g>
</g>
<g>
</g>
<g>
</g>
<g>
</g>
<g>
</g>
<g>
</g>
</svg>
