<?xml version="1.0" encoding="iso-8859-1"?>
<!-- Generator: Adobe Illustrator 19.0.0, SVG Export Plug-In . SVG Version: 6.00 Build 0)  -->
<svg fill='#eeeeee' version="1.1" id="Capa_1" xmlns="http://www.w3.org/2000/svg" xmlns:xlink="http://www.w3.org/1999/xlink" x="0px" y="0px"
	 viewBox="0 0 512 512" style="enable-background:new 0 0 512 512;" xml:space="preserve">
<g>
	<g>
		<path d="M512,192c0-48.469-40.611-87.632-89.608-85.228c-43.884,2.151-77.667,38.564-80.509,81.924
			c-0.284-1.849-0.549-3.707-0.549-5.613v-33.75c5.896,0,10.667-4.771,10.667-10.667v-32c5.896,0,10.667-4.771,10.667-10.667
			S357.896,85.333,352,85.333h-20.939c-13.637-27.432-39.035-46.414-68.779-51.694c2.564-3.521,4.384-7.628,4.384-12.306
			C266.667,9.573,257.104,0,245.333,0C233.563,0,224,9.573,224,21.333c0,4.678,1.819,8.784,4.383,12.305
			c-29.754,5.28-55.15,24.264-68.775,51.695h-20.941C132.771,85.333,128,90.104,128,96s4.771,10.667,10.667,10.667v32
			c0,5.896,4.771,10.667,10.667,10.667v33.75c0,9.781-3.813,18.979-10.729,25.896c-22.009,22.009-37.591,48.694-46.013,77.785
			c-4.54-5.427-7.358-12.022-7.258-19.035c0.854-57.302-1.042-126.906-23.458-156.802c-2.021-2.677-5.188-4.26-8.542-4.26H10.667
			c-4.25,0-8.021,2.583-9.708,6.479c-1.708,3.896-0.854,8.49,2.042,11.604c0.188,0.188,18.333,20.313,18.333,77.917
			c0,24.625-4.979,42.219-10.229,60.854C5.646,282.833,0,302.802,0,330.667c0,21.837,8.21,91.987,108.879,95.674
			c3.915,7.01,8,13.94,12.829,20.378c11.771,15.708,27.333,27.75,45.458,35.271l-6.354,15.24c-1.354,3.292-1,7.052,0.979,10.021
			c1.979,2.969,5.313,4.75,8.875,4.75H320c3.563,0,6.896-1.781,8.875-4.75s2.333-6.729,0.979-10.021l-6.354-15.24
			c18.125-7.521,33.688-19.563,45.458-35.271c9.973-13.294,17.589-28.126,23.569-43.578c7.155,11.18,18.324,19.204,32.152,22.199
			c6.533,1.415,12.654-3.818,12.654-10.501v-22.448c0-4-2.185-7.802-5.816-9.477c-4.85-2.237-4.85-7.339-4.85-9.581
			c0-29.854,17.604-51.854,38-77.344C486.854,268.26,512,236.813,512,192z M170.792,423.281c-1.917,1.438-4.167,2.135-6.396,2.135
			c-3.229,0-6.438-1.469-8.542-4.271C137.896,397.198,128,367.521,128,337.594c0-5.896,4.771-10.667,10.667-10.667
			c5.896,0,10.667,4.771,10.667,10.667c0,25.344,8.375,50.469,23.604,70.76C176.458,413.063,175.5,419.75,170.792,423.281z
			 M402.888,308.924c-4.219-26.758-14.211-52.027-29.56-74.277c8.616-10.587,10.672-22.93,10.672-31.98V192
			c0-24.546,20.832-44.309,45.732-42.559c24.38,1.714,41.461,24.736,39.316,49.082c-2.344,26.616-18.833,47.223-37.715,70.82
			C421.592,281.517,411.391,294.501,402.888,308.924z"/>
	</g>
</g>
<g>
</g>
<g>
</g>
<g>
</g>
<g>
</g>
<g>
</g>
<g>
</g>
<g>
</g>
<g>
</g>
<g>
</g>
<g>
</g>
<g>
</g>
<g>
</g>
<g>
</g>
<g>
</g>
<g>
</g>
</svg>
