<?xml version="1.0" encoding="iso-8859-1"?>
<!-- Generator: Adobe Illustrator 19.0.0, SVG Export Plug-In . SVG Version: 6.00 Build 0)  -->
<svg fill='#eeeeee' version="1.1" id="Capa_1" xmlns="http://www.w3.org/2000/svg" xmlns:xlink="http://www.w3.org/1999/xlink" x="0px" y="0px"
	 viewBox="0 0 512 512" style="enable-background:new 0 0 512 512;" xml:space="preserve">
<g>
	<g>
		<path d="M465.781,33.177C438.625,20.792,375.26,0,256,0S73.375,20.792,46.219,33.188C31.104,40.083,21.333,55.323,21.333,72v304
			c0,16.677,9.771,31.917,24.885,38.823c4.757,2.169,10.697,4.604,17.781,7.133v79.378C64,507.229,68.771,512,74.667,512h10.667
			c5.313,0,9.813-3.906,10.563-9.156l9.869-69.073C140.885,441.59,189.805,448,256,448s115.113-6.411,150.234-14.232l9.87,69.076
			c0.75,5.25,5.25,9.156,10.563,9.156h10.667c5.896,0,10.667-4.771,10.667-10.667v-79.385c7.085-2.53,13.025-4.965,17.781-7.135
			c15.115-6.896,24.885-22.135,24.885-38.813V72C490.667,55.323,480.896,40.083,465.781,33.177z M106.667,384
			c-11.76,0-21.333-9.573-21.333-21.333s9.573-21.333,21.333-21.333c11.76,0,21.333,9.573,21.333,21.333S118.427,384,106.667,384z
			 M202.667,394.667h-21.333c-5.896,0-10.667-4.771-10.667-10.667c0-5.896,4.771-10.667,10.667-10.667h21.333
			c5.896,0,10.667,4.771,10.667,10.667C213.333,389.896,208.562,394.667,202.667,394.667z M266.667,394.667h-21.333
			c-5.896,0-10.667-4.771-10.667-10.667c0-5.896,4.771-10.667,10.667-10.667h21.333c5.896,0,10.667,4.771,10.667,10.667
			C277.333,389.896,272.562,394.667,266.667,394.667z M330.667,394.667h-21.333c-5.896,0-10.667-4.771-10.667-10.667
			c0-5.896,4.771-10.667,10.667-10.667h21.333c5.896,0,10.667,4.771,10.667,10.667C341.333,389.896,336.562,394.667,330.667,394.667
			z M405.333,384c-11.76,0-21.333-9.573-21.333-21.333s9.573-21.333,21.333-21.333c11.76,0,21.333,9.573,21.333,21.333
			S417.094,384,405.333,384z M448,282.115c0,18.896-12.51,35.729-30.417,40.917c-42.021,12.146-96.385,18.302-161.583,18.302
			c-65.229,0-119.594-6.156-161.583-18.302C76.51,317.844,64,301.01,64,282.115V101.885c0-18.896,12.51-35.729,30.417-40.917
			C136.437,48.823,190.802,42.667,256,42.667c65.229,0,119.594,6.156,161.583,18.302C435.49,66.156,448,82.99,448,101.885V282.115z"
			/>
	</g>
</g>
<g>
</g>
<g>
</g>
<g>
</g>
<g>
</g>
<g>
</g>
<g>
</g>
<g>
</g>
<g>
</g>
<g>
</g>
<g>
</g>
<g>
</g>
<g>
</g>
<g>
</g>
<g>
</g>
<g>
</g>
</svg>
