<?xml version="1.0" encoding="iso-8859-1"?>
<!-- Generator: Adobe Illustrator 19.0.0, SVG Export Plug-In . SVG Version: 6.00 Build 0)  -->
<svg fill='#eeeeee' version="1.1" id="Capa_1" xmlns="http://www.w3.org/2000/svg" xmlns:xlink="http://www.w3.org/1999/xlink" x="0px" y="0px"
	 viewBox="0 0 512 512" style="enable-background:new 0 0 512 512;" xml:space="preserve">
<g>
	<g>
		<path d="M352,64h-67.055l52.596-44.844c4.49-3.823,5.021-10.552,1.198-15.031c-3.813-4.49-10.563-5.021-15.031-1.198
			l-67.688,57.708l-67.75-58.063c-4.458-3.823-11.198-3.344-15.031,1.156c-3.844,4.469-3.323,11.198,1.156,15.031L227.176,64H42.667
			C19.136,64,0,83.136,0,106.667V384c0,23.531,19.135,42.667,42.667,42.667H224v18.531c0,9.479-6.365,17.906-15.469,20.51
			l-47.073,13.448c-7.146,2.052-12.125,8.677-12.125,16.094c0,9.24,7.51,16.75,16.75,16.75h179.833c9.24,0,16.75-7.51,16.75-16.75
			c0-7.417-4.979-14.042-12.146-16.104l-47.052-13.438c-9.104-2.604-15.469-11.031-15.469-20.51v-18.531h181.333
			C492.865,426.667,512,407.531,512,384V224C512,135.771,440.229,64,352,64z M416,149.334c17.646,0,32,14.354,32,32
			c0,17.646-14.354,32-32,32c-17.646,0-32-14.354-32-32C384,163.688,398.354,149.334,416,149.334z M362.667,341.333
			C362.667,364.865,343.531,384,320,384H85.333c-23.531,0-42.667-19.135-42.667-42.667v-192c0-23.531,19.135-42.667,42.667-42.667
			H320c23.531,0,42.667,19.135,42.667,42.667V341.333z M458.667,362.667h-64c-5.896,0-10.667-4.771-10.667-10.667
			c0-5.896,4.771-10.667,10.667-10.667h64c5.896,0,10.667,4.771,10.667,10.667C469.333,357.896,464.563,362.667,458.667,362.667z
			 M458.667,320h-64c-5.896,0-10.667-4.771-10.667-10.667c0-5.896,4.771-10.667,10.667-10.667h64
			c5.896,0,10.667,4.771,10.667,10.667C469.333,315.229,464.563,320,458.667,320z M458.667,277.333h-64
			c-5.896,0-10.667-4.771-10.667-10.667S388.771,256,394.667,256h64c5.896,0,10.667,4.771,10.667,10.667
			S464.563,277.333,458.667,277.333z"/>
	</g>
</g>
<g>
</g>
<g>
</g>
<g>
</g>
<g>
</g>
<g>
</g>
<g>
</g>
<g>
</g>
<g>
</g>
<g>
</g>
<g>
</g>
<g>
</g>
<g>
</g>
<g>
</g>
<g>
</g>
<g>
</g>
</svg>
