<?xml version="1.0" encoding="iso-8859-1"?>
<!-- Generator: Adobe Illustrator 19.0.0, SVG Export Plug-In . SVG Version: 6.00 Build 0)  -->
<svg fill='#eeeeee' version="1.1" id="Capa_1" xmlns="http://www.w3.org/2000/svg" xmlns:xlink="http://www.w3.org/1999/xlink" x="0px" y="0px"
	 viewBox="0 0 512 512" style="enable-background:new 0 0 512 512;" xml:space="preserve">
<g>
	<g>
		<path d="M416,170.667c5.896,0,10.667-4.771,10.667-10.667v-21.333c0-5.896-4.771-10.667-10.667-10.667h-10.667
			c0-23.531-19.135-42.667-42.667-42.667H204.924l144.431-47.732c3.68,3.014,8.197,5.065,13.311,5.065
			c11.76,0,21.333-9.573,21.333-21.333C384,9.573,374.427,0,362.667,0c-10.415,0-18.711,7.652-20.565,17.539L136.962,85.333H128
			c-23.531,0-42.667,19.135-42.667,42.667v341.333C85.333,492.865,104.469,512,128,512h234.667
			c23.531,0,42.667-19.135,42.667-42.667V256H416c5.896,0,10.667-4.771,10.667-10.667v-42.667c0-5.896-4.771-10.667-10.667-10.667
			h-10.667v-21.333H416z M149.333,362.667c0-11.76,9.573-21.333,21.333-21.333c11.76,0,21.333,9.573,21.333,21.333
			S182.427,384,170.667,384C158.906,384,149.333,374.427,149.333,362.667z M309.333,469.333h-128
			c-5.896,0-10.667-4.771-10.667-10.667S175.437,448,181.333,448h128c5.896,0,10.667,4.771,10.667,10.667
			S315.229,469.333,309.333,469.333z M309.333,426.667h-128c-5.896,0-10.667-4.771-10.667-10.667
			c0-5.896,4.771-10.667,10.667-10.667h128c5.896,0,10.667,4.771,10.667,10.667C320,421.896,315.229,426.667,309.333,426.667z
			 M320,384c-11.76,0-21.333-9.573-21.333-21.333s9.573-21.333,21.333-21.333s21.333,9.573,21.333,21.333S331.76,384,320,384z
			 M362.667,288c0,17.646-14.354,32-32,32H160c-17.646,0-32-14.354-32-32V160c0-17.646,14.354-32,32-32h170.667
			c17.646,0,32,14.354,32,32V288z"/>
	</g>
</g>
<g>
</g>
<g>
</g>
<g>
</g>
<g>
</g>
<g>
</g>
<g>
</g>
<g>
</g>
<g>
</g>
<g>
</g>
<g>
</g>
<g>
</g>
<g>
</g>
<g>
</g>
<g>
</g>
<g>
</g>
</svg>
