<?xml version="1.0" encoding="iso-8859-1"?>
<!-- Generator: Adobe Illustrator 19.0.0, SVG Export Plug-In . SVG Version: 6.00 Build 0)  -->
<svg fill='#eeeeee' version="1.1" id="Capa_1" xmlns="http://www.w3.org/2000/svg" xmlns:xlink="http://www.w3.org/1999/xlink" x="0px" y="0px"
	 viewBox="0 0 512 512" style="enable-background:new 0 0 512 512;" xml:space="preserve">
<g>
	<g>
		<path d="M312.292,49.995c-8.75-2.552-17.021-4.958-19.521-6.208c-14.146-7.073-24.042-28.76-26.667-36.51
			c-1.458-4.344-5.521-7.271-10.104-7.271c0,0,0,0-0.021,0c-4.583,0.01-8.646,2.938-10.104,7.281
			c-2.563,7.74-12.396,29.375-26.646,36.5c-2.5,1.25-10.771,3.656-19.521,6.208C145.083,65.891,0,108.12,0,223.995
			c0,0.875,0.104,1.74,0.313,2.583c4.396,17.552,24.458,50.75,69.021,50.75c29.271,0,48.167-14.906,58.875-30
			c11.313,15.094,31.646,30,63.792,30c23.824,0,41.257-8.525,53.333-19.186v205.853c0,14.708-11.958,26.667-26.667,26.667
			c-14.708,0-26.667-11.958-26.667-26.667v-5.333c0-5.896-4.771-10.667-10.667-10.667c-5.896,0-10.667,4.771-10.667,10.667v5.333
			c0,26.469,21.542,48,48,48c26.458,0,48-21.531,48-48V258.539c12,10.475,29.365,18.789,53.333,18.789
			c31.542,0,51.917-14.938,63.438-30.01c10.521,15.115,29.375,30.01,59.229,30.01c43.563,0,64.146-33.042,68.958-50.51
			c0.25-0.917,0.375-1.865,0.375-2.823C512,108.12,366.917,65.891,312.292,49.995z"/>
	</g>
</g>
<g>
</g>
<g>
</g>
<g>
</g>
<g>
</g>
<g>
</g>
<g>
</g>
<g>
</g>
<g>
</g>
<g>
</g>
<g>
</g>
<g>
</g>
<g>
</g>
<g>
</g>
<g>
</g>
<g>
</g>
</svg>
