<?xml version="1.0" encoding="iso-8859-1"?>
<!-- Generator: Adobe Illustrator 19.0.0, SVG Export Plug-In . SVG Version: 6.00 Build 0)  -->
<svg fill='#eeeeee' version="1.1" id="Capa_1" xmlns="http://www.w3.org/2000/svg" xmlns:xlink="http://www.w3.org/1999/xlink" x="0px" y="0px"
	 viewBox="0 0 512 512" style="enable-background:new 0 0 512 512;" xml:space="preserve">
<g>
	<g>
		<path d="M501.333,256H480c-2.313,0-4.563,0.75-6.396,2.135L433.771,288H384v-32c0-19.645-13.414-36.056-31.508-40.997
			C371.564,199.34,384,175.882,384,149.333C384,102.281,345.729,64,298.667,64c-35.271,0-65.599,21.507-78.585,52.087
			C206.483,97.539,184.707,85.333,160,85.333c-41.167,0-74.667,33.5-74.667,74.667c0,27.299,14.891,50.977,36.822,64
			c-12.697,7.54-22.923,18.612-29.332,32H55.854l-40.417-20.208c-3.313-1.667-7.25-1.479-10.375,0.469
			C1.917,238.208,0,241.635,0,245.333v85.333c0,3.698,1.917,7.125,5.063,9.073c1.708,1.063,3.646,1.594,5.604,1.594
			c1.625,0,3.271-0.375,4.771-1.125L55.854,320h29.479v53.333C85.333,414.5,118.833,448,160,448h181.333
			C364.854,448,384,428.865,384,405.333v-10.667h49.771l39.833,29.865c1.833,1.385,4.083,2.135,6.396,2.135h21.333
			c5.896,0,10.667-4.771,10.667-10.667V266.667C512,260.771,507.229,256,501.333,256z M226.189,193.818
			c4.533,7.357,10.154,13.857,16.632,19.516h-30.73C217.85,207.706,222.478,201.046,226.189,193.818z M170.667,405.333
			c-23.521,0-42.667-19.135-42.667-42.667S147.146,320,170.667,320c23.521,0,42.667,19.135,42.667,42.667
			S194.188,405.333,170.667,405.333z M256,384c-11.771,0-21.333-9.573-21.333-21.333s9.563-21.333,21.333-21.333
			s21.333,9.573,21.333,21.333S267.771,384,256,384z M320,384c-11.771,0-21.333-9.573-21.333-21.333s9.563-21.333,21.333-21.333
			s21.333,9.573,21.333,21.333S331.771,384,320,384z M330.667,298.667H160c-5.896,0-10.667-4.771-10.667-10.667
			s4.771-10.667,10.667-10.667h170.667c5.896,0,10.667,4.771,10.667,10.667S336.563,298.667,330.667,298.667z"/>
	</g>
</g>
<g>
</g>
<g>
</g>
<g>
</g>
<g>
</g>
<g>
</g>
<g>
</g>
<g>
</g>
<g>
</g>
<g>
</g>
<g>
</g>
<g>
</g>
<g>
</g>
<g>
</g>
<g>
</g>
<g>
</g>
</svg>
