<?xml version="1.0" encoding="iso-8859-1"?>
<!-- Generator: Adobe Illustrator 19.0.0, SVG Export Plug-In . SVG Version: 6.00 Build 0)  -->
<svg fill='#eeeeee' version="1.1" id="Capa_1" xmlns="http://www.w3.org/2000/svg" xmlns:xlink="http://www.w3.org/1999/xlink" x="0px" y="0px"
	 viewBox="0 0 512 512" style="enable-background:new 0 0 512 512;" xml:space="preserve">
<g>
	<g>
		<g>
			<path d="M501.333,298.667H480c-2.313,0-4.552,0.75-6.396,2.135l-39.823,29.865h-28.448V256h27.583l18.208,18.208
				c2,2,4.708,3.125,7.542,3.125H480c5.896,0,10.667-4.771,10.667-10.667v-85.333c0-5.896-4.771-10.667-10.667-10.667h-21.333
				c-2.833,0-5.542,1.125-7.542,3.125L432.917,192h-27.583v-85.333c0-23.531-19.135-42.667-42.667-42.667
				c0-23.531-19.135-42.667-42.667-42.667H170.667C147.135,21.333,128,40.469,128,64c-23.531,0-42.667,19.135-42.667,42.667V128
				H55.854l-40.417-20.208c-3.302-1.635-7.229-1.49-10.375,0.469C1.917,110.208,0,113.635,0,117.333v85.333
				c0,3.698,1.917,7.125,5.063,9.073c1.708,1.063,3.656,1.594,5.604,1.594c1.635,0,3.26-0.375,4.771-1.125L55.854,192h29.479v256
				c0,23.531,19.135,42.667,42.667,42.667h234.667c23.531,0,42.667-19.135,42.667-42.667v-32h28.448l39.823,29.865
				C475.448,447.25,477.688,448,480,448h21.333c5.896,0,10.667-4.771,10.667-10.667v-128
				C512,303.438,507.229,298.667,501.333,298.667z M213.333,128c29.406,0,53.333,23.927,53.333,53.333s-23.927,53.333-53.333,53.333
				S160,210.74,160,181.333S183.927,128,213.333,128z M213.333,426.667c-47.052,0-85.333-38.281-85.333-85.333
				C128,294.281,166.281,256,213.333,256c47.052,0,85.333,38.281,85.333,85.333C298.667,388.385,260.385,426.667,213.333,426.667z
				 M362.667,181.333c0,5.896-4.771,10.667-10.667,10.667h-21.333c-5.896,0-10.667-4.771-10.667-10.667V160
				c0-5.896,4.771-10.667,10.667-10.667H352c5.896,0,10.667,4.771,10.667,10.667V181.333z"/>
			<polygon points="213.336,341.319 213.337,341.313 213.333,341.313 			"/>
			<circle cx="213.333" cy="181.333" r="32"/>
			<path d="M213.333,277.333c-35.292,0-64,28.708-64,64c0,35.292,28.708,64,64,64c35.292,0,64-28.708,64-64
				C277.333,306.042,248.625,277.333,213.333,277.333z M263.542,359.542c-2.083,2.083-4.813,3.125-7.542,3.125
				s-5.458-1.042-7.542-3.125L240.917,352h-9.53c-3.724,6.258-10.262,10.667-18.053,10.667c-11.76,0-21.333-9.573-21.333-21.333
				c0-11.76,9.573-21.333,21.333-21.333c7.792,0,14.329,4.409,18.053,10.667h13.947c2.833,0,5.542,1.125,7.542,3.125l10.667,10.667
				C267.708,348.625,267.708,355.375,263.542,359.542z"/>
		</g>
	</g>
</g>
<g>
</g>
<g>
</g>
<g>
</g>
<g>
</g>
<g>
</g>
<g>
</g>
<g>
</g>
<g>
</g>
<g>
</g>
<g>
</g>
<g>
</g>
<g>
</g>
<g>
</g>
<g>
</g>
<g>
</g>
</svg>
