<?xml version="1.0" encoding="iso-8859-1"?>
<!-- Generator: Adobe Illustrator 19.0.0, SVG Export Plug-In . SVG Version: 6.00 Build 0)  -->
<svg fill='#eeeeee' version="1.1" id="Capa_1" xmlns="http://www.w3.org/2000/svg" xmlns:xlink="http://www.w3.org/1999/xlink" x="0px" y="0px"
	 viewBox="0 0 512 512" style="enable-background:new 0 0 512 512;" xml:space="preserve">
<g>
	<g>
		<g>
			<path d="M501.333,106.667H480c-2.313,0-4.563,0.75-6.396,2.135l-39.833,29.865H384V64c0-23.531-19.146-42.667-42.667-42.667H160
				c-29.672,0-55.145,17.533-67.177,42.667H55.854L15.438,43.792c-3.313-1.646-7.229-1.469-10.375,0.469
				C1.917,46.208,0,49.635,0,53.333v85.333c0,3.698,1.917,7.125,5.063,9.073c1.708,1.063,3.646,1.594,5.604,1.594
				c1.625,0,3.271-0.375,4.771-1.125L55.854,128h29.479v96c0,41.167,33.5,74.667,74.667,74.667h53.333V480
				c0,3.698,1.917,7.125,5.063,9.073c1.708,1.063,3.646,1.594,5.604,1.594c1.625,0,3.271-0.375,4.771-1.125l85.333-42.667
				c3.604-1.813,5.896-5.5,5.896-9.542v-5.917c0-3.792-2.021-7.302-5.292-9.219c-4.667-2.708-8.563-6.531-11.313-11.063
				c-0.188-0.292-0.375-0.573-0.583-0.844c-2.042-2.76-4.146-6.771-4.146-15.625s2.104-12.865,4.729-16.469
				c2.75-4.531,6.646-8.354,11.313-11.063c3.271-1.917,5.292-5.427,5.292-9.219v-11.833c0-3.792-2.021-7.302-5.292-9.219
				c-4.667-2.719-8.583-6.552-11.875-12.146c-1.021-1.844-1.854-3.792-3.063-7.615c-0.75-3-1.104-5.469-1.104-7.771v-10.667h42.667
				C364.854,298.667,384,279.531,384,256v-10.667h49.771l39.833,29.865c1.833,1.385,4.083,2.135,6.396,2.135h21.333
				c5.896,0,10.667-4.771,10.667-10.667V117.333C512,111.438,507.229,106.667,501.333,106.667z M277.333,149.333
				c0,23.531-19.146,42.667-42.667,42.667h-64C147.146,192,128,172.865,128,149.333v-32c0-5.896,4.771-10.667,10.667-10.667h33.965
				c4.418-12.389,16.147-21.333,30.035-21.333c13.888,0,25.617,8.944,30.035,21.333h33.965c5.896,0,10.667,4.771,10.667,10.667
				V149.333z M320,256c-11.771,0-21.333-9.573-21.333-21.333c0-11.76,9.563-21.333,21.333-21.333s21.333,9.573,21.333,21.333
				C341.333,246.427,331.771,256,320,256z"/>
			<path d="M202.667,149.333c-13.888,0-25.617-8.944-30.035-21.333h-23.298v21.333c0,11.76,9.563,21.333,21.333,21.333h64
				c11.771,0,21.333-9.573,21.333-21.333V128h-23.298C228.284,140.389,216.555,149.333,202.667,149.333z"/>
		</g>
	</g>
</g>
<g>
</g>
<g>
</g>
<g>
</g>
<g>
</g>
<g>
</g>
<g>
</g>
<g>
</g>
<g>
</g>
<g>
</g>
<g>
</g>
<g>
</g>
<g>
</g>
<g>
</g>
<g>
</g>
<g>
</g>
</svg>
