<?xml version="1.0" encoding="iso-8859-1"?>
<!-- Generator: Adobe Illustrator 19.0.0, SVG Export Plug-In . SVG Version: 6.00 Build 0)  -->
<svg fill='#eeeeee' version="1.1" id="Capa_1" xmlns="http://www.w3.org/2000/svg" xmlns:xlink="http://www.w3.org/1999/xlink" x="0px" y="0px"
	 viewBox="0 0 512 512" style="enable-background:new 0 0 512 512;" xml:space="preserve">
<g>
	<g>
		<path d="M469.333,277.073v-5.727c0-32.039-25.974-58.013-58.014-58.013h-48.652V106.667h10.667
			c5.896,0,10.667-4.771,10.667-10.667s-4.771-10.667-10.667-10.667H192c-76.038,0-138.668,56.876-148,130.38
			c-3.712-1.509-7.751-2.38-12-2.38c-17.646,0-32,14.354-32,32v117.333c0,2.833,1.125,5.542,3.125,7.542l0.013,0.013l21.32,21.32
			c2,2,4.708,3.125,7.542,3.125h19.568c11.102,19.036,31.516,32,55.099,32c23.583,0,43.997-12.964,55.099-32h188.469
			c11.102,19.036,31.516,32,55.099,32c23.583,0,43.997-12.964,55.099-32h40.901c5.896,0,10.667-4.771,10.667-10.667v-22.833
			C512,326.665,495.074,296.262,469.333,277.073z M256,149.333h85.333v64H256V149.333z M202.667,149.333h32v64H128.76
			C133.948,177.198,165.115,149.333,202.667,149.333z M106.667,384c-11.76,0-21.333-9.573-21.333-21.333s9.573-21.333,21.333-21.333
			c11.76,0,21.333,9.573,21.333,21.333S118.427,384,106.667,384z M405.333,384c-11.76,0-21.333-9.573-21.333-21.333
			s9.573-21.333,21.333-21.333c11.76,0,21.333,9.573,21.333,21.333S417.094,384,405.333,384z M490.667,373.333h-22.411
			c0.591-3.487,1.078-7.014,1.078-10.667c0-35.292-28.708-64-64-64c-35.292,0-64,28.708-64,64c0,3.652,0.487,7.18,1.078,10.667
			H169.589c0.591-3.487,1.078-7.014,1.078-10.667c0-35.292-28.708-64-64-64c-35.292,0-64,28.708-64,64
			c0,3.652,0.487,7.18,1.078,10.667h-7.328l-14.979-14.979c2.25-45.063,39.625-81.021,85.229-81.021
			c43.854,0,75.073,24.271,85.656,66.583c1.188,4.75,5.448,8.083,10.344,8.083h75.51c23.031,0,44.438-12.427,55.875-32.427
			c14.885-26.052,42.771-42.24,72.781-42.24c46.229,0,83.833,37.604,83.833,83.833V373.333z"/>
	</g>
</g>
<g>
</g>
<g>
</g>
<g>
</g>
<g>
</g>
<g>
</g>
<g>
</g>
<g>
</g>
<g>
</g>
<g>
</g>
<g>
</g>
<g>
</g>
<g>
</g>
<g>
</g>
<g>
</g>
<g>
</g>
</svg>
