<?xml version="1.0" encoding="utf-8"?>
<!-- Generator: Adobe Illustrator 27.4.1, SVG Export Plug-In . SVG Version: 6.00 Build 0)  -->
<svg version="1.1" id="Ebene_1" xmlns="http://www.w3.org/2000/svg" xmlns:xlink="http://www.w3.org/1999/xlink" x="0px" y="0px"
	 viewBox="0 0 16 16" style="enable-background:new 0 0 16 16;" xml:space="preserve">
<style type="text/css">
	.st0{fill:#BDBDBD;}
	.st1{fill-rule:evenodd;clip-rule:evenodd;fill:#BDBDBD;}
</style>
<path class="st0" d="M13.8,10.8c0.1,0,0.2,0,0.2,0c1.1,0,1.9,0.9,1.9,2.1S15.1,15,14.1,15h-2.4h-1.3H7.9c-1,0-1.9-0.9-1.9-2.1
	s0.9-2.1,1.9-2.1c0.1,0,0.2,0,0.2,0l0,0l0,0l0,0l0,0l0,0l0,0l0,0l0,0l0,0l0,0l0,0l0,0l0,0C8.4,9.2,9.6,8,11,8s2.6,1.2,2.7,2.7l0,0
	l0,0l0,0l0,0l0,0l0,0C13.7,10.8,13.7,10.8,13.8,10.8C13.7,10.8,13.7,10.8,13.8,10.8L13.8,10.8L13.8,10.8L13.8,10.8L13.8,10.8
	L13.8,10.8L13.8,10.8z"/>
<path class="st1" d="M5.5,4.4c0.1-0.1,0.1-0.2,0.1-0.3c0-0.1,0-0.2-0.1-0.3C5.4,3.8,5.3,3.8,5.1,3.8H4.8v0.8h0.3
	C5.3,4.6,5.5,4.5,5.5,4.4z M0,13.5c0,0.4,0.2,0.8,0.5,1.1C0.8,14.8,1.2,15,1.6,15h3.7C5.1,14.5,5,13.9,5,13.4C5,12,5.8,10.6,7.1,10
	H0V13.5z M3,11c0.6,0,1,0.4,1,1s-0.4,1-1,1s-1-0.4-1-1S2.4,11,3,11z M5.5,5.5c-0.1,0-0.2-0.1-0.3-0.1H4.8v0.9h0.4
	c0.2,0,0.3,0,0.4-0.1S5.7,6,5.7,5.8c0-0.1,0-0.1-0.1-0.2S5.6,5.5,5.5,5.5z M13.7,2.1c-0.1-0.3-0.4-0.6-0.6-0.8
	C12.9,1.1,12.5,1,12.2,1H3.9c-0.4,0-0.7,0.1-1,0.3C2.6,1.5,2.4,1.8,2.3,2.1L0,9h7.7C8.4,7.8,9.6,7,11,7c1.5,0,2.6,0.8,3.3,2H16
	L13.7,2.1z M6.7,6.6C6.6,6.8,6.4,6.9,6.2,7S5.6,7.2,5.3,7.2H3.6V2.9h1.5c0.6,0,1.1,0.1,1.3,0.3S6.8,3.6,6.8,4c0,0.2,0,0.3-0.1,0.5
	C6.7,4.6,6.6,4.7,6.5,4.8C6.4,4.8,6.3,4.9,6.2,4.9v0C6.3,5,6.4,5,6.5,5.1s0.2,0.2,0.3,0.3c0.1,0.1,0.1,0.3,0.1,0.5
	C6.9,6.2,6.9,6.4,6.7,6.6z"/>
</svg>
